<svg xmlns="http://www.w3.org/2000/svg" width="40" height="40" fill="none" viewBox="0 0 40 40">
  <path fill="currentColor" d="M9.11612 9.11612c.48815-.48816 1.27958-.48816 1.76778 0L20 18.2322l9.1161-9.11608c.4882-.48816 1.2796-.48816 1.7678 0 .4881.48815.4881 1.27958 0 1.76778L21.7678 20l9.1161 9.1161c.4881.4882.4881 1.2796 0 1.7678-.4882.4881-1.2796.4881-1.7678 0L20 21.7678l-9.1161 9.1161c-.4882.4881-1.27963.4881-1.76778 0-.48816-.4882-.48816-1.2796 0-1.7678L18.2322 20l-9.11608-9.1161c-.48816-.4882-.48816-1.27963 0-1.76778Z"/>
</svg>
