<svg xmlns="http://www.w3.org/2000/svg" width="32" height="32" fill="none" viewBox="0 0 32 32">
  <path fill="currentColor" d="M7.29289 7.29289c.39053-.39052 1.02369-.39052 1.41422 0L16 14.5858l7.2929-7.29291c.3905-.39052 1.0237-.39052 1.4142 0 .3905.39053.3905 1.02369 0 1.41422L17.4142 16l7.2929 7.2929c.3905.3905.3905 1.0237 0 1.4142-.3905.3905-1.0237.3905-1.4142 0L16 17.4142l-7.29289 7.2929c-.39053.3905-1.02369.3905-1.41422 0-.39052-.3905-.39052-1.0237 0-1.4142L14.5858 16 7.29289 8.70711c-.39052-.39053-.39052-1.02369 0-1.41422Z"/>
</svg>
