<svg xmlns="http://www.w3.org/2000/svg" width="12" height="12" fill="none" viewBox="0 0 12 12">
  <path fill="currentColor" d="M9.26517 3.26517c.14644-.14645.14644-.38389 0-.53034-.14645-.14644-.38389-.14644-.53034 0L6 5.46967 3.26517 2.73483c-.14645-.14644-.38389-.14644-.53034 0-.14644.14645-.14644.38389 0 .53034L5.46967 6 2.73483 8.73483c-.14644.14645-.14644.38389 0 .53034.14645.14644.38389.14644.53034 0L6 6.53033l2.73483 2.73484c.14645.14644.38389.14644.53034 0 .14644-.14645.14644-.38389 0-.53034L6.53033 6l2.73484-2.73483Z"/>
</svg>
