<svg xmlns="http://www.w3.org/2000/svg" width="12" height="12" fill="none" viewBox="0 0 12 12">
  <path fill="currentColor" d="M9.15 3.29999c.76233 0 1.35.68566 1.35 1.49997v4.20007c0 .8143-.58767 1.49997-1.35 1.49997h-4.5c-.76233 0-1.35-.68567-1.35-1.49997h.9c0 .34541.21822.59998.45.59998h4.5c.23178 0 .45-.25457.45-.59998V4.79996c0-.34541-.21822-.59998-.45-.59998v-.89999ZM7.35 1.5c.74557 0 1.35.60443 1.35 1.34999v4.49997c0 .74556-.60443 1.34999-1.35 1.34999h-4.5c-.74557 0-1.35-.60443-1.35-1.34999V2.84999C1.5 2.10443 2.10443 1.5 2.85 1.5h4.5Zm0 .89999h-4.5c-.24854 0-.45.20146-.45.45v4.49997c0 .24854.20146.44999.45.44999h4.5c.24854 0 .45-.20145.45-.44999V2.84999c0-.24854-.20146-.45-.45-.45Z"/>
</svg>
