<svg xmlns="http://www.w3.org/2000/svg" width="32" height="32" fill="none" viewBox="0 0 32 32">
  <path fill="currentColor" fill-rule="evenodd" d="M28.3293 14.6321h.004c.7347 0 1.332.5946 1.3334 1.3293.0106 3.5613-1.3667 6.9147-3.8787 9.44-2.5107 2.5253-5.8547 3.9213-9.416 3.932h-.0387c-3.548 0-6.8853-1.376-9.4013-3.8787-2.52533-2.5106-3.92133-5.8546-3.932-9.416-.01067-3.5626 1.36667-6.91462 3.87867-9.43995 2.51066-2.52534 5.85463-3.92134 9.41603-3.932 1.06.016 2.14.12266 3.1746.37066.7147.17334 1.156.89334.9827 1.60934-.172.71466-.896 1.15466-1.608.984-.828-.2-1.7067-.284-2.5413-.29734-2.8494.008-5.5254 1.12534-7.53337 3.14534C6.76 10.4987 5.65867 13.1814 5.66667 16.0307c.008 2.8494 1.12533 5.524 3.14533 7.5334 2.0133 2.0013 4.6827 3.1026 7.5213 3.1026h.0307c2.8493-.008 5.5253-1.1253 7.5333-3.1453 2.0094-2.0213 3.1107-4.7027 3.1027-7.552-.0013-.736.5933-1.336 1.3293-1.3373Zm-16.9384.4242c.5214-.5214 1.364-.5214 1.8854 0l2.992 2.992 8.396-9.5947c.4853-.55067 1.3266-.60934 1.8813-.124.5533.484.6093 1.32666.124 1.8813l-9.3333 10.6667c-.2427.2773-.5894.4413-.9587.4547h-.044c-.3533 0-.692-.14-.9427-.3907l-4-4c-.5213-.5213-.5213-1.364 0-1.8853Z" clip-rule="evenodd"/>
</svg>
