<svg xmlns="http://www.w3.org/2000/svg" width="40" height="40" fill="none" viewBox="0 0 40 40">
  <path fill="currentColor" fill-rule="evenodd" d="M35.3283 18.2902h.005c.9184 0 1.665.7433 1.6667 1.6616.0133 4.4517-1.7083 8.6434-4.8483 11.8-3.1384 3.1567-7.3184 4.9017-11.77 4.915h-.0484c-4.435 0-8.6066-1.72-11.75163-4.8483-3.15666-3.1383-4.90166-7.3183-4.915-11.77-.01333-4.4533 1.70834-8.6433 4.84834-11.8C11.6533 5.09183 15.8333 3.34683 20.285 3.3335c1.325.02 2.675.15333 3.9683.46333.8934.21667 1.445 1.11667 1.2284 2.01167-.215.89333-1.12 1.44333-2.01 1.23-1.035-.25-2.1334-.355-3.1767-.37167-3.5617.01-6.9067 1.40667-9.4167 3.93167-2.51163 2.525-3.88829 5.8783-3.87829 9.44.01 3.5617 1.40666 6.905 3.93169 9.4167 2.5166 2.5016 5.8533 3.8783 9.4016 3.8783h.0384c3.5616-.01 6.9066-1.4067 9.4166-3.9317 2.5117-2.5266 3.8884-5.8783 3.8784-9.44-.0017-.92.7416-1.67 1.6616-1.6716Zm-21.173.5302c.6517-.6517 1.705-.6517 2.3567 0l3.74 3.74 10.495-11.9933c.6067-.68838 1.6583-.76171 2.3517-.155.6916.605.7616 1.6583.155 2.3516L21.587 26.0971c-.3033.3466-.7367.5516-1.1983.5683h-.055c-.4417 0-.865-.175-1.1784-.4883l-5-5c-.6516-.6517-.6516-1.705 0-2.3567Z" clip-rule="evenodd"/>
</svg>
