<svg xmlns="http://www.w3.org/2000/svg" width="16" height="16" fill="none" viewBox="0 0 16 16">
  <path fill="currentColor" fill-rule="evenodd" d="M14.3314 7.31616h.002c.3673 0 .666.29734.6666.66467.0054 1.78067-.6833 3.45737-1.9393 4.71997-1.2553 1.2627-2.9273 1.9607-4.70801 1.966h-.01934c-1.774 0-3.44266-.688-4.70066-1.9393-1.26267-1.2553-1.96067-2.92734-1.966-4.708-.00534-1.78134.68333-3.45734 1.93933-4.72 1.25533-1.26267 2.92733-1.96067 4.708-1.966.53.008 1.07.06133 1.58733.18533.35735.08667.57805.44667.49135.80467-.086.35733-.44801.57733-.80401.492-.414-.1-.85334-.142-1.27067-.14867-1.42467.004-2.76267.56267-3.76667 1.57267-1.00466 1.01-1.55533 2.35133-1.55133 3.776.004 1.42466.56267 2.762 1.57267 3.7667 1.00666 1.0006 2.34133 1.5513 3.76066 1.5513h.01534c1.42466-.004 2.76271-.5627 3.76671-1.5727 1.0046-1.0106 1.5553-2.3513 1.5513-3.77597-.0007-.368.2967-.668.6647-.66867Zm-8.46924.21209c.26066-.26066.682-.26066.94266 0l1.496 1.496 4.19798-4.79733c.2427-.27533.6634-.30467.9407-.062.2767.242.3047.66333.062.94067L8.83482 10.4389c-.12133.1387-.29466.2207-.47933.2274h-.022c-.17667 0-.346-.07-.47133-.1954l-2-1.99998c-.26067-.26067-.26067-.682 0-.94267Z" clip-rule="evenodd"/>
</svg>
