<svg xmlns="http://www.w3.org/2000/svg" width="12" height="12" fill="none" viewBox="0 0 12 12">
  <path fill="currentColor" fill-rule="evenodd" d="M10.8318 5.487h.0015c.2755 0 .4995.223.5.4985.004 1.3355-.5125 2.593-1.45446 3.54-.9415.947-2.1955 1.4705-3.531 1.4745h-.0145c-1.3305 0-2.582-.516-3.5255-1.4545-.947-.9415-1.4705-2.1955-1.4745-3.531-.004-1.336.5125-2.593 1.4545-3.54.9415-.947 2.1955-1.4705 3.531-1.4745.3975.006.8025.046 1.1905.139.268.065.4335.335.3685.6035-.0645.268-.336.433-.603.369-.3105-.075-.64-.1065-.953-.1115-1.0685.003-2.072.422-2.825 1.1795-.7535.7575-1.1665 1.7635-1.1635 2.832.003 1.0685.422 2.0715 1.1795 2.825.755.7505 1.756 1.1635 2.8205 1.1635h.0115c1.0685-.003 2.072-.422 2.825-1.1795.7535-.758 1.16646-1.7635 1.16346-2.832-.0005-.276.2225-.501.4985-.5015Zm-6.35186.15907c.1955-.1955.5115-.1955.707 0l1.122 1.122 3.1485-3.598c.182-.2065.4975-.2285.70546-.0465.2075.1815.2285.4975.0465.7055l-3.49996 4c-.091.104-.221.1655-.3595.1705h-.0165c-.1325 0-.2595-.0525-.3535-.1465l-1.5-1.5c-.1955-.1955-.1955-.5115 0-.707Z" clip-rule="evenodd"/>
</svg>
