<svg xmlns="http://www.w3.org/2000/svg" width="12" height="12" fill="none" viewBox="0 0 12 12">
  <path fill="currentColor" fill-rule="evenodd" d="M1.1405 11.9998h9.5498c.2774 0 .5026-.2252.5026-.5027 0-.2774-.2252-.5026-.5026-.5026H1.1405c-.277453 0-.502622.2252-.502622.5026 0 .2775.225169.5027.502622.5027Zm9.7801-8.63248c.2825-.28295.4413-.66642.4413-1.06605 0-.40009-.1588-.78354-.4413-1.06662-.2539-.253775-.5398-.539296-.7936-.793076-.28251-.28295-.66655-.44181814-1.06606-.44181814-.40009 0-.78354.15886214-1.06662.44181814L1.92783 6.50835c-.23078.23067-.37998.52965-.42622.85288l-.22719 1.58931c-.04476.31312.06081.62874.28441.85288.22371.22368.53987.32868.85299.28408l1.58931-.22675c.32266-.04623.62222-.196.85288-.42665l6.06659-6.06678Zm-3.59815-.83234 1.50427 1.50438-4.68385 4.68385c-.07685.07686-.17637.12667-.28396.14226L2.2696 9.0921l.22719-1.58874c.01503-.10804.06529-.20756.14225-.28452l4.68341-4.68386Zm2.215.79365L8.03307 1.82424l.67247-.67193c.09402-.09458.22226-.14731.35543-.14731s.26085.05273.35531.14731c.25389.25378.53987.5393.79362.79308.094.09446.1468.22214.1468.35588 0 .13317-.0527.26085-.1468.35531l-.67245.67205Z" clip-rule="evenodd"/>
</svg>
