<svg xmlns="http://www.w3.org/2000/svg" width="40" height="40" fill="none" viewBox="0 0 40 40">
  <path fill="currentColor" fill-rule="evenodd" d="M3.80205 40H35.6347c.9248 0 1.6754-.7506 1.6754-1.6754s-.7506-1.6754-1.6754-1.6754H3.80205c-.92484 0-1.6754.7506-1.6754 1.6754S2.87721 40 3.80205 40ZM36.4025 11.2252c.9417-.9432 1.4708-2.22139 1.4708-3.55348 0-1.33362-.5291-2.61181-1.4708-3.5554-.8463-.84592-1.7996-1.79766-2.6455-2.64359C32.8153.529561 31.5352 0 30.2035 0c-1.3336 0-2.6118.529542-3.5554 1.47273L6.4265 21.6953c-.76927.7689-1.26661 1.7655-1.42074 2.8429l-.75731 5.2978c-.14921 1.0437.2027 2.0957.94802 2.8429.74571.7457 1.79958 1.0957 2.84331.9469l5.29772-.7558c1.0755-.1541 2.074-.6534 2.8429-1.4222l20.2221-20.2226Zm-11.994-2.77447 5.0143 5.01467-15.6129 15.6128c-.2561.2562-.5878.4222-.9465.4742l-5.2977.7554.75731-5.2958c.05011-.3601.21764-.6918.47419-.9484L24.4085 8.45073Zm7.3834 2.64547-5.0146-5.01458 2.2416-2.23978c.3134-.31526.7408-.49103 1.1847-.49103.4439 0 .8695.17577 1.1844.49103.8463.84593 1.7996 1.79766 2.6455 2.6436.3134.31489.4892.74047.4892 1.18628 0 .4439-.1758.86948-.4892 1.18436l-2.2416 2.24012Z" clip-rule="evenodd"/>
</svg>
