<svg xmlns="http://www.w3.org/2000/svg" width="16" height="16" fill="none" viewBox="0 0 16 16">
  <path fill="currentColor" fill-rule="evenodd" d="M1.52069 15.9998H14.2537c.37 0 .6702-.3003.6702-.6702s-.3002-.6702-.6702-.6702H1.52069c-.36994 0-.670165.3003-.670165.6702s.300225.6702.670165.6702ZM14.5609 4.48984c.3766-.37727.5883-.88856.5883-1.4214 0-.53345-.2117-1.04472-.5883-1.42216-.3385-.33837-.7199-.71906-1.0582-1.057434-.3767-.377266-.8887-.58909014-1.4214-.58909014-.5335 0-1.0447.21181714-1.4222.58909014L2.57046 8.67788c-.3077.30756-.50664.7062-.56829 1.13717l-.30292 2.11905c-.05969.4175.08108.8384.3792 1.1372.29829.2983.71983.4383 1.13733.3788l2.11908-.3024c.43021-.0616.82962-.2613 1.13717-.5688l8.08887-8.08906ZM9.76328 3.38005 11.769 5.3859 5.52385 11.631c-.10247.1025-.23516.1689-.37862.1897l-2.11908.3022.30292-2.1183c.02004-.14409.08706-.27678.18968-.3794l6.24453-6.24515Zm2.95332 1.0582L10.7108 2.4324l.8966-.89591c.1254-.1261.2964-.19641.4739-.19641.1776 0 .3478.07031.4738.19641.3385.33837.7198.71907 1.0582 1.05744.1253.12596.1956.29619.1956.47451 0 .17756-.0703.3478-.1956.47375l-.8967.89606Z" clip-rule="evenodd"/>
</svg>
