<svg xmlns="http://www.w3.org/2000/svg" width="40" height="40" fill="none" viewBox="0 0 40 40">
  <path fill="currentColor" d="M10.9782 19.3894c0-.1889.0377-.376.111-.5504.0732-.1744.1805-.3328.3157-.466.1353-.1333.2958-.2388.4723-.3105.1765-.0716.3656-.1081.5564-.1072l2.4131.0078c.3848 0 .7538.1513 1.0258.4207.2721.2693.4249.6347.4249 1.0156v9.0337c.2717-.0798.6206-.1649 1.0024-.2539.2651-.0617.5015-.2103.6707-.4217.1691-.2114.2611-.4732.2611-.7429V15.8087c0-.381.1528-.7463.4248-1.0157.2721-.2694.6411-.4208 1.0259-.4209h2.4178c.3848.0001.7538.1515 1.0258.4209.2721.2694.4249.6347.4249 1.0157v10.4002s.6054-.2425 1.1951-.489c.219-.0917.4059-.2452.5374-.4414s.2017-.4265.202-.6619V12.218c0-.3809.1528-.7462.4247-1.0155.272-.2693.6409-.4207 1.0256-.4208h2.418c.3847 0 .7537.1513 1.0257.4207.2721.2694.4249.6347.4249 1.0156v10.21c2.0963-1.5042 4.2206-3.3131 5.9064-5.4884.2447-.3158.4065-.6865.4711-1.0792.0646-.3927.0301-.7952-.1005-1.1715-.7804-2.2229-2.0207-4.26-3.6419-5.98103-1.6212-1.721-3.5874-3.088-5.7728-4.01349-2.1854-.92549-4.5419-1.3891-6.9187-1.36116-2.3767.02795-4.7214.54683-6.884 1.52345-2.1626.97661-4.09545 2.38945-5.67487 4.14811C6.6095 10.7634 5.41828 12.8291 4.69151 15.0698c-.72678 2.2406-.9731 4.6067-.72322 6.947s.99046 4.6032 2.17436 6.6438c.20624.352.50966.6385.87461.8257.36494.1872.77627.2674 1.18568.2312.45735-.0398 1.02677-.0962 1.7038-.1749.29476-.0331.56686-.1725.76446-.3914.1976-.219.307-.5023.3073-.796l-.0003-8.9658Z"/>
  <path fill="currentColor" d="M10.2637 33.435c2.5205 1.8337 5.4993 2.9344 8.6067 3.1803 3.1073.2456 6.2221-.3728 8.9997-1.7875 2.7776-1.4148 5.1096-3.5702 6.7382-6.228 1.6284-2.6578 2.4899-5.7143 2.4891-8.8314 0-.389-.018-.7738-.0439-1.1563-6.1731 9.2067-17.5711 13.511-26.7893 14.8215"/>
</svg>
