<svg xmlns="http://www.w3.org/2000/svg" width="32" height="32" fill="none" viewBox="0 0 32 32">
  <path fill="currentColor" d="M8.78285 15.5114c.00003-.1511.03021-.3007.0888-.4403.05859-.1395.14444-.2662.25263-.3728.10821-.1066.23658-.191.3778-.2484.14123-.0573.2925-.0865.44514-.0857l1.93048.0062c.3078 0 .603.1211.8206.3365.2177.2155.34.5078.34.8125v7.227c.2173-.0639.4964-.132.8018-.2032.2122-.0493.4012-.1682.5366-.3373.1353-.1691.2089-.3785.2089-.5943v-8.9647c0-.3048.1222-.5971.3399-.8126.2176-.2155.5128-.3366.8206-.3367h1.9343c.3078.0001.603.1212.8207.3367.2176.2155.3399.5078.3399.8126v8.3201s.4843-.194.956-.3912c.1752-.0733.3248-.1962.43-.3531.1052-.157.1613-.3412.1615-.5295V9.77431c0-.3047.1223-.59694.3398-.81241.2176-.21548.5128-.33654.8205-.33661h1.9344c.3078 0 .6029.12104.8206.33654.2176.21547.3399.50774.3399.81248v8.16799c1.677-1.2033 3.3765-2.6505 4.7251-4.3907.1958-.2526.3252-.5492.3769-.8634.0517-.3142.024-.6361-.0805-.9371-.6243-1.77836-1.6165-3.40808-2.9135-4.7849-1.2969-1.3768-2.8699-2.4704-4.6182-3.2108-1.7483-.74039-3.6335-1.11128-5.5349-1.08892-1.9014.02236-3.7772.43747-5.5072 1.21876-1.73012.78129-3.2764 1.91156-4.53994 3.31848-1.26354 1.40691-2.21652 3.05948-2.79794 4.85198s-.77848 3.6854-.57857 5.5577c.1999 1.8722.79237 3.6825 1.73949 5.315.16499.2816.40773.5108.69968.6605.29196.1498.62102.214.94855.185.36588-.0318.82142-.077 1.36304-.1399.23577-.0265.45345-.138.61155-.3132.15813-.1751.24562-.4018.24582-.6367l-.00023-7.1727Z"/>
  <path fill="currentColor" d="M8.21124 26.748c2.01646 1.4669 4.39946 2.3476 6.88536 2.5443 2.4859.1964 4.9777-.2983 7.1998-1.4301s4.0876-2.8561 5.3906-4.9823c1.3027-2.1263 1.9919-4.5715 1.9912-7.0652 0-.3112-.0144-.619-.0351-.9251-4.9385 7.3655-14.0569 10.8089-21.43144 11.8573"/>
</svg>
