<svg xmlns="http://www.w3.org/2000/svg" width="12" height="12" fill="none" viewBox="0 0 12 12">
  <path fill="currentColor" d="M3.2945 5.81671c.00001-.05667.01133-.11277.0333-.16511.02197-.05232.05416-.09983.09473-.13981.04058-.03998.08872-.07162.14168-.09313.05296-.0215.10969-.03243.16693-.03216l.72393.00233c.11542 0 .22612.0454.30773.12621.08162.0808.12748.1904.12748.30468v2.71011c.08149-.02394.18616-.04948.3007-.07618.07955-.01849.15046-.06307.20121-.12649.05074-.06342.07835-.14196.07833-.22287V4.74251c0-.11429.04585-.22389.12746-.30471.08161-.08082.19231-.12623.30775-.12626h.72536c.11543.00003.22613.04544.30774.12626.08161.08082.12747.19042.12747.30471v3.12006s.18161-.07276.35851-.14669c.06571-.02751.12179-.07358.16124-.13244.03945-.05886.06051-.12792.06058-.19856V3.66531c0-.11427.04583-.22386.12743-.30466.0816-.0808.19227-.1262.30768-.12623h.72537c.11543 0 .22612.04539.30774.12621.08161.0808.12747.1904.12747.30468v3.06298c.62887-.45124 1.26618-.99393 1.77188-1.64651.0734-.09472.122-.20596.1414-.32377.0193-.1178.009-.23854-.0302-.35143-.2341-.66686-.6062-1.27801-1.0926-1.79432-.48633-.5163-1.07619-.9264-1.73181-1.20405-.65562-.27764-1.36256-.416724-2.0756-.408341-.71303.008381-1.41643.164051-2.0652.457031-.64878.29299-1.22863.71684-1.70246 1.24444-.47383.52758-.8312 1.14731-1.04923 1.8195-.21803.67218-.29193 1.38202-.21696 2.08411.07496.70209.29714 1.38094.65231 1.99314.06187.1056.15289.19153.26238.2477.10948.05616.23288.08022.3557.06937.13721-.01193.30803-.02887.51114-.05248.08841-.00994.17005-.05174.22933-.11743.0593-.06569.09211-.15068.09219-.23878L3.2945 5.81671Z"/>
  <path fill="currentColor" d="M3.08014 10.0304c.75617.5501 1.6498.8803 2.582.9541.93222.0737 1.86665-.1119 2.69993-.5363.83328-.4244 1.53287-1.07103 2.02143-1.86837.4885-.79734.747-1.71431.7468-2.64943 0-.11669-.0055-.23213-.0132-.3469C9.26515 8.34553 5.84575 9.6368 3.0803 10.03"/>
</svg>
