<svg xmlns="http://www.w3.org/2000/svg" width="12" height="12" fill="none" viewBox="0 0 12 12">
  <path fill="currentColor" d="M1.4375 3c0-.31066.25184-.5625.5625-.5625h8c.3107 0 .5625.25184.5625.5625s-.2518.5625-.5625.5625H2c-.31066 0-.5625-.25184-.5625-.5625Zm0 2.75006c0-.31066.25184-.5625.5625-.5625h8c.3107 0 .5625.25184.5625.5625s-.2518.5625-.5625.5625H2c-.31066 0-.5625-.25184-.5625-.5625ZM2 7.93744c-.31066 0-.5625.25184-.5625.5625s.25184.5625.5625.5625h8c.3107 0 .5625-.25184.5625-.5625s-.2518-.5625-.5625-.5625H2Z"/>
</svg>
