<svg xmlns="http://www.w3.org/2000/svg" width="40" height="40" fill="none" viewBox="0 0 40 40">
  <path fill="currentColor" d="M5.41663 10c0-.69036.55964-1.25 1.25-1.25H33.3333c.6903 0 1.25.55964 1.25 1.25 0 .6904-.5597 1.25-1.25 1.25H6.66663c-.69036 0-1.25-.5596-1.25-1.25Zm0 9.1667c0-.6904.55964-1.25 1.25-1.25H33.3333c.6903 0 1.25.5596 1.25 1.25 0 .6903-.5597 1.25-1.25 1.25H6.66663c-.69036 0-1.25-.5597-1.25-1.25Zm0 9.1666c0-.6903.55964-1.25 1.25-1.25H33.3333c.6903 0 1.25.5597 1.25 1.25 0 .6904-.5597 1.25-1.25 1.25H6.66663c-.69036 0-1.25-.5596-1.25-1.25Z"/>
</svg>
