<svg xmlns="http://www.w3.org/2000/svg" width="32" height="32" fill="none" viewBox="0 0 32 32">
  <path fill="currentColor" fill-rule="evenodd" d="M16 0C7.17193 0 0 7.1726 0 16s7.1726 16 16 16 16-7.1726 16-16S24.8274 0 16 0Zm0 29.3523c-7.39301 0-13.35164-5.9587-13.35164-13.3516C2.64836 8.60772 8.60705 2.64902 16 2.64902c7.393 0 13.3516 5.9587 13.3516 13.35168 0 7.3929-5.9586 13.3516-13.3516 13.3516Z" clip-rule="evenodd"/>
  <path fill="currentColor" fill-rule="evenodd" d="M16.1105 11.5866c-.7725 0-1.4344.6621-1.4344 1.4344l-.0002 11.8074c0 .7725.6621 1.4344 1.4344 1.4344.7725 0 1.4344-.6622 1.4344-1.4344l.0002-11.6969c0-.8827-.6621-1.5449-1.4344-1.5449Zm1.3239-4.30399c0 .79216-.6423 1.43439-1.4344 1.43439-.7922 0-1.4344-.64222-1.4344-1.43439 0-.79216.6422-1.43465 1.4344-1.43465.7921 0 1.4344.64248 1.4344 1.43465Z" clip-rule="evenodd"/>
</svg>
