<svg xmlns="http://www.w3.org/2000/svg" width="40" height="40" fill="none" viewBox="0 0 40 40">
  <path fill="currentColor" fill-rule="evenodd" d="M20 0C8.96491 0 0 8.96575 0 20c0 11.0343 8.96575 20 20 20 11.0343 0 20-8.9657 20-20C40 8.96575 31.0343 0 20 0Zm0 36.6904c-9.2413 0-16.68956-7.4484-16.68956-16.6896C3.31044 10.7597 10.7588 3.31128 20 3.31128S36.6896 10.7597 36.6896 20.0008c0 9.2412-7.4484 16.6896-16.6896 16.6896Z" clip-rule="evenodd"/>
  <path fill="currentColor" fill-rule="evenodd" d="M20.1382 14.4832c-.9657 0-1.793.8277-1.793 1.793l-.0003 14.7593c0 .9656.8276 1.7929 1.7929 1.7929.9657 0 1.793-.8276 1.793-1.7929l.0003-14.6211c0-1.1034-.8276-1.9312-1.7929-1.9312Zm1.6547-5.37994c0 .99024-.8027 1.79294-1.7929 1.79294s-1.793-.8027-1.793-1.79294c0-.9902.8028-1.79331 1.793-1.79331s1.7929.80309 1.7929 1.79331Z" clip-rule="evenodd"/>
</svg>
