<svg xmlns="http://www.w3.org/2000/svg" width="40" height="40" fill="none" viewBox="0 0 40 40">
  <path fill="currentColor" fill-rule="evenodd" d="M34.9786 6.49882C34.9786 5.67098 34.3071 5 33.4787 5H22.8721c-.8284 0-1.4999.67098-1.4999 1.49882 0 .82785.6715 1.49883 1.4999 1.49883h6.9853L19.69 18.1577c-.5859.5854-.5859 1.5345 0 2.1196.5858.5855 1.5353.5855 2.1211 0l10.1675-10.16v6.9802c0 .8276.6718 1.4988 1.5 1.4988.8284 0 1.4999-.6712 1.4999-1.4988l.0001-10.59868ZM13.6382 34.9997h12.7241c1.2074 0 2.2041 0 3.0157-.0662.8432-.0687 1.6182-.2165 2.3462-.5872 1.129-.5746 2.0469-1.4921 2.6219-2.62.3709-.7274.5188-1.5021.5876-2.3444C35 28.5708 35 27.5749 35 26.3684v-1.1111c0-.8279-.6715-1.4989-1.4999-1.4989-.8285 0-1.4999.671-1.4999 1.4989v1.0491c0 1.284-.0013 2.1568-.0563 2.8316-.0537.6571-.1512.9932-.2707 1.2275-.2875.5641-.7466 1.0228-1.3111 1.3102-.2346.1194-.5708.2168-1.2285.2705-.6752.0549-1.5486.0562-2.8336.0562H13.7c-1.285 0-2.1584-.0013-2.8334-.0562-.6576-.0537-.99392-.1511-1.22843-.2705-.56451-.2874-1.02357-.7461-1.31112-1.3102-.11953-.2344-.21696-.5704-.2707-1.2275-.05525-.6748-.05625-1.5476-.05625-2.8316V13.7156c0-1.284.00125-2.1568.05625-2.8313.05374-.6572.15117-.99319.2707-1.22754.28753-.56409.74656-1.02281 1.31112-1.31015.23454-.11945.57083-.21681 1.22843-.27051.6753-.0552 1.5487-.0562 2.8334-.0562h1.0499c.8284 0 1.4999-.67098 1.4999-1.49883 0-.82785-.6715-1.49882-1.4999-1.49882h-1.112c-1.2073 0-2.204 0-3.0156.06624-.84328.06875-1.61825.21656-2.34623.58718-1.12899.57489-2.04687 1.49208-2.62216 2.62025-.3709.72744-.51881 1.5021-.58762 2.34448C5 11.4517 5 12.4474 5 13.6538v12.7149c0 1.2067 0 2.2024.06629 3.0134.06881.8426.21672 1.617.58762 2.3445.5753 1.1282 1.49317 2.0454 2.62216 2.62.72798.3706 1.5032.5184 2.34623.5872C11.4341 35 12.4306 35 13.6382 35v-.0003Z" clip-rule="evenodd"/>
</svg>
