<svg xmlns="http://www.w3.org/2000/svg" width="32" height="32" fill="none" viewBox="0 0 32 32">
  <path fill="currentColor" fill-rule="evenodd" d="M27.9829 5.19906c0-.66228-.5372-1.19906-1.2-1.19906h-8.4852c-.6628 0-1.1999.53678-1.1999 1.19906s.5371 1.19906 1.1999 1.19906h5.5883l-8.134 8.12808c-.4687.4683-.4687 1.2275 0 1.6957.4686.4683 1.2282.4683 1.6969 0l8.134-8.12808V13.678c0 .6621.5374 1.1991 1.1999 1.1991.6628 0 1.2-.537 1.2-1.1991l.0001-8.47894ZM10.9105 27.9998h10.1794c.9659 0 1.7632 0 2.4125-.053.6746-.055 1.2946-.1732 1.8769-.4697.9032-.4598 1.6375-1.1937 2.0976-2.096.2967-.582.415-1.2017.4701-1.8756.053-.6488.053-1.4456.053-2.4108v-.8889c0-.6623-.5372-1.199-1.1999-1.199-.6628 0-1.2.5367-1.2 1.199v.8393c0 1.0272-.001 1.7254-.045 2.2653-.043.5257-.1209.7945-.2165.982-.2301.4513-.5973.8182-1.0489 1.0481-.1877.0956-.4567.1735-.9828.2164-.5402.044-1.2389.045-2.2669.045H10.96c-1.028 0-1.72671-.001-2.26671-.045-.52612-.0429-.79514-.1208-.98276-.2164-.4516-.2298-.81885-.5968-1.04889-1.0481-.09563-.1875-.17357-.4563-.21656-.982-.0442-.5399-.045-1.2381-.045-2.2653V10.9725c0-1.02725.001-1.72545.045-2.26505.04299-.52574.12094-.79456.21656-.98204.23003-.45128.59724-.81825 1.04889-1.04812.18764-.09556.45663-.17345.98276-.21641.54021-.04416 1.23892-.04496 2.26671-.04496h.8399c.6628 0 1.1999-.53678 1.1999-1.19906s-.5371-1.19906-1.1999-1.19906h-.8896c-.96585 0-1.7632 0-2.41249.05299-.6746.05501-1.29457.17325-1.87695.46975-.9032.45991-1.6375 1.19366-2.09774 2.09619-.29671.58196-.41504 1.20168-.47009 1.87558C4 9.16133 4 9.95789 4 10.9231v10.1718c0 .9654 0 1.762.05303 2.4108.05505.6741.17338 1.2936.47009 1.8756.46025.9025 1.19454 1.6363 2.09774 2.096.58238.2965 1.20256.4147 1.87695.4697C9.1473 28 9.94445 28 10.9105 28v-.0002Z" clip-rule="evenodd"/>
</svg>
