<svg xmlns="http://www.w3.org/2000/svg" width="12" height="12" fill="none" viewBox="0 0 12 12">
  <path fill="currentColor" fill-rule="evenodd" d="M8.25 2.4375h-4.5c-.31066 0-.5625.25184-.5625.5625s.25184.5625.5625.5625h3.14201L3.35225 7.10225c-.21967.21967-.21967.57583 0 .7955.21967.21967.57583.21967.7955 0L7.6875 4.358V7.5c0 .31066.25184.5625.5625.5625s.5625-.25184.5625-.5625V3.00052c0-.0013 0-.0026-.00001-.00389.00001.00112.00001.00224.00001.00337m-.34718-.51982c.06536.02705.12666.06694.18003.11969-.05131-.05071-.11234-.09162-.18003-.11969Z" clip-rule="evenodd"/>
</svg>
