<svg xmlns="http://www.w3.org/2000/svg" fill="none" viewBox="0 0 203 161">
  <g clip-path="url(#a)">
    <path fill="#00A99D" d="M122.651 15.3087c-.543 7.1409-1.664 14.2473-3.514 21.1921-1.837 6.9333-4.403 13.705-7.79 20.05-1.699 3.1724-3.595 6.2411-5.71 9.1482-2.115 2.9071-4.438 5.6643-6.9465 8.2254-.8322.8536-1.6991 1.6842-2.566 2.4918.2774.0692.5548.1269.8438.1846l2.8318.5652c1.8839.3577 3.7679.7845 5.6749 1.0614 4.89.8652 9.813 1.5112 14.772 2.0073.601-.3923 1.202-.796 1.792-1.2113 3.097-2.1804 6.126-4.4761 8.888-7.0602 2.763-2.561 5.329-5.2836 7.582-8.2715 2.22-2.9994 4.161-6.2065 5.722-9.6212 4.346-9.4828 5.525-20.3961 4.022-31.0787-6.542-8.3176-15.245-14.85863-25.255-18.79249v.36916c.035 3.59931-.081 7.17553-.347 10.75173v-.0115Z"/>
    <path fill="#00D1C2" d="M66.1995 90.5823c.786-.323 1.5835-.6229 2.3695-.969l2.3232-1.0614c3.063-1.4766 6.0682-3.0571 8.9116-4.9029 1.8147-1.1767 3.5832-2.4226 5.2938-3.7377l-3.6756-.8191-1.4448-.323-1.4332-.3807-2.8665-.7614c-1.9188-.5076-3.8375-.9921-5.7215-1.615l-5.6868-1.7766-5.6058-2.0189c-.9362-.346-1.8725-.6691-2.7972-1.0267l-2.7509-1.1421c-1.8378-.7729-3.6871-1.5112-5.5018-2.3188l-5.4094-2.561-1.1327-.5422c.8553 11.294 4.8546 21.7112 11.1077 30.3864 3.1208-.7498 6.2069-1.615 9.2468-2.6302 1.6066-.5884 3.2363-1.119 4.8083-1.7881l-.0347-.0116ZM43.5919 56.2737c.4046.2538.8207.4845 1.2368.7037l1.2483.6807 5.0163 2.7225c1.6876.8768 3.4214 1.6612 5.132 2.4919l2.5775 1.2343c.8669.3923 1.7569.7499 2.6238 1.1306l5.2707 2.2265 5.3747 1.9958c1.78.7037 3.6062 1.2574 5.4324 1.8573l2.7278.8883 1.3639.4384 1.3871.3922 5.548 1.5458c.6935.1846 1.3986.3461 2.0921.5076 1.5142-1.4651 2.9821-2.9879 4.3575-4.5799 2.1846-2.5264 4.1842-5.2028 5.9762-8.0061 1.791-2.8033 3.375-5.745 4.762-8.7675 2.774-6.045 4.762-12.4476 6.079-18.9772 1.33-6.5295 1.965-13.209 2.069-19.8769.047-3.334-.046-6.67949-.277-9.99039-.081-1.2113-.197-2.42261-.324-3.62238-3.976-.830606-8.102-1.2689834-12.333-1.2689834C69.5407.0230191 43.7537 24.0876 41.0953 54.7625c.0231.0115.0462.0231.0693.0461l2.4389 1.4767-.0116-.0116Z"/>
    <path fill="#00A99D" d="m98.8863 82.3918-2.9358-.4269c-.9825-.1384-1.9419-.3461-2.9128-.5076-.7859-.15-1.5835-.2884-2.3695-.4268-2.8549 2.1457-5.8485 4.0953-8.9462 5.8258-3.0861 1.7535-6.3225 3.2186-9.582 4.5453l-2.4735.9459c-.8206.3115-1.6644.5653-2.4966.8537-1.6529.5884-3.3635 1.0267-5.0395 1.5343-2.8781.773-5.7793 1.419-8.692 1.9497.5201.6806 1.0634 1.3381 1.6182 1.9957.682-.0346 1.3639-.0692 2.0343-.1038 1.9187-.1269 3.8258-.2653 5.7446-.4269.9593-.0692 1.9071-.173 2.8664-.2768.9594-.0923 1.9072-.1731 2.855-.3 15.2225-1.6958 30.2601-5.6873 43.7371-12.7244.52-.2654 1.029-.5538 1.537-.8306-3.028-.2192-6.056-.5076-9.073-.8768-1.965-.1846-3.907-.5076-5.8717-.7729v.0231Z"/>
    <path fill="#007A8F" d="M128.316 84.6413h-.451c-.358.2885-.717.5769-1.075.8537-3.283 2.5495-6.739 4.8337-10.322 6.9102-1.78 1.0614-3.618 1.9958-5.455 2.9649-1.861.8882-3.711 1.8227-5.618 2.6187-1.884.8537-3.814 1.5689-5.7328 2.3192-1.9419.692-3.8837 1.395-5.8486 2.007-3.9184 1.246-7.906 2.319-11.9284 3.172-4.0223.854-8.0678 1.615-12.1364 2.077-1.595.196-3.1901.346-4.7852.484C74.9964 115.558 87.4564 120 100.968 120c24.909 0 46.269-15.124 55.388-36.6622-1.502.1615-3.005.3114-4.519.4383-7.802.6691-15.65.9691-23.51.8883l-.011-.0231Zm24.19-40.5265c-.508 4.1069-1.491 8.1907-2.924 12.1131-1.433 3.9338-3.317 7.7177-5.606 11.2363-2.3 3.507-4.981 6.7717-7.883 9.7596-1.283 1.3498-2.635 2.6303-4.01 3.8646 6.519.3231 13.072.3808 19.614.1616 1.861-.0577 3.722-.15 5.583-.2538 2.45-6.5411 3.791-13.6128 3.791-21.0075 0-11.444-3.213-22.1265-8.773-31.2286.151 1.0036.266 2.0073.347 3.0225.382 4.0723.37 8.2138-.115 12.3207l-.024.0115Z"/>
  </g>
  <path fill="currentColor" d="M0 160.72v-19.301h7.428c2.34907 0 4.1726.642 5.4329 1.904 1.2657 1.262 1.9093 2.781 1.9093 4.567 0 1.904-.6758 3.455-1.9951 4.717-1.3194 1.257-3.02484 1.872-5.13793 1.872H4.40853v6.235H.00536841L0 160.72Zm4.37635-16.05v6.562h2.29008c2.67086 0 3.72737-1.492 3.72737-3.251 0-1.845-1.26567-3.311-3.70055-3.311H4.37099h.00536Zm14.82435-3.244h4.3764v15.899h8.9565v3.356H19.2007v-19.255Zm30.687 19.255-1.3194-3.049h-7.4334l-1.3515 3.049h-4.3495L44.6264 141h.6436l9.0476 19.681h-4.4353.0054Zm-5.0522-11.392-2.3812 5.359h4.8161l-2.3222-5.359h-.118.0053Zm80.8075 11.392-1.32-3.049h-7.433l-1.352 3.049h-4.349L120.381 141h.644l9.048 19.681h-4.436.006Zm-5.052-11.392-2.382 5.359h4.816l-2.322-5.359h-.118.006Zm-59.033 11.392h-4.3441v-19.628h.6435c1.3784 1.341 3.4057 3.205 6.0819 5.628 2.6708 2.391 4.6981 4.228 6.0228 5.511h.118v-10.761h4.3496V161h-.6168l-12.1583-11.433h-.0858v11.114h-.0108Zm30.9892-3.362v3.36H78.8604v-19.273h13.129v3.359h-8.7527v4.267h7.841v3.242h-7.841v5.05h9.3105v-.005Zm18.6248-12.543h-5.637v15.904h-4.376v-15.904h-5.6689v-3.351h15.6819v3.351Zm29.642-3.357c1.995 0 3.7.555 5.079 1.697 1.41 1.11 2.113 2.657 2.113 4.616 0 2.22-1.266 4.648-3.878 5.843l5.111 7.102h-4.993l-5.111-7.86v-.411c3.057-.352 4.554-2.161 4.554-4.061 0-2.22-1.438-3.623-3.701-3.623h-2.644v15.955h-4.376v-19.258h7.846Zm15.702 19.314h-4.376v-19.327h4.376v19.327Zm16.712-19.305h4.344v11.548c0 2.353-.702 4.265-2.145 5.743-1.437 1.452-3.497 2.177-6.167 2.177-5.492 0-8.313-3.046-8.313-7.835v-11.633h4.376v11.607c0 2.41 1.378 4.323 3.963 4.323s3.937-1.828 3.937-4.18v-11.75h.005Zm19.15 15.672h-.649l-5.406-5.876c-.027.027-.059.027-.086.027v9.408h-4.2v-19.606h.644l9.37 10.785 9.337-10.785h.617v19.611h-4.232v-9.408c-.027-.027-.059-.027-.118-.027l-5.288 5.876.011-.005Z"/>
</svg>
