<svg xmlns="http://www.w3.org/2000/svg" width="12" height="12" fill="none" viewBox="0 0 12 12">
  <path fill="currentColor" fill-rule="evenodd" d="M10.7871 1.95703c0-.20711-.1679-.375-.375-.375s-.375.16789-.375.375V10.043c0 .2071.1679.375.375.375s.375-.1679.375-.375V1.95703Zm-5.86711.40009c.16155-.16155.42347-.16155.58502 0L8.81438 5.6665c.16155.16155.16155.42347 0 .58502L5.50501 9.56089c-.16155.16155-.42347.16155-.58502 0-.16155-.16154-.16155-.42347 0-.58502l2.64189-2.64189H1.58789c-.20711 0-.375-.16789-.375-.375 0-.2071.16789-.375.375-.375h5.97394L4.91999 2.94214c-.16155-.16154-.16155-.42347 0-.58502Z" clip-rule="evenodd"/>
</svg>
