<svg xmlns="http://www.w3.org/2000/svg" width="32" height="32" fill="none" viewBox="0 0 32 32">
  <path fill="currentColor" fill-rule="evenodd" d="M28.7656 5.21875c0-.55228-.4477-1-1-1s-1 .44772-1 1V26.7812c0 .5523.4477 1 1 1s1-.4477 1-1V5.21875ZM13.12 6.2855c.4308-.4308 1.1292-.4308 1.56 0l8.825 8.825c.4308.4308.4308 1.1293 0 1.5601l-8.825 8.825c-.4308.4308-1.1292.4308-1.56 0-.4308-.4308-.4308-1.1293 0-1.5601l7.0448-7.0449H4.23438c-.55229 0-1-.4477-1-1s.44771-1 1-1H20.165L13.12 7.84555c-.4308-.43079-.4308-1.12925 0-1.56005Z" clip-rule="evenodd"/>
</svg>
