<svg xmlns="http://www.w3.org/2000/svg" width="16" height="16" fill="none" viewBox="0 0 16 16">
  <path fill="currentColor" fill-rule="evenodd" d="M14.3828 2.60938c0-.27615-.2238-.5-.5-.5-.2761 0-.5.22385-.5.49999V13.3906c0 .2762.2239.5.5.5.2762 0 .5-.2238.5-.5V2.60938Zm-7.82281.53345c.21539-.2154.56463-.2154.78002 0l4.41249 4.4125c.2154.2154.2154.56463 0 .78003L7.34001 12.7479c-.21539.2154-.56463.2154-.78002 0-.2154-.2154-.2154-.5647 0-.7801l3.52251-3.52249H2.11719c-.27614 0-.5-.22385-.5-.5 0-.27614.22386-.5.5-.5h7.96521L6.55999 3.92286c-.2154-.2154-.2154-.56463 0-.78003Z" clip-rule="evenodd"/>
</svg>
