<svg xmlns="http://www.w3.org/2000/svg" width="40" height="40" fill="none" viewBox="0 0 40 40">
  <path fill="currentColor" fill-rule="evenodd" d="M35.957 6.52344c0-.69036-.5596-1.25-1.25-1.25-.6903 0-1.25.55964-1.25 1.25V33.4766c0 .6903.5597 1.25 1.25 1.25.6904 0 1.25-.5597 1.25-1.25V6.52344ZM16.4 7.85688c.5385-.5385 1.4115-.5385 1.95 0L29.3813 18.8881c.5385.5385.5385 1.4116 0 1.9501L18.35 31.8694c-.5385.5385-1.4115.5385-1.95 0s-.5385-1.4115 0-1.95l8.8061-8.8061H5.29297c-.69036 0-1.25-.5597-1.25-1.25 0-.6904.55964-1.25 1.25-1.25H25.2063L16.4 9.80694c-.5385-.53849-.5385-1.41157 0-1.95006Z" clip-rule="evenodd"/>
</svg>
