<svg xmlns="http://www.w3.org/2000/svg" width="12" height="12" fill="none" viewBox="0 0 12 12">
  <path fill="currentColor" d="M6.80314 12c1.5342 0 3.06846-.592 4.23816-1.7609 2.3392-2.33774 2.3392-6.14804 0-8.4858-2.33931-2.33776-6.15215-2.337706-8.49148 0-2.339322 2.3377-2.339268 6.148 0 8.4858C3.73467 11.408 5.26891 12 6.80314 12Zm-3.4938-9.48766c.95703-.95638 2.23299-1.4421 3.4938-1.4421 1.2608 0 2.52163.48582 3.49376 1.4421 1.9292 1.92792 1.9292 5.05502 0 6.98292-1.92918 1.92794-5.05838 1.92794-6.98756 0-1.92921-1.92792-1.92921-5.05503 0-6.98292Z"/>
  <path fill="currentColor" d="M4.67648 6.8387H7.107c.28864 0 .53172-.24291.53172-.53136l-.00011-3.03605c0-.28845-.24307-.53137-.53172-.53137-.28864 0-.53171.24291-.53171.53137v2.50469l-1.8987.0001c-.28864 0-.53172.24291-.53172.53137 0 .28834.24307.53125.53172.53125Z"/>
</svg>
