<svg xmlns="http://www.w3.org/2000/svg" width="32" height="32" fill="none" viewBox="0 0 32 32">
  <path fill="currentColor" d="M16.8153 32c4.0912 0 8.1826-1.5787 11.3017-4.6958 6.238-6.2339 6.238-16.3947 0-22.62874-6.2381-6.23402-16.4057-6.23388-22.64385 0-6.238198 6.23384-6.238053 16.39464 0 22.62874C8.63275 30.4213 12.724 32 16.8153 32ZM7.49854 6.69957c2.55206-2.55035 5.95466-3.84559 9.31676-3.84559 3.3622 0 6.7244 1.29553 9.3168 3.84559 5.1446 5.14113 5.1446 13.48003 0 18.62113-5.1445 5.1411-13.4891 5.1411-18.63356 0-5.14456-5.1411-5.14456-13.4801 0-18.62113Z"/>
  <path fill="currentColor" d="M11.1442 18.2365h6.4814c.7697 0 1.4179-.6477 1.4179-1.4169l-.0002-8.09616c0-.76921-.6482-1.41697-1.418-1.41697-.7697 0-1.4179.64775-1.4179 1.41697v6.67916l-5.0632.0003c-.7697 0-1.41787.6477-1.41787 1.417 0 .7689.64817 1.4166 1.41787 1.4166Z"/>
</svg>
