<svg xmlns="http://www.w3.org/2000/svg" width="24" height="24" fill="none" viewBox="0 0 24 24">
  <path fill="currentColor" d="M12.8107 24c3.0685 0 6.137-1.1841 8.4763-3.5219 4.6785-4.6754 4.6785-12.29598 0-16.9715-4.6785-4.67552-12.30424-4.67541-16.98289 0-4.678647 4.67541-4.678538 12.296 0 16.9715C6.67382 22.8159 9.74228 24 12.8107 24ZM5.82315 5.02468c1.91405-1.91277 4.46595-2.8842 6.98755-2.8842 2.5216 0 5.0433.97165 6.9876 2.8842 3.8584 3.85584 3.8584 10.11002 0 13.96582-3.8584 3.8559-10.11678 3.8559-13.97515 0-3.85842-3.8558-3.85842-10.11004 0-13.96582Z"/>
  <path fill="currentColor" d="M8.55743 13.6774h4.86107c.5773 0 1.0634-.4858 1.0634-1.0627l-.0002-6.07212c0-.57691-.4862-1.06273-1.0634-1.06273-.5773 0-1.0635.48582-1.0635 1.06273V11.552l-3.79737.0002c-.57729 0-1.06344.4858-1.06344 1.0627 0 .5767.48614 1.0625 1.06344 1.0625Z"/>
</svg>
