<svg xmlns="http://www.w3.org/2000/svg" width="40" height="40" fill="none" viewBox="0 0 40 40">
  <path fill="currentColor" d="M20.8204 40c5.114 0 10.2282-1.9734 14.1271-5.8698 7.7975-7.7923 7.7975-20.4933 0-28.28587-7.7976-7.79253-20.5071-7.79235-28.30482 0-7.79775 7.79237-7.79757 20.49337 0 28.28587C10.5922 38.0266 15.7063 40 20.8204 40ZM9.17441 8.37446C12.3645 5.18652 16.6177 3.56747 20.8204 3.56747c4.2027 0 8.4054 1.61941 11.646 4.80699 6.4307 6.42644 6.4307 16.85004 0 23.27644-6.4307 6.4264-16.8614 6.4264-23.29199 0-6.4307-6.4264-6.4307-16.8501 0-23.27644Z"/>
  <path fill="currentColor" d="M13.7315 22.7957h8.1018c.9621 0 1.7724-.8097 1.7724-1.7712l-.0004-10.1202c0-.96151-.8102-1.77122-1.7724-1.77122-.9621 0-1.7724.8097-1.7724 1.77122v8.349l-6.329.0003c-.9621 0-1.7724.8097-1.7724 1.7712 0 .9612.8103 1.7709 1.7724 1.7709Z"/>
</svg>
