<svg xmlns="http://www.w3.org/2000/svg" width="40" height="40" fill="none" viewBox="0 0 40 40">
  <path fill="currentColor" fill-rule="evenodd" d="M.00068259 29.4918c.01450851.5348.24106641 1.0443.63355141 1.4263L9.31907 39.364c.55617.5407 1.37243.7575 2.14213.5694.7693-.1882 1.3746-.7534 1.5885-1.4823.2136-.7285.0026-1.5105-.5535-2.0513l-5.00003-4.8574H37.7437c.5949.0082 1.1682-.2115 1.5919-.6091.4238-.3979.6622-.9408.6622-1.5074 0-.5665-.2384-1.1097-.6622-1.5073-.4237-.398-.997-.6173-1.5919-.6095H7.52284l4.97396-4.8368c.4241-.399.6622-.9433.6607-1.5109-.0014-.5681-.2421-1.1113-.6681-1.5085-.4264-.3969-1.0019-.6141-1.5978-.6031-.596.0113-1.1622.2498-1.57182.6626L.634938 27.9583c-.420018.4085-.6491411.962-.63425541 1.5335Zm0-18.8257c.00930055.5605.25148441 1.0949.67373141 1.4854.422616.3908.990286.6059 1.578856.5981H32.4789l-4.974 4.8368c-.4274.4026-.6655.9529-.6599 1.5255.0059.5651.2485 1.1045.6744 1.4982.4256.3936.9989.6091 1.5919.5978.5934-.0114 1.1574-.2481 1.5662-.6574l8.6893-8.4458c.4059-.3954.6332-.9266.6332-1.4801 0-.5531-.2273-1.08425-.6332-1.47967L30.6775.69911C30.272.2707 29.701.0187594 29.0961.00104314 28.4908-.0170287 27.9045.201246 27.4722.604492c-.4327.403248-.6734.957478-.6674 1.533958.0063.57652.2589 1.12538.7001 1.52053l4.9956 4.8574H2.2529c-.60082-.00779-1.17895.21651-1.603428.62153-.424475.40466-.65809416.95579-.64878941 1.52819Z" clip-rule="evenodd"/>
</svg>
