<svg xmlns="http://www.w3.org/2000/svg" width="24" height="24" fill="none" viewBox="0 0 24 24">
  <path fill="currentColor" fill-rule="evenodd" d="M.00040955 17.6951c.00870513.3208.14463945.6266.38013045.8558l5.2109 5.0675c.33371.3244.82343.4545 1.28526.3416.4616-.1129.8248-.452.95314-.8893.12812-.4371.00156-.9064-.33214-1.2308l-3-2.9144h18.1485c.357.0049.701-.127.9552-.3655.2542-.2388.3973-.5645.3973-.9044 0-.34-.1431-.6659-.3973-.9045-.2543-.2387-.5982-.3703-.9552-.3656H4.5137l2.9844-2.9021c.25446-.2394.39732-.566.39643-.9066-.0009-.3408-.14532-.6667-.4009-.9051-.2558-.2381-.60114-.3684-.95868-.3618-.35759.0068-.69731.1499-.94308.3976L.380963 16.775c-.252011.2451-.38948486.5772-.38055345.9201Zm0-11.29547c.00558033.33635.15089045.65694.40423945.89126.253571.2345.59417.36355.947311.35888H19.4874L16.503 10.5519c-.2565.2415-.3994.5717-.396.9152.0035.3391.1491.6627.4047.8989.2553.2362.5993.3655.9551.3587.356-.0068.6944-.1488.9397-.3944l5.2136-5.06747c.2435-.23728.3799-.55598.3799-.88805 0-.33188-.1364-.65057-.3799-.88782L18.4065.419466c-.2433-.257046-.5859-.4082108-.9488-.41884052-.3632-.01084308-.715.12012152-.9744.36206952-.2596.241948-.404.574486-.4004.920375.0038.34591.1553.67523.4201.91232l2.9973 2.91444H1.35174c-.360492-.00468-.707372.1299-.962057.37292-.254685.24279-.39485629.5735-.38927345.91688Z" clip-rule="evenodd"/>
</svg>
