<svg xmlns="http://www.w3.org/2000/svg" width="32" height="32" fill="none" viewBox="0 0 32 32">
  <path fill="currentColor" d="M16 0C7.16333 0 0 7.16333 0 16c0 8.8367 7.16333 16 16 16 8.8361 0 16-7.1633 16-16 0-8.83667-7.1633-16-16-16Zm-2.263 9.4331c0-1.26105 1.0134-2.28329 2.263-2.28329 1.2499 0 2.263 1.02199 2.263 2.28329v6.849c0 1.261-1.0131 2.283-2.263 2.283-1.2494 0-2.263-1.022-2.263-2.283v-6.849ZM16 26.1864c-1.3313 0-2.4107-1.0888-2.4107-2.4322 0-1.3432 1.0794-2.4322 2.4107-2.4322 1.3315 0 2.4109 1.089 2.4109 2.4322-.0002 1.3434-1.0794 2.4322-2.4109 2.4322Z"/>
</svg>
