<svg xmlns="http://www.w3.org/2000/svg" width="16" height="16" fill="none" viewBox="0 0 16 16">
  <path fill="currentColor" d="M8 0C3.58166 0 0 3.58166 0 8c0 4.4183 3.58166 8 8 8 4.418 0 8-3.5817 8-8 0-4.41834-3.5817-8-8-8ZM6.86852 4.71655c0-.63053.50666-1.14164 1.13148-1.14164.62495 0 1.13148.51099 1.13148 1.14164v3.4245c0 .63052-.50653 1.14152-1.13148 1.14152-.6247 0-1.13148-.511-1.13148-1.14152v-3.4245ZM8 13.0932c-.66565 0-1.20535-.5444-1.20535-1.2161 0-.6716.5397-1.2161 1.20535-1.2161.66577 0 1.20547.5445 1.20547 1.2161-.00012.6717-.5397 1.2161-1.20547 1.2161Z"/>
</svg>
