<svg xmlns="http://www.w3.org/2000/svg" width="40" height="40" fill="none" viewBox="0 0 40 40">
  <path fill="currentColor" d="M20 0C8.95416 0 0 8.95416 0 20c0 11.0458 8.95416 20 20 20 11.0451 0 20-8.9542 20-20C40 8.95416 31.0458 0 20 0Zm-2.8287 11.7914c0-1.5763 1.2666-2.85413 2.8287-2.85413 1.5624 0 2.8287 1.27743 2.8287 2.85413v8.5612c0 1.5763-1.2663 2.8538-2.8287 2.8538-1.5617 0-2.8287-1.2775-2.8287-2.8538v-8.5612ZM20 32.733c-1.6641 0-3.0134-1.361-3.0134-3.0403 0-1.6789 1.3493-3.0402 3.0134-3.0402 1.6644 0 3.0137 1.3613 3.0137 3.0402C23.0134 31.372 21.6644 32.733 20 32.733Z"/>
</svg>
