<svg xmlns="http://www.w3.org/2000/svg" width="24" height="24" fill="none" viewBox="0 0 24 24">
  <path fill="currentColor" d="M12 0C5.3725 0 0 5.3725 0 12s5.3725 12 12 12c6.627 0 12-5.3725 12-12S18.6275 0 12 0Zm-1.6972 7.07482c0-.94579.76-1.71246 1.6972-1.71246.9374 0 1.6972.76649 1.6972 1.71246v5.13678c0 .9458-.7598 1.7122-1.6972 1.7122-.937 0-1.6972-.7664-1.6972-1.7122V7.07482ZM12 19.6398c-.9985 0-1.808-.8166-1.808-1.8242 0-1.0073.8095-1.8241 1.808-1.8241.9987 0 1.8082.8168 1.8082 1.8241-.0002 1.0076-.8095 1.8242-1.8082 1.8242Z"/>
</svg>
