<svg
  width="203"
  height="161"
  viewBox="0 0 203 161"
  fill="none"
  xmlns="http://www.w3.org/2000/svg"
>
  <g clip-path="url(#clip0_1693_1902)">
    <path
      d="M122.651 15.3087C122.108 22.4496 120.987 29.556 119.137 36.5008C117.3 43.4341 114.734 50.2058 111.347 56.5508C109.648 59.7232 107.752 62.7919 105.637 65.699C103.522 68.6061 101.199 71.3633 98.6905 73.9244C97.8583 74.778 96.9914 75.6086 96.1245 76.4162C96.4019 76.4854 96.6793 76.5431 96.9683 76.6008L99.8001 77.166C101.684 77.5237 103.568 77.9505 105.475 78.2274C110.365 79.0926 115.288 79.7386 120.247 80.2347C120.848 79.8424 121.449 79.4387 122.039 79.0234C125.136 76.843 128.165 74.5473 130.927 71.9632C133.69 69.4022 136.256 66.6796 138.509 63.6917C140.729 60.6923 142.67 57.4852 144.231 54.0705C148.577 44.5877 149.756 33.6744 148.253 22.9918C141.711 14.6742 133.008 8.13317 122.998 4.19931C122.998 4.32621 122.998 4.44157 122.998 4.56847C123.033 8.16778 122.917 11.744 122.651 15.3202V15.3087Z"
      fill="#00A99D"
    />
    <path
      d="M66.1995 90.5823C66.9855 90.2593 67.783 89.9594 68.569 89.6133L70.8922 88.5519C73.9552 87.0753 76.9604 85.4948 79.8038 83.649C81.6185 82.4723 83.387 81.2264 85.0976 79.9113L81.422 79.0922L79.9772 78.7692L78.544 78.3885L75.6775 77.6271C73.7587 77.1195 71.84 76.635 69.956 76.0121L64.2692 74.2355L58.6634 72.2166C57.7272 71.8706 56.7909 71.5475 55.8662 71.1899L53.1153 70.0478C51.2775 69.2749 49.4282 68.5366 47.6135 67.729L42.2041 65.168L41.0714 64.6258C41.9267 75.9198 45.926 86.337 52.1791 95.0122C55.2999 94.2624 58.386 93.3972 61.4259 92.382C63.0325 91.7936 64.6622 91.263 66.2342 90.5939L66.1995 90.5823Z"
      fill="#00D1C2"
    />
    <path
      d="M43.5919 56.2737C43.9965 56.5275 44.4126 56.7582 44.8287 56.9774L46.077 57.6581L51.0933 60.3806C52.7809 61.2574 54.5147 62.0418 56.2253 62.8725L58.8028 64.1068C59.6697 64.4991 60.5597 64.8567 61.4266 65.2374L66.6973 67.4639L72.072 69.4597C73.852 70.1634 75.6782 70.7171 77.5044 71.317L80.2322 72.2053L81.5961 72.6437L82.9832 73.0359L88.5312 74.5817C89.2247 74.7663 89.9298 74.9278 90.6233 75.0893C92.1375 73.6242 93.6054 72.1014 94.9808 70.5094C97.1654 67.983 99.165 65.3066 100.957 62.5033C102.748 59.7 104.332 56.7583 105.719 53.7358C108.493 47.6908 110.481 41.2882 111.798 34.7586C113.128 28.2291 113.763 21.5496 113.867 14.8817C113.914 11.5477 113.821 8.20221 113.59 4.89131C113.509 3.68001 113.393 2.4687 113.266 1.26893C109.29 0.438324 105.164 -5.34058e-05 100.933 -5.34058e-05C69.5407 0.0230191 43.7537 24.0876 41.0953 54.7625C41.1184 54.774 41.1415 54.7856 41.1646 54.8086L43.6035 56.2853L43.5919 56.2737Z"
      fill="#00D1C2"
    />
    <path
      d="M98.8863 82.3918L95.9505 81.9649C94.968 81.8265 94.0086 81.6188 93.0377 81.4573C92.2518 81.3073 91.4542 81.1689 90.6682 81.0305C87.8133 83.1762 84.8197 85.1258 81.722 86.8563C78.6359 88.6098 75.3995 90.0749 72.14 91.4016L69.6665 92.3475C68.8459 92.659 68.0021 92.9128 67.1699 93.2012C65.517 93.7896 63.8064 94.2279 62.1304 94.7355C59.2523 95.5085 56.3511 96.1545 53.4384 96.6852C53.9585 97.3658 54.5018 98.0233 55.0566 98.6809C55.7386 98.6463 56.4205 98.6117 57.0909 98.5771C59.0096 98.4502 60.9167 98.3118 62.8355 98.1502C63.7948 98.081 64.7426 97.9772 65.7019 97.8734C66.6613 97.7811 67.6091 97.7003 68.5569 97.5734C83.7794 95.8776 98.817 91.8861 112.294 84.849C112.814 84.5836 113.323 84.2952 113.831 84.0184C110.803 83.7992 107.775 83.5108 104.758 83.1416C102.793 82.957 100.851 82.634 98.8863 82.3687V82.3918Z"
      fill="#00A99D"
    />
    <path
      d="M128.316 84.6413C128.165 84.6413 128.015 84.6413 127.865 84.6413C127.507 84.9298 127.148 85.2182 126.79 85.495C123.507 88.0445 120.051 90.3287 116.468 92.4052C114.688 93.4666 112.85 94.401 111.013 95.3701C109.152 96.2583 107.302 97.1928 105.395 97.9888C103.511 98.8425 101.581 99.5577 99.6622 100.308C97.7203 101 95.7785 101.703 93.8136 102.315C89.8952 103.561 85.9076 104.634 81.8852 105.487C77.8629 106.341 73.8174 107.102 69.7488 107.564C68.1538 107.76 66.5587 107.91 64.9636 108.048C74.9964 115.558 87.4564 120 100.968 120C125.877 120 147.237 104.876 156.356 83.3378C154.854 83.4993 153.351 83.6492 151.837 83.7761C144.035 84.4452 136.187 84.7452 128.327 84.6644L128.316 84.6413Z"
      fill="#007A8F"
    />
    <path
      d="M152.506 44.1148C151.998 48.2217 151.015 52.3055 149.582 56.2279C148.149 60.1617 146.265 63.9456 143.976 67.4642C141.676 70.9712 138.995 74.2359 136.093 77.2238C134.81 78.5736 133.458 79.8541 132.083 81.0884C138.602 81.4115 145.155 81.4692 151.697 81.25C153.558 81.1923 155.419 81.1 157.28 80.9962C159.73 74.4551 161.071 67.3834 161.071 59.9887C161.071 48.5447 157.858 37.8622 152.298 28.7601C152.449 29.7637 152.564 30.7674 152.645 31.7826C153.027 35.8549 153.015 39.9964 152.53 44.1033L152.506 44.1148Z"
      fill="#007A8F"
    />
  </g>
  <path
    d="M0 160.72V141.419H7.428C9.77707 141.419 11.6006 142.061 12.8609 143.323C14.1266 144.585 14.7702 146.104 14.7702 147.89C14.7702 149.794 14.0944 151.345 12.7751 152.607C11.4557 153.864 9.75026 154.479 7.63717 154.479H4.40853V160.714H0.00536841L0 160.72ZM4.37635 144.67V151.232H6.66643C9.33729 151.232 10.3938 149.74 10.3938 147.981C10.3938 146.136 9.12813 144.67 6.69325 144.67H4.37099H4.37635Z"
    fill="currentColor"
  />
  <path
    d="M19.2007 141.426H23.5771V157.325H32.5336V160.681H19.2007V141.426Z"
    fill="currentColor"
  />
  <path
    d="M49.8877 160.681L48.5683 157.632H41.1349L39.7834 160.681H35.4339L44.6264 141H45.27L54.3176 160.681H49.8823H49.8877ZM44.8355 149.289L42.4543 154.648H47.2704L44.9482 149.289H44.8302H44.8355Z"
    fill="currentColor"
  />
  <path
    d="M125.643 160.681L124.323 157.632H116.89L115.538 160.681H111.189L120.381 141H121.025L130.073 160.681H125.637H125.643ZM120.591 149.289L118.209 154.648H123.025L120.703 149.289H120.585H120.591Z"
    fill="currentColor"
  />
  <path
    d="M61.558 160.681H57.2139V141.053H57.8574C59.2358 142.394 61.2631 144.258 63.9393 146.681C66.6101 149.072 68.6374 150.909 69.9621 152.192H70.0801V141.431H74.4297V161H73.8129L61.6546 149.567H61.5688V160.681H61.558Z"
    fill="currentColor"
  />
  <path
    d="M92.5472 157.319V160.679H78.8604V141.406H91.9894V144.765H83.2367V149.032H91.0777V152.274H83.2367V157.324H92.5472V157.319Z"
    fill="currentColor"
  />
  <path
    d="M111.172 144.776H105.535V160.68H101.159V144.776H95.4901V141.425H111.172V144.776Z"
    fill="currentColor"
  />
  <path
    d="M140.814 141.419C142.809 141.419 144.514 141.974 145.893 143.116C147.303 144.226 148.006 145.773 148.006 147.732C148.006 149.952 146.74 152.38 144.128 153.575L149.239 160.677H144.246L139.135 152.817V152.406C142.192 152.054 143.689 150.245 143.689 148.345C143.689 146.125 142.251 144.722 139.988 144.722H137.344V160.677H132.968V141.419H140.808H140.814Z"
    fill="currentColor"
  />
  <path
    d="M156.516 160.733H152.14V141.406H156.516V160.733Z"
    fill="currentColor"
  />
  <path
    d="M173.228 141.428H177.572V152.976C177.572 155.329 176.87 157.241 175.427 158.719C173.99 160.171 171.93 160.896 169.26 160.896C163.768 160.896 160.947 157.85 160.947 153.061V141.428H165.323V153.035C165.323 155.445 166.701 157.358 169.286 157.358C171.871 157.358 173.223 155.53 173.223 153.178V141.428H173.228Z"
    fill="currentColor"
  />
  <path
    d="M192.378 157.1H191.729L186.323 151.224C186.296 151.251 186.264 151.251 186.237 151.251V160.659H182.037V141.053H182.681L192.051 151.838L201.388 141.053H202.005V160.664H197.773V151.256C197.746 151.229 197.714 151.229 197.655 151.229L192.367 157.105L192.378 157.1Z"
    fill="currentColor"
  />
  <defs>
    <clipPath id="clip0_1693_1902">
      <rect
        width="120"
        height="120"
        fill="none"
        transform="translate(41.0714)"
      />
    </clipPath>
  </defs>
</svg>
