<svg
  width="359"
  height="57"
  viewBox="0 0 359 57"
  fill="none"
  xmlns="http://www.w3.org/2000/svg"
>
  <g clip-path="url(#clip0_1693_1900)">
    <path
      d="M38.0705 7.64407C37.817 10.9765 37.2938 14.2928 36.4308 17.5337C35.5731 20.7692 34.3757 23.9294 32.7952 26.8904C32.0023 28.3708 31.1177 29.8029 30.1306 31.1595C29.1435 32.5162 28.0594 33.8029 26.8889 34.998C26.5005 35.3964 26.096 35.784 25.6914 36.1609C25.8209 36.1932 25.9503 36.2201 26.0852 36.247L27.4067 36.5108C28.2859 36.6777 29.1651 36.8769 30.0551 37.0061C32.3368 37.4099 34.6346 37.7114 36.9486 37.9428C37.2291 37.7598 37.5096 37.5714 37.7846 37.3776C39.2302 36.3601 40.6434 35.2887 41.9326 34.0828C43.2217 32.8877 44.4192 31.6171 45.471 30.2228C46.5067 28.8231 47.4128 27.3264 48.141 25.7329C50.1692 21.3076 50.7193 16.2147 50.0181 11.2295C46.9652 7.34797 42.9035 4.29548 38.2323 2.45968C38.2323 2.5189 38.2323 2.57273 38.2323 2.63195C38.2485 4.31163 38.1946 5.98054 38.0705 7.64945V7.64407Z"
      fill="#00A99D"
    />
    <path
      d="M11.7264 42.7718C12.0932 42.621 12.4654 42.481 12.8322 42.3195L13.9164 41.8242C15.3458 41.1351 16.7482 40.3976 18.0751 39.5362C18.922 38.9871 19.7473 38.4057 20.5456 37.7919L18.8303 37.4097L18.156 37.259L17.4872 37.0813L16.1495 36.726C15.2541 36.4891 14.3587 36.263 13.4795 35.9723L10.8257 35.1432L8.20959 34.2011C7.77268 34.0396 7.33577 33.8888 6.90426 33.722L5.6205 33.189C4.76286 32.8283 3.89983 32.4837 3.05298 32.1069L0.528607 30.9117L0 30.6587C0.399152 35.9292 2.26546 40.7906 5.18359 44.839C6.63995 44.4891 8.08014 44.0853 9.49875 43.6116C10.2485 43.337 11.0091 43.0894 11.7426 42.7771L11.7264 42.7718Z"
      fill="#00D1C2"
    />
    <path
      d="M1.1762 26.7611C1.36499 26.8795 1.55917 26.9872 1.75335 27.0895L2.3359 27.4071L4.67688 28.6776C5.46439 29.0868 6.27349 29.4529 7.07179 29.8405L8.27464 30.4165C8.67919 30.5996 9.09452 30.7665 9.49907 30.9441L11.9587 31.9831L14.4669 32.9145C15.2976 33.2429 16.1498 33.5013 17.0021 33.7813L18.275 34.1958L18.9115 34.4004L19.5588 34.5834L22.1479 35.3048C22.4715 35.391 22.8006 35.4663 23.1242 35.5417C23.8308 34.858 24.5158 34.1473 25.1577 33.4044C26.1772 32.2254 27.1103 30.9764 27.9464 29.6682C28.7824 28.36 29.5214 26.9872 30.1687 25.5767C31.4632 22.7557 32.391 19.7678 33.0059 16.7207C33.6262 13.6736 33.9229 10.5565 33.9714 7.44479C33.993 5.88894 33.9498 4.3277 33.842 2.78261C33.8042 2.21734 33.7503 1.65206 33.6909 1.09217C31.8354 0.704553 29.9098 0.499977 27.9356 0.499977C13.2856 0.510744 1.25172 11.7409 0.0111084 26.0558C0.0218963 26.0612 0.0326842 26.0666 0.0434721 26.0774L1.1816 26.7665L1.1762 26.7611Z"
      fill="#00D1C2"
    />
    <path
      d="M26.9803 38.9495L25.6102 38.7503C25.1517 38.6857 24.704 38.5888 24.2509 38.5134C23.8841 38.4434 23.5119 38.3788 23.1452 38.3142C21.8129 39.3156 20.4158 40.2254 18.9702 41.0329C17.5301 41.8512 16.0197 42.5349 14.4987 43.1541L13.3443 43.5955C12.9614 43.7409 12.5676 43.8593 12.1793 43.9939C11.4079 44.2685 10.6096 44.473 9.82749 44.7099C8.4844 45.0706 7.13052 45.3721 5.77124 45.6197C6.01397 45.9374 6.26748 46.2442 6.52639 46.5511C6.84464 46.5349 7.16288 46.5188 7.47573 46.5026C8.37113 46.4434 9.26113 46.3788 10.1565 46.3035C10.6042 46.2711 11.0465 46.2227 11.4942 46.1742C11.9419 46.1312 12.3842 46.0935 12.8265 46.0343C19.9304 45.2429 26.9479 43.3802 33.2372 40.0962C33.48 39.9724 33.7173 39.8378 33.9546 39.7086C32.5414 39.6063 31.1282 39.4717 29.7204 39.2994C28.8034 39.2133 27.8972 39.0625 26.9803 38.9387V38.9495Z"
      fill="#00A99D"
    />
    <path
      d="M40.7139 39.9993C40.6438 39.9993 40.5737 39.9993 40.5036 39.9993C40.3363 40.1339 40.1691 40.2685 40.0019 40.3977C38.47 41.5875 36.8572 42.6534 35.1851 43.6224C34.3544 44.1177 33.4968 44.5538 32.6392 45.006C31.7707 45.4206 30.9077 45.8566 30.0177 46.2281C29.1385 46.6265 28.2377 46.9603 27.3423 47.3102C26.4361 47.6332 25.5299 47.9616 24.613 48.2469C22.7844 48.8284 20.9235 49.329 19.0464 49.7274C17.1693 50.1258 15.2814 50.4811 13.3828 50.6965C12.6384 50.788 11.894 50.858 11.1497 50.9226C15.8316 54.4273 21.6463 56.5 27.9518 56.5C39.5758 56.5 49.5438 49.4421 53.7996 39.391C53.0984 39.4663 52.3972 39.5363 51.6906 39.5955C48.0497 39.9078 44.3872 40.0478 40.7193 40.0101L40.7139 39.9993Z"
      fill="#007A8F"
    />
    <path
      d="M52.003 21.0869C51.7657 23.0035 51.3072 24.9093 50.6384 26.7397C49.9695 28.5755 49.0903 30.3413 48.0223 31.9833C46.9489 33.6199 45.6975 35.1434 44.3436 36.5378C43.7449 37.1677 43.1138 37.7652 42.4719 38.3413C45.5141 38.492 48.5725 38.5189 51.6255 38.4166C52.4939 38.3897 53.3623 38.3467 54.2307 38.2982C55.3743 35.2457 56 31.9456 56 28.4947C56 23.1542 54.5004 18.169 51.9059 13.9214C51.9761 14.3897 52.03 14.8581 52.0678 15.3319C52.2458 17.2323 52.2404 19.165 52.0138 21.0815L52.003 21.0869Z"
      fill="#007A8F"
    />
  </g>
  <path
    d="M76 42.1077V15.0864H86.3992C89.6879 15.0864 92.2408 15.9848 94.0053 17.7518C95.7773 19.5188 96.6783 21.6452 96.6783 24.1459C96.6783 26.8114 95.7322 28.9827 93.8851 30.7496C92.038 32.5091 89.6504 33.3702 86.692 33.3702H82.1719V42.1003H76.0075L76 42.1077ZM82.1269 19.6386V28.8254H85.333C89.0722 28.8254 90.5514 26.7365 90.5514 24.2732C90.5514 21.6901 88.7794 19.6386 85.3706 19.6386H82.1194H82.1269Z"
    fill="currentColor"
  />
  <path
    d="M102.881 15.0965H109.008V37.3552H121.547V42.053H102.881V15.0965Z"
    fill="currentColor"
  />
  <path
    d="M145.843 42.0529L143.996 37.7852H133.589L131.697 42.0529H125.607L138.477 14.5H139.378L152.045 42.0529H145.835H145.843ZM138.77 26.1052L135.436 33.6074H142.179L138.927 26.1052H138.762H138.77Z"
    fill="currentColor"
  />
  <path
    d="M251.9 42.0529L250.053 37.7852H239.646L237.754 42.0529H231.664L244.534 14.5H245.435L258.102 42.0529H251.892H251.9ZM244.827 26.1052L241.493 33.6074H248.236L244.984 26.1052H244.819H244.827Z"
    fill="currentColor"
  />
  <path
    d="M162.181 42.0527H156.099V14.5736H157C158.93 16.4523 161.768 19.0615 165.515 22.4535C169.254 25.8008 172.092 28.3728 173.947 30.1694H174.112V15.1029H180.201V42.5H179.338L162.316 26.4941H162.196V42.0527H162.181Z"
    fill="currentColor"
  />
  <path
    d="M205.566 37.3465V42.05H186.405V15.0679H204.785V19.7715H192.531V25.7443H203.509V30.2836H192.531V37.3539H205.566V37.3465Z"
    fill="currentColor"
  />
  <path
    d="M231.641 19.786H223.749V42.0517H217.622V19.786H209.686V15.0946H231.641V19.786Z"
    fill="currentColor"
  />
  <path
    d="M273.139 15.0864C275.933 15.0864 278.32 15.8633 280.25 17.4621C282.225 19.016 283.208 21.1825 283.208 23.9243C283.208 27.0321 281.436 30.4313 277.78 32.1048L284.935 42.0484H277.945L270.789 31.0439V30.4687C275.069 29.9756 277.164 27.443 277.164 24.7834C277.164 21.6756 275.152 19.7108 271.983 19.7108H268.281V42.0484H262.155V15.0864H273.132H273.139Z"
    fill="currentColor"
  />
  <path
    d="M295.122 42.1267H288.995V15.0679H295.122V42.1267Z"
    fill="currentColor"
  />
  <path
    d="M318.52 15.0985H324.601V31.267C324.601 34.56 323.618 37.2375 321.598 39.3067C319.586 41.3389 316.703 42.355 312.963 42.355C305.275 42.355 301.325 38.0904 301.325 31.3857V15.0985H307.452V31.3486C307.452 34.7232 309.382 37.4006 313.001 37.4006C316.62 37.4006 318.512 34.8419 318.512 31.5488V15.0985H318.52Z"
    fill="currentColor"
  />
  <path
    d="M345.329 37.0394H344.42L336.852 28.8136C336.814 28.851 336.769 28.851 336.732 28.851V42.0227H330.852V14.5736H331.753L344.871 29.6728L357.943 14.5736H358.806V42.0301H352.882V28.8585C352.845 28.8211 352.8 28.8211 352.717 28.8211L345.314 37.0469L345.329 37.0394Z"
    fill="currentColor"
  />
  <defs>
    <clipPath id="clip0_1693_1900">
      <rect width="56" height="56" fill="none" transform="translate(0 0.5)" />
    </clipPath>
  </defs>
</svg>
