<svg
  width="283"
  height="29"
  viewBox="0 0 283 29"
  fill="none"
  xmlns="http://www.w3.org/2000/svg"
>
  <path
    d="M0 28.1077V1.08638H10.3992C13.6879 1.08638 16.2408 1.98485 18.0053 3.75183C19.7773 5.51881 20.6783 7.64518 20.6783 10.1459C20.6783 12.8114 19.7322 14.9827 17.8851 16.7496C16.038 18.5091 13.6504 19.3702 10.692 19.3702H6.17194V28.1003H0.00751578L0 28.1077ZM6.1269 5.63861V14.8254H9.33301C13.0722 14.8254 14.5514 12.7365 14.5514 10.2732C14.5514 7.6901 12.7794 5.63861 9.37055 5.63861H6.11939H6.1269Z"
    fill="currentColor"
  />
  <path
    d="M26.881 1.09651H33.0079V23.3552H45.547V28.053H26.881V1.09651Z"
    fill="currentColor"
  />
  <path
    d="M69.8427 28.0529L67.9956 23.7852H57.5889L55.6968 28.0529H49.6075L62.4769 0.499996H63.3779L76.0447 28.0529H69.8352H69.8427ZM62.7698 12.1052L59.436 19.6074H66.1786L62.9274 12.1052H62.7622H62.7698Z"
    fill="currentColor"
  />
  <path
    d="M175.9 28.0529L174.053 23.7852H163.646L161.754 28.0529H155.664L168.534 0.499996H169.435L182.102 28.0529H175.892H175.9ZM168.827 12.1052L165.493 19.6074H172.236L168.984 12.1052H168.819H168.827Z"
    fill="currentColor"
  />
  <path
    d="M86.1812 28.0527H80.0994V0.573599H81.0004C82.93 2.45226 85.7682 5.06151 89.515 8.45353C93.2542 11.8008 96.0924 14.3728 97.9469 16.1694H98.1121V1.10291H104.201V28.5H103.338L86.3164 12.4941H86.1962V28.0527H86.1812Z"
    fill="currentColor"
  />
  <path
    d="M129.566 23.3465V28.05H110.405V1.06789H128.785V5.77148H116.531V11.7443H127.509V16.2836H116.531V23.3539H129.566V23.3465Z"
    fill="currentColor"
  />
  <path
    d="M155.641 5.786H147.749V28.0517H141.622V5.786H133.686V1.09456H155.641V5.786Z"
    fill="currentColor"
  />
  <path
    d="M197.139 1.08638C199.933 1.08638 202.32 1.86334 204.25 3.46208C206.225 5.016 207.208 7.18252 207.208 9.92429C207.208 13.0321 205.436 16.4313 201.78 18.1048L208.935 28.0484H201.945L194.789 17.0439V16.4687C199.069 15.9756 201.164 13.443 201.164 10.7834C201.164 7.67559 199.152 5.71078 195.983 5.71078H192.281V28.0484H186.155V1.08638H197.132H197.139Z"
    fill="currentColor"
  />
  <path
    d="M219.122 28.1267H212.996V1.06789H219.122V28.1267Z"
    fill="currentColor"
  />
  <path
    d="M242.52 1.09853H248.602V17.267C248.602 20.56 247.618 23.2375 245.598 25.3067C243.586 27.3389 240.703 28.355 236.963 28.355C229.275 28.355 225.325 24.0904 225.325 17.3857V1.09853H231.452V17.3486C231.452 20.7232 233.382 23.4006 237.001 23.4006C240.62 23.4006 242.512 20.8419 242.512 17.5488V1.09853H242.52Z"
    fill="currentColor"
  />
  <path
    d="M269.329 23.0394H268.42L260.852 14.8136C260.814 14.851 260.769 14.851 260.732 14.851V28.0227H254.852V0.573599H255.753L268.871 15.6728L281.943 0.573599H282.806V28.0301H276.882V14.8585C276.845 14.8211 276.8 14.8211 276.717 14.8211L269.314 23.0469L269.329 23.0394Z"
    fill="currentColor"
  />
</svg>
