<svg xmlns="http://www.w3.org/2000/svg" width="399" height="29" fill="none" viewBox="0 0 399 29">
  <path fill="currentColor" d="M195.926 27.9176V1.33594h10.683c3.379 0 6.001.88385 7.814 2.62208 1.82 1.73823 2.746 3.83 2.746 6.29008 0 2.622-.972 4.758-2.869 6.4962-1.898 1.7309-4.351 2.5779-7.39 2.5779h-4.644v8.5881h-6.332l-.008.0073Zm6.294-22.1035v9.0373h3.294c3.841 0 5.361-2.0549 5.361-4.4781 0-2.54109-1.821-4.5592-5.323-4.5592h-3.34.008ZM92.0458 23.2839v4.6337H72.3597V1.33594h18.8839v4.63377H78.6543v5.88419h11.2779v4.4719H78.6543v6.9654h13.3915v-.0073Zm-43.404 4.6373h-5.9779V.780273h.8856c1.8967 1.855537 4.6864 4.432667 8.369 7.782947 3.6753 3.30608 6.465 5.84638 8.2878 7.62098h.1624V1.30307h5.9852V28.363h-.8487L48.7746 12.5541h-.118v15.3671h-.0148Zm332.1052 0h-5.978V.780273h.885c1.897 1.855537 4.687 4.432667 8.369 7.782947 3.676 3.30608 6.465 5.84638 8.288 7.62098h.162V1.30307h5.986V28.363h-.849l-16.731-15.8089h-.118v15.3671h-.014ZM264.966 1.33594c2.877 0 5.337.766 7.324 2.34219 2.035 1.532 3.048 3.66797 3.048 6.37107 0 3.064-1.825 6.4153-5.592 8.0651l7.371 9.8033h-7.201l-7.372-10.8492v-.5671c4.409-.4861 6.567-2.983 6.567-5.6051 0-3.06399-2.073-5.00108-5.337-5.00108h-3.813V27.9176h-6.312V1.33594h11.317Zm-85.476 0c2.891 0 5.363.766 7.36 2.34219 2.044 1.532 3.062 3.66797 3.062 6.37107 0 3.064-1.834 6.4153-5.619 8.0651l7.406 9.8033h-7.235l-7.406-10.8492v-.5671c4.43-.4861 6.598-2.983 6.598-5.6051 0-3.06399-2.083-5.00108-5.362-5.00108h-3.832V27.9176h-6.341V1.33594h11.369ZM299.262 27.9183l-1.819-4.169h-10.244l-1.863 4.169h-5.995L292.01 1.00293h.887l12.47 26.91537h-6.113.008Zm-6.963-15.5787-3.282 7.3285h6.637l-3.2-7.3285h-.163.008ZM123.463 28.3979c-2.02 0-3.9-.3452-5.639-1.0356-1.713-.716-3.222-1.7133-4.526-2.9918-1.278-1.2785-2.276-2.7616-2.991-4.4493-.716-1.7133-1.074-3.5544-1.074-5.5233 0-1.969.358-3.7973 1.074-5.48493.715-1.71325 1.713-3.19635 2.991-4.44932 1.279-1.25297 2.775-2.22466 4.488-2.91507 1.739-.715979 3.618-1.073971 5.638-1.073971 2.148 0 4.053.345205 5.715 1.035611 1.688.69042 3.158 1.63653 4.411 2.83836l-4.027 4.06576c-.716-.76713-1.585-1.36804-2.608-1.80274-.997-.43471-2.161-.65206-3.491-.65206-1.176 0-2.263.20457-3.26.6137-.972.38356-1.815.94612-2.531 1.68767-.691.74155-1.241 1.63653-1.65 2.68489-.383 1.0484-.575 2.1991-.575 3.4521 0 1.2785.192 2.442.575 3.4904.409 1.0484.959 1.9434 1.65 2.6849.716.7416 1.559 1.3169 2.531 1.7261.997.4091 2.084.6137 3.26.6137 1.381 0 2.583-.2174 3.606-.6521 1.023-.4347 1.905-1.0356 2.646-1.8027l4.066 4.0657c-1.304 1.2019-2.8 2.148-4.488 2.8384-1.662.6904-3.592 1.0356-5.791 1.0356Zm190.398-.4803V1.71245h6.035V27.9176h-6.035Zm-8.494-21.42346v-5.1582h23.023v5.1582h-23.023Zm27.027 21.42346V1.33594h6.005V27.9176h-6.005Zm-325.57119.0036H.844971V.780273h.885609C3.62725 2.63581 6.41691 5.21294 10.0996 8.56322c3.6752 3.30608 6.4649 5.84638 8.2878 7.62098h.1623V1.30307h5.9853V28.363h-.8487L6.95567 12.5541h-.11808v15.3671h-.01478Zm23.82939-.0036V1.33588h6.0059V27.9176h-6.0059Zm119.2988.5287c-2.046 0-3.938-.358-5.677-1.074-1.713-.716-3.221-1.7132-4.526-2.9918-1.304-1.2785-2.314-2.7616-3.03-4.4493-.716-1.7132-1.074-3.5543-1.074-5.5233 0-1.9945.358-3.8356 1.074-5.52325.716-1.68767 1.714-3.15799 2.992-4.41096 1.279-1.27854 2.774-2.26302 4.488-2.95343 1.739-.71598 3.631-1.073971 5.676-1.073971 2.021 0 3.887.357991 5.6 1.073971 1.739.69041 3.248 1.67489 4.526 2.95343 1.305 1.25297 2.315 2.73607 3.031 4.44931.716 1.6877 1.074 3.5288 1.074 5.5233 0 1.9689-.358 3.81-1.074 5.5233-.716 1.6877-1.714 3.1708-2.992 4.4493-1.279 1.253-2.787 2.2374-4.526 2.9534-1.713.716-3.567 1.074-5.562 1.074Zm-.077-5.4849c1.611 0 3.018-.358 4.22-1.074 1.227-.716 2.173-1.7133 2.838-2.9918.665-1.3041.997-2.8.997-4.4877 0-1.2785-.192-2.4292-.575-3.452-.384-1.04842-.933-1.9434-1.649-2.68495-.716-.76713-1.573-1.34247-2.57-1.72603-.972-.40913-2.059-.6137-3.261-.6137-1.611 0-3.03.35799-4.257 1.07397-1.202.69042-2.135 1.67489-2.8 2.95343-.665 1.25298-.997 2.73608-.997 4.44928 0 1.2786.191 2.442.575 3.4904.384 1.0484.921 1.9562 1.611 2.7233.716.7416 1.573 1.3169 2.57 1.7261.997.4091 2.097.6137 3.298.6137Zm85.606 5.4849c-2.046 0-3.938-.358-5.677-1.074-1.713-.716-3.222-1.7132-4.526-2.9918-1.304-1.2785-2.314-2.7616-3.03-4.4493-.716-1.7132-1.074-3.5543-1.074-5.5233 0-1.9945.358-3.8356 1.074-5.52325.716-1.68767 1.713-3.15799 2.992-4.41096 1.278-1.27854 2.774-2.26302 4.487-2.95343 1.739-.71598 3.631-1.073971 5.677-1.073971 2.02 0 3.887.357991 5.6 1.073971 1.739.69041 3.248 1.67489 4.526 2.95343 1.304 1.25297 2.314 2.73607 3.03 4.44931.716 1.6877 1.074 3.5288 1.074 5.5233 0 1.9689-.358 3.81-1.074 5.5233-.716 1.6877-1.713 3.1708-2.991 4.4493-1.279 1.253-2.788 2.2374-4.527 2.9534-1.713.716-3.567 1.074-5.561 1.074Zm-.077-5.4849c1.611 0 3.017-.358 4.219-1.074 1.228-.716 2.174-1.7133 2.839-2.9918.665-1.3041.997-2.8.997-4.4877 0-1.2785-.192-2.4292-.575-3.452-.384-1.04842-.934-1.9434-1.65-2.68495-.716-.76713-1.572-1.34247-2.57-1.72603-.971-.40913-2.058-.6137-3.26-.6137-1.611 0-3.03.35799-4.257 1.07397-1.202.69042-2.136 1.67489-2.8 2.95343-.665 1.25298-.998 2.73608-.998 4.44928 0 1.2786.192 2.442.576 3.4904.383 1.0484.92 1.9562 1.611 2.7233.716.7416 1.572 1.3169 2.569 1.7261.998.4091 2.097.6137 3.299.6137Zm121.307 5.4849c-2.045 0-3.938-.358-5.676-1.074-1.714-.716-3.222-1.7132-4.526-2.9918-1.305-1.2785-2.315-2.7616-3.031-4.4493-.716-1.7132-1.074-3.5543-1.074-5.5233 0-1.9945.358-3.8356 1.074-5.52325.716-1.68767 1.714-3.15799 2.992-4.41096 1.279-1.27854 2.775-2.26302 4.488-2.95343 1.739-.71598 3.631-1.073971 5.677-1.073971 2.02 0 3.886.357991 5.6 1.073971 1.738.69041 3.247 1.67489 4.526 2.95343 1.304 1.25297 2.314 2.73607 3.03 4.44931.716 1.6877 1.074 3.5288 1.074 5.5233 0 1.9689-.358 3.81-1.074 5.5233-.716 1.6877-1.713 3.1708-2.992 4.4493-1.279 1.253-2.787 2.2374-4.526 2.9534-1.713.716-3.567 1.074-5.562 1.074Zm-.076-5.4849c1.611 0 3.017-.358 4.219-1.074 1.227-.716 2.173-1.7133 2.838-2.9918.665-1.3041.997-2.8.997-4.4877 0-1.2785-.191-2.4292-.575-3.452-.384-1.04842-.933-1.9434-1.649-2.68495-.716-.76713-1.573-1.34247-2.57-1.72603-.972-.40913-2.059-.6137-3.26-.6137-1.611 0-3.031.35799-4.258 1.07397-1.202.69042-2.135 1.67489-2.8 2.95343-.665 1.25298-.997 2.73608-.997 4.44928 0 1.2786.192 2.442.575 3.4904.384 1.0484.921 1.9562 1.611 2.7233.716.7416 1.573 1.3169 2.57 1.7261.997.4091 2.097.6137 3.299.6137Z"/>
</svg>
