<svg xmlns="http://www.w3.org/2000/svg" fill="none" viewBox="0 0 474 57">
  <path fill="#000" fill-rule="evenodd" d="M51.7199 13.6523h.0015l-.0008.0015c.2764.5261.7029 1.6123.7452 3.3547-.0045.3547-.0193.7072-.0431 1.0574-.0438.4944-.0966.9828-.156 1.4668-.3239 2.6475-.8678 5.1421-1.6167 7.4963-.0252.0806-.0512.1611-.0772.2409-.0268.0843-.055.1685-.0833.2527l-.0325.0964c-.0432.1282-.0865.2564-.1316.3847l-.0332.0947c-.0259.074-.0517.148-.0783.2215-.023.0629-.0453.1249-.0683.1877-.0668.1838-.1358.366-.2048.5483l-.0003.0007c-.9539 2.5035-2.1508 4.8429-3.5706 7.0368-.5721.8993-1.1813 1.7816-1.8247 2.6461-1.1174 1.5022-2.3381 2.9468-3.6486 4.3219-2.4562 2.5782-5.226 4.9095-8.2201 6.9075-3.6664 2.4473-7.668 4.3951-11.8374 5.6816-4.0447-1.0663-7.7312-3.0067-10.84266-5.6062.87746-.2084 1.80986-.4626 2.78386-.7626 1.422-.4559 2.8165-.9746 4.1821-1.5503 1.0178-.4293 2.02-.8904 3.0045-1.3832 4.234-2.12 8.1434-4.8148 11.6309-7.9878.7281-.6975 1.4331-1.4202 2.1159-2.1635h-.8225c-9.6346 0-17.6428-6.9215-19.2744-16.0376v-.0008c0-.1315-.0222-.2578-.0624-.3761-.1575-.996-.2407-2.0172-.2407-3.0576 0-.1397.0022-.2786.0052-.4168.0305-1.4453.2199-2.8522.5505-4.2037.772-3.15226 2.3136-6.00377 4.4176-8.34615l.0981-.10862C19.5545 2.36749 21.1132 1.5 22.8235 1.17931c1.6954-.31774 3.4443-.483998 5.2319-.483998 9.3329 0 17.6027 4.525898 22.712 11.490988.3306.4788.6501.9673.9525 1.466ZM26.2656 23.9795c3.6932 3.7862 9.6056 3.8646 13.2052.1737l.0008.0007c2.3477-2.4074 3.1308-5.8227 2.3678-8.958-.4072-1.6714-1.2534-3.2638-2.538-4.5805-3.3336-3.41831-8.4756-3.81437-12.0923-1.14464-.39.28818-.7622.61104-1.1129.97024-3.5996 3.6909-3.5238 9.7523.1694 13.5385ZM6.24302 28.8299c0-4.8976 1.61593-9.5491 4.59588-13.3509.0892-2.4806.5773-4.1845.7452-4.7055.1419-.4182.2935-.83125.4554-1.23914.7824-1.96923 1.798-3.82097 3.012-5.52271-.3165.16478-.6293.334-.9376.50986C7.52759 8.27302 2.61593 14.5989.765241 22.1204.265234 24.2604 0 26.4934 0 28.7892s.253347 4.4247.731065 6.5188C1.87744 40.0748 4.25191 44.3672 7.50381 47.8357c.27341-.068.54607-.1375.81799-.2091 1.9168-.5077 3.7913-1.1188 5.6175-1.8259-4.79208-3.8934-7.69553-9.8861-7.69553-16.9708h-.00075Zm48.41238-8.4165C53.0321 35.995 42.1211 49.9922 25.8371 56.6693c.4656.0348.9083.0235 1.3626.0119.2315-.0059.466-.0119.708-.0119 15.4378 0 27.9669-12.4149 28.0932-27.7773-.0156-2.9556-.4859-5.8037-1.3447-8.4786h-.0008Zm-41.3366 5.9927s-.0014-.0014-.0014-.0029c-.6271-1.0441-1.7371-4.7336-2.0729-5.8745-.0446-.1123-.0802-.2253-.0988-.3384-1.39377 2.8493-2.1278 6.1412-2.1278 8.7141 0 2.7917.49332 5.4237 1.4658 7.8223.9362 2.3069 2.292 4.3441 4.0298 6.0532.7326.7205 1.5268 1.3722 2.373 1.9545 1.0186-.4848 1.6278-.8594 1.6278-.8594 3.0424-1.5192 6.0521-3.2963 8.6985-5.4052-6.1784-1.8488-11.171-6.2639-13.894-12.0637ZM271.081 15.5852v26.5817l.008-.0074h6.333v-8.588h4.643c3.039 0 5.492-.8471 7.39-2.5779 1.897-1.7383 2.869-3.8742 2.869-6.4963 0-2.46-.925-4.5518-2.746-6.2901-1.813-1.7382-4.435-2.622-7.814-2.622h-10.683Zm6.294 13.5155v-9.0374h3.333c3.501 0 5.322 2.0181 5.322 4.5592 0 2.4232-1.52 4.4782-5.361 4.4782h-3.294Zm-110.174 8.4397v4.6265h-19.686V15.5852h18.883v4.6337h-12.589v5.8842h11.278v4.472h-11.278v6.9653h13.392Zm-49.382 4.63h5.992V26.8033h.119l16.73 15.8089h.849V15.5523h-5.985v14.8811h-.163c-1.823-1.7745-4.612-4.3149-8.288-7.621-3.682-3.3502-6.472-5.9274-8.369-7.7829h-.885v27.1409Zm338.083 0h-5.978V15.0295h.885c1.897 1.8555 4.687 4.4327 8.369 7.7829 3.676 3.3061 6.465 5.8465 8.288 7.621h.163V15.5523h5.985v27.0599h-.849l-16.731-15.8089h-.118v15.3671h-.014Zm-108.456-24.243c-1.988-1.5762-4.448-2.3422-7.325-2.3422h-11.316v26.5817h6.311V20.1443h3.814c3.264 0 5.337 1.9371 5.337 5.0011 0 2.6221-2.158 5.119-6.567 5.6051v.5671l7.371 10.8493h7.201l-7.371-9.8034c3.767-1.6498 5.592-5.0011 5.592-8.0651 0-2.7031-1.013-4.839-3.047-6.371Zm-92.8-2.3422c2.891 0 5.362.766 7.359 2.3422 2.044 1.532 3.062 3.6679 3.062 6.371 0 3.064-1.834 6.4153-5.619 8.0651l7.407 9.8034h-7.236l-7.406-10.8493v-.5671c4.43-.4861 6.598-2.983 6.598-5.6051 0-3.064-2.083-5.0011-5.362-5.0011h-3.832v22.0226h-6.341V15.5852h11.37Zm117.952 22.4134 1.819 4.1689h6.105l-12.469-26.9153h-.887l-12.669 26.9153h5.994l1.863-4.1689h10.244Zm-8.426-4.0812 3.282-7.3286h.155l3.201 7.3286h-6.638Zm-165.554 8.7297c-2.02 0-3.9-.3452-5.639-1.0356-1.713-.716-3.221-1.7132-4.526-2.9918-1.278-1.2785-2.275-2.7616-2.991-4.4493-.716-1.7132-1.074-3.5543-1.074-5.5233 0-1.9689.358-3.7972 1.074-5.4849.716-1.7132 1.713-3.1964 2.991-4.4493 1.279-1.253 2.775-2.2247 4.488-2.9151 1.739-.716 3.618-1.074 5.638-1.074 2.148 0 4.053.3452 5.716 1.0357 1.687.6904 3.157 1.6365 4.41 2.8383l-4.027 4.0658c-.716-.7672-1.585-1.3681-2.608-1.8028-.997-.4347-2.161-.652-3.491-.652-1.176 0-2.263.2045-3.26.6137-.972.3835-1.815.9461-2.531 1.6876-.691.7416-1.241 1.6366-1.65 2.685-.383 1.0484-.575 2.1991-.575 3.452 0 1.2786.192 2.442.575 3.4904.409 1.0484.959 1.9434 1.65 2.685.716.7415 1.559 1.3169 2.531 1.726.997.4091 2.084.6137 3.26.6137 1.381 0 2.583-.2174 3.606-.6521 1.023-.4347 1.905-1.0356 2.646-1.8027l4.066 4.0658c-1.304 1.2018-2.8 2.1479-4.487 2.8383-1.663.6904-3.593 1.0356-5.792 1.0356Zm190.398-21.9037v21.4235h6.034V20.7434h8.495v-5.1582h-23.023v5.1582h8.494Zm18.533 21.4235V15.5852h6.006v26.5817h-6.006ZM76 42.1704h5.9926V26.8033h.1181l16.7305 15.8089h.8487V15.5523h-5.9852v14.8811h-.1623c-1.8229-1.7745-4.6126-4.3149-8.2879-7.621-3.6826-3.3502-6.4723-5.9274-8.3689-7.7829H76v27.1409Zm29.807-.0036V15.5851h6.006v26.5817h-6.006Zm113.622-.5452c1.739.7159 3.631 1.0739 5.677 1.0739 1.995 0 3.849-.358 5.562-1.0739 1.739-.716 3.247-1.7005 4.526-2.9535 1.278-1.2785 2.276-2.7616 2.992-4.4493.716-1.7132 1.074-3.5543 1.074-5.5233 0-1.9945-.358-3.8356-1.074-5.5233-.716-1.7132-1.726-3.1963-3.031-4.4493-1.278-1.2785-2.787-2.263-4.526-2.9534-1.713-.716-3.579-1.074-5.6-1.074-2.045 0-3.937.358-5.676 1.074-1.714.6904-3.209 1.6749-4.488 2.9534-1.279 1.253-2.276 2.7233-2.992 4.411-.716 1.6876-1.074 3.5287-1.074 5.5233 0 1.9689.358 3.81 1.074 5.5233.716 1.6876 1.726 3.1707 3.03 4.4493 1.304 1.2785 2.813 2.2758 4.526 2.9918Zm9.82-5.485c-1.202.716-2.609 1.074-4.22 1.074-1.201 0-2.301-.2046-3.298-.6137-.997-.4091-1.854-.9845-2.57-1.726-.69-.7672-1.227-1.6749-1.611-2.7233-.384-1.0484-.575-2.2119-.575-3.4904 0-1.7133.332-3.1964.997-4.4493.665-1.2786 1.598-2.2631 2.8-2.9535 1.227-.716 2.646-1.0739 4.257-1.0739 1.202 0 2.289.2045 3.261.6137.997.3835 1.854.9589 2.57 1.726.716.7415 1.265 1.6365 1.649 2.6849.383 1.0228.575 2.1735.575 3.4521 0 1.6876-.332 3.1835-.997 4.4876-.665 1.2786-1.611 2.2758-2.838 2.9918Zm81.386 6.5589c-2.046 0-3.938-.358-5.677-1.0739-1.713-.716-3.222-1.7133-4.526-2.9918-1.304-1.2786-2.314-2.7617-3.03-4.4493-.716-1.7133-1.074-3.5544-1.074-5.5233 0-1.9946.358-3.8357 1.074-5.5233.716-1.6877 1.713-3.158 2.992-4.411 1.278-1.2785 2.774-2.263 4.488-2.9534 1.738-.716 3.631-1.074 5.676-1.074 2.02 0 3.887.358 5.6 1.074 1.739.6904 3.248 1.6749 4.526 2.9534 1.304 1.253 2.314 2.7361 3.03 4.4493.716 1.6877 1.074 3.5288 1.074 5.5233 0 1.969-.358 3.8101-1.074 5.5233-.716 1.6877-1.713 3.1708-2.991 4.4493-1.279 1.253-2.788 2.2375-4.526 2.9535-1.714.7159-3.568 1.0739-5.562 1.0739Zm-.077-5.4849c1.611 0 3.018-.358 4.219-1.074 1.228-.716 2.174-1.7132 2.839-2.9918.665-1.3041.997-2.8.997-4.4876 0-1.2786-.192-2.4293-.575-3.4521-.384-1.0484-.934-1.9434-1.65-2.6849-.716-.7671-1.572-1.3425-2.57-1.726-.971-.4092-2.058-.6137-3.26-.6137-1.611 0-3.03.3579-4.257 1.0739-1.202.6904-2.135 1.6749-2.8 2.9535-.665 1.2529-.998 2.736-.998 4.4493 0 1.2785.192 2.442.576 3.4904.383 1.0484.92 1.9561 1.611 2.7233.716.7415 1.572 1.3169 2.57 1.726.997.4091 2.096.6137 3.298.6137Zm115.631 4.411c1.739.7159 3.631 1.0739 5.676 1.0739 1.995 0 3.849-.358 5.562-1.0739 1.739-.716 3.248-1.7005 4.526-2.9535 1.279-1.2785 2.276-2.7616 2.992-4.4493.716-1.7132 1.074-3.5543 1.074-5.5233 0-1.9945-.358-3.8356-1.074-5.5233-.716-1.7132-1.726-3.1963-3.03-4.4493-1.279-1.2785-2.787-2.263-4.526-2.9534-1.714-.716-3.58-1.074-5.6-1.074-2.046 0-3.938.358-5.677 1.074-1.713.6904-3.209 1.6749-4.488 2.9534-1.278 1.253-2.276 2.7233-2.991 4.411-.716 1.6876-1.074 3.5287-1.074 5.5233 0 1.9689.358 3.81 1.074 5.5233.715 1.6876 1.726 3.1707 3.03 4.4493 1.304 1.2785 2.812 2.2758 4.526 2.9918Zm9.819-5.485c-1.202.716-2.608 1.074-4.219 1.074-1.202 0-2.302-.2046-3.299-.6137-.997-.4091-1.854-.9845-2.57-1.726-.69-.7672-1.227-1.6749-1.611-2.7233-.383-1.0484-.575-2.2119-.575-3.4904 0-1.7133.332-3.1964.997-4.4493.665-1.2786 1.598-2.2631 2.8-2.9535 1.228-.716 2.647-1.0739 4.258-1.0739 1.202 0 2.288.2045 3.26.6137.997.3835 1.854.9589 2.57 1.726.716.7415 1.266 1.6365 1.649 2.6849.384 1.0228.575 2.1735.575 3.4521 0 1.6876-.332 3.1835-.997 4.4876-.665 1.2786-1.611 2.2758-2.838 2.9918Z" clip-rule="evenodd"/>
</svg>
