<svg xmlns="http://www.w3.org/2000/svg" fill="none" viewBox="0 0 121 121">
  <path fill="url(#paint0_linear_1754_4766)" d="M13.9748 60.7346c0-10.4948 3.4627-20.4624 9.8484-28.609.191-5.3155 1.237-8.9668 1.5968-10.0831.3041-.8962.6289-1.7813.9759-2.6554 1.6764-4.2198 3.8528-8.1878 6.4542-11.83437-.6782.3531-1.3485.7157-2.0092 1.09255C16.7275 16.6842 6.2025 30.2398 2.23672 46.3573 1.16528 50.9428.596924 55.7279.596924 60.6475c0 4.9197.542886 9.4814 1.566566 13.9688C4.62001 84.8309 9.70817 94.0289 16.6765 101.461c.5859-.145 1.1702-.294 1.7529-.448 4.1074-1.0875 8.1241-2.397 12.0374-3.9123-10.2687-8.343-16.4904-21.1844-16.4904-36.3661h-.0016Z"/>
  <path fill="url(#paint1_linear_1754_4766)" d="M117.716 42.6992c-3.479 33.3892-26.8595 63.3828-61.7538 77.6908 1.506.113 2.9007 0 4.437 0 33.081 0 59.9288-26.603 60.1998-59.5224-.033-6.3334-1.041-12.4366-2.882-18.1684h-.001Z"/>
  <path fill="url(#paint2_linear_1754_4766)" d="M111.428 28.2113h-.003c-.648-1.0688-1.332-2.1154-2.041-3.1415C98.4357 10.1446 80.7147.446289 60.7155.446289c-3.8304 0-7.5781.356266-11.2111 1.037131-3.6649.6872-7.005 2.54612-9.5109 5.29333-.07.07758-.1401.15517-.2101.23276-4.5087 5.01939-7.8121 11.12979-9.4663 17.88459-.7084 2.896-1.1144 5.9108-1.1797 9.008-.0063.2961-.0111.5937-.0111.893 0 2.2294.1783 4.4177.5158 6.5521.086.2534.1337.5242.1337.806v.0016C33.272 61.6893 50.4325 76.521 71.0781 76.521h1.7624c-1.4631 1.5929-2.9739 3.1415-4.5341 4.6362-7.4731 6.7992-15.8504 12.5739-24.9234 17.1167-2.1095 1.0561-4.2571 2.0441-6.4382 2.9641-2.9262 1.233-5.9144 2.345-8.9616 3.322-2.0872.643-4.0852 1.188-5.9654 1.634 6.6675 5.57 14.5672 9.728 23.2343 12.013 8.9345-2.756 17.5092-6.93 25.3659-12.174 6.4159-4.282 12.3511-9.2776 17.6144-14.8021 2.8083-2.9468 5.424-6.0423 7.8185-9.2614 1.3787-1.8526 2.6841-3.7431 3.91-5.6702 3.0421-4.7011 5.6071-9.7141 7.6511-15.0787.148-.3911.296-.7822.44-1.1765.049-.1346.097-.2676.146-.4022.081-.2248.159-.4513.239-.6777.121-.3436.236-.6872.352-1.0308.06-.1805.121-.361.178-.5415.056-.171.112-.3436.166-.5162 1.604-5.0447 2.77-10.3903 3.464-16.0636.127-1.0372.24-2.0838.334-3.1431.051-.7505.083-1.5058.093-2.2659-.091-3.7336-1.005-6.0612-1.597-7.1886l.001-.0032ZM85.1772 50.7131c-7.7134 7.9091-20.3829 7.7413-28.2969-.3721-7.914-8.1134-8.0764-21.1021-.363-29.0112.7515-.7695 1.5491-1.4615 2.3849-2.079 7.7501-5.7208 18.7686-4.8721 25.912 2.4527 2.7527 2.8216 4.566 6.2339 5.4385 9.8155 1.635 6.7184-.043 14.0369-5.0739 19.1957l-.0016-.0016Z"/>
  <path fill="url(#paint3_linear_1754_4766)" d="M29.1372 55.5403s-.0032-.0031-.0032-.0063c-1.3436-2.2374-3.7222-10.1433-4.4418-12.5881-.0955-.2407-.1719-.4829-.2117-.7252-2.9867 6.1056-4.5596 13.1597-4.5596 18.6731 0 5.9821 1.0571 11.6222 3.1411 16.7619 2.006 4.9434 4.9114 9.3089 8.6352 12.9713 1.5698 1.5438 3.2717 2.9404 5.085 4.1881 2.1827-1.0387 3.4882-1.8415 3.4882-1.8415C46.7898 89.7181 53.2391 85.91 58.91 81.391c-13.2394-3.9617-23.938-13.4225-29.7728-25.8507Z"/>
  <defs>
    <linearGradient id="paint0_linear_1754_4766" x1="54.0291" x2="34.492" y1="167.348" y2="-63.946" gradientUnits="userSpaceOnUse">
      <stop stop-color="#7747E2"/>
      <stop offset=".713542" stop-color="#7CA5EF"/>
    </linearGradient>
    <linearGradient id="paint1_linear_1754_4766" x1="55.9622" x2="136.436" y1="159.608" y2=".564346" gradientUnits="userSpaceOnUse">
      <stop stop-color="#7747E2"/>
      <stop offset="1" stop-color="#7CA5EF"/>
    </linearGradient>
    <linearGradient id="paint2_linear_1754_4766" x1="22.0178" x2="75.7791" y1="156.236" y2="-14.5201" gradientUnits="userSpaceOnUse">
      <stop offset=".0252051" stop-color="#7747E2"/>
      <stop offset="1" stop-color="#7CA5EF"/>
    </linearGradient>
    <linearGradient id="paint3_linear_1754_4766" x1="54.3239" x2="33.8128" y1="144.308" y2="17.3843" gradientUnits="userSpaceOnUse">
      <stop stop-color="#6F47E2"/>
      <stop offset="1" stop-color="#7CA5EF"/>
    </linearGradient>
  </defs>
</svg>
