<svg xmlns="http://www.w3.org/2000/svg" width="285" height="162" fill="none" viewBox="0 0 285 162">
  <g clip-path="url(#a)">
    <g clip-path="url(#b)">
      <path fill="url(#c)" d="M95.3916 61.2336c0-10.4948 3.4627-20.4623 9.8484-28.609.191-5.3155 1.237-8.9668 1.597-10.0831.304-.8962.629-1.7813.976-2.6554 1.676-4.2197 3.852-8.1878 6.454-11.83434-.678.3531-1.349.7157-2.009 1.09255C98.1442 17.1833 87.6192 30.7388 83.6535 46.8563c-1.0715 4.5855-1.6398 9.3706-1.6398 14.2902 0 4.9197.5429 9.4815 1.5665 13.9688 2.4566 10.2146 7.5447 19.4126 14.5131 26.8447.5858-.145 1.1701-.294 1.7528-.448 4.1079-1.087 8.1239-2.397 12.0379-3.9123-10.269-8.343-16.4908-21.1844-16.4908-36.3661h-.0016Z"/>
      <path fill="url(#d)" d="M199.132 43.1982c-3.478 33.3892-26.859 63.3828-61.753 77.6908 1.506.113 2.901 0 4.437 0 33.081 0 59.929-26.603 60.2-59.5224-.034-6.3333-1.042-12.4366-2.882-18.1684h-.002Z"/>
      <path fill="url(#e)" d="M192.845 28.7103h-.003c-.648-1.0688-1.333-2.1154-2.041-3.1414C179.853 10.6437 162.132.945312 142.132.945312c-3.83 0-7.578.356268-11.211 1.037128-3.665.6872-7.005 2.54612-9.511 5.29333-.07.07759-.14.15517-.21.23276-4.508 5.01937-7.812 11.12977-9.466 17.88457-.709 2.896-1.114 5.9109-1.18 9.008-.006.2961-.011.5938-.011.893 0 2.2295.178 4.4177.516 6.5522.086.2533.134.5241.134.8059v.0016c3.496 19.5345 20.656 34.3663 41.302 34.3663h1.762c-1.463 1.5929-2.974 3.1414-4.534 4.6362-7.473 6.7991-15.85 12.5738-24.923 17.1166-2.11 1.0561-4.257 2.0441-6.438 2.9641-2.927 1.233-5.915 2.345-8.962 3.322-2.087.643-4.085 1.188-5.965 1.634 6.667 5.57 14.567 9.729 23.234 12.013 8.934-2.756 17.509-6.93 25.366-12.174 6.416-4.282 12.351-9.2776 17.614-14.8021 2.809-2.9467 5.424-6.0423 7.819-9.2614 1.378-1.8525 2.684-3.7431 3.91-5.6701 3.042-4.7012 5.607-9.7142 7.651-15.0788.148-.3911.296-.7822.439-1.1765.05-.1346.098-.2676.147-.4022.081-.2248.159-.4512.239-.6777.121-.3436.235-.6872.352-1.0308.06-.1805.121-.361.178-.5415.056-.171.111-.3436.165-.5162 1.605-5.0447 2.771-10.3903 3.465-16.0636.127-1.0372.24-2.0838.334-3.1431.051-.7505.083-1.5058.092-2.2658-.09-3.7337-1.004-6.0613-1.596-7.1887l.001-.0032Zm-26.251 22.5018c-7.713 7.9091-20.383 7.7413-28.297-.3721-7.914-8.1134-8.076-21.102-.363-29.0111.752-.7696 1.549-1.4615 2.385-2.0791 7.75-5.7208 18.769-4.8721 25.912 2.4527 2.753 2.8217 4.566 6.2339 5.438 9.8156 1.635 6.7184-.043 14.0369-5.073 19.1956l-.002-.0016Z"/>
      <path fill="url(#f)" d="M110.554 56.0393s-.003-.0031-.003-.0063c-1.344-2.2373-3.722-10.1433-4.442-12.5881-.095-.2406-.172-.4829-.212-.7252-2.986 6.1056-4.559 13.1597-4.559 18.6731 0 5.9821 1.057 11.6222 3.141 16.762 2.006 4.9434 4.911 9.3088 8.635 12.9712 1.57 1.5439 3.272 2.9404 5.085 4.1881 2.183-1.0387 3.488-1.8415 3.488-1.8415 6.52-3.2554 12.969-7.0635 18.64-11.5826-13.24-3.9617-23.938-13.4225-29.773-25.8507Z"/>
    </g>
  </g>
  <path fill="currentColor" d="M139.352 161.568v-18.987h7.631c2.413 0 4.287.631 5.581 1.873 1.301 1.242 1.962 2.736 1.962 4.493 0 1.873-.694 3.398-2.05 4.64-1.355 1.236-3.107 1.841-5.278 1.841h-3.317v6.135h-4.523l-.006.005Zm4.496-15.788v6.455h2.353c2.744 0 3.829-1.468 3.829-3.199 0-1.815-1.3-3.256-3.802-3.256h-2.385.005Zm-78.6956 12.478v3.31H51.0909v-18.987h13.4885v3.31h-8.9923v4.203h8.0556v3.194h-8.0556v4.975h9.5653v-.005Zm-31.0029 3.312h-4.2699v-19.386h.6326c1.3548 1.325 3.3474 3.166 5.9778 5.559 2.6252 2.361 4.6179 4.176 5.9199 5.443h.116v-10.629h4.2751v19.329h-.6062l-11.9504-11.293h-.0843v10.977h-.0106Zm237.2175 0h-4.27v-19.386h.632c1.355 1.325 3.348 3.166 5.978 5.559 2.626 2.361 4.618 4.176 5.92 5.443h.116v-10.629h4.275v19.329h-.606l-11.95-11.293h-.085v10.977h-.01Zm-82.701-18.989c2.055 0 3.812.547 5.232 1.673 1.453 1.094 2.177 2.62 2.177 4.551 0 2.188-1.304 4.582-3.994 5.761l5.265 7.002h-5.144l-5.265-7.749v-.406c3.149-.347 4.69-2.13 4.69-4.003 0-2.189-1.48-3.572-3.812-3.572h-2.723v15.73h-4.509v-18.987h8.083Zm-61.053 0c2.065 0 3.83.547 5.257 1.673 1.46 1.094 2.187 2.62 2.187 4.551 0 2.188-1.31 4.582-4.014 5.761l5.29 7.002h-5.168l-5.29-7.749v-.406c3.164-.347 4.713-2.13 4.713-4.003 0-2.189-1.488-3.572-3.83-3.572h-2.737v15.73h-4.529v-18.987h8.121Zm85.55 18.987-1.298-2.978h-7.318l-1.331 2.978h-4.281l9.049-19.225h.634l8.906 19.225h-4.366.005Zm-4.973-11.128-2.344 5.235h4.741l-2.286-5.235h-.116.005ZM87.5929 161.91c-1.4429 0-2.7854-.247-4.0274-.74-1.2237-.511-2.3014-1.223-3.2329-2.137-.9132-.913-1.6255-1.972-2.137-3.178-.5114-1.223-.7671-2.539-.7671-3.945 0-1.406.2557-2.712.7671-3.918.5115-1.224 1.2238-2.283 2.137-3.178.9133-.895 1.9818-1.589 3.2055-2.082 1.242-.511 2.5845-.767 4.0274-.767 1.5343 0 2.895.246 4.0822.74 1.2055.493 2.2557 1.169 3.1507 2.027l-2.8767 2.904c-.5115-.548-1.1324-.977-1.863-1.288-.7124-.31-1.5434-.465-2.4932-.465-.8402 0-1.6164.146-2.3288.438-.694.274-1.2968.676-1.8082 1.205-.4931.53-.8858 1.169-1.1781 1.918-.2739.749-.4109 1.571-.4109 2.466 0 .913.137 1.744.4109 2.493.2923.749.685 1.388 1.1781 1.918.5114.53 1.1142.941 1.8082 1.233.7124.292 1.4886.438 2.3288.438.9863 0 1.8448-.155 2.5753-.466.7306-.31 1.3608-.739 1.8905-1.287l2.9041 2.904c-.9315.858-2 1.534-3.2055 2.027-1.1872.493-2.5662.74-4.137.74Zm135.9991-.342V142.85h4.31v18.718h-4.31Zm-6.068-15.303v-3.684h16.445v3.684h-16.445Zm19.305 15.303v-18.987h4.29v18.987h-4.29Zm-232.55009.002H.0090332v-19.386H.641607c1.354763 1.325 3.347373 3.166 5.977833 5.559 2.62519 2.361 4.61776 4.176 5.91986 5.443h.116v-10.629h4.2751v19.329h-.6062L4.37381 150.593h-.08434v10.977h-.01056Zm17.02089-.002v-18.987h4.2899v18.987h-4.2899Zm85.2132.377c-1.461 0-2.812-.255-4.054-.767-1.224-.511-2.302-1.224-3.2334-2.137-.9315-.913-1.6529-1.972-2.1644-3.178-.5114-1.224-.7671-2.539-.7671-3.945 0-1.425.2557-2.74.7671-3.945.5115-1.206 1.2238-2.256 2.137-3.151.9128-.913 1.9818-1.616 3.2058-2.11 1.242-.511 2.593-.767 4.054-.767 1.443 0 2.777.256 4 .767 1.243.494 2.32 1.197 3.233 2.11.932.895 1.653 1.954 2.165 3.178.511 1.206.767 2.521.767 3.945 0 1.407-.256 2.722-.767 3.946-.512 1.205-1.224 2.264-2.137 3.178-.913.895-1.991 1.598-3.233 2.109-1.224.512-2.548.767-3.973.767Zm-.055-3.917c1.151 0 2.156-.256 3.014-.768.877-.511 1.553-1.223 2.028-2.137.474-.931.712-2 .712-3.205 0-.913-.137-1.735-.411-2.466-.274-.749-.667-1.388-1.178-1.918-.512-.548-1.123-.959-1.836-1.233-.694-.292-1.47-.438-2.329-.438-1.15 0-2.164.256-3.041.767-.858.493-1.525 1.197-2 2.11-.474.895-.712 1.954-.712 3.178 0 .913.137 1.744.411 2.493.274.749.658 1.397 1.151 1.945.511.53 1.123.941 1.835 1.233.713.292 1.498.439 2.356.439Zm61.147 3.917c-1.461 0-2.813-.255-4.055-.767-1.224-.511-2.301-1.224-3.233-2.137-.931-.913-1.653-1.972-2.164-3.178-.511-1.224-.767-2.539-.767-3.945 0-1.425.256-2.74.767-3.945.511-1.206 1.224-2.256 2.137-3.151.913-.913 1.982-1.616 3.205-2.11 1.242-.511 2.594-.767 4.055-.767 1.443 0 2.776.256 4 .767 1.242.494 2.32 1.197 3.233 2.11.932.895 1.653 1.954 2.164 3.178.512 1.206.768 2.521.768 3.945 0 1.407-.256 2.722-.768 3.946-.511 1.205-1.223 2.264-2.136 3.178-.914.895-1.991 1.598-3.233 2.109-1.224.512-2.548.767-3.973.767Zm-.055-3.917c1.151 0 2.155-.256 3.014-.768.877-.511 1.552-1.223 2.027-2.137.475-.931.713-2 .713-3.205 0-.913-.137-1.735-.411-2.466-.274-.749-.667-1.388-1.178-1.918-.512-.548-1.124-.959-1.836-1.233-.694-.292-1.47-.438-2.329-.438-1.15 0-2.164.256-3.041.767-.858.493-1.525 1.197-2 2.11-.475.895-.712 1.954-.712 3.178 0 .913.137 1.744.411 2.493.274.749.657 1.397 1.15 1.945.512.53 1.124.941 1.836 1.233.712.292 1.498.439 2.356.439Zm86.648 3.917c-1.461 0-2.813-.255-4.055-.767-1.223-.511-2.301-1.224-3.233-2.137-.931-.913-1.653-1.972-2.164-3.178-.511-1.224-.767-2.539-.767-3.945 0-1.425.256-2.74.767-3.945.511-1.206 1.224-2.256 2.137-3.151.913-.913 1.982-1.616 3.205-2.11 1.242-.511 2.594-.767 4.055-.767 1.443 0 2.777.256 4 .767 1.242.494 2.32 1.197 3.233 2.11.932.895 1.653 1.954 2.165 3.178.511 1.206.767 2.521.767 3.945 0 1.407-.256 2.722-.767 3.946-.512 1.205-1.224 2.264-2.137 3.178-.914.895-1.991 1.598-3.233 2.109-1.224.512-2.548.767-3.973.767Zm-.055-3.917c1.151 0 2.155-.256 3.014-.768.877-.511 1.552-1.223 2.027-2.137.475-.931.713-2 .713-3.205 0-.913-.137-1.735-.411-2.466-.274-.749-.667-1.388-1.178-1.918-.512-.548-1.124-.959-1.836-1.233-.694-.292-1.47-.438-2.329-.438-1.15 0-2.164.256-3.041.767-.858.493-1.525 1.197-2 2.11-.475.895-.712 1.954-.712 3.178 0 .913.137 1.744.411 2.493.274.749.657 1.397 1.15 1.945.512.53 1.124.941 1.836 1.233.712.292 1.498.439 2.356.439Z"/>
  <defs>
    <linearGradient id="c" x1="135.446" x2="115.909" y1="167.847" y2="-63.447" gradientUnits="userSpaceOnUse">
      <stop stop-color="#7747E2"/>
      <stop offset=".713542" stop-color="#7CA5EF"/>
    </linearGradient>
    <linearGradient id="d" x1="137.379" x2="217.853" y1="160.107" y2="1.06337" gradientUnits="userSpaceOnUse">
      <stop stop-color="#7747E2"/>
      <stop offset="1" stop-color="#7CA5EF"/>
    </linearGradient>
    <linearGradient id="e" x1="103.435" x2="157.196" y1="156.735" y2="-14.0211" gradientUnits="userSpaceOnUse">
      <stop offset=".0252051" stop-color="#7747E2"/>
      <stop offset="1" stop-color="#7CA5EF"/>
    </linearGradient>
    <linearGradient id="f" x1="135.741" x2="115.23" y1="144.807" y2="17.8833" gradientUnits="userSpaceOnUse">
      <stop stop-color="#6F47E2"/>
      <stop offset="1" stop-color="#7CA5EF"/>
    </linearGradient>
    <clipPath id="a">
      <path fill="#fff" d="M82.0137.945312h120v120h-120z"/>
    </clipPath>
    <clipPath id="b">
      <path fill="#fff" d="M82.0137.945312h120v120h-120z"/>
    </clipPath>
  </defs>
</svg>
