<svg xmlns="http://www.w3.org/2000/svg" width="474" height="57" fill="none" viewBox="0 0 474 57">
  <g clip-path="url(#a)">
    <g clip-path="url(#b)">
      <path fill="url(#c)" d="M6.24302 28.5809c0-4.8976 1.61593-9.5491 4.59588-13.3509.0892-2.4805.5773-4.1845.7452-4.7054.1419-.4183.2935-.83131.4554-1.2392.7824-1.96922 1.798-3.82097 3.012-5.5227-.3165.16478-.6293.33399-.9376.50985C7.52759 8.02406 2.61593 14.35.765241 21.8715.265234 24.0114 0 26.2444 0 28.5403c0 2.2958.253347 4.4246.731065 6.5187C1.87744 39.8258 4.25191 44.1182 7.50381 47.5867c.27341-.068.54607-.1374.81799-.2091 1.9168-.5076 3.7913-1.1187 5.6175-1.8259-4.79208-3.8934-7.69553-9.886-7.69553-16.9708h-.00075Z"/>
      <path fill="url(#d)" d="M54.6555 20.1641c-1.6234 15.5816-12.5344 29.5787-28.8184 36.2558.7028.0526 1.3537 0 2.0706 0 15.4378 0 27.9669-12.4149 28.0932-27.7772-.0156-2.9556-.4858-5.8038-1.3447-8.4786h-.0007Z"/>
      <path fill="url(#e)" d="M51.7214 13.4033h-.0015c-.3024-.4988-.6219-.9872-.9525-1.466C45.6582 4.97219 37.3884.446289 28.0554.446289c-1.7876 0-3.5365.166258-5.2319.483994-1.7102.320697-3.269 1.188187-4.4384 2.470217-.0327.03621-.0653.07242-.098.10862-2.1041 2.34239-3.6457 5.19389-4.4176 8.34618-.3306 1.3514-.5201 2.7584-.5506 4.2037-.0029.1382-.0052.2771-.0052.4167 0 1.0404.0833 2.0616.2408 3.0577.0401.1182.0624.2446.0624.3761v.0008c1.6315 9.116 9.6398 16.0375 19.2744 16.0375h.8224c-.6828.7434-1.3878 1.4661-2.1159 2.1636-3.4874 3.1729-7.3968 5.8678-11.6309 7.9878-.9844.4928-1.9867.9539-3.0045 1.3832-1.3656.5756-2.7601 1.0944-4.1821 1.5503-.974.3-1.9064.5542-2.78384.7625 3.11144 2.5996 6.79804 4.54 10.84264 5.6062 4.1694-1.2864 8.171-3.2342 11.8375-5.6815 2.9941-1.9981 5.7638-4.3294 8.22-6.9075 1.3105-1.3751 2.5312-2.8197 3.6486-4.3219.6434-.8646 1.2526-1.7468 1.8247-2.6461 1.4198-2.1939 2.6167-4.5333 3.5706-7.0368.0691-.1825.1382-.365.2051-.549.023-.0628.0453-.1249.0683-.1877.0379-.1049.0743-.2106.1115-.3162.0564-.1604.1099-.3207.1642-.4811.0282-.0842.0564-.1685.0832-.2527.026-.0798.052-.1603.0772-.2409.7489-2.3542 1.2928-4.8488 1.6167-7.4964.0594-.4839.1122-.9724.156-1.4667.0238-.3503.0387-.7027.0431-1.0574-.0423-1.7424-.4688-2.8286-.7452-3.3547l.0008-.0015ZM39.4709 23.9041c-3.5997 3.6909-9.5121 3.6126-13.2053-.1736-3.6932-3.7863-3.769-9.8476-.1694-13.5386.3507-.35908.7229-.68198 1.113-.97016 3.6167-2.66973 8.7586-2.27367 12.0923 1.14456 1.2845 1.3168 2.1307 2.9092 2.5379 4.5806.763 3.1353-.0201 6.5506-2.3678 8.958l-.0007-.0008Z"/>
      <path fill="url(#f)" d="M13.3188 26.1572s-.0015-.0015-.0015-.0029c-.627-1.0441-1.737-4.7336-2.0728-5.8745-.0446-.1123-.0802-.2253-.0988-.3384-1.39378 2.8493-2.12782 6.1412-2.12782 8.7141 0 2.7917.49332 5.4237 1.46582 7.8223.9361 2.3069 2.292 4.3441 4.0298 6.0532.7325.7205 1.5268 1.3722 2.373 1.9545 1.0186-.4848 1.6278-.8594 1.6278-.8594 3.0424-1.5192 6.0521-3.2963 8.6985-5.4052-6.1784-1.8488-11.171-6.2639-13.894-12.0637Z"/>
    </g>
  </g>
  <path fill="currentColor" d="M271.081 41.9176V15.3359h10.683c3.379 0 6.001.8839 7.814 2.6221 1.82 1.7382 2.746 3.83 2.746 6.2901 0 2.622-.972 4.758-2.869 6.4962-1.898 1.7309-4.351 2.5779-7.39 2.5779h-4.644v8.5881h-6.332l-.008.0073Zm6.294-22.1035v9.0373h3.294c3.841 0 5.361-2.0549 5.361-4.4781 0-2.5411-1.821-4.5592-5.323-4.5592h-3.34.008ZM167.201 37.2839v4.6337h-19.686V15.3359h18.884v4.6338h-12.59v5.8842h11.278v4.4719h-11.278v6.9654h13.392v-.0073Zm-43.404 4.6373h-5.978V14.7803h.886c1.896 1.8555 4.686 4.4326 8.369 7.7829 3.675 3.3061 6.465 5.8464 8.287 7.621h.163V15.3031h5.985V42.363h-.849l-16.73-15.8089h-.118v15.3671h-.015Zm332.105 0h-5.978V14.7803h.885c1.897 1.8555 4.687 4.4326 8.369 7.7829 3.676 3.3061 6.465 5.8464 8.288 7.621h.163V15.3031h5.985V42.363h-.849l-16.731-15.8089h-.118v15.3671h-.014ZM340.121 15.3359c2.877 0 5.337.766 7.324 2.3422 2.035 1.532 3.048 3.668 3.048 6.3711 0 3.064-1.825 6.4153-5.592 8.0651l7.371 9.8033h-7.201L337.7 31.0684v-.5671c4.408-.4861 6.566-2.983 6.566-5.6051 0-3.064-2.073-5.0011-5.337-5.0011h-3.813v22.0225h-6.312V15.3359h11.317Zm-85.476 0c2.891 0 5.363.766 7.36 2.3422 2.044 1.532 3.062 3.668 3.062 6.3711 0 3.064-1.834 6.4153-5.619 8.0651l7.407 9.8033h-7.236l-7.406-10.8492v-.5671c4.43-.4861 6.598-2.983 6.598-5.6051 0-3.064-2.083-5.0011-5.362-5.0011h-3.832v22.0225h-6.341V15.3359h11.369Zm119.772 26.5824-1.819-4.169h-10.244l-1.863 4.169h-5.995l12.669-26.9154h.887l12.47 26.9154h-6.113.008Zm-6.963-15.5787-3.282 7.3285h6.637l-3.2-7.3285h-.163.008ZM198.618 42.3979c-2.02 0-3.9-.3452-5.639-1.0356-1.713-.716-3.222-1.7133-4.526-2.9918-1.278-1.2785-2.276-2.7616-2.991-4.4493-.716-1.7133-1.074-3.5544-1.074-5.5233 0-1.969.358-3.7973 1.074-5.4849.715-1.7133 1.713-3.1964 2.991-4.4494 1.279-1.2529 2.775-2.2246 4.488-2.915 1.739-.716 3.618-1.074 5.638-1.074 2.148 0 4.053.3452 5.715 1.0356 1.688.6904 3.158 1.6366 4.411 2.8384l-4.027 4.0657c-.716-.7671-1.585-1.368-2.608-1.8027-.997-.4347-2.161-.6521-3.491-.6521-1.176 0-2.263.2046-3.26.6137-.972.3836-1.815.9462-2.531 1.6877-.691.7416-1.241 1.6365-1.65 2.6849-.383 1.0484-.575 2.1991-.575 3.4521 0 1.2785.192 2.442.575 3.4904.409 1.0484.959 1.9434 1.65 2.6849.716.7416 1.559 1.3169 2.531 1.7261.997.4091 2.084.6137 3.26.6137 1.381 0 2.583-.2174 3.606-.6521 1.023-.4347 1.905-1.0356 2.646-1.8027l4.066 4.0657c-1.304 1.2019-2.8 2.148-4.488 2.8384-1.662.6904-3.592 1.0356-5.791 1.0356Zm190.398-.4803V15.7124h6.035v26.2052h-6.035Zm-8.494-21.4235v-5.1582h23.023v5.1582h-23.023Zm27.027 21.4235V15.3359h6.006v26.5817h-6.006Zm-325.5712.0036H76V14.7803h.8856c1.8967 1.8555 4.6863 4.4326 8.369 7.7829 3.6753 3.3061 6.4649 5.8464 8.2878 7.621h.1624V15.3031H99.69V42.363h-.8487L82.1107 26.5541h-.1181v15.3671h-.0148Zm23.8292-.0036V15.3359h6.006v26.5817h-6.006Zm119.299.5287c-2.046 0-3.938-.358-5.677-1.074-1.713-.716-3.221-1.7132-4.526-2.9918-1.304-1.2785-2.314-2.7616-3.03-4.4493-.716-1.7132-1.074-3.5543-1.074-5.5233 0-1.9945.358-3.8356 1.074-5.5233.716-1.6876 1.714-3.1579 2.992-4.4109 1.279-1.2786 2.774-2.263 4.488-2.9534 1.739-.716 3.631-1.074 5.676-1.074 2.021 0 3.887.358 5.6 1.074 1.739.6904 3.248 1.6748 4.526 2.9534 1.305 1.253 2.315 2.7361 3.031 4.4493.716 1.6877 1.074 3.5288 1.074 5.5233 0 1.9689-.358 3.81-1.074 5.5233-.716 1.6877-1.714 3.1708-2.992 4.4493-1.279 1.253-2.787 2.2374-4.526 2.9534-1.713.716-3.567 1.074-5.562 1.074Zm-.077-5.4849c1.611 0 3.018-.358 4.22-1.074 1.227-.716 2.173-1.7133 2.838-2.9918.665-1.3041.997-2.8.997-4.4877 0-1.2785-.192-2.4292-.575-3.452-.384-1.0484-.933-1.9434-1.649-2.685-.716-.7671-1.573-1.3424-2.57-1.726-.972-.4091-2.059-.6137-3.261-.6137-1.611 0-3.03.358-4.257 1.074-1.202.6904-2.135 1.6749-2.8 2.9534-.665 1.253-.997 2.7361-.997 4.4493 0 1.2786.191 2.442.575 3.4904.384 1.0484.921 1.9562 1.611 2.7233.716.7416 1.573 1.3169 2.57 1.7261.997.4091 2.097.6137 3.298.6137Zm85.606 5.4849c-2.046 0-3.938-.358-5.677-1.074-1.713-.716-3.222-1.7132-4.526-2.9918-1.304-1.2785-2.314-2.7616-3.03-4.4493-.716-1.7132-1.074-3.5543-1.074-5.5233 0-1.9945.358-3.8356 1.074-5.5233.716-1.6876 1.713-3.1579 2.992-4.4109 1.278-1.2786 2.774-2.263 4.487-2.9534 1.739-.716 3.631-1.074 5.677-1.074 2.02 0 3.887.358 5.6 1.074 1.739.6904 3.248 1.6748 4.526 2.9534 1.304 1.253 2.314 2.7361 3.03 4.4493.716 1.6877 1.074 3.5288 1.074 5.5233 0 1.9689-.358 3.81-1.074 5.5233-.716 1.6877-1.713 3.1708-2.991 4.4493-1.279 1.253-2.788 2.2374-4.526 2.9534-1.714.716-3.568 1.074-5.562 1.074Zm-.077-5.4849c1.611 0 3.018-.358 4.219-1.074 1.228-.716 2.174-1.7133 2.839-2.9918.665-1.3041.997-2.8.997-4.4877 0-1.2785-.192-2.4292-.575-3.452-.384-1.0484-.934-1.9434-1.65-2.685-.716-.7671-1.572-1.3424-2.57-1.726-.971-.4091-2.058-.6137-3.26-.6137-1.611 0-3.03.358-4.257 1.074-1.202.6904-2.136 1.6749-2.8 2.9534-.665 1.253-.998 2.7361-.998 4.4493 0 1.2786.192 2.442.576 3.4904.383 1.0484.92 1.9562 1.611 2.7233.716.7416 1.572 1.3169 2.57 1.7261.997.4091 2.096.6137 3.298.6137Zm121.307 5.4849c-2.045 0-3.938-.358-5.676-1.074-1.714-.716-3.222-1.7132-4.526-2.9918-1.305-1.2785-2.315-2.7616-3.031-4.4493-.716-1.7132-1.074-3.5543-1.074-5.5233 0-1.9945.358-3.8356 1.074-5.5233.716-1.6876 1.714-3.1579 2.992-4.4109 1.279-1.2786 2.775-2.263 4.488-2.9534 1.739-.716 3.631-1.074 5.677-1.074 2.02 0 3.886.358 5.6 1.074 1.738.6904 3.247 1.6748 4.526 2.9534 1.304 1.253 2.314 2.7361 3.03 4.4493.716 1.6877 1.074 3.5288 1.074 5.5233 0 1.9689-.358 3.81-1.074 5.5233-.716 1.6877-1.713 3.1708-2.992 4.4493-1.279 1.253-2.787 2.2374-4.526 2.9534-1.713.716-3.567 1.074-5.562 1.074Zm-.076-5.4849c1.611 0 3.017-.358 4.219-1.074 1.227-.716 2.173-1.7133 2.838-2.9918.665-1.3041.997-2.8.997-4.4877 0-1.2785-.191-2.4292-.575-3.452-.383-1.0484-.933-1.9434-1.649-2.685-.716-.7671-1.573-1.3424-2.57-1.726-.972-.4091-2.059-.6137-3.26-.6137-1.611 0-3.031.358-4.258 1.074-1.202.6904-2.135 1.6749-2.8 2.9534-.665 1.253-.997 2.7361-.997 4.4493 0 1.2786.192 2.442.575 3.4904.384 1.0484.921 1.9562 1.611 2.7233.716.7416 1.573 1.3169 2.57 1.7261.997.4091 2.097.6137 3.299.6137Z"/>
  <defs>
    <linearGradient id="c" x1="24.935" x2="15.8177" y1="78.3338" y2="-29.6034" gradientUnits="userSpaceOnUse">
      <stop stop-color="#7747E2"/>
      <stop offset=".713542" stop-color="#7CA5EF"/>
    </linearGradient>
    <linearGradient id="d" x1="25.8371" x2="63.3915" y1="74.7216" y2=".501122" gradientUnits="userSpaceOnUse">
      <stop stop-color="#7747E2"/>
      <stop offset="1" stop-color="#7CA5EF"/>
    </linearGradient>
    <linearGradient id="e" x1="9.99646" x2="35.0851" y1="73.1481" y2="-6.53802" gradientUnits="userSpaceOnUse">
      <stop offset=".0252051" stop-color="#7747E2"/>
      <stop offset="1" stop-color="#7CA5EF"/>
    </linearGradient>
    <linearGradient id="f" x1="25.0726" x2="15.5007" y1="67.5823" y2="8.3511" gradientUnits="userSpaceOnUse">
      <stop stop-color="#6F47E2"/>
      <stop offset="1" stop-color="#7CA5EF"/>
    </linearGradient>
    <clipPath id="a">
      <path fill="#fff" d="M0 .446289h56v56H0z"/>
    </clipPath>
    <clipPath id="b">
      <path fill="#fff" d="M0 .446289h56v56H0z"/>
    </clipPath>
  </defs>
</svg>
