<svg xmlns="http://www.w3.org/2000/svg" fill="none" viewBox="0 0 407 29">
  <path fill="#000" fill-rule="evenodd" d="M71.1622 27.7568 69.3025 23.46H58.8251l-1.905 4.2968h-6.1307L63.7463.0166016h.9072L77.4063 27.7568h-6.2441Zm-7.121-16.0562-3.3564 7.5532h6.7883l-3.2732-7.5532h-.1587ZM27.9086.617188h6.1685V23.0271h12.6243v4.7297H27.9086V.617188ZM.844971.607422V27.8124l.007567-.0076H7.05885v-8.7894h4.55075c2.9785 0 5.3824-.8668 7.242-2.6383 1.8596-1.779 2.8121-3.965 2.8121-6.64859 0-2.51772-.9071-4.65854-2.6911-6.43753C17.1961 1.51199 14.6259.607422 11.3148.607422H.844971ZM7.01349 14.4398V5.19058h3.26571c3.432 0 5.216 2.06544 5.216 4.66608 0 2.48004-1.4892 4.58314-5.2538 4.58314H7.01349ZM306.614.617188h6.168V23.0271h12.624v4.7297h-18.792V.617188ZM348.007 23.46l1.86 4.2968h6.244L343.358.0166016h-.907L329.494 27.7568h6.131l1.905-4.2968h10.477Zm-8.617-4.2062 3.356-7.5532h.159l3.273 7.5532h-6.788Zm-161.45 8.503-1.86-4.2968h-10.477l-1.905 4.2968h-6.131L170.524.0166016h.907L184.184 27.7568h-6.244Zm-7.121-16.0562-3.357 7.5532h6.789l-3.274-7.5532h-.158Zm-89.3305 16.056h6.1383V12.0923h.121L104.885 28.207h.869V.623723h-6.1303V15.7926h-.1663c-1.8672-1.8088-4.7247-4.3983-8.4893-7.76831-3.7722-3.41507-6.6297-6.04205-8.5724-7.9334697h-.9072V27.7566Zm49.8025-4.7313v4.7281H112V.587891h18.505V5.32343h-12.337v6.01337h11.052v4.5702h-11.052v7.1183h13.123Zm18.331-17.68675h7.945V.615234h-22.104V5.33855h7.991V27.7555h6.168V5.33855ZM199.324.607422c2.812 0 5.216.782238 7.159 2.391848 1.988 1.56447 2.978 3.74572 2.978 6.50612 0 3.12891-1.784 6.55121-5.465 8.23611l7.204 10.0111h-7.038l-7.204-11.0792v-.5792c4.309-.4964 6.418-3.0462 6.418-5.7238 0-3.12899-2.026-5.10715-5.216-5.10715h-3.727V27.7526h-6.169V.607422h11.06ZM215.51 27.8305h6.168V.587891h-6.168V27.8305ZM245.234.619141h6.124V16.8975c0 3.3154-.991 6.011-3.024 8.0943-2.026 2.046-4.929 3.069-8.693 3.069-7.741 0-11.718-4.2936-11.718-11.0439V.619141h6.169V16.9796c0 3.3975 1.943 6.0932 5.586 6.0932 3.644 0 5.549-2.5762 5.549-5.8916V.619141h.007Zm114.94-.013672V27.758h11.139c2.073 0 3.819-.3191 5.224-.9756 1.396-.6525 2.459-1.5509 3.168-2.7022l.001-.001c.703-1.1515 1.052-2.4459 1.052-3.8743 0-1.3913-.287-2.5998-.88-3.6104-.582-.9932-1.338-1.7688-2.268-2.3175-.612-.3702-1.246-.6301-1.9-.7778.552-.2044 1.069-.4686 1.551-.7928.749-.5049 1.346-1.162 1.788-1.9668l.001-.0014c.449-.82721.666-1.80788.666-2.9287 0-1.36798-.336-2.60282-1.014-3.69474-.675-1.09959-1.69-1.95473-3.025-2.57245-1.335-.630645-2.99-.936841-4.95-.936841h-10.553ZM374.631 17.8883l.001.0018c.355.5719.534 1.2155.534 1.94 0 .9542-.349 1.7207-1.053 2.3266-.68.5837-1.842.9131-3.569.9131h-4.856v-7.0739h4.987c.956 0 1.76.1774 2.423.5181l.003.0014c.668.3358 1.175.7937 1.53 1.3729Zm-.955-7.6349v.0009c-.344.5045-.82.901-1.437 1.1876-.618.2788-1.32.4216-2.111.4216h-4.44V5.24195h4.544c1.377 0 2.352.32119 2.986.90523l.002.00137c.655.59608.983 1.34756.983 2.28137 0 .71551-.18 1.31839-.527 1.82348Zm26.575-1.7812-.032-.3049c-.111-1.05129-.572-1.85137-1.385-2.42911l-.001-.00091c-.815-.58472-1.895-.89193-3.267-.89193-.967 0-1.777.14781-2.44.43091-.67.28621-1.164.66596-1.5 1.1304-.336.46392-.509.99226-.518 1.59616.001.50439.113.92393.324 1.27166.23.36404.542.6779.943.94072.416.2641.88.4887 1.392.6727.523.1879 1.05.3458 1.581.4739l.004.0009 2.48.6278c1.018.2401 1.998.5648 2.939.9741.958.4135 1.818.9363 2.578 1.5692.778.6414 1.394 1.4166 1.846 2.3229.459.92.682 1.9866.682 3.1898 0 1.6315-.413 3.0819-1.246 4.3388l-.001.001c-.834 1.2481-2.034 2.2162-3.584 2.9105-1.546.6877-3.403 1.0249-5.558 1.0249-2.095 0-3.932-.3284-5.5-.9962-1.563-.6689-2.798-1.651-3.691-2.9483l-.001-.0014c-.887-1.3016-1.359-2.8765-1.43-4.709l-.013-.3538h5.391l.023.3156c.065.8774.33 1.5849.779 2.1418.459.5691 1.059.9975 1.808 1.2833.767.2888 1.63.4361 2.595.4361 1.01 0 1.878-.152 2.614-.4466.748-.3046 1.317-.7172 1.722-1.2299.399-.5129.604-1.1103.613-1.8059-.009-.629-.189-1.1218-.524-1.5044l-.002-.0024c-.354-.4135-.863-.7702-1.543-1.0607l-.005-.0019c-.686-.3049-1.495-.5786-2.429-.8194l-3.014-.7858c-2.219-.5771-3.998-1.4579-5.317-2.657l-.002-.0017c-1.337-1.2336-1.997-2.8697-1.997-4.87235 0-1.64444.441-3.09838 1.33-4.34811l.001-.00133c.892-1.24052 2.101-2.19778 3.616-2.87452 1.516-.685959 3.224-1.0250556 5.118-1.0250556 1.919 0 3.617.3386556 5.084 1.0268156 1.472.67738 2.637 1.62678 3.486 2.85093.851 1.22016 1.288 2.62235 1.315 4.19523l.006.34649h-5.27ZM272.193 22.7356h.009l-.015.0075.006-.0075Zm-.906 0h.906l7.447-8.2741c.083 0 .129 0 .167.0376v13.2612h5.964V.117188h-.869L271.741 15.319 258.534.117188h-.907V27.7527h5.919V14.4916c.038 0 .083 0 .121-.0376l7.62 8.2816Z" clip-rule="evenodd"/>
</svg>
