<svg xmlns="http://www.w3.org/2000/svg" fill="none" viewBox="0 0 290 163">
  <path fill="#000" fill-rule="evenodd" d="M88.7708 57.9755c-.4161-.2191-.8322-.4499-1.2368-.7037l.0116.0116-2.4388-1.4767c-.0232-.023-.0463-.0346-.0694-.0461C87.6959 25.0857 113.483 1.02112 144.876.998047c4.23 0 8.356.438373 12.332 1.268983.128 1.19977.243 2.41108.324 3.62238.231 3.3109.324 6.65639.278 9.99039-.105 6.6679-.74 13.3474-2.069 19.8769-1.318 6.5296-3.306 12.9322-6.08 18.9772-1.387 3.0225-2.971 5.9642-4.762 8.7675-1.792 2.8033-3.791 5.4797-5.976 8.0061-1.375 1.592-2.843 3.1148-4.358 4.5799l-.196-.0456v-.0001c-.63-.1465-1.268-.2947-1.896-.4619l-5.548-1.5458-1.387-.3922-1.364-.4384-2.727-.8883c-.399-.131-.798-.2598-1.196-.3884l-.002-.0005c-1.425-.4603-2.844-.9186-4.235-1.4685l-5.375-1.9957-5.27-2.2265c-.369-.1618-.741-.3194-1.114-.4773l-.001-.0004-.001-.0002c-.504-.2134-1.01-.4273-1.508-.6527l-2.578-1.2343c-.5698-.2769-1.1426-.5487-1.7154-.8204-1.1455-.5435-2.2911-1.087-3.4161-1.6715l-5.0164-2.7225-1.2483-.6807Zm77.8222-41.6687c-.543 7.1409-1.664 14.2473-3.513 21.1921-1.838 6.9333-4.404 13.705-7.791 20.05-1.699 3.1724-3.594 6.2411-5.71 9.1482-2.115 2.9071-4.438 5.6643-6.946 8.2254-.832.8536-1.699 1.6843-2.566 2.4918.277.0692.555.1269.844.1846l2.831.5652c.583.1106 1.166.2278 1.749.3452 1.303.2621 2.609.5249 3.927.7162 4.889.8652 9.813 1.5112 14.771 2.0073.601-.3923 1.202-.796 1.792-1.2113 3.098-2.1804 6.126-4.4761 8.888-7.0602 2.763-2.561 5.329-5.2836 7.583-8.2715 2.219-2.9994 4.161-6.2065 5.721-9.6212 4.346-9.4828 5.525-20.3961 4.022-31.0787-6.542-8.3176-15.245-14.85863-25.255-18.79249v.36916c.035 3.59931-.081 7.17553-.347 10.75173v-.0115Zm-56.451 75.2736c.277-.114.556-.2251.835-.3364.512-.204 1.026-.4087 1.534-.6326l2.324-1.0613c3.063-1.4767 6.068-3.0571 8.911-4.9029 1.815-1.1767 3.583-2.4227 5.294-3.7378l-3.676-.8191-1.444-.323-1.434-.3807-2.866-.7614c-.259-.0684-.518-.1365-.776-.2045l-.003-.0005c-1.658-.4361-3.313-.8713-4.943-1.41l-5.686-1.7766-5.606-2.0188c-.35-.1292-.699-.2551-1.047-.3807-.586-.2113-1.171-.4219-1.7504-.6461l-2.7509-1.1421c-.5888-.2476-1.1787-.4916-1.7682-.7355-1.2509-.5175-2.5003-1.0344-3.7337-1.5833l-5.4093-2.561-1.1328-.5422c.8554 11.294 4.8546 21.7112 11.1077 30.3865 3.1208-.7499 6.2066-1.6151 9.2466-2.6303.471-.1723.943-.3397 1.416-.507l.001-.0004v-.0002h.001v-.0002c1.14-.4038 2.28-.8075 3.391-1.2803l-.035-.0116Zm32.687-8.1905-2.936-.4269c-.592-.0834-1.176-.192-1.759-.3005v-.0001h-.001v-.0001l-.001-.0001v-.0001l-.001-.0001-.001-.0001v-.0001c-.383-.0713-.766-.1425-1.15-.2064-.683-.1304-1.375-.252-2.061-.3726l-.308-.0542c-2.855 2.1457-5.849 4.0954-8.947 5.8258-3.086 1.7535-6.322 3.2186-9.582 4.5453l-2.473.9459c-.517.1961-1.043.3694-1.569.5428-.31.102-.62.2041-.928.3109-1.12.3988-2.267.7286-3.411 1.0579h-.001c-.544.1565-1.087.3129-1.627.4764-2.878.773-5.78 1.419-8.6923 1.9497.5202.6806 1.0634 1.3382 1.6182 1.9957h.0014c.6815-.0346 1.3627-.0692 2.0327-.1038 1.919-.1269 3.826-.2653 5.745-.4268.927-.0669 1.843-.1661 2.769-.2664l.001-.0001.096-.0104c.177-.017.354-.0337.531-.0503.779-.0734 1.551-.1462 2.324-.2496 15.223-1.6959 30.26-5.6874 43.737-12.7245.374-.1906.742-.3932 1.108-.5948l.086-.0473.166-.0912c.059-.0326.118-.065.178-.0973-3.029-.2192-6.057-.5076-9.074-.8768-1.373-.129-2.736-.3257-4.103-.5231-.588-.0849-1.177-.17-1.768-.2498v.0231Zm28.978 2.2496h.451l.011.023c7.86.0808 15.708-.2192 23.51-.8883 1.514-.1269 3.017-.2768 4.52-.4383-9.12 21.5381-30.48 36.6621-55.389 36.6621-13.511 0-25.971-4.441-36.004-11.952 1.595-.138 3.19-.288 4.785-.484 4.069-.461 8.114-1.223 12.136-2.077 4.023-.853 8.01-1.926 11.929-3.172 1.763-.549 3.507-1.171 5.249-1.793l.599-.214c.384-.15.768-.299 1.152-.447 1.537-.595 3.074-1.1891 4.581-1.8721 1.455-.6071 2.876-1.2948 4.294-1.9811l.001-.0003c.441-.2134.881-.4267 1.323-.6373.331-.1747.662-.3482.993-.5216l.001-.0001v-.0006l.001-.0002c1.504-.7881 3.002-1.5726 4.46-2.4423 3.583-2.0766 7.039-4.3608 10.322-6.9103.358-.2764.716-.5644 1.073-.8524l.001-.0003.001-.0009Zm24.642-40.5266c-.509 4.1069-1.491 8.1907-2.925 12.1131-1.433 3.9338-3.317 7.7177-5.605 11.2363-2.301 3.507-4.982 6.7717-7.883 9.7596-1.283 1.3497-2.636 2.6303-4.011 3.8646 6.519.3231 13.073.3808 19.615.1616 1.861-.0577 3.721-.15 5.582-.2538 2.451-6.5411 3.792-13.6128 3.792-21.0075 0-11.444-3.214-22.1265-8.773-31.2286.15 1.0036.266 2.0073.346 3.0225.382 4.0723.37 8.2138-.115 12.3207l-.023.0115ZM23.7371 142.429h-4.406v19.385h13.4234v-3.378h-9.0174v-16.007Zm26.4892 19.386-1.3283-3.07h-7.4839l-1.3607 3.07h-4.3791L44.9293 142h.6479l9.1092 19.815h-4.4601Zm-5.0865-11.469-2.3974 5.395h4.8489l-2.3381-5.395h-.1134ZM0 142.422v19.432l.00540489-.005H4.43848v-6.278h3.25057c2.12745 0 3.84455-.62 5.17285-1.885 1.3283-1.271 2.0086-2.832 2.0086-4.749 0-1.798-.6479-3.327-1.9222-4.598-1.2689-1.271-3.1048-1.917-5.46983-1.917H0Zm4.40609 9.88v-6.606h2.33263c2.45143 0 3.72578 1.475 3.72578 3.333 0 1.771-1.06377 3.273-3.75278 3.273H4.40609Zm213.99991-9.873h4.406v16.007h9.018v3.378h-13.424v-19.385Zm29.567 16.316 1.328 3.07h4.461L244.652 142h-.648l-9.254 19.815h4.379l1.36-3.07h7.484Zm-6.155-3.004 2.397-5.395h.113l2.338 5.395h-4.848Zm-115.322 6.074-1.328-3.07h-7.484l-1.361 3.07h-4.379L121.199 142h.648l9.109 19.815h-4.46Zm-5.086-11.469-2.398 5.395h4.849l-2.338-5.395h-.113Zm-63.8075 11.468h4.3845v-11.189h.0864l12.2409 11.511h.621v-19.702h-4.3791v10.834h-.1188c-1.3337-1.292-3.3747-3.141-6.0638-5.548-2.6944-2.44-4.7354-4.316-6.1231-5.667h-.648v19.761Zm35.5733-3.379v3.377H79.396v-19.404h13.2183v3.383h-8.8122v4.295h7.8942v3.265h-7.8942v5.084h9.3737Zm13.0932-12.633h5.675v-3.374H96.1558v3.374h5.7072v16.012h4.406v-16.012Zm35.502-3.38c2.008 0 3.725.559 5.113 1.708 1.42 1.118 2.128 2.676 2.128 4.648 0 2.235-1.275 4.679-3.904 5.883l5.146 7.15h-5.028l-5.145-7.913v-.414c3.077-.355 4.584-2.176 4.584-4.088 0-2.235-1.447-3.648-3.726-3.648h-2.662v16.063h-4.406v-19.389h7.9Zm11.561 19.445h4.406v-19.459h-4.406v19.459Zm21.232-19.436h4.374v11.627c0 2.368-.708 4.294-2.16 5.782-1.447 1.461-3.521 2.192-6.21 2.192-5.529 0-8.369-3.067-8.369-7.889v-11.712h4.406v11.686c0 2.427 1.388 4.352 3.99 4.352 2.603 0 3.963-1.84 3.963-4.208v-11.83h.006Zm82.1-.01v19.395h7.956c1.481 0 2.728-.228 3.732-.697.997-.466 1.756-1.109 2.263-1.931.502-.823.752-1.747.752-2.767 0-.994-.206-1.857-.629-2.579-.416-.71-.956-1.264-1.62-1.656-.437-.264-.89-.45-1.358-.555.395-.146.765-.335 1.108-.566.536-.361.962-.83 1.278-1.405v-.001c.321-.591.476-1.292.476-2.092 0-.977-.24-1.859-.724-2.639-.482-.786-1.207-1.397-2.16-1.838-.954-.45-2.137-.669-3.537-.669h-7.537Zm10.326 12.345v.001c.254.409.383.868.383 1.386 0 .681-.25 1.229-.753 1.662-.486.417-1.316.652-2.549.652h-3.469v-5.053h3.562c.684 0 1.258.127 1.731.37l.002.001c.478.24.839.567 1.093.981Zm-.306-6.756c0 .511-.128.942-.376 1.302-.246.361-.586.645-1.026.849-.442.199-.944.301-1.509.301h-3.171v-4.729h3.246c.983 0 1.68.229 2.133.646l.001.001c.468.426.702.963.702 1.63Zm18.606.03-.023-.217c-.079-.751-.409-1.323-.989-1.735l-.001-.001c-.582-.418-1.353-.637-2.334-.637-.69 0-1.269.105-1.743.308-.478.204-.831.475-1.071.807-.24.331-.364.709-.37 1.14.001.36.081.66.232.908.164.26.387.485.673.672.297.189.628.349.994.481.374.134.75.247 1.13.338l.002.001 1.772.448c.727.172 1.427.404 2.099.696.685.296 1.299.669 1.841 1.121.556.458.996 1.012 1.319 1.659.328.657.488 1.419.488 2.279 0 1.165-.295 2.201-.891 3.099-.596.891-1.453 1.584-2.56 2.08-1.105.491-2.431.732-3.97.732-1.497 0-2.809-.235-3.929-.712-1.116-.478-1.998-1.179-2.636-2.106l-.001-.001c-.634-.93-.97-2.055-1.021-3.363l-.01-.253h3.851l.016.225c.047.627.236 1.132.557 1.53.328.406.756.712 1.291.917.548.206 1.165.311 1.854.311.721 0 1.342-.108 1.867-.319.534-.217.94-.512 1.23-.878.285-.367.432-.793.438-1.29-.006-.449-.136-.801-.374-1.075l-.002-.001c-.253-.296-.616-.551-1.102-.758l-.004-.001c-.489-.218-1.067-.414-1.735-.586l-2.153-.561c-1.584-.412-2.855-1.041-3.797-1.898l-.002-.001c-.955-.881-1.427-2.05-1.427-3.48 0-1.175.315-2.213.951-3.106v-.001c.638-.886 1.501-1.57 2.583-2.053 1.083-.49 2.303-.733 3.656-.733 1.371 0 2.584.242 3.632.734 1.051.484 1.883 1.162 2.489 2.036.609.872.921 1.873.94 2.997l.004.247h-3.764Zm-91.47 10.188h.006l-.01.006.004-.006Zm-.647 0h.647l5.32-5.91c.059 0 .091 0 .118.027v9.472h4.261v-19.745h-.621l-9.401 10.859-9.433-10.859h-.648v19.74h4.228v-9.472c.027 0 .059 0 .086-.027l5.443 5.915Z" clip-rule="evenodd"/>
</svg>
