<svg xmlns="http://www.w3.org/2000/svg" width="407" height="29" fill="none" viewBox="0 0 407 29">
  <path fill="currentColor" d="M27.9086.617188h6.1685V23.0271h12.6243v4.7297H27.9086V.617188ZM71.1622 27.7568 69.3025 23.46H58.8251l-1.905 4.2968h-6.1307L63.7463.0166016h.9072L77.4063 27.7568h-6.2517.0076Zm-7.121-16.0562-3.3564 7.5532h6.7883l-3.2732-7.5532h-.1663.0076ZM.844971 27.8124V.607422H11.3148c3.3111 0 5.8813.904568 7.6578 2.683558 1.784 1.77899 2.6911 3.91981 2.6911 6.43753 0 2.68359-.9525 4.86959-2.8121 6.64859-1.8596 1.7715-4.2635 2.6383-7.242 2.6383H7.05885v8.7894H.852538l-.007567.0076ZM7.01349 5.19058v9.24922h3.22791c3.7646 0 5.2538-2.1031 5.2538-4.58314 0-2.60064-1.784-4.66608-5.216-4.66608H7.00594h.00755ZM306.614.617188h6.168V23.0271h12.624v4.7297h-18.792V.617188ZM349.867 27.7568l-1.86-4.2968H337.53l-1.905 4.2968h-6.131L342.451.0166016h.907L356.111 27.7568h-6.251.007Zm-7.121-16.0562-3.356 7.5532h6.788l-3.273-7.5532h-.166.007ZM177.94 27.7568l-1.86-4.2968h-10.477l-1.905 4.2968h-6.131L170.524.0166016h.907L184.184 27.7568h-6.252.008Zm-7.121-16.0562-3.357 7.5532h6.789l-3.274-7.5532h-.166.008Zm-83.2073 16.056h-6.1232V.0908203h.9072C84.3384 1.98224 87.1959 4.60922 90.9681 8.02429c3.7646 3.37001 6.6221 5.95951 8.4893 7.76831h.1663V.623723h6.1303V28.207h-.869L87.7478 12.0923h-.121v15.6643h-.0151Zm43.6793-4.7388v4.7356H112V.587891h18.505V5.32343h-12.337v6.01337h11.052v4.5702h-11.052v7.1183h13.123v-.0075Zm26.276-17.67925h-7.945V27.7555h-6.168V5.33855h-7.991V.615234h22.104V5.33855ZM199.324.607422c2.812 0 5.216.782238 7.159 2.391848 1.988 1.56447 2.978 3.74572 2.978 6.50612 0 3.12891-1.784 6.55121-5.465 8.23611l7.204 10.0111h-7.038l-7.204-11.0792v-.5792c4.309-.4964 6.418-3.0462 6.418-5.7238 0-3.12899-2.026-5.10715-5.216-5.10715h-3.727V27.7526h-6.169V.607422h11.06ZM221.678 27.8305h-6.168V.587891h6.168V27.8305ZM245.234.619141h6.124V16.8975c0 3.3154-.991 6.011-3.024 8.0943-2.026 2.046-4.929 3.069-8.694 3.069-7.74 0-11.717-4.2936-11.717-11.0439V.619141h6.169V16.9796c0 3.3975 1.943 6.0932 5.586 6.0932 3.644 0 5.549-2.5762 5.549-5.8916V.619141h.007Z"/>
  <path fill="currentColor" stroke="#000" stroke-width=".340658" d="M360.344 27.4175v.1703h10.969c2.057 0 3.777-.3168 5.152-.9596 1.371-.6407 2.406-1.5186 3.095-2.6371v-.0005c.686-1.123 1.028-2.3863 1.028-3.7855 0-1.3678-.283-2.545-.857-3.5243-.569-.9705-1.305-1.7245-2.209-2.2574-.812-.4913-1.66-.7822-2.543-.8701.798-.2146 1.527-.5438 2.186-.988.727-.4894 1.305-1.126 1.735-1.9076v-.0007c.433-.79703.646-1.74837.646-2.84733 0-1.33887-.329-2.54224-.989-3.60521-.654-1.06683-1.642-1.90157-2.952-2.50771-1.306-.6169-2.934-.92079-4.878-.92079h-10.383V27.4175Zm14.432-9.618v.0009c.373.6004.561 1.2755.561 2.0299 0 1.0027-.37 1.8168-1.113 2.4558-.726.6236-1.939.9542-3.68.9542h-5.027v-7.4146h5.158c.977 0 1.809.1814 2.501.537l.001.0007c.695.3488 1.226.8277 1.599 1.4361Zm-.959-7.4495-.001.0005c-.363.5323-.863.9481-1.506 1.2465-.643.2902-1.37.437-2.182.437h-4.611V5.07178h4.715c1.4 0 2.424.32647 3.102.95025l.001.00068c.692.62979 1.038 1.42776 1.038 2.40737 0 .74552-.187 1.38302-.556 1.91992Zm26.571-2.20042.016.15245h4.944l-.003-.17324c-.027-1.54149-.454-2.91034-1.285-4.10089-.829-1.19692-1.971-2.1277-3.418-2.79372-1.44-.675779-3.112-1.010954-5.012-1.010954-1.874 0-3.558.335396-5.048 1.010074-1.491.6657-2.675 1.60478-3.548 2.8186v.00067c-.867 1.21843-1.299 2.63716-1.299 4.24935 0 1.96148.645 3.54988 1.943 4.74718l.001.0008c1.293 1.1757 3.045 2.046 5.244 2.6182l3.014.7856v.0001c.942.2426 1.76.5191 2.456.8287l.003.001c.698.298 1.23.6683 1.606 1.1064l.001.0012c.365.4182.557.9527.565 1.6164-.008.7319-.225 1.3666-.649 1.9111-.427.54-1.021.9689-1.792 1.2827-.76.3044-1.651.459-2.678.459-.982 0-1.867-.1501-2.655-.4472-.776-.2957-1.401-.7412-1.881-1.3356-.474-.5883-.749-1.3305-.816-2.2362l-.012-.1578h-5.055l.007.1769c.07 1.8066.534 3.3491 1.4 4.6196v.0007c.874 1.2684 2.082 2.2307 3.617 2.8881l.001.0002c1.543.6568 3.355.9825 5.433.9825 2.138 0 3.969-.3343 5.488-1.0098v-.0002c1.525-.6832 2.699-1.6321 3.512-2.8497l.001-.0004c.813-1.2265 1.218-2.6434 1.218-4.2448 0-1.182-.22-2.2216-.665-3.1137-.441-.8852-1.042-1.6416-1.802-2.2678-.746-.622-1.592-1.1365-2.537-1.544-.932-.4055-1.902-.7271-2.911-.965l-2.482-.6281-.002-.0005c-.537-.1295-1.07-.2892-1.599-.4792-.523-.188-.998-.4181-1.426-.6898-.42-.2754-.751-.60695-.995-.9941-.231-.37898-.35-.83098-.35-1.36256.009-.638.192-1.20112.55-1.69494.358-.49408.878-.89127 1.571-1.18713.689-.2943 1.523-.44459 2.507-.44459 1.397 0 2.515.31291 3.366.92388l.001.00045c.855.60747 1.339 1.45269 1.455 2.55007Z"/>
  <path fill="currentColor" d="M272.202 22.7356h-.915l-7.62-8.2816c-.038.0376-.083.0376-.121.0376v13.2611h-5.919V.117188h.907L271.741 15.319 284.902.117188h.869V27.7603h-5.964V14.4991c-.038-.0376-.084-.0376-.167-.0376l-7.453 8.2816.015-.0075Z"/>
</svg>
