<svg xmlns="http://www.w3.org/2000/svg" fill="none" viewBox="0 0 121 121">
  <g clip-path="url(#clip0_1785_5947)">
    <path fill="#000" fill-rule="evenodd" d="M3.11675 56.9476c.40454.2538.82065.4845 1.23675.7037l1.24832.6807 5.01638 2.7225c1.125.5845 2.2705 1.128 3.4161 1.6714.5728.2718 1.1456.5436 1.7158.8204l2.5776 1.2344c.498.2254 1.0037.4393 1.5082.6527h.0001l.0001.0001.0002.0001.0006.0002.0003.0002c.3732.1578.7458.3155 1.1143.4773l5.2706 2.2265 5.3747 1.9957c1.3907.5498 2.8097 1.0081 4.2348 1.4684l.0003.0001.0021.0006.0021.0007c.3974.1284.7953.2569 1.1932.3876l2.7278.8883 1.3639.4383 1.387.3923 5.5481 1.5458c.6267.1668 1.2628.3148 1.8914.461l.0014.0003.0025.0005.0003.0001.1964.0457c1.5142-1.4651 2.9821-2.9879 4.3576-4.5799 2.1845-2.5264 4.1841-5.2028 5.9757-8.0061 1.7916-2.8033 3.3751-5.7451 4.7621-8.7676 2.774-6.0449 4.7621-12.4476 6.0798-18.9771 1.3292-6.5295 1.9649-13.209 2.0689-19.8769.0463-3.334-.0462-6.67951-.2774-9.99041-.0809-1.2113-.1965-2.42261-.3236-3.62238-3.9761-.8306-8.1025-1.268982-12.3329-1.268982C29.0655.696901 3.27856 24.7615.620117 55.4364c.023117.0115.046234.023.069351.0461L3.1283 56.9591l-.01155-.0115ZM78.6623 37.1745c1.8494-6.9448 2.9706-14.0511 3.5138-21.1921v.0116c.2658-3.5763.3814-7.15249.3468-10.75179v-.36916C92.5325 8.80691 101.236 15.348 107.778 23.6656c1.503 10.6825.324 21.5958-4.022 31.0786-1.561 3.4147-3.502 6.6218-5.7217 9.6212-2.2539 2.9879-4.8199 5.7105-7.5823 8.2715-2.7625 2.5842-5.7908 4.8799-8.8885 7.0602-.5895.4153-1.1905.8191-1.7916 1.2113-4.9585-.496-9.8825-1.1421-14.7717-2.0073-1.3174-.1912-2.6238-.4541-3.9267-.7162-.5833-.1173-1.1659-.2345-1.7485-.3451l-2.8318-.5653c-.289-.0577-.5664-.1154-.8438-.1846.8669-.8075 1.7338-1.6381 2.566-2.4918 2.5082-2.5611 4.8314-5.3182 6.9466-8.2253 2.1152-2.9072 4.0108-5.9758 5.7099-9.1483 3.3866-6.3449 5.9526-13.1167 7.7904-20.05ZM26.5602 90.9199c-.2792.1113-.558.2224-.8354.3364l.0347.0116c-1.1112.4729-2.2512.8767-3.3915 1.2806l-.0004.0002-.0008.0002-.0006.0002-.0005.0002-.0006.0003c-.472.1671-.944.3343-1.414.5064-3.0398 1.0152-6.1259 1.8804-9.2467 2.6303C5.45124 87.011 1.45201 76.5938.59668 65.2998l1.13273.5422 5.40936 2.5611c1.23335.5488 2.48273 1.0657 3.73363 1.5832l.0036.0015c.5884.2434 1.1771.4869 1.7646.734l2.7509 1.1421c.5794.2241 1.1634.4346 1.749.6457l.0009.0003.0007.0003.0007.0003h.0002c.3481.1255.6969.2512 1.0457.3802l5.6058 2.0188 5.6868 1.7766c1.6291.5386 3.2841.9738 4.9426 1.4098l.0004.0002.0123.0032.012.0031c.2513.0661.5027.1322.7541.1987l2.8665.7614 1.4333.3807 1.4448.3231 3.6756.819c-1.7107 1.3152-3.4791 2.5611-5.2938 3.7378-2.8434 1.8458-5.8486 3.4262-8.9116 4.9029l-2.3232 1.0613c-.5086.224-1.0221.4286-1.5341.6326Zm28.9157-8.2814 2.9359.4269v-.0231c.5912.0798 1.1804.1649 1.7687.2498l.0001.0001c1.3668.1973 2.7292.394 4.1029.523 3.0167.3692 6.045.6576 9.0734.8768-.1425.0775-.2849.156-.4276.2346l-.0026.0014c-.3659.2016-.7335.404-1.1071.5946-13.4772 7.0371-28.5148 11.0286-43.7373 12.7245-.7728.1034-1.5456.1762-2.3246.2496-.1764.0166-.3532.0333-.5303.0503l-.0964.0104c-.9265.1004-1.8429.1996-2.7701.2665-1.9187.1615-3.8259.2999-5.7446.4268-.6703.0346-1.3523.0692-2.0342.1038-.5549-.6575-1.0981-1.3151-1.6182-1.9957 2.9127-.5307 5.8139-1.1767 8.6919-1.9497.5401-.1635 1.0837-.3199 1.6278-.4764h.0002l.0002-.0001c1.1445-.3292 2.2912-.659 3.4113-1.0578.3078-.1066.6171-.2085.9262-.3104l.0008-.0002.0008-.0003c.5264-.1734 1.0522-.3467 1.5689-.5428l2.4735-.9459c3.2595-1.3267 6.4958-2.7918 9.5819-4.5453 3.0977-1.7304 6.0913-3.6801 8.9463-5.8258l.3086.0543c.6856.1205 1.3776.2422 2.0609.3725.3846.064.7673.1352 1.1505.2065l.0005.0001.0005.0001.0003.0001c.5836.1086 1.168.2173 1.7609.3008Zm32.3653 2.6768h-.4507l-.0006.0005c-.3581.2882-.7163.5765-1.0744.8532-3.2826 2.5495-6.7386 4.8337-10.3217 6.9102-1.4587.8697-2.9562 1.6543-4.4606 2.4425h-.0002c-.3314.1736-.6631.3474-.9948.5223-.4413.2107-.882.424-1.323.6374-1.4184.6864-2.8396 1.3741-4.2944 1.9813-1.5071.6829-3.0439 1.2773-4.5806 1.8713h-.0003c-.3842.149-.7684.298-1.1521.448l-.5999.214c-1.7421.622-3.4861 1.244-5.2487 1.793-3.9183 1.246-7.906 2.319-11.9283 3.172-4.0224.854-8.0679 1.615-12.1364 2.077-1.5951.196-3.1902.346-4.7852.484 10.0327 7.51 22.4927 11.952 36.0046 11.952 24.9085 0 46.2681-15.124 55.3881-36.6623-1.503.1615-3.005.3115-4.519.4384-7.802.6691-15.6505.969-23.5102.8883l-.0116-.0231Zm21.2668-28.4139c1.433-3.9223 2.416-8.0062 2.924-12.1131l.023-.0115c.486-4.1069.497-8.2484.116-12.3207-.081-1.0152-.197-2.0189-.347-3.0225 5.56 9.1021 8.773 19.7846 8.773 31.2286 0 7.3947-1.341 14.4664-3.791 21.0075-1.861.1038-3.722.1961-5.583.2538-6.542.2192-13.0956.1615-19.6146-.1615 1.3755-1.2344 2.7278-2.5149 4.0108-3.8647 2.9012-2.9879 5.5828-6.2526 7.8828-9.7596 2.289-3.5186 4.173-7.3025 5.606-11.2363Z" clip-rule="evenodd"/>
  </g>
  <defs>
    <clipPath id="clip0_1785_5947">
      <path fill="#fff" d="M0 0h121v121H0z"/>
    </clipPath>
  </defs>
</svg>
