<svg xmlns="http://www.w3.org/2000/svg" width="482" height="57" fill="none" viewBox="0 0 482 57">
  <g clip-path="url(#a)">
    <path fill="#00A99D" d="M38.0705 7.16095c-.2535 3.33245-.7767 6.64875-1.6397 9.88965-.8577 3.2355-2.0551 6.3957-3.6356 9.3566-.7929 1.4805-1.6775 2.9126-2.6646 4.2692-.9871 1.3567-2.0712 2.6434-3.2417 3.8385-.3884.3984-.7929.786-1.1975 1.1629.1295.0323.2589.0592.3938.0861l1.3215.2638c.8792.1669 1.7584.3661 2.6484.4953 2.2817.4038 4.5795.7052 6.8935.9367.2805-.183.561-.3714.836-.5652 1.4456-1.0175 2.8588-2.0889 4.148-3.2948 1.2891-1.1951 2.4866-2.4657 3.5384-3.86 1.0357-1.3998 1.9419-2.8964 2.67-4.4899 2.0282-4.4253 2.5783-9.5182 1.8771-14.5034-3.0529-3.88155-7.1146-6.93404-11.7858-8.76984v.17228c.0162 1.67967-.0377 3.34858-.1618 5.01749v-.00538Z"/>
    <path fill="#00D1C2" d="M11.7264 42.2888c.3668-.1507.739-.2907 1.1058-.4522l1.0842-.4953c1.4294-.6891 2.8318-1.4266 4.1587-2.288.8469-.5491 1.6722-1.1306 2.4705-1.7443l-1.7153-.3822-.6743-.1508-.6688-.1776-1.3377-.3553c-.8954-.2369-1.7908-.463-2.67-.7537l-2.6538-.8291-2.61611-.9421c-.43691-.1615-.87382-.3123-1.30533-.4792l-1.28376-.5329c-.85764-.3607-1.72067-.7053-2.56752-1.0821L.528607 30.4288 0 30.1758c.399152 5.2705 2.26546 10.1319 5.18359 14.1803 1.45636-.3499 2.89655-.7537 4.31516-1.2274.74975-.2746 1.51035-.5222 2.24385-.8345l-.0162-.0054ZM1.17626 26.2777c.18879.1184.38297.2261.57716.3284l.58254.3176 2.34098 1.2706c.78751.4091 1.59661.7752 2.39491 1.1628l1.20285.5761c.40455.183.81988.3499 1.22443.5275l2.45967 1.0391 2.5082.9313c.8306.3284 1.6829.5868 2.5351.8668l1.273.4145.6365.2046.6473.183 2.589.7214c.3237.0862.6527.1615.9764.2369.7066-.6837 1.3916-1.3943 2.0335-2.1373 1.0194-1.179 1.9526-2.428 2.7886-3.7362.8361-1.3082 1.5751-2.681 2.2224-4.0915 1.2945-2.821 2.2223-5.8089 2.8372-8.856.6203-3.0471.9169-6.1642.9655-9.27588.0216-1.55586-.0216-3.11709-.1295-4.66218-.0377-.56528-.0917-1.13055-.151-1.690445-1.8555-.387617-3.7812-.5921934-5.7553-.5921934C13.2857.0273687 1.25178 11.2575.0111694 25.5725c.0107879.0053.0215758.0107.0323637.0215l1.1381269.6891-.0054-.0054Z"/>
    <path fill="#00A99D" d="m26.9803 38.4663-1.3701-.1992c-.4585-.0646-.9062-.1615-1.3593-.2369-.3668-.0699-.739-.1345-1.1057-.1991-1.3323 1.0013-2.7294 1.9111-4.175 2.7187-1.4401.8183-2.9505 1.502-4.4715 2.1211l-1.1544.4414c-.3829.1454-.7767.2638-1.165.3984-.7714.2746-1.5697.4792-2.35181.716-1.34309.3607-2.69697.6622-4.05625.9099.24273.3176.49624.6245.75515.9313.31825-.0161.63649-.0323.94934-.0484.8954-.0592 1.7854-.1238 2.68077-.1992.4477-.0323.89-.0808 1.3377-.1292.4477-.0431.89-.0808 1.3323-.14 7.1039-.7914 14.1214-2.6541 20.4107-5.9381.2428-.1238.4801-.2584.7174-.3876-1.4132-.1023-2.8264-.2369-4.2342-.4091-.917-.0862-1.8232-.2369-2.7401-.3608v.0108Z"/>
    <path fill="#007A8F" d="M40.7139 39.5156h-.2103c-.1673.1346-.3345.2691-.5017.3984-1.5319 1.1897-3.1447 2.2557-4.8168 3.2247-.8307.4953-1.6883.9314-2.5459 1.3836-.8685.4145-1.7315.8506-2.6215 1.2221-.8792.3984-1.78.7321-2.6754 1.0821-.9062.323-1.8124.6514-2.7293.9367-1.8286.5814-3.6895 1.0821-5.5666 1.4805-1.8771.3984-3.765.7537-5.6636.969-.7444.0916-1.4888.1615-2.2331.2262 4.6819 3.5047 10.4966 5.5773 16.8021 5.5773 11.624 0 21.592-7.0578 25.8478-17.109-.7012.0754-1.4024.1454-2.109.2046-3.6409.3122-7.3034.4522-10.9713.4145l-.0054-.0107ZM52.003 20.603c-.2373 1.9166-.6958 3.8224-1.3646 5.6528-.6689 1.8358-1.5481 3.6016-2.6161 5.2436-1.0734 1.6366-2.3248 3.1602-3.6787 4.5545-.5987.6299-1.2298 1.2275-1.8717 1.8035 3.0422.1508 6.1006.1777 9.1536.0754.8684-.0269 1.7368-.07 2.6052-.1185C55.3743 34.7619 56 31.4617 56 28.0108c0-5.3405-1.4996-10.3257-4.0941-14.5733.0702.4684.1241.9367.1619 1.4105.178 1.9004.1726 3.8331-.054 5.7497l-.0108.0053Z"/>
  </g>
  <path fill="currentColor" d="M103.064 14.6172h6.168v22.4099h12.624v4.7297h-18.792V14.6172Zm43.253 27.1396-1.859-4.2968H133.98l-1.905 4.2968h-6.131l12.957-27.7402h.908l12.752 27.7402h-6.251.007Zm-7.121-16.0562-3.356 7.5532h6.788l-3.273-7.5532h-.166.007ZM75.9999 41.8124v-27.205h10.4699c3.311 0 5.8813.9046 7.6577 2.6836 1.7841 1.779 2.6912 3.9198 2.6912 6.4375 0 2.6836-.9525 4.8696-2.8121 6.6486-1.8596 1.7715-4.2636 2.6383-7.242 2.6383h-4.5508v8.7894h-6.2063l-.0076.0076Zm6.1686-22.6218v9.2492h3.2279c3.7646 0 5.2538-2.1031 5.2538-4.5831 0-2.6007-1.7841-4.6661-5.216-4.6661h-3.2733.0076Zm299.6005-4.5734h6.168v22.4099h12.624v4.7297h-18.792V14.6172Zm43.253 27.1396-1.86-4.2968h-10.477l-1.905 4.2968h-6.131l12.957-27.7402h.907l12.753 27.7402h-6.251.007Zm-7.121-16.0562-3.356 7.5532h6.788l-3.273-7.5532h-.166.007ZM253.095 41.7568l-1.86-4.2968h-10.477l-1.905 4.2968h-6.131l12.957-27.7402h.907l12.753 27.7402h-6.252.008Zm-7.121-16.0562-3.357 7.5532h6.789l-3.274-7.5532h-.166.008Zm-83.207 16.056h-6.124V14.0908h.908c1.942 1.8914 4.8 4.5184 8.572 7.9335 3.765 3.37 6.622 5.9595 8.489 7.7683h.167V14.6237h6.13V42.207h-.869l-17.137-16.1147h-.121v15.6643h-.015Zm43.679-4.7388v4.7356h-19.291V14.5879h18.505v4.7355h-12.337v6.0134h11.052v4.5702h-11.052v7.1183h13.123v-.0075Zm26.276-17.6793h-7.945v22.417h-6.168v-22.417h-7.991v-4.7233h22.104v4.7233Zm41.757-4.7311c2.812 0 5.216.7823 7.159 2.3919 1.988 1.5644 2.978 3.7457 2.978 6.5061 0 3.1289-1.784 6.5512-5.465 8.2361l7.204 10.0111h-7.038l-7.204-11.0792v-.5792c4.309-.4964 6.418-3.0462 6.418-5.7238 0-3.129-2.026-5.1072-5.216-5.1072h-3.727v22.4894h-6.169V14.6074h11.06Zm22.354 27.2231h-6.168V14.5879h6.168v27.2426Zm23.557-27.2114h6.123v16.2784c0 3.3154-.991 6.011-3.024 8.0943-2.026 2.046-4.929 3.069-8.693 3.069-7.741 0-11.718-4.2936-11.718-11.0439V14.6191h6.169v16.3605c0 3.3975 1.943 6.0932 5.586 6.0932 3.644 0 5.549-2.5762 5.549-5.8916V14.6191h.008Z"/>
  <path fill="currentColor" stroke="#000" stroke-width=".340658" d="M435.499 41.4175v.1703h10.969c2.057 0 3.777-.3168 5.152-.9596 1.371-.6407 2.406-1.5186 3.095-2.6371v-.0005c.686-1.123 1.028-2.3863 1.028-3.7855 0-1.3678-.283-2.545-.857-3.5243-.569-.9705-1.305-1.7245-2.209-2.2574-.812-.4913-1.66-.7822-2.543-.8701.798-.2146 1.527-.5438 2.186-.988.727-.4894 1.305-1.126 1.735-1.9076v-.0007c.433-.797.646-1.7484.646-2.8473 0-1.3389-.329-2.5423-.989-3.6052-.654-1.0669-1.642-1.9016-2.952-2.5078-1.306-.6169-2.934-.9207-4.878-.9207h-10.383v26.6415Zm14.432-9.618v.0009c.373.6004.561 1.2755.561 2.0299 0 1.0027-.37 1.8168-1.113 2.4558-.727.6236-1.939.9542-3.68.9542h-5.027v-7.4146h5.158c.977 0 1.809.1814 2.501.537l.001.0007c.695.3488 1.226.8277 1.599 1.4361Zm-.959-7.4495-.001.0005c-.363.5323-.863.9481-1.506 1.2465-.643.2902-1.37.437-2.182.437h-4.611v-6.9622h4.715c1.4 0 2.424.3265 3.102.9502v.0007c.693.6298 1.039 1.4278 1.039 2.4074 0 .7455-.187 1.383-.556 1.9199Zm26.571-2.2004.016.1524h4.944l-.003-.1732c-.027-1.5415-.454-2.9104-1.285-4.1009-.829-1.1969-1.971-2.1277-3.418-2.7937-1.44-.6758-3.112-1.011-5.012-1.011-1.874 0-3.558.3354-5.048 1.0101-1.491.6657-2.675 1.6048-3.548 2.8186v.0007c-.867 1.2184-1.299 2.6371-1.299 4.2493 0 1.9615.645 3.5499 1.943 4.7472l.001.0008c1.293 1.1757 3.045 2.046 5.244 2.6182h.001l3.013.7856v.0001c.942.2426 1.76.5191 2.456.8287l.003.001c.698.298 1.23.6683 1.606 1.1064l.001.0012c.365.4182.557.9527.565 1.6164-.008.7319-.225 1.3666-.649 1.9111-.427.54-1.021.9689-1.792 1.2827-.76.3044-1.651.459-2.678.459-.982 0-1.867-.1501-2.655-.4472-.776-.2957-1.401-.7412-1.881-1.3356-.474-.5883-.749-1.3305-.816-2.2362l-.011-.1578h-5.056l.007.1769c.07 1.8066.534 3.3491 1.4 4.6196l.001.0007c.873 1.2684 2.081 2.2307 3.616 2.8881l.001.0002c1.543.6568 3.355.9825 5.433.9825 2.138 0 3.969-.3343 5.488-1.0098l.001-.0002c1.524-.6832 2.698-1.6321 3.512-2.8497v-.0004c.813-1.2265 1.218-2.6434 1.218-4.2448 0-1.182-.22-2.2216-.665-3.1137-.441-.8852-1.042-1.6416-1.802-2.2678-.746-.622-1.592-1.1365-2.537-1.544-.932-.4055-1.902-.7271-2.911-.965l-2.482-.6281-.002-.0005c-.537-.1295-1.07-.2892-1.599-.4792-.523-.188-.998-.4181-1.426-.6898-.42-.2754-.751-.607-.995-.9941-.231-.379-.35-.831-.35-1.3626.009-.638.192-1.2011.55-1.6949.358-.4941.878-.8913 1.571-1.1871.689-.2943 1.523-.4446 2.507-.4446 1.397 0 2.515.3129 3.366.9239l.001.0004c.855.6075 1.339 1.4527 1.455 2.5501Z"/>
  <path fill="currentColor" d="M347.357 36.7356h-.915l-7.62-8.2816c-.038.0376-.083.0376-.121.0376v13.2611h-5.919V14.1172h.907l13.207 15.2018 13.161-15.2018h.869v27.6431h-5.964V28.4991c-.038-.0376-.084-.0376-.167-.0376l-7.453 8.2816.015-.0075Z"/>
  <defs>
    <clipPath id="a">
      <path fill="#fff" d="M0 .0166016h56v56H0z"/>
    </clipPath>
  </defs>
</svg>
