<svg xmlns="http://www.w3.org/2000/svg" fill="none" viewBox="0 0 468 121">
  <path fill="#00A99D" d="M82.2446 15.3252c-.5433 7.141-1.6645 14.2473-3.5138 21.1921-1.8378 6.9333-4.4038 13.7051-7.7904 20.05-1.6991 3.1725-3.5947 6.2411-5.7099 9.1482-2.1152 2.9072-4.4385 5.6643-6.9467 8.2254-.8322.8536-1.699 1.6843-2.5659 2.4918.2774.0692.5548.1269.8437.1846l2.8319.5653c1.884.3576 3.768.7844 5.6752 1.0613 4.8892.8652 9.8131 1.5112 14.7717 2.0073.601-.3922 1.2021-.796 1.7916-1.2113 3.0976-2.1804 6.1259-4.4761 8.8884-7.0602 2.7625-2.561 5.3285-5.2836 7.5824-8.2715 2.2192-2.9994 4.1612-6.2065 5.7212-9.6212 4.346-9.4828 5.525-20.3961 4.023-31.0786-6.543-8.3177-15.2461-14.85872-25.2557-18.79258v.36916c.0347 3.59931-.0809 7.17552-.3467 10.75182v-.0116Z"/>
  <path fill="#00D1C2" d="M25.7929 90.5991c.786-.323 1.5835-.6229 2.3695-.969l2.3232-1.0614c3.063-1.4766 6.0682-3.0571 8.9116-4.9029 1.8147-1.1767 3.5831-2.4226 5.2938-3.7377l-3.6756-.8191-1.4448-.323-1.4333-.3807-2.8665-.7614c-1.9187-.5076-3.8374-.9921-5.7214-1.6151l-5.6868-1.7765-5.6058-2.0189c-.9363-.3461-1.8725-.6691-2.7972-1.0267l-2.7509-1.1421c-1.8378-.7729-3.68714-1.5112-5.50181-2.3188l-5.40937-2.561-1.132725-.5422C1.52012 75.9366 5.51935 86.3538 11.7725 95.029c3.1208-.7498 6.2069-1.615 9.2467-2.6302 1.6067-.5884 3.2364-1.119 4.8084-1.7881l-.0347-.0116ZM3.1853 56.2904c.40455.2538.82065.4845 1.23676.7037l1.24831.6806 5.01633 2.7226c1.6876.8767 3.4214 1.6612 5.132 2.4918l2.5775 1.2344c.8669.3922 1.7569.7498 2.6238 1.1305l5.2707 2.2265 5.3747 1.9958c1.78.7037 3.6062 1.2575 5.4324 1.8573l2.7278.8883 1.3639.4384 1.3871.3922 5.548 1.5459c.6935.1846 1.3986.3461 2.0921.5076 1.5142-1.4651 2.9821-2.9879 4.3575-4.5799 2.1846-2.5264 4.1842-5.2028 5.9758-8.0061 1.7915-2.8034 3.375-5.7451 4.7621-8.7676 2.774-6.045 4.762-12.4476 6.0797-18.9771 1.3292-6.5295 1.9649-13.209 2.069-19.8769.0462-3.334-.0463-6.67953-.2774-9.99043-.0809-1.21131-.1965-2.42261-.3237-3.62238C68.8836.454979 64.7573.0166016 60.5269.0166016 29.1341.039674 3.34712 24.1043.688675 54.7791c.023117.0116.046234.0231.069351.0462l2.438834 1.4766-.01156-.0115Z"/>
  <path fill="#00A99D" d="m58.4797 82.4082-2.9359-.4269c-.9824-.1384-1.9418-.3461-2.9127-.5076-.786-.15-1.5835-.2884-2.3695-.4268-2.8549 2.1457-5.8486 4.0953-8.9462 5.8258-3.0861 1.7535-6.3225 3.2186-9.582 4.5453l-2.4735.9459c-.8207.3115-1.6644.5653-2.4966.8537-1.6529.5884-3.3636 1.0267-5.0395 1.5343-2.8781.773-5.7793 1.419-8.692 1.9497.5201.6806 1.0634 1.3382 1.6182 1.9957.6819-.0346 1.3639-.0692 2.0343-.1038 1.9187-.1269 3.8258-.2653 5.7445-.4268.9594-.0693 1.9072-.1731 2.8665-.2769.9594-.0923 1.9072-.1731 2.855-.3 15.2225-1.6958 30.26-5.6873 43.7372-12.7244.5201-.2654 1.0287-.5538 1.5373-.8306-3.0283-.2192-6.0567-.5076-9.0734-.8768-1.965-.1846-3.9068-.5076-5.8717-.7729v.0231Z"/>
  <path fill="#007A8F" d="M87.909 84.6581h-.4508c-.3583.2884-.7166.5768-1.0749.8537-3.2826 2.5495-6.7386 4.8337-10.3218 6.9102-1.78 1.0613-3.6178 1.9957-5.4556 2.9648-1.8609.8883-3.7102 1.8227-5.6174 2.6187-1.884.8537-3.8143 1.5689-5.733 2.3185-1.9418.692-3.8836 1.396-5.8486 2.008-3.9183 1.246-7.906 2.318-11.9283 3.172-4.0223.854-8.0678 1.615-12.1364 2.077-1.5951.196-3.1901.346-4.7852.484 10.0328 7.51 22.4928 11.952 36.0046 11.952 24.9085 0 46.2684-15.124 55.3884-36.6625-1.503.1615-3.005.3115-4.52.4384-7.801.6691-15.6497.969-23.5095.8883l-.0115-.0231Zm24.191-40.527c-.509 4.1069-1.491 8.1907-2.924 12.1131-1.434 3.9338-3.318 7.7177-5.606 11.2363-2.3 3.507-4.982 6.7717-7.8832 9.7596-1.283 1.3498-2.6353 2.6303-4.0108 3.8647 6.519.323 13.073.3807 19.615.1615 1.861-.0577 3.722-.15 5.582-.2538 2.451-6.5411 3.792-13.6128 3.792-21.0075 0-11.444-3.214-22.1265-8.773-31.2286.15 1.0036.266 2.0073.347 3.0225.381 4.0723.369 8.2138-.116 12.3207l-.023.0115Z"/>
  <path fill="#000" fill-rule="evenodd" d="m222.374 44.433 2.111 4.8773h7.088l-14.476-31.489h-1.03l-14.708 31.489h6.96l2.162-4.8773h11.893Zm-9.782-4.7747 3.81-8.574h.18l3.716 8.574h-7.706Zm-67.927 9.7148V18.4916h11.885c3.758 0 6.676 1.0268 8.692 3.0462 2.025 2.0194 3.055 4.4495 3.055 7.3075 0 3.0462-1.081 5.5277-3.192 7.5471-2.111 2.0109-4.84 2.9949-8.221 2.9949h-5.166v9.9772h-7.045l-.008.0086Zm7.002-25.679v10.4992h3.664c4.274 0 5.964-2.3873 5.964-5.2025 0-2.9521-2.025-5.2967-5.921-5.2967h-3.707Zm23.719-5.1912h7.002v25.4385h14.331v5.3689h-21.333V18.5029Zm170.308 30.8074-2.111-4.8773H331.69l-2.163 4.8773h-6.959l14.708-31.489h1.03l14.476 31.489h-7.088Zm-8.083-18.226-3.81 8.574h7.705l-3.715-8.574h-.18ZM236.207 49.3101h6.968V31.5289h.138l19.453 18.2924h.987V18.5104h-6.959v17.2189h-.189c-2.12-2.0534-5.363-4.9927-9.637-8.8182-4.282-3.8766-7.525-6.8586-9.731-9.0056h-1.03v31.4046Zm56.534-5.3703v5.367h-21.899V18.4701h21.007v5.3755h-14.005v6.8261h12.546v5.1878h-12.546v8.0803h14.897Zm20.781-20.0774h9.019v-5.3617H297.45v5.3617h9.07v25.4465h7.002V23.8624Zm56.446-5.3708c3.192 0 5.921.8879 8.127 2.715 2.256 1.7759 3.38 4.252 3.38 7.3854 0 3.5518-2.025 7.4366-6.204 9.3491l8.178 11.3641h-7.989l-8.178-12.5765v-.6574c4.892-.5635 7.286-3.4579 7.286-6.4974 0-3.5518-2.3-5.7973-5.921-5.7973h-4.231v25.5286h-7.002V18.4916h12.554Zm18.121 30.9028h7.003V18.4701h-7.003v30.9243Zm33.743-30.8893h6.95v18.4782c0 3.7635-1.124 6.8234-3.432 9.1883-2.3 2.3225-5.595 3.4837-9.868 3.4837-8.788 0-13.301-4.8738-13.301-12.5363V18.5051h7.002v18.5715c0 3.8567 2.205 6.9166 6.341 6.9166 4.137 0 6.299-2.9243 6.299-6.6878V18.5051h.009Zm30.629 25.0755h.01l-.018.0086.008-.0086Zm8.453-9.3923-8.453 9.3923h-1.029l-8.649-9.4008c-.043.0427-.095.0427-.138.0427v15.0533h-6.719V17.9055h1.03l14.991 17.2562 14.94-17.2562h.987v31.3788h-6.771V34.231c-.043-.0427-.094-.0427-.189-.0427ZM144.665 70.508h7.058v25.6441h14.447v5.4119h-21.505V70.508Zm47.367 26.14 2.128 4.917h7.145l-14.593-31.7437h-1.038l-14.826 31.7437h7.015l2.18-4.917h11.989Zm-9.861-4.8133 3.841-8.6432h.181l3.746 8.6432h-7.768Zm23.783 9.7303V70.4943h12.076c2.243 0 4.137.3504 5.665 1.0721 1.528.7068 2.689 1.6855 3.461 2.9438.776 1.2495 1.161 2.6625 1.161 4.2278 0 1.2826-.248 2.4048-.763 3.3514l-.001.0016c-.506.921-1.189 1.6729-2.046 2.2506-.551.3711-1.143.6734-1.775.9073.749.169 1.474.4665 2.174.8901 1.065.6279 1.93 1.5153 2.596 2.6519.678 1.1564 1.007 2.5393 1.007 4.1315 0 1.6344-.399 3.1157-1.205 4.4334v.0011c-.812 1.3174-2.028 2.3455-3.625 3.0921-1.608.751-3.606 1.116-5.978 1.116h-12.747Zm16.544-11.2915-.001-.0021c-.406-.6628-.985-1.1868-1.75-1.571l-.004-.0017c-.758-.3898-1.678-.5929-2.773-.5929h-5.706v8.0948h5.557c1.976 0 3.306-.3769 4.084-1.0448.806-.6934 1.205-1.5705 1.205-2.6624 0-.829-.205-1.5656-.612-2.2199Zm-1.094-8.7378.001-.0011c.397-.5779.602-1.2678.602-2.0866 0-1.0686-.374-1.9285-1.124-2.6106l-.002-.0016c-.726-.6683-1.842-1.0359-3.417-1.0359h-5.2v7.5772h5.08c.906 0 1.709-.1634 2.417-.4824.706-.328 1.25-.7817 1.643-1.359Zm30.375-2.3874.036.3489h6.031l-.007-.3964c-.031-1.8-.531-3.4047-1.505-4.801-.971-1.4006-2.305-2.487-3.989-3.2621-1.679-.7875-3.621-1.175-5.817-1.175-2.168 0-4.123.388-5.857 1.173-1.734.7744-3.117 1.8698-4.138 3.2894l-.001.0015c-1.018 1.4301-1.522 3.0938-1.522 4.9756 0 2.2917.755 4.1639 2.286 5.5755l.002.0019c1.509 1.3722 3.545 2.3802 6.083 3.0405l3.448.8989.001.0003c1.07.2756 1.996.5888 2.781.9376l.005.0023c.778.3324 1.36.7405 1.766 1.2137l.002.0028c.383.4378.59 1.0017.6 1.7214-.01.7961-.245 1.4797-.702 2.0667-.464.5866-1.114 1.0587-1.97 1.4073-.842.3371-1.836.511-2.991.511-1.104 0-2.092-.1685-2.969-.499-.858-.327-1.545-.8173-2.07-1.4685-.514-.6373-.817-1.4469-.891-2.4509l-.027-.3611h-6.169l.016.4049c.081 2.0969.621 3.8991 1.636 5.3885l.001.0016c1.022 1.4845 2.435 2.6084 4.223 3.3734 1.795.765 3.897 1.14 6.294 1.14 2.466 0 4.59-.385 6.359-1.172h.001c1.773-.795 3.147-1.9028 4.101-3.331l.001-.0011c.954-1.4383 1.427-3.098 1.427-4.965 0-1.3768-.256-2.5973-.781-3.6501-.518-1.0371-1.223-1.9242-2.113-2.6582-.869-.7242-1.853-1.3225-2.95-1.7957-1.076-.4683-2.197-.8398-3.362-1.1146l-2.839-.7184-.004-.0011c-.608-.1465-1.211-.3272-1.809-.5422-.586-.2106-1.117-.4676-1.593-.7698-.458-.3007-.816-.6599-1.079-1.0765-.242-.3979-.37-.878-.37-1.4552.009-.6911.207-1.2956.591-1.8265.385-.5314.95-.966 1.717-1.2935.759-.324 1.686-.4931 2.792-.4931 1.571 0 2.806.3515 3.739 1.0206l.001.0011c.931.6611 1.458 1.5766 1.585 2.7796Z" clip-rule="evenodd"/>
</svg>
