<svg xmlns="http://www.w3.org/2000/svg" width="288" height="185" fill="none" viewBox="0 0 288 185">
  <g clip-path="url(#a)">
    <path fill="#00A99D" d="M165.593 15.3086c-.543 7.141-1.664 14.2473-3.513 21.1921-1.838 6.9333-4.404 13.7051-7.791 20.05-1.699 3.1725-3.595 6.2411-5.71 9.1482-2.115 2.9072-4.438 5.6643-6.946 8.2254-.833.8536-1.699 1.6843-2.566 2.4918.277.0692.554.1269.843.1846l2.832.5653c1.884.3576 3.768.7844 5.675 1.0613 4.89.8652 9.814 1.5112 14.772 2.0073.601-.3922 1.202-.796 1.792-1.2113 3.097-2.1804 6.126-4.4761 8.888-7.0602 2.763-2.561 5.329-5.2836 7.583-8.2715 2.219-2.9994 4.161-6.2065 5.721-9.6212 4.346-9.4828 5.525-20.3961 4.022-31.0786-6.542-8.3177-15.245-14.85872-25.255-18.79258v.36916c.035 3.59931-.081 7.17552-.347 10.75182v-.0116Z"/>
    <path fill="#00D1C2" d="M109.142 90.5825c.786-.323 1.583-.6229 2.369-.969l2.323-1.0614c3.063-1.4766 6.069-3.0571 8.912-4.9029 1.815-1.1767 3.583-2.4226 5.294-3.7377l-3.676-.8191-1.445-.323-1.433-.3807-2.866-.7614c-1.919-.5076-3.838-.9921-5.722-1.6151l-5.687-1.7765-5.605-2.0189c-.937-.3461-1.8729-.6691-2.7976-1.0267l-2.7509-1.1421c-1.8378-.7729-3.6872-1.5112-5.5019-2.3188l-5.4093-2.561-1.1328-.5422c.8554 11.294 4.8546 21.7112 11.1077 30.3864 3.1208-.7498 6.2068-1.6151 9.2468-2.6302 1.607-.5884 3.236-1.119 4.808-1.7882l-.034-.0115ZM86.534 56.2738c.4046.2538.8207.4845 1.2368.7037l1.2483.6806 5.0164 2.7226c1.6875.8767 3.4213 1.6612 5.1319 2.4918l2.5776 1.2344c.867.3922 1.757.7498 2.624 1.1305l5.27 2.2265 5.375 1.9958c1.78.7037 3.606 1.2575 5.433 1.8573l2.727.8883 1.364.4384 1.387.3922 5.548 1.5459c.694.1846 1.399.3461 2.092.5076 1.515-1.4651 2.983-2.9879 4.358-4.5799 2.185-2.5264 4.184-5.2028 5.976-8.0061 1.791-2.8034 3.375-5.7451 4.762-8.7676 2.774-6.045 4.762-12.4476 6.08-18.9771 1.329-6.5295 1.964-13.209 2.069-19.8769.046-3.334-.047-6.67953-.278-9.99043-.081-1.21131-.196-2.42261-.324-3.62238C152.232.438377 148.106 0 143.876 0c-31.393.0230725-57.1801 24.0877-59.8386 54.7625.0231.0116.0462.0231.0694.0462l2.4388 1.4766-.0116-.0115Z"/>
    <path fill="#00A99D" d="m141.828 82.3915-2.935-.4268c-.983-.1384-1.942-.3461-2.913-.5076-.786-.15-1.584-.2884-2.37-.4268-2.855 2.1457-5.848 4.0953-8.946 5.8258-3.086 1.7535-6.322 3.2186-9.582 4.5452l-2.473.946c-.821.3115-1.665.5653-2.497.8537-1.653.5883-3.364 1.0267-5.039 1.5343-2.879.7729-5.7797 1.419-8.6924 1.9496.5201.6807 1.0633 1.3382 1.6181 1.9958.682-.0346 1.3639-.0692 2.0343-.1038 1.919-.1269 3.826-.2653 5.745-.4269.959-.0692 1.907-.173 2.866-.2768.959-.0923 1.907-.1731 2.855-.3 15.223-1.6958 30.26-5.6873 43.737-12.7244.52-.2654 1.029-.5538 1.538-.8306-3.029-.2192-6.057-.5076-9.074-.8768-1.965-.1846-3.907-.5076-5.872-.7729v.023Z"/>
    <path fill="#007A8F" d="M171.258 84.6415h-.451c-.358.2884-.717.5768-1.075.8537-3.283 2.5495-6.739 4.8337-10.322 6.9102-1.78 1.0613-3.617 1.9957-5.455 2.9648-1.861.8883-3.711 1.8227-5.618 2.6187-1.884.8537-3.814 1.5689-5.733 2.3191-1.942.692-3.883 1.396-5.848 2.007-3.919 1.246-7.906 2.319-11.929 3.172-4.022.854-8.067 1.616-12.136 2.077-1.595.196-3.19.346-4.785.485C117.939 115.559 130.399 120 143.91 120c24.909 0 46.269-15.124 55.389-36.6621-1.503.1615-3.006.3115-4.52.4384-7.802.6691-15.65.969-23.51.8883l-.011-.0231Zm24.191-40.527c-.509 4.1069-1.491 8.1907-2.925 12.1131-1.433 3.9338-3.317 7.7177-5.606 11.2362-2.3 3.5071-4.981 6.7718-7.882 9.7597-1.283 1.3497-2.636 2.6303-4.011 3.8646 6.519.3231 13.072.3807 19.615.1616 1.86-.0577 3.721-.15 5.582-.2538 2.451-6.5411 3.791-13.6128 3.791-21.0075 0-11.444-3.213-22.1265-8.772-31.2286.15 1.0036.265 2.0073.346 3.0225.382 4.0723.37 8.2138-.115 12.3207l-.023.0115Z"/>
  </g>
  <path fill="currentColor" d="M19.6572 141.426h4.3763v15.899H32.99v3.355H19.6572v-19.254Zm30.6868 19.255-1.3193-3.049h-7.4333l-1.3516 3.049h-4.3495L45.0828 141h.6436l9.0476 19.681h-4.4353.0053Zm-5.0521-11.392-2.3812 5.359h4.8161l-2.3222-5.359h-.118.0053ZM.456543 160.72v-19.301H7.88453c2.34907 0 4.17257.642 5.43287 1.904 1.2657 1.262 1.9093 2.781 1.9093 4.567 0 1.904-.6758 3.455-1.9951 4.717-1.3193 1.257-3.0248 1.872-5.13791 1.872H4.86506v6.236H.461911l-.005368.005Zm4.376347-16.049v6.562h2.29007c2.67085 0 3.72744-1.493 3.72744-3.252 0-1.845-1.26575-3.31-3.70062-3.31H4.82753h.00536Zm212.55511-3.245h4.377v15.899h8.956v3.355h-13.333v-19.254Zm30.687 19.255-1.319-3.049h-7.434l-1.351 3.049h-4.35L242.814 141h.643l9.048 19.681h-4.435.005Zm-5.052-11.392-2.381 5.359h4.816l-2.322-5.359h-.118.005Zm-116.924 11.392-1.319-3.049h-7.434l-1.351 3.049h-4.35L120.838 141h.643l9.048 19.681h-4.436.006Zm-5.052-11.392-2.381 5.359h4.816l-2.323-5.359h-.118.006Zm-59.0326 11.392h-4.3442v-19.628h.6436c1.3783 1.342 3.4056 3.205 6.0818 5.628 2.6709 2.391 4.6982 4.228 6.0229 5.512h.118v-10.762h4.3495V161h-.6168l-12.1583-11.433h-.0858v11.114h-.0107Zm30.989-3.363v3.36H79.3167v-19.273h13.129v3.36H83.693v4.266h7.8409v3.243H83.693v5.05h9.3104v-.006Zm18.6416-12.542h-5.636v15.904h-4.377v-15.904h-5.6687v-3.351h15.6817v3.351Zm29.625-3.357c1.995 0 3.701.555 5.079 1.697 1.41 1.11 2.113 2.657 2.113 4.616 0 2.22-1.266 4.648-3.878 5.843l5.112 7.102h-4.994l-5.111-7.86v-.411c3.057-.352 4.554-2.161 4.554-4.061 0-2.219-1.438-3.623-3.701-3.623H137.8v15.955h-4.376v-19.258h7.846Zm15.86 19.314h-4.377v-19.328h4.377v19.328Zm16.712-19.305h4.344v11.549c0 2.352-.702 4.264-2.145 5.742-1.437 1.452-3.497 2.178-6.168 2.178-5.492 0-8.313-3.047-8.313-7.836v-11.633h4.377v11.607c0 2.41 1.378 4.323 3.963 4.323s3.937-1.828 3.937-4.18v-11.75h.005Z"/>
  <path fill="currentColor" stroke="#000" stroke-width=".241684" d="M255.508 160.44v.12h7.782c1.459 0 2.679-.224 3.655-.68.973-.455 1.707-1.078 2.196-1.871v-.001c.487-.796.729-1.693.729-2.685 0-.971-.2-1.806-.608-2.501-.403-.688-.926-1.223-1.567-1.601-.576-.349-1.177-.555-1.804-.618.566-.152 1.083-.385 1.551-.701.515-.347.926-.798 1.231-1.353.307-.566.458-1.241.458-2.021 0-.949-.233-1.803-.702-2.557-.464-.757-1.164-1.349-2.094-1.779-.926-.438-2.082-.654-3.461-.654h-7.366v18.902Zm10.239-6.824v.001c.265.426.398.905.398 1.44 0 .711-.263 1.289-.79 1.742-.515.442-1.376.677-2.61.677h-3.567v-5.26h3.659c.694 0 1.284.128 1.775.381h.001c.493.248.869.587 1.134 1.019Zm-.681-5.285c-.257.378-.612.673-1.068.884-.457.206-.973.31-1.549.31h-3.271v-4.939h3.345c.994 0 1.72.232 2.201.674v.001c.491.447.737 1.013.737 1.708 0 .529-.133.981-.395 1.362Zm18.852-1.561.011.108h3.508l-.002-.123c-.019-1.093-.322-2.064-.912-2.909-.588-.849-1.398-1.509-2.425-1.982-1.022-.479-2.208-.717-3.555-.717-1.33 0-2.525.238-3.582.716-1.058.473-1.898 1.139-2.517 2v.001c-.616.864-.922 1.87-.922 3.014 0 1.392.458 2.519 1.379 3.368v.001c.918.834 2.16 1.451 3.721 1.857l2.138.558c.668.172 1.249.368 1.743.588h.001c.496.212.873.475 1.14.785v.001c.26.297.396.676.402 1.147-.006.519-.16.969-.461 1.356-.303.383-.724.687-1.271.91-.54.216-1.172.325-1.9.325-.697 0-1.325-.106-1.884-.317-.55-.21-.994-.526-1.334-.947-.337-.418-.532-.944-.579-1.587l-.008-.112h-3.587l.005.126c.049 1.281.379 2.376.993 3.277v.001c.62.9 1.477 1.582 2.566 2.049h.001c1.094.466 2.38.697 3.855.697 1.516 0 2.816-.237 3.893-.717 1.082-.484 1.915-1.158 2.492-2.021v-.001c.577-.87.864-1.875.864-3.011 0-.839-.155-1.576-.471-2.209-.313-.628-.74-1.165-1.279-1.609-.529-.442-1.129-.807-1.8-1.096-.661-.287-1.349-.516-2.065-.684l-1.761-.446h-.001c-.381-.092-.759-.205-1.134-.34-.372-.134-.709-.297-1.013-.49-.298-.195-.532-.43-.705-.705-.164-.269-.248-.589-.248-.967.006-.452.136-.852.389-1.202.254-.351.624-.632 1.115-.842.489-.209 1.081-.316 1.779-.316.991 0 1.784.222 2.388.656h.001c.606.431.95 1.031 1.032 1.809Z"/>
  <path fill="currentColor" d="M192.974 157.118h-.649l-5.406-5.875c-.027.026-.059.026-.085.026v9.409h-4.2v-19.607h.644l9.369 10.785 9.337-10.785h.617v19.612h-4.231v-9.408c-.027-.027-.059-.027-.118-.027l-5.288 5.876.01-.006ZM123.697 185l-4.282-5.912 4.106-5.417h3.484l-4.682 5.88-.016-1.007L127.18 185h-3.483Zm-6.871 0v-11.329h2.86V185h-2.86Zm52.127 0-.769-1.777h-4.334l-.788 1.777h-2.536l5.36-11.476h.375L171.537 185h-2.587.003Zm-2.945-6.642-1.389 3.125h2.808l-1.354-3.125h-.069.004Zm-6.029 4.663V185h-8.061v-11.351h7.732v1.979h-5.154v2.513h4.617v1.909h-4.617v2.975h5.483v-.004Zm-14.585-9.319c1.17 0 2.17.326 2.979.996.828.651 1.24 1.559 1.24 2.708 0 1.302-.743 2.726-2.275 3.427l2.998 4.167h-2.929l-2.998-4.611v-.241c1.793-.207 2.671-1.268 2.671-2.382 0-1.303-.843-2.126-2.171-2.126h-1.551V185h-2.567v-11.298h4.603ZM133.265 185c-.87 0-1.675-.152-2.415-.457-.728-.304-1.37-.728-1.924-1.272-.555-.544-.985-1.174-1.289-1.892-.305-.729-.457-1.512-.457-2.349 0-.849.152-1.632.457-2.349.304-.718.728-1.343 1.272-1.876.544-.544 1.18-.963 1.909-1.256.739-.305 1.544-.457 2.414-.457.859 0 1.653.152 2.382.457.739.293 1.381.712 1.925 1.256.554.533.984 1.163 1.288 1.892.305.718.457 1.501.457 2.349 0 .837-.152 1.62-.457 2.349-.304.718-.728 1.349-1.272 1.892-.544.533-1.185.952-1.925 1.256-.729.305-1.517.457-2.365.457Zm-.033-2.333c.685 0 1.283-.152 1.795-.456.522-.305.924-.729 1.207-1.273.282-.554.424-1.191.424-1.908 0-.544-.082-1.033-.245-1.468-.163-.446-.397-.827-.701-1.142-.305-.327-.669-.571-1.093-.734-.414-.174-.876-.261-1.387-.261-.685 0-1.289.152-1.811.456-.511.294-.908.713-1.19 1.256-.283.533-.425 1.164-.425 1.893 0 .543.082 1.038.245 1.484.163.446.392.832.685 1.158.305.316.669.56 1.093.734.424.174.892.261 1.403.261Z"/>
  <defs>
    <clipPath id="a">
      <path fill="#fff" d="M84.0135 0h120v120h-120z"/>
    </clipPath>
  </defs>
</svg>
