<svg xmlns="http://www.w3.org/2000/svg" width="291" height="162" fill="none" viewBox="0 0 291 162">
  <g clip-path="url(#a)">
    <path fill="#00A99D" d="M166.593 15.8252c-.543 7.141-1.664 14.2473-3.513 21.1921-1.838 6.9333-4.404 13.7051-7.791 20.05-1.699 3.1725-3.595 6.2411-5.71 9.1482-2.115 2.9072-4.438 5.6643-6.946 8.2254-.833.8536-1.699 1.6843-2.566 2.4918.277.0692.554.1269.843.1846l2.832.5653c1.884.3576 3.768.7844 5.675 1.0613 4.89.8652 9.814 1.5112 14.772 2.0073.601-.3922 1.202-.796 1.792-1.2113 3.097-2.1804 6.126-4.4761 8.888-7.0602 2.763-2.561 5.329-5.2836 7.583-8.2715 2.219-2.9994 4.161-6.2065 5.721-9.6212 4.346-9.4828 5.525-20.3961 4.022-31.0786-6.542-8.3177-15.245-14.85872-25.255-18.79258v.36916c.035 3.59931-.081 7.17552-.347 10.75182v-.0116Z"/>
    <path fill="#00D1C2" d="M110.142 91.0991c.786-.323 1.583-.6229 2.369-.969l2.323-1.0614c3.063-1.4766 6.069-3.0571 8.912-4.9029 1.815-1.1767 3.583-2.4226 5.294-3.7377l-3.676-.8191-1.445-.323-1.433-.3807-2.866-.7614c-1.919-.5076-3.838-.9921-5.722-1.6151l-5.687-1.7765-5.605-2.0189c-.937-.3461-1.873-.6691-2.7976-1.0267l-2.7509-1.1421c-1.8378-.7729-3.6872-1.5112-5.5019-2.3188l-5.4093-2.561-1.1328-.5422c.8554 11.294 4.8546 21.7112 11.1077 30.3864 3.1208-.7498 6.2068-1.615 9.2468-2.6302 1.607-.5884 3.236-1.119 4.808-1.7881l-.034-.0116ZM87.534 56.7904c.4046.2538.8207.4845 1.2368.7037l1.2483.6806 5.0164 2.7226c1.6875.8767 3.4213 1.6612 5.1315 2.4918l2.578 1.2344c.867.3922 1.757.7498 2.624 1.1305l5.27 2.2265 5.375 1.9958c1.78.7037 3.606 1.2575 5.433 1.8573l2.727.8883 1.364.4384 1.387.3922 5.548 1.5459c.694.1846 1.399.3461 2.092.5076 1.515-1.4651 2.983-2.9879 4.358-4.5799 2.185-2.5264 4.184-5.2028 5.976-8.0061 1.791-2.8034 3.375-5.7451 4.762-8.7676 2.774-6.045 4.762-12.4476 6.08-18.9771 1.329-6.5295 1.964-13.209 2.069-19.8769.046-3.334-.047-6.67953-.278-9.99043-.081-1.21131-.196-2.42261-.324-3.62238-3.976-.830611-8.102-1.268988-12.332-1.268988C113.483.539674 87.6959 24.6043 85.0374 55.2791c.0231.0116.0462.0231.0694.0462l2.4388 1.4766-.0116-.0115Z"/>
    <path fill="#00A99D" d="m142.828 82.9082-2.935-.4269c-.983-.1384-1.942-.3461-2.913-.5076-.786-.15-1.584-.2884-2.37-.4268-2.855 2.1457-5.848 4.0953-8.946 5.8258-3.086 1.7535-6.322 3.2186-9.582 4.5453l-2.473.9459c-.821.3115-1.665.5653-2.497.8537-1.653.5884-3.364 1.0267-5.039 1.5343-2.879.773-5.78 1.419-8.6924 1.9497.5201.6806 1.0633 1.3382 1.6181 1.9957.682-.0346 1.3643-.0692 2.0343-.1038 1.919-.1269 3.826-.2653 5.745-.4268.959-.0693 1.907-.1731 2.866-.2769.959-.0923 1.907-.1731 2.855-.3 15.223-1.6958 30.26-5.6873 43.737-12.7244.52-.2654 1.029-.5538 1.538-.8306-3.029-.2192-6.057-.5076-9.074-.8768-1.965-.1846-3.907-.5076-5.872-.7729v.0231Z"/>
    <path fill="#007A8F" d="M172.258 85.1581h-.451c-.358.2884-.717.5768-1.075.8537-3.283 2.5495-6.739 4.8337-10.322 6.9102-1.78 1.0613-3.617 1.9957-5.455 2.9648-1.861.8883-3.711 1.8227-5.618 2.6187-1.884.8537-3.814 1.5685-5.733 2.3185-1.942.692-3.883 1.396-5.848 2.008-3.919 1.246-7.906 2.318-11.929 3.172-4.022.854-8.067 1.615-12.136 2.077-1.595.196-3.19.346-4.785.484 10.033 7.51 22.493 11.952 36.004 11.952 24.909 0 46.269-15.124 55.389-36.6625-1.503.1615-3.006.3115-4.52.4384-7.802.6691-15.65.969-23.51.8883l-.011-.0231Zm24.191-40.527c-.509 4.1069-1.491 8.1907-2.925 12.1131-1.433 3.9338-3.317 7.7177-5.606 11.2363-2.3 3.507-4.981 6.7717-7.882 9.7596-1.283 1.3498-2.636 2.6303-4.011 3.8647 6.519.323 13.072.3807 19.614.1615 1.861-.0577 3.722-.15 5.583-.2538 2.451-6.5411 3.791-13.6128 3.791-21.0075 0-11.444-3.213-22.1265-8.772-31.2286.15 1.0036.265 2.0073.346 3.0225.382 4.0723.37 8.2138-.115 12.3207l-.023.0115Z"/>
  </g>
  <path fill="currentColor" d="M19.3448 141.945h4.4061v16.007h9.0173v3.379H19.3448v-19.386Zm30.8954 19.386-1.3283-3.069H41.428l-1.3607 3.069h-4.3791l9.255-19.814h.6479l9.1092 19.814h-4.4655.0054Zm-5.0864-11.469-2.3975 5.395h4.8489l-2.3381-5.395h-.1187.0054ZM.0135498 161.371v-19.433H7.49202c2.36503 0 4.20088.647 5.46978 1.917 1.2743 1.271 1.9223 2.8 1.9223 4.599 0 1.916-.6804 3.478-2.0087 4.749-1.3283 1.265-3.04535 1.884-5.1728 1.884H4.45203v6.278H.0189547l-.0054049.006ZM4.41964 145.212v6.607h2.30563c2.68901 0 3.75273-1.502 3.75273-3.274 0-1.858-1.2743-3.333-3.72573-3.333H4.41424h.0054ZM218.42 141.945h4.406v16.007h9.017v3.379H218.42v-19.386Zm30.895 19.386-1.328-3.069h-7.484l-1.361 3.069h-4.379l9.255-19.814h.648l9.109 19.814h-4.465.005Zm-5.086-11.469-2.398 5.395h4.849l-2.338-5.395h-.119.006ZM126.51 161.331l-1.329-3.069h-7.483l-1.361 3.069h-4.379l9.255-19.814h.648l9.109 19.814h-4.466.006Zm-5.087-11.469-2.397 5.395h4.849l-2.338-5.395h-.119.005Zm-59.4332 11.469h-4.3737v-19.762h.6479c1.3877 1.351 3.4288 3.228 6.1232 5.667 2.689 2.407 4.7301 4.257 6.0638 5.549h.1188V141.95h4.379v19.702h-.6209l-12.2409-11.51h-.0864v11.189h-.0108Zm31.1997-3.385v3.383H79.4097v-19.404h13.2182v3.382h-8.8121v4.296H91.71v3.264h-7.8942v5.085h9.3737v-.006Zm18.7685-12.628h-5.675v16.012h-4.406v-16.012h-5.7076v-3.374h15.7886v3.374Zm29.826-3.38c2.009 0 3.726.559 5.113 1.709 1.421 1.117 2.128 2.675 2.128 4.647 0 2.235-1.274 4.68-3.904 5.883l5.146 7.151h-5.027l-5.146-7.914V153c3.078-.354 4.584-2.175 4.584-4.088 0-2.235-1.447-3.648-3.726-3.648h-2.662v16.064h-4.406v-19.39h7.9Zm15.968 19.446h-4.406v-19.459h4.406v19.459Zm16.826-19.437h4.373v11.628c0 2.368-.707 4.293-2.16 5.781-1.447 1.462-3.52 2.192-6.209 2.192-5.529 0-8.37-3.066-8.37-7.888v-11.713h4.406v11.686c0 2.427 1.388 4.353 3.991 4.353 2.602 0 3.963-1.841 3.963-4.209v-11.83h.006Z"/>
  <path fill="currentColor" stroke="#000" stroke-width=".243327" d="M256.799 161.089v.121h7.834c1.47 0 2.698-.226 3.681-.685.979-.458 1.718-1.085 2.21-1.884.49-.802.735-1.705.735-2.704 0-.977-.202-1.818-.613-2.517-.406-.694-.932-1.232-1.577-1.613-.58-.351-1.186-.559-1.817-.621.57-.154 1.091-.389 1.562-.706.519-.35.932-.804 1.239-1.363.309-.569.461-1.249.461-2.034 0-.956-.235-1.816-.706-2.575-.468-.762-1.173-1.358-2.109-1.791-.932-.441-2.096-.658-3.484-.658h-7.416v19.03Zm10.308-6.87c.267.429.401.911.401 1.45 0 .716-.265 1.298-.795 1.754-.519.446-1.386.682-2.628.682h-3.591v-5.296h3.684c.698 0 1.292.129 1.786.383l.001.001c.496.249.876.591 1.142 1.026Zm-.685-5.321c-.26.38-.617.677-1.076.89-.46.208-.979.312-1.559.312h-3.293v-4.973h3.367c1.001 0 1.732.234 2.216.679v.001c.495.45.742 1.02.742 1.719 0 .533-.134.988-.397 1.372Zm18.98-1.572.011.109h3.531l-.002-.124c-.019-1.101-.324-2.078-.918-2.929-.592-.855-1.407-1.52-2.441-1.995-1.029-.483-2.223-.723-3.58-.723-1.338 0-2.541.24-3.606.722-1.065.475-1.91 1.146-2.534 2.013v.001c-.62.87-.928 1.883-.928 3.035 0 1.401.461 2.536 1.388 3.391h.001c.923.84 2.174 1.462 3.746 1.87v.001l2.152.561c.673.173 1.257.371 1.755.592h.001c.499.213.879.478 1.147.791l.001.001c.261.298.398.68.404 1.154-.006.523-.161.976-.463 1.365-.305.386-.73.692-1.28.916-.543.218-1.18.328-1.913.328-.702 0-1.334-.107-1.897-.319-.554-.211-1.001-.53-1.343-.954-.339-.42-.535-.951-.583-1.597l-.008-.113h-3.612l.005.126c.05 1.291.382 2.392 1 3.3h.001c.624.906 1.486 1.594 2.583 2.063 1.103.47 2.397.702 3.882.702 1.527 0 2.835-.239 3.92-.721 1.089-.488 1.927-1.166 2.508-2.036h.001c.581-.876.87-1.888.87-3.032 0-.844-.157-1.587-.475-2.224-.315-.632-.745-1.173-1.287-1.62-.533-.444-1.138-.812-1.813-1.103-.665-.289-1.358-.519-2.079-.689l-1.773-.449h-.001c-.384-.093-.764-.207-1.142-.342-.374-.135-.713-.299-1.019-.493-.3-.197-.536-.434-.711-.71-.165-.271-.249-.594-.249-.973.006-.456.137-.858.392-1.211.256-.353.628-.637 1.123-.848.492-.21 1.088-.318 1.79-.318.998 0 1.797.224 2.405.66v.001c.611.434.957 1.037 1.04 1.821Z"/>
  <path fill="currentColor" d="M193.84 157.745h-.653l-5.443-5.916c-.027.027-.06.027-.087.027v9.473h-4.228v-19.74h.648l9.434 10.858 9.4-10.858h.621v19.745h-4.26v-9.472c-.027-.027-.06-.027-.119-.027l-5.324 5.915.011-.005Z"/>
  <defs>
    <clipPath id="a">
      <path fill="#fff" d="M85.0135.516602h120v120h-120z"/>
    </clipPath>
  </defs>
</svg>
