<svg xmlns="http://www.w3.org/2000/svg" width="494" height="29" fill="none" viewBox="0 0 494 29">
  <path fill="currentColor" d="M27.7258 1.09668h6.1269V23.3553h12.5391v4.6978h-18.666V1.09668ZM70.6875 28.0529l-1.8471-4.2677H58.4337l-1.8921 4.2677h-6.0893L63.3217.5h.901l12.6667 27.5529H70.68h.0075Zm-7.073-15.9477-3.3337 7.5021h6.7426l-3.2512-7.5021h-.1652.0075ZM.844971 28.1082V1.08691H11.2441c3.2887 0 5.8416.89847 7.6061 2.66545 1.772 1.76698 2.673 3.89334 2.673 6.39404 0 2.6655-.9461 4.8368-2.7931 6.6037-1.8471 1.7595-4.2348 2.6206-7.1931 2.6206H7.0169v8.73H.852486l-.007515.0075ZM6.97185 5.63913v9.18677H10.178c3.7391 0 5.2183-2.0889 5.2183-4.5522 0-2.58308-1.772-4.63457-5.1808-4.63457H6.96435h.0075ZM304.549 1.09668h6.127V23.3553h12.539v4.6978h-18.666V1.09668Zm42.962 26.95622-1.847-4.2677h-10.407l-1.892 4.2677h-6.089L340.145.5h.901l12.667 27.5529h-6.21.008Zm-7.073-15.9477-3.334 7.5021h6.743l-3.251-7.5021h-.165.007ZM176.744 28.0529l-1.847-4.2677H164.49l-1.892 4.2677h-6.089L169.378.5h.901l12.667 27.5529h-6.209.007Zm-7.073-15.9477-3.333 7.5021h6.742l-3.251-7.5021h-.165.007ZM87.0259 28.0533h-6.0818V.574219h.901c1.9297 1.878651 4.7678 4.487901 8.5146 7.879911 3.7391 3.34727 6.5773 5.91927 8.4319 7.71587h.1652V1.10352h6.0892V28.5006h-.863L87.1611 12.4947h-.1202v15.5586h-.015Zm43.3851-4.7074v4.7036h-19.162V1.06738h18.381v4.70357h-12.254v5.97275h10.977v4.5394h-10.977v7.0703h13.035v-.0075Zm26.098-17.55975h-7.891V28.0518h-6.127V5.78615h-7.937V1.09473h21.955v4.69142Zm41.475-4.69924c2.793 0 5.181.77696 7.11 2.3757 1.975 1.55392 2.959 3.72044 2.959 6.4622 0 3.10779-1.772 6.50699-5.429 8.18049l7.156 9.9435h-6.991l-7.155-11.0044v-.5752c4.28-.4931 6.374-3.0257 6.374-5.6853 0-3.10779-2.012-5.07259-5.18-5.07259h-3.702V28.0488h-6.127V1.08691h10.985Zm22.203 27.03919h-6.126V1.06738h6.126V28.1261Zm23.398-27.02747h6.081V17.2671c0 3.293-.983 5.9704-3.003 8.0397-2.012 2.0322-4.895 3.0482-8.635 3.0482-7.688 0-11.638-4.2646-11.638-10.9693V1.09863h6.127V17.3486c0 3.3746 1.93 6.0521 5.549 6.0521 3.619 0 5.511-2.5588 5.511-5.8518V1.09863h.008Z"/>
  <path fill="currentColor" stroke="#000" stroke-width=".338358" d="M357.917 27.7153v.1692h10.895c2.043 0 3.751-.3147 5.117-.9531 1.362-.6364 2.39-1.5084 3.074-2.6193l.001-.0005c.681-1.1154 1.021-2.3702 1.021-3.7599 0-1.3586-.281-2.5279-.852-3.5006-.565-.9639-1.296-1.7128-2.194-2.2421-.806-.488-1.649-.7769-2.526-.8642.793-.2132 1.517-.5402 2.172-.9814.721-.4861 1.296-1.1184 1.723-1.8947v-.0007c.43-.7916.642-1.73656.642-2.8281 0-1.32984-.327-2.52509-.983-3.58089-.65-1.05961-1.631-1.8887-2.932-2.49075-1.297-.61275-2.914-.91459-4.845-.91459h-10.313V27.7153Zm14.334-9.553.001.0009c.37.5964.557 1.2669.557 2.0162 0 .9959-.368 1.8045-1.106 2.4392-.721.6194-1.926.9477-3.654.9477h-4.993v-7.3645h5.122c.971 0 1.797.1801 2.484.5333l.002.0008c.69.3464 1.217.8221 1.587 1.4264Zm-.952-7.3992v.0004c-.361.5288-.858.9418-1.497 1.2382-.639.2882-1.36.434-2.167.434h-4.579V5.5205h4.682c1.391 0 2.408.32426 3.081.94382l.001.00068c.688.62554 1.031 1.41813 1.031 2.39113 0 .74048-.186 1.37367-.552 1.90697Zm26.408-2.03301-.016-.15142c-.115-1.08998-.596-1.92949-1.445-2.53286l-.001-.00045c-.846-.60684-1.956-.91763-3.344-.91763-.977 0-1.805.14926-2.49.44158-.688.29386-1.205.68837-1.56 1.17912-.356.49049-.538 1.04982-.546 1.68352 0 .52796.118.97689.347 1.35331.243.38454.571.71384.988.98734.425.2699.897.4985 1.417.6853.525.1887 1.055.3473 1.588.4759l.002.0004 2.465.6239c1.003.2364 1.966.5558 2.892.9586l-.068.1551c.925.3989 1.752.9017 2.479 1.5086.737.6069 1.319 1.3395 1.747 2.1978.429.8584.643 1.8641.643 3.0172 0 1.5606-.394 2.9348-1.182 4.1226-.788 1.1791-1.927 2.1024-3.417 2.77-1.481.6589-3.275.9884-5.382.9884-2.047 0-3.824-.3208-5.331-.9624l10.214-18.58391Zm0 0h4.91l-.003-.17208c-.026-1.53105-.451-2.89065-1.276-4.07315-.824-1.18886-1.957-2.11337-3.395-2.77491-1.43-.67122-3.091-1.004129-4.978-1.004129-1.861 0-3.534.333129-5.014 1.003249-1.481.66121-2.657 1.59395-3.524 2.79958v.00066c-.862 1.21021-1.29 2.61936-1.29 4.22066 0 1.94833.64 3.52593 1.929 4.71513l.001.0008c1.285 1.1677 3.025 2.0321 5.21 2.6005l2.992.7803.001.0001c.935.241 1.748.5156 2.44.8231l.002.001c.693.296 1.222.6638 1.595 1.0989l.001.0012c.363.4155.553.9463.562 1.6054-.009.727-.224 1.3574-.645 1.8982-.424.5365-1.014.9624-1.78 1.2741-.755.3024-1.64.4559-2.66.4559-.976 0-1.854-.149-2.637-.4443l7.559-14.81021Z"/>
  <path fill="currentColor" d="M270.37 23.0653h-.909l-7.568-8.2257c-.038.0374-.083.0374-.12.0374v13.1716h-5.879V.599609h.901L269.912 15.6988 282.984.599609h.863V28.0561h-5.924V14.8844c-.037-.0373-.082-.0373-.165-.0373l-7.403 8.2257.015-.0075Zm156.054 5.4351-5.995-8.2771 5.749-7.5837h4.877L424.5 20.872l-.022-1.4093 6.823 9.0377h-4.877Zm-9.619 0V12.6396h4.004v15.8608h-4.004Zm72.978-.0007-1.077-2.4885h-6.068l-1.103 2.4885h-3.551l7.504-16.0661h.525l7.386 16.0661h-3.62.004Zm-4.124-9.2991-1.944 4.3745h3.931l-1.895-4.3745h-.097.005Zm-8.441 6.5296v2.7701h-11.285V12.6094h10.826v2.7701h-7.217v3.5176h6.465v2.6734h-6.465v4.164h7.676v-.0043Zm-20.419-13.0476c1.639 0 3.039.4558 4.171 1.3937 1.159.9116 1.736 2.1826 1.736 3.791 0 1.8232-1.04 3.8173-3.185 4.7991l4.198 5.8333h-4.101l-4.198-6.4557v-.3374c2.511-.2893 3.74-1.775 3.74-3.3353 0-1.8232-1.18-2.9758-3.039-2.9758h-2.172v13.1042h-3.594V12.6826h6.444Zm-16.98 15.8173c-1.218 0-2.345-.2131-3.38-.6394-1.02-.4263-1.919-1.0201-2.695-1.7814-.777-.7613-1.378-1.6444-1.804-2.6492-.427-1.0201-.64-2.1164-.64-3.2887 0-1.1876.213-2.2838.64-3.2887.426-1.0049 1.02-1.8803 1.781-2.6264.761-.7612 1.652-1.3474 2.672-1.7585 1.035-.4263 2.162-.6395 3.38-.6395 1.203 0 2.314.2132 3.335.6395 1.035.4111 1.933.9973 2.694 1.7585.777.7461 1.378 1.6291 1.805 2.6492.426 1.0049.639 2.1011.639 3.2887 0 1.1724-.213 2.2686-.639 3.2887-.427 1.0049-1.02 1.888-1.782 2.6492-.761.7461-1.659 1.3323-2.695 1.7586-1.02.4263-2.124.6394-3.311.6394Zm-.046-3.2658c.959 0 1.797-.2132 2.512-.6395.731-.4263 1.295-1.0201 1.69-1.7814.396-.7764.594-1.6671.594-2.672 0-.7613-.114-1.4464-.342-2.0554-.229-.6243-.556-1.1572-.982-1.5987-.427-.4568-.937-.7993-1.531-1.0277-.578-.2436-1.225-.3654-1.941-.3654-.959 0-1.804.2131-2.535.6394-.715.4111-1.271.9973-1.667 1.7586-.396.746-.594 1.6291-.594 2.6492 0 .7613.114 1.454.343 2.0783.228.6242.548 1.1647.959 1.6215.426.4415.936.7841 1.53 1.0277.594.2436 1.249.3654 1.964.3654Z"/>
</svg>
