<svg xmlns="http://www.w3.org/2000/svg" fill="none" viewBox="0 0 359 57">
  <path fill="#00A99D" d="M38.0705 7.64407c-.2535 3.33243-.7767 6.64873-1.6397 9.88963-.8577 3.2355-2.0551 6.3957-3.6356 9.3567-.7929 1.4804-1.6775 2.9125-2.6646 4.2691-.9871 1.3567-2.0712 2.6434-3.2417 3.8385-.3884.3984-.7929.786-1.1975 1.1629.1295.0323.2589.0592.3938.0861l1.3215.2638c.8792.1669 1.7584.3661 2.6484.4953 2.2817.4038 4.5795.7053 6.8935.9367.2805-.183.561-.3714.836-.5652 1.4456-1.0175 2.8588-2.0889 4.148-3.2948 1.2891-1.1951 2.4866-2.4657 3.5384-3.86 1.0357-1.3997 1.9418-2.8964 2.67-4.4899 2.0282-4.4253 2.5783-9.5182 1.8771-14.5034-3.0529-3.88153-7.1146-6.93402-11.7858-8.76982v.17227c.0162 1.67968-.0377 3.34859-.1618 5.0175v-.00538Z"/>
  <path fill="#00D1C2" d="M11.7264 42.7718c.3668-.1508.739-.2908 1.1058-.4523l1.0842-.4953c1.4294-.6891 2.8318-1.4266 4.1587-2.288.8469-.5491 1.6722-1.1305 2.4705-1.7443l-1.7153-.3822-.6743-.1507-.6688-.1777-1.3377-.3553c-.8954-.2369-1.7908-.463-2.67-.7537l-2.6538-.8291-2.61611-.9421c-.43691-.1615-.87382-.3123-1.30533-.4791l-1.28376-.533c-.85764-.3607-1.72067-.7053-2.56752-1.0821L.528607 30.9117 0 30.6587c.399152 5.2705 2.26546 10.1319 5.18359 14.1803 1.45636-.3499 2.89655-.7537 4.31516-1.2274.74975-.2746 1.51035-.5222 2.24385-.8345l-.0162-.0053ZM1.1762 26.7611c.18879.1184.38297.2261.57715.3284l.58255.3176 2.34098 1.2705c.78751.4092 1.59661.7753 2.39491 1.1629l1.20285.576c.40455.1831.81988.35 1.22443.5276l2.45963 1.039 2.5082.9314c.8307.3284 1.6829.5868 2.5352.8668l1.2729.4145.6365.2046.6473.183 2.5891.7214c.3236.0862.6527.1615.9763.2369.7066-.6837 1.3916-1.3944 2.0335-2.1373 1.0195-1.179 1.9526-2.428 2.7887-3.7362.836-1.3082 1.575-2.681 2.2223-4.0915 1.2945-2.821 2.2223-5.8089 2.8372-8.856.6203-3.0471.917-6.1642.9655-9.27591.0216-1.55585-.0216-3.11709-.1294-4.66218-.0378-.56527-.0917-1.13055-.1511-1.69044-1.8555-.387617-3.7811-.592193-5.7553-.592193C13.2856.510744 1.25172 11.7409.0111084 26.0558c.0107879.0054.0215758.0108.0323637.0216l1.1381279.6891-.0054-.0054Z"/>
  <path fill="#00A99D" d="m26.9803 38.9495-1.3701-.1992c-.4585-.0646-.9062-.1615-1.3593-.2369-.3668-.07-.739-.1346-1.1057-.1992-1.3323 1.0014-2.7294 1.9112-4.175 2.7187-1.4401.8183-2.9505 1.502-4.4715 2.1212l-1.1544.4414c-.3829.1454-.7767.2638-1.165.3984-.7714.2746-1.5697.4791-2.35181.716-1.34309.3607-2.69697.6622-4.05625.9098.24273.3177.49624.6245.75515.9314.31825-.0162.63649-.0323.94934-.0485.8954-.0592 1.7854-.1238 2.68077-.1991.4477-.0324.89-.0808 1.3377-.1293.4477-.043.89-.0807 1.3323-.1399 7.1039-.7914 14.1214-2.6541 20.4107-5.9381.2428-.1238.4801-.2584.7174-.3876-1.4132-.1023-2.8264-.2369-4.2342-.4092-.917-.0861-1.8232-.2369-2.7401-.3607v.0108Z"/>
  <path fill="#007A8F" d="M40.7139 39.9993h-.2103c-.1673.1346-.3345.2692-.5017.3984-1.5319 1.1898-3.1447 2.2557-4.8168 3.2247-.8307.4953-1.6883.9314-2.5459 1.3836-.8685.4146-1.7315.8506-2.6215 1.2221-.8792.3984-1.78.7322-2.6754 1.0821-.9062.323-1.8124.6514-2.7293.9367-1.8286.5815-3.6895 1.0821-5.5666 1.4805-1.8771.3984-3.765.7537-5.6636.9691-.7444.0915-1.4888.1615-2.2331.2261C15.8316 54.4273 21.6463 56.5 27.9518 56.5c11.624 0 21.592-7.0579 25.8478-17.109-.7012.0753-1.4024.1453-2.109.2045-3.6409.3123-7.3034.4523-10.9713.4146l-.0054-.0108ZM52.003 21.0869c-.2373 1.9166-.6958 3.8224-1.3646 5.6528-.6689 1.8358-1.5481 3.6016-2.6161 5.2436-1.0734 1.6366-2.3248 3.1601-3.6787 4.5545-.5987.6299-1.2298 1.2274-1.8717 1.8035 3.0422.1507 6.1006.1776 9.1536.0753.8684-.0269 1.7368-.0699 2.6052-.1184C55.3743 35.2457 56 31.9456 56 28.4947c0-5.3405-1.4996-10.3257-4.0941-14.5733.0702.4683.1241.9367.1619 1.4105.178 1.9004.1726 3.8331-.054 5.7496l-.0108.0054Z"/>
  <path fill="currentColor" d="M76 42.1077V15.0864h10.3992c3.2887 0 5.8416.8984 7.6061 2.6654 1.772 1.767 2.673 3.8934 2.673 6.3941 0 2.6655-.9461 4.8368-2.7932 6.6037-1.8471 1.7595-4.2347 2.6206-7.1931 2.6206h-4.5201v8.7301h-6.1644L76 42.1077Zm6.1269-22.4691v9.1868h3.2061c3.7392 0 5.2184-2.0889 5.2184-4.5522 0-2.5831-1.772-4.6346-5.1808-4.6346h-3.2512.0075Zm20.7541-4.5421h6.127v22.2587h12.539v4.6978h-18.666V15.0965Zm42.962 26.9564-1.847-4.2677h-10.407l-1.892 4.2677h-6.09L138.477 14.5h.901l12.667 27.5529h-6.21.008Zm-7.073-15.9477-3.334 7.5022h6.743l-3.252-7.5022h-.165.008ZM251.9 42.0529l-1.847-4.2677h-10.407l-1.892 4.2677h-6.09L244.534 14.5h.901l12.667 27.5529h-6.21.008Zm-7.073-15.9477-3.334 7.5022h6.743l-3.252-7.5022h-.165.008Zm-82.646 15.9475h-6.082V14.5736H157c1.93 1.8787 4.768 4.4879 8.515 7.8799 3.739 3.3473 6.577 5.9193 8.432 7.7159h.165V15.1029h6.089V42.5h-.863l-17.022-16.0059h-.12v15.5586h-.015Zm43.385-4.7062V42.05h-19.161V15.0679h18.38v4.7036h-12.254v5.9728h10.978v4.5393h-10.978v7.0703h13.035v-.0074Zm26.075-17.5605h-7.892v22.2657h-6.127V19.786h-7.936v-4.6914h21.955v4.6914Zm41.498-4.6996c2.794 0 5.181.7769 7.111 2.3757 1.975 1.5539 2.958 3.7204 2.958 6.4622 0 3.1078-1.772 6.507-5.428 8.1805l7.155 9.9436h-6.99l-7.156-11.0045v-.5752c4.28-.4931 6.375-3.0257 6.375-5.6853 0-3.1078-2.012-5.0726-5.181-5.0726h-3.702v22.3376h-6.126v-26.962h10.984Zm21.983 27.0403h-6.127V15.0679h6.127v27.0588Zm23.398-27.0282h6.081V31.267c0 3.293-.983 5.9705-3.003 8.0397-2.012 2.0322-4.895 3.0483-8.635 3.0483-7.688 0-11.638-4.2646-11.638-10.9693V15.0985h6.127v16.2501c0 3.3746 1.93 6.052 5.549 6.052 3.619 0 5.511-2.5587 5.511-5.8518V15.0985h.008Zm26.809 21.9409h-.909l-7.568-8.2258c-.038.0374-.083.0374-.12.0374v13.1717h-5.88V14.5736h.901l13.118 15.0992 13.072-15.0992h.863v27.4565h-5.924V28.8585c-.037-.0374-.082-.0374-.165-.0374l-7.403 8.2258.015-.0075Z"/>
</svg>
