<svg xmlns="http://www.w3.org/2000/svg" fill="none" viewBox="0 0 569 57">
  <path fill="#00A99D" d="M38.0705 7.64435c-.2535 3.33245-.7767 6.64875-1.6397 9.88965-.8577 3.2355-2.0551 6.3957-3.6356 9.3566-.7929 1.4805-1.6775 2.9126-2.6646 4.2692-.9871 1.3567-2.0712 2.6434-3.2417 3.8385-.3884.3984-.7929.786-1.1975 1.1629.1295.0323.2589.0592.3938.0861l1.3215.2638c.8792.1669 1.7584.3661 2.6484.4953 2.2817.4038 4.5795.7052 6.8935.9367.2805-.183.561-.3714.836-.5652 1.4456-1.0175 2.8588-2.0889 4.148-3.2948 1.2891-1.1951 2.4866-2.4657 3.5384-3.86 1.0357-1.3998 1.9418-2.8964 2.67-4.4899 2.0282-4.4253 2.5783-9.5182 1.8771-14.5034-3.0529-3.88155-7.1146-6.93404-11.7858-8.76984v.17228c.0162 1.67967-.0377 3.34858-.1618 5.01749v-.00538Z"/>
  <path fill="#00D1C2" d="M11.7264 42.7722c.3668-.1507.739-.2907 1.1058-.4522l1.0842-.4953c1.4294-.6891 2.8318-1.4266 4.1587-2.288.8469-.5491 1.6722-1.1306 2.4705-1.7443l-1.7153-.3822-.6743-.1508-.6688-.1776-1.3377-.3553c-.8954-.2369-1.7908-.463-2.67-.7537l-2.6538-.8291-2.61611-.9421c-.43691-.1615-.87382-.3123-1.30533-.4792l-1.28376-.5329c-.85764-.3607-1.72067-.7053-2.56752-1.0821L.528607 30.9122 0 30.6592c.399152 5.2705 2.26546 10.1319 5.18359 14.1803 1.45636-.3499 2.89655-.7537 4.31516-1.2274.74975-.2746 1.51035-.5222 2.24385-.8345l-.0162-.0054ZM1.17626 26.7611c.18879.1184.38297.2261.57716.3284l.58254.3176 2.34098 1.2706c.78751.4091 1.59661.7752 2.39491 1.1628l1.20285.576c.40455.1831.81988.35 1.22443.5276l2.45967 1.0391 2.5082.9313c.8306.3284 1.6829.5868 2.5351.8668l1.273.4145.6365.2046.6472.183 2.5891.7214c.3237.0862.6527.1615.9764.2369.7066-.6837 1.3916-1.3943 2.0335-2.1373 1.0194-1.179 1.9526-2.428 2.7886-3.7362.8361-1.3082 1.5751-2.681 2.2223-4.0915 1.2946-2.821 2.2224-5.8089 2.8373-8.856.6203-3.0471.9169-6.1642.9655-9.27588.0216-1.55586-.0216-3.1171-.1295-4.66218-.0377-.56528-.0917-1.13055-.151-1.69045C31.8355.704576 29.9098.5 27.9357.5 13.2857.510767 1.25178 11.7409.0111694 26.0559c.0107879.0053.0215758.0107.0323637.0215l1.1381269.6891-.0054-.0054Z"/>
  <path fill="#00A99D" d="m26.9803 38.9497-1.3701-.1992c-.4585-.0646-.9062-.1615-1.3593-.2369-.3668-.0699-.739-.1345-1.1057-.1991-1.3323 1.0013-2.7294 1.9111-4.175 2.7187-1.4401.8183-2.9505 1.502-4.4715 2.1211l-1.1544.4414c-.3829.1454-.7767.2638-1.165.3984-.7714.2746-1.5697.4792-2.35181.716-1.34309.3607-2.69697.6622-4.05625.9099.24273.3176.49624.6245.75515.9313.31825-.0161.63649-.0323.94934-.0484.8954-.0592 1.7854-.1239 2.68077-.1992.4477-.0323.89-.0808 1.3377-.1292.4477-.0431.89-.0808 1.3323-.14 7.1039-.7914 14.1214-2.6541 20.4107-5.9381.2428-.1238.4801-.2584.7174-.3876-1.4132-.1023-2.8264-.2369-4.2342-.4092-.917-.0861-1.8232-.2368-2.7401-.3607v.0108Z"/>
  <path fill="#007A8F" d="M40.714 39.999h-.2104c-.1672.1346-.3344.2691-.5016.3984-1.5319 1.1897-3.1447 2.2557-4.8168 3.2247-.8307.4953-1.6883.9314-2.546 1.3836-.8684.4145-1.7314.8506-2.6214 1.2221-.8792.3984-1.78.7321-2.6754 1.0821-.9062.323-1.8124.6514-2.7294.9367-1.8285.5814-3.6894 1.0821-5.5665 1.4805-1.8771.3984-3.765.7537-5.6637.969-.7443.0916-1.4887.1615-2.2331.2262 4.682 3.5047 10.4967 5.5773 16.8022 5.5773 11.624 0 21.592-7.0578 25.8478-17.109-.7012.0754-1.4024.1454-2.109.2046-3.6409.3122-7.3034.4522-10.9713.4145l-.0054-.0107Zm11.289-18.9126c-.2373 1.9166-.6958 3.8224-1.3647 5.6528-.6688 1.8358-1.548 3.6016-2.616 5.2436-1.0734 1.6366-2.3248 3.1602-3.6787 4.5545-.5987.6299-1.2298 1.2275-1.8717 1.8035 3.0422.1507 6.1006.1777 9.1535.0754.8685-.0269 1.7369-.07 2.6053-.1185 1.1435-3.0524 1.7692-6.3526 1.7692-9.8035 0-5.3405-1.4995-10.3257-4.094-14.5733.0701.4684.1241.9367.1618 1.4105.178 1.9004.1726 3.8331-.0539 5.7497l-.0108.0053Z"/>
  <path fill="#000" fill-rule="evenodd" d="m143.995 37.7276 1.847 4.2677h6.202l-12.666-27.5529h-.901l-12.87 27.5529h6.09l1.892-4.2677h10.406Zm-8.559-4.1779 3.334-7.5022h.157l3.251 7.5022h-6.742Zm-26.428-18.5109h-6.127v26.9564h18.666v-4.6978h-12.539V15.0388ZM76 42.0502V15.0289h10.3992c3.2887 0 5.8415.8984 7.606 2.6654 1.772 1.767 2.673 3.8933 2.673 6.3941 0 2.6654-.946 4.8367-2.7931 6.6037-1.8471 1.7595-4.2348 2.6205-7.1931 2.6205h-4.5201v8.7301h-6.1644L76 42.0502Zm6.1269-22.4691v9.1868h3.2061c3.7392 0 5.2183-2.089 5.2183-4.5523 0-2.583-1.7719-4.6345-5.1808-4.6345h-3.2436Zm303.7041-4.5423h-6.127v26.9564h18.666v-4.6978h-12.539V15.0388Zm36.835 26.9565-1.847-4.2677h-10.407l-1.892 4.2677h-6.089L415.3 14.4424h.901l12.667 27.5529h-6.202Zm-7.073-15.9478-3.334 7.5022h6.743l-3.251-7.5022h-.158ZM250.052 37.7276l1.847 4.2677h6.202l-12.667-27.5529h-.901l-12.869 27.5529h6.089l1.892-4.2677h10.407Zm-8.559-4.1779 3.333-7.5022h.158l3.251 7.5022h-6.742Zm-79.312 8.4454h-6.082v-27.479H157c1.93 1.8787 4.768 4.4879 8.515 7.8799 3.739 3.3473 6.577 5.9193 8.432 7.7159h.165V15.0454h6.089v27.397h-.863l-17.022-16.0058h-.12v15.5585h-.015Zm43.385-.003V37.296h-13.035v-7.0703h10.977v-4.5393h-10.977v-5.9728h12.254v-4.7035h-18.381v26.982h19.162Zm26.098-22.2638h-7.891v22.2656h-6.127V19.7283h-7.936v-4.6914h21.954v4.6914Zm48.585-2.3238c-1.929-1.5987-4.317-2.3756-7.11-2.3756h-10.985v26.9619h6.127V19.6532h3.702c3.168 0 5.18 1.9648 5.18 5.0727 0 2.6596-2.094 5.1921-6.374 5.6852v.5753l7.155 11.0044h6.991l-7.156-9.9436c3.657-1.6734 5.429-5.0726 5.429-8.1805 0-2.7417-.984-4.9082-2.959-6.4622Zm15.094 24.6643h-6.127V15.0101h6.127v27.0587Zm29.479-27.0279h-6.09v16.4502c0 3.293-1.892 5.8518-5.511 5.8518s-5.549-2.6774-5.549-6.052v-16.25h-6.127v16.287c0 6.7048 3.95 10.9694 11.638 10.9694 3.74 0 6.623-1.0161 8.635-3.0483 2.02-2.0693 3.004-4.7467 3.004-8.0397V15.0409Zm108.081 26.9555V15.0272h10.482c1.947 0 3.591.3041 4.917.9305 1.326.6135 2.334 1.4629 3.004 2.5551.674 1.0845 1.008 2.311 1.008 3.6698 0 1.1132-.216 2.0873-.662 2.9089l-.001.0014c-.44.7994-1.032 1.4521-1.777 1.9535-.478.3221-.991.5845-1.54.7875.65.1467 1.279.4049 1.887.7725.924.5451 1.675 1.3154 2.253 2.3019.589 1.0038.875 2.2041.875 3.5861 0 1.4186-.347 2.7043-1.046 3.8481l-.001.001c-.704 1.1434-1.759 2.0358-3.146 2.6839-1.395.652-3.13.969-5.189.969h-11.064Zm14.36-9.8013-.001-.0017c-.352-.5753-.855-1.0302-1.519-1.3636l-.003-.0015c-.658-.3384-1.457-.5146-2.407-.5146h-4.953v7.0262h4.824c1.714 0 2.869-.3272 3.544-.907.7-.6018 1.047-1.3631 1.047-2.3108 0-.7197-.179-1.359-.532-1.927Zm-.949-7.5842V24.61c.345-.5017.523-1.1005.523-1.8112 0-.9275-.325-1.6739-.976-2.2659l-.001-.0014c-.631-.5801-1.599-.8991-2.967-.8991h-4.513v6.5768h4.41c.786 0 1.483-.1419 2.097-.4187.613-.2847 1.085-.6785 1.427-1.1796Zm26.364-2.0726.032.3029h5.234l-.006-.3442c-.026-1.5622-.46-2.9549-1.306-4.1667-.843-1.216-2.001-2.159-3.462-2.8319-1.458-.6835-3.144-1.0198-5.05-1.0198-1.881 0-3.578.3368-5.084 1.0181-1.504.6722-2.705 1.623-3.591 2.8551l-.001.0013c-.883 1.2413-1.322 2.6854-1.322 4.3188 0 1.9892.656 3.6142 1.985 4.8394l.002.0017c1.31 1.191 3.077 2.0659 5.28 2.6391l2.994.7804c.928.2393 1.732.5111 2.413.8139l.005.002c.675.2885 1.18.6428 1.533 1.0535l.002.0024c.332.38.511.8694.52 1.4942-.009.6909-.213 1.2843-.609 1.7937-.403.5093-.967.9191-1.71 1.2217-.731.2925-1.594.4435-2.597.4435-.958 0-1.816-.1464-2.577-.4333-.745-.2838-1.34-.7093-1.796-1.2745-.447-.5532-.71-1.2559-.774-2.1274l-.023-.3134h-5.355l.014.3515c.071 1.82.539 3.3844 1.42 4.6771l.001.0014c.887 1.2885 2.114 2.2641 3.666 2.9284 1.558.6633 3.382.9894 5.463.9894 2.14 0 3.985-.3349 5.52-1.0179 1.54-.6896 2.732-1.6512 3.56-2.8909l.001-.0009c.828-1.2485 1.238-2.6891 1.238-4.3096 0-1.195-.222-2.2544-.678-3.1682-.449-.9002-1.061-1.6702-1.834-2.3073-.754-.6286-1.608-1.1478-2.56-1.5585-.934-.4066-1.907-.7291-2.919-.9676l-2.463-.6236-.004-.0009c-.527-.1271-1.051-.284-1.571-.4707-.508-.1827-.969-.4057-1.382-.6681-.398-.261-.708-.5728-.936-.9343-.21-.3454-.322-.7621-.322-1.2631.008-.5999.18-1.1246.514-1.5854.334-.4613.824-.8385 1.49-1.1228.658-.2812 1.463-.428 2.423-.428 1.364 0 2.436.3051 3.245.8859l.002.0009c.807.5739 1.265 1.3685 1.375 2.4127ZM345.525 37.008h-.008l7.396-8.2182c.083 0 .128 0 .165.0373v13.1717h5.924V14.5423h-.863l-13.072 15.0992-13.117-15.0992h-.901v27.449h5.879V28.8197c.037 0 .082 0 .12-.0374l7.568 8.2257h.901l-.007.0075.015-.0075Zm150.439-2.3175 5.615 7.7521h4.877l-6.266-8.2999 6.02-7.5609h-4.877l-5.369 7.082v-7.082h-4.004v15.8608h4.004v-7.7521Zm68.974 7.7519-1.077-2.4885h-6.068l-1.103 2.4885h-3.551l7.504-16.0661h.526l7.385 16.0661h-3.616Zm-4.124-9.2991-1.944 4.3745h3.932l-1.896-4.3745h-.092Zm-8.44 9.299v-2.7657h-7.677v-4.164h6.465v-2.6734h-6.465v-3.5177h7.217v-2.7701h-10.825v15.8909h11.285Zm-20.42-15.8169c1.639 0 3.039.4558 4.171 1.3937 1.159.9116 1.736 2.1825 1.736 3.791 0 1.8232-1.04 3.8173-3.185 4.799l4.198 5.8334h-4.101l-4.198-6.4557v-.3375c2.511-.2892 3.74-1.775 3.74-3.3352 0-1.8232-1.18-2.9758-3.039-2.9758h-2.172v13.1042h-3.594V26.6254h6.444Zm-20.36 15.1776c1.035.4264 2.162.6395 3.38.6395 1.187 0 2.291-.2131 3.311-.6395 1.036-.4263 1.934-1.0124 2.695-1.7585.762-.7613 1.355-1.6443 1.782-2.6492.426-1.0201.639-2.1163.639-3.2887 0-1.1876-.213-2.2838-.639-3.2887-.427-1.0201-1.028-1.9031-1.805-2.6492-.761-.7613-1.659-1.3474-2.694-1.7585-1.021-.4263-2.132-.6395-3.335-.6395-1.218 0-2.345.2132-3.38.6395-1.02.4111-1.911.9972-2.672 1.7585-.761.7461-1.355 1.6215-1.781 2.6264-.427 1.0049-.64 2.1011-.64 3.2887 0 1.1723.213 2.2686.64 3.2887.426 1.0048 1.027 1.8879 1.804 2.6492.776.7612 1.675 1.355 2.695 1.7813Zm5.846-3.2658c-.715.4263-1.553.6395-2.512.6395-.715 0-1.37-.1218-1.964-.3654-.594-.2436-1.104-.5862-1.53-1.0278-.411-.4567-.731-.9972-.959-1.6215-.229-.6242-.343-1.317-.343-2.0782 0-1.0201.198-1.9032.594-2.6492.396-.7613.952-1.3475 1.667-1.7586.731-.4263 1.576-.6394 2.535-.6394.716 0 1.363.1218 1.941.3654.594.2283 1.104.5709 1.531 1.0277.426.4415.753.9744.982 1.5986.228.6091.342 1.2942.342 2.0555 0 1.0048-.198 1.8955-.594 2.672-.395.7613-.959 1.3551-1.69 1.7814Z" clip-rule="evenodd"/>
</svg>
