<svg xmlns="http://www.w3.org/2000/svg" width="569" height="57" fill="none" viewBox="0 0 569 57">
  <g clip-path="url(#a)">
    <path fill="#00A99D" d="M38.0705 7.64435c-.2535 3.33245-.7767 6.64875-1.6397 9.88965-.8577 3.2355-2.0551 6.3957-3.6356 9.3566-.7929 1.4805-1.6775 2.9126-2.6646 4.2692-.9871 1.3567-2.0712 2.6434-3.2417 3.8385-.3884.3984-.7929.786-1.1975 1.1629.1295.0323.2589.0592.3938.0861l1.3215.2638c.8792.1669 1.7584.3661 2.6484.4953 2.2817.4038 4.5795.7052 6.8935.9367.2805-.183.561-.3714.836-.5652 1.4456-1.0175 2.8588-2.0889 4.148-3.2948 1.2891-1.1951 2.4866-2.4657 3.5384-3.86 1.0357-1.3998 1.9418-2.8964 2.67-4.4899 2.0282-4.4253 2.5783-9.5182 1.8771-14.5034-3.0529-3.88155-7.1146-6.93404-11.7858-8.76984v.17228c.0162 1.67967-.0377 3.34858-.1618 5.01749v-.00538Z"/>
    <path fill="#00D1C2" d="M11.7264 42.7722c.3668-.1507.739-.2907 1.1058-.4522l1.0842-.4953c1.4294-.6891 2.8318-1.4266 4.1587-2.288.8469-.5491 1.6722-1.1306 2.4705-1.7443l-1.7153-.3822-.6743-.1508-.6688-.1776-1.3377-.3553c-.8954-.2369-1.7908-.463-2.67-.7537l-2.6538-.8291-2.61611-.9421c-.43691-.1615-.87382-.3123-1.30533-.4792l-1.28376-.5329c-.85764-.3607-1.72067-.7053-2.56752-1.0821L.528607 30.9122 0 30.6592c.399152 5.2705 2.26546 10.1319 5.18359 14.1803 1.45636-.3499 2.89655-.7537 4.31516-1.2274.74975-.2746 1.51035-.5222 2.24385-.8345l-.0162-.0054ZM1.17626 26.7611c.18879.1184.38297.2261.57716.3284l.58254.3176 2.34098 1.2706c.78751.4091 1.59661.7752 2.39491 1.1628l1.20285.576c.40455.1831.81988.35 1.22443.5276l2.45967 1.0391 2.5082.9313c.8306.3284 1.6829.5868 2.5351.8668l1.273.4145.6365.2046.6472.183 2.5891.7214c.3237.0862.6527.1615.9764.2369.7066-.6837 1.3916-1.3943 2.0335-2.1373 1.0194-1.179 1.9526-2.428 2.7886-3.7362.8361-1.3082 1.5751-2.681 2.2223-4.0915 1.2946-2.821 2.2224-5.8089 2.8373-8.856.6203-3.0471.9169-6.1642.9655-9.27588.0216-1.55586-.0216-3.1171-.1295-4.66218-.0377-.56528-.0917-1.13055-.151-1.69045C31.8355.704576 29.9098.5 27.9357.5 13.2857.510767 1.25178 11.7409.0111694 26.0559c.0107879.0053.0215758.0107.0323637.0215l1.1381269.6891-.0054-.0054Z"/>
    <path fill="#00A99D" d="m26.9803 38.9497-1.3701-.1992c-.4585-.0646-.9062-.1615-1.3593-.2369-.3668-.0699-.739-.1345-1.1057-.1991-1.3323 1.0013-2.7294 1.9111-4.175 2.7187-1.4401.8183-2.9505 1.502-4.4715 2.1211l-1.1544.4414c-.3829.1454-.7767.2638-1.165.3984-.7714.2746-1.5697.4792-2.35181.716-1.34309.3607-2.69697.6622-4.05625.9099.24273.3176.49624.6245.75515.9313.31825-.0161.63649-.0323.94934-.0484.8954-.0592 1.7854-.1239 2.68077-.1992.4477-.0323.89-.0808 1.3377-.1292.4477-.0431.89-.0808 1.3323-.14 7.1039-.7914 14.1214-2.6541 20.4107-5.9381.2428-.1238.4801-.2584.7174-.3876-1.4132-.1023-2.8264-.2369-4.2342-.4092-.917-.0861-1.8232-.2368-2.7401-.3607v.0108Z"/>
    <path fill="#007A8F" d="M40.714 39.999h-.2104c-.1672.1346-.3344.2691-.5016.3984-1.5319 1.1897-3.1447 2.2557-4.8168 3.2247-.8307.4953-1.6883.9314-2.546 1.3836-.8684.4145-1.7314.8506-2.6214 1.2221-.8792.3984-1.78.7321-2.6754 1.0821-.9062.323-1.8124.6514-2.7294.9367-1.8285.5814-3.6894 1.0821-5.5665 1.4805-1.8771.3984-3.765.7537-5.6637.969-.7443.0916-1.4887.1615-2.2331.2262 4.682 3.5047 10.4967 5.5773 16.8022 5.5773 11.624 0 21.592-7.0578 25.8478-17.109-.7012.0754-1.4024.1454-2.109.2046-3.6409.3122-7.3034.4522-10.9713.4145l-.0054-.0107Zm11.289-18.9126c-.2373 1.9166-.6958 3.8224-1.3647 5.6528-.6688 1.8358-1.548 3.6016-2.616 5.2436-1.0734 1.6366-2.3248 3.1602-3.6787 4.5545-.5987.6299-1.2298 1.2275-1.8717 1.8035 3.0422.1507 6.1006.1777 9.1535.0754.8685-.0269 1.7369-.07 2.6053-.1185 1.1435-3.0524 1.7692-6.3526 1.7692-9.8035 0-5.3405-1.4995-10.3257-4.094-14.5733.0701.4684.1241.9367.1618 1.4105.178 1.9004.1726 3.8331-.0539 5.7497l-.0108.0053Z"/>
  </g>
  <path fill="currentColor" d="M102.881 15.0967h6.127v22.2586h12.539v4.6978h-18.666V15.0967Zm42.961 26.9562-1.847-4.2677h-10.406l-1.892 4.2677h-6.09L138.477 14.5h.901l12.666 27.5529h-6.209.007Zm-7.072-15.9477-3.334 7.5021h6.742l-3.251-7.5021h-.165.008ZM76 42.1082V15.0869h10.3992c3.2887 0 5.8415.8985 7.606 2.6655 1.772 1.7669 2.673 3.8933 2.673 6.394 0 2.6655-.946 4.8368-2.7931 6.6037-1.8471 1.7595-4.2348 2.6206-7.1931 2.6206h-4.5201v8.73h-6.1644L76 42.1082Zm6.1269-22.4691v9.1868h3.2061c3.7392 0 5.2183-2.0889 5.2183-4.5522 0-2.5831-1.7719-4.6346-5.1808-4.6346h-3.2511.0075Zm297.5771-4.5424h6.127v22.2586h12.539v4.6978h-18.666V15.0967Zm42.962 26.9562-1.847-4.2677h-10.407l-1.892 4.2677h-6.089L415.3 14.5h.901l12.667 27.5529h-6.21.008Zm-7.073-15.9477-3.334 7.5021h6.743l-3.251-7.5021h-.165.007ZM251.899 42.0529l-1.847-4.2677h-10.407l-1.892 4.2677h-6.089L244.533 14.5h.901l12.667 27.5529h-6.209.007Zm-7.073-15.9477-3.333 7.5021h6.742l-3.251-7.5021h-.165.007Zm-82.645 15.9481h-6.082V14.5742H157c1.93 1.8787 4.768 4.4879 8.515 7.8799 3.739 3.3473 6.577 5.9193 8.432 7.7159h.165V15.1035h6.089v27.3971h-.863l-17.022-16.0059h-.12v15.5586h-.015Zm43.385-4.7074v4.7036h-19.162V15.0674h18.381v4.7036h-12.254v5.9727h10.977v4.5394h-10.977v7.0703h13.035v-.0075Zm26.098-17.5597h-7.891v22.2656h-6.127V19.7862h-7.937v-4.6915h21.955v4.6915Zm41.475-4.6993c2.793 0 5.181.777 7.11 2.3757 1.975 1.5539 2.959 3.7204 2.959 6.4622 0 3.1078-1.772 6.507-5.429 8.1805l7.156 9.9435h-6.991l-7.155-11.0044v-.5752c4.28-.4931 6.374-3.0257 6.374-5.6853 0-3.1078-2.012-5.0726-5.18-5.0726h-3.702v22.3375h-6.127V15.0869h10.985Zm22.204 27.0392h-6.127V15.0674h6.127v27.0587Zm23.397-27.0275h6.082v16.1685c0 3.293-.984 5.9704-3.004 8.0397-2.012 2.0322-4.895 3.0482-8.635 3.0482-7.688 0-11.638-4.2646-11.638-10.9693V15.0986h6.127v16.25c0 3.3746 1.93 6.0521 5.549 6.0521 3.619 0 5.511-2.5588 5.511-5.8518V15.0986h.008Z"/>
  <path fill="currentColor" stroke="#000" stroke-width=".338358" d="M433.072 41.7153v.1692h10.895c2.043 0 3.751-.3147 5.117-.9531 1.362-.6364 2.39-1.5084 3.074-2.6193l.001-.0005c.681-1.1154 1.021-2.3702 1.021-3.7599 0-1.3586-.281-2.5279-.852-3.5006-.565-.9639-1.296-1.7128-2.194-2.2421-.806-.488-1.649-.7769-2.526-.8642.793-.2132 1.517-.5402 2.172-.9814.721-.4861 1.296-1.1184 1.723-1.8947v-.0007c.43-.7916.642-1.7366.642-2.8281 0-1.3298-.327-2.5251-.983-3.5809-.65-1.0596-1.631-1.8887-2.932-2.4907-1.297-.6128-2.914-.9146-4.845-.9146h-10.313v26.4616Zm14.334-9.553.001.0009c.37.5964.557 1.2669.557 2.0162 0 .9959-.368 1.8045-1.106 2.4392-.721.6194-1.926.9477-3.654.9477h-4.993v-7.3645h5.122c.971 0 1.797.1801 2.484.5333l.002.0008c.69.3464 1.217.8221 1.587 1.4264Zm-.952-7.3992v.0004c-.361.5288-.858.9418-1.497 1.2382-.639.2882-1.36.434-2.167.434h-4.579v-6.9152h4.682c1.391 0 2.408.3243 3.081.9438l.001.0007c.688.6255 1.031 1.4181 1.031 2.3911 0 .7405-.186 1.3737-.552 1.907Zm26.408-2.033-.016-.1514c-.115-1.09-.596-1.9295-1.445-2.5329l-.001-.0004c-.846-.6069-1.956-.9177-3.344-.9177-.977 0-1.805.1493-2.49.4416-.688.2939-1.205.6884-1.56 1.1791-.356.4905-.538 1.0498-.546 1.6836 0 .5279.118.9768.347 1.3533.243.3845.571.7138.988.9873.425.2699.897.4985 1.417.6853.525.1887 1.055.3473 1.588.4759l.002.0004 2.465.6239c1.003.2364 1.966.5558 2.892.9586l-.068.1551c.925.3989 1.752.9017 2.479 1.5086.737.6069 1.319 1.3395 1.747 2.1978.429.8584.643 1.8641.643 3.0172 0 1.5606-.394 2.9348-1.182 4.1226-.788 1.1791-1.927 2.1024-3.417 2.77-1.481.6589-3.275.9884-5.382.9884-2.047 0-3.824-.3208-5.331-.9624l10.214-18.5839Zm0 0h4.91l-.003-.1721c-.026-1.531-.451-2.8906-1.276-4.0731-.824-1.1889-1.957-2.1134-3.395-2.775-1.43-.6712-3.091-1.0041-4.978-1.0041-1.861 0-3.534.3332-5.014 1.0033-1.481.6612-2.657 1.5939-3.524 2.7996v.0006c-.862 1.2102-1.29 2.6194-1.29 4.2207 0 1.9483.64 3.5259 1.929 4.7151l.001.0008c1.285 1.1677 3.025 2.0321 5.21 2.6005l2.992.7803.001.0001c.935.241 1.748.5156 2.44.8231l.002.001c.693.296 1.222.6638 1.595 1.0989l.001.0012c.363.4155.553.9463.562 1.6054-.009.727-.224 1.3574-.645 1.8982-.424.5365-1.014.9624-1.78 1.2741-.755.3024-1.64.4559-2.66.4559-.976 0-1.854-.149-2.637-.4443l7.559-14.8102Z"/>
  <path fill="currentColor" d="M345.525 37.0653h-.909l-7.568-8.2257c-.038.0374-.083.0374-.12.0374v13.1716h-5.879v-27.449h.901l13.117 15.0992 13.072-15.0992h.863v27.4565h-5.924V28.8844c-.037-.0373-.082-.0373-.165-.0373l-7.403 8.2257.015-.0075Zm156.054 5.4351-5.995-8.2771 5.749-7.5837h4.877l-6.555 8.2324-.022-1.4093 6.823 9.0377h-4.877Zm-9.619 0V26.6396h4.004v15.8608h-4.004Zm72.978-.0007-1.077-2.4885h-6.068l-1.103 2.4885h-3.551l7.504-16.0661h.526l7.385 16.0661h-3.62.004Zm-4.124-9.2991-1.944 4.3745h3.932l-1.896-4.3745h-.097.005Zm-8.44 6.5296v2.7701h-11.286V26.6094h10.826v2.7701h-7.217v3.5176h6.465v2.6734h-6.465v4.164h7.677v-.0043Zm-20.42-13.0476c1.639 0 3.039.4558 4.171 1.3937 1.159.9116 1.736 2.1826 1.736 3.791 0 1.8232-1.04 3.8173-3.185 4.7991l4.198 5.8333h-4.101l-4.198-6.4557v-.3374c2.511-.2893 3.74-1.775 3.74-3.3353 0-1.8232-1.18-2.9758-3.039-2.9758h-2.172v13.1042h-3.594V26.6826h6.444Zm-16.98 15.8173c-1.218 0-2.345-.2131-3.38-.6394-1.02-.4263-1.919-1.0201-2.695-1.7814-.777-.7613-1.378-1.6444-1.804-2.6492-.427-1.0201-.64-2.1164-.64-3.2887 0-1.1876.213-2.2838.64-3.2887.426-1.0049 1.02-1.8803 1.781-2.6264.761-.7612 1.652-1.3474 2.672-1.7585 1.035-.4263 2.162-.6395 3.38-.6395 1.203 0 2.314.2132 3.335.6395 1.035.4111 1.933.9973 2.694 1.7585.777.7461 1.378 1.6291 1.805 2.6492.426 1.0049.639 2.1011.639 3.2887 0 1.1724-.213 2.2686-.639 3.2887-.427 1.0049-1.02 1.888-1.782 2.6492-.761.7461-1.659 1.3323-2.695 1.7586-1.02.4263-2.124.6394-3.311.6394Zm-.046-3.2658c.959 0 1.797-.2132 2.512-.6395.731-.4263 1.295-1.0201 1.69-1.7814.396-.7764.594-1.6671.594-2.672 0-.7613-.114-1.4464-.342-2.0554-.229-.6243-.556-1.1572-.982-1.5987-.427-.4568-.937-.7993-1.531-1.0277-.578-.2436-1.225-.3654-1.941-.3654-.959 0-1.804.2131-2.535.6394-.715.4111-1.271.9973-1.667 1.7586-.396.746-.594 1.6291-.594 2.6492 0 .7613.114 1.454.343 2.0783.228.6242.548 1.1647.959 1.6215.426.4415.936.7841 1.53 1.0277.594.2436 1.249.3654 1.964.3654Z"/>
  <defs>
    <clipPath id="a">
      <path fill="#fff" d="M0 .5h56v56H0z"/>
    </clipPath>
  </defs>
</svg>
