<svg xmlns="http://www.w3.org/2000/svg" fill="none" viewBox="0 0 494 29">
  <path fill="#000" fill-rule="evenodd" d="m68.8404 23.7852 1.8471 4.2677h6.2019L64.2227.5h-.901L50.4523 28.0529h6.0893l1.8921-4.2677h10.4067Zm-8.5596-4.1779 3.3337-7.5021h.1577l3.2512 7.5021h-6.7426ZM33.8527 1.09668h-6.1269V28.0531h18.666v-4.6978H33.8527V1.09668ZM.844971 28.1082V1.08691H11.2441c3.2887 0 5.8416.89847 7.6061 2.66545 1.772 1.76698 2.673 3.89334 2.673 6.39404 0 2.6655-.9461 4.8368-2.7931 6.6037-1.8471 1.7595-4.2348 2.6206-7.1931 2.6206H7.0169v8.73H.852486l-.007515.0075ZM6.97185 5.63913v9.18677H10.178c3.7391 0 5.2183-2.0889 5.2183-4.5522 0-2.58308-1.772-4.63457-5.1808-4.63457H6.97185ZM310.676 1.09668h-6.127V28.0531h18.666v-4.6978h-12.539V1.09668Zm36.835 26.95622-1.847-4.2677h-10.407l-1.892 4.2677h-6.089L340.145.5h.901l12.667 27.5529h-6.202Zm-7.073-15.9477-3.334 7.5021h6.743l-3.251-7.5021h-.158Zm-165.541 11.68 1.847 4.2677h6.202L170.279.5h-.901l-12.869 27.5529h6.089l1.892-4.2677h10.407Zm-8.559-4.1779 3.333-7.5021h.158l3.251 7.5021h-6.742Zm-79.3121 8.446h-6.0818V.574219h.901c1.9297 1.878651 4.7678 4.487901 8.5145 7.879911 3.7392 3.34727 6.5774 5.91927 8.432 7.71587h.1652V1.10352h6.0892V28.5006h-.863L87.1611 12.4947h-.1202v15.5586h-.015Zm43.3851-.0038v-4.6961h-13.035v-7.0703h10.977v-4.5394h-10.977V5.77096h12.254V1.06738h-18.381V28.0495h19.162Zm26.098-22.26335h-7.891V28.0518h-6.127V5.78615h-7.937V1.09473h21.955v4.69142Zm48.585-2.32354c-1.929-1.59874-4.317-2.3757-7.11-2.3757h-10.985V28.0488h6.127V5.71131h3.702c3.168 0 5.18 1.9648 5.18 5.07259 0 2.6596-2.094 5.1922-6.374 5.6853v.5752l7.155 11.0044h6.991l-7.156-9.9435c3.657-1.6735 5.429-5.0727 5.429-8.18049 0-2.74177-.984-4.90828-2.959-6.4622Zm15.093 24.66349h-6.126V1.06738h6.126V28.1261Zm29.48-27.02747h-6.09V17.5489c0 3.293-1.892 5.8518-5.511 5.8518s-5.549-2.6775-5.549-6.0521V1.09863h-6.127V17.3857c0 6.7047 3.95 10.9693 11.638 10.9693 3.74 0 6.623-1.016 8.635-3.0482 2.02-2.0693 3.004-4.7467 3.004-8.0397V1.09863ZM357.748 28.0542V1.08496h10.482c1.947 0 3.591.30413 4.917.93051 1.326.61359 2.334 1.46304 3.004 2.55531.674 1.0845 1.008 2.31092 1.008 3.66958 0 1.11325-.216 2.08734-.662 2.90894l-.001.0014c-.44.7994-1.032 1.452-1.777 1.9535-.478.3221-.991.5845-1.54.7875.65.1466 1.279.4048 1.887.7725.924.545 1.675 1.3154 2.253 2.3018.589 1.0039.875 2.2042.875 3.5861 0 1.4187-.347 2.7044-1.046 3.8481l-.001.0011c-.704 1.1434-1.759 2.0358-3.146 2.6839-1.395.652-3.13.969-5.189.969h-11.064Zm14.36-9.8013-.001-.0017c-.352-.5754-.855-1.0302-1.519-1.3637l-.003-.0014c-.658-.3384-1.457-.5146-2.407-.5146h-4.953v7.0261h4.824c1.714 0 2.869-.3271 3.544-.9069.7-.6018 1.046-1.3631 1.046-2.3109 0-.7196-.178-1.3589-.531-1.9269Zm-.949-7.5842v-.001c.345-.5016.523-1.10043.523-1.81111 0-.9275-.325-1.67391-.976-2.26597l-.002-.00136c-.63-.5801-1.598-.89912-2.966-.89912h-4.513V12.267h4.41c.785 0 1.483-.1419 2.097-.4187.613-.2847 1.085-.6785 1.427-1.1796Zm26.364-2.07278.032.30284h5.234l-.006-.34415c-.026-1.5622-.46-2.95489-1.306-4.16678-.843-1.21595-2.001-2.15897-3.462-2.83181-1.458-.683516-3.144-1.019887-5.05-1.019887-1.881 0-3.578.336807-5.084 1.018137-1.504.67217-2.705 1.62297-3.591 2.85511l-.001.00132c-.883 1.2413-1.322 2.68542-1.322 4.31876 0 1.98914.656 3.61414 1.985 4.83944l.002.0017c1.31 1.191 3.077 2.0659 5.28 2.639l2.994.7805c.928.2393 1.732.5111 2.413.8139l.005.002c.675.2885 1.18.6428 1.533 1.0534l.002.0024c.332.3801.511.8695.52 1.4943-.009.6909-.213 1.2843-.609 1.7937-.403.5093-.967.9191-1.71 1.2217-.731.2925-1.594.4434-2.596.4434-.959 0-1.817-.1463-2.578-.4332-.745-.2838-1.34-.7094-1.796-1.2746-.447-.5531-.71-1.2558-.774-2.1273l-.023-.3134h-5.355l.014.3514c.071 1.8201.539 3.3844 1.42 4.6772l.001.0013c.887 1.2886 2.114 2.2641 3.666 2.9285 1.558.6633 3.382.9894 5.463.9894 2.14 0 3.985-.3349 5.52-1.0179 1.54-.6896 2.732-1.6512 3.56-2.8909l.001-.0009c.828-1.2485 1.238-2.6891 1.238-4.3096 0-1.1951-.222-2.2544-.678-3.1682-.449-.9002-1.061-1.6702-1.834-2.3073-.754-.6286-1.608-1.1478-2.56-1.5586-.934-.4065-1.907-.729-2.919-.9675l-2.463-.6236-.004-.0009c-.527-.1271-1.051-.284-1.571-.4707-.508-.1827-.969-.4058-1.382-.6681-.398-.261-.708-.5728-.936-.93437-.21-.34538-.322-.7621-.322-1.26309.008-.59982.18-1.12459.514-1.58538.334-.4613.824-.83849 1.49-1.12277.658-.28119 1.463-.428 2.423-.428 1.364 0 2.436.30514 3.245.88592l.002.00089c.807.57384 1.265 1.36852 1.375 2.41272ZM270.37 23.0653h-.009l7.397-8.2182c.083 0 .128 0 .165.0373v13.1717h5.924V.599609h-.863L269.912 15.6988 256.795.599609h-.901V28.0486h5.879V14.877c.037 0 .082 0 .12-.0374l7.568 8.2257h.9l-.006.0075.015-.0075Zm150.439-2.317 5.615 7.7521h4.877l-6.266-8.2999 6.02-7.5609h-4.877l-5.369 7.082v-7.082h-4.004v15.8608h4.004v-7.7521Zm68.974 7.7514-1.077-2.4885h-6.068l-1.103 2.4885h-3.551l7.504-16.0661h.525l7.386 16.0661h-3.616Zm-4.124-9.2991-1.944 4.3745h3.931l-1.895-4.3745h-.092Zm-8.441 9.2997v-2.7658h-7.676v-4.164h6.465v-2.6734h-6.465v-3.5176h7.217v-2.7701h-10.826v15.8909h11.285Zm-20.419-15.8177c1.639 0 3.039.4558 4.171 1.3937 1.159.9116 1.736 2.1826 1.736 3.791 0 1.8232-1.04 3.8173-3.185 4.7991l4.198 5.8333h-4.101l-4.198-6.4557v-.3374c2.511-.2893 3.74-1.775 3.74-3.3353 0-1.8232-1.18-2.9758-3.039-2.9758h-2.172v13.1042h-3.594V12.6826h6.444Zm-20.36 15.1779c1.035.4263 2.162.6394 3.38.6394 1.187 0 2.291-.2131 3.311-.6394 1.036-.4263 1.934-1.0125 2.695-1.7586.762-.7612 1.355-1.6443 1.782-2.6492.426-1.0201.639-2.1163.639-3.2887 0-1.1876-.213-2.2838-.639-3.2887-.427-1.0201-1.028-1.9031-1.805-2.6492-.761-.7612-1.659-1.3474-2.694-1.7585-1.021-.4263-2.132-.6395-3.335-.6395-1.218 0-2.345.2132-3.38.6395-1.02.4111-1.911.9973-2.672 1.7585-.761.7461-1.355 1.6215-1.781 2.6264-.427 1.0049-.64 2.1011-.64 3.2887 0 1.1723.213 2.2686.64 3.2887.426 1.0048 1.027 1.8879 1.804 2.6492.776.7613 1.675 1.3551 2.695 1.7814Zm5.846-3.2659c-.715.4263-1.553.6395-2.512.6395-.715 0-1.37-.1218-1.964-.3654-.594-.2436-1.104-.5862-1.53-1.0277-.411-.4568-.731-.9973-.959-1.6215-.229-.6243-.343-1.317-.343-2.0783 0-1.0201.198-1.9032.594-2.6492.396-.7613.952-1.3475 1.667-1.7586.731-.4263 1.576-.6394 2.535-.6394.716 0 1.363.1218 1.941.3654.594.2284 1.104.5709 1.531 1.0277.426.4415.753.9744.982 1.5987.228.609.342 1.2941.342 2.0554 0 1.0049-.198 1.8956-.594 2.672-.395.7613-.959 1.3551-1.69 1.7814Z" clip-rule="evenodd"/>
</svg>
