<svg xmlns="http://www.w3.org/2000/svg" fill="none" viewBox="0 0 121 121">
  <path fill="#000" fill-rule="evenodd" d="M3.11675 57.0248c.40454.2538.82065.4845 1.23675.7037l1.24832.6806 5.01638 2.7226c1.125.5845 2.2705 1.1279 3.4161 1.6714.5728.2718 1.1456.5435 1.7158.8204l2.5776 1.2344c.498.2253 1.0037.4392 1.5082.6527h.0002l.0002.0001.0006.0003.0003.0001c.3732.1579.7458.3155 1.1143.4773l5.2706 2.2265 5.3747 1.9958c1.3907.5498 2.8097 1.0081 4.2348 1.4683l.0003.0001.0021.0007.0021.0007c.3974.1283.7953.2568 1.1932.3875l2.7278.8883 1.3639.4384 1.387.3922 5.5481 1.5459c.6267.1668 1.2628.3147 1.8914.4609l.0014.0003.0025.0006.0003.0001.1964.0457c1.5142-1.4651 2.9821-2.9879 4.3576-4.5799 2.1845-2.5265 4.1841-5.2029 5.9757-8.0062 1.7916-2.8033 3.3751-5.745 4.7621-8.7675 2.774-6.045 4.7621-12.4476 6.0798-18.9771 1.3292-6.5295 1.9649-13.209 2.0689-19.877.0463-3.3339-.0462-6.67946-.2774-9.99036-.0809-1.2113-.1965-2.42261-.3236-3.62238C68.8151 1.18935 64.6887.750977 60.4583.750977 29.0655.774049 3.27856 24.8386.620117 55.5135c.023117.0115.046234.0231.069351.0462L3.1283 57.0363l-.01155-.0115ZM78.6623 37.2517c1.8494-6.9448 2.9706-14.0512 3.5138-21.1921v.0115c.2658-3.5762.3814-7.15244.3468-10.75174V4.9502c10.0096 3.93385 18.7131 10.4749 25.2551 18.7925 1.503 10.6826.324 21.5959-4.022 31.0787-1.561 3.4147-3.502 6.6218-5.7217 9.6212-2.2539 2.9879-4.8199 5.7104-7.5823 8.2715-2.7625 2.5841-5.7908 4.8798-8.8885 7.0602-.5895.4153-1.1905.819-1.7916 1.2113-4.9585-.4961-9.8825-1.1421-14.7717-2.0073-1.3174-.1913-2.6238-.4541-3.9267-.7162-.5833-.1174-1.1659-.2346-1.7485-.3452l-2.8318-.5653c-.289-.0576-.5664-.1153-.8438-.1845.8669-.8076 1.7338-1.6382 2.566-2.4919 2.5082-2.561 4.8314-5.3182 6.9466-8.2253 2.1152-2.9071 4.0108-5.9758 5.7099-9.1482 3.3866-6.345 5.9526-13.1167 7.7904-20.05ZM26.5602 90.9971c-.2792.1113-.558.2224-.8354.3364l.0347.0115c-1.1112.473-2.2512.8768-3.3915 1.2807l-.0004.0001-.0008.0003-.0006.0002-.0005.0002-.0006.0002c-.472.1672-.944.3343-1.414.5064-3.0398 1.0152-6.1259 1.8804-9.2467 2.6303C5.45124 87.0882 1.45201 76.6709.59668 65.377l1.13273.5422 5.40936 2.561c1.23335.5488 2.48273 1.0657 3.73363 1.5832l.0036.0015c.5884.2434 1.1771.487 1.7646.7341l2.7509 1.1421c.5794.2241 1.1634.4346 1.749.6457l.0009.0003.0007.0003.0007.0002.0001.0001h.0001c.3481.1255.6969.2512 1.0457.3801l5.6058 2.0188 5.6868 1.7766c1.6291.5387 3.2841.9738 4.9426 1.4099l.0004.0001.0123.0032.012.0032c.2513.0661.5027.1322.7541.1987l2.8665.7614 1.4333.3807 1.4448.323 3.6756.8191c-1.7107 1.3151-3.4791 2.561-5.2938 3.7377-2.8434 1.8458-5.8486 3.4263-8.9116 4.9029l-2.3232 1.0613c-.5086.224-1.0221.4286-1.5341.6327Zm28.9157-8.2814 2.9359.4268v-.0231c.5912.0799 1.1804.1649 1.7687.2499h.0001c1.3668.1974 2.7292.394 4.1029.5231 3.0167.3691 6.045.6575 9.0734.8767-.1425.0776-.2849.156-.4276.2346l-.0026.0014c-.3659.2016-.7335.4041-1.1071.5946-13.4772 7.0371-28.5148 11.0287-43.7373 12.7245-.7728.1035-1.5456.1763-2.3246.2496-.1764.0167-.3532.0333-.5303.0504l-.0964.0104c-.9265.1003-1.8429.1995-2.7701.2664-1.9187.1615-3.8259.3-5.7446.4269-.6703.0346-1.3523.0692-2.0342.1038-.5549-.6576-1.0981-1.3151-1.6182-1.9958 2.9127-.5306 5.8139-1.1767 8.6919-1.9496.5401-.1636 1.0837-.3199 1.6278-.4764l.0002-.0001h.0002c1.1445-.3292 2.2912-.6591 3.4113-1.0578.3078-.1067.6171-.2086.9262-.3104l.0008-.0003.0008-.0003c.5264-.1734 1.0522-.3466 1.5689-.5427l2.4735-.946c3.2595-1.3266 6.4958-2.7918 9.5819-4.5453 3.0977-1.7304 6.0913-3.68 8.9463-5.8258l.3086.0543c.6856.1205 1.3776.2422 2.0609.3726.3846.064.7673.1352 1.1505.2065l.0005.0001.0005.0001h.0003c.5836.1086 1.168.2173 1.7609.3009Zm32.3653 2.6768h-.4507l-.0006.0004c-.3581.2883-.7163.5765-1.0744.8532-3.2826 2.5495-6.7386 4.8337-10.3217 6.9102-1.4587.8698-2.9562 1.6543-4.4606 2.4425l-.0002.0001c-.3314.1736-.6631.3474-.9948.5223-.4413.2106-.882.4239-1.323.6373-1.4184.6864-2.8396 1.3742-4.2944 1.9814-1.5071.6829-3.0439 1.2771-4.5806 1.8711l-.0003.001c-.3842.148-.7684.297-1.1521.447l-.5999.214c-1.7421.622-3.4861 1.245-5.2487 1.793-3.9183 1.246-7.906 2.319-11.9283 3.172-4.0224.854-8.0679 1.616-12.1364 2.077-1.5951.196-3.1902.346-4.7852.484 10.0327 7.511 22.4927 11.952 36.0046 11.952 24.9085 0 46.2681-15.124 55.3881-36.6621-1.503.1615-3.005.3114-4.519.4383-7.802.6691-15.6505.9691-23.5102.8883l-.0116-.023Zm21.2668-28.414c1.433-3.9223 2.416-8.0061 2.924-12.113l.023-.0116c.486-4.1069.497-8.2484.116-12.3207-.081-1.0152-.197-2.0188-.347-3.0225 5.56 9.1021 8.773 19.7847 8.773 31.2286 0 7.3948-1.341 14.4665-3.791 21.0075-1.861.1039-3.722.1962-5.583.2538-6.542.2192-13.0956.1615-19.6146-.1615 1.3755-1.2344 2.7278-2.5149 4.0108-3.8646 2.9012-2.9879 5.5828-6.2527 7.8828-9.7597 2.289-3.5185 4.173-7.3024 5.606-11.2363Z" clip-rule="evenodd"/>
</svg>
