<svg xmlns="http://www.w3.org/2000/svg" fill="none" viewBox="0 0 406 29">
  <path fill="#000" fill-rule="evenodd" d="m71.1618 28.2382-1.8596-4.2967H58.8248l-1.905 4.2967h-6.1307L63.746.498047h.9071L77.4059 28.2382h-6.2441Zm-7.121-16.0561-3.3564 7.5531h6.7884l-3.2733-7.5531h-.1587ZM27.9082 1.09863h6.1685V23.5085H46.701v4.7298H27.9082V1.09863ZM.844727 1.08887V28.2938l.007566-.0075H7.0586v-8.7894h4.5508c2.9784 0 5.3823-.8669 7.242-2.6384 1.8596-1.7789 2.8121-3.965 2.8121-6.6485 0-2.51777-.9071-4.65858-2.6912-6.43757-1.7765-1.77899-4.3467-2.68356-7.6577-2.68356H.844727ZM7.01325 14.9213V5.67203h3.26565c3.432 0 5.2161 2.06543 5.2161 4.66607 0 2.48-1.4892 4.5832-5.2539 4.5832H7.01325ZM306.613 1.09863h6.169V23.5085h12.624v4.7298h-18.793V1.09863Zm41.394 22.84287 1.86 4.2967h6.244L343.358.498047h-.907L329.494 28.2382h6.131l1.905-4.2967h10.477Zm-8.618-4.2063 3.357-7.5531h.159l3.273 7.5531h-6.789Zm-161.449 8.503-1.86-4.2967h-10.477l-1.905 4.2967h-6.131L170.524.498047h.907L184.184 28.2382h-6.244Zm-7.121-16.0561-3.357 7.5531h6.789l-3.274-7.5531h-.158Zm-89.3307 16.056h6.1383V12.5738h.1209l17.1375 16.1146h.869V1.10517h-6.1306V16.2741h-.1663c-1.8672-1.8089-4.7247-4.3983-8.4893-7.76837-3.7721-3.41506-6.6296-6.04204-8.5724-7.933464h-.9071V28.2381Zm49.8027-4.7313v4.728h-19.292V1.06934h18.506v4.73554h-12.337v6.01342h11.051v4.5701h-11.051v7.1184h13.123Zm18.331-17.68681h7.945V1.09668h-22.104v4.72331h7.99V28.237h6.169V5.81999Zm49.702-4.73112c2.812 0 5.216.78224 7.158 2.39184 1.989 1.56448 2.979 3.74572 2.979 6.50612 0 3.12897-1.784 6.55127-5.466 8.23607L211.2 28.234h-7.038l-7.204-11.0792v-.5791c4.308-.4964 6.418-3.0462 6.418-5.7239 0-3.12895-2.026-5.10711-5.217-5.10711h-3.726V28.234h-6.169V1.08887h11.06ZM215.51 28.312h6.168V1.06934h-6.168V28.312Zm29.724-27.21141h6.123V17.3789c0 3.3154-.99 6.011-3.024 8.0944-2.026 2.046-4.928 3.0689-8.693 3.0689-7.741 0-11.717-4.2935-11.717-11.0438V1.10059h6.168V17.461c0 3.3976 1.943 6.0932 5.587 6.0932 3.643 0 5.548-2.5761 5.548-5.8915V1.10059h.008Zm114.94-.01368V28.2394h11.139c2.073 0 3.819-.3191 5.224-.9756 1.396-.6524 2.459-1.5509 3.168-2.7021v-.001c.704-1.1515 1.053-2.446 1.053-3.8743 0-1.3913-.288-2.5998-.88-3.6105-.582-.9932-1.338-1.7688-2.269-2.3175-.611-.3701-1.245-.6301-1.9-.7777.553-.2044 1.07-.4686 1.551-.7929.75-.5048 1.347-1.1619 1.789-1.9667l.001-.0014c.449-.8273.666-1.80794.666-2.92875 0-1.36798-.336-2.60282-1.014-3.69474-.675-1.09959-1.69-1.95474-3.025-2.57245-1.335-.63065-2.99-.93685-4.95-.93685h-10.553ZM374.63 18.3698l.001.0018c.356.5718.535 1.2154.535 1.94 0 .9541-.349 1.7206-1.053 2.3266-.68.5837-1.842.913-3.569.913h-4.856v-7.0739h4.986c.957 0 1.761.1775 2.424.5181l.003.0015c.668.3357 1.174.7936 1.529 1.3729Zm-.954-7.635v.001c-.345.5045-.82.901-1.437 1.1876-.618.2787-1.32.4215-2.112.4215h-4.439V5.72339h4.544c1.377 0 2.352.32119 2.986.90524l.002.00136c.655.59608.982 1.34757.982 2.28138 0 .7155-.179 1.31843-.526 1.82343Zm26.575-1.78115-.032-.3049c-.111-1.0513-.572-1.85138-1.385-2.42912l-.001-.0009c-.815-.58473-1.895-.89193-3.268-.89193-.966 0-1.776.1478-2.439.4309-.671.28621-1.164.66597-1.501 1.1304-.336.46392-.509.99227-.517 1.59617.001.50439.113.92393.324 1.27165.23.36408.542.67788.943.94068.416.2642.879.4887 1.392.6727.523.188 1.05.3459 1.581.4739l.004.0009 2.48.6278c1.018.2401 1.998.5648 2.938.9742.959.4135 1.819.9362 2.578 1.5691.778.6414 1.394 1.4166 1.847 2.323.459.92.682 1.9865.682 3.1897 0 1.6316-.413 3.0819-1.247 4.3389v.0009c-.834 1.2481-2.035 2.2163-3.584 2.9105-1.546.6877-3.403 1.0249-5.558 1.0249-2.095 0-3.932-.3283-5.5-.9961-1.563-.6689-2.798-1.6511-3.691-2.9484l-.001-.0013c-.887-1.3016-1.359-2.8766-1.43-4.709l-.013-.3539h5.39l.024.3156c.064.8774.329 1.5849.779 2.1418.459.5691 1.058.9976 1.808 1.2833.767.2888 1.63.4361 2.595.4361 1.009 0 1.878-.152 2.614-.4465.748-.3047 1.317-.7172 1.722-1.2299.399-.5129.604-1.1103.613-1.806-.009-.629-.19-1.1217-.524-1.5044l-.002-.0024c-.354-.4135-.863-.7701-1.543-1.0606l-.005-.002c-.686-.3049-1.495-.5785-2.43-.8194l-3.014-.7858c-2.218-.577-3.997-1.4578-5.316-2.657l-.002-.0016c-1.337-1.2337-1.998-2.8697-1.998-4.8724 0-1.64445.441-3.09838 1.331-4.34811l.001-.00134c.892-1.24052 2.101-2.19778 3.615-2.87452 1.516-.685954 3.225-1.02505 5.119-1.02505 1.919 0 3.617.338655 5.084 1.02681 1.471.67739 2.637 1.62678 3.485 2.85093.852 1.22016 1.289 2.62236 1.316 4.19523l.006.3465h-5.27ZM272.193 23.2171h.009l-.016.0075.007-.0075Zm-.906 0h.906l7.447-8.2742c.083 0 .129 0 .166.0377v13.2611h5.965V.598633h-.87L271.74 15.8004 258.534.598633h-.907V28.2342h5.919V14.973c.038 0 .083 0 .121-.0376l7.62 8.2817Z" clip-rule="evenodd"/>
</svg>
