<svg xmlns="http://www.w3.org/2000/svg" width="230" height="162" fill="none" viewBox="0 0 230 162">
  <g clip-path="url(#a)">
    <path fill="url(#b)" d="M133.563 19.6472c-.506 6.6392-1.548 13.2463-3.267 19.7032-1.709 6.4462-4.095 12.7422-7.244 18.6414-1.579 2.9496-3.342 5.8026-5.308 8.5055-1.967 2.7029-4.127 5.2664-6.459 7.6475-.774.7937-1.58 1.566-2.386 2.3168.258.0643.516.1179.785.1716l2.633.5255c1.751.3325 3.503.7294 5.276.9868 4.546.8044 9.124 1.4051 13.734 1.8663.559-.3647 1.118-.7401 1.666-1.1262 2.88-2.0272 5.696-4.1616 8.264-6.5642 2.568-2.3811 4.954-4.9124 7.05-7.6904 2.063-2.7887 3.868-5.7704 5.319-8.9452 4.041-8.8166 5.137-18.9632 3.74-28.8953-6.083-7.7333-14.175-13.8148-23.481-17.47226v.34323c.032 3.34643-.075 6.67143-.322 9.99643v-.0107Z"/>
    <path fill="url(#c)" d="M81.0766 89.6328c.7307-.3004 1.4722-.5792 2.203-.901l2.1601-.9868c2.8478-1.3729 5.6419-2.8423 8.2855-4.5584 1.6872-1.0941 3.3314-2.2524 4.9219-3.4752l-4.7607-1.0618-3.9977-1.0619c-1.7839-.4719-3.5678-.9224-5.3195-1.5016l-5.2873-1.6518-5.212-1.877c-.8705-.3217-1.741-.6221-2.6007-.9546l-2.5576-1.0618c-1.7087-.7186-3.4282-1.4051-5.1154-2.1559l-5.0293-2.3811-1.0532-.5041c.7953 10.5005 4.5135 20.1859 10.3274 28.2517 2.9015-.6972 5.7709-1.5016 8.5972-2.4455 1.4937-.547 3.009-1.0404 4.4705-1.6625l-.0322-.0107Z"/>
    <path fill="url(#d)" d="M60.0565 57.7344c.3761.2359.763.4505 1.1499.6543l1.1606.6328 4.664 2.5313c1.569.8151 3.1809 1.5445 4.7714 2.3167l2.3965 1.1477c.806.3647 1.6334.6972 2.4394 1.0511l4.9004 2.0701 4.9972 1.8555c1.6549.6543 3.3529 1.1691 5.0508 1.7269l2.5362.8259 1.2681.4076 1.2895.3646 5.1585 1.4373c.645.1716 1.3.3217 1.945.4719 1.408-1.3622 2.773-2.778 4.051-4.2581 2.031-2.349 3.891-4.8373 5.556-7.4437 1.666-2.6064 3.138-5.3414 4.428-8.1516 2.579-5.6203 4.427-11.5731 5.653-17.6439 1.235-6.0708 1.826-12.281 1.923-18.4805.043-3.0997-.043-6.2102-.258-9.28851-.075-1.12621-.182-2.25241-.301-3.36789-3.696-.77226-7.533-1.17984-11.466-1.17984-29.1876.02145-53.1631 22.39544-55.6347 50.91524.0214.0107.0429.0215.0644.0429l2.2675 1.3729-.0107-.0107Z"/>
    <path fill="url(#e)" d="m111.467 82.0176-2.73-.3969c-.913-.1287-1.805-.3218-2.708-.4719-.731-.1395-1.472-.2682-2.203-.3969-2.654 1.995-5.4378 3.8077-8.3179 5.4165-2.8693 1.6303-5.8783 2.9925-8.9088 4.226l-2.2998.8795c-.763.2896-1.5475.5256-2.3212.7937-1.5367.547-3.1272.9546-4.6855 1.4265-2.6758.7187-5.3732 1.3193-8.0813 1.8127.4836.6328.9886 1.2442 1.5045 1.8555.634-.0321 1.2681-.0643 1.8914-.0965 1.7839-.118 3.557-.2467 5.341-.3968.8919-.0644 1.7731-.1609 2.6651-.2575.892-.0858 1.7732-.1608 2.6544-.2788 14.1531-1.5767 28.1341-5.2878 40.6651-11.8306.483-.2466.956-.5148 1.429-.7722-2.816-.2038-5.631-.4719-8.436-.8152-1.827-.1716-3.632-.4719-5.459-.7186v.0215Z"/>
    <path fill="url(#f)" d="M138.828 84.1091h-.419c-.333.2682-.666.5363-.999.7937-3.052 2.3704-6.266 4.4941-9.597 6.4248-1.655.9867-3.364 1.8555-5.072 2.7565-1.73.8259-3.45 1.6946-5.223 2.4347-1.752.7937-3.546 1.4587-5.33 2.1559-1.806.6436-3.611 1.2978-5.438 1.8663-3.643 1.158-7.3507 2.156-11.0905 2.95-3.7397.793-7.501 1.501-11.2838 1.93-1.483.183-2.966.322-4.449.451 9.3279 6.982 20.9123 11.112 33.4753 11.112 23.159 0 43.018-14.062 51.497-34.0869-1.397.1502-2.794.2896-4.202.4076-7.254.6221-14.55.9009-21.858.8259l-.011-.0215Z"/>
    <path fill="url(#g)" d="M161.32 46.4295c-.473 3.8184-1.386 7.6153-2.719 11.2621-1.332 3.6575-3.084 7.1755-5.212 10.4469-2.138 3.2606-4.631 6.296-7.329 9.074-1.193 1.2549-2.45 2.4455-3.729 3.5931 6.061.3003 12.154.354 18.237.1502 1.73-.0536 3.46-.1394 5.191-.236 2.278-6.0815 3.524-12.6564 3.524-19.5316 0-10.64-2.987-20.572-8.156-29.0347.139.9332.247 1.8663.322 2.8102.355 3.7862.344 7.6367-.107 11.4551l-.022.0107Z"/>
    <path fill="#12BDBD" d="M176.502 21.4179c0 9.6913-7.857 17.5477-17.548 17.5477-9.691 0-17.548-7.8564-17.548-17.5477 0-9.6914 7.857-17.54778 17.548-17.54778 9.691 0 17.548 7.85638 17.548 17.54778Z"/>
    <path fill="#fff" fill-rule="evenodd" d="M158.954 6.26973c-8.366 0-15.148 6.78187-15.148 15.14777 0 8.3658 6.782 15.1477 15.148 15.1477s15.148-6.7819 15.148-15.1477c0-8.3659-6.782-15.14777-15.148-15.14777ZM139.006 21.4175c0-11.0169 8.931-19.94777 19.948-19.94777 11.017 0 19.948 8.93087 19.948 19.94777 0 11.0168-8.931 19.9477-19.948 19.9477-11.017 0-19.948-8.9309-19.948-19.9477Z" clip-rule="evenodd"/>
  </g>
  <path fill="currentColor" d="M39.9091 142.006h4.3156v15.678h8.8321v3.309H39.9091v-18.987Zm30.2608 18.987-1.301-3.006h-7.3301l-1.3328 3.006h-4.2891l9.0648-19.407h.6346l8.9221 19.407h-4.3738.0053ZM65.188 149.76l-2.3482 5.285h4.7492l-2.29-5.285h-.1163.0053Zm19.8025-7.761c1.9674 0 3.6492.547 5.0084 1.673 1.391 1.095 2.0838 2.621 2.0838 4.552 0 2.189-1.2482 4.584-3.8237 5.762l5.0401 7.004h-4.9238l-5.0401-7.751v-.405c3.0145-.347 4.4901-2.131 4.4901-4.005 0-2.189-1.4174-3.573-3.6492-3.573h-2.6073v15.734h-4.3156v-18.991h7.7373Zm15.6395 19.046h-4.3155v-19.06h4.3155v19.06Zm16.48-19.037h4.284v11.388c0 2.32-.693 4.206-2.115 5.663-1.418 1.432-3.449 2.147-6.082 2.147-5.416 0-8.198-3.003-8.198-7.726v-11.472h4.316v11.446c0 2.377 1.359 4.263 3.908 4.263s3.882-1.803 3.882-4.122v-11.587h.005Z"/>
  <path fill="currentColor" stroke="#000" stroke-width=".243061" d="m11.3278 147.31-.0115-.109c-.0826-.783-.4284-1.386-1.0383-1.82h-.0005c-.60751-.436-1.40484-.659-2.40206-.659-.70166 0-1.29666.107-1.78851.317-.49445.211-.86582.495-1.12116.847-.25521.353-.38614.754-.39213 1.21.00012.379.08479.701.24937.972.17431.276.41022.512.70999.709.30533.194.64447.358 1.01789.492.37733.136.75759.25 1.1408.342h.00134l1.77069.449c.72008.169 1.41248.399 2.07718.688m-.2131-3.438.1647 3.55m-.1647-3.55h3.5272l-.0022-.124c-.0188-1.1-.3238-2.076-.9168-2.926-.5918-.854-1.406-1.518-2.4384-1.993-1.0279-.482-2.22091-.722-3.57602-.722-1.33713 0-2.53869.24-3.60235.721-1.06328.475-1.90828 1.145-2.53098 2.011l-.00034.001c-.61874.869-.926791 1.881-.926791 3.032 0 1.399.460081 2.533 1.386321 3.387h.00064c.92269.839 2.17246 1.46 3.74201 1.868l5.33771-5.255Zm.2131 3.438h.0001l-.0485.112m.0484-.112h-.0002l-.0482.112m.0484-.112c.6742.291 1.2778.658 1.81 1.102m-1.8584-.99c.6644.286 1.258.647 1.7809 1.083.529.436.9473.963 1.2549 1.579.3076.617.4614 1.339.4614 2.168 0 1.121-.283 2.108-.8489 2.961-.566.847-1.3841 1.51-2.4545 1.99-1.0642.473-2.35295.71-3.86622.71-1.47022 0-2.74666-.231-3.82933-.691-1.07652-.461-1.91928-1.134-2.52828-2.018-.583535-.856-.907706-1.893-.972512-3.111H.484375v-.122l.121439-.004c.000061.001.000122.003.000184.004H3.85234c.04921.667.25221 1.221.609 1.663.35679.442.82123.772 1.39332.99.57825.218 1.22416.327 1.93773.327.74434 0 1.3964-.112 1.95619-.336m3.60232-6.203h-.0002l-.0773.093.0778-.093h-.0003Zm0 0c.5422.447.9711.986 1.2862 1.618.3175.636.4741 1.378.4741 2.222 0 1.142-.2888 2.153-.8691 3.028l-.0003.001c-.5804.868-1.4178 1.545-2.5058 2.033h-.0003c-1.0837.482-2.39021.72-3.91562.72-1.48263 0-2.77596-.232-3.87693-.701h-.00023c-1.09565-.469-1.95734-1.155-2.58054-2.06l-.00033-.001c-.617945-.906-.949187-2.007-.999114-3.296l-.00489-.126H3.96522l.00832.112c.04772.647.24369 1.176.58238 1.596.3422.424.78829.742 1.3418.953m0 0h-.00019l-.04285.113.04325-.113h-.00021Zm0 0c.56255.212 1.19358.319 1.89467.319.73216 0 1.36816-.11 1.91054-.327m0 0h-.00018l.04583.112m-.04565-.112c.00016-.001.00031-.001.00046-.001l.04519.113m-.04565-.112c.54987-.224.97417-.53 1.27877-.916m-1.23312 1.028c.56592-.23 1.00882-.548 1.32872-.953m0 0-.0959-.074c.0001-.001.0002-.001.0003-.001m.0956.075c.3199-.411.4829-.89.4891-1.438m-.4891 1.438-.0953-.075h-.0003m0 0c.3022-.388.457-.841.4631-1.363m.1216 0-.1216.001v-.001m.1216 0-.1216-.002v.002m.1216 0-5.57624-3.097 2.14989.561h.00033c.67178.173 1.2557.37 1.75261.591l.00165.001c.49806.213.87786.477 1.14576.789l.0008.001c.2607.299.3975.68.4036 1.154"/>
  <path fill="currentColor" d="M160.052 142.006h4.315v15.678h8.833v3.309h-13.148v-18.987Zm30.261 18.987-1.301-3.006h-7.331l-1.332 3.006h-4.289l9.064-19.407h.635l8.922 19.407h-4.374.006Zm-4.982-11.233-2.348 5.285h4.749l-2.29-5.285h-.117.006Z"/>
  <path fill="currentColor" stroke="#000" stroke-width=".238329" d="M197.643 160.756v.119h7.673c1.439 0 2.643-.221 3.605-.671.959-.448 1.683-1.063 2.165-1.845v-.001c.48-.785.719-1.669.719-2.648 0-.957-.197-1.78-.599-2.466-.398-.679-.913-1.206-1.545-1.579-.568-.344-1.162-.547-1.78-.609.558-.15 1.069-.38 1.53-.691.508-.342.913-.788 1.213-1.334l.001-.001c.303-.558.451-1.223.451-1.992 0-.937-.23-1.779-.692-2.522-.457-.747-1.148-1.331-2.065-1.755-.913-.431-2.053-.644-3.413-.644h-7.263v18.639Zm10.096-6.729v.001c.261.42.393.892.393 1.42 0 .701-.259 1.271-.779 1.718-.508.436-1.357.668-2.574.668h-3.517v-5.188h3.608c.684 0 1.266.127 1.75.376h.001c.486.244.857.579 1.118 1.005Zm-.671-5.212v.001c-.254.372-.604.663-1.054.872-.45.203-.958.305-1.527.305h-3.225v-4.87h3.298c.98 0 1.696.228 2.17.664l.001.001c.484.44.726.999.726 1.684 0 .522-.131.968-.389 1.343Z"/>
  <path fill="currentColor" stroke="#000" stroke-width=".243061" d="m225.881 147.311-.012-.109c-.082-.783-.428-1.386-1.038-1.82-.608-.436-1.405-.659-2.402-.659-.702 0-1.297.107-1.789.317-.494.211-.866.495-1.121.847-.255.353-.386.754-.392 1.21 0 .379.085.701.249.972.174.276.41.512.71.709.305.194.645.358 1.018.492.377.136.758.25 1.141.342h.001l1.771.449c.72.169 1.412.399 2.077.688m-.213-3.438.165 3.55m-.165-3.55h3.527l-.002-.124c-.019-1.1-.324-2.077-.917-2.926-.592-.854-1.406-1.518-2.438-1.993-1.028-.482-2.221-.722-3.576-.722-1.337 0-2.539.24-3.603.721-1.063.475-1.908 1.145-2.531 2.011v.001c-.619.869-.927 1.881-.927 3.032 0 1.399.46 2.532 1.387 3.387.923.839 2.173 1.46 3.742 1.868l5.338-5.255Zm.213 3.438-.048.112m.048-.112-.048.112m.048-.112c.674.291 1.278.658 1.81 1.102m-1.858-.99c.664.286 1.258.647 1.781 1.083.529.436.947.963 1.254 1.579.308.617.462 1.339.462 2.168 0 1.121-.283 2.108-.849 2.961-.566.847-1.384 1.51-2.455 1.99-1.064.473-2.353.71-3.866.71-1.47 0-2.746-.231-3.829-.691-1.077-.461-1.919-1.134-2.528-2.018-.584-.856-.908-1.893-.973-3.111h-.006v-.122l.122-.004v.004h3.246c.05.667.253 1.221.609 1.663.357.442.822.772 1.394.99.578.218 1.224.327 1.937.327.745 0 1.397-.112 1.957-.336m3.602-6.203-.077.093.077-.093Zm0 0c.542.447.971.986 1.286 1.618.318.636.474 1.378.474 2.222 0 1.142-.288 2.153-.869 3.028v.001c-.581.868-1.418 1.545-2.506 2.033-1.084.482-2.39.72-3.916.72-1.482 0-2.776-.232-3.877-.701-1.096-.469-1.957-1.155-2.581-2.06v-.001c-.618-.906-.949-2.007-.999-3.296l-.005-.126h3.607l.009.112c.047.647.243 1.176.582 1.596.342.424.788.742 1.342.953m0 0-.043.113.043-.113Zm0 0c.562.212 1.193.319 1.894.319.733 0 1.369-.11 1.911-.328m0 0v.001l.046.112m-.046-.113.046.113m-.046-.113c.55-.223.974-.529 1.279-.915m-1.233 1.028c.566-.23 1.009-.548 1.328-.953m0 0-.096-.074.001-.001m.095.075c.32-.411.483-.89.489-1.438m-.489 1.438-.095-.075m0 0c.302-.388.457-.841.463-1.363m.121 0-.121.001v-.001m.121 0-.121-.002v.002m.121 0-5.576-3.097 2.15.561c.672.173 1.256.37 1.753.591l.002.001c.498.213.878.477 1.146.789v.001c.261.299.398.68.404 1.154"/>
  <path fill="currentColor" d="M135.977 157.48h-.64l-5.331-5.794c-.026.027-.058.027-.085.027v9.278h-4.141v-19.335h.635l9.239 10.636 9.208-10.636h.608v19.34h-4.173v-9.278c-.026-.026-.058-.026-.116-.026l-5.215 5.794.011-.006Zm-109.0771 4.019c-1.4612 0-2.8128-.256-4.0548-.767-1.2237-.512-2.3013-1.224-3.2328-2.137-.9315-.913-1.653-1.973-2.1644-3.178-.5114-1.224-.7671-2.539-.7671-3.945 0-1.425.2557-2.74.7671-3.946.5114-1.205 1.2237-2.255 2.137-3.15.9132-.914 1.9817-1.617 3.2054-2.11 1.2421-.511 2.5936-.767 4.0548-.767 1.4429 0 2.7763.256 4 .767 1.242.493 2.3196 1.196 3.2329 2.11.9315.895 1.6529 1.954 2.1643 3.178.5115 1.205.7672 2.52.7672 3.945 0 1.406-.2557 2.721-.7672 3.945-.5114 1.206-1.2237 2.265-2.1369 3.178-.9133.895-1.9909 1.598-3.2329 2.11-1.2237.511-2.5479.767-3.9726.767Zm-.0548-3.918c1.1507 0 2.1553-.255 3.0137-.767.8767-.511 1.5525-1.224 2.0274-2.137.4749-.931.7123-2 .7123-3.205 0-.914-.137-1.736-.4109-2.466-.274-.749-.6667-1.388-1.1781-1.918-.5114-.548-1.1233-.959-1.8356-1.233-.6941-.292-1.4703-.438-2.3288-.438-1.1507 0-2.1644.256-3.0411.767-.8584.493-1.5251 1.196-1.9999 2.11-.4749.895-.7124 1.954-.7124 3.178 0 .913.137 1.744.411 2.493.274.749.6575 1.397 1.1507 1.945.5114.53 1.1232.941 1.8356 1.233.7123.292 1.4977.438 2.3561.438Z"/>
  <defs>
    <linearGradient id="b" x1="143.365" x2="56.0214" y1="13.7644" y2="101.256" gradientUnits="userSpaceOnUse">
      <stop stop-color="#02C6B4"/>
      <stop offset="1" stop-color="#6C83FF"/>
    </linearGradient>
    <linearGradient id="c" x1="143.365" x2="56.0214" y1="13.7644" y2="101.256" gradientUnits="userSpaceOnUse">
      <stop stop-color="#02C6B4"/>
      <stop offset="1" stop-color="#6C83FF"/>
    </linearGradient>
    <linearGradient id="d" x1="143.365" x2="56.0214" y1="13.7644" y2="101.256" gradientUnits="userSpaceOnUse">
      <stop stop-color="#02C6B4"/>
      <stop offset="1" stop-color="#6C83FF"/>
    </linearGradient>
    <linearGradient id="e" x1="143.365" x2="56.0214" y1="13.7644" y2="101.256" gradientUnits="userSpaceOnUse">
      <stop stop-color="#02C6B4"/>
      <stop offset="1" stop-color="#6C83FF"/>
    </linearGradient>
    <linearGradient id="f" x1="143.365" x2="56.0214" y1="13.7644" y2="101.256" gradientUnits="userSpaceOnUse">
      <stop stop-color="#02C6B4"/>
      <stop offset="1" stop-color="#6C83FF"/>
    </linearGradient>
    <linearGradient id="g" x1="143.365" x2="56.0214" y1="13.7644" y2="101.256" gradientUnits="userSpaceOnUse">
      <stop stop-color="#02C6B4"/>
      <stop offset="1" stop-color="#6C83FF"/>
    </linearGradient>
    <clipPath id="a">
      <path fill="#fff" d="M55.0136.499023h120v120h-120z"/>
    </clipPath>
  </defs>
</svg>
