<svg xmlns="http://www.w3.org/2000/svg" width="322" height="30" fill="none" viewBox="0 0 322 30">
  <path fill="currentColor" d="M56.04 1.70898h6.0418V23.6586h12.365v4.6326H56.04V1.70898ZM98.4051 28.2906l-1.8214-4.2085H86.3215l-1.8659 4.2085h-6.0048L91.1416 1.12012h.8885L104.521 28.2906h-6.1233.0074Zm-6.9747-15.7264-3.2875 7.398h6.649l-3.206-7.398h-.1629.0074ZM119.154 1.69824c2.754 0 5.109.76618 7.012 2.34272 1.947 1.53235 2.917 3.66879 2.917 6.37254 0 3.0647-1.747 6.4167-5.353 8.0669l7.056 9.8055h-6.893l-7.056-10.8516v-.5673c4.22-.4862 6.286-2.9837 6.286-5.6063 0-3.06472-1.985-5.00225-5.109-5.00225h-3.65V28.2859h-6.042V1.69824h10.832ZM141.05 28.3638h-6.042V1.68066h6.042V28.3638Zm23.072-26.65384h5.997V17.654c0 3.2473-.97 5.8875-2.961 7.9281-1.985 2.0039-4.828 3.0059-8.515 3.0059-7.582 0-11.477-4.2054-11.477-10.817V1.70996h6.042V17.7344c0 3.3278 1.903 5.968 5.472 5.968 3.569 0 5.435-2.5232 5.435-5.7705V1.70996h.007Z"/>
  <path fill="currentColor" stroke="#000" stroke-width=".340286" d="M1.01524 20.4736h4.5449-4.5449Zm0 0c-.00008-.0022-.00017-.0044-.00025-.0066l-.169995.0066m.170245 0H.844995m0 0H.844971v.1702h.007816c.090728 1.7049.544573 3.1567 1.361523 4.3552.8526 1.2381 2.03247 2.1798 3.5396 2.825 1.51574.6453 3.30277.9679 5.36109.9679 2.1186 0 3.9228-.3314 5.4127-.994 1.4986-.6714 2.644-1.6 3.4363-2.7859.7923-1.1945 1.1885-2.5765 1.1885-4.146 0-1.1597-.2153-2.1711-.6459-3.0343-.4306-.8633-1.0163-1.6-1.7569-2.2104-.7321-.6104-1.5631-1.1161-2.4932-1.5172-.9215-.4011-1.8818-.7193-2.8808-.9547L.844995 20.4736ZM16.0097 8.98194l.0161.15228h4.938l-.0029-.17306c-.0264-1.53977-.4534-2.90711-1.2835-4.09635-.8284-1.19563-1.9684-2.12541-3.4138-2.79072-1.439-.67505-3.1093-1.00986-5.0065-1.00986-1.872 0-3.55418.33503-5.04331 1.00897-1.4886.66498-2.67161 1.60303-3.54339 2.81553l-.00047.00067c-.86625 1.21709-1.29752 2.63428-1.29752 4.2447 0 1.9594.64412 3.546 1.94086 4.742l.0009.0008c1.29177 1.1744 3.04145 2.0437 5.23883 2.6153h.0001l3.0099.7847.0004.0002c.9405.2423 1.758.5185 2.4537.8278l.0023.0009c.6972.2977 1.229.6677 1.6041 1.1053l.001.0012c.3651.4178.5566.9516.5651 1.6146-.0085.731-.2252 1.3651-.6483 1.9089-.4264.5395-1.0204.9679-1.7901 1.2814-.7594.3041-1.6499.4585-2.675.4585-.9815 0-1.8649-.1499-2.65246-.4467-.77494-.2953-1.3995-.7404-1.87858-1.3342-.47418-.5876-.74853-1.329-.81534-2.2337l-.01164-.1576H.66811l.006845.1767c.069899 1.8046.533635 3.3454 1.398765 4.6146l.00046.0007c.87248 1.267 2.07886 2.2282 3.61277 2.8849l.00032.0002c1.54137.6561 3.35203.9814 5.42773.9814 2.1356 0 3.9647-.3339 5.4819-1.0087l.0004-.0002c1.5232-.6824 2.6955-1.6303 3.5082-2.8465l.0003-.0005c.8125-1.2251 1.2168-2.6405 1.2168-4.2401 0-1.1808-.2193-2.2192-.6638-3.1103-.4411-.8843-1.0416-1.6399-1.8005-2.2654-.7453-.6213-1.5904-1.1353-2.5343-1.5423-.9305-.405-1.8999-.7263-2.9079-.9639l-2.479-.6275-.0019-.0004c-.5364-.1294-1.06881-.2889-1.59708-.4787-.52277-.1878-.99756-.4176-1.42501-.6891-.41971-.2751-.75-.6063-.99405-.993-.2304-.37856-.34893-.83005-.34909-1.36101.00837-.63732.19167-1.19984.54897-1.69312.35748-.49355.8774-.8903 1.56963-1.18584.68859-.29398 1.52163-.4441 2.50393-.4441 1.3961 0 2.5124.31256 3.3629.92286l.0006.00045c.8539.60682 1.338 1.45111 1.4537 2.5473Z"/>
  <path fill="currentColor" d="M224.24 1.70801h6.042V23.6577h12.365v4.6326H224.24V1.70801Zm42.366 26.58259-1.822-4.2085h-10.262l-1.866 4.2085h-6.005l12.691-27.17048h.889l12.49 27.17048h-6.123.008Zm-6.975-15.7264-3.288 7.398h6.649l-3.206-7.398h-.163.008Z"/>
  <path fill="currentColor" stroke="#000" stroke-width=".333661" d="M291.003 18.5382v-.0008c-.366-.596-.886-1.065-1.566-1.4067l-.001-.0007c-.678-.3483-1.493-.5259-2.45-.5259h-5.051v7.2623h4.923c1.705 0 2.893-.3238 3.604-.9346l.541-4.3936Zm0 0c.366.5881.549 1.2494.549 1.9882 0 .9821-.362 1.7795-1.09 2.4054l.541-4.3936Zm-14.135 9.4196v.1668h10.743c2.015 0 3.699-.3103 5.046-.9398 1.343-.6276 2.357-1.4875 3.032-2.583v-.0005c.672-1.0999 1.007-2.3373 1.007-3.7077 0-1.3397-.277-2.4928-.84-3.452-.557-.9505-1.278-1.6891-2.163-2.211-.795-.4812-1.626-.7661-2.491-.8522.781-.2102 1.496-.5327 2.141-.9678.712-.4793 1.278-1.1028 1.699-1.8683v-.0007c.425-.7807.633-1.71251.633-2.78891 0-1.31139-.322-2.49005-.969-3.5312-.641-1.04489-1.608-1.86247-2.891-2.45615-1.279-.60425-2.874-.9019-4.778-.9019h-10.169V27.9578Zm13.195-16.717v.0005c-.356.5214-.846.9287-1.475 1.221-.631.2841-1.342.4279-2.138.4279h-4.515V6.07104h4.617c1.372 0 2.375.31976 3.038.93073l.001.00066c.678.61686 1.017 1.39845 1.017 2.35794 0 .73023-.183 1.35463-.545 1.88043Z"/>
  <path fill="currentColor" stroke="#000" stroke-width=".340286" d="M301.391 20.4736h4.545-4.545Zm0 0v-.0066l-.17.0066m.17 0h-.17m0 0v.1702h.007c.091 1.7049.545 3.1567 1.362 4.3552.853 1.2381 2.032 2.1798 3.54 2.825 1.515.6453 3.302.9679 5.361.9679 2.118 0 3.922-.3314 5.412-.994 1.499-.6714 2.644-1.6 3.437-2.7859.792-1.1945 1.188-2.5765 1.188-4.146 0-1.1597-.215-2.1711-.646-3.0343-.43-.8633-1.016-1.6-1.757-2.2104-.732-.6104-1.563-1.1161-2.493-1.5172-.921-.4011-1.882-.7193-2.881-.9547l-12.53 7.3242Zm15.164-11.49166.016.15228h4.938l-.003-.17306c-.026-1.53977-.453-2.90711-1.283-4.09635-.828-1.19563-1.968-2.12541-3.414-2.79072-1.439-.67505-3.109-1.00986-5.006-1.00986-1.872 0-3.554.33503-5.044 1.00897-1.488.66498-2.671 1.60303-3.543 2.81553v.00067c-.867 1.21709-1.298 2.63428-1.298 4.2447 0 1.9594.644 3.546 1.941 4.742l.001.0008c1.292 1.1744 3.041 2.0437 5.239 2.6153l3.01.7847v.0002c.941.2423 1.758.5185 2.454.8278l.002.0009c.697.2977 1.229.6677 1.604 1.1053l.001.0012c.365.4178.557.9516.565 1.6146-.008.731-.225 1.3651-.648 1.9089-.426.5395-1.02.9679-1.79 1.2814-.76.3041-1.65.4585-2.675.4585-.982 0-1.865-.1499-2.653-.4467-.775-.2953-1.399-.7404-1.878-1.3342-.474-.5876-.749-1.329-.816-2.2337l-.011-.1576h-5.05l.007.1767c.069 1.8046.533 3.3454 1.398 4.6146l.001.0007c.872 1.267 2.079 2.2282 3.613 2.8849v.0002c1.541.6561 3.352.9814 5.428.9814 2.135 0 3.964-.3339 5.481-1.0087l.001-.0002c1.523-.6824 2.695-1.6303 3.508-2.8465v-.0005c.813-1.2251 1.217-2.6405 1.217-4.2401 0-1.1808-.219-2.2192-.664-3.1103-.441-.8843-1.041-1.6399-1.8-2.2654-.745-.6213-1.59-1.1353-2.534-1.5423-.931-.405-1.9-.7263-2.908-.9639l-2.479-.6275-.002-.0004c-.537-.1294-1.069-.2889-1.597-.4787-.523-.1878-.998-.4176-1.425-.6891-.42-.2751-.75-.6063-.994-.993-.231-.37856-.349-.83005-.349-1.36101.008-.63732.191-1.19984.549-1.69312.357-.49355.877-.8903 1.569-1.18584.689-.29398 1.522-.4441 2.504-.4441 1.396 0 2.512.31256 3.363.92286l.001.00045c.854.60682 1.338 1.45111 1.453 2.5473Z"/>
  <path fill="currentColor" d="M190.535 23.3726h-.896l-7.463-8.1115c-.037.0368-.081.0368-.118.0368v12.9888h-5.798V1.21875h.889l12.935 14.88965 12.89-14.88965h.852V28.2941h-5.842V15.3053c-.037-.0368-.081-.0368-.163-.0368l-7.3 8.1115.014-.0074ZM37.827 28.999c-2.0457 0-3.9379-.358-5.6767-1.0739-1.7133-.716-3.2219-1.7133-4.5261-2.9918-1.3041-1.2786-2.3141-2.7617-3.0301-4.4493-.716-1.7133-1.074-3.5544-1.074-5.5233 0-1.9946.358-3.8356 1.074-5.52332.716-1.68767 1.7133-3.15799 2.9918-4.41096 1.2785-1.27854 2.7744-2.26301 4.4877-2.95342 1.7388-.71599 3.631-1.073977 5.6767-1.073977 2.0201 0 3.8867.357987 5.6 1.073977 1.7388.69041 3.2474 1.67488 4.526 2.95342 1.3041 1.25297 2.3141 2.73607 3.0301 4.44932.716 1.68766 1.074 3.52876 1.074 5.52326 0 1.969-.358 3.8101-1.074 5.5233-.716 1.6877-1.7132 3.1708-2.9918 4.4493-1.2785 1.253-2.7872 2.2375-4.526 2.9535-1.7132.7159-3.5671 1.0739-5.5616 1.0739Zm-.0767-5.4849c1.6109 0 3.0173-.358 4.2191-1.074 1.2274-.716 2.1736-1.7132 2.8384-2.9918.6648-1.3041.9973-2.8.9973-4.4876 0-1.2786-.1918-2.4293-.5754-3.4521-.3835-1.0484-.9333-1.94336-1.6493-2.68492-.716-.76712-1.5726-1.34246-2.5699-1.72603-.9717-.40913-2.0584-.6137-3.2602-.6137-1.611 0-3.0302.358-4.2576 1.07398-1.2018.69041-2.1351 1.67488-2.8 2.95347-.6648 1.2529-.9972 2.736-.9972 4.4493 0 1.2785.1918 2.442.5753 3.4904.3836 1.0484.9206 1.9561 1.611 2.7233.716.7415 1.5726 1.3169 2.5698 1.726.9973.4091 2.0968.6137 3.2987.6137Z"/>
</svg>
