<svg xmlns="http://www.w3.org/2000/svg" fill="none" viewBox="0 0 122 117">
  <g clip-path="url(#clip0_1786_6717)">
    <path fill="#000" d="M76.1457 19.1501c-.5051 6.6392-1.5475 13.2463-3.267 19.7032-1.7086 6.4462-4.0944 12.7422-7.2431 18.6414-1.5797 2.9496-3.3421 5.8027-5.3088 8.5056-1.9666 2.7029-4.1266 5.2663-6.4586 7.6474-.7737.7937-1.5797 1.566-2.3857 2.3168.2579.0644.5158.118.7845.1716l2.6329.5256c1.7516.3325 3.5033.7293 5.2765.9867 4.5458.8045 9.1238 1.4051 13.734 1.8663.5588-.3646 1.1176-.7401 1.6657-1.1262 2.8801-2.0271 5.6957-4.1616 8.2641-6.5641 2.5684-2.3812 4.9541-4.9125 7.0497-7.6904 2.0633-2.7887 3.8687-5.7705 5.3195-8.9453 4.0406-8.8166 5.1366-18.9632 3.7398-28.8952-6.0826-7.7333-14.1747-13.8148-23.4811-17.47233v.34323c.0322 3.3464-.0752 6.6714-.3224 9.9964v-.0107Zm-52.486 69.9856c.7308-.3003 1.4723-.5792 2.2031-.901l2.16-.9867c2.8478-1.3729 5.6419-2.8424 8.2856-4.5585 1.6872-1.094 3.3314-2.2524 4.9218-3.4751l-4.7606-1.0619-3.9977-1.0618c-1.784-.472-3.5679-.9225-5.3196-1.5017l-5.2872-1.6517-5.2121-1.877c-.8704-.3218-1.7409-.6221-2.6006-.9546l-2.5577-1.0619c-1.70868-.7186-3.42811-1.4051-5.11531-2.1559l-5.02936-2.3811-1.053155-.5041C1.09212 75.5032 4.8104 85.1886 10.6243 93.2544c2.9015-.6972 5.7708-1.5016 8.5971-2.4455 1.4938-.547 3.0091-1.0404 4.4706-1.6625l-.0323-.0107Z"/>
    <path fill="#000" d="M2.63966 57.2373c.37613.236.763.4505 1.14987.6543l1.16062.6328 4.66398 2.5313c1.56897.8151 3.18097 1.5445 4.77147 2.3167l2.3964 1.1477c.806.3647 1.6335.6972 2.4395 1.0511l4.9004 2.0701 4.9971 1.8556c1.655.6542 3.3529 1.1691 5.0509 1.7268l2.5361.8259 1.2681.4076 1.2896.3647 5.1583 1.4372c.6448.1716 1.3003.3218 1.9451.4719 1.4078-1.3621 2.7726-2.7779 4.0514-4.2581 2.0311-2.3489 3.8903-4.8373 5.556-7.4437 1.6657-2.6063 3.138-5.3414 4.4275-8.1516 2.5792-5.6203 4.4276-11.5731 5.6527-17.6439 1.2358-6.0707 1.8269-12.281 1.9236-18.4805.043-3.0997-.043-6.2102-.2579-9.28848-.0752-1.12621-.1827-2.25241-.3009-3.36789-3.6968-.77226-7.5333-1.17984-11.4665-1.17984C26.7655 4.93844 2.79011 27.3124.318416 55.8322c.021493.0108.042986.0215.064479.0429L2.6504 57.248l-.01074-.0107ZM54.0498 81.5205l-2.7296-.3969c-.9134-.1287-1.8054-.3217-2.7081-.4719-.7308-.1394-1.4723-.2681-2.203-.3969-2.6544 1.995-5.4378 3.8077-8.3178 5.4166-2.8693 1.6303-5.8783 2.9924-8.9089 4.2259l-2.2997.8795c-.763.2896-1.5475.5256-2.3212.7937-1.5368.547-3.1273.9546-4.6855 1.4266-2.6759.7186-5.3733 1.3192-8.0814 1.8126.4836.6328.9887 1.2442 1.5045 1.8556.6341-.0322 1.2681-.0644 1.8914-.0966 1.7839-.1179 3.5571-.2466 5.341-.3968.892-.0644 1.7732-.1609 2.6652-.2574.8919-.0858 1.7731-.1609 2.6543-.2789 14.1532-1.5767 28.1343-5.2878 40.6648-11.8305.4835-.2467.9564-.5149 1.4292-.7723-2.8155-.2038-5.6311-.4719-8.436-.8151-1.8269-.1716-3.6323-.472-5.4592-.7187v.0215Zm27.3616 2.0915h-.4192c-.3331.2682-.6662.5363-.9994.7937-3.052 2.3704-6.2652 4.4941-9.5966 6.4248-1.655.9868-3.3637 1.8556-5.0723 2.7565-1.7302.8259-3.4497 1.6947-5.2228 2.4348-1.7517.7937-3.5464 1.4587-5.3303 2.1558-1.8054.6436-3.6108 1.2979-5.4377 1.8664-3.6431 1.158-7.3506 2.156-11.0904 2.95-3.7398.793-7.5011 1.501-11.2838 1.93-1.483.182-2.9661.322-4.4491.451 9.328 6.982 20.9127 11.112 33.4754 11.112 23.1586 0 43.0181-14.062 51.4968-34.087-1.397.1502-2.794.2896-4.202.4076-7.2534.6221-14.5503.901-21.8579.8259l-.0107-.0215Zm22.4916-37.6795c-.472 3.8183-1.386 7.6153-2.718 11.262-1.333 3.6575-3.0847 7.1756-5.2125 10.4469-2.1386 3.2606-4.6318 6.296-7.3291 9.074-1.1929 1.2549-2.4502 2.4455-3.7291 3.5931 6.0611.3004 12.1543.354 18.2367.1502 1.73-.0536 3.46-.1394 5.191-.236 2.278-6.0815 3.525-12.6564 3.525-19.5316 0-10.6399-2.988-20.572-8.157-29.0346.14.9331.247 1.8662.322 2.8101.355 3.7862.344 7.6368-.107 11.4551l-.022.0108Z"/>
    <path fill="#000" d="M119.085 20.9208c0 9.6914-7.857 17.5477-17.548 17.5477-9.6913 0-17.5477-7.8563-17.5477-17.5477 0-9.6914 7.8564-17.54775 17.5477-17.54775 9.691 0 17.548 7.85635 17.548 17.54775Z"/>
    <path fill="#fff" fill-rule="evenodd" d="M101.537 5.77266c-8.3663 0-15.1481 6.78184-15.1481 15.14774s6.7818 15.1477 15.1481 15.1477c8.365 0 15.147-6.7818 15.147-15.1477s-6.782-15.14774-15.147-15.14774ZM81.5889 20.9204c0-11.01683 8.9309-19.947744 19.9481-19.947744 11.016 0 19.947 8.930914 19.947 19.947744 0 11.0168-8.931 19.9477-19.947 19.9477-11.0172 0-19.9481-8.9309-19.9481-19.9477Z" clip-rule="evenodd"/>
  </g>
  <defs>
    <clipPath id="clip0_1786_6717">
      <path fill="#fff" d="M0 0h122v117H0z"/>
    </clipPath>
  </defs>
</svg>
