<svg xmlns="http://www.w3.org/2000/svg" fill="none" viewBox="0 0 322 30">
  <path fill="#000" fill-rule="evenodd" d="m316.216 9.00317.032.30456h5.264l-.006-.34611c-.026-1.57125-.463-2.97199-1.314-4.19086-.847-1.22272-2.012-2.17101-3.481-2.84762-1.466-.6874-3.162-1.025679-5.078-1.025679-1.893 0-3.599.338729-5.114 1.023939-1.513.676-2.72 1.63221-3.611 2.87138l-.001.00133c-.889 1.24836-1.329 2.70071-1.329 4.34336 0 2.00053.659 3.63473 1.995 4.86703l.002.0017c1.318 1.1978 3.095 2.0777 5.311 2.6541l3.01.7849c.934.2406 1.742.514 2.427.8185l.005.002c.68.2902 1.188.6464 1.542 1.0595l.002.0024c.334.3822.514.8744.523 1.5027-.009.695-.214 1.2917-.612 1.8041-.405.5121-.973.9241-1.72 1.2284-.735.2943-1.603.4461-2.611.4461-.964 0-1.827-.1471-2.593-.4357-.748-.2854-1.347-.7134-1.806-1.2818-.449-.5563-.713-1.263-.778-2.1395l-.023-.3152h-5.385l.013.3535c.071 1.8304.542 3.4036 1.429 4.7038l.001.0013c.892 1.2959 2.125 2.277 3.686 2.9452 1.567.667 3.401.995 5.494.995 2.153 0 4.008-.3368 5.552-1.0237 1.548-.6935 2.747-1.6606 3.58-2.9073l.001-.001c.833-1.2556 1.245-2.7044 1.245-4.3341 0-1.2019-.223-2.2673-.681-3.1863-.452-.9053-1.067-1.6797-1.845-2.3204-.758-.6322-1.617-1.1544-2.575-1.5675-.939-.4089-1.918-.7332-2.935-.973l-2.478-.6272-.003-.0009c-.531-.1278-1.057-.2856-1.58-.4733-.512-.1838-.975-.4081-1.39-.672-.4-.2625-.712-.576-.942-.9397-.211-.34731-.323-.76641-.323-1.27027.008-.60322.181-1.13098.516-1.59439.336-.46392.829-.84326 1.499-1.12916.662-.28279 1.471-.43044 2.437-.43044 1.371 0 2.45.30688 3.264.89096l.001.0009c.812.57711 1.272 1.37632 1.383 2.42647ZM96.5836 24.085l1.8214 4.2085h6.116L92.03 1.12305h-.8885L78.4507 28.2935h6.0048l1.8658-4.2085h10.2623Zm-8.4408-4.1198 3.2875-7.3981h.1554l3.2061 7.3981h-6.649ZM62.0814 1.71191h-6.0418V28.2942h18.4068v-4.6326h-12.365V1.71191Zm57.0726-.01074c2.754 0 5.109.76617 7.011 2.34272 1.948 1.53235 2.918 3.66879 2.918 6.37251 0 3.0647-1.748 6.4167-5.354 8.0669l7.057 9.8055h-6.894l-7.056-10.8516v-.5673c4.221-.4862 6.286-2.9836 6.286-5.6063 0-3.06469-1.984-5.00222-5.109-5.00222h-3.65V28.2888h-6.042V1.70117h10.833Zm15.853 26.66553h6.042V1.68359h-6.042V28.3667Zm29.115-26.65381h5.997V17.6569c0 3.2473-.97 5.8876-2.962 7.9281-1.984 2.004-4.827 3.006-8.514 3.006-7.582 0-11.477-4.2055-11.477-10.8171V1.71289h6.042V17.7373c0 3.3278 1.903 5.9681 5.472 5.9681 3.568 0 5.434-2.5233 5.434-5.7706V1.71289h.008Zm-149.4677 4.586c.8957.63651 1.4038 1.52588 1.5244 2.66812h4.6118c-.0258-1.50845-.4435-2.84251-1.253-4.00219-.8096-1.16839-1.9249-2.07956-3.3459-2.73351-1.4124-.66267-3.0573-.99401-4.9348-.99401-1.85157 0-3.50941.33134-4.97348.99401-1.46407.65395-2.62241 1.57384-3.47502 2.75967-.84399 1.18583-1.26599 2.56785-1.26599 4.14605 0 1.91827.62869 3.45727 1.88607 4.61687 1.26599 1.151 2.98842 2.0098 5.1673 2.5766l3.00992.7847c.9474.2442 1.7741.5232 2.4803.8371.7149.3052 1.2703.6888 1.6665 1.1509.3962.4535.5985 1.0289.6072 1.7265-.0087.7673-.2369 1.4387-.6847 2.0141-.4478.5668-1.0679 1.0115-1.8602 1.3341-.7837.3139-1.6966.4709-2.7387.4709-.999 0-1.9033-.1526-2.71285-.4578-.80093-.3052-1.45115-.7673-1.95065-1.3864-.49951-.6191-.78371-1.3951-.85261-2.3281H.844727c.068897 1.7788.525343 3.2872 1.369333 4.5254.85261 1.2381 2.03248 2.1798 3.53961 2.8251 1.51574.6452 3.30276.9678 5.36103.9678 2.1186 0 3.9229-.3313 5.4128-.994 1.4985-.6714 2.6439-1.6 3.4363-2.7858.7923-1.1946 1.1884-2.5766 1.1884-4.1461 0-1.1597-.2153-2.1711-.6459-3.0343-.4306-.8632-1.0162-1.6-1.7569-2.2104-.732-.6103-1.5631-1.116-2.4932-1.5171-.9215-.4011-1.8817-.7194-2.8808-.9548l-2.4803-.6278c-.5425-.1308-1.08079-.2921-1.61475-.4839-.53395-.1919-1.02054-.4273-1.45976-.7063-.43922-.2877-.78802-.6365-1.04638-1.0463-.24975-.40982-.37463-.89375-.37463-1.45178.00861-.67139.20239-1.26867.58132-1.79183.37894-.52316.92581-.93733 1.64062-1.24251.71481-.30517 1.57168-.45776 2.57078-.45776 1.421 0 2.575.31825 3.462.95477ZM224.24 1.71094h6.042V23.6606h12.365v4.6326H224.24V1.71094ZM264.784 24.085l1.821 4.2085h6.116L260.23 1.12305h-.888L246.651 28.2935h6.005l1.866-4.2085h10.262Zm-8.441-4.1198 3.287-7.3981h.156l3.206 7.3981h-6.649Zm20.358 8.3298V1.7002h10.336c1.92 0 3.541.2999 4.849.9176 1.307.60506 2.301 1.44271 2.962 2.51981.664 1.06945.994 2.27886.994 3.61867 0 1.09779-.213 2.05832-.653 2.86852l-.001.0014c-.433.7883-1.018 1.4319-1.752 1.9264-.471.3176-.978.5763-1.519.7766.641.1446 1.262.3992 1.861.7618.911.5374 1.652 1.297 2.222 2.2698.58.9899.862 2.1736.862 3.5363 0 1.399-.342 2.6669-1.031 3.7947v.001c-.695 1.1276-1.736 2.0076-3.103 2.6467-1.376.643-3.087.9555-5.117.9555h-10.91Zm14.16-9.6652-.001-.0017c-.347-.5673-.843-1.0159-1.498-1.3447l-.003-.0014c-.649-.3337-1.436-.5075-2.373-.5075h-4.885v6.9286h4.757c1.691 0 2.829-.3225 3.495-.8941.69-.5935 1.032-1.3443 1.032-2.279 0-.7096-.176-1.3401-.524-1.9002Zm-.936-7.4789.001-.001c.34-.4946.515-1.0851.515-1.78595 0-.91463-.32-1.65068-.962-2.23452l-.002-.00134c-.621-.57205-1.576-.88664-2.925-.88664h-4.451V12.727h4.349c.775 0 1.462-.1399 2.068-.4129.605-.2807 1.07-.6691 1.407-1.1632Zm-99.39 12.2247h-.008l7.294-8.1042c.081 0 .126 0 .163.0368V28.297h5.842V1.22168h-.852L190.083 16.1113 177.148 1.22168h-.888V28.2897h5.797V15.3009c.037 0 .082 0 .119-.0369l7.463 8.1116h.888l-.007.0073.015-.0073ZM32.1501 27.928c1.7389.716 3.6311 1.074 5.6768 1.074 1.9945 0 3.8483-.358 5.5616-1.074 1.7388-.716 3.2475-1.7005 4.526-2.9534 1.2786-1.2786 2.2758-2.7617 2.9918-4.4494.716-1.7132 1.074-3.5543 1.074-5.5232 0-1.9946-.358-3.8357-1.074-5.52333-.716-1.71325-1.726-3.19635-3.0301-4.44932-1.2786-1.27854-2.7872-2.26301-4.5261-2.95342-1.7132-.71599-3.5799-1.07398-5.6-1.07398-2.0456 0-3.9379.35799-5.6767 1.07398-1.7132.69041-3.2091 1.67488-4.4876 2.95342-1.2786 1.25297-2.2758 2.72329-2.9918 4.41096-.716 1.68769-1.074 3.52879-1.074 5.52329 0 1.9689.358 3.81 1.074 5.5233.716 1.6877 1.726 3.1708 3.0301 4.4493 1.3041 1.2785 2.8128 2.2758 4.526 2.9918Zm9.8192-5.4849c-1.2018.7159-2.6082 1.0739-4.2192 1.0739-1.2018 0-2.3013-.2045-3.2986-.6137-.9972-.4091-1.8539-.9844-2.5698-1.726-.6905-.7671-1.2274-1.6749-1.611-2.7233-.3836-1.0484-.5753-2.2119-.5753-3.4904 0-1.7132.3324-3.1963.9972-4.4493.6649-1.27856 1.5982-2.26303 2.8-2.95344 1.2274-.71598 2.6466-1.07398 4.2575-1.07398 1.2019 0 2.2886.20457 3.2603.6137.9973.38357 1.8539.95891 2.5699 1.72603.716.74155 1.2657 1.63649 1.6493 2.68489.3836 1.0229.5753 2.1736.5753 3.4521 0 1.6877-.3324 3.1836-.9972 4.4877-.6649 1.2785-1.611 2.2758-2.8384 2.9918Z" clip-rule="evenodd"/>
</svg>
