<svg xmlns="http://www.w3.org/2000/svg" width="372" height="56" fill="none" viewBox="0 0 372 56">
  <g clip-path="url(#a)">
    <path fill="url(#b)" d="M36.6561 8.93508c-.2357 3.09832-.7221 6.18162-1.5245 9.19482-.7974 3.0082-1.9108 5.9464-3.3802 8.6993-.7372 1.3765-1.5597 2.7079-2.4774 3.9693-.9178 1.2613-1.9258 2.4576-3.014 3.5688-.3611.3704-.7372.7308-1.1134 1.0812.1204.03.2408.055.3661.0801l1.2287.2452c.8175.1552 1.6349.3404 2.4624.4605 2.1213.3754 4.2577.6557 6.4092.8709.2608-.1701.5216-.3453.7773-.5255 1.3441-.946 2.658-1.9421 3.8566-3.0633 1.1986-1.1112 2.3119-2.2925 3.2898-3.5888.9629-1.3014 1.8055-2.6929 2.4825-4.1745 1.8856-4.1144 2.3972-8.8495 1.7452-13.4844-2.8385-3.60891-6.6148-6.44695-10.9578-8.15378v.16017c.015 1.56167-.0351 3.11333-.1505 4.665v-.00501Z"/>
    <path fill="url(#c)" d="M12.1627 41.595c.341-.1401.687-.2703 1.0281-.4204l1.008-.4605c1.329-.6407 2.6329-1.3264 3.8666-2.1273.7873-.5105 1.5546-1.0511 2.2969-1.6217l-2.2217-.4956-1.8656-.4955c-.8325-.2202-1.665-.4304-2.4824-.7007l-2.4674-.7709-2.43232-.8759c-.40622-.1502-.81243-.2903-1.21363-.4455l-1.19358-.4955c-.79739-.3354-1.5998-.6557-2.38715-1.0061l-2.34704-1.1112-.49147-.2352c.37111 4.9002 2.10631 9.4201 4.81944 13.1841 1.35406-.3254 2.69307-.7008 4.01205-1.1412.6971-.2553 1.4042-.4856 2.0862-.7759l-.015-.005Z"/>
    <path fill="url(#d)" d="M2.35331 26.7091c.17552.1101.35607.2102.53661.3053l.54162.2954 2.17652 1.1812c.7322.3804 1.48445.7208 2.22667 1.0812l1.11836.5356c.37612.1701.76228.3253 1.13841.4905l2.2869.966 2.3319.8659c.7724.3054 1.5647.5456 2.3571.8059l1.1836.3854.5917.1902.6018.1702 2.4072.6707c.3009.0801.6069.1502.9078.2203.6569-.6357 1.2938-1.2964 1.8906-1.9872.9479-1.0961 1.8155-2.2574 2.5928-3.4737.7773-1.2163 1.4644-2.4927 2.0662-3.8041 1.2036-2.6228 2.0662-5.4007 2.6379-8.2338.5767-2.833.8525-5.7311.8977-8.62422.02-1.44655-.0201-2.8981-.1204-4.33464-.0351-.52556-.0852-1.05112-.1404-1.57168-1.7252-.36039-3.5155-.55059-5.351-.55059C13.612 2.30298 2.42352 12.7442 1.27006 26.0534c.01003.005.02006.01.03009.02l1.05817.6407-.00501-.005Z"/>
    <path fill="url(#e)" d="m26.3447 38.0413-1.2738-.1852c-.4263-.0601-.8425-.1502-1.2638-.2203-.341-.065-.687-.1251-1.0281-.1852-1.2387.931-2.5376 1.7769-3.8816 2.5277-1.339.7609-2.7432 1.3965-4.1575 1.9722l-1.0732.4104c-.356.1351-.7221.2453-1.0832.3704-.7172.2553-1.4594.4455-2.1866.6657-1.24871.3354-2.50748.6157-3.77127.8459.22568.2953.46138.5806.7021.8659.29589-.015.59178-.03.88265-.045.83249-.0551 1.65997-.1151 2.49242-.1852.4163-.03.8275-.0751 1.2438-.1201.4162-.0401.8275-.0751 1.2387-.1302 6.6048-.7358 13.1293-2.4676 18.9769-5.5209.2256-.1151.4463-.2403.667-.3604-1.314-.0951-2.6279-.2202-3.9368-.3804-.8526-.0801-1.6951-.2202-2.5477-.3353v.01Z"/>
    <path fill="url(#f)" d="M39.1134 39.0173h-.1956c-.1554.1252-.3109.2503-.4664.3704-1.4242 1.1062-2.9237 2.0973-4.4784 2.9982-.7723.4605-1.5697.866-2.3671 1.2864-.8074.3854-1.6098.7909-2.4373 1.1362-.8174.3704-1.6549.6808-2.4874 1.0061-.8425.3003-1.6851.6057-2.5376.8709-1.7001.5406-3.4303 1.0061-5.1755 1.3765-1.7453.3704-3.5005.7008-5.2658.901-.6921.0851-1.3842.1501-2.0762.2102 4.353 3.2585 9.7592 5.1856 15.6218 5.1856 10.8074 0 20.0751-6.5621 24.032-15.9071-.652.0701-1.3039.1352-1.9609.1902-3.3851.2903-6.7903.4205-10.2006.3854l-.005-.01Z"/>
    <path fill="url(#g)" d="M49.6097 21.4335c-.2206 1.7819-.6469 3.5538-1.2688 5.2556-.6219 1.7069-1.4393 3.3486-2.4323 4.8753-.998 1.5216-2.1615 2.9381-3.4202 4.2345-.5567.5856-1.1435 1.1412-1.7402 1.6768 2.8284.1401 5.672.1652 8.5105.0701.8074-.0251 1.6148-.0651 2.4222-.1101 1.0632-2.8381 1.645-5.9064 1.645-9.1148 0-4.9653-1.3942-9.6003-3.8065-13.5495.0652.4355.1154.8709.1505 1.3114.1655 1.7669.1605 3.5638-.0502 5.3457l-.01.005Z"/>
    <path fill="#12BDBD" d="M56.6944 9.76122c0 4.52258-3.6663 8.18898-8.1889 8.18898-4.5227 0-8.189-3.6664-8.189-8.18898 0-4.52264 3.6663-8.18895 8.189-8.18895 4.5226 0 8.1889 3.66631 8.1889 8.18895Z"/>
    <path fill="#fff" fill-rule="evenodd" d="M48.5055 2.69215c-3.9041 0-7.069 3.16487-7.069 7.06895 0 3.9041 3.1649 7.0689 7.069 7.0689s7.0689-3.1648 7.0689-7.0689c0-3.90408-3.1648-7.06895-7.0689-7.06895Zm-9.309 7.06895c0-5.14119 4.1678-9.308952 9.309-9.308952 5.1412 0 9.3089 4.167762 9.3089 9.308952 0 5.1412-4.1677 9.3089-9.3089 9.3089-5.1412 0-9.309-4.1677-9.309-9.3089Z" clip-rule="evenodd"/>
  </g>
  <path fill="currentColor" d="M123.465 15.6074h5.633v20.4662h11.53v4.3195h-17.163V15.6074Zm39.502 24.7853-1.699-3.924H151.7l-1.74 3.924h-5.599l11.833-25.3341h.829l11.646 25.3341h-5.709.007Zm-6.504-14.6635-3.065 6.8981h6.2l-2.99-6.8981h-.152.007Zm25.85-10.1315c2.569 0 4.764.7143 6.538 2.1843 1.816 1.4288 2.72 3.4209 2.72 5.9419 0 2.8575-1.629 5.983-4.991 7.5217l6.579 9.1428h-6.427l-6.579-10.1182v-.529c3.935-.4533 5.861-2.782 5.861-5.2274 0-2.8576-1.85-4.6641-4.764-4.6641h-3.403v20.5387h-5.634V15.5977h10.1Zm20.416 24.8622h-5.633V15.5801h5.633v24.8798Zm21.513-24.8515h5.592v14.8664c0 3.0279-.904 5.4897-2.761 7.3923-1.85 1.8686-4.502 2.8028-7.94 2.8028-7.069 0-10.701-3.9212-10.701-10.086V15.6084h5.634v14.9414c0 3.1029 1.774 5.5647 5.102 5.5647 3.328 0 5.067-2.3527 5.067-5.3805V15.6084h.007Z"/>
  <path fill="currentColor" stroke="#000" stroke-width=".317288" d="m86.1399 22.389.015.142h4.6043l-.0028-.1614c-.0246-1.4356-.4227-2.7105-1.1966-3.8193-.7725-1.1149-1.8354-1.9819-3.1833-2.6023-1.3417-.6294-2.8991-.9416-4.6681-.9416-1.7454 0-3.3139.3124-4.7024.9408-1.388.62-2.4911 1.4947-3.3039 2.6252l-.0005.0006c-.8077 1.1349-1.2098 2.4563-1.2098 3.9579 0 1.8269.6006 3.3063 1.8097 4.4215l.0008.0007c1.2045 1.0951 2.836 1.9056 4.8849 2.4386l2.8064.7317.0005.0001c.8769.226 1.6391.4835 2.2878.7718l.0021.001c.6502.2775 1.146.6225 1.4957 1.0305l.001.0011c.3404.3895.5189.8873.5269 1.5054-.008.6817-.21 1.2729-.6045 1.7801-.3976.503-.9515.9024-1.6692 1.1947-.708.2835-1.5383.4275-2.4941.4275-.9151 0-1.7388-.1397-2.473-.4165-.7227-.2753-1.3051-.6903-1.7519-1.244-.4421-.5479-.6979-1.2392-.7602-2.0828l-.0108-.1469h-4.7088l.0064.1647c.0651 1.6827.4975 3.1194 1.3042 4.3028l.0004.0006c.8136 1.1814 1.9384 2.0777 3.3686 2.69l.0003.0001c1.4372.6118 3.1255.9151 5.0609.9151 1.9913 0 3.6968-.3113 5.1114-.9405l.0004-.0002c1.4203-.6363 2.5134-1.5201 3.2711-2.6542l.0003-.0004c.7576-1.1423 1.1346-2.462 1.1346-3.9535 0-1.101-.2045-2.0692-.6189-2.9001-.4114-.8245-.9712-1.5291-1.6789-2.1123-.6949-.5793-1.4829-1.0586-2.363-1.4381-.8676-.3776-1.7715-.6772-2.7114-.8988l-2.3114-.585-.0018-.0004c-.5002-.1206-.9966-.2694-1.4891-.4463-.4875-.1752-.9302-.3895-1.3288-.6426-.3913-.2565-.6993-.5653-.9268-.9258-.2148-.353-.3254-.774-.3255-1.2691.0078-.5943.1787-1.1187.5119-1.5787.3333-.4602.8181-.8301 1.4635-1.1057.6421-.2741 1.4188-.4141 2.3347-.4141 1.3018 0 2.3426.2915 3.1356.8605l.0006.0005c.7962.5658 1.2476 1.353 1.3555 2.3751Z"/>
  <path fill="currentColor" d="M280.298 15.6074h5.633v20.4662h11.529v4.3195h-17.162V15.6074ZM319.8 40.3927l-1.699-3.924h-9.568l-1.74 3.924h-5.599l11.833-25.3341h.828l11.647 25.3341h-5.709.007Zm-6.504-14.6635-3.065 6.8981h6.2l-2.99-6.8981h-.152.007Z"/>
  <path fill="currentColor" stroke="#000" stroke-width=".311111" d="M329.368 40.0824v.1556h10.017c1.879 0 3.45-.2893 4.706-.8763 1.252-.5852 2.197-1.387 2.826-2.4085v-.0004c.627-1.0256.939-2.1793.939-3.4572 0-1.2491-.258-2.3243-.783-3.2186-.519-.8863-1.192-1.5749-2.017-2.0616-.741-.4486-1.516-.7143-2.323-.7946.729-.196 1.395-.4967 1.997-.9023.664-.447 1.192-1.0284 1.584-1.7421l.001-.0007c.395-.7279.589-1.5967.589-2.6004 0-1.2228-.3-2.3218-.903-3.2926-.597-.9742-1.499-1.7365-2.695-2.2901-1.193-.5634-2.681-.8409-4.456-.8409h-9.482v24.3307Zm13.18-8.7837v.0008c.341.5484.512 1.1649.512 1.8538 0 .9158-.338 1.6593-1.016 2.2429-.664.5695-1.771.8714-3.36.8714h-4.591v-6.7715h4.709c.893 0 1.653.1656 2.285.4904l.001.0006c.634.3186 1.119.7559 1.46 1.3116Zm-.876-6.8034v.0004c-.332.4861-.789.8659-1.376 1.1384-.588.265-1.251.3991-1.993.3991h-4.21v-6.3583h4.305c1.279 0 2.214.2982 2.833.8678l.001.0006c.632.5752.948 1.304.948 2.1986 0 .6809-.171 1.2631-.508 1.7534Z"/>
  <path fill="currentColor" stroke="#000" stroke-width=".317288" d="m366.215 22.389.015.142h4.604l-.002-.1614c-.025-1.4356-.423-2.7105-1.197-3.8193-.772-1.1149-1.835-1.9819-3.183-2.6023-1.342-.6294-2.899-.9416-4.668-.9416-1.746 0-3.314.3124-4.703.9408-1.388.62-2.491 1.4947-3.304 2.6252v.0006c-.808 1.1349-1.21 2.4563-1.21 3.9579 0 1.8269.601 3.3063 1.81 4.4215l.001.0007c1.204 1.0951 2.835 1.9056 4.884 2.4386l2.807.7317v.0001c.877.226 1.639.4835 2.288.7718l.002.001c.65.2775 1.146.6225 1.496 1.0305l.001.0011c.34.3895.519.8873.527 1.5054-.008.6817-.21 1.2729-.605 1.7801-.397.503-.951.9024-1.669 1.1947-.708.2835-1.538.4275-2.494.4275-.915 0-1.739-.1397-2.473-.4165-.723-.2753-1.305-.6903-1.752-1.244-.442-.5479-.698-1.2392-.76-2.0828l-.011-.1469h-4.709l.007.1647c.065 1.6827.497 3.1194 1.304 4.3028v.0006c.814 1.1814 1.939 2.0777 3.369 2.69v.0001c1.437.6118 3.126.9151 5.061.9151 1.991 0 3.697-.3113 5.112-.9405v-.0002c1.42-.6363 2.513-1.5201 3.271-2.6542v-.0004c.758-1.1423 1.135-2.462 1.135-3.9535 0-1.101-.205-2.0692-.619-2.9001-.411-.8245-.971-1.5291-1.679-2.1123-.695-.5793-1.483-1.0586-2.363-1.4381-.868-.3776-1.771-.6772-2.711-.8988l-2.312-.585-.001-.0004c-.501-.1206-.997-.2694-1.49-.4463-.487-.1752-.93-.3895-1.328-.6426-.392-.2565-.7-.5653-.927-.9258-.215-.353-.326-.774-.326-1.2691.008-.5943.179-1.1187.512-1.5787.333-.4602.818-.8301 1.464-1.1057.642-.2741 1.418-.4141 2.334-.4141 1.302 0 2.343.2915 3.136.8605l.001.0005c.796.5658 1.247 1.353 1.355 2.3751Z"/>
  <path fill="currentColor" d="M248.87 35.807h-.835l-6.959-7.5633c-.034.0343-.076.0343-.11.0343v12.111h-5.406V15.1504h.828l12.061 13.8833 12.02-13.8833h.794v25.2455h-5.447v-12.111c-.035-.0343-.076-.0343-.152-.0343l-6.807 7.5633.013-.0069Zm-142.387 5.2459c-1.908 0-3.672-.3337-5.293-1.0013-1.5979-.6676-3.0046-1.5975-4.2206-2.7896-1.2159-1.1922-2.1577-2.575-2.8253-4.1486-.6676-1.5975-1.0014-3.3142-1.0014-5.15 0-1.8598.3338-3.5764 1.0014-5.15.6676-1.5736 1.5974-2.9446 2.7896-4.1129 1.1921-1.1921 2.5869-2.11 4.1843-2.7538 1.621-.6676 3.386-1.0014 5.293-1.0014 1.884 0 3.624.3338 5.222 1.0014 1.621.6438 3.028 1.5617 4.22 2.7538 1.216 1.1683 2.158 2.5512 2.825 4.1486.668 1.5736 1.002 3.2903 1.002 5.15 0 1.8359-.334 3.5526-1.002 5.15-.667 1.5736-1.597 2.9565-2.789 4.1486-1.193 1.1683-2.599 2.0863-4.221 2.7539-1.597.6676-3.326 1.0013-5.185 1.0013Zm-.072-5.1142c1.502 0 2.814-.3338 3.934-1.0014 1.145-.6676 2.027-1.5974 2.647-2.7896.62-1.2159.93-2.6107.93-4.1843 0-1.1922-.179-2.2651-.537-3.2188-.358-.9775-.87-1.812-1.538-2.5035-.667-.7152-1.466-1.2517-2.396-1.6093-.906-.3815-1.919-.5723-3.04-.5723-1.502 0-2.825.3338-3.97 1.0014-1.12.6438-1.991 1.5617-2.6105 2.7539-.6199 1.1682-.9298 2.5511-.9298 4.1486 0 1.1921.1788 2.2769.5364 3.2545.3577.9775.8579 1.8239 1.5019 2.5392.668.6914 1.467 1.2279 2.396 1.6094.93.3815 1.956.5722 3.076.5722Z"/>
  <defs>
    <linearGradient id="b" x1="41.2308" x2=".470264" y1="6.1898" y2="47.0192" gradientUnits="userSpaceOnUse">
      <stop stop-color="#02C6B4"/>
      <stop offset="1" stop-color="#6C83FF"/>
    </linearGradient>
    <linearGradient id="c" x1="41.2308" x2=".470264" y1="6.1898" y2="47.0192" gradientUnits="userSpaceOnUse">
      <stop stop-color="#02C6B4"/>
      <stop offset="1" stop-color="#6C83FF"/>
    </linearGradient>
    <linearGradient id="d" x1="41.2308" x2=".470264" y1="6.1898" y2="47.0192" gradientUnits="userSpaceOnUse">
      <stop stop-color="#02C6B4"/>
      <stop offset="1" stop-color="#6C83FF"/>
    </linearGradient>
    <linearGradient id="e" x1="41.2308" x2=".470264" y1="6.1898" y2="47.0192" gradientUnits="userSpaceOnUse">
      <stop stop-color="#02C6B4"/>
      <stop offset="1" stop-color="#6C83FF"/>
    </linearGradient>
    <linearGradient id="f" x1="41.2308" x2=".470264" y1="6.1898" y2="47.0192" gradientUnits="userSpaceOnUse">
      <stop stop-color="#02C6B4"/>
      <stop offset="1" stop-color="#6C83FF"/>
    </linearGradient>
    <linearGradient id="g" x1="41.2308" x2=".470264" y1="6.1898" y2="47.0192" gradientUnits="userSpaceOnUse">
      <stop stop-color="#02C6B4"/>
      <stop offset="1" stop-color="#6C83FF"/>
    </linearGradient>
    <clipPath id="a">
      <path fill="#fff" d="M0-.00097656h56v56H0z"/>
    </clipPath>
  </defs>
</svg>
