<svg xmlns="http://www.w3.org/2000/svg" width="120" height="120" fill="none" viewBox="0 0 120 120">
  <g clip-path="url(#a)">
    <path fill="#00A99D" d="M81.5798 15.3087c-.5433 7.1409-1.6645 14.2473-3.5138 21.1921-1.8378 6.9333-4.4038 13.705-7.7904 20.05-1.6991 3.1724-3.5947 6.2411-5.7099 9.1482-2.1152 2.9071-4.4385 5.6643-6.9466 8.2254-.8323.8536-1.6991 1.6842-2.566 2.4918.2774.0692.5548.1269.8437.1846l2.8319.5652c1.884.3577 3.768.7845 5.6752 1.0614 4.8892.8652 9.8131 1.5112 14.7717 2.0073.601-.3923 1.2021-.796 1.7916-1.2113 3.0976-2.1804 6.1259-4.4761 8.8884-7.0602 2.7625-2.561 5.3285-5.2836 7.5824-8.2715 2.2192-2.9994 4.161-6.2065 5.721-9.6212 4.346-9.4828 5.525-20.3961 4.023-31.0787-6.542-8.3176-15.2459-14.85863-25.2555-18.79249v.36916c.0347 3.59931-.0809 7.17553-.3467 10.75173v-.0115Z"/>
    <path fill="#00D1C2" d="M25.1281 90.5823c.786-.323 1.5835-.6229 2.3695-.969l2.3232-1.0614c3.063-1.4766 6.0682-3.0571 8.9116-4.9029 1.8147-1.1767 3.5831-2.4226 5.2938-3.7377l-3.6756-.8191-1.4448-.323-1.4333-.3807-2.8665-.7614c-1.9187-.5076-3.8374-.9921-5.7214-1.615l-5.6868-1.7766-5.6058-2.0189c-.9363-.346-1.8725-.6691-2.7972-1.0267l-2.7509-1.1421c-1.8378-.7729-3.68713-1.5112-5.50181-2.3188l-5.40936-2.561L0 64.6258c.855326 11.294 4.85456 21.7112 11.1077 30.3864 3.1208-.7498 6.2069-1.615 9.2468-2.6302 1.6066-.5884 3.2363-1.119 4.8083-1.7881l-.0347-.0116ZM2.5205 56.2737c.40455.2538.82065.4845 1.23676.7037l1.24831.6807 5.01633 2.7225c1.6876.8768 3.4214 1.6612 5.132 2.4919l2.5775 1.2343c.8669.3923 1.7569.7499 2.6238 1.1306l5.2707 2.2265 5.3747 1.9958c1.78.7037 3.6062 1.2574 5.4324 1.8573l2.7278.8883 1.3639.4384 1.3871.3922 5.548 1.5458c.6935.1846 1.3986.3461 2.0921.5076 1.5142-1.4651 2.9821-2.9879 4.3575-4.5799 2.1846-2.5264 4.1842-5.2028 5.9758-8.0061 1.7915-2.8033 3.375-5.745 4.7621-8.7675 2.774-6.045 4.762-12.4476 6.0797-18.9772 1.3292-6.5295 1.9649-13.209 2.069-19.8769.0462-3.334-.0463-6.67949-.2774-9.99039-.0809-1.2113-.1965-2.42261-.3237-3.62238C68.2188.438324 64.0924-.0000534 59.8621-.0000534 28.4693.0230191 2.68232 24.0876.0238724 54.7625c.0231169.0115.0462338.0231.0693508.0461L2.53206 56.2853l-.01156-.0116Z"/>
    <path fill="#00A99D" d="m57.8149 82.3918-2.9359-.4269c-.9824-.1384-1.9418-.3461-2.9127-.5076-.786-.15-1.5835-.2884-2.3695-.4268-2.8549 2.1457-5.8486 4.0953-8.9462 5.8258-3.0861 1.7535-6.3225 3.2186-9.582 4.5453l-2.4735.9459c-.8207.3115-1.6644.5653-2.4966.8537-1.6529.5884-3.3636 1.0267-5.0395 1.5343-2.8781.773-5.7793 1.419-8.692 1.9497.5201.6806 1.0634 1.3381 1.6182 1.9957.6819-.0346 1.3639-.0692 2.0343-.1038 1.9187-.1269 3.8258-.2653 5.7445-.4269.9594-.0692 1.9072-.173 2.8665-.2768.9594-.0923 1.9072-.1731 2.855-.3 15.2225-1.6958 30.26-5.6873 43.7372-12.7244.5201-.2654 1.0287-.5538 1.5373-.8306-3.0283-.2192-6.0566-.5076-9.0734-.8768-1.9649-.1846-3.9068-.5076-5.8717-.7729v.0231Z"/>
    <path fill="#007A8F" d="M87.2442 84.6413h-.4508c-.3583.2885-.7166.5769-1.0749.8537-3.2826 2.5495-6.7386 4.8337-10.3218 6.9102-1.78 1.0614-3.6178 1.9958-5.4556 2.9649-1.8609.8882-3.7102 1.8227-5.6174 2.6187-1.884.8537-3.8143 1.5689-5.733 2.3192-1.9418.692-3.8836 1.395-5.8486 2.007-3.9183 1.246-7.906 2.319-11.9283 3.172-4.0223.854-8.0678 1.615-12.1364 2.077-1.5951.196-3.1901.346-4.7852.484C33.925 115.558 46.385 120 59.8968 120c24.9085 0 46.2682-15.124 55.3882-36.6622-1.503.1615-3.005.3114-4.519.4383-7.802.6691-15.6505.9691-23.5103.8883l-.0115-.0231Zm24.1908-40.5265c-.509 4.1069-1.491 8.1907-2.924 12.1131-1.434 3.9338-3.318 7.7177-5.606 11.2363-2.3 3.507-4.9818 6.7717-7.883 9.7596-1.283 1.3498-2.6353 2.6303-4.0108 3.8646 6.519.3231 13.0728.3808 19.6148.1616 1.861-.0577 3.722-.15 5.583-.2538 2.45-6.5411 3.791-13.6128 3.791-21.0075 0-11.444-3.213-22.1265-8.773-31.2286.15 1.0036.266 2.0073.347 3.0225.381 4.0723.37 8.2138-.116 12.3207l-.023.0115Z"/>
  </g>
  <defs>
    <clipPath id="a">
      <path d="M0 0h120v120H0z"/>
    </clipPath>
  </defs>
</svg>
