<svg
  width="40"
  height="40"
  viewBox="0 0 40 40"
  fill="none"
  xmlns="http://www.w3.org/2000/svg"
>
  <path
    d="M33.7359 8.64285C31.2096 7.48366 28.5005 6.62962 25.6679 6.14048C25.6163 6.13104 25.5648 6.15463 25.5382 6.20182C25.1898 6.8215 24.8039 7.62993 24.5336 8.26535C21.4871 7.80924 18.4561 7.80924 15.472 8.26535C15.2017 7.6158 14.8018 6.8215 14.4518 6.20182C14.4252 6.15621 14.3737 6.13261 14.3221 6.14048C11.4911 6.62806 8.78201 7.4821 6.25413 8.64285C6.23224 8.65228 6.21348 8.66802 6.20103 8.68846C1.06244 16.3654 -0.345241 23.8537 0.345319 31.2491C0.348443 31.2853 0.368753 31.3199 0.396876 31.3419C3.78718 33.8316 7.07126 35.3431 10.2944 36.345C10.3459 36.3608 10.4006 36.3419 10.4334 36.2994C11.1959 35.2582 11.8755 34.1604 12.4582 33.0059C12.4926 32.9383 12.4598 32.8581 12.3895 32.8313C11.3115 32.4224 10.285 31.9238 9.29757 31.3576C9.21947 31.312 9.21322 31.2003 9.28507 31.1468C9.49286 30.9911 9.7007 30.8291 9.89911 30.6655C9.935 30.6357 9.98503 30.6294 10.0272 30.6482C16.5141 33.6099 23.5368 33.6099 29.9472 30.6482C29.9894 30.6278 30.0394 30.6341 30.0768 30.664C30.2753 30.8275 30.4831 30.9911 30.6924 31.1468C30.7643 31.2003 30.7596 31.312 30.6815 31.3576C29.6941 31.9348 28.6676 32.4224 27.588 32.8298C27.5177 32.8565 27.4865 32.9383 27.5209 33.0059C28.1161 34.1588 28.7957 35.2566 29.5441 36.2978C29.5753 36.3419 29.6316 36.3608 29.6831 36.345C32.9219 35.3431 36.2059 33.8316 39.5962 31.3419C39.6259 31.3199 39.6447 31.2868 39.6478 31.2507C40.4743 22.7007 38.2635 15.2739 33.7874 8.69002C33.7765 8.66802 33.7578 8.65228 33.7359 8.64285ZM13.4269 26.7461C11.4739 26.7461 9.86472 24.9531 9.86472 22.7511C9.86472 20.5491 11.4427 18.7561 13.4269 18.7561C15.4267 18.7561 17.0203 20.5649 16.989 22.7511C16.989 24.9531 15.411 26.7461 13.4269 26.7461ZM26.5975 26.7461C24.6446 26.7461 23.0354 24.9531 23.0354 22.7511C23.0354 20.5491 24.6133 18.7561 26.5975 18.7561C28.5973 18.7561 30.1909 20.5649 30.1597 22.7511C30.1597 24.9531 28.5973 26.7461 26.5975 26.7461Z"
    fill="#000"
  />
</svg>
