<svg width="40" height="40" viewBox="0 0 40 40" fill="none" xmlns="http://www.w3.org/2000/svg">
<path d="M33.7359 8.64272C31.2096 7.48354 28.5005 6.6295 25.6679 6.14036C25.6163 6.13092 25.5648 6.15451 25.5382 6.20169C25.1898 6.82138 24.8039 7.6298 24.5336 8.26522C21.4871 7.80912 18.4561 7.80912 15.472 8.26522C15.2017 7.61568 14.8018 6.82138 14.4518 6.20169C14.4252 6.15608 14.3737 6.13249 14.3221 6.14036C11.4911 6.62794 8.78201 7.48197 6.25413 8.64272C6.23224 8.65216 6.21348 8.6679 6.20103 8.68833C1.06244 16.3653 -0.345241 23.8535 0.345319 31.249C0.348443 31.2851 0.368753 31.3198 0.396876 31.3418C3.78718 33.8315 7.07126 35.343 10.2944 36.3449C10.3459 36.3606 10.4006 36.3418 10.4334 36.2993C11.1959 35.2581 11.8755 34.1603 12.4582 33.0058C12.4926 32.9382 12.4598 32.858 12.3895 32.8312C11.3115 32.4223 10.285 31.9237 9.29757 31.3575C9.21947 31.3119 9.21322 31.2002 9.28507 31.1467C9.49286 30.991 9.7007 30.829 9.89911 30.6654C9.935 30.6355 9.98503 30.6292 10.0272 30.6481C16.5141 33.6098 23.5368 33.6098 29.9472 30.6481C29.9894 30.6277 30.0394 30.634 30.0768 30.6639C30.2753 30.8274 30.4831 30.991 30.6924 31.1467C30.7643 31.2002 30.7596 31.3119 30.6815 31.3575C29.6941 31.9347 28.6676 32.4223 27.588 32.8297C27.5177 32.8564 27.4865 32.9382 27.5209 33.0058C28.1161 34.1587 28.7957 35.2565 29.5441 36.2977C29.5753 36.3418 29.6316 36.3606 29.6831 36.3449C32.9219 35.343 36.2059 33.8315 39.5962 31.3418C39.6259 31.3198 39.6447 31.2867 39.6478 31.2505C40.4743 22.7006 38.2635 15.2738 33.7874 8.6899C33.7765 8.6679 33.7578 8.65216 33.7359 8.64272ZM13.4269 26.7459C11.4739 26.7459 9.86472 24.9529 9.86472 22.751C9.86472 20.549 11.4427 18.756 13.4269 18.756C15.4267 18.756 17.0203 20.5647 16.989 22.751C16.989 24.9529 15.411 26.7459 13.4269 26.7459ZM26.5975 26.7459C24.6446 26.7459 23.0354 24.9529 23.0354 22.751C23.0354 20.549 24.6133 18.756 26.5975 18.756C28.5973 18.756 30.1909 20.5647 30.1597 22.751C30.1597 24.9529 28.5973 26.7459 26.5975 26.7459Z" fill="#5865F2"/>
</svg>
