<svg
  width="40"
  height="40"
  viewBox="0 0 40 40"
  fill="none"
  xmlns="http://www.w3.org/2000/svg"
>
  <rect width="40" height="40" rx="20" fill="url(#gradient)" />
  <path
    fill-rule="evenodd"
    clip-rule="evenodd"
    d="M6.64294 19.5982C6.64294 12.155 12.4766 6.64185 20 6.64185C27.5233 6.64185 33.357 12.1583 33.357 19.6015C33.357 27.0447 27.5233 32.5578 20 32.5578C18.6476 32.5578 17.3519 32.3775 16.1331 32.0436C15.896 31.9801 15.6422 31.9968 15.4185 32.097L12.7671 33.2657C12.0726 33.5729 11.2912 33.0787 11.2678 32.3207L11.1944 29.9432C11.1877 29.6493 11.0541 29.3755 10.837 29.1818C8.23911 26.8577 6.64294 23.4917 6.64294 19.5982ZM15.9025 17.1638L11.9788 23.3882C11.6015 23.986 12.3361 24.6571 12.8971 24.2297L17.1113 21.0307C17.3951 20.8137 17.7891 20.8137 18.0763 21.0274L21.1985 23.3682C22.1368 24.0694 23.4725 23.8257 24.097 22.8339L28.0239 16.6129C28.3979 16.0151 27.6633 15.3406 27.1023 15.768L22.8882 18.967C22.6043 19.1841 22.2103 19.1841 21.9231 18.9704L18.8009 16.6296C17.8626 15.9283 16.5269 16.1721 15.9025 17.1638Z"
    fill="white"
  />
  <defs>
    <radialGradient
      id="gradient"
      cx="0"
      cy="0"
      r="1"
      gradientUnits="userSpaceOnUse"
      gradientTransform="translate(7.7 39.7853) scale(43.584 43.5801)"
    >
      <stop stop-color="#0099FF" />
      <stop offset="0.6098" stop-color="#A033FF" />
      <stop offset="0.9348" stop-color="#FF5280" />
      <stop offset="1" stop-color="#FF7061" />
    </radialGradient>
  </defs>
</svg>
