<svg width="40" height="40" viewBox="0 0 40 40" fill="none" xmlns="http://www.w3.org/2000/svg">
<g clip-path="url(#clip0_1707_340)">
<path d="M13.6668 40.0001C17.3468 40.0001 20.3335 37.0133 20.3335 33.3333V26.6666H13.6668C9.98674 26.6666 7 29.6533 7 33.3333C7 37.0133 9.98674 40.0001 13.6668 40.0001Z" fill="black"/>
<path d="M7 20C7 16.32 9.98674 13.3333 13.6668 13.3333H20.3335V26.6665H13.6668C9.98674 26.6667 7 23.68 7 20Z" fill="black"/>
<path d="M7 6.66672C7 2.98672 9.98674 0 13.6668 0H20.3335V13.3333H13.6668C9.98674 13.3333 7 10.3467 7 6.66672Z" fill="black"/>
<path d="M20.3331 0H26.9999C30.6799 0 33.6667 2.98672 33.6667 6.66672C33.6667 10.3467 30.6799 13.3333 26.9999 13.3333H20.3331V0Z" fill="black"/>
<path d="M33.6667 20C33.6667 23.68 30.6799 26.6667 26.9999 26.6667C23.3199 26.6667 20.3331 23.68 20.3331 20C20.3331 16.32 23.3199 13.3333 26.9999 13.3333C30.6799 13.3333 33.6667 16.32 33.6667 20Z" fill="black"/>
</g>
<defs>
<clipPath id="clip0_1707_340">
<rect width="40" height="40" fill="white"/>
</clipPath>
</defs>
</svg>
