<svg width="40" height="40" viewBox="0 0 40 40" fill="none" xmlns="http://www.w3.org/2000/svg">
<g clip-path="url(#clip0_1707_319)">
<path d="M13.6668 40.0001C17.3469 40.0001 20.3336 37.0133 20.3336 33.3333V26.6666H13.6668C9.9868 26.6666 7.00006 29.6533 7.00006 33.3333C7.00006 37.0133 9.9868 40.0001 13.6668 40.0001Z" fill="#0ACF83"/>
<path d="M7.00006 20C7.00006 16.32 9.9868 13.3333 13.6668 13.3333H20.3336V26.6665H13.6668C9.9868 26.6667 7.00006 23.68 7.00006 20Z" fill="#A259FF"/>
<path d="M7.00006 6.66672C7.00006 2.98672 9.9868 0 13.6668 0H20.3336V13.3333H13.6668C9.9868 13.3333 7.00006 10.3467 7.00006 6.66672Z" fill="#F24E1E"/>
<path d="M20.3332 0H27C30.68 0 33.6667 2.98672 33.6667 6.66672C33.6667 10.3467 30.68 13.3333 27 13.3333H20.3332V0Z" fill="#FF7262"/>
<path d="M33.6667 20C33.6667 23.68 30.68 26.6667 27 26.6667C23.3199 26.6667 20.3332 23.68 20.3332 20C20.3332 16.32 23.3199 13.3333 27 13.3333C30.68 13.3333 33.6667 16.32 33.6667 20Z" fill="#1ABCFE"/>
</g>
<defs>
<clipPath id="clip0_1707_319">
<rect width="40" height="40" fill="white"/>
</clipPath>
</defs>
</svg>
