<svg width="40" height="40" viewBox="0 0 40 40" fill="none" xmlns="http://www.w3.org/2000/svg">
<rect width="40" height="40" rx="20" fill="white"/>
<path d="M16.0001 33C18.3921 33 20.3335 31.0586 20.3335 28.6666V24.3333H16.0001C13.6081 24.3333 11.6667 26.2746 11.6667 28.6666C11.6667 31.0586 13.6081 33 16.0001 33Z" fill="#0ACF83"/>
<path d="M11.6667 20C11.6667 17.608 13.6081 15.6666 16.0001 15.6666H20.3335V24.3333H16.0001C13.6081 24.3334 11.6667 22.392 11.6667 20Z" fill="#A259FF"/>
<path d="M11.6667 11.3334C11.6667 8.94137 13.6081 7 16.0001 7H20.3335V15.6666H16.0001C13.6081 15.6666 11.6667 13.7254 11.6667 11.3334Z" fill="#F24E1E"/>
<path d="M20.3333 7H24.6667C27.0587 7 29.0001 8.94137 29.0001 11.3334C29.0001 13.7254 27.0587 15.6666 24.6667 15.6666H20.3333V7Z" fill="#FF7262"/>
<path d="M29.0001 20C29.0001 22.392 27.0587 24.3334 24.6667 24.3334C22.2746 24.3334 20.3333 22.392 20.3333 20C20.3333 17.608 22.2746 15.6666 24.6667 15.6666C27.0587 15.6666 29.0001 17.608 29.0001 20Z" fill="#1ABCFE"/>
</svg>
