<svg width="40" height="40" viewBox="0 0 40 40" fill="none" xmlns="http://www.w3.org/2000/svg">
<path d="M38 20.3012C38 17.9921 36.2285 16.1181 34.0457 16.1181C32.9701 16.1181 32.0211 16.5531 31.3251 17.2894C28.6362 15.248 24.9033 13.9095 20.7909 13.7421L22.594 4.80709L28.4464 6.11221C28.5097 7.68504 29.7434 8.95669 31.2619 8.95669C32.812 8.95669 34.0773 7.61811 34.0773 5.97835C34.0773 4.33859 32.812 3 31.2619 3C30.1547 3 29.2056 3.66929 28.7627 4.67323L22.2144 3.20079C22.0246 3.16732 21.8348 3.20079 21.6766 3.30118C21.5185 3.40158 21.4236 3.5689 21.3603 3.76969L19.3673 13.7421C15.1599 13.876 11.3954 15.1811 8.67487 17.2894C7.97891 16.5866 6.99824 16.1181 5.95431 16.1181C3.77153 16.1181 2 17.9921 2 20.3012C2 22.0079 2.94903 23.4469 4.34095 24.1161C4.27768 24.5177 4.24605 24.9528 4.24605 25.3878C4.24605 31.813 11.3005 37 20.0316 37C28.7627 37 35.8172 31.813 35.8172 25.3878C35.8172 24.9528 35.7856 24.5512 35.7223 24.1496C37.0193 23.4803 38 22.0079 38 20.3012ZM10.9525 23.2795C10.9525 21.6398 12.2179 20.3012 13.768 20.3012C15.3181 20.3012 16.5835 21.6398 16.5835 23.2795C16.5835 24.9193 15.3181 26.2579 13.768 26.2579C12.2179 26.2579 10.9525 24.9193 10.9525 23.2795ZM26.6749 31.1437C24.7452 33.185 21.0756 33.3189 20 33.3189C18.9244 33.3189 15.2232 33.1516 13.3251 31.1437C13.0404 30.8425 13.0404 30.3406 13.3251 30.0394C13.6098 29.7382 14.0844 29.7382 14.3691 30.0394C15.5712 31.311 18.1652 31.7795 20.0316 31.7795C21.8981 31.7795 24.4605 31.311 25.6942 30.0394C25.9789 29.7382 26.4534 29.7382 26.7381 30.0394C26.9596 30.374 26.9596 30.8425 26.6749 31.1437ZM26.1687 26.2579C24.6186 26.2579 23.3533 24.9193 23.3533 23.2795C23.3533 21.6398 24.6186 20.3012 26.1687 20.3012C27.7188 20.3012 28.9842 21.6398 28.9842 23.2795C28.9842 24.9193 27.7188 26.2579 26.1687 26.2579Z" fill="black"/>
</svg>
