<svg
  width="40"
  height="40"
  viewBox="0 0 40 40"
  fill="none"
  xmlns="http://www.w3.org/2000/svg"
>
  <g clip-path="url(#clip0_1707_189)">
    <path
      d="M20 40C31.0457 40 40 31.0457 40 20C40 8.9543 31.0457 0 20 0C8.9543 0 0 8.9543 0 20C0 31.0457 8.9543 40 20 40Z"
      fill="currentColor"
    />
    <path
      d="M33.3333 20.0001C33.3333 18.386 32.0234 17.0761 30.4093 17.0761C29.614 17.0761 28.9123 17.3802 28.3977 17.8948C26.4093 16.4679 23.6491 15.5322 20.6082 15.4153L21.9415 9.16965L26.269 10.0819C26.3158 11.1813 27.2281 12.0702 28.3509 12.0702C29.4971 12.0702 30.4327 11.1346 30.4327 9.98837C30.4327 8.84217 29.4971 7.90649 28.3509 7.90649C27.5322 7.90649 26.8304 8.37433 26.5029 9.07608L21.6608 8.04685C21.5205 8.02345 21.3801 8.04685 21.2631 8.11702C21.1462 8.1872 21.076 8.30416 21.0292 8.44451L19.5555 15.4153C16.4444 15.5088 13.6608 16.4211 11.6491 17.8948C11.1345 17.4036 10.4093 17.0761 9.63742 17.0761C8.02338 17.0761 6.71344 18.386 6.71344 20.0001C6.71344 21.193 7.41519 22.1989 8.44443 22.6667C8.39765 22.9474 8.37426 23.2515 8.37426 23.5556C8.37426 28.0468 13.5906 31.6726 20.0468 31.6726C26.5029 31.6726 31.7193 28.0468 31.7193 23.5556C31.7193 23.2515 31.6959 22.9708 31.6491 22.6901C32.6082 22.2223 33.3333 21.193 33.3333 20.0001ZM13.3333 22.0819C13.3333 20.9357 14.269 20.0001 15.4152 20.0001C16.5614 20.0001 17.4971 20.9357 17.4971 22.0819C17.4971 23.2281 16.5614 24.1638 15.4152 24.1638C14.269 24.1638 13.3333 23.2281 13.3333 22.0819ZM24.9591 27.579C23.5322 29.0059 20.8187 29.0995 20.0234 29.0995C19.2281 29.0995 16.4912 28.9825 15.0877 27.579C14.8772 27.3685 14.8772 27.0176 15.0877 26.8071C15.2982 26.5966 15.6491 26.5966 15.8596 26.8071C16.7485 27.696 18.6667 28.0235 20.0468 28.0235C21.4269 28.0235 23.3216 27.696 24.2339 26.8071C24.4444 26.5966 24.7953 26.5966 25.0058 26.8071C25.1696 27.041 25.1696 27.3685 24.9591 27.579ZM24.5848 24.1638C23.4386 24.1638 22.5029 23.2281 22.5029 22.0819C22.5029 20.9357 23.4386 20.0001 24.5848 20.0001C25.731 20.0001 26.6667 20.9357 26.6667 22.0819C26.6667 23.2281 25.731 24.1638 24.5848 24.1638Z"
      fill="white"
    />
  </g>
  <defs>
    <clipPath id="clip0_1707_189">
      <rect width="40" height="40" fill="white" />
    </clipPath>
  </defs>
</svg>
