<svg
  width="40"
  height="40"
  viewBox="0 0 40 40"
  fill="none"
  xmlns="http://www.w3.org/2000/svg"
>
  <rect width="40" height="40" rx="20" fill="currentColor" />
  <path
    d="M17.5767 6.76077L17.8689 7.94428C16.7173 8.22888 15.6151 8.6852 14.5994 9.29791L13.9744 8.25125C15.0924 7.57419 16.3071 7.07158 17.5767 6.76077ZM23.8271 6.76077L23.5349 7.94428C24.6865 8.22888 25.7886 8.6852 26.8043 9.29791L27.4368 8.25125C26.3158 7.57478 25.0987 7.07224 23.8271 6.76077ZM9.5547 12.6672C8.87827 13.7869 8.37572 15.0027 8.06422 16.2732L9.24773 16.5654C9.53233 15.4138 9.98866 14.3117 10.6014 13.2959L9.5547 12.6672ZM8.90377 19.3984C8.90368 18.8066 8.94819 18.2157 9.03692 17.6305L7.83122 17.4456C7.6352 18.7389 7.6352 20.0543 7.83122 21.3475L9.03692 21.1663C8.94833 20.5811 8.90382 19.9902 8.90377 19.3984ZM27.4294 30.5419L26.8043 29.4989C25.7902 30.1122 24.6892 30.5686 23.5386 30.8525L23.8308 32.036C25.0988 31.7222 26.312 31.2185 27.4294 30.5419ZM32.5 19.3984C32.4999 19.9902 32.4554 20.5811 32.3668 21.1663L33.5725 21.3475C33.7686 20.0543 33.7686 18.7389 33.5725 17.4456L32.3668 17.6305C32.4556 18.2157 32.5001 18.8066 32.5 19.3984ZM33.3395 22.5199L32.156 22.2277C31.8721 23.3807 31.4157 24.4842 30.8024 25.5009L31.8491 26.1296C32.5261 25.009 33.0287 23.7918 33.3395 22.5199ZM22.4697 31.0634C21.2978 31.2409 20.1059 31.2409 18.934 31.0634L18.7528 32.2691C20.0448 32.4651 21.359 32.4651 22.651 32.2691L22.4697 31.0634ZM30.1995 26.3959C29.4966 27.3492 28.6537 28.1908 27.6994 28.8924L28.4243 29.8761C29.4754 29.1024 30.4053 28.1762 31.1833 27.1282L30.1995 26.3959ZM27.6994 9.90076C28.6538 10.6037 29.4966 11.4465 30.1995 12.4009L31.1833 11.6686C30.408 10.6197 29.4806 9.69225 28.4317 8.91697L27.6994 9.90076ZM11.2042 12.4009C11.9071 11.4465 12.75 10.6037 13.7044 9.90076L12.9721 8.91697C11.9231 9.69225 10.9957 10.6197 10.2204 11.6686L11.2042 12.4009ZM31.8491 12.6672L30.8024 13.2959C31.4157 14.3101 31.872 15.4111 32.156 16.5617L33.3395 16.2695C33.028 15.0002 32.5254 13.7856 31.8491 12.6672ZM18.934 7.73346C20.1059 7.55592 21.2978 7.55592 22.4697 7.73346L22.651 6.52776C21.359 6.33173 20.0448 6.33173 18.7528 6.52776L18.934 7.73346ZM11.8293 30.2016L9.3106 30.786L9.89866 28.2673L8.71145 27.9899L8.12339 30.5086C8.0866 30.6647 8.08095 30.8266 8.10678 30.985C8.1326 31.1433 8.18939 31.295 8.27389 31.4314C8.35839 31.5677 8.46895 31.6861 8.59925 31.7797C8.72954 31.8733 8.87701 31.9403 9.03322 31.9769C9.2159 32.0176 9.4053 32.0176 9.58799 31.9769L12.1066 31.3962L11.8293 30.2016ZM8.96295 26.9026L10.1539 27.1763L10.5607 25.4306C9.96657 24.434 9.52408 23.3546 9.24773 22.2277L8.06422 22.5199C8.33043 23.5985 8.73311 24.6388 9.26252 25.6155L8.96295 26.9026ZM14.6586 29.5433L12.9129 29.9501L13.1903 31.141L14.4737 30.8414C15.4497 31.3724 16.4901 31.7752 17.5693 32.0397L17.8615 30.8562C16.7381 30.5763 15.6625 30.1313 14.6697 29.5359L14.6586 29.5433ZM20.7019 8.82081C14.8583 8.82451 10.128 13.5622 10.128 19.4021C10.1312 21.3912 10.6938 23.3393 11.7516 25.0238L10.7345 29.3658L15.0728 28.3487C20.0177 31.4591 26.5492 29.976 29.6596 25.0349C32.77 20.0937 31.2906 13.5622 26.3494 10.4481C24.6579 9.38438 22.7001 8.82027 20.7019 8.82081Z"
    fill="white"
  />
</svg>
