<svg width="40" height="40" viewBox="0 0 40 40" fill="none" xmlns="http://www.w3.org/2000/svg">
<rect width="40" height="40" rx="20" fill="#3A76F0"/>
<path d="M17.5768 6.76089L17.869 7.9444C16.7174 8.229 15.6152 8.68533 14.5995 9.29803L13.9745 8.25137C15.0925 7.57431 16.3072 7.07171 17.5768 6.76089ZM23.8272 6.76089L23.535 7.9444C24.6866 8.229 25.7887 8.68533 26.8045 9.29803L27.4369 8.25137C26.3159 7.5749 25.0989 7.07236 23.8272 6.76089ZM9.55482 12.6673C8.87839 13.787 8.37584 15.0028 8.06434 16.2733L9.24785 16.5655C9.53246 15.4139 9.98878 14.3118 10.6015 13.2961L9.55482 12.6673ZM8.90389 19.3985C8.9038 18.8067 8.94831 18.2158 9.03704 17.6307L7.83134 17.4457C7.63532 18.739 7.63532 20.0544 7.83134 21.3476L9.03704 21.1664C8.94845 20.5813 8.90394 19.9903 8.90389 19.3985ZM27.4295 30.542L26.8045 29.499C25.7904 30.1123 24.6893 30.5687 23.5387 30.8527L23.8309 32.0362C25.0989 31.7224 26.3122 31.2186 27.4295 30.542ZM32.5001 19.3985C32.5001 19.9903 32.4555 20.5813 32.367 21.1664L33.5727 21.3476C33.7687 20.0544 33.7687 18.739 33.5727 17.4457L32.367 17.6307C32.4557 18.2158 32.5002 18.8067 32.5001 19.3985ZM33.3397 22.52L32.1561 22.2279C31.8722 23.3808 31.4159 24.4843 30.8025 25.501L31.8492 26.1297C32.5263 25.0091 33.0288 23.7919 33.3397 22.52ZM22.4699 31.0635C21.298 31.241 20.106 31.241 18.9341 31.0635L18.7529 32.2692C20.0449 32.4652 21.3591 32.4652 22.6511 32.2692L22.4699 31.0635ZM30.1997 26.396C29.4967 27.3493 28.6538 28.1909 27.6995 28.8925L28.4244 29.8763C29.4755 29.1025 30.4054 28.1763 31.1834 27.1283L30.1997 26.396ZM27.6995 9.90088C28.6539 10.6038 29.4968 11.4467 30.1997 12.401L31.1834 11.6687C30.4082 10.6198 29.4807 9.69237 28.4318 8.91709L27.6995 9.90088ZM11.2043 12.401C11.9072 11.4467 12.7501 10.6038 13.7045 9.90088L12.9722 8.91709C11.9233 9.69237 10.9958 10.6198 10.2205 11.6687L11.2043 12.401ZM31.8492 12.6673L30.8025 13.2961C31.4158 14.3102 31.8722 15.4112 32.1561 16.5618L33.3397 16.2696C33.0281 15.0003 32.5256 13.7857 31.8492 12.6673ZM18.9341 7.73359C20.106 7.55604 21.298 7.55604 22.4699 7.73359L22.6511 6.52789C21.3591 6.33185 20.0449 6.33185 18.7529 6.52789L18.9341 7.73359ZM11.8294 30.2017L9.31072 30.7861L9.89878 28.2674L8.71157 27.9901L8.12352 30.5087C8.08672 30.6649 8.08108 30.8267 8.1069 30.9851C8.13272 31.1434 8.18951 31.2951 8.27401 31.4315C8.35852 31.5679 8.46908 31.6862 8.59937 31.7798C8.72966 31.8734 8.87713 31.9404 9.03334 31.977C9.21602 32.0177 9.40542 32.0177 9.58811 31.977L12.1068 31.3963L11.8294 30.2017ZM8.96307 26.9027L10.154 27.1764L10.5608 25.4307C9.9667 24.4341 9.5242 23.3547 9.24785 22.2279L8.06434 22.52C8.33055 23.5986 8.73323 24.6389 9.26264 25.6156L8.96307 26.9027ZM14.6587 29.5434L12.913 29.9502L13.1904 31.1411L14.4738 30.8416C15.4498 31.3726 16.4903 31.7753 17.5694 32.0399L17.8616 30.8564C16.7382 30.5764 15.6626 30.1314 14.6698 29.536L14.6587 29.5434ZM20.702 8.82093C14.8584 8.82463 10.1281 13.5624 10.1281 19.4022C10.1313 21.3913 10.6939 23.3394 11.7517 25.0239L10.7346 29.3659L15.0729 28.3488C20.0178 31.4592 26.5493 29.9761 29.6597 25.035C32.7701 20.0938 31.2907 13.5624 26.3496 10.4483C24.658 9.3845 22.7002 8.82039 20.702 8.82093Z" fill="white"/>
</svg>
