<svg
  width="40"
  height="40"
  viewBox="0 0 40 40"
  fill="none"
  xmlns="http://www.w3.org/2000/svg"
>
  <g clip-path="url(#clip0_1707_300)">
    <path
      d="M20.0811 32.0382C13.4364 32.0382 10.4005 28.6533 10.4005 26.1706C10.3996 25.5783 10.6427 25.0118 11.0725 24.6044C11.5024 24.1969 12.0811 23.9845 12.6725 24.0171C15.5174 24.0171 14.7732 28.2845 20.0811 28.2845C22.7943 28.2845 24.388 26.6513 24.388 25.1169C24.388 24.1949 23.8611 23.1413 22.0699 22.7198L16.143 21.2249C11.3817 20.0132 10.552 17.3658 10.552 14.9095C10.552 9.81233 15.2145 7.96841 19.653 7.96841C23.7426 7.96841 28.6026 10.2272 28.6026 13.2829C28.6026 14.5999 27.5029 15.3046 26.2253 15.3046C23.7953 15.3046 24.2036 11.8933 19.3172 11.8933C16.8872 11.8933 15.6096 13.0326 15.6096 14.6263C15.6096 16.22 17.4996 16.76 19.1591 17.1222L23.5319 18.11C28.3261 19.19 29.6036 22.002 29.6036 24.6954C29.6036 28.8377 26.3965 32.0382 20.0745 32.0382H20.0811ZM38.4281 23.273C38.618 22.1857 38.7127 21.084 38.7113 19.9803C38.7345 14.4361 36.2985 9.16688 32.0598 5.59308C27.821 2.01929 22.216 0.508725 16.7554 1.46858C15.0771 0.502254 13.1735 -0.00430082 11.2368 2.75068e-05C7.26161 0.0243113 3.59739 2.15483 1.60979 5.59758C-0.37782 9.04032 -0.390678 13.2789 1.576 16.7336C0.47861 22.7635 2.40092 28.9488 6.72287 33.2943C11.0448 37.6399 17.2195 39.5959 23.2553 38.5314C24.9316 39.4969 26.8328 40.0035 28.7673 40C32.7405 39.9744 36.4025 37.8448 38.3897 34.4041C40.3768 30.9635 40.3915 26.7273 38.4281 23.273Z"
      fill="currentColor"
    />
  </g>
  <defs>
    <clipPath id="clip0_1707_300">
      <rect width="40" height="40" fill="white" />
    </clipPath>
  </defs>
</svg>
