<svg width="40" height="40" viewBox="0 0 40 40" fill="none" xmlns="http://www.w3.org/2000/svg">
<g clip-path="url(#clip0_1707_294)">
<path d="M20.081 32.0382C13.4363 32.0382 10.4004 28.6533 10.4004 26.1706C10.3995 25.5783 10.6426 25.0118 11.0725 24.6044C11.5023 24.1969 12.081 23.9845 12.6724 24.0171C15.5173 24.0171 14.7732 28.2845 20.081 28.2845C22.7942 28.2845 24.3879 26.6513 24.3879 25.1169C24.3879 24.1949 23.8611 23.1413 22.0698 22.7198L16.1429 21.2249C11.3817 20.0132 10.5519 17.3658 10.5519 14.9095C10.5519 9.81233 15.2144 7.96841 19.653 7.96841C23.7425 7.96841 28.6026 10.2272 28.6026 13.2829C28.6026 14.5999 27.5028 15.3046 26.2252 15.3046C23.7952 15.3046 24.2035 11.8933 19.3171 11.8933C16.8871 11.8933 15.6095 13.0326 15.6095 14.6263C15.6095 16.22 17.4995 16.76 19.1591 17.1222L23.5318 18.11C28.326 19.19 29.6036 22.002 29.6036 24.6954C29.6036 28.8377 26.3965 32.0382 20.0744 32.0382H20.081ZM38.4281 23.273C38.6179 22.1857 38.7126 21.084 38.7112 19.9803C38.7345 14.4361 36.2984 9.16688 32.0597 5.59308C27.821 2.01929 22.2159 0.508725 16.7554 1.46858C15.077 0.502254 13.1735 -0.00430082 11.2368 2.75068e-05C7.26155 0.0243113 3.59733 2.15483 1.60973 5.59758C-0.377882 9.04032 -0.390739 13.2789 1.57594 16.7336C0.478549 22.7635 2.40086 28.9488 6.72281 33.2943C11.0448 37.6399 17.2195 39.5959 23.2552 38.5314C24.9315 39.4969 26.8327 40.0035 28.7672 40C32.7404 39.9744 36.4024 37.8448 38.3896 34.4041C40.3768 30.9635 40.3914 26.7273 38.4281 23.273Z" fill="#0078D7"/>
</g>
<defs>
<clipPath id="clip0_1707_294">
<rect width="40" height="40" fill="white"/>
</clipPath>
</defs>
</svg>
