<svg width="40" height="40" viewBox="0 0 40 40" fill="none" xmlns="http://www.w3.org/2000/svg">
<rect width="40" height="40" rx="20" fill="#0078D7"/>
<path d="M20.0521 27.7325C15.784 27.7325 13.8339 25.5582 13.8339 23.9635C13.8333 23.5831 13.9895 23.2192 14.2656 22.9575C14.5417 22.6958 14.9134 22.5593 15.2933 22.5803C17.1207 22.5803 16.6427 25.3213 20.0521 25.3213C21.7948 25.3213 22.8185 24.2723 22.8185 23.2867C22.8185 22.6945 22.4801 22.0177 21.3295 21.747L17.5225 20.7867C14.4642 20.0084 13.9312 18.3079 13.9312 16.7301C13.9312 13.4561 16.9261 12.2717 19.7771 12.2717C22.404 12.2717 25.5257 13.7226 25.5257 15.6853C25.5257 16.5313 24.8193 16.9839 23.9987 16.9839C22.4378 16.9839 22.7001 14.7928 19.5614 14.7928C18.0005 14.7928 17.1799 15.5246 17.1799 16.5482C17.1799 17.5719 18.3939 17.9188 19.4599 18.1514L22.2686 18.7859C25.3481 19.4797 26.1687 21.2859 26.1687 23.016C26.1687 25.6767 24.1087 27.7325 20.0478 27.7325H20.0521ZM31.8369 22.1023C31.9589 21.4039 32.0197 20.6962 32.0188 19.9873C32.0338 16.426 30.469 13.0415 27.7463 10.7459C25.0237 8.45037 21.4234 7.48009 17.9159 8.09664C16.8378 7.47593 15.6151 7.15056 14.3711 7.15334C11.8177 7.16894 9.46407 8.53744 8.18737 10.7488C6.91067 12.9602 6.90241 15.6828 8.16567 17.9019C7.46078 21.775 8.69554 25.748 11.4717 28.5393C14.2478 31.3306 18.214 32.587 22.0909 31.9033C23.1677 32.5234 24.3889 32.8488 25.6315 32.8466C28.1836 32.8301 30.5358 31.4622 31.8122 29.2522C33.0887 27.0421 33.0981 24.3211 31.8369 22.1023Z" fill="white"/>
</svg>
