<svg
  width="40"
  height="40"
  viewBox="0 0 40 40"
  fill="none"
  xmlns="http://www.w3.org/2000/svg"
>
  <path
    d="M35.1665 28.0307C29.6382 25.3545 28.7572 21.2227 28.7179 20.9162C28.6705 20.545 28.6167 20.2531 29.0262 19.8755C29.4212 19.5107 31.1733 18.4262 31.6595 18.0869C32.463 17.525 32.8169 16.9641 32.5561 16.2745C32.3737 15.7975 31.9295 15.6178 31.4615 15.6178C31.314 15.6183 31.1668 15.6348 31.0228 15.6671C30.1399 15.8586 29.2825 16.301 28.7863 16.4205C28.7267 16.4358 28.6655 16.4441 28.6039 16.4451C28.3394 16.4451 28.2391 16.3274 28.2646 16.0091C28.3266 15.0441 28.458 13.1606 28.3057 11.4011C28.0968 8.98039 27.316 7.78097 26.3902 6.72019C25.9424 6.20576 23.8628 3.99573 19.8495 3.99573C15.8362 3.99573 13.7594 6.20576 13.3143 6.71381C12.3857 7.77459 11.6059 8.97401 11.3988 11.3947C11.2465 13.1542 11.3833 15.0368 11.4399 16.0027C11.4581 16.3055 11.3651 16.4387 11.1006 16.4387C11.039 16.4376 10.9778 16.4294 10.9182 16.4141C10.4229 16.2946 9.5655 15.8522 8.68257 15.6607C8.53855 15.6284 8.39145 15.6119 8.24385 15.6114C7.77412 15.6114 7.33174 15.7938 7.14932 16.2681C6.88846 16.9577 7.24053 17.5186 8.04684 18.0805C8.53299 18.4198 10.2851 19.5034 10.6801 19.8691C11.0887 20.2467 11.0358 20.5386 10.9884 20.9098C10.9492 21.2209 10.0672 25.3527 4.53978 28.0243C4.21598 28.1812 3.66507 28.5132 4.63647 29.0495C6.16151 29.8923 7.17669 29.802 7.96566 30.31C8.63515 30.7415 8.23929 31.6718 8.72636 32.0075C9.3247 32.4206 11.0933 31.9783 13.3781 32.7326C15.2935 33.3638 16.4574 35.1469 19.8541 35.1469C23.2508 35.1469 24.4484 33.3556 26.33 32.7326C28.6103 31.9783 30.3825 32.4206 30.9818 32.0075C31.4679 31.6718 31.073 30.7415 31.7425 30.31C32.5315 29.802 33.5457 29.8923 35.0717 29.0495C36.0412 28.5196 35.4903 28.1876 35.1665 28.0307Z"
    fill="white"
  />
  <path
    d="M37.5717 27.7159C37.3236 27.041 36.8512 26.6798 36.313 26.3806C36.2118 26.3213 36.1187 26.2739 36.0394 26.2374C35.8789 26.1544 35.7147 26.0741 35.5514 25.9893C33.874 25.1 32.5643 23.9781 31.6558 22.6483C31.3978 22.2739 31.1741 21.877 30.9872 21.4625C30.9097 21.2409 30.9133 21.115 30.969 21.0001C31.0242 20.9116 31.0972 20.8355 31.1833 20.7766C31.4716 20.586 31.7689 20.3926 31.9705 20.2622C32.3299 20.0296 32.6144 19.8454 32.7978 19.7149C33.4864 19.2333 33.968 18.7217 34.269 18.1498C34.479 17.7546 34.6015 17.3189 34.6281 16.8723C34.6547 16.4256 34.5848 15.9784 34.4231 15.5612C33.9671 14.3609 32.8333 13.6157 31.4597 13.6157C31.17 13.6154 30.881 13.646 30.5978 13.7069C30.5221 13.7233 30.4464 13.7406 30.3725 13.7598C30.3852 12.9389 30.367 12.0724 30.294 11.2196C30.035 8.22148 28.9852 6.64992 27.8906 5.39669C27.1897 4.61135 26.3641 3.94695 25.4471 3.43018C23.7861 2.48159 21.9026 2 19.8495 2C17.7963 2 15.922 2.48159 14.2592 3.43018C13.3399 3.9471 12.5127 4.61284 11.8111 5.40033C10.7166 6.65357 9.66674 8.22787 9.4077 11.2232C9.33473 12.076 9.31649 12.9471 9.32835 13.7634C9.25447 13.7443 9.17968 13.727 9.10397 13.7105C8.82071 13.6496 8.53177 13.6191 8.24203 13.6193C6.86749 13.6193 5.73191 14.3645 5.27768 15.5649C5.11532 15.9823 5.04473 16.4298 5.0707 16.8769C5.09667 17.324 5.21859 17.7603 5.42818 18.1561C5.73009 18.728 6.21168 19.2397 6.90032 19.7213C7.08274 19.849 7.36823 20.0333 7.7276 20.2686C7.92188 20.3945 8.20555 20.5787 8.48374 20.7629C8.58107 20.8259 8.6638 20.9089 8.72636 21.0065C8.78473 21.126 8.78656 21.2546 8.69991 21.4917C8.51561 21.8975 8.29553 22.2861 8.04228 22.6528C7.15389 23.9526 5.88241 25.0544 4.25886 25.9364C3.39875 26.3925 2.50488 26.6971 2.12727 27.7232C1.84269 28.4976 2.02876 29.3787 2.75206 30.1212C3.01752 30.3983 3.32541 30.6313 3.66417 30.8116C4.36904 31.199 5.11855 31.4989 5.89609 31.7046C6.05655 31.746 6.20888 31.8141 6.34667 31.9062C6.61027 32.1369 6.57288 32.4844 6.92404 32.9934C7.10031 33.2564 7.3243 33.4841 7.5844 33.6647C8.32138 34.1737 9.14958 34.2056 10.027 34.2393C10.8196 34.2694 11.7181 34.3041 12.7442 34.6425C13.1692 34.7829 13.6107 35.0547 14.1224 35.3722C15.351 36.1274 17.0329 37.1608 19.8477 37.1608C22.6624 37.1608 24.3562 36.1219 25.5939 35.364C26.102 35.052 26.5407 34.7829 26.9539 34.6461C27.98 34.3068 28.8784 34.2731 29.6711 34.243C30.5485 34.2092 31.3767 34.1773 32.1137 33.6683C32.4217 33.4535 32.6784 33.1732 32.8653 32.8475C33.1179 32.4178 33.1115 32.1178 33.3487 31.908C33.4779 31.8203 33.621 31.755 33.7719 31.7146C34.56 31.5083 35.3198 31.2056 36.0339 30.8135C36.3938 30.6204 36.7178 30.3667 36.9916 30.0637L37.0007 30.0528C37.6794 29.3267 37.8499 28.4712 37.5717 27.7159ZM35.0698 29.0604C33.5439 29.9032 32.5296 29.8129 31.7406 30.3209C31.0702 30.7523 31.467 31.6827 30.9799 32.0183C30.3816 32.4315 28.613 31.9892 26.3282 32.7435C24.4438 33.3664 23.2416 35.1578 19.8522 35.1578C16.4628 35.1578 15.289 33.3701 13.3735 32.7389C11.0933 31.9846 9.32105 32.427 8.7218 32.0138C8.23565 31.6781 8.63059 30.7478 7.9611 30.3164C7.17122 29.8083 6.15696 29.8986 4.63191 29.0604C3.66052 28.5241 4.21143 28.1921 4.53523 28.0352C10.0626 25.3591 10.9446 21.2272 10.9838 20.9207C11.0313 20.5495 11.0842 20.2576 10.6755 19.88C10.2806 19.5152 8.52843 18.4307 8.04228 18.0914C7.2378 17.5295 6.8839 16.9686 7.14477 16.279C7.32719 15.802 7.7723 15.6223 8.23929 15.6223C8.38689 15.6228 8.534 15.6393 8.67802 15.6716C9.56094 15.8631 10.4183 16.3055 10.9136 16.425C10.9732 16.4403 11.0345 16.4485 11.096 16.4496C11.3605 16.4496 11.4536 16.3164 11.4353 16.0136C11.3788 15.0477 11.2419 13.1651 11.3943 11.4056C11.6031 8.98491 12.383 7.78549 13.3097 6.72471C13.7548 6.21485 15.8463 4.00481 19.8458 4.00481C23.8454 4.00481 25.9424 6.20572 26.3875 6.71377C27.3151 7.77455 28.0959 8.97397 28.3029 11.3947C28.4552 13.1542 28.3239 15.0377 28.2619 16.0027C28.2409 16.321 28.3366 16.4386 28.6012 16.4386C28.6627 16.4377 28.724 16.4294 28.7836 16.414C29.2798 16.2945 30.1371 15.8522 31.0201 15.6606C31.1641 15.6283 31.3112 15.6118 31.4588 15.6114C31.9285 15.6114 32.3709 15.7938 32.5533 16.2681C32.8142 16.9576 32.4621 17.5186 31.6567 18.0804C31.1706 18.4197 29.4184 19.5033 29.0235 19.8691C28.6139 20.2467 28.6677 20.5386 28.7152 20.9098C28.7544 21.2208 29.6355 25.3527 35.1638 28.0242C35.4903 28.1875 36.0412 28.5195 35.0698 29.0604Z"
    fill="currentColor"
  />
</svg>
