<svg width="40" height="40" viewBox="0 0 40 40" fill="none" xmlns="http://www.w3.org/2000/svg">
<path fill-rule="evenodd" clip-rule="evenodd" d="M3.39512 18.8221C13.7309 14.3189 20.6231 11.3502 24.0716 9.91584C33.9178 5.82048 35.9637 5.10907 37.2973 5.08558C37.5906 5.08041 38.2463 5.1531 38.6711 5.49779C39.0298 5.78884 39.1285 6.182 39.1757 6.45795C39.223 6.73389 39.2818 7.36251 39.235 7.85369C38.7015 13.4599 36.3927 27.0648 35.2182 33.3439C34.7212 36.0008 33.7425 36.8916 32.7951 36.9788C30.7362 37.1683 29.1728 35.6181 27.1786 34.3109C24.0581 32.2654 22.2952 30.9921 19.2662 28.996C15.7657 26.6893 18.035 25.4214 20.0299 23.3494C20.552 22.8071 29.6237 14.5558 29.7992 13.8072C29.8212 13.7136 29.8416 13.3647 29.6343 13.1804C29.427 12.9961 29.121 13.0591 28.9002 13.1093C28.5872 13.1803 23.6022 16.4752 13.9451 22.994C12.5302 23.9656 11.2485 24.439 10.1002 24.4142C8.83428 24.3869 6.39916 23.6984 4.58889 23.11C2.36853 22.3883 0.603831 22.0067 0.757497 20.7809C0.837536 20.1425 1.71674 19.4895 3.39512 18.8221Z" fill="url(#paint0_linear_1707_403)"/>
<defs>
<linearGradient id="paint0_linear_1707_403" x1="20.0002" y1="5.08533" x2="20.0002" y2="36.758" gradientUnits="userSpaceOnUse">
<stop stop-color="#2AABEE"/>
<stop offset="1" stop-color="#229ED9"/>
</linearGradient>
</defs>
</svg>
