<svg width="40" height="40" viewBox="0 0 40 40" fill="none" xmlns="http://www.w3.org/2000/svg">
<rect width="40" height="40" rx="20" fill="black"/>
<path d="M25.5774 16.1074C27.378 17.3991 29.5838 18.1591 31.9661 18.1591V13.5584C31.5153 13.5585 31.0655 13.5113 30.6244 13.4175V17.039C28.2423 17.039 26.0368 16.2789 24.2357 14.9873V24.376C24.2357 29.0728 20.4418 32.8799 15.7621 32.8799C14.016 32.8799 12.393 32.3502 11.0448 31.4416C12.5836 33.0205 14.7294 34 17.1035 34C21.7835 34 25.5776 30.1928 25.5776 25.4959V16.1074H25.5774ZM27.2325 11.4659C26.3123 10.457 25.7081 9.15316 25.5774 7.71174V7.12H24.306C24.626 8.95203 25.7176 10.5172 27.2325 11.4659ZM14.0048 27.8375C13.4906 27.161 13.2128 26.3334 13.2141 25.4825C13.2141 23.3344 14.9494 21.5927 17.0903 21.5927C17.4893 21.5926 17.8859 21.6539 18.2661 21.775V17.0714C17.8217 17.0103 17.3733 16.9844 16.925 16.9939V20.6549C16.5445 20.5338 16.1477 20.4723 15.7486 20.4727C13.6077 20.4727 11.8725 22.2142 11.8725 24.3626C11.8725 25.8817 12.7398 27.1968 14.0048 27.8375Z" fill="#FF004F"/>
<path d="M24.2357 14.9872C26.0367 16.2788 28.2422 17.0389 30.6244 17.0389V13.4174C29.2947 13.1332 28.1175 12.4358 27.2325 11.4659C25.7175 10.5171 24.626 8.95194 24.3059 7.12H20.9662V25.4957C20.9587 27.638 19.2263 29.3726 17.09 29.3726C15.8311 29.3726 14.7127 28.7703 14.0044 27.8375C12.7396 27.1968 11.8722 25.8816 11.8722 24.3627C11.8722 22.2145 13.6075 20.4728 15.7484 20.4728C16.1585 20.4728 16.5539 20.5369 16.9248 20.655V16.994C12.3272 17.0893 8.6297 20.8593 8.6297 25.4958C8.6297 27.8104 9.55047 29.9086 11.0449 31.4417C12.3931 32.3501 14.016 32.88 15.7621 32.88C20.442 32.88 24.2358 29.0727 24.2358 24.376V14.9872H24.2357Z" fill="white"/>
<path d="M30.6244 13.4174V12.4382C29.4253 12.4401 28.2498 12.1031 27.2325 11.4658C28.1331 12.4552 29.3189 13.1375 30.6244 13.4174ZM24.3059 7.11998C24.2754 6.9449 24.252 6.76866 24.2357 6.59175V6H19.6245V24.3759C19.6171 26.5179 17.8849 28.2525 15.7484 28.2525C15.1211 28.2525 14.5289 28.1031 14.0045 27.8375C14.7128 28.7703 15.8312 29.3725 17.0901 29.3725C19.2262 29.3725 20.9588 27.6381 20.9663 25.4958V7.11998H24.3059ZM16.925 16.994V15.9515C16.5397 15.8987 16.1512 15.8722 15.7623 15.8724C11.082 15.8723 7.28815 19.6796 7.28815 24.3759C7.28815 27.3203 8.77922 29.9151 11.045 31.4415C9.55059 29.9085 8.62982 27.8102 8.62982 25.4957C8.62982 20.8593 12.3273 17.0893 16.925 16.994Z" fill="#00F2EA"/>
</svg>
