<svg width="40" height="40" viewBox="0 0 40 40" fill="none" xmlns="http://www.w3.org/2000/svg">
<g clip-path="url(#clip0_1707_369)">
<path d="M0.00012207 40L2.82724 29.7338C1.0794 26.7205 0.162491 23.308 0.172042 19.8194C0.172042 8.88783 9.11186 0 20.0861 0C25.4156 0 30.4203 2.06274 34.1739 5.80799C37.9371 9.55323 40.0096 14.5342 40.0001 19.8289C40.0001 30.7605 31.0603 39.6483 20.0765 39.6483H20.067C16.7336 39.6483 13.4576 38.8118 10.5445 37.2338L0.00012207 40ZM11.0507 33.6502L11.6525 34.0114C14.193 35.5133 17.1061 36.3023 20.0765 36.3118H20.0861C29.2074 36.3118 36.6381 28.9259 36.6381 19.8384C36.6381 15.4373 34.9189 11.3023 31.7957 8.18441C28.6725 5.06654 24.5082 3.35551 20.0861 3.35551C10.9648 3.34601 3.53403 10.7319 3.53403 19.8194C3.53403 22.9278 4.40317 25.9601 6.06506 28.5837L6.45666 29.211L4.78522 35.2852L11.0507 33.6502Z" fill="white"/>
<path d="M0.697266 39.306L3.42888 29.3916C1.73833 26.4923 0.850083 23.1939 0.850083 19.8288C0.859634 9.2775 9.48427 0.693848 20.086 0.693848C25.234 0.693848 30.0573 2.69005 33.6867 6.30221C37.3162 9.91438 39.3123 14.7243 39.3123 19.8383C39.3123 30.3897 30.6781 38.9733 20.086 38.9733H20.0764C16.8577 38.9733 13.6963 38.1653 10.8883 36.6444L0.697266 39.306Z" fill="url(#paint0_linear_1707_369)"/>
<path d="M0.00012207 40L2.82724 29.7338C1.0794 26.7205 0.162491 23.308 0.172042 19.8194C0.172042 8.88783 9.11186 0 20.0861 0C25.4156 0 30.4203 2.06274 34.1739 5.80799C37.9371 9.55323 40.0096 14.5342 40.0001 19.8289C40.0001 30.7605 31.0603 39.6483 20.0765 39.6483H20.067C16.7336 39.6483 13.4576 38.8118 10.5445 37.2338L0.00012207 40ZM11.0507 33.6502L11.6525 34.0114C14.193 35.5133 17.1061 36.3023 20.0765 36.3118H20.0861C29.2074 36.3118 36.6381 28.9259 36.6381 19.8384C36.6381 15.4373 34.9189 11.3023 31.7957 8.18441C28.6725 5.06654 24.5082 3.35551 20.0861 3.35551C10.9648 3.34601 3.53403 10.7319 3.53403 19.8194C3.53403 22.9278 4.40317 25.9601 6.06506 28.5837L6.45666 29.211L4.78522 35.2852L11.0507 33.6502Z" fill="url(#paint1_linear_1707_369)"/>
<path fill-rule="evenodd" clip-rule="evenodd" d="M15.1098 11.5304C14.7373 10.7034 14.3457 10.6844 13.9923 10.6749C13.7058 10.6654 13.3715 10.6654 13.0372 10.6654C12.7029 10.6654 12.1681 10.789 11.7096 11.2833C11.2512 11.7776 9.97131 12.9753 9.97131 15.4183C9.97131 17.8517 11.7574 20.2091 12.0057 20.5418C12.254 20.8745 15.4536 26.0361 20.5062 28.0228C24.7086 29.6768 25.5682 29.3441 26.4756 29.2586C27.383 29.173 29.4173 28.0608 29.8376 26.9011C30.2483 25.7415 30.2483 24.7529 30.1241 24.5437C30 24.3346 29.6657 24.211 29.169 23.9639C28.6723 23.7167 26.2273 22.519 25.7688 22.3479C25.3104 22.1863 24.9761 22.1008 24.6513 22.5951C24.3171 23.0894 23.3619 24.2015 23.0754 24.5342C22.7889 24.8669 22.4928 24.905 21.9961 24.6578C21.4995 24.4107 19.8949 23.8878 17.9942 22.1958C16.5138 20.884 15.5109 19.2586 15.2244 18.7643C14.9379 18.27 15.1958 18.0038 15.4441 17.7567C15.6638 17.538 15.9407 17.1768 16.1891 16.8916C16.4374 16.6065 16.5234 16.3973 16.6857 16.0646C16.8481 15.7319 16.7717 15.4468 16.6475 15.1996C16.5234 14.962 15.5491 12.5095 15.1098 11.5304Z" fill="white"/>
</g>
<defs>
<linearGradient id="paint0_linear_1707_369" x1="20.0038" y1="39.3041" x2="20.0038" y2="0.692497" gradientUnits="userSpaceOnUse">
<stop stop-color="#20B038"/>
<stop offset="1" stop-color="#60D66A"/>
</linearGradient>
<linearGradient id="paint1_linear_1707_369" x1="20.004" y1="39.9962" x2="20.004" y2="0" gradientUnits="userSpaceOnUse">
<stop stop-color="#F9F9F9"/>
<stop offset="1" stop-color="white"/>
</linearGradient>
<clipPath id="clip0_1707_369">
<rect width="40" height="40" fill="white"/>
</clipPath>
</defs>
</svg>
