<svg xmlns="http://www.w3.org/2000/svg" width="40" height="40" fill="none" viewBox="0 0 40 40">
  <ellipse cx="20.0469" cy="20.0487" fill="white" rx="19.9061" ry="19.9061"/>
  <path fill="currentColor" d="M8.96543 30.1938L9.96073 9.11022H16.3801L25.4324 23.5683L26.0409 7.08432L32.3812 4.29181C28.976 1.60378 24.6757 0 19.9999 0C8.95414 0 -0.000793457 8.95493 -0.000793457 20.0007C-0.000793457 24.6426 1.58181 28.9161 4.23596 32.31L8.96543 30.1938V30.1938Z"/>
  <path fill="currentColor" d="M35.7428 7.66303L31.1574 9.71435L30.1621 30.7979H23.7441L23.7314 30.7781L14.6904 16.3398L14.0819 32.8238L7.58911 35.6827C11 38.3848 15.3116 39.9999 20.0001 39.9999C31.0459 39.9999 40.0008 31.045 40.0008 19.9992C40.0008 15.3445 38.4097 11.0598 35.7428 7.66162V7.66303Z"/>
</svg>
