<svg xmlns="http://www.w3.org/2000/svg" width="80" height="80" fill="none" viewBox="0 0 80 80">
  <ellipse cx="40.0954" cy="40.1086" fill="white" rx="39.8122" ry="39.8122"/>
  <path fill="currentColor" d="M17.9324 60.3983L19.923 18.2312H32.7618L50.8665 47.1473L52.0834 14.1794L64.764 8.59437C57.9536 3.21831 49.353 0.0107422 40.0014 0.0107422C17.9099 0.0107422 0 17.9206 0 40.0121C0 49.296 3.16521 57.8429 8.4735 64.6308L17.9324 60.3983V60.3983Z"/>
  <path fill="currentColor" d="M71.4874 15.3368L62.3165 19.4394L60.3258 61.6065H47.4899L47.4645 61.567L29.3824 32.6904L28.1655 65.6583L15.1799 71.376C22.0016 76.7803 30.6248 80.0105 40.0018 80.0105C62.0934 80.0105 80.0032 62.1006 80.0032 40.0091C80.0032 30.6998 76.8211 22.1303 71.4874 15.334V15.3368Z"/>
</svg>
