<svg xmlns="http://www.w3.org/2000/svg" width="160" height="160" fill="none" viewBox="0 0 160 160">
  <circle cx="80.1337" cy="80.137" r="55.7371" fill="white"/>
  <path fill="currentColor" d="M49.1047 108.542L51.8915 49.5086H69.8658L95.2123 89.9911L96.916 43.8361L114.669 36.0171C105.134 28.4906 93.0935 24 80.0012 24C49.0731 24 23.9993 49.0738 23.9993 80.0019C23.9993 92.9994 28.4306 104.965 35.8622 114.468L49.1047 108.542V108.542Z"/>
  <path fill="currentColor" d="M124.078 45.4571L111.239 51.2008L108.452 110.235H90.4819L90.4464 110.179L65.1314 69.7521L63.4277 115.907L45.2479 123.912C54.7983 131.478 66.8708 136 79.9986 136C110.927 136 136.001 110.926 136.001 79.9983C136.001 66.9653 131.546 54.968 124.078 45.4531V45.4571Z"/>
  <path fill="currentColor" fill-rule="evenodd" d="M80 9.11681C40.9351 9.11681 9.1954 40.8131 9.1954 80C9.1954 119.187 40.9351 150.883 80 150.883C119.065 150.883 150.805 119.187 150.805 80C150.805 40.8131 119.065 9.11681 80 9.11681ZM0 80C0 35.8564 35.7778 0 80 0C124.222 0 160 35.8564 160 80C160 124.144 124.222 160 80 160C35.7778 160 0 124.144 0 80Z" clip-rule="evenodd"/>
</svg>
