<svg
  width="160"
  height="160"
  viewBox="0 0 160 160"
  fill="none"
  xmlns="http://www.w3.org/2000/svg"
>
  <ellipse cx="80.1877" cy="80.1953" rx="79.6213" ry="79.6245" fill="white" />
  <path
    d="M35.8634 120.775L39.8445 36.4409H65.521L101.729 94.2731L104.163 28.3373L129.523 17.1673C115.903 6.41513 98.7022 0 79.9996 0C35.8183 0 0 35.8197 0 80.0028C0 98.5706 6.33016 115.664 16.9463 129.24L35.8634 120.775V120.775Z"
    fill="currentColor"
  />
  <path
    d="M142.969 30.6526L124.628 38.8579L120.647 123.192H94.9761L94.9253 123.113L58.7625 65.3598L56.3287 131.296L30.3586 142.731C44.0016 153.54 61.2472 160 80.0006 160C124.182 160 160 124.18 160 79.9972C160 61.3786 153.636 44.2396 142.969 30.647V30.6526Z"
    fill="currentColor"
  />
</svg>
