<svg
  width="200"
  height="200"
  viewBox="0 0 200 200"
  fill="none"
  xmlns="http://www.w3.org/2000/svg"
>
  <ellipse cx="100.235" cy="100.244" rx="99.5266" ry="99.5306" fill="white" />
  <path
    d="M44.8293 150.969L49.8056 45.5511H81.9012L127.161 117.841L130.203 35.4216L161.904 21.4591C144.878 8.01892 123.378 0 99.9995 0C44.7729 0 0 44.7746 0 100.004C0 123.213 7.9127 144.581 21.1829 161.55L44.8293 150.969V150.969Z"
    fill="currentColor"
  />
  <path
    d="M178.711 38.3157L155.785 48.5722L150.809 153.99H118.72L118.657 153.891L73.4532 81.6997L70.4109 164.119L37.9483 178.414C55.0019 191.925 76.559 200 100.001 200C155.227 200 200 155.225 200 99.9964C200 76.7232 192.045 55.2994 178.711 38.3086V38.3157Z"
    fill="currentColor"
  />
</svg>
