<svg
  width="120"
  height="120"
  viewBox="0 0 120 120"
  fill="none"
  xmlns="http://www.w3.org/2000/svg"
>
  <ellipse cx="60.1431" cy="60.1466" rx="59.7183" ry="59.7183" fill="white" />
  <path
    d="M26.8987 90.5813L29.8846 27.3307H49.1427L76.2997 70.7048L78.1251 21.253L97.1461 12.8754C86.9304 4.81135 74.0296 0 60.0021 0C26.8648 0 0 26.8648 0 60.0021C0 73.9279 4.74781 86.7483 12.7103 96.9301L26.8987 90.5813V90.5813Z"
    fill="currentColor"
  />
  <path
    d="M107.231 22.9896L93.4747 29.1435L90.4888 92.3942H71.2349L71.1968 92.3349L44.0737 49.02L42.2482 98.4719L22.7699 107.048C33.0025 115.155 45.9372 120 60.0028 120C93.1401 120 120.005 93.1353 120.005 59.998C120.005 46.0341 115.232 33.1798 107.231 22.9854V22.9896Z"
    fill="currentColor"
  />
</svg>
