<svg
  width="64"
  height="64"
  viewBox="0 0 64 64"
  fill="none"
  xmlns="http://www.w3.org/2000/svg"
>
  <ellipse cx="32.0763" cy="32.089" rx="31.8498" ry="31.8498" fill="white" />
  <path
    d="M14.346 48.3208L15.9384 14.5871H26.2094L40.6932 37.72L41.6667 11.3457L51.8112 6.87765C46.3629 2.5768 39.4824 0.0107422 32.0011 0.0107422C14.3279 0.0107422 0 14.3386 0 32.0119C0 39.439 2.53217 46.2765 6.7788 51.7068L14.346 48.3208V48.3208Z"
    fill="currentColor"
  />
  <path
    d="M57.1899 12.2718L49.8531 15.5539L48.2606 49.2876H37.9919L37.9716 49.2559L23.5059 26.1547L22.5323 52.529L12.1439 57.1032C17.6013 61.4266 24.4998 64.0107 32.0014 64.0107C49.6747 64.0107 64.0026 49.6829 64.0026 32.0096C64.0026 24.5622 61.4568 17.7066 57.1899 12.2695V12.2718Z"
    fill="currentColor"
  />
</svg>
