<svg
  width="32"
  height="32"
  viewBox="0 0 32 32"
  fill="none"
  xmlns="http://www.w3.org/2000/svg"
>
  <ellipse cx="16.0382" cy="16.0499" rx="15.9249" ry="15.9249" fill="white" />
  <path
    d="M7.17298 24.1658L7.96922 7.29892H13.1047L20.3466 18.8654L20.8334 5.6782L25.9056 3.44419C23.1814 1.29377 19.7412 0.0107422 16.0006 0.0107422C7.16394 0.0107422 0 7.17469 0 16.0113C0 19.7249 1.26608 23.1436 3.3894 25.8588L7.17298 24.1658V24.1658Z"
    fill="currentColor"
  />
  <path
    d="M28.5949 6.14127L24.9266 7.78232L24.1303 24.6492H18.996L18.9858 24.6333L11.753 13.0827L11.2662 26.2699L6.07196 28.557C8.80065 30.7187 12.2499 32.0107 16.0007 32.0107C24.8374 32.0107 32.0013 24.8468 32.0013 16.0102C32.0013 12.2865 30.7284 8.85866 28.5949 6.14014V6.14127Z"
    fill="currentColor"
  />
</svg>
