<svg
  width="48"
  height="48"
  viewBox="0 0 48 48"
  fill="none"
  xmlns="http://www.w3.org/2000/svg"
>
  <circle cx="24.0358" cy="24.0369" r="14.9295" fill="white" />
  <path
    d="M15.7247 31.6452L16.4711 15.8326H21.2856L28.0749 26.6761L28.5312 14.3132L33.2864 12.2188C30.7325 10.2028 27.5073 9 24.0005 9C15.7162 9 9.00003 15.7162 9.00003 24.0005C9.00003 27.4819 10.187 30.687 12.1776 33.2324L15.7247 31.6452V31.6452Z"
    fill="currentColor"
  />
  <path
    d="M35.8066 14.7476L32.3675 16.2861L31.6211 32.0987H26.8076L26.7981 32.0839L20.0173 21.2552L19.561 33.6181L14.6914 35.7623C17.2495 37.7889 20.4832 39.0002 23.9996 39.0002C32.2839 39.0002 39.0001 32.284 39.0001 23.9997C39.0001 20.5087 37.8067 17.2952 35.8066 14.7466V14.7476Z"
    fill="currentColor"
  />
  <path
    fill-rule="evenodd"
    clip-rule="evenodd"
    d="M24 0C10.7333 0 0 10.757 0 24C0 37.243 10.7333 48 24 48C37.2667 48 48 37.243 48 24C48 10.757 37.2667 0 24 0ZM3.68191 24C3.68191 12.7542 12.7904 3.65882 24 3.65882C35.2096 3.65882 44.3181 12.7542 44.3181 24C44.3181 35.2458 35.2096 44.3412 24 44.3412C12.7904 44.3412 3.68191 35.2458 3.68191 24Z"
    fill="currentColor"
  />
</svg>
