<svg
  width="32"
  height="32"
  viewBox="0 0 32 32"
  fill="none"
  xmlns="http://www.w3.org/2000/svg"
>
  <circle cx="16.0238" cy="16.0243" r="9.95303" fill="white" />
  <path
    d="M10.483 21.0968L10.9807 10.5551H14.1904L18.7165 17.7841L19.0208 9.54215L22.1909 8.1459C20.4883 6.80189 18.3382 6 16.0003 6C10.4774 6 5.99994 10.4774 5.99994 16.0003C5.99994 18.3213 6.79124 20.458 8.11831 22.155L10.483 21.0968V21.0968Z"
    fill="currentColor"
  />
  <path
    d="M23.871 9.83176L21.5782 10.8574L21.0806 21.3992H17.8716L17.8653 21.3893L13.3447 14.1702L13.0405 22.4121L9.79413 23.8415C11.4996 25.1926 13.6553 26.0001 15.9996 26.0001C21.5225 26.0001 25.9999 21.5227 25.9999 15.9998C25.9999 13.6725 25.2044 11.5301 23.871 9.83105V9.83176Z"
    fill="currentColor"
  />
  <path
    fill-rule="evenodd"
    clip-rule="evenodd"
    d="M16 0C7.15552 0 0 7.17134 0 16C0 24.8287 7.15552 32 16 32C24.8445 32 32 24.8287 32 16C32 7.17134 24.8445 0 16 0ZM2.45461 16C2.45461 8.5028 8.52691 2.43921 16 2.43921C23.4731 2.43921 29.5454 8.5028 29.5454 16C29.5454 23.4972 23.4731 29.5608 16 29.5608C8.52691 29.5608 2.45461 23.4972 2.45461 16Z"
    fill="currentColor"
  />
</svg>
