<svg
  width="64"
  height="64"
  viewBox="0 0 64 64"
  fill="none"
  xmlns="http://www.w3.org/2000/svg"
>
  <circle cx="32.0525" cy="32.0539" r="21.8967" fill="white" />
  <path
    d="M19.8627 43.2131L20.9575 20.0212H28.0188L37.9764 35.9251L38.6457 17.7927L45.62 14.721C41.8743 11.7642 37.144 10 32.0006 10C19.8503 10 9.99985 19.8504 9.99985 32.0008C9.99985 37.1069 11.7407 41.8077 14.6603 45.541L19.8627 43.2131V43.2131Z"
    fill="currentColor"
  />
  <path
    d="M49.3165 18.4293L44.2725 20.6857L43.1777 43.8776H36.1179L36.1039 43.8559L26.1588 27.9738L25.4895 46.1061L18.3474 49.2509C22.0994 52.2232 26.8421 53.9998 31.9995 53.9998C44.1498 53.9998 54.0002 44.1494 54.0002 31.999C54.0002 26.8789 52.25 22.1657 49.3165 18.4277V18.4293Z"
    fill="currentColor"
  />
  <path
    fill-rule="evenodd"
    clip-rule="evenodd"
    d="M32 3.64672C16.374 3.64672 3.67816 16.3252 3.67816 32C3.67816 47.6748 16.374 60.3533 32 60.3533C47.626 60.3533 60.3218 47.6748 60.3218 32C60.3218 16.3252 47.626 3.64672 32 3.64672ZM0 32C0 14.3426 14.3111 0 32 0C49.6889 0 64 14.3426 64 32C64 49.6574 49.6889 64 32 64C14.3111 64 0 49.6574 0 32Z"
    fill="currentColor"
  />
</svg>
