<svg
  width="80"
  height="80"
  viewBox="0 0 80 80"
  fill="none"
  xmlns="http://www.w3.org/2000/svg"
>
  <circle cx="40.0643" cy="40.0661" r="26.8732" fill="white" />
  <path
    d="M25.1042 53.7616L26.4478 25.2988H35.114L47.3346 44.8172L48.1561 22.5638L56.7155 18.7939C52.1185 15.1651 46.3131 13 40.0007 13C25.0889 13 12.9998 25.0891 12.9998 40.0009C12.9998 46.2675 15.1363 52.0367 18.7194 56.6185L25.1042 53.7616V53.7616Z"
    fill="currentColor"
  />
  <path
    d="M61.2521 23.3452L55.0617 26.1144L53.718 54.5772H45.0538L45.0367 54.5505L32.8312 35.0589L32.0098 57.3122L23.2446 61.1716C27.8492 64.8195 33.6699 66.9999 39.9994 66.9999C54.9111 66.9999 67.0003 54.9107 67.0003 39.999C67.0003 33.7152 64.8523 27.9308 61.2521 23.3433V23.3452Z"
    fill="currentColor"
  />
  <path
    fill-rule="evenodd"
    clip-rule="evenodd"
    d="M40 4.5584C20.4675 4.5584 4.5977 20.4065 4.5977 40C4.5977 59.5935 20.4675 75.4416 40 75.4416C59.5325 75.4416 75.4023 59.5935 75.4023 40C75.4023 20.4065 59.5325 4.5584 40 4.5584ZM0 40C0 17.9282 17.8889 0 40 0C62.1111 0 80 17.9282 80 40C80 62.0718 62.1111 80 40 80C17.8889 80 0 62.0718 0 40Z"
    fill="currentColor"
  />
</svg>
