<svg
  width="40"
  height="40"
  viewBox="0 0 40 40"
  fill="none"
  xmlns="http://www.w3.org/2000/svg"
>
  <circle cx="20.0296" cy="20.0306" r="12.4413" fill="white" />
  <path
    d="M13.1037 26.371L13.7258 13.1939H17.7379L23.3956 22.2301L23.7759 11.9277L27.7386 10.1824C25.6103 8.50236 22.9227 7.5 20.0003 7.5C13.0967 7.5 7.49988 13.0968 7.49988 20.0004C7.49988 22.9016 8.489 25.5725 10.1478 27.6937L13.1037 26.371V26.371Z"
    fill="currentColor"
  />
  <path
    d="M29.8388 12.2895L26.9729 13.5715L26.3508 26.7487H22.3396L22.3316 26.7363L16.681 17.7124L16.3007 28.0149L12.2427 29.8017C14.3745 31.4905 17.0693 32.4999 19.9996 32.4999C26.9032 32.4999 32.5 26.9031 32.5 19.9995C32.5 17.0904 31.5055 14.4124 29.8388 12.2886V12.2895Z"
    fill="currentColor"
  />
  <path
    fill-rule="evenodd"
    clip-rule="evenodd"
    d="M20 0C8.9444 0 0 8.96417 0 20C0 31.0358 8.9444 40 20 40C31.0556 40 40 31.0358 40 20C40 8.96417 31.0556 0 20 0ZM3.06826 20C3.06826 10.6285 10.6586 3.04901 20 3.04901C29.3414 3.04901 36.9317 10.6285 36.9317 20C36.9317 29.3715 29.3414 36.951 20 36.951C10.6586 36.951 3.06826 29.3715 3.06826 20Z"
    fill="currentColor"
  />
</svg>
