<svg
  width="24"
  height="24"
  viewBox="0 0 24 24"
  fill="none"
  xmlns="http://www.w3.org/2000/svg"
>
  <circle cx="12.0192" cy="12.0196" r="7.96242" fill="white" />
  <path
    d="M7.58641 16.0775L7.98453 7.64408H10.5523L14.1732 13.4273L14.4166 6.83372L16.9527 5.71672C15.5906 4.64151 13.8705 4 12.0002 4C7.5819 4 3.99994 7.58196 3.99994 12.0003C3.99994 13.857 4.63298 15.5664 5.69463 16.924L7.58641 16.0775V16.0775Z"
    fill="currentColor"
  />
  <path
    d="M18.2967 7.06543L16.4625 7.88595L16.0644 16.3193H13.4972L13.4921 16.3114L9.87571 10.5361L9.63232 17.1297L7.03522 18.2732C8.39956 19.3541 10.1242 20.0001 11.9996 20.0001C16.4179 20.0001 19.9998 16.4182 19.9998 11.9999C19.9998 10.138 19.3634 8.42469 18.2967 7.06543Z"
    fill="currentColor"
  />
  <path
    fill-rule="evenodd"
    clip-rule="evenodd"
    d="M12 0C5.36664 0 0 5.3785 0 12C0 18.6215 5.36664 24 12 24C18.6334 24 24 18.6215 24 12C24 5.3785 18.6334 0 12 0ZM1.84096 12C1.84096 6.3771 6.39518 1.82941 12 1.82941C17.6048 1.82941 22.159 6.3771 22.159 12C22.159 17.6229 17.6048 22.1706 12 22.1706C6.39518 22.1706 1.84096 17.6229 1.84096 12Z"
    fill="currentColor"
  />
</svg>
