<svg
  width="120"
  height="120"
  viewBox="0 0 120 120"
  fill="none"
  xmlns="http://www.w3.org/2000/svg"
>
  <circle cx="60.0979" cy="60.1" r="40.8075" fill="white" />
  <path
    d="M37.3804 80.8972L39.4207 37.676H52.5805L71.1377 67.3149L72.3851 33.5228L85.3827 27.7982C78.4021 22.2878 69.5865 19 60.0011 19C37.3572 19 18.9996 37.3576 18.9996 60.0014C18.9996 69.5174 22.244 78.278 27.685 85.2355L37.3804 80.8972V80.8972Z"
    fill="currentColor"
  />
  <path
    d="M92.2717 34.7094L82.8715 38.9146L80.8311 82.1359H67.6743L67.6483 82.0954L49.1141 52.4969L47.8668 86.289L34.5566 92.1496C41.5488 97.689 50.3876 101 59.999 101C82.6429 101 101 82.6423 101 59.9985C101 50.4565 97.7387 41.6728 92.2717 34.7065V34.7094Z"
    fill="currentColor"
  />
  <path
    fill-rule="evenodd"
    clip-rule="evenodd"
    d="M60 6.83761C30.7013 6.83761 6.89655 30.6098 6.89655 60C6.89655 89.3902 30.7013 113.162 60 113.162C89.2987 113.162 113.103 89.3902 113.103 60C113.103 30.6098 89.2987 6.83761 60 6.83761ZM0 60C0 26.8923 26.8334 0 60 0C93.1666 0 120 26.8923 120 60C120 93.1077 93.1666 120 60 120C26.8334 120 0 93.1077 0 60Z"
    fill="currentColor"
  />
</svg>
