<svg width="40" height="40" viewBox="0 0 40 40" fill="none" xmlns="http://www.w3.org/2000/svg">
<rect width="40" height="40" rx="20" fill="black"/>
<path d="M20.9282 33.2329C18.0082 33.2329 15.299 32.3351 13.0504 30.8048C11.9964 31.3591 9.6151 31.4841 8.5767 31.3591C7.07766 31.1796 5.49274 29.9304 7.0152 28.7124C9.38087 26.8308 8.74066 26.0891 8.74066 26.0891C7.60857 24.0669 6.96055 21.7403 6.96055 19.2653C6.96836 11.5437 13.2222 5.28992 20.9282 5.28992C28.642 5.28992 34.8958 11.5437 34.8958 19.2575C34.8958 26.9713 28.642 33.2329 20.9282 33.2329ZM20.9282 7.33548C14.2996 7.33548 8.92804 12.7148 8.92804 19.3434C8.92804 21.6232 9.56825 23.7624 10.6691 25.5816C10.6691 25.5816 11.4577 27.6193 9.43552 29.1418C10.7003 29.5712 13.3705 28.7827 13.5032 28.7827C15.5488 30.391 18.1253 31.3513 20.9282 31.3513C27.5567 31.3513 32.9361 25.972 32.9361 19.3434C32.9361 12.7148 27.5645 7.33548 20.9282 7.33548ZM27.3537 22.7787C25.8859 22.7787 24.7538 21.8106 24.7538 20.1866C24.7538 18.5627 25.8234 17.5243 27.4396 17.5243C28.9855 17.5243 30.0083 18.5861 30.0083 20.1007C30.0083 21.9355 28.7044 22.7787 27.3537 22.7787ZM27.4006 18.6329C26.651 18.6329 26.37 19.4059 26.37 20.1476C26.37 21.0142 26.7291 21.6622 27.4006 21.6622C28.0095 21.6622 28.3999 21.0532 28.3999 20.1476C28.3921 19.3981 28.111 18.6329 27.4006 18.6329ZM23.0284 22.6694C23.0284 22.6694 22.435 22.6694 22.1852 22.6694C21.787 22.6694 21.8651 22.0916 21.8651 22.0916V19.929C21.8651 19.1951 21.6308 18.7735 21.1233 18.7735C20.7642 18.7735 20.5065 19.0233 20.405 19.32C20.366 19.4371 20.3426 19.601 20.3426 19.7182V22.1697C20.3426 22.1697 20.3504 22.6616 19.9132 22.6616C19.5931 22.6616 19.2183 22.6616 19.2183 22.6616C19.2183 22.6616 18.8201 22.6304 18.8201 22.1229C18.8201 21.3031 18.8201 19.8353 18.8201 19.8353C18.8201 19.1951 18.5937 18.7656 18.1018 18.7656C17.7037 18.7656 17.4616 19.0779 17.3679 19.3356C17.3133 19.4605 17.3055 19.601 17.3055 19.726V22.1229C17.3055 22.1229 17.3601 22.6616 16.9541 22.6616C16.7511 22.6616 16.5013 22.6616 16.2827 22.6616C15.783 22.6616 15.783 22.1229 15.783 22.1229V19.2341C15.783 18.7422 15.7518 17.9302 15.7518 17.9302C15.7518 17.9302 15.744 17.6258 16.0719 17.6258C16.2749 17.6258 16.5247 17.6258 16.7277 17.6258C17.04 17.6258 17.0947 17.9302 17.0947 17.9302L17.1337 18.305H17.1649C17.3835 17.9849 17.8208 17.5086 18.6874 17.5086C19.3354 17.5086 19.8507 17.8366 20.0693 18.3597H20.0927C20.2801 18.102 20.5065 17.899 20.7408 17.7507C21.0218 17.5867 21.3263 17.5008 21.7011 17.5008C22.6692 17.5008 23.3953 18.1801 23.3953 19.6869C23.3953 19.6869 23.3953 21.264 23.3953 22.1151C23.3875 22.6304 23.0284 22.6694 23.0284 22.6694ZM13.3237 16.5874C12.8318 16.5874 12.5039 16.236 12.5117 15.8066C12.5039 15.3538 12.8318 15.0102 13.3315 15.0102C13.8389 15.0102 14.1512 15.3538 14.1669 15.8066C14.1669 16.2438 13.8389 16.5874 13.3237 16.5874ZM12.8708 17.6336C13.23 17.6336 13.7765 17.6336 13.7765 17.6336C13.7765 17.6336 14.12 17.6336 14.12 18.0239C14.12 18.9374 14.12 22.2166 14.12 22.2166C14.12 22.2166 14.1434 22.6694 13.7609 22.6694C13.3783 22.6694 12.8318 22.6694 12.8318 22.6694C12.8318 22.6694 12.5585 22.6538 12.5585 22.279C12.5585 21.1547 12.5585 17.9537 12.5585 17.9537C12.5585 17.9537 12.5507 17.6336 12.8708 17.6336Z" fill="white"/>
</svg>
