<svg width="40" height="40" viewBox="0 0 40 40" fill="none" xmlns="http://www.w3.org/2000/svg">
<g clip-path="url(#clip0_1707_421)">
<path d="M20.3957 39.6098C16.2973 39.6098 12.4948 38.3496 9.3388 36.2017C7.85943 36.9798 4.51716 37.1551 3.05971 36.9798C0.955728 36.7277 -1.2688 34.9744 0.868062 33.2649C4.18842 30.624 3.28984 29.5829 3.28984 29.5829C1.70089 26.7448 0.791354 23.4792 0.791354 20.0054C0.802312 9.1677 9.57988 0.390137 20.3957 0.390137C31.2225 0.390137 40 9.1677 40 19.9945C40 30.8212 31.2225 39.6098 20.3957 39.6098ZM20.3957 3.2612C11.0921 3.2612 3.55284 10.8114 3.55284 20.115C3.55284 23.3148 4.45141 26.3174 5.99653 28.8707C5.99653 28.8707 7.10331 31.7308 4.26512 33.8676C6.04036 34.4703 9.78809 33.3635 9.97438 33.3635C12.8454 35.6209 16.4617 36.9688 20.3957 36.9688C29.6993 36.9688 37.2495 29.4186 37.2495 20.115C37.2495 10.8114 29.7102 3.2612 20.3957 3.2612ZM29.4143 24.9366C27.3542 24.9366 25.7652 23.5778 25.7652 21.2985C25.7652 19.0192 27.2665 17.5617 29.5349 17.5617C31.7046 17.5617 33.1401 19.0521 33.1401 21.178C33.1401 23.7532 31.3101 24.9366 29.4143 24.9366ZM29.4801 19.1178C28.4281 19.1178 28.0336 20.2027 28.0336 21.2437C28.0336 22.4601 28.5377 23.3696 29.4801 23.3696C30.3348 23.3696 30.8827 22.5149 30.8827 21.2437C30.8718 20.1917 30.4773 19.1178 29.4801 19.1178ZM23.3435 24.7832C23.3435 24.7832 22.5106 24.7832 22.16 24.7832C21.6011 24.7832 21.7107 23.9723 21.7107 23.9723V20.9369C21.7107 19.9068 21.3819 19.3151 20.6696 19.3151C20.1656 19.3151 19.8039 19.6657 19.6615 20.0821C19.6067 20.2465 19.5738 20.4766 19.5738 20.641V24.0819C19.5738 24.0819 19.5848 24.7723 18.9711 24.7723C18.5218 24.7723 17.9958 24.7723 17.9958 24.7723C17.9958 24.7723 17.437 24.7284 17.437 24.0162C17.437 22.8655 17.437 20.8054 17.437 20.8054C17.437 19.9068 17.1192 19.3041 16.4288 19.3041C15.8699 19.3041 15.5302 19.7424 15.3987 20.104C15.322 20.2794 15.3111 20.4766 15.3111 20.652V24.0162C15.3111 24.0162 15.3878 24.7723 14.8179 24.7723C14.533 24.7723 14.1824 24.7723 13.8755 24.7723C13.1742 24.7723 13.1742 24.0162 13.1742 24.0162V19.9616C13.1742 19.2712 13.1304 18.1316 13.1304 18.1316C13.1304 18.1316 13.1194 17.7042 13.5796 17.7042C13.8646 17.7042 14.2152 17.7042 14.5001 17.7042C14.9385 17.7042 15.0152 18.1316 15.0152 18.1316L15.07 18.6576H15.1138C15.4206 18.2083 16.0343 17.5398 17.2507 17.5398C18.1602 17.5398 18.8834 18.0001 19.1903 18.7343H19.2232C19.4861 18.3726 19.8039 18.0877 20.1327 17.8795C20.5272 17.6494 20.9546 17.5289 21.4806 17.5289C22.8394 17.5289 23.8585 18.4822 23.8585 20.5972C23.8585 20.5972 23.8585 22.8107 23.8585 24.0052C23.8475 24.7284 23.3435 24.7832 23.3435 24.7832ZM9.72234 16.2467C9.03197 16.2467 8.57172 15.7536 8.58268 15.1509C8.57172 14.5153 9.03197 14.0332 9.7333 14.0332C10.4456 14.0332 10.8839 14.5153 10.9058 15.1509C10.9058 15.7646 10.4456 16.2467 9.72234 16.2467ZM9.08676 17.7152C9.59084 17.7152 10.3579 17.7152 10.3579 17.7152C10.3579 17.7152 10.8401 17.7152 10.8401 18.2631C10.8401 19.5452 10.8401 24.1476 10.8401 24.1476C10.8401 24.1476 10.873 24.7832 10.336 24.7832C9.79905 24.7832 9.03197 24.7832 9.03197 24.7832C9.03197 24.7832 8.64843 24.7613 8.64843 24.2353C8.64843 22.6573 8.64843 18.1644 8.64843 18.1644C8.64843 18.1644 8.63747 17.7152 9.08676 17.7152Z" fill="black"/>
</g>
<defs>
<clipPath id="clip0_1707_421">
<rect width="40" height="40" fill="white"/>
</clipPath>
</defs>
</svg>
