<svg width="40" height="40" viewBox="0 0 40 40" fill="none" xmlns="http://www.w3.org/2000/svg">
<rect width="40" height="40" rx="20" fill="black"/>
<path d="M21.8868 20.3794C21.8868 25.0071 18.1676 28.7586 13.5799 28.7586C8.99224 28.7586 5.27271 25.0063 5.27271 20.3794C5.27271 15.7526 8.99195 12 13.5799 12C18.1679 12 21.8868 15.7518 21.8868 20.3794Z" fill="white"/>
<path d="M30.9998 20.3794C30.9998 24.7354 29.1402 28.2681 26.8462 28.2681C24.5522 28.2681 22.6926 24.7354 22.6926 20.3794C22.6926 16.0235 24.5519 12.4908 26.8459 12.4908C29.1399 12.4908 30.9995 16.0223 30.9995 20.3794" fill="white"/>
<path d="M34.7272 20.3794C34.7272 24.2813 34.0733 27.4464 33.2664 27.4464C32.4595 27.4464 31.8058 24.2822 31.8058 20.3794C31.8058 16.4767 32.4598 13.3125 33.2664 13.3125C34.073 13.3125 34.7272 16.4764 34.7272 20.3794Z" fill="white"/>
</svg>
