<svg width="40" height="40" viewBox="0 0 40 40" fill="none" xmlns="http://www.w3.org/2000/svg">
<g clip-path="url(#clip0_1707_387)">
<path d="M0 40L2.82712 29.7338C1.07927 26.7205 0.162369 23.308 0.17192 19.8194C0.17192 8.88783 9.11174 0 20.0859 0C25.4155 0 30.4202 2.06274 34.1738 5.80799C37.9369 9.55323 40.0095 14.5342 40 19.8289C40 30.7605 31.0601 39.6483 20.0764 39.6483H20.0668C16.7335 39.6483 13.4575 38.8118 10.5444 37.2338L0 40ZM11.0506 33.6502L11.6523 34.0114C14.1929 35.5133 17.106 36.3023 20.0764 36.3118H20.0859C29.2072 36.3118 36.638 28.9259 36.638 19.8384C36.638 15.4373 34.9188 11.3023 31.7956 8.18441C28.6724 5.06654 24.5081 3.35551 20.0859 3.35551C10.9647 3.34601 3.5339 10.7319 3.5339 19.8194C3.5339 22.9278 4.40305 25.9601 6.06494 28.5837L6.45654 29.211L4.7851 35.2852L11.0506 33.6502Z" fill="white"/>
<path d="M0.697144 39.306L3.42876 29.3916C1.73821 26.4923 0.849961 23.1939 0.849961 19.8288C0.859512 9.2775 9.48415 0.693848 20.0859 0.693848C25.2339 0.693848 30.0572 2.69005 33.6866 6.30221C37.316 9.91438 39.3122 14.7243 39.3122 19.8383C39.3122 30.3897 30.678 38.9733 20.0859 38.9733H20.0763C16.8576 38.9733 13.6962 38.1653 10.8882 36.6444L0.697144 39.306Z" fill="black"/>
<path d="M0 40L2.82712 29.7338C1.07927 26.7205 0.162369 23.308 0.17192 19.8194C0.17192 8.88783 9.11174 0 20.0859 0C25.4155 0 30.4202 2.06274 34.1738 5.80799C37.9369 9.55323 40.0095 14.5342 40 19.8289C40 30.7605 31.0601 39.6483 20.0764 39.6483H20.0668C16.7335 39.6483 13.4575 38.8118 10.5444 37.2338L0 40ZM11.0506 33.6502L11.6523 34.0114C14.1929 35.5133 17.106 36.3023 20.0764 36.3118H20.0859C29.2072 36.3118 36.638 28.9259 36.638 19.8384C36.638 15.4373 34.9188 11.3023 31.7956 8.18441C28.6724 5.06654 24.5081 3.35551 20.0859 3.35551C10.9647 3.34601 3.5339 10.7319 3.5339 19.8194C3.5339 22.9278 4.40305 25.9601 6.06494 28.5837L6.45654 29.211L4.7851 35.2852L11.0506 33.6502Z" fill="white"/>
<path fill-rule="evenodd" clip-rule="evenodd" d="M15.1097 11.5304C14.7372 10.7034 14.3456 10.6844 13.9922 10.6749C13.7057 10.6654 13.3714 10.6654 13.0371 10.6654C12.7028 10.6654 12.1679 10.789 11.7095 11.2833C11.251 11.7776 9.97119 12.9753 9.97119 15.4183C9.97119 17.8517 11.7572 20.2091 12.0056 20.5418C12.2539 20.8745 15.4535 26.0361 20.506 28.0228C24.7085 29.6768 25.5681 29.3441 26.4755 29.2586C27.3828 29.173 29.4172 28.0608 29.8375 26.9011C30.2482 25.7415 30.2482 24.7529 30.124 24.5437C29.9998 24.3346 29.6655 24.211 29.1689 23.9639C28.6722 23.7167 26.2271 22.519 25.7687 22.3479C25.3102 22.1863 24.976 22.1008 24.6512 22.5951C24.3169 23.0894 23.3618 24.2015 23.0753 24.5342C22.7888 24.8669 22.4927 24.905 21.996 24.6578C21.4994 24.4107 19.8948 23.8878 17.9941 22.1958C16.5137 20.884 15.5108 19.2586 15.2243 18.7643C14.9378 18.27 15.1956 18.0038 15.444 17.7567C15.6636 17.538 15.9406 17.1768 16.189 16.8916C16.4373 16.6065 16.5232 16.3973 16.6856 16.0646C16.848 15.7319 16.7716 15.4468 16.6474 15.1996C16.5232 14.962 15.549 12.5095 15.1097 11.5304Z" fill="white"/>
</g>
<defs>
<clipPath id="clip0_1707_387">
<rect width="40" height="40" fill="white"/>
</clipPath>
</defs>
</svg>
