<svg xmlns="http://www.w3.org/2000/svg" width="40" height="40" fill="none" viewBox="0 0 40 40">
  <path fill="currentColor" d="M33.7359 8.64285c-2.5263-1.15919-5.2354-2.01323-8.068-2.50237-.0516-.00944-.1031.01415-.1297.06134-.3484.61968-.7343 1.42811-1.0046 2.06353-3.0465-.45611-6.0775-.45611-9.0616 0-.2703-.64955-.6702-1.44385-1.0202-2.06353-.0266-.04561-.0781-.06921-.1297-.06134-2.831.48758-5.54009 1.34162-8.06797 2.50237-.02189.00943-.04065.02517-.0531.04561C1.06244 16.3654-.345241 23.8537.345319 31.2491c.003124.0362.023434.0708.051557.0928C3.78718 33.8316 7.07126 35.3431 10.2944 36.345c.0515.0158.1062-.0031.139-.0456.7625-1.0412 1.4421-2.139 2.0248-3.2935.0344-.0676.0016-.1478-.0687-.1746-1.078-.4089-2.1045-.9075-3.09193-1.4737-.0781-.0456-.08435-.1573-.0125-.2108.20779-.1557.41563-.3177.61404-.4813.03589-.0298.08592-.0361.12809-.0173 6.4869 2.9617 13.5096 2.9617 19.92 0 .0422-.0204.0922-.0141.1296.0158.1985.1635.4063.3271.6156.4828.0719.0535.0672.1652-.0109.2108-.9874.5772-2.0139 1.0648-3.0935 1.4722-.0703.0267-.1015.1085-.0671.1761.5952 1.1529 1.2748 2.2507 2.0232 3.2919.0312.0441.0875.063.139.0472 3.2388-1.0019 6.5228-2.5134 9.9131-5.0031.0297-.022.0485-.0551.0516-.0912.8265-8.55-1.3843-15.9768-5.8604-22.56068-.0109-.022-.0296-.03774-.0515-.04717ZM13.4269 26.7461c-1.953 0-3.56218-1.793-3.56218-3.995s1.57798-3.995 3.56218-3.995c1.9998 0 3.5934 1.8088 3.5621 3.995 0 2.202-1.578 3.995-3.5621 3.995Zm13.1706 0c-1.9529 0-3.5621-1.793-3.5621-3.995s1.5779-3.995 3.5621-3.995c1.9998 0 3.5934 1.8088 3.5622 3.995 0 2.202-1.5624 3.995-3.5622 3.995Z"/>
</svg>
