<svg xmlns="http://www.w3.org/2000/svg" width="40" height="40" fill="none" viewBox="0 0 40 40">
  <rect width="40" height="40" fill="#000" rx="20"/>
  <path fill="#fff" d="M29.7032 10.8237c-1.7846-.84412-3.6984-1.46602-5.6993-1.82221-.0365-.00687-.0729.01031-.0916.04467-.2462.45124-.5188 1.03994-.7097 1.50264-2.1521-.3321-4.2932-.3321-6.4012 0-.191-.473-.4735-1.0514-.7207-1.50264-.0188-.03321-.0552-.05039-.0916-.04467-1.9999.35505-3.9136.97695-5.6993 1.82221-.0155.0069-.0288.0183-.0375.0332C6.62229 16.4471 5.62789 21.9 6.11571 27.2852c.00221.0264.01655.0516.03642.0676 2.39495 1.813 4.71487 2.9136 6.99167 3.6432.0365.0115.0751-.0023.0983-.0332.5385-.7582 1.0186-1.5576 1.4303-2.3983.0243-.0492.0011-.1076-.0486-.1271-.7615-.2978-1.4866-.6609-2.1841-1.0732-.0552-.0332-.0596-.1145-.0088-.1535.1467-.1133.2936-.2313.4337-.3504.0254-.0218.0607-.0264.0905-.0126 4.5824 2.1566 9.5434 2.1566 14.0717 0 .0298-.0149.0651-.0103.0916.0114.1402.1192.287.2383.4349.3516.0507.039.0474.1203-.0078.1535-.6975.4203-1.4226.7754-2.1852 1.072-.0497.0195-.0718.0791-.0475.1283.4205.8395.9006 1.6389 1.4292 2.3971.0221.0321.0618.0459.0983.0344 2.2879-.7296 4.6078-1.8302 7.0027-3.6432.021-.016.0342-.0401.0364-.0664.5839-6.226-.9778-11.6341-4.1398-16.4284-.0077-.016-.021-.0274-.0364-.0343ZM15.3567 24.0062c-1.3796 0-2.5164-1.3057-2.5164-2.9091s1.1147-2.9091 2.5164-2.9091c1.4127 0 2.5384 1.3171 2.5163 2.9091 0 1.6034-1.1147 2.9091-2.5163 2.9091Zm9.3038 0c-1.3795 0-2.5163-1.3057-2.5163-2.9091s1.1147-2.9091 2.5163-2.9091c1.4127 0 2.5385 1.3171 2.5164 2.9091 0 1.6034-1.1037 2.9091-2.5164 2.9091Z"/>
</svg>
