<svg xmlns="http://www.w3.org/2000/svg" width="40" height="40" fill="none" viewBox="0 0 40 40">
  <rect width="40" height="40" fill="#000" rx="20"/>
  <path fill="#fff" fill-rule="evenodd" d="M20 6C12.2712 6 6 12.2712 6 20c0 7.7289 6.2712 14 14 14 7.7137 0 14-6.2711 14-14 0-7.7288-6.2863-14-14-14Zm9.2473 6.4534c1.6703 2.0347 2.6725 4.6312 2.7029 7.4403-.3948-.0759-4.3428-.8807-8.3211-.3796-.0911-.1974-.1671-.41-.2581-.6225-.243-.577-.5163-1.1692-.7897-1.7311 4.4035-1.7917 6.4079-4.3731 6.666-4.7071ZM20 8.06508c3.0369 0 5.8156 1.13883 7.9263 3.00652-.2126.3037-2.0196 2.718-6.2712 4.3123-1.9588-3.5987-4.1301-6.54442-4.4642-6.99995.8958-.21258 1.8373-.31887 2.8091-.31887Zm-5.0867 1.12364c.3188.42516 2.4446 3.38608 4.4338 6.90888-5.5879 1.4881-10.5228 1.4577-11.05426 1.4577.7744-3.705 3.27986-6.7874 6.62046-8.36658ZM8.03471 20.0152v-.3644c.51627.0151 6.31669.0911 12.28419-1.7007.3493.6681.6681 1.3514.9718 2.0347-.1519.0456-.3189.0912-.4707.1367-6.1649 1.9891-9.4447 7.4251-9.718 7.8807-1.8981-2.1106-3.06729-4.9197-3.06729-7.987ZM20 31.9653c-2.7636 0-5.3145-.9414-7.3341-2.5206.2126-.4403 2.6421-5.1171 9.384-7.4707.0303-.0152.0456-.0152.0759-.0304 1.6855 4.3579 2.3688 8.0173 2.551 9.0651-1.4425.6225-3.0217.9566-4.6768.9566Zm6.6659-2.0499c-.1214-.7288-.7592-4.2212-2.3232-8.5185 3.7506-.5922 7.0304.3797 7.4404.5164-.5162 3.3253-2.4295 6.1952-5.1172 8.0021Z" clip-rule="evenodd"/>
</svg>
