<svg xmlns="http://www.w3.org/2000/svg" width="40" height="40" fill="none" viewBox="0 0 40 40">
  <g clip-path="url(#a)">
    <path fill="#000" fill-rule="evenodd" d="M20 0C8.95879 0 0 8.95879 0 20c0 11.0413 8.95879 20 20 20 11.0195 0 20-8.9587 20-20C40 8.95879 31.0195 0 20 0Zm13.2104 9.21909c2.3861 2.90671 3.8179 6.61601 3.8612 10.62901-.564-.1083-6.204-1.2581-11.8872-.5422-.1301-.282-.2386-.5858-.3688-.8894-.3471-.8242-.7375-1.6702-1.128-2.4729 6.2907-2.5596 9.154-6.24728 9.5228-6.72451ZM20 2.95011c4.3384 0 8.308 1.6269 11.3233 4.29502-.3038.43384-2.8852 3.88287-8.9589 6.16047-2.7983-5.14096-5.9001-9.3492-6.3774-9.99996 1.2798-.30369 2.6248-.45553 4.013-.45553Zm-7.2667 1.6052c.4555.60738 3.4923 4.83732 6.334 9.86979-7.9827 2.1259-15.03259 2.0825-15.79181 2.0825 1.10629-5.2928 4.68546-9.69632 9.45781-11.95229ZM2.90673 20.0218v-.5207c.73752.0217 9.02387.1302 17.54877-2.4295.499.9544.9545 1.9305 1.3884 2.9067-.217.0651-.4556.1302-.6725.1952-8.807 2.8416-13.49243 10.6074-13.8829 11.2581-2.7115-3.0151-4.38177-7.0281-4.38177-11.4098ZM20 37.0933c-3.948 0-7.5922-1.3449-10.47722-3.6009.30369-.629 3.77432-7.3101 13.40562-10.6724.0434-.0217.0651-.0217.1085-.0434 2.4077 6.2255 3.384 11.4533 3.6442 12.95-2.0607.8894-4.3167 1.3667-6.6811 1.3667Zm9.5228-2.9284c-.1735-1.0413-1.0847-6.0304-3.3189-12.1693 5.358-.846 10.0434.5424 10.6291.7377-.7375 4.7505-3.4707 8.8502-7.3102 11.4316Z" clip-rule="evenodd"/>
  </g>
</svg>
