<svg xmlns="http://www.w3.org/2000/svg" width="40" height="40" fill="none" viewBox="0 0 40 40">
  <rect width="40" height="40" fill="url(#a)" rx="20"/>
  <path fill="#fff" fill-rule="evenodd" d="M6.64294 19.5982C6.64294 12.155 12.4766 6.64185 20 6.64185c7.5233 0 13.357 5.51645 13.357 12.95965S27.5233 32.5578 20 32.5578c-1.3524 0-2.6481-.1803-3.8669-.5142-.2371-.0635-.4909-.0468-.7146.0534l-2.6514 1.1687c-.6945.3072-1.4759-.187-1.4993-.945l-.0734-2.3775c-.0067-.2939-.1403-.5677-.3574-.7614-2.59789-2.3241-4.19406-5.6901-4.19406-9.5836Zm9.25956-2.4344-3.9237 6.2244c-.3773.5978.3573 1.2689.9183.8415l4.2142-3.199c.2838-.217.6778-.217.965-.0033l3.1222 2.3408c.9383.7012 2.274.4575 2.8985-.5343l3.9269-6.221c.374-.5978-.3606-1.2723-.9216-.8449l-4.2141 3.199c-.2839.2171-.6779.2171-.9651.0034l-3.1222-2.3408c-.9383-.7013-2.274-.4575-2.8984.5342Z" clip-rule="evenodd"/>
</svg>
