<svg xmlns="http://www.w3.org/2000/svg" width="40" height="40" fill="none" viewBox="0 0 40 40">
  <rect width="40" height="40" fill="#000" rx="20"/>
  <path fill="#fff" fill-rule="evenodd" d="M6.64307 19.5982c0-7.4432 5.83363-12.95635 13.35703-12.95635 7.5233 0 13.357 5.51645 13.357 12.95965s-5.8337 12.9563-13.357 12.9563c-1.3524 0-2.648-.1803-3.8669-.5142-.2371-.0635-.4908-.0468-.7146.0534l-2.6513 1.1687c-.6946.3072-1.476-.187-1.4994-.945l-.0734-2.3775c-.0067-.2939-.1403-.5677-.3573-.7614-2.59797-2.3241-4.19413-5.6901-4.19413-9.5836Zm9.25953-2.4344-3.9236 6.2244c-.3774.5978.3573 1.2689.9183.8415l4.2141-3.199c.2838-.217.6779-.217.965-.0033l3.1222 2.3408c.9384.7012 2.2741.4575 2.8985-.5343l3.927-6.221c.374-.5978-.3607-1.2723-.9217-.8449l-4.2141 3.199c-.2838.2171-.6779.2171-.9651.0034l-3.1222-2.3408c-.9383-.7013-2.274-.4575-2.8984.5342Z" clip-rule="evenodd"/>
</svg>
