<svg xmlns="http://www.w3.org/2000/svg" width="40" height="40" fill="none" viewBox="0 0 40 40">
  <rect width="40" height="40" fill="currentColor" rx="20"/>
  <path fill="#fff" d="M16.0001 33c2.392 0 4.3334-1.9414 4.3334-4.3334v-4.3333h-4.3334c-2.392 0-4.3334 1.9413-4.3334 4.3333 0 2.392 1.9414 4.3334 4.3334 4.3334Z"/>
  <path fill="#fff" d="M11.6667 20c0-2.392 1.9414-4.3334 4.3334-4.3334h4.3334v8.6667h-4.3334c-2.392.0001-4.3334-1.9413-4.3334-4.3333Z"/>
  <path fill="#fff" d="M11.6667 11.3334C11.6667 8.94137 13.6081 7 16.0001 7h4.3334v8.6666h-4.3334c-2.392 0-4.3334-1.9412-4.3334-4.3332Z"/>
  <path fill="#fff" d="M20.3333 7h4.3334c2.392 0 4.3334 1.94137 4.3334 4.3334 0 2.392-1.9414 4.3332-4.3334 4.3332h-4.3334V7Z"/>
  <path fill="#fff" d="M29.0001 20c0 2.392-1.9414 4.3334-4.3334 4.3334-2.3921 0-4.3334-1.9414-4.3334-4.3334 0-2.392 1.9413-4.3334 4.3334-4.3334 2.392 0 4.3334 1.9414 4.3334 4.3334Z"/>
</svg>
