<svg xmlns="http://www.w3.org/2000/svg" width="40" height="40" fill="none" viewBox="0 0 40 40">
  <g clip-path="url(#a)">
    <path fill="#0ACF83" d="M13.6668 40.0001c3.6801 0 6.6668-2.9868 6.6668-6.6668v-6.6667h-6.6668c-3.68 0-6.66674 2.9867-6.66674 6.6667 0 3.68 2.98674 6.6668 6.66674 6.6668Z"/>
    <path fill="#A259FF" d="M7.00006 20c0-3.68 2.98674-6.6667 6.66674-6.6667h6.6668v13.3332h-6.6668C9.9868 26.6667 7.00006 23.68 7.00006 20Z"/>
    <path fill="#F24E1E" d="M7.00006 6.66672C7.00006 2.98672 9.9868 0 13.6668 0h6.6668v13.3333h-6.6668c-3.68 0-6.66674-2.9866-6.66674-6.66658Z"/>
    <path fill="#FF7262" d="M20.3332 0H27c3.68 0 6.6667 2.98672 6.6667 6.66672 0 3.67998-2.9867 6.66658-6.6667 6.66658h-6.6668V0Z"/>
    <path fill="#1ABCFE" d="M33.6667 20c0 3.68-2.9867 6.6667-6.6667 6.6667-3.6801 0-6.6668-2.9867-6.6668-6.6667 0-3.68 2.9867-6.6667 6.6668-6.6667 3.68 0 6.6667 2.9867 6.6667 6.6667Z"/>
  </g>
  <defs>
    <clipPath id="a">
      <path fill="#fff" d="M0 0h40v40H0z"/>
    </clipPath>
  </defs>
</svg>
