<svg xmlns="http://www.w3.org/2000/svg" width="40" height="40" fill="none" viewBox="0 0 40 40">
  <g fill="currentColor" clip-path="url(#a)">
    <path d="M13.6668 40.0001c3.68 0 6.6667-2.9868 6.6667-6.6668v-6.6667h-6.6667C9.98674 26.6666 7 29.6533 7 33.3333c0 3.68 2.98674 6.6668 6.6668 6.6668ZM7 20c0-3.68 2.98674-6.6667 6.6668-6.6667h6.6667v13.3332h-6.6667C9.98674 26.6667 7 23.68 7 20ZM7 6.66672C7 2.98672 9.98674 0 13.6668 0h6.6667v13.3333h-6.6667C9.98674 13.3333 7 10.3467 7 6.66672Z"/>
    <path d="M20.3331 0h6.6668c3.68 0 6.6668 2.98672 6.6668 6.66672 0 3.67998-2.9868 6.66658-6.6668 6.66658h-6.6668V0Zm13.3336 20c0 3.68-2.9868 6.6667-6.6668 6.6667S20.3331 23.68 20.3331 20c0-3.68 2.9868-6.6667 6.6668-6.6667S33.6667 16.32 33.6667 20Z"/>
  </g>
  <defs>
    <clipPath id="a">
      <path fill="#fff" d="M0 0h40v40H0z"/>
    </clipPath>
  </defs>
</svg>
