<svg xmlns="http://www.w3.org/2000/svg" width="40" height="40" fill="none" viewBox="0 0 40 40">
  <path fill="#191717" fill-rule="evenodd" d="M19.993 1c-4.7184.00245-9.2821 1.6736-12.87496 4.71464C3.52513 8.75568 1.13726 12.9683.381404 17.5993c-.755859 4.6309.169573 9.3782 2.610836 13.3929 2.44127 4.0148 6.23917 7.0352 10.71456 8.5213.9874.1832 1.3593-.4287 1.3593-.949 0-.5204-.0198-2.029-.0264-3.6783-5.52912 1.1945-6.69747-2.3332-6.69747-2.3332-.90179-2.2907-2.20509-2.8929-2.20509-2.8929-1.80357-1.2239.13495-1.201.13495-1.201 1.99774.1408 3.04762 2.0388 3.04762 2.0388 1.77069 3.0204 4.65039 2.1467 5.78259 1.6362.1777-1.2795.6944-2.15 1.2638-2.6441-4.4168-.4975-9.05731-2.1926-9.05731-9.765-.02737-1.9639.70555-3.8631 2.04712-5.3047-.20405-.4974-.88534-2.5067.19417-5.2359 0 0 1.66862-.53013 5.46662 2.0257 3.2577-.8859 6.6948-.8859 9.9525 0 3.7947-2.55583 5.4601-2.0257 5.4601-2.0257 1.0828 2.7227.4015 4.732.1974 5.2359 1.3459 1.4418 2.0803 3.3443 2.0504 5.3112 0 7.5888-4.6504 9.261-9.0737 9.7486.7109.6153 1.3461 1.8163 1.3461 3.6619 0 2.6442-.0231 4.7712-.0231 5.4225 0 .5268.3588 1.1421 1.3659.949 4.4759-1.4862 8.2742-4.5072 10.7154-8.5227 2.4412-4.0154 3.3662-8.7634 2.6095-13.3948-.7568-4.6313-3.1458-8.84401-6.7399-11.88453C29.2832 2.67095 24.7185 1.0009 19.9995 1h-.0065Z" clip-rule="evenodd"/>
  <path fill="#191717" d="M7.64409 29.3754c-.04278.0982-.20076.1276-.32912.0589-.12835-.0687-.22379-.1963-.17771-.2978.04608-.1014.20076-.1276.32912-.0589.12835.0687.22708.1996.17771.2978Zm.80632.8934c-.06815.0342-.14613.0437-.22058.027-.07445-.0167-.14073-.0587-.18752-.1186-.12835-.1375-.1547-.3273-.05596-.4123.09873-.0851.27647-.0459.40483.0916.12835.1374.15797.3272.05923.4123Zm.78323 1.1355c-.12178.085-.32913 0-.44432-.1702-.03185-.0305-.05718-.0671-.07449-.1076-.0173-.0405-.02623-.084-.02623-.128s.00893-.0875.02623-.128c.01731-.0405.04264-.0771.07449-.1076.12177-.0818.32913 0 .44432.1669.11519.1669.11848.3894 0 .4745Zm1.06316 1.0995c-.1086.1211-.3291.0884-.51012-.0753-.18101-.1636-.22381-.3861-.1152-.5039.10861-.1178.32912-.0851.51672.0753.1876.1603.2238.3861.1086.5039Zm1.4908.6414c-.0494.1538-.2732.2225-.497.1571-.2238-.0655-.3719-.2487-.3291-.4058.0428-.1571.2698-.2291.4969-.1571.2271.072.3719.2455.3292.4058Zm1.626.1113c0 .1604-.1843.2978-.4213.3011-.237.0033-.4311-.1276-.4311-.288 0-.1603.1843-.2978.4212-.301.237-.0033.4312.1243.4312.2879Zm1.5138-.2519c.0296.1603-.1349.3272-.3719.3665-.237.0393-.4443-.0556-.4739-.2127-.0296-.1571.1415-.3272.3719-.3698.2304-.0425.4443.0557.4739.216Z"/>
</svg>
