<svg xmlns="http://www.w3.org/2000/svg" width="40" height="40" fill="none" viewBox="0 0 40 40">
  <g fill-rule="evenodd" clip-path="url(#a)" clip-rule="evenodd">
    <path fill="#4285F4" d="M39.2 20.4546c0-1.4182-.1273-2.7819-.3636-4.091H20V24.1h10.7636c-.4636 2.5-1.8727 4.6182-3.9909 6.0364v5.0182h6.4637c3.7818-3.4819 5.9636-8.6091 5.9636-14.7Z"/>
    <path fill="#34A853" d="M20 39.9999c5.4 0 9.9273-1.7909 13.2364-4.8454l-6.4637-5.0182c-1.7909 1.2-4.0818 1.9091-6.7727 1.9091-5.2091 0-9.6182-3.5182-11.19091-8.2455H2.12727v5.1818C5.41818 35.5181 12.1818 39.9999 20 39.9999Z"/>
    <path fill="#FBBC05" d="M8.80909 23.8c-.4-1.2-.62727-2.4818-.62727-3.8s.22727-2.6.62727-3.8v-5.1818H2.12727C.772727 13.7182 0 16.7727 0 20c0 3.2273.772727 6.2818 2.12727 8.9818L8.80909 23.8Z"/>
    <path fill="#EA4335" d="M20 7.95455c2.9364 0 5.5727 1.00909 7.6455 2.99095l5.7363-5.73641C29.9182 1.98182 25.3909 0 20 0 12.1818 0 5.41818 4.48182 2.12727 11.0182L8.80909 16.2C10.3818 11.4727 14.7909 7.95455 20 7.95455Z"/>
  </g>
  <defs>
    <clipPath id="a">
      <path fill="#fff" d="M0 0h40v40H0z"/>
    </clipPath>
  </defs>
</svg>
