<svg xmlns="http://www.w3.org/2000/svg" width="40" height="40" fill="none" viewBox="0 0 40 40">
  <rect width="40" height="40" fill="currentColor" rx="20"/>
  <path fill="#fff" fill-rule="evenodd" d="M32.34 20.2954c0-.9218-.0827-1.8081-.2364-2.659H19.86v5.0286h6.9963c-.3013 1.625-1.2172 3.0018-2.594 3.9236v3.2618h4.2013c2.4582-2.2631 3.8764-5.5959 3.8764-9.555Z" clip-rule="evenodd"/>
  <path fill="#fff" fill-rule="evenodd" d="M19.86 33c3.51 0 6.4527-1.1641 8.6036-3.1496l-4.2013-3.2618c-1.1641.78-2.6532 1.2409-4.4023 1.2409-3.3859 0-6.2518-2.2868-7.2741-5.3595H8.24274v3.3682C10.3818 30.0868 14.7782 33 19.86 33Z" clip-rule="evenodd"/>
  <path fill="#fff" fill-rule="evenodd" d="M12.5859 22.47c-.26-.78-.4077-1.6131-.4077-2.47 0-.8568.1477-1.69.4077-2.47v-3.3681H8.24271C7.36226 15.9169 6.85999 17.9023 6.85999 20c0 2.0978.50227 4.0832 1.38272 5.8382L12.5859 22.47Z" clip-rule="evenodd"/>
  <path fill="#fff" fill-rule="evenodd" d="M19.86 12.1705c1.9086 0 3.6223.6559 4.9696 1.944l3.7286-3.7286C26.3068 8.28818 23.3641 7 19.86 7c-5.0818 0-9.4782 2.91318-11.61726 7.1618L12.5859 17.53c1.0223-3.0727 3.8882-5.3595 7.2741-5.3595Z" clip-rule="evenodd"/>
</svg>
