<svg xmlns="http://www.w3.org/2000/svg" width="40" height="40" fill="none" viewBox="0 0 40 40">
  <rect width="40" height="40" fill="currentColor" rx="20"/>
  <path fill="#fff" d="M20.0032 10.163c3.2064 0 3.5828.0143 4.8502.0715 1.172.0524 1.8057.2478 2.2297.4145.5622.2192.9624.4765 1.3817.8957.4193.4193.6813.8195.8957 1.3817.162.424.3621 1.0577.4145 2.2298.0572 1.2673.0715 1.6437.0715 4.8502 0 3.2064-.0143 3.5828-.0715 4.8501-.0524 1.1721-.2477 1.8058-.4145 2.2298-.2191.5622-.4764.9624-.8957 1.3817-.4193.4192-.8195.6813-1.3817.8957-.424.162-1.0577.3621-2.2297.4145-1.2674.0572-1.6438.0715-4.8502.0715-3.2065 0-3.5829-.0143-4.8502-.0715-1.1721-.0524-1.8057-.2478-2.2298-.4145-.5622-.2192-.9624-.4765-1.3816-.8957-.4193-.4193-.6814-.8195-.8958-1.3817-.1619-.424-.3621-1.0577-.4145-2.2298-.0571-1.2673-.0714-1.6437-.0714-4.8501 0-3.2065.0143-3.5829.0714-4.8502.0524-1.1721.2478-1.8058.4145-2.2298.2192-.5622.4765-.9624.8958-1.3817.4192-.4192.8194-.6813 1.3816-.8957.4241-.162 1.0577-.3621 2.2298-.4145 1.2673-.0619 1.6485-.0715 4.8502-.0715Zm0-2.163c-3.2589 0-3.6686.01429-4.9503.07147-1.2768.05717-2.1487.26204-2.911.55743-.7909.30493-1.4579.71943-2.125 1.3865-.66698.667-1.07672 1.3388-1.38641 2.1249-.29539.7623-.50026 1.6342-.55744 2.9158-.05717 1.2769-.07146 1.6866-.07146 4.9455 0 3.2589.01429 3.6686.07146 4.9502.05718 1.2769.26205 2.1488.55744 2.9159.30492.7908.71943 1.4579 1.38641 2.1249.6671.667 1.3388 1.0767 2.125 1.3864.7623.2954 1.6342.5003 2.9158.5575 1.2816.0571 1.6866.0714 4.9502.0714 3.2637 0 3.6687-.0143 4.9503-.0714 1.2769-.0572 2.1487-.2621 2.9158-.5575.7909-.3049 1.4579-.7194 2.125-1.3864.667-.667 1.0767-1.3388 1.3864-2.1249.2954-.7624.5003-1.6342.5574-2.9159.0572-1.2816.0715-1.6866.0715-4.9502 0-3.2636-.0143-3.6686-.0715-4.9503-.0571-1.2768-.262-2.1487-.5574-2.9158-.3049-.7909-.7194-1.4579-1.3864-2.1249-.6671-.66703-1.3388-1.07677-2.125-1.38646-.7623-.29539-1.6342-.50026-2.9158-.55744C23.6718 8.01429 23.2621 8 20.0032 8Z"/>
  <path fill="#fff" d="M20.0032 13.8412c-3.4018 0-6.1652 2.7586-6.1652 6.1652 0 3.4065 2.7586 6.1651 6.1652 6.1651 3.4065 0 6.1651-2.7586 6.1651-6.1651 0-3.4066-2.7586-6.1652-6.1651-6.1652Zm0 10.1625c-2.2107 0-4.0021-1.7914-4.0021-4.0021s1.7914-4.0021 4.0021-4.0021 4.0021 1.7914 4.0021 4.0021-1.7914 4.0021-4.0021 4.0021Zm6.4082-8.9714c.7946 0 1.4388-.6442 1.4388-1.4389 0-.7947-.6442-1.4389-1.4388-1.4389-.7947 0-1.4389.6442-1.4389 1.4389 0 .7947.6442 1.4389 1.4389 1.4389Z"/>
</svg>
