<svg xmlns="http://www.w3.org/2000/svg" width="40" height="40" fill="none" viewBox="0 0 40 40">
  <g fill="currentColor" clip-path="url(#a)">
    <path d="M20 3.6046c5.3434 0 5.9706.02382 8.0826.1191 1.9532.08734 3.0091.41286 3.7158.69075.9368.36522 1.6038.79397 2.3025 1.49266.6986.69869 1.1353 1.36562 1.4926 2.3025.27.70663.6034 1.7626.6908 3.71579.0952 2.1119.1191 2.7391.1191 8.0825 0 5.3434-.0239 5.9707-.1191 8.0826-.0874 1.9532-.4129 3.0091-.6908 3.7158-.3652.9369-.794 1.6038-1.4926 2.3025-.6987.6987-1.3657 1.1353-2.3025 1.4926-.7067.27-1.7626.6034-3.7158.6908-2.112.0953-2.7392.1191-8.0826.1191-5.3434 0-5.9706-.0238-8.0826-.1191-1.95312-.0874-3.0091-.4129-3.71573-.6908-.93688-.3652-1.60381-.7939-2.3025-1.4926-.69869-.6987-1.13537-1.3656-1.49266-2.3025-.26994-.7067-.60341-1.7626-.69075-3.7158-.09527-2.1119-.11909-2.7392-.11909-8.0826 0-5.3434.02382-5.9706.11909-8.0825.08734-1.95319.41287-3.00916.69075-3.71579.36523-.93688.79397-1.60381 1.49266-2.3025.69869-.69869 1.36562-1.13538 2.3025-1.49266.70663-.26995 1.76261-.60341 3.71573-.69075 2.112-.10322 2.7472-.1191 8.0826-.1191ZM20 0c-5.4307 0-6.1135.023819-8.2493.119095-2.12783.095276-3.58079.436681-4.85113.928935-1.31799.50814-2.42954 1.19889-3.54109 2.31045-1.11156 1.11155-1.79437 2.23104-2.31044 3.54108C.555776 8.16991.214371 9.62287.119095 11.7586.023819 13.8865 0 14.5693 0 20s.023819 6.1135.119095 8.2493c.095276 2.1278.436681 3.5808.928945 4.8591.50813 1.318 1.19888 2.4295 2.31044 3.5411 1.11155 1.1115 2.23104 1.7943 3.54109 2.3104 1.27034.4923 2.7233.8337 4.85903.9289 2.1358.0953 2.8107.1191 8.2494.1191 5.4386 0 6.1135-.0238 8.2493-.1191 2.1278-.0952 3.5808-.4366 4.859-.9289 1.318-.5081 2.4296-1.1989 3.5411-2.3104 1.1116-1.1116 1.7944-2.2311 2.3105-3.5411.4922-1.2704.8336-2.7233.9289-4.8591.0953-2.1358.1191-2.8106.1191-8.2493s-.0238-6.1135-.1191-8.2493c-.0953-2.12783-.4367-3.58079-.9289-4.85908-.5082-1.31798-1.1989-2.42953-2.3105-3.54108-1.1115-1.11156-2.231-1.79437-3.5411-2.31044C31.846.547836 30.393.206431 28.2573.111155 26.1136.023819 25.4307 0 20 0Z"/>
    <path d="M20 9.73401c-5.6689 0-10.27393 4.59709-10.27393 10.27389 0 5.6769 4.59703 10.2739 10.27393 10.2739 5.6768 0 10.2739-4.597 10.2739-10.2739 0-5.6768-4.5971-10.27389-10.2739-10.27389Zm0 16.93529c-3.684 0-6.6693-2.9853-6.6693-6.6693 0-3.684 2.9853-6.6693 6.6693-6.6693 3.684 0 6.6693 2.9853 6.6693 6.6693 0 3.684-2.9853 6.6693-6.6693 6.6693Zm10.6788-14.9504c1.3242 0 2.3978-1.0735 2.3978-2.39778 0-1.32426-1.0736-2.39778-2.3978-2.39778-1.3243 0-2.3978 1.07352-2.3978 2.39778 0 1.32428 1.0735 2.39778 2.3978 2.39778Z"/>
  </g>
  <defs>
    <clipPath id="a">
      <path fill="#fff" d="M0 0h40v40H0z"/>
    </clipPath>
  </defs>
</svg>
