<svg xmlns="http://www.w3.org/2000/svg" width="40" height="40" fill="none" viewBox="0 0 40 40">
  <g clip-path="url(#a)">
    <path fill="#0A66C2" d="M37.0472 0H2.95278C2.16965 0 1.4186.311096.864849.864849.311096 1.4186 0 2.16965 0 2.95278V37.0472c0 .7831.311096 1.5342.864849 2.088C1.4186 39.6889 2.16965 40 2.95278 40H37.0472c.7831 0 1.5342-.3111 2.088-.8648.5537-.5538.8648-1.3049.8648-2.088V2.95278c0-.78313-.3111-1.53418-.8648-2.087931C38.5814.311096 37.8303 0 37.0472 0Zm-25.125 34.075H5.90833V14.9722h6.01387V34.075Zm-3.01109-21.75c-.68217-.0038-1.34792-.2097-1.91322-.5915-.5653-.3819-1.00482-.9226-1.26309-1.554-.25828-.63142-.32372-1.32518-.18808-1.99374s.46628-1.28197.95021-1.76279c.48392-.48083 1.09943-.80753 1.76885-.93887.66942-.13134 1.36274-.06144 1.99252.20088.6297.26232 1.1676.7053 1.5458 1.27304.3782.56774.5798 1.2348.5792 1.91698.0065.45672-.0791.91006-.2516 1.333-.1725.4229-.4284.8068-.7524 1.1288-.324.3219-.7096.5753-1.1336.7451-.42403.1698-.87792.2525-1.33459.2431ZM34.0889 34.0917h-6.0111V23.6556c0-3.0778-1.3084-4.0278-2.9972-4.0278-1.7834 0-3.5334 1.3444-3.5334 4.1055v10.3584h-6.0139V14.9861h5.7834v2.6472h.0777c.5806-1.175 2.6139-3.1833 5.7167-3.1833 3.3556 0 6.9806 1.9917 6.9806 7.825l-.0028 11.8167Z"/>
  </g>
  <defs>
    <clipPath id="a">
      <path fill="#fff" d="M0 0h40v40H0z"/>
    </clipPath>
  </defs>
</svg>
