<svg xmlns="http://www.w3.org/2000/svg" width="40" height="40" fill="none" viewBox="0 0 40 40">
  <rect width="40" height="40" fill="#000" rx="20"/>
  <path fill="#fff" d="M19.9951 8C13.3608 8 8 13.3706 8 19.9951c0 5.0843 3.1592 9.4282 7.6216 11.1756-.1086-.9478-.1975-2.4089.0394-3.4455.2172-.9379 1.4019-5.963 1.4019-5.963s-.3554-.7206-.3554-1.777c0-1.6685.9675-2.9124 2.172-2.9124 1.0267 0 1.5203.7701 1.5203 1.6882 0 1.0267-.6516 2.5668-.9971 3.9984-.2863 1.1945.6022 2.1719 1.7771 2.1719 2.1324 0 3.7713-2.2509 3.7713-5.4891 0-2.8729-2.0634-4.877-5.0153-4.877-3.4158 0-5.42 2.557-5.42 5.2028 0 1.0267.3949 2.1324.8886 2.7347.0987.1184.1086.227.0789.3455-.0888.3752-.2961 1.1946-.3356 1.3624-.0494.2172-.1777.2666-.4048.158-1.4809-.7109-2.4089-2.9025-2.4089-4.6598 0-3.7812 2.7446-7.2563 7.9276-7.2563 4.1563 0 7.3945 2.9617 7.3945 6.9305 0 4.1365-2.6063 7.4636-6.2197 7.4636-1.2143 0-2.3595-.6319-2.7445-1.3822 0 0-.6022 2.2904-.7503 2.8532-.2666 1.0465-.9971 2.3496-1.4908 3.1493 1.1255.3455 2.3102.5331 3.5541.5331C26.6294 32 32 26.6294 32 20.0049 31.9901 13.3706 26.6195 8 19.9951 8Z"/>
</svg>
