<svg xmlns="http://www.w3.org/2000/svg" width="40" height="40" fill="none" viewBox="0 0 40 40">
  <rect width="40" height="40" fill="currentColor" rx="20"/>
  <path fill="#fff" d="m17.5767 6.76077.2922 1.18351c-1.1516.2846-2.2538.74092-3.2695 1.35363l-.625-1.04666c1.118-.67706 2.3327-1.17967 3.6023-1.49048Zm6.2504 0-.2922 1.18351c1.1516.2846 2.2537.74092 3.2694 1.35363l.6325-1.04666c-1.121-.67647-2.3381-1.17901-3.6097-1.49048ZM9.5547 12.6672c-.67643 1.1197-1.17898 2.3355-1.49048 3.606l1.18351.2922c.2846-1.1516.74093-2.2537 1.35367-3.2695l-1.0467-.6287Zm-.65093 6.7312c-.00009-.5918.04442-1.1827.13315-1.7679l-1.2057-.1849c-.19602 1.2933-.19602 2.6087 0 3.9019l1.2057-.1812c-.08859-.5852-.1331-1.1761-.13315-1.7679ZM27.4294 30.5419l-.6251-1.043c-1.0141.6133-2.1151 1.0697-3.2657 1.3536l.2922 1.1835c1.268-.3138 2.4812-.8175 3.5986-1.4941ZM32.5 19.3984c-.0001.5918-.0446 1.1827-.1332 1.7679l1.2057.1812c.1961-1.2932.1961-2.6086 0-3.9019l-1.2057.1849c.0888.5852.1333 1.1761.1332 1.7679Zm.8395 3.1215-1.1835-.2922c-.2839 1.153-.7403 2.2565-1.3536 3.2732l1.0467.6287c.677-1.1206 1.1796-2.3378 1.4904-3.6097Zm-10.8698 8.5435c-1.1719.1775-2.3638.1775-3.5357 0l-.1812 1.2057c1.292.196 2.6062.196 3.8982 0l-.1813-1.2057Zm7.7298-4.6675c-.7029.9533-1.5458 1.7949-2.5001 2.4965l.7249.9837c1.0511-.7737 1.981-1.6999 2.759-2.7479l-.9838-.7323ZM27.6994 9.90076c.9544.70294 1.7972 1.54574 2.5001 2.50014l.9838-.7323c-.7753-1.0489-1.7027-1.97635-2.7516-2.75163l-.7323.98379ZM11.2042 12.4009c.7029-.9544 1.5458-1.7972 2.5002-2.50014l-.7323-.98379c-1.049.77528-1.9764 1.70273-2.7517 2.75163l.9838.7323Zm20.6449.2663-1.0467.6287c.6133 1.0142 1.0696 2.1152 1.3536 3.2658l1.1835-.2922c-.3115-1.2693-.8141-2.4839-1.4904-3.6023ZM18.934 7.73346c1.1719-.17754 2.3638-.17754 3.5357 0l.1813-1.2057c-1.292-.19603-2.6062-.19603-3.8982 0l.1812 1.2057ZM11.8293 30.2016l-2.5187.5844.58806-2.5187-1.18721-.2774-.58806 2.5187c-.03679.1561-.04244.318-.01661.4764.02582.1583.08261.31.16711.4464.0845.1363.19506.2547.32536.3483.13029.0936.27776.1606.43397.1972.18268.0407.37208.0407.55477 0l2.51861-.5807-.2773-1.1946Zm-2.86635-3.299 1.19095.2737.4068-1.7457c-.59413-.9966-1.03662-2.076-1.31297-3.2029l-1.18351.2922c.26621 1.0786.66889 2.1189 1.1983 3.0956l-.29957 1.2871Zm5.69565 2.6407-1.7457.4068.2774 1.1909 1.2834-.2996c.976.531 2.0164.9338 3.0956 1.1983l.2922-1.1835c-1.1234-.2799-2.199-.7249-3.1918-1.3203l-.0111.0074Zm6.0433-20.72249c-5.8436.0037-10.5739 4.74139-10.5739 10.58129.0032 1.9891.5658 3.9372 1.6236 5.6217l-1.0171 4.342 4.3383-1.0171c4.9449 3.1104 11.4764 1.6273 14.5868-3.3138 3.1104-4.9412 1.631-11.4727-3.3102-14.5868-1.6915-1.06372-3.6493-1.62783-5.6475-1.62729Z"/>
</svg>
