<svg xmlns="http://www.w3.org/2000/svg" width="40" height="40" fill="none" viewBox="0 0 40 40">
  <g clip-path="url(#a)">
    <path fill="#000" d="m15.1985.583869.4489 1.818311c-1.7692.43726-3.4626 1.13834-5.0231 2.07969L9.66403 2.8738C11.3817 1.83359 13.248 1.0614 15.1985.583869Zm9.603 0-.4489 1.818311c1.7692.43726 3.4625 1.13834 5.023 2.07969l.9717-1.60807c-1.7222-1.0393-3.5921-1.81139-5.5458-2.289931ZM2.87378 9.65837C1.83453 11.3786 1.06243 13.2466.583845 15.1985l1.818305.4489c.43726-1.7692 1.13835-3.4625 2.07969-5.0231l-1.60806-.96593ZM1.87371 20c-.00014-.9092.06824-1.8172.20456-2.7161l-1.852405-.2841c-.3011533 1.9869-.3011533 4.0078 0 5.9947l1.852405-.2784c-.13611-.899-.20448-1.8069-.20456-2.7161ZM30.3359 37.1205l-.9603-1.6024c-1.558.9422-3.2496 1.6434-5.0174 2.0797l.4489 1.8183c1.9482-.4821 3.8122-1.256 5.5288-2.2956ZM38.1262 20c0 .9092-.0684 1.8171-.2045 2.7161l1.8524.2784c.3011-1.9869.3011-4.0078 0-5.9947l-1.8524.2841c.1363.8989.2047 1.8069.2045 2.7161Zm1.2899 4.7958-1.8183-.4489c-.4362 1.7714-1.1374 3.4667-2.0797 5.0288l1.6081.9659c1.0402-1.7217 1.8124-3.5917 2.2899-5.5458Zm-16.7 13.1259c-1.8005.2728-3.6318.2728-5.4322 0l-.2785 1.8524c1.985.3012 4.0041.3012 5.9891 0l-.2784-1.8524Zm11.8758-7.1709c-1.08 1.4645-2.375 2.7576-3.8412 3.8354l1.1137 1.5115c1.615-1.1888 3.0436-2.6118 4.239-4.2219l-1.5115-1.125ZM30.7507 5.40807c1.4663 1.07991 2.7613 2.37488 3.8412 3.84118l1.5115-1.12508c-1.1911-1.61158-2.616-3.03645-4.2276-4.22757l-1.1251 1.51147ZM5.40805 9.24925c1.07991-1.4663 2.37487-2.76127 3.84117-3.84118L8.12415 3.8966C6.51257 5.08772 5.08769 6.51259 3.89658 8.12417l1.51147 1.12508Zm31.71815.40912-1.6081.96593c.9422 1.5581 1.6434 3.2497 2.0797 5.0174l1.8183-.4489c-.4786-1.9501-1.2507-3.8162-2.2899-5.53443ZM17.2839 2.07829c1.8004-.27278 3.6317-.27278 5.4322 0l.2784-1.852401c-1.985-.3011853-4.0041-.3011853-5.9891 0l.2785 1.852401ZM6.36834 36.5977l-3.86959.8978.90347-3.8696-1.82399-.4261-.90347 3.8696c-.056529.2399-.065204.4886-.025529.7319.039675.2432.126921.4763.256749.6858.12983.2095.29969.3914.49987.5352.20017.1438.42674.2467.66674.3029.28067.0625.57166.0625.85233 0l3.86959-.8921-.42617-1.8354Zm-4.40372-5.0685 1.82968.4205.62504-2.682c-.91277-1.5311-1.59261-3.1896-2.01719-4.9208l-1.818305.4489c.408996 1.6571 1.027665 3.2554 1.841035 4.756l-.46026 1.9774Zm8.75058 4.0571-2.68197.6251.42617 1.8296 1.9717-.4602c1.4995.8158 3.0981 1.4346 4.756 1.841l.4489-1.8183c-1.7258-.4301-3.3784-1.1137-4.9037-2.0285l-.0171.0113ZM20 3.74886C11.0221 3.75454 3.75452 11.0335 3.75452 20.0057c.00495 3.056.86936 6.0489 2.49449 8.6369l-1.56261 6.671 6.6652-1.5626c7.5972 4.7787 17.632 2.5001 22.4107-5.0913 4.7787-7.5914 2.5059-17.6262-5.0856-22.41066C26.0778 4.61472 23.07 3.74803 20 3.74886Z"/>
  </g>
  <defs>
    <clipPath id="a">
      <path fill="#fff" d="M0 0h40v40H0z"/>
    </clipPath>
  </defs>
</svg>
