<svg xmlns="http://www.w3.org/2000/svg" width="40" height="40" fill="none" viewBox="0 0 40 40">
  <g clip-path="url(#a)">
    <path fill="currentColor" d="M20.0811 32.0382c-6.6447 0-9.6806-3.3849-9.6806-5.8676-.0009-.5923.2422-1.1588.672-1.5662.4299-.4075 1.0086-.6199 1.6-.5873 2.8449 0 2.1007 4.2674 7.4086 4.2674 2.7132 0 4.3069-1.6332 4.3069-3.1676 0-.922-.5269-1.9756-2.3181-2.3971l-5.9269-1.4949c-4.7613-1.2117-5.591-3.8591-5.591-6.3154 0-5.09717 4.6625-6.94109 9.101-6.94109 4.0896 0 8.9496 2.25879 8.9496 5.31449 0 1.317-1.0997 2.0217-2.3773 2.0217-2.43 0-2.0217-3.4113-6.9081-3.4113-2.43 0-3.7076 1.1393-3.7076 2.733 0 1.5937 1.89 2.1337 3.5495 2.4959l4.3728.9878c4.7942 1.08 6.0717 3.892 6.0717 6.5854 0 4.1423-3.2071 7.3428-9.5291 7.3428h.0066Zm18.347-8.7652c.1899-1.0873.2846-2.189.2832-3.2927.0232-5.5442-2.4128-10.81342-6.6515-14.38722C27.821 2.01929 22.216.508725 16.7554 1.46858 15.0771.502254 13.1735-.00430082 11.2368.0000275 7.26161.0243113 3.59739 2.15483 1.60979 5.59758-.37782 9.04032-.390678 13.2789 1.576 16.7336c-1.09739 6.0299.82492 12.2152 5.14687 16.5607 4.32193 4.3456 10.49663 6.3016 16.53243 5.2371 1.6763.9655 3.5775 1.4721 5.512 1.4686 3.9732-.0256 7.6352-2.1552 9.6224-5.5959 1.9871-3.4406 2.0018-7.6768.0384-11.1311Z"/>
  </g>
  <defs>
    <clipPath id="a">
      <path fill="#fff" d="M0 0h40v40H0z"/>
    </clipPath>
  </defs>
</svg>
