<svg xmlns="http://www.w3.org/2000/svg" width="40" height="40" fill="none" viewBox="0 0 40 40">
  <path fill="#fff" d="M35.1665 28.0307c-5.5283-2.6762-6.4093-6.808-6.4486-7.1145-.0474-.3712-.1012-.6631.3083-1.0407.395-.3648 2.1471-1.4493 2.6333-1.7886.8035-.5619 1.1574-1.1228.8966-1.8124-.1824-.477-.6266-.6567-1.0946-.6567-.1475.0005-.2947.017-.4387.0493-.8829.1915-1.7403.6339-2.2365.7534-.0596.0153-.1208.0236-.1824.0246-.2645 0-.3648-.1177-.3393-.436.062-.965.1934-2.8485.0411-4.608-.2089-2.42071-.9897-3.62013-1.9155-4.68091-.4478-.51443-2.5274-2.72446-6.5407-2.72446s-6.0901 2.21003-6.5352 2.71808c-.9286 1.06078-1.7084 2.2602-1.9155 4.68089-.1523 1.7595-.0155 3.6421.0411 4.608.0182.3028-.0748.436-.3393.436-.0616-.0011-.1228-.0093-.1824-.0246-.4953-.1195-1.3527-.5619-2.23563-.7534-.14402-.0323-.29112-.0488-.43872-.0493-.46973 0-.91211.1824-1.09453.6567-.26086.6896.09121 1.2505.89752 1.8124.48615.3393 2.23826 1.4229 2.63326 1.7886.4086.3776.3557.6695.3083 1.0407-.0392.3111-.9212 4.4429-6.44862 7.1145-.3238.1569-.87471.4889.09669 1.0252 1.52504.8428 2.54022.7525 3.32919 1.2605.66949.4315.27363 1.3618.7607 1.6975.59834.4131 2.36694-.0292 4.65174.7251 1.9154.6312 3.0793 2.4143 6.476 2.4143s4.5943-1.7913 6.4759-2.4143c2.2803-.7543 4.0525-.312 4.6518-.7251.4861-.3357.0912-1.266.7607-1.6975.789-.508 1.8032-.4177 3.3292-1.2605.9695-.5299.4186-.8619.0948-1.0188Z"/>
  <path fill="#000" d="M37.5717 27.7159c-.2481-.6749-.7205-1.0361-1.2587-1.3353-.1012-.0593-.1943-.1067-.2736-.1432-.1605-.083-.3247-.1633-.488-.2481-1.6774-.8893-2.9871-2.0112-3.8956-3.341-.258-.3744-.4817-.7713-.6686-1.1858-.0775-.2216-.0739-.3475-.0182-.4624.0552-.0885.1282-.1646.2143-.2235.2883-.1906.5856-.384.7872-.5144.3594-.2326.6439-.4168.8273-.5473.6886-.4816 1.1702-.9932 1.4712-1.5651.21-.3952.3325-.8309.3591-1.2775.0266-.4467-.0433-.8939-.205-1.3111-.456-1.2003-1.5898-1.9455-2.9634-1.9455-.2897-.0003-.5787.0303-.8619.0912-.0757.0164-.1514.0337-.2253.0529.0127-.8209-.0055-1.6874-.0785-2.5402-.259-2.99812-1.3088-4.56968-2.4034-5.82291-.7009-.78534-1.5265-1.44974-2.4435-1.96651C23.7861 2.48159 21.9026 2 19.8495 2c-2.0532 0-3.9275.48159-5.5903 1.43018-.9193.51692-1.7465 1.18266-2.4481 1.97015-1.0945 1.25324-2.14436 2.82754-2.4034 5.82287-.07297.8528-.09121 1.7239-.07935 2.5402-.07388-.0191-.14867-.0364-.22438-.0529-.28326-.0609-.5722-.0914-.86194-.0912-1.37454 0-2.51012.7452-2.96435 1.9456-.16236.4174-.23295.8649-.20698 1.312.02597.4471.14789.8834.35748 1.2792.30191.5719.7835 1.0836 1.47214 1.5652.18242.1277.46791.312.82728.5473.19428.1259.47795.3101.75614.4943.09733.063.18006.146.24262.2436.05837.1195.0602.2481-.02645.4852-.1843.4058-.40438.7944-.65763 1.1611-.88839 1.2998-2.15987 2.4016-3.78342 3.2836-.86011.4561-1.75398.7607-2.13159 1.7868-.28458.7744-.09851 1.6555.62479 2.398.26546.2771.57335.5101.91211.6904.70487.3874 1.45438.6873 2.23192.893.16046.0414.31279.1095.45058.2016.2636.2307.22621.5782.57737 1.0872.17627.263.40026.4907.66036.6713.73698.509 1.56518.5409 2.4426.5746.7926.0301 1.6911.0648 2.7172.4032.425.1404.8665.4122 1.3782.7297 1.2286.7552 2.9105 1.7886 5.7253 1.7886 2.8147 0 4.5085-1.0389 5.7462-1.7968.5081-.312.9468-.5811 1.36-.7179 1.0261-.3393 1.9245-.373 2.7172-.4031.8774-.0338 1.7056-.0657 2.4426-.5747.308-.2148.5647-.4951.7516-.8208.2526-.4297.2462-.7297.4834-.9395.1292-.0877.2723-.153.4232-.1934.7881-.2063 1.5479-.509 2.262-.9011.3599-.1931.6839-.4468.9577-.7498l.0091-.0109c.6787-.7261.8492-1.5816.571-2.3369Zm-2.5019 1.3445c-1.5259.8428-2.5402.7525-3.3292 1.2605-.6704.4314-.2736 1.3618-.7607 1.6974-.5983.4132-2.3669-.0291-4.6517.7252-1.8844.6229-3.0866 2.4143-6.476 2.4143s-4.5632-1.7877-6.4787-2.4189c-2.2802-.7543-4.05245-.3119-4.6517-.7251-.48615-.3357-.09121-1.266-.7607-1.6974-.78988-.5081-1.80414-.4178-3.32919-1.256-.97139-.5363-.42048-.8683-.09668-1.0252 5.52737-2.6761 6.40937-6.808 6.44857-7.1145.0475-.3712.1004-.6631-.3083-1.0407-.3949-.3648-2.14707-1.4493-2.63322-1.7886-.80448-.5619-1.15838-1.1228-.89751-1.8124.18242-.477.62753-.6567 1.09452-.6567.1476.0005.29471.017.43873.0493.88292.1915 1.74028.6339 2.23558.7534.0596.0153.1209.0235.1824.0246.2645 0 .3576-.1332.3393-.436-.0565-.9659-.1934-2.8485-.041-4.608.2088-2.42069.9887-3.62011 1.9154-4.68089.4451-.50986 2.5366-2.7199 6.5361-2.7199 3.9996 0 6.0966 2.20091 6.5417 2.70896.9276 1.06078 1.7084 2.2602 1.9154 4.68093.1523 1.7595.021 3.643-.041 4.608-.021.3183.0747.4359.3393.4359.0615-.0009.1228-.0092.1824-.0246.4962-.1195 1.3535-.5618 2.2365-.7534.144-.0323.2911-.0488.4387-.0492.4697 0 .9121.1824 1.0945.6567.2609.6895-.0912 1.2505-.8966 1.8123-.4861.3393-2.2383 1.4229-2.6332 1.7887-.4096.3776-.3558.6695-.3083 1.0407.0392.311.9203 4.4429 6.4486 7.1144.3265.1633.8774.4953-.094 1.0362Z"/>
</svg>
