<svg xmlns="http://www.w3.org/2000/svg" width="40" height="40" fill="none" viewBox="0 0 40 40">
  <rect width="40" height="40" fill="#000" rx="20"/>
  <path fill="#fff" d="M20 7C12.8205 7 7 12.8199 7 20s5.8205 13 13 13 13-5.8199 13-13S27.1795 7 20 7Zm6.3424 18.7403c-.2088.3697-.5928.5777-.9888.5777-.1851 0-.3762-.0463-.5515-.1438-1.623-.91-3.3918-1.4674-5.261-1.6567-1.8732-.1877-3.7228.0024-5.4994.5696-.5929.1893-1.2311-.1382-1.4202-.7321-.191-.5948.1379-1.2309.7327-1.4211 2.0722-.6621 4.2329-.8872 6.4153-.6654 2.1785.2218 4.2428.8718 6.1376 1.9339.5456.3037.7406.9927.4353 1.5379Zm1.5561-3.9487c-.2009.3867-.5949.6085-1.0026.6085-.1773 0-.3545-.0406-.522-.1283-1.9953-1.0392-4.1501-1.6827-6.4094-1.9119-2.2769-.2331-4.5322-.03-6.7068.5972-.6007.1706-1.2271-.173-1.3984-.7735-.1734-.5996.1733-1.226.7721-1.3991 2.4542-.7077 4.9991-.9344 7.5616-.6744 2.5449.2592 4.9755.984 7.2269 2.1572.5515.2885.7681.9709.4786 1.5243Zm.5633-3.285c-.1694 0-.3407-.0382-.5042-.1186-2.3676-1.1806-4.9144-1.9159-7.5715-2.1856-2.6611-.2722-5.3084-.0618-7.8709.6225-.6028.1599-1.2213-.1976-1.3828-.8013-.1615-.6029.197-1.2228.8017-1.3837 2.8265-.7548 5.7495-.9847 8.6824-.6865 2.929.2965 5.7377 1.1082 8.3496 2.4107.5594.2786.7859.9579.5081 1.5161-.1969.3973-.5968.6264-1.0124.6264Z"/>
</svg>
