<svg xmlns="http://www.w3.org/2000/svg" width="40" height="40" fill="none" viewBox="0 0 40 40">
  <rect width="40" height="40" fill="url(#a)" rx="20"/>
  <path fill="#fff" fill-rule="evenodd" d="M9.05344 19.7889c5.83036-2.5402 9.71826-4.2149 11.66356-5.024 5.5542-2.3102 6.7083-2.7115 7.4606-2.7247.1654-.0029.5353.0381.775.2325.2023.1642.258.386.2846.5416.0267.1557.0598.5103.0335.7874-.301 3.1624-1.6034 10.8369-2.266 14.3789-.2803 1.4988-.8323 2.0013-1.3668 2.0505-1.1614.1069-2.0433-.7676-3.1683-1.505-1.7602-1.1538-2.7547-1.8721-4.4633-2.9981-1.9746-1.3012-.6945-2.0164.4308-3.1852.2945-.3059 5.4118-4.9605 5.5109-5.3828.0123-.0528.0238-.2496-.0931-.3535-.1169-.104-.2895-.0684-.4141-.0402-.1765.0401-2.9886 1.8987-8.4361 5.576-.7982.5481-1.5212.8151-2.1689.8011-.7141-.0154-2.0878-.4037-3.10895-.7357-1.2525-.4071-2.24797-.6224-2.16129-1.3138.04515-.3602.54111-.7285 1.48788-1.105Z" clip-rule="evenodd"/>
  <defs>
    <linearGradient id="a" x1="20" x2="20" y1="0" y2="39.7033" gradientUnits="userSpaceOnUse">
      <stop stop-color="#2AABEE"/>
      <stop offset="1" stop-color="#229ED9"/>
    </linearGradient>
  </defs>
</svg>
