<svg xmlns="http://www.w3.org/2000/svg" width="40" height="40" fill="none" viewBox="0 0 40 40">
  <path fill="#000" d="M35.095 11.9679c.0155.352.0155.688.0155 1.04C35.1259 23.68 27.2851 36 12.9464 36 8.7173 36 4.56539 34.736 1 32.368c.61738.08 1.23477.112 1.85215.112 3.50366 0 6.91471-1.216 9.67755-3.472-3.33392-.064-6.2665-2.32-7.28518-5.616 1.17303.24 2.37693.192 3.51909-.144-3.62714-.736-6.23558-4.0481-6.25102-7.9041v-.096c1.08042.624 2.29976.976 3.53453 1.008-3.41105-2.368-4.47604-7.08799-2.4078-10.784 3.96669 5.056 9.80098 8.112 16.06738 8.448-.6328-2.8.2316-5.74399 2.2535-7.728 3.1332-3.05601 8.0723-2.896 11.0357.35201 1.7442-.35201 3.4265-1.02401 4.9545-1.96801-.5865 1.87201-1.8058 3.45601-3.4264 4.46401 1.5434-.192 3.056-.624 4.476-1.264-1.0496 1.63201-2.3769 3.03999-3.905 4.19199Z"/>
</svg>
