<svg xmlns="http://www.w3.org/2000/svg" width="40" height="40" fill="none" viewBox="0 0 40 40">
  <rect width="40" height="40" fill="url(#a)" rx="20"/>
  <path fill="#fff" d="m7.86829 31.6358 1.71489-6.2273c-1.06022-1.8278-1.6164-3.8978-1.61061-6.0139 0-6.6309 5.42273-12.02216 12.07953-12.02216 3.2328 0 6.2686 1.25122 8.5455 3.52306 2.2826 2.2718 3.5398 5.2932 3.5341 8.5048 0 6.631-5.4228 12.0222-12.0854 12.0222h-.0058c-2.0219 0-4.0091-.5074-5.7761-1.4646l-6.39611 1.6779Zm6.70311-3.8517.365.2191c1.5411.9111 3.3081 1.3896 5.1099 1.3954h.0058c5.5328 0 10.0402-4.4802 10.0402-9.9925 0-2.6697-1.0428-5.1779-2.9373-7.0691-1.8945-1.8913-4.4205-2.92916-7.1029-2.92916-5.5328-.00577-10.0402 4.47446-10.0402 9.98676 0 1.8855.5272 3.7248 1.5353 5.3162l.2375.3806-1.0138 3.6845 3.8005-.9918Z"/>
  <path fill="url(#b)" d="m8.29126 31.2149 1.65695-6.014c-1.02545-1.7586-1.56425-3.7594-1.56425-5.8006C8.38975 13 13.6213 7.79333 20.0522 7.79333c3.1227 0 6.0484 1.21087 8.25 3.40197 2.2015 2.1911 3.4124 5.1087 3.4124 8.2108 0 6.4003-5.2374 11.607-11.6624 11.607h-.0058c-1.9525 0-3.8701-.4901-5.5734-1.4127l-6.18174 1.6145Z"/>
  <path fill="url(#c)" d="m7.86829 31.6358 1.71489-6.2273c-1.06022-1.8278-1.6164-3.8978-1.61061-6.0139 0-6.6309 5.42273-12.02216 12.07953-12.02216 3.2328 0 6.2686 1.25122 8.5455 3.52306 2.2826 2.2718 3.5398 5.2932 3.5341 8.5048 0 6.631-5.4228 12.0222-12.0854 12.0222h-.0058c-2.0219 0-4.0091-.5074-5.7761-1.4646l-6.39611 1.6779Zm6.70311-3.8517.365.2191c1.5411.9111 3.3081 1.3896 5.1099 1.3954h.0058c5.5328 0 10.0402-4.4802 10.0402-9.9925 0-2.6697-1.0428-5.1779-2.9373-7.0691-1.8945-1.8913-4.4205-2.92916-7.1029-2.92916-5.5328-.00577-10.0402 4.47446-10.0402 9.98676 0 1.8855.5272 3.7248 1.5353 5.3162l.2375.3806-1.0138 3.6845 3.8005-.9918Z"/>
  <path fill="#fff" fill-rule="evenodd" d="M17.0336 14.3666c-.226-.5016-.4635-.5131-.6779-.5189-.1738-.0058-.3766-.0058-.5793-.0058-.2028 0-.5273.075-.8053.3748-.2781.2998-1.0545 1.0264-1.0545 2.5082 0 1.4761 1.0834 2.9061 1.2341 3.1079.1506.2018 2.0914 3.3328 5.1562 4.5379 2.5492 1.0032 3.0706.8014 3.621.7495.5504-.0519 1.7844-.7265 2.0393-1.4299.2491-.7035.2491-1.3031.1738-1.43-.0753-.1269-.2781-.2018-.5793-.3517-.3013-.1499-1.7845-.8765-2.0626-.9802-.278-.0981-.4808-.15-.6778.1499-.2028.2998-.7821.9744-.9559 1.1762-.1738.2018-.3534.2249-.6547.075-.3013-.1499-1.2746-.4671-2.4275-1.4934-.898-.7957-1.5063-1.7817-1.6801-2.0815-.1738-.2999-.0174-.4613.1332-.6112.1333-.1327.3013-.3518.4519-.5247.1507-.173.2028-.2999.3013-.5017.0985-.2018.0521-.3748-.0232-.5247-.0753-.1441-.6662-1.6318-.9327-2.2257Z" clip-rule="evenodd"/>
  <defs>
    <linearGradient id="a" x1="19.999" x2="19.999" y1="39.998" y2="-.0013995" gradientUnits="userSpaceOnUse">
      <stop stop-color="#20B038"/>
      <stop offset="1" stop-color="#60D66A"/>
    </linearGradient>
    <linearGradient id="b" x1="20.0023" x2="20.0023" y1="31.2137" y2="7.79252" gradientUnits="userSpaceOnUse">
      <stop stop-color="#20B038"/>
      <stop offset="1" stop-color="#60D66A"/>
    </linearGradient>
    <linearGradient id="c" x1="20.0023" x2="20.0023" y1="31.6335" y2="7.37244" gradientUnits="userSpaceOnUse">
      <stop stop-color="#F9F9F9"/>
      <stop offset="1" stop-color="#fff"/>
    </linearGradient>
  </defs>
</svg>
