<svg xmlns="http://www.w3.org/2000/svg" width="40" height="40" fill="none" viewBox="0 0 40 40">
  <g clip-path="url(#a)">
    <path fill="#fff" d="m0 40 2.82712-10.2662C1.07927 26.7205.162369 23.308.17192 19.8194.17192 8.88783 9.11174 0 20.0859 0c5.3296 0 10.3343 2.06274 14.0879 5.80799C37.9369 9.55323 40.0095 14.5342 40 19.8289c0 10.9316-8.9399 19.8194-19.9236 19.8194h-.0096c-3.3333 0-6.6093-.8365-9.5224-2.4145L0 40Zm11.0506-6.3498.6017.3612c2.5406 1.5019 5.4537 2.2909 8.4241 2.3004h.0095c9.1213 0 16.5521-7.3859 16.5521-16.4734 0-4.4011-1.7192-8.5361-4.8424-11.65399-3.1232-3.11787-7.2875-4.8289-11.7097-4.8289-9.1212-.0095-16.552 7.37639-16.552 16.46389 0 3.1084.86915 6.1407 2.53104 8.7643l.3916.6273-1.67144 6.0742 6.2655-1.635Z"/>
    <path fill="#000" d="m.697144 39.306 2.731616-9.9144C1.73821 26.4923.849961 23.1939.849961 19.8288.859512 9.2775 9.48415.693848 20.0859.693848c5.148 0 9.9713 1.996202 13.6007 5.608362 3.6294 3.61217 5.6256 8.42209 5.6256 13.53609 0 10.5514-8.6342 19.135-19.2263 19.135h-.0096c-3.2187 0-6.3801-.808-9.1881-2.3289L.697144 39.306Z"/>
    <path fill="#fff" d="m0 40 2.82712-10.2662C1.07927 26.7205.162369 23.308.17192 19.8194.17192 8.88783 9.11174 0 20.0859 0c5.3296 0 10.3343 2.06274 14.0879 5.80799C37.9369 9.55323 40.0095 14.5342 40 19.8289c0 10.9316-8.9399 19.8194-19.9236 19.8194h-.0096c-3.3333 0-6.6093-.8365-9.5224-2.4145L0 40Zm11.0506-6.3498.6017.3612c2.5406 1.5019 5.4537 2.2909 8.4241 2.3004h.0095c9.1213 0 16.5521-7.3859 16.5521-16.4734 0-4.4011-1.7192-8.5361-4.8424-11.65399-3.1232-3.11787-7.2875-4.8289-11.7097-4.8289-9.1212-.0095-16.552 7.37639-16.552 16.46389 0 3.1084.86915 6.1407 2.53104 8.7643l.3916.6273-1.67144 6.0742 6.2655-1.635Z"/>
    <path fill="#fff" fill-rule="evenodd" d="M15.1097 11.5304c-.3725-.827-.7641-.846-1.1175-.8555-.2865-.0095-.6208-.0095-.9551-.0095-.3343 0-.8692.1236-1.3276.6179-.4585.4943-1.73831 1.692-1.73831 4.135 0 2.4334 1.78601 4.7908 2.03441 5.1235.2483.3327 3.4479 5.4943 8.5004 7.481 4.2025 1.654 5.0621 1.3213 5.9695 1.2358.9073-.0856 2.9417-1.1978 3.362-2.3575.4107-1.1596.4107-2.1482.2865-2.3574-.1242-.2091-.4585-.3327-.9551-.5798-.4967-.2472-2.9418-1.4449-3.4002-1.616-.4585-.1616-.7927-.2471-1.1175.2472-.3343.4943-1.2894 1.6064-1.5759 1.9391s-.5826.3708-1.0793.1236c-.4966-.2471-2.1012-.77-4.0019-2.462-1.4804-1.3118-2.4833-2.9372-2.7698-3.4315-.2865-.4943-.0287-.7605.2197-1.0076.2196-.2187.4966-.5799.745-.8651.2483-.2851.3342-.4943.4966-.827.1624-.3327.086-.6178-.0382-.865-.1242-.2376-1.0984-2.6901-1.5377-3.6692Z" clip-rule="evenodd"/>
  </g>
</svg>
