<svg xmlns="http://www.w3.org/2000/svg" width="40" height="40" fill="none" viewBox="0 0 40 40">
  <g clip-path="url(#a)">
    <path fill="#fff" d="M.00012207 40 2.82724 29.7338C1.0794 26.7205.162491 23.308.172042 19.8194.172042 8.88783 9.11186 0 20.0861 0c5.3295 0 10.3342 2.06274 14.0878 5.80799 3.7632 3.74524 5.8357 8.72621 5.8262 14.02091 0 10.9316-8.9398 19.8194-19.9236 19.8194h-.0095c-3.3334 0-6.6094-.8365-9.5225-2.4145L.00012207 40ZM11.0507 33.6502l.6018.3612c2.5405 1.5019 5.4536 2.2909 8.424 2.3004h.0096c9.1213 0 16.552-7.3859 16.552-16.4734 0-4.4011-1.7192-8.5361-4.8424-11.65399-3.1232-3.11787-7.2875-4.8289-11.7096-4.8289-9.1213-.0095-16.55207 7.37639-16.55207 16.46389 0 3.1084.86914 6.1407 2.53103 8.7643l.3916.6273-1.67144 6.0742 6.26548-1.635Z"/>
    <path fill="url(#b)" d="m.697266 39.306 2.731614-9.9144C1.73833 26.4923.850083 23.1939.850083 19.8288.859634 9.2775 9.48427.693848 20.086.693848c5.148 0 9.9713 1.996202 13.6007 5.608362 3.6295 3.61217 5.6256 8.42209 5.6256 13.53609 0 10.5514-8.6342 19.135-19.2263 19.135h-.0096c-3.2187 0-6.3801-.808-9.1881-2.3289L.697266 39.306Z"/>
    <path fill="url(#c)" d="M.00012207 40 2.82724 29.7338C1.0794 26.7205.162491 23.308.172042 19.8194.172042 8.88783 9.11186 0 20.0861 0c5.3295 0 10.3342 2.06274 14.0878 5.80799 3.7632 3.74524 5.8357 8.72621 5.8262 14.02091 0 10.9316-8.9398 19.8194-19.9236 19.8194h-.0095c-3.3334 0-6.6094-.8365-9.5225-2.4145L.00012207 40ZM11.0507 33.6502l.6018.3612c2.5405 1.5019 5.4536 2.2909 8.424 2.3004h.0096c9.1213 0 16.552-7.3859 16.552-16.4734 0-4.4011-1.7192-8.5361-4.8424-11.65399-3.1232-3.11787-7.2875-4.8289-11.7096-4.8289-9.1213-.0095-16.55207 7.37639-16.55207 16.46389 0 3.1084.86914 6.1407 2.53103 8.7643l.3916.6273-1.67144 6.0742 6.26548-1.635Z"/>
    <path fill="#fff" fill-rule="evenodd" d="M15.1098 11.5304c-.3725-.827-.7641-.846-1.1175-.8555-.2865-.0095-.6208-.0095-.9551-.0095-.3343 0-.8691.1236-1.3276.6179-.4584.4943-1.73829 1.692-1.73829 4.135 0 2.4334 1.78609 4.7908 2.03439 5.1235.2483.3327 3.4479 5.4943 8.5005 7.481 4.2024 1.654 5.062 1.3213 5.9694 1.2358.9074-.0856 2.9417-1.1978 3.362-2.3575.4107-1.1596.4107-2.1482.2865-2.3574-.1241-.2091-.4584-.3327-.9551-.5798-.4967-.2472-2.9417-1.4449-3.4002-1.616-.4584-.1616-.7927-.2471-1.1175.2472-.3342.4943-1.2894 1.6064-1.5759 1.9391s-.5826.3708-1.0793.1236c-.4966-.2471-2.1012-.77-4.0019-2.462-1.4804-1.3118-2.4833-2.9372-2.7698-3.4315-.2865-.4943-.0286-.7605.2197-1.0076.2197-.2187.4966-.5799.745-.8651.2483-.2851.3343-.4943.4966-.827.1624-.3327.086-.6178-.0382-.865-.1241-.2376-1.0984-2.6901-1.5377-3.6692Z" clip-rule="evenodd"/>
  </g>
  <defs>
    <linearGradient id="b" x1="20.0038" x2="20.0038" y1="39.3041" y2=".692497" gradientUnits="userSpaceOnUse">
      <stop stop-color="#20B038"/>
      <stop offset="1" stop-color="#60D66A"/>
    </linearGradient>
    <linearGradient id="c" x1="20.004" x2="20.004" y1="39.9962" y2="0" gradientUnits="userSpaceOnUse">
      <stop stop-color="#F9F9F9"/>
      <stop offset="1" stop-color="#fff"/>
    </linearGradient>
    <clipPath id="a">
      <path fill="#fff" d="M0 0h40v40H0z"/>
    </clipPath>
  </defs>
</svg>
