<svg xmlns="http://www.w3.org/2000/svg" width="40" height="40" fill="none" viewBox="0 0 40 40">
  <rect width="40" height="40" fill="#000" rx="20"/>
  <path fill="#fff" d="M33.6984 13.1304c-.3295-1.2239-1.2945-2.1889-2.5185-2.5184-2.236-.612-11.18-.612-11.18-.612s-8.9441 0-11.18012.5884c-1.20039.3295-2.18895 1.3181-2.51846 2.542-.58843 2.236-.58843 6.8728-.58843 6.8728s0 4.6604.58843 6.8728c.32951 1.224 1.29453 2.189 2.51846 2.5185 2.25952.612 11.18012.612 11.18012.612s8.944 0 11.18-.5885c1.224-.3295 2.189-1.2945 2.5185-2.5184.5884-2.236.5884-6.8728.5884-6.8728s.0236-4.6604-.5884-6.8964Z"/>
  <path fill="#000" d="m17.1519 24.287 7.4377-4.2838-7.4377-4.2837v8.5675Z"/>
</svg>
