<svg
  width="474"
  height="57"
  viewBox="0 0 474 57"
  fill="none"
  xmlns="http://www.w3.org/2000/svg"
>
  <g clip-path="url(#clip0_1754_4764)">
    <g clip-path="url(#clip1_1754_4764)">
      <path
        d="M6.24302 28.5809C6.24302 23.6833 7.85895 19.0318 10.8389 15.23C10.9281 12.7495 11.4162 11.0455 11.5841 10.5246C11.726 10.1063 11.8776 9.69329 12.0395 9.2854C12.8219 7.31618 13.8375 5.46443 15.0515 3.7627C14.735 3.92748 14.4222 4.09669 14.1139 4.27255C7.52759 8.02406 2.61593 14.35 0.765241 21.8715C0.265234 24.0114 0 26.2444 0 28.5403C0 30.8361 0.253347 32.9649 0.731065 35.059C1.87744 39.8258 4.25191 44.1182 7.50381 47.5867C7.77722 47.5187 8.04988 47.4493 8.3218 47.3776C10.2386 46.87 12.1131 46.2589 13.9393 45.5517C9.14722 41.6583 6.24377 35.6657 6.24377 28.5809H6.24302Z"
        fill="url(#paint0_linear_1754_4764)"
      />
      <path
        d="M54.6555 20.1641C53.0321 35.7457 42.1211 49.7428 25.8371 56.4199C26.5399 56.4725 27.1908 56.4199 27.9077 56.4199C43.3455 56.4199 55.8746 44.005 56.0009 28.6427C55.9853 25.6871 55.5151 22.8389 54.6562 20.1641H54.6555Z"
        fill="url(#paint1_linear_1754_4764)"
      />
      <path
        d="M51.7214 13.4033H51.7199C51.4175 12.9045 51.098 12.4161 50.7674 11.9373C45.6582 4.97219 37.3884 0.446289 28.0554 0.446289C26.2678 0.446289 24.5189 0.612547 22.8235 0.930283C21.1133 1.25098 19.5545 2.11847 18.3851 3.4005C18.3524 3.43671 18.3198 3.47292 18.2871 3.50912C16.183 5.85151 14.6414 8.70301 13.8695 11.8553C13.5389 13.2067 13.3494 14.6137 13.3189 16.059C13.316 16.1972 13.3137 16.3361 13.3137 16.4757C13.3137 17.5161 13.397 18.5373 13.5545 19.5334C13.5946 19.6516 13.6169 19.778 13.6169 19.9095C13.6169 19.9095 13.6169 19.9095 13.6169 19.9103C15.2484 29.0263 23.2567 35.9478 32.8913 35.9478H33.7137C33.0309 36.6912 32.3259 37.4139 31.5978 38.1114C28.1104 41.2843 24.201 43.9792 19.9669 46.0992C18.9825 46.592 17.9802 47.0531 16.9624 47.4824C15.5968 48.058 14.2023 48.5768 12.7803 49.0327C11.8063 49.3327 10.8739 49.5869 9.99646 49.7952C13.1079 52.3948 16.7945 54.3352 20.8391 55.4014C25.0085 54.115 29.0101 52.1672 32.6766 49.7199C35.6707 47.7218 38.4404 45.3905 40.8966 42.8124C42.2071 41.4373 43.4278 39.9927 44.5452 38.4905C45.1886 37.6259 45.7978 36.7437 46.3699 35.8444C47.7897 33.6505 48.9866 31.3111 49.9405 28.8076C50.0096 28.6251 50.0787 28.4426 50.1456 28.2586C50.1686 28.1958 50.1909 28.1337 50.2139 28.0709C50.2518 27.966 50.2882 27.8603 50.3254 27.7547C50.3818 27.5943 50.4353 27.434 50.4896 27.2736C50.5178 27.1894 50.546 27.1051 50.5728 27.0209C50.5988 26.9411 50.6248 26.8606 50.65 26.78C51.3989 24.4258 51.9428 21.9312 52.2667 19.2836C52.3261 18.7997 52.3789 18.3112 52.4227 17.8169C52.4465 17.4666 52.4614 17.1142 52.4658 16.7595C52.4235 15.0171 51.997 13.9309 51.7206 13.4048L51.7214 13.4033ZM39.4709 23.9041C35.8712 27.595 29.9588 27.5167 26.2656 23.7305C22.5724 19.9442 22.4966 13.8829 26.0962 10.1919C26.4469 9.83282 26.8191 9.50992 27.2092 9.22174C30.8259 6.55201 35.9678 6.94807 39.3015 10.3663C40.586 11.6831 41.4322 13.2755 41.8394 14.9469C42.6024 18.0822 41.8193 21.4975 39.4716 23.9049L39.4709 23.9041Z"
        fill="url(#paint2_linear_1754_4764)"
      />
      <path
        d="M13.3188 26.1572C13.3188 26.1572 13.3173 26.1557 13.3173 26.1543C12.6903 25.1102 11.5803 21.4207 11.2445 20.2798C11.1999 20.1675 11.1643 20.0545 11.1457 19.9414C9.75192 22.7907 9.01788 26.0826 9.01788 28.6555C9.01788 31.4472 9.5112 34.0792 10.4837 36.4778C11.4198 38.7847 12.7757 40.8219 14.5135 42.531C15.246 43.2515 16.0403 43.9032 16.8865 44.4855C17.9051 44.0007 18.5143 43.6261 18.5143 43.6261C21.5567 42.1069 24.5664 40.3298 27.2128 38.2209C21.0344 36.3721 16.0418 31.957 13.3188 26.1572Z"
        fill="url(#paint3_linear_1754_4764)"
      />
    </g>
  </g>
  <path
    d="M271.081 41.9176V15.3359H281.764C285.143 15.3359 287.765 16.2198 289.578 17.958C291.398 19.6962 292.324 21.788 292.324 24.2481C292.324 26.8701 291.352 29.0061 289.455 30.7443C287.557 32.4752 285.104 33.3222 282.065 33.3222H277.421V41.9103H271.089L271.081 41.9176ZM277.375 19.8141V28.8514H280.669C284.51 28.8514 286.03 26.7965 286.03 24.3733C286.03 21.8322 284.209 19.8141 280.707 19.8141H277.367H277.375Z"
    fill="currentColor"
  />
  <path
    d="M167.201 37.2839V41.9176H147.515V15.3359H166.399V19.9697H153.809V25.8539H165.087V30.3258H153.809V37.2912H167.201V37.2839Z"
    fill="currentColor"
  />
  <path
    d="M123.797 41.9212H117.819V14.7803H118.705C120.601 16.6358 123.391 19.2129 127.074 22.5632C130.749 25.8693 133.539 28.4096 135.361 30.1842H135.524V15.3031H141.509V42.363H140.66L123.93 26.5541H123.812V41.9212H123.797Z"
    fill="currentColor"
  />
  <path
    d="M455.902 41.9212H449.924V14.7803H450.809C452.706 16.6358 455.496 19.2129 459.178 22.5632C462.854 25.8693 465.643 28.4096 467.466 30.1842H467.629V15.3031H473.614V42.363H472.765L456.034 26.5541H455.916V41.9212H455.902Z"
    fill="currentColor"
  />
  <path
    d="M340.121 15.3359C342.998 15.3359 345.458 16.1019 347.445 17.6781C349.48 19.2101 350.493 21.3461 350.493 24.0492C350.493 27.1132 348.668 30.4645 344.901 32.1143L352.272 41.9176H345.071L337.7 31.0684V30.5013C342.108 30.0152 344.266 27.5183 344.266 24.8962C344.266 21.8322 342.193 19.8951 338.929 19.8951H335.116V41.9176H328.804V15.3359H340.113H340.121Z"
    fill="currentColor"
  />
  <path
    d="M254.645 15.3359C257.536 15.3359 260.008 16.1019 262.005 17.6781C264.049 19.2101 265.067 21.3461 265.067 24.0492C265.067 27.1132 263.233 30.4645 259.448 32.1143L266.855 41.9176H259.619L252.213 31.0684V30.5013C256.643 30.0152 258.811 27.5183 258.811 24.8962C258.811 21.8322 256.728 19.8951 253.449 19.8951H249.617V41.9176H243.276V15.3359H254.638H254.645Z"
    fill="currentColor"
  />
  <path
    d="M374.417 41.9183L372.598 37.7493H362.354L360.491 41.9183H354.496L367.165 15.0029H368.052L380.522 41.9183H374.409H374.417ZM367.454 26.3396L364.172 33.6681H370.809L367.609 26.3396H367.446H367.454Z"
    fill="currentColor"
  />
  <path
    d="M198.618 42.3979C196.598 42.3979 194.718 42.0527 192.979 41.3623C191.266 40.6463 189.757 39.649 188.453 38.3705C187.175 37.092 186.177 35.6089 185.462 33.9212C184.746 32.2079 184.388 30.3668 184.388 28.3979C184.388 26.4289 184.746 24.6006 185.462 22.913C186.177 21.1997 187.175 19.7166 188.453 18.4636C189.732 17.2107 191.228 16.239 192.941 15.5486C194.68 14.8326 196.559 14.4746 198.579 14.4746C200.727 14.4746 202.632 14.8198 204.294 15.5102C205.982 16.2006 207.452 17.1468 208.705 18.3486L204.678 22.4143C203.962 21.6472 203.093 21.0463 202.07 20.6116C201.073 20.1769 199.909 19.9595 198.579 19.9595C197.403 19.9595 196.316 20.1641 195.319 20.5732C194.347 20.9568 193.504 21.5194 192.788 22.2609C192.097 23.0025 191.547 23.8974 191.138 24.9458C190.755 25.9942 190.563 27.1449 190.563 28.3979C190.563 29.6764 190.755 30.8399 191.138 31.8883C191.547 32.9367 192.097 33.8317 192.788 34.5732C193.504 35.3148 194.347 35.8901 195.319 36.2993C196.316 36.7084 197.403 36.913 198.579 36.913C199.96 36.913 201.162 36.6956 202.185 36.2609C203.208 35.8262 204.09 35.2253 204.831 34.4582L208.897 38.5239C207.593 39.7258 206.097 40.6719 204.409 41.3623C202.747 42.0527 200.817 42.3979 198.618 42.3979Z"
    fill="currentColor"
  />
  <path
    d="M389.016 41.9176V15.7124H395.051V41.9176H389.016ZM380.522 20.4941V15.3359H403.545V20.4941H380.522Z"
    fill="currentColor"
  />
  <path
    d="M407.549 41.9176V15.3359H413.555V41.9176H407.549Z"
    fill="currentColor"
  />
  <path
    d="M81.9778 41.9212H76V14.7803H76.8856C78.7823 16.6358 81.5719 19.2129 85.2546 22.5632C88.9299 25.8693 91.7195 28.4096 93.5424 30.1842H93.7048V15.3031H99.69V42.363H98.8413L82.1107 26.5541H81.9926V41.9212H81.9778Z"
    fill="currentColor"
  />
  <path
    d="M105.807 41.9176V15.3359H111.813V41.9176H105.807Z"
    fill="currentColor"
  />
  <path
    d="M225.106 42.4463C223.06 42.4463 221.168 42.0883 219.429 41.3723C217.716 40.6563 216.208 39.6591 214.903 38.3805C213.599 37.102 212.589 35.6189 211.873 33.9312C211.157 32.218 210.799 30.3769 210.799 28.4079C210.799 26.4134 211.157 24.5723 211.873 22.8846C212.589 21.197 213.587 19.7267 214.865 18.4737C216.144 17.1951 217.639 16.2107 219.353 15.5203C221.092 14.8043 222.984 14.4463 225.029 14.4463C227.05 14.4463 228.916 14.8043 230.629 15.5203C232.368 16.2107 233.877 17.1951 235.155 18.4737C236.46 19.7267 237.47 21.2098 238.186 22.923C238.902 24.6107 239.26 26.4518 239.26 28.4463C239.26 30.4152 238.902 32.2563 238.186 33.9696C237.47 35.6573 236.472 37.1404 235.194 38.4189C233.915 39.6719 232.407 40.6563 230.668 41.3723C228.955 42.0883 227.101 42.4463 225.106 42.4463ZM225.029 36.9614C226.64 36.9614 228.047 36.6034 229.249 35.8874C230.476 35.1714 231.422 34.1741 232.087 32.8956C232.752 31.5915 233.084 30.0956 233.084 28.4079C233.084 27.1294 232.892 25.9787 232.509 24.9559C232.125 23.9075 231.576 23.0125 230.86 22.2709C230.144 21.5038 229.287 20.9285 228.29 20.5449C227.318 20.1358 226.231 19.9312 225.029 19.9312C223.418 19.9312 221.999 20.2892 220.772 21.0052C219.57 21.6956 218.637 22.6801 217.972 23.9586C217.307 25.2116 216.975 26.6947 216.975 28.4079C216.975 29.6865 217.166 30.8499 217.55 31.8983C217.934 32.9467 218.471 33.8545 219.161 34.6216C219.877 35.3632 220.734 35.9385 221.731 36.3477C222.728 36.7568 223.828 36.9614 225.029 36.9614Z"
    fill="currentColor"
  />
  <path
    d="M310.635 42.4463C308.589 42.4463 306.697 42.0883 304.958 41.3723C303.245 40.6563 301.736 39.6591 300.432 38.3805C299.128 37.102 298.118 35.6189 297.402 33.9312C296.686 32.218 296.328 30.3769 296.328 28.4079C296.328 26.4134 296.686 24.5723 297.402 22.8846C298.118 21.197 299.115 19.7267 300.394 18.4737C301.672 17.1951 303.168 16.2107 304.881 15.5203C306.62 14.8043 308.512 14.4463 310.558 14.4463C312.578 14.4463 314.445 14.8043 316.158 15.5203C317.897 16.2107 319.406 17.1951 320.684 18.4737C321.988 19.7267 322.998 21.2098 323.714 22.923C324.43 24.6107 324.788 26.4518 324.788 28.4463C324.788 30.4152 324.43 32.2563 323.714 33.9696C322.998 35.6573 322.001 37.1404 320.723 38.4189C319.444 39.6719 317.935 40.6563 316.197 41.3723C314.483 42.0883 312.629 42.4463 310.635 42.4463ZM310.558 36.9614C312.169 36.9614 313.576 36.6034 314.777 35.8874C316.005 35.1714 316.951 34.1741 317.616 32.8956C318.281 31.5915 318.613 30.0956 318.613 28.4079C318.613 27.1294 318.421 25.9787 318.038 24.9559C317.654 23.9075 317.104 23.0125 316.388 22.2709C315.672 21.5038 314.816 20.9285 313.818 20.5449C312.847 20.1358 311.76 19.9312 310.558 19.9312C308.947 19.9312 307.528 20.2892 306.301 21.0052C305.099 21.6956 304.165 22.6801 303.501 23.9586C302.836 25.2116 302.503 26.6947 302.503 28.4079C302.503 29.6865 302.695 30.8499 303.079 31.8983C303.462 32.9467 303.999 33.8545 304.69 34.6216C305.406 35.3632 306.262 35.9385 307.26 36.3477C308.257 36.7568 309.356 36.9614 310.558 36.9614Z"
    fill="currentColor"
  />
  <path
    d="M431.865 42.4463C429.82 42.4463 427.927 42.0883 426.189 41.3723C424.475 40.6563 422.967 39.6591 421.663 38.3805C420.358 37.102 419.348 35.6189 418.632 33.9312C417.916 32.218 417.558 30.3769 417.558 28.4079C417.558 26.4134 417.916 24.5723 418.632 22.8846C419.348 21.197 420.346 19.7267 421.624 18.4737C422.903 17.1951 424.399 16.2107 426.112 15.5203C427.851 14.8043 429.743 14.4463 431.789 14.4463C433.809 14.4463 435.675 14.8043 437.389 15.5203C439.127 16.2107 440.636 17.1951 441.915 18.4737C443.219 19.7267 444.229 21.2098 444.945 22.923C445.661 24.6107 446.019 26.4518 446.019 28.4463C446.019 30.4152 445.661 32.2563 444.945 33.9696C444.229 35.6573 443.232 37.1404 441.953 38.4189C440.674 39.6719 439.166 40.6563 437.427 41.3723C435.714 42.0883 433.86 42.4463 431.865 42.4463ZM431.789 36.9614C433.4 36.9614 434.806 36.6034 436.008 35.8874C437.235 35.1714 438.181 34.1741 438.846 32.8956C439.511 31.5915 439.843 30.0956 439.843 28.4079C439.843 27.1294 439.652 25.9787 439.268 24.9559C438.885 23.9075 438.335 23.0125 437.619 22.2709C436.903 21.5038 436.046 20.9285 435.049 20.5449C434.077 20.1358 432.99 19.9312 431.789 19.9312C430.178 19.9312 428.758 20.2892 427.531 21.0052C426.329 21.6956 425.396 22.6801 424.731 23.9586C424.066 25.2116 423.734 26.6947 423.734 28.4079C423.734 29.6865 423.926 30.8499 424.309 31.8983C424.693 32.9467 425.23 33.8545 425.92 34.6216C426.636 35.3632 427.493 35.9385 428.49 36.3477C429.487 36.7568 430.587 36.9614 431.789 36.9614Z"
    fill="currentColor"
  />
  <defs>
    <linearGradient
      id="paint0_linear_1754_4764"
      x1="24.935"
      y1="78.3338"
      x2="15.8177"
      y2="-29.6034"
      gradientUnits="userSpaceOnUse"
    >
      <stop stop-color="#7747E2" />
      <stop offset="0.713542" stop-color="#7CA5EF" />
    </linearGradient>
    <linearGradient
      id="paint1_linear_1754_4764"
      x1="25.8371"
      y1="74.7216"
      x2="63.3915"
      y2="0.501122"
      gradientUnits="userSpaceOnUse"
    >
      <stop stop-color="#7747E2" />
      <stop offset="1" stop-color="#7CA5EF" />
    </linearGradient>
    <linearGradient
      id="paint2_linear_1754_4764"
      x1="9.99646"
      y1="73.1481"
      x2="35.0851"
      y2="-6.53802"
      gradientUnits="userSpaceOnUse"
    >
      <stop offset="0.0252051" stop-color="#7747E2" />
      <stop offset="1" stop-color="#7CA5EF" />
    </linearGradient>
    <linearGradient
      id="paint3_linear_1754_4764"
      x1="25.0726"
      y1="67.5823"
      x2="15.5007"
      y2="8.3511"
      gradientUnits="userSpaceOnUse"
    >
      <stop stop-color="#6F47E2" />
      <stop offset="1" stop-color="#7CA5EF" />
    </linearGradient>
    <clipPath id="clip0_1754_4764">
      <rect
        width="56"
        height="56"
        fill="white"
        transform="translate(0 0.446289)"
      />
    </clipPath>
    <clipPath id="clip1_1754_4764">
      <rect
        width="56"
        height="56"
        fill="white"
        transform="translate(0 0.446289)"
      />
    </clipPath>
  </defs>
</svg>
