<svg width="474" height="57" viewBox="0 0 474 57" fill="none" xmlns="http://www.w3.org/2000/svg">
<path fill-rule="evenodd" clip-rule="evenodd" d="M51.7199 13.6523H51.7214L51.7206 13.6538C51.997 14.1799 52.4235 15.2661 52.4658 17.0085C52.4613 17.3632 52.4465 17.7157 52.4227 18.0659C52.3789 18.5603 52.3261 19.0487 52.2667 19.5327C51.9428 22.1802 51.3989 24.6748 50.65 27.029C50.6248 27.1096 50.5988 27.1901 50.5728 27.2699C50.546 27.3542 50.5178 27.4384 50.4895 27.5226L50.457 27.619C50.4138 27.7472 50.3705 27.8754 50.3254 28.0037L50.2922 28.0984C50.2663 28.1724 50.2405 28.2464 50.2139 28.3199C50.1909 28.3828 50.1686 28.4448 50.1456 28.5076C50.0788 28.6914 50.0098 28.8736 49.9408 29.0559L49.9405 29.0566C48.9866 31.5601 47.7897 33.8995 46.3699 36.0934C45.7978 36.9927 45.1886 37.875 44.5452 38.7395C43.4278 40.2417 42.2071 41.6863 40.8966 43.0614C38.4404 45.6396 35.6706 47.9709 32.6765 49.9689C29.0101 52.4162 25.0085 54.364 20.8391 55.6505C16.7944 54.5842 13.1079 52.6438 9.99644 50.0443C10.8739 49.8359 11.8063 49.5817 12.7803 49.2817C14.2023 48.8258 15.5968 48.3071 16.9624 47.7314C17.9802 47.3021 18.9824 46.841 19.9669 46.3482C24.2009 44.2282 28.1103 41.5334 31.5978 38.3604C32.3259 37.6629 33.0309 36.9402 33.7137 36.1969H32.8912C23.2566 36.1969 15.2484 29.2754 13.6168 20.1593V20.1585C13.6168 20.027 13.5946 19.9007 13.5544 19.7824C13.3969 18.7864 13.3137 17.7652 13.3137 16.7248C13.3137 16.5851 13.3159 16.4462 13.3189 16.308C13.3494 14.8627 13.5388 13.4558 13.8694 12.1043C14.6414 8.95204 16.183 6.10053 18.287 3.75815L18.3851 3.64953C19.5545 2.36749 21.1132 1.5 22.8235 1.17931C24.5189 0.86157 26.2678 0.695312 28.0554 0.695312C37.3883 0.695312 45.6581 5.22121 50.7674 12.1863C51.098 12.6651 51.4175 13.1536 51.7199 13.6523ZM26.2656 23.9795C29.9588 27.7657 35.8712 27.8441 39.4708 24.1532L39.4716 24.1539C41.8193 21.7465 42.6024 18.3312 41.8394 15.1959C41.4322 13.5245 40.586 11.9321 39.3014 10.6154C35.9678 7.19709 30.8258 6.80103 27.2091 9.47076C26.8191 9.75894 26.4469 10.0818 26.0962 10.441C22.4966 14.1319 22.5724 20.1933 26.2656 23.9795ZM6.24302 28.8299C6.24302 23.9323 7.85895 19.2808 10.8389 15.479C10.9281 12.9984 11.4162 11.2945 11.5841 10.7735C11.726 10.3553 11.8776 9.94225 12.0395 9.53436C12.8219 7.56513 13.8375 5.71339 15.0515 4.01165C14.735 4.17643 14.4222 4.34565 14.1139 4.52151C7.52759 8.27302 2.61593 14.5989 0.765241 22.1204C0.265234 24.2604 0 26.4934 0 28.7892C0 31.085 0.253347 33.2139 0.731065 35.308C1.87744 40.0748 4.25191 44.3672 7.50381 47.8357C7.77722 47.7677 8.04988 47.6982 8.3218 47.6266C10.2386 47.1189 12.1131 46.5078 13.9393 45.8007C9.14722 41.9073 6.24377 35.9146 6.24377 28.8299H6.24302ZM54.6554 20.4134C53.0321 35.995 42.1211 49.9922 25.8371 56.6693C26.3027 56.7041 26.7454 56.6928 27.1997 56.6812C27.4312 56.6753 27.6657 56.6693 27.9077 56.6693C43.3455 56.6693 55.8746 44.2544 56.0009 28.892C55.9853 25.9364 55.515 23.0883 54.6562 20.4134H54.6554ZM13.3188 26.4061C13.3188 26.4061 13.3174 26.4047 13.3174 26.4032C12.6903 25.3591 11.5803 21.6696 11.2445 20.5287C11.1999 20.4164 11.1643 20.3034 11.1457 20.1903C9.75193 23.0396 9.0179 26.3315 9.0179 28.9044C9.0179 31.6961 9.51122 34.3281 10.4837 36.7267C11.4199 39.0336 12.7757 41.0708 14.5135 42.7799C15.2461 43.5004 16.0403 44.1521 16.8865 44.7344C17.9051 44.2496 18.5143 43.875 18.5143 43.875C21.5567 42.3558 24.5664 40.5787 27.2128 38.4698C21.0344 36.621 16.0418 32.2059 13.3188 26.4061ZM271.081 15.5852V42.1669L271.089 42.1595H277.422V33.5715H282.065C285.104 33.5715 287.557 32.7244 289.455 30.9936C291.352 29.2553 292.324 27.1194 292.324 24.4973C292.324 22.0373 291.399 19.9455 289.578 18.2072C287.765 16.469 285.143 15.5852 281.764 15.5852H271.081ZM277.375 29.1007V20.0633H280.708C284.209 20.0633 286.03 22.0814 286.03 24.6225C286.03 27.0457 284.51 29.1007 280.669 29.1007H277.375ZM167.201 37.5404V42.1669H147.515V15.5852H166.398V20.2189H153.809V26.1031H165.087V30.5751H153.809V37.5404H167.201ZM117.819 42.1704H123.797H123.811V26.8033H123.93L140.66 42.6122H141.509V15.5523H135.524V30.4334H135.361C133.538 28.6589 130.749 26.1185 127.073 22.8124C123.391 19.4622 120.601 16.885 118.704 15.0295H117.819V42.1704ZM455.902 42.1704H449.924V15.0295H450.809C452.706 16.885 455.496 19.4622 459.178 22.8124C462.854 26.1185 465.643 28.6589 467.466 30.4334H467.629V15.5523H473.614V42.6122H472.765L456.034 26.8033H455.916V42.1704H455.902ZM347.446 17.9274C345.458 16.3512 342.998 15.5852 340.121 15.5852H340.113H328.805V42.1669H335.116V20.1443H338.93C342.194 20.1443 344.267 22.0814 344.267 25.1454C344.267 27.7675 342.109 30.2644 337.7 30.7505V31.3176L345.071 42.1669H352.272L344.901 32.3635C348.668 30.7137 350.493 27.3624 350.493 24.2984C350.493 21.5953 349.48 19.4594 347.446 17.9274ZM254.646 15.5852C257.537 15.5852 260.008 16.3512 262.005 17.9274C264.049 19.4594 265.067 21.5953 265.067 24.2984C265.067 27.3624 263.233 30.7137 259.448 32.3635L266.855 42.1669H259.619L252.213 31.3176V30.7505C256.643 30.2644 258.811 27.7675 258.811 25.1454C258.811 22.0814 256.728 20.1443 253.449 20.1443H249.617V42.1669H243.276V15.5852H254.638H254.646ZM372.598 37.9986L374.417 42.1675H380.522L368.053 15.2522H367.166L354.497 42.1675H360.491L362.354 37.9986H372.598ZM364.172 33.9174L367.454 26.5888H367.609L370.81 33.9174H364.172ZM198.618 42.6471C196.598 42.6471 194.718 42.3019 192.979 41.6115C191.266 40.8955 189.758 39.8983 188.453 38.6197C187.175 37.3412 186.178 35.8581 185.462 34.1704C184.746 32.4572 184.388 30.6161 184.388 28.6471C184.388 26.6782 184.746 24.8499 185.462 23.1622C186.178 21.449 187.175 19.9658 188.453 18.7129C189.732 17.4599 191.228 16.4882 192.941 15.7978C194.68 15.0818 196.559 14.7238 198.579 14.7238C200.727 14.7238 202.632 15.069 204.295 15.7595C205.982 16.4499 207.452 17.396 208.705 18.5978L204.678 22.6636C203.962 21.8964 203.093 21.2955 202.07 20.8608C201.073 20.4261 199.909 20.2088 198.579 20.2088C197.403 20.2088 196.316 20.4133 195.319 20.8225C194.347 21.206 193.504 21.7686 192.788 22.5101C192.097 23.2517 191.547 24.1467 191.138 25.1951C190.755 26.2435 190.563 27.3942 190.563 28.6471C190.563 29.9257 190.755 31.0891 191.138 32.1375C191.547 33.1859 192.097 34.0809 192.788 34.8225C193.504 35.564 194.347 36.1394 195.319 36.5485C196.316 36.9576 197.403 37.1622 198.579 37.1622C199.96 37.1622 201.162 36.9448 202.185 36.5101C203.208 36.0754 204.09 35.4745 204.831 34.7074L208.897 38.7732C207.593 39.975 206.097 40.9211 204.41 41.6115C202.747 42.3019 200.817 42.6471 198.618 42.6471ZM389.016 20.7434V42.1669H395.05V20.7434H403.545V15.5852H380.522V20.7434H389.016ZM407.549 42.1669V15.5852H413.555V42.1669H407.549ZM76 42.1704H81.9778H81.9926V26.8033H82.1107L98.8412 42.6122H99.6899V15.5523H93.7047V30.4334H93.5424C91.7195 28.6589 88.9298 26.1185 85.2545 22.8124C81.5719 19.4622 78.7822 16.885 76.8856 15.0295H76V42.1704ZM105.807 42.1668V15.5851H111.813V42.1668H105.807ZM219.429 41.6216C221.168 42.3375 223.06 42.6955 225.106 42.6955C227.101 42.6955 228.955 42.3375 230.668 41.6216C232.407 40.9056 233.915 39.9211 235.194 38.6681C236.472 37.3896 237.47 35.9065 238.186 34.2188C238.902 32.5056 239.26 30.6645 239.26 28.6955C239.26 26.701 238.902 24.8599 238.186 23.1722C237.47 21.459 236.46 19.9759 235.155 18.7229C233.877 17.4444 232.368 16.4599 230.629 15.7695C228.916 15.0535 227.05 14.6955 225.029 14.6955C222.984 14.6955 221.092 15.0535 219.353 15.7695C217.639 16.4599 216.144 17.4444 214.865 18.7229C213.586 19.9759 212.589 21.4462 211.873 23.1339C211.157 24.8215 210.799 26.6626 210.799 28.6572C210.799 30.6261 211.157 32.4672 211.873 34.1805C212.589 35.8681 213.599 37.3512 214.903 38.6298C216.207 39.9083 217.716 40.9056 219.429 41.6216ZM229.249 36.1366C228.047 36.8526 226.64 37.2106 225.029 37.2106C223.828 37.2106 222.728 37.006 221.731 36.5969C220.734 36.1878 219.877 35.6124 219.161 34.8709C218.471 34.1037 217.934 33.196 217.55 32.1476C217.166 31.0992 216.975 29.9357 216.975 28.6572C216.975 26.9439 217.307 25.4608 217.972 24.2079C218.637 22.9293 219.57 21.9448 220.772 21.2544C221.999 20.5384 223.418 20.1805 225.029 20.1805C226.231 20.1805 227.318 20.385 228.29 20.7942C229.287 21.1777 230.144 21.7531 230.86 22.5202C231.576 23.2617 232.125 24.1567 232.509 25.2051C232.892 26.2279 233.084 27.3786 233.084 28.6572C233.084 30.3448 232.752 31.8407 232.087 33.1448C231.422 34.4234 230.476 35.4206 229.249 36.1366ZM310.635 42.6955C308.589 42.6955 306.697 42.3375 304.958 41.6216C303.245 40.9056 301.736 39.9083 300.432 38.6298C299.128 37.3512 298.118 35.8681 297.402 34.1805C296.686 32.4672 296.328 30.6261 296.328 28.6572C296.328 26.6626 296.686 24.8215 297.402 23.1339C298.118 21.4462 299.115 19.9759 300.394 18.7229C301.672 17.4444 303.168 16.4599 304.882 15.7695C306.62 15.0535 308.513 14.6955 310.558 14.6955C312.578 14.6955 314.445 15.0535 316.158 15.7695C317.897 16.4599 319.406 17.4444 320.684 18.7229C321.988 19.9759 322.998 21.459 323.714 23.1722C324.43 24.8599 324.788 26.701 324.788 28.6955C324.788 30.6645 324.43 32.5056 323.714 34.2188C322.998 35.9065 322.001 37.3896 320.723 38.6681C319.444 39.9211 317.935 40.9056 316.197 41.6216C314.483 42.3375 312.629 42.6955 310.635 42.6955ZM310.558 37.2106C312.169 37.2106 313.576 36.8526 314.777 36.1366C316.005 35.4206 316.951 34.4234 317.616 33.1448C318.281 31.8407 318.613 30.3448 318.613 28.6572C318.613 27.3786 318.421 26.2279 318.038 25.2051C317.654 24.1567 317.104 23.2617 316.388 22.5202C315.672 21.7531 314.816 21.1777 313.818 20.7942C312.847 20.385 311.76 20.1805 310.558 20.1805C308.947 20.1805 307.528 20.5384 306.301 21.2544C305.099 21.9448 304.166 22.9293 303.501 24.2079C302.836 25.4608 302.503 26.9439 302.503 28.6572C302.503 29.9357 302.695 31.0992 303.079 32.1476C303.462 33.196 303.999 34.1037 304.69 34.8709C305.406 35.6124 306.262 36.1878 307.26 36.5969C308.257 37.006 309.356 37.2106 310.558 37.2106ZM426.189 41.6216C427.928 42.3375 429.82 42.6955 431.865 42.6955C433.86 42.6955 435.714 42.3375 437.427 41.6216C439.166 40.9056 440.675 39.9211 441.953 38.6681C443.232 37.3896 444.229 35.9065 444.945 34.2188C445.661 32.5056 446.019 30.6645 446.019 28.6955C446.019 26.701 445.661 24.8599 444.945 23.1722C444.229 21.459 443.219 19.9759 441.915 18.7229C440.636 17.4444 439.128 16.4599 437.389 15.7695C435.675 15.0535 433.809 14.6955 431.789 14.6955C429.743 14.6955 427.851 15.0535 426.112 15.7695C424.399 16.4599 422.903 17.4444 421.624 18.7229C420.346 19.9759 419.348 21.4462 418.633 23.1339C417.917 24.8215 417.559 26.6626 417.559 28.6572C417.559 30.6261 417.917 32.4672 418.633 34.1805C419.348 35.8681 420.359 37.3512 421.663 38.6298C422.967 39.9083 424.475 40.9056 426.189 41.6216ZM436.008 36.1366C434.806 36.8526 433.4 37.2106 431.789 37.2106C430.587 37.2106 429.487 37.006 428.49 36.5969C427.493 36.1878 426.636 35.6124 425.92 34.8709C425.23 34.1037 424.693 33.196 424.309 32.1476C423.926 31.0992 423.734 29.9357 423.734 28.6572C423.734 26.9439 424.066 25.4608 424.731 24.2079C425.396 22.9293 426.329 21.9448 427.531 21.2544C428.759 20.5384 430.178 20.1805 431.789 20.1805C432.991 20.1805 434.077 20.385 435.049 20.7942C436.046 21.1777 436.903 21.7531 437.619 22.5202C438.335 23.2617 438.885 24.1567 439.268 25.2051C439.652 26.2279 439.843 27.3786 439.843 28.6572C439.843 30.3448 439.511 31.8407 438.846 33.1448C438.181 34.4234 437.235 35.4206 436.008 36.1366Z" fill="black"/>
</svg>
