<svg width="285" height="162" viewBox="0 0 285 162" fill="none" xmlns="http://www.w3.org/2000/svg">
<path fill-rule="evenodd" clip-rule="evenodd" d="M190.801 24.8189C191.509 25.8449 192.194 26.8915 192.842 27.9603H192.845L192.843 27.9635C193.435 29.0909 194.349 31.4185 194.44 35.1522C194.43 35.9122 194.399 36.6675 194.348 37.418C194.254 38.4773 194.141 39.5239 194.013 40.5611C193.319 46.2344 192.154 51.58 190.549 56.6247C190.495 56.7973 190.439 56.9699 190.383 57.1409C190.326 57.3214 190.266 57.5019 190.205 57.6824L190.135 57.8895L190.135 57.8898L190.135 57.89L190.135 57.8903L190.135 57.8905C190.042 58.1648 189.95 58.439 189.853 58.7132L189.782 58.9168C189.727 59.0752 189.671 59.2335 189.615 59.3909C189.59 59.4582 189.566 59.5251 189.541 59.592L189.5 59.7044L189.468 59.7931C189.325 60.1874 189.177 60.5785 189.029 60.9696C186.984 66.3342 184.42 71.3472 181.377 76.0484C180.151 77.9754 178.846 79.866 177.467 81.7185C175.073 84.9376 172.457 88.0332 169.649 90.9799C164.385 96.5044 158.45 101.5 152.034 105.782C144.178 111.026 135.603 115.2 126.668 117.956C118.001 115.672 110.102 111.513 103.434 105.943C105.314 105.497 107.312 104.952 109.4 104.309C112.447 103.332 115.435 102.22 118.361 100.987C120.542 100.067 122.69 99.079 124.799 98.0229C133.872 93.4801 142.25 87.7054 149.723 80.9063C151.283 79.4115 152.794 77.863 154.257 76.2701H152.495C131.849 76.2701 114.688 61.4383 111.192 41.9038V41.9022C111.192 41.6204 111.144 41.3496 111.059 41.0963C110.721 38.9618 110.543 36.7736 110.543 34.5441C110.543 34.2449 110.547 33.9472 110.554 33.6511C110.619 30.554 111.025 27.5391 111.734 24.6431C113.388 17.8883 116.691 11.7779 121.2 6.75853L121.41 6.52577C123.916 3.77856 127.256 1.91964 130.921 1.23244C134.554 0.551579 138.301 0.195312 142.132 0.195312C162.131 0.195312 179.852 9.89367 190.801 24.8189ZM138.297 50.09C146.211 58.2034 158.88 58.3712 166.594 50.4621L166.595 50.4637C171.626 45.305 173.304 37.9865 171.669 31.2681C170.797 27.6864 168.983 24.2742 166.231 21.4525C159.087 14.1277 148.069 13.279 140.319 18.9998C139.483 19.6174 138.685 20.3093 137.934 21.0789C130.22 28.988 130.383 41.9766 138.297 50.09ZM95.3912 60.4836C95.3912 49.9888 98.8539 40.0213 105.24 31.8746C105.431 26.5591 106.477 22.9078 106.836 21.7915C107.14 20.8953 107.465 20.0102 107.812 19.1361C109.489 14.9164 111.665 10.9483 114.266 7.30175C113.588 7.65485 112.918 8.01745 112.257 8.3943C98.1438 16.4333 87.6189 29.9888 83.6531 46.1063C82.5816 50.6918 82.0133 55.4769 82.0133 60.3965C82.0133 65.3162 82.5562 69.878 83.5799 74.3653C86.0364 84.5799 91.1245 93.7779 98.0929 101.21C98.6788 101.065 99.263 100.916 99.8457 100.762C103.953 99.6745 107.97 98.365 111.883 96.8497C101.614 88.5067 95.3928 75.6653 95.3928 60.4836H95.3912ZM199.132 42.4484C195.653 75.8376 172.273 105.831 137.378 120.14C138.376 120.214 139.325 120.19 140.298 120.165L140.299 120.165C140.795 120.152 141.297 120.14 141.815 120.14C174.896 120.14 201.745 93.5361 202.015 60.6168C201.982 54.2834 200.974 48.1802 199.134 42.4484H199.132ZM110.554 55.2899C110.554 55.2899 110.55 55.2868 110.55 55.2836C109.207 53.0463 106.828 45.1403 106.109 42.6955C106.013 42.4549 105.937 42.2126 105.897 41.9703C102.91 48.0759 101.337 55.13 101.337 60.6434C101.337 66.6255 102.394 72.2656 104.478 77.4054C106.484 82.3488 109.39 86.7142 113.114 90.3766C114.683 91.9204 116.385 93.317 118.199 94.5647C120.381 93.526 121.687 92.7232 121.687 92.7232C128.206 89.4678 134.656 85.6597 140.326 81.1406C127.087 77.1789 116.388 67.7181 110.554 55.2899ZM139.352 141.832V160.818L139.358 160.813H143.881V154.679H147.198C149.369 154.679 151.121 154.074 152.476 152.838C153.831 151.596 154.526 150.07 154.526 148.197C154.526 146.44 153.865 144.946 152.564 143.704C151.269 142.463 149.396 141.832 146.983 141.832H139.352ZM143.848 151.485V145.03H146.228C148.73 145.03 150.03 146.472 150.03 148.287C150.03 150.018 148.944 151.485 146.201 151.485H143.848ZM65.1523 157.514V160.818H51.0908V141.832H64.5792V145.141H55.587V149.344H63.6425V152.539H55.587V157.514H65.1523ZM29.8794 160.82H34.1493H34.1598V149.844H34.2442L46.1946 161.136H46.8008V141.808H42.5256V152.437H42.4097C41.1076 151.169 39.115 149.355 36.4898 146.993C33.8593 144.6 31.8667 142.759 30.512 141.434H29.8794V160.82ZM271.367 160.82H267.097V141.434H267.729C269.084 142.759 271.077 144.6 273.707 146.993C276.332 149.355 278.325 151.169 279.627 152.437H279.743V141.808H284.018V161.136H283.412L271.461 149.844H271.377V160.82H271.367ZM193.898 143.505C192.478 142.379 190.721 141.832 188.666 141.832H188.66H180.583V160.818H185.091V145.088H187.815C190.147 145.088 191.627 146.472 191.627 148.66C191.627 150.533 190.086 152.317 186.937 152.664V153.069L192.202 160.818H197.346L192.08 153.816C194.771 152.638 196.075 150.244 196.075 148.055C196.075 146.125 195.351 144.599 193.898 143.505ZM127.612 141.832C129.677 141.832 131.443 142.379 132.869 143.505C134.329 144.599 135.056 146.125 135.056 148.055C135.056 150.244 133.746 152.638 131.043 153.816L136.333 160.818H131.165L125.875 153.069V152.664C129.039 152.317 130.588 150.533 130.588 148.66C130.588 146.472 129.1 145.088 126.758 145.088H124.021V160.818H119.491V141.832H127.607H127.612ZM211.864 157.841L213.163 160.819H217.524L208.617 141.593H207.984L198.935 160.819H203.216L204.547 157.841H211.864ZM205.846 154.926L208.19 149.691H208.301L210.587 154.926H205.846ZM87.5926 161.161C86.1497 161.161 84.8072 160.914 83.5652 160.421C82.3415 159.909 81.2638 159.197 80.3323 158.284C79.4191 157.371 78.7068 156.311 78.1953 155.106C77.6839 153.882 77.4282 152.567 77.4282 151.161C77.4282 149.754 77.6839 148.448 78.1953 147.243C78.7068 146.019 79.4191 144.96 80.3323 144.065C81.2456 143.17 82.3141 142.476 83.5378 141.982C84.7798 141.471 86.1223 141.215 87.5652 141.215C89.0994 141.215 90.4602 141.462 91.6474 141.955C92.8529 142.448 93.9031 143.124 94.7981 143.982L91.9214 146.887C91.4099 146.339 90.7889 145.909 90.0584 145.599C89.346 145.288 88.515 145.133 87.5652 145.133C86.725 145.133 85.9488 145.279 85.2364 145.571C84.5424 145.845 83.9396 146.247 83.4282 146.777C82.9351 147.307 82.5424 147.946 82.2501 148.695C81.9762 149.444 81.8392 150.266 81.8392 151.161C81.8392 152.074 81.9762 152.905 82.2501 153.654C82.5424 154.403 82.9351 155.042 83.4282 155.571C83.9396 156.101 84.5424 156.512 85.2364 156.804C85.9488 157.097 86.725 157.243 87.5652 157.243C88.5515 157.243 89.41 157.087 90.1405 156.777C90.8711 156.466 91.5013 156.037 92.0309 155.489L94.9351 158.393C94.0036 159.252 92.9351 159.928 91.7296 160.421C90.5424 160.914 89.1634 161.161 87.5926 161.161ZM223.591 145.516V160.818H227.901V145.516H233.969V141.832H217.524V145.516H223.591ZM236.829 160.818V141.832H241.119V160.818H236.829ZM0.00878906 160.82H4.27867H4.28922V149.844H4.37357L16.324 161.136H16.9302V141.808H12.655V152.437H12.5391C11.237 151.169 9.24439 149.355 6.6192 146.993C3.98874 144.6 1.99613 142.759 0.641363 141.434H0.00878906V160.82ZM21.2993 160.818V141.831H25.5892V160.818H21.2993ZM102.458 160.429C103.7 160.94 105.052 161.196 106.513 161.196C107.938 161.196 109.262 160.94 110.486 160.429C111.728 159.917 112.805 159.214 113.719 158.319C114.632 157.406 115.344 156.346 115.856 155.141C116.367 153.917 116.623 152.602 116.623 151.196C116.623 149.771 116.367 148.456 115.856 147.251C115.344 146.027 114.623 144.967 113.691 144.073C112.778 143.159 111.7 142.456 110.458 141.963C109.235 141.452 107.901 141.196 106.458 141.196C104.997 141.196 103.646 141.452 102.404 141.963C101.18 142.456 100.111 143.159 99.1981 144.073C98.2848 144.967 97.5725 146.018 97.0611 147.223C96.5496 148.429 96.2939 149.744 96.2939 151.168C96.2939 152.575 96.5496 153.89 97.0611 155.114C97.5725 156.319 98.2939 157.378 99.2254 158.292C100.157 159.205 101.235 159.917 102.458 160.429ZM109.472 156.511C108.614 157.022 107.609 157.278 106.458 157.278C105.6 157.278 104.814 157.132 104.102 156.84C103.39 156.547 102.778 156.136 102.267 155.607C101.773 155.059 101.39 154.41 101.116 153.662C100.842 152.913 100.705 152.082 100.705 151.168C100.705 149.945 100.942 148.885 101.417 147.99C101.892 147.077 102.559 146.374 103.417 145.881C104.294 145.369 105.308 145.114 106.458 145.114C107.317 145.114 108.093 145.26 108.787 145.552C109.499 145.826 110.111 146.237 110.623 146.785C111.134 147.315 111.527 147.954 111.801 148.703C112.075 149.433 112.212 150.255 112.212 151.168C112.212 152.374 111.974 153.442 111.499 154.374C111.025 155.287 110.349 155.999 109.472 156.511ZM167.605 161.196C166.144 161.196 164.792 160.94 163.55 160.429C162.326 159.917 161.249 159.205 160.317 158.292C159.386 157.378 158.664 156.319 158.153 155.114C157.641 153.89 157.386 152.575 157.386 151.168C157.386 149.744 157.641 148.429 158.153 147.223C158.664 146.018 159.377 144.967 160.29 144.073C161.203 143.159 162.272 142.456 163.495 141.963C164.737 141.452 166.089 141.196 167.55 141.196C168.993 141.196 170.326 141.452 171.55 141.963C172.792 142.456 173.87 143.159 174.783 144.073C175.714 144.967 176.436 146.027 176.947 147.251C177.459 148.456 177.714 149.771 177.714 151.196C177.714 152.602 177.459 153.917 176.947 155.141C176.436 156.346 175.724 157.406 174.81 158.319C173.897 159.214 172.82 159.917 171.577 160.429C170.354 160.94 169.03 161.196 167.605 161.196ZM167.55 157.278C168.701 157.278 169.705 157.022 170.564 156.511C171.441 155.999 172.116 155.287 172.591 154.374C173.066 153.442 173.304 152.374 173.304 151.168C173.304 150.255 173.167 149.433 172.893 148.703C172.619 147.954 172.226 147.315 171.714 146.785C171.203 146.237 170.591 145.826 169.879 145.552C169.185 145.26 168.409 145.114 167.55 145.114C166.399 145.114 165.386 145.369 164.509 145.881C163.651 146.374 162.984 147.077 162.509 147.99C162.034 148.885 161.797 149.945 161.797 151.168C161.797 152.082 161.934 152.913 162.208 153.662C162.482 154.41 162.865 155.059 163.358 155.607C163.87 156.136 164.482 156.547 165.194 156.84C165.906 157.132 166.692 157.278 167.55 157.278ZM250.143 160.429C251.385 160.94 252.736 161.196 254.198 161.196C255.622 161.196 256.947 160.94 258.17 160.429C259.412 159.917 260.49 159.214 261.403 158.319C262.316 157.406 263.029 156.346 263.54 155.141C264.052 153.917 264.307 152.602 264.307 151.196C264.307 149.771 264.052 148.456 263.54 147.251C263.029 146.027 262.307 144.967 261.376 144.073C260.463 143.159 259.385 142.456 258.143 141.963C256.919 141.452 255.586 141.196 254.143 141.196C252.682 141.196 251.33 141.452 250.088 141.963C248.864 142.456 247.796 143.159 246.883 144.073C245.969 144.967 245.257 146.018 244.746 147.223C244.234 148.429 243.979 149.744 243.979 151.168C243.979 152.575 244.234 153.89 244.746 155.114C245.257 156.319 245.979 157.378 246.91 158.292C247.842 159.205 248.919 159.917 250.143 160.429ZM257.157 156.511C256.298 157.022 255.294 157.278 254.143 157.278C253.284 157.278 252.499 157.132 251.787 156.84C251.074 156.547 250.463 156.136 249.951 155.607C249.458 155.059 249.074 154.41 248.8 153.662C248.526 152.913 248.389 152.082 248.389 151.168C248.389 149.945 248.627 148.885 249.102 147.99C249.577 147.077 250.243 146.374 251.102 145.881C251.979 145.369 252.992 145.114 254.143 145.114C255.001 145.114 255.778 145.26 256.472 145.552C257.184 145.826 257.796 146.237 258.307 146.785C258.819 147.315 259.211 147.954 259.485 148.703C259.759 149.433 259.896 150.255 259.896 151.168C259.896 152.374 259.659 153.442 259.184 154.374C258.709 155.287 258.033 155.999 257.157 156.511Z" fill="black"/>
</svg>
