<svg width="476" height="121" viewBox="0 0 476 121" fill="none" xmlns="http://www.w3.org/2000/svg">
<path fill-rule="evenodd" clip-rule="evenodd" d="M111.493 28.4603H111.497L111.495 28.4635C112.087 29.5909 113.001 31.9185 113.092 35.6522C113.082 36.4122 113.05 37.1675 112.999 37.918C112.905 38.9773 112.792 40.0239 112.665 41.0611C111.971 46.7344 110.806 52.08 109.201 57.1247C109.147 57.2973 109.091 57.4699 109.035 57.6409C108.978 57.8214 108.917 58.0019 108.857 58.1824L108.787 58.3889C108.695 58.6637 108.602 58.9385 108.505 59.2132L108.434 59.4164L108.434 59.4167C108.378 59.5752 108.323 59.7335 108.266 59.8909C108.242 59.9563 108.219 60.0212 108.195 60.0862L108.193 60.092L108.191 60.0969L108.162 60.1774L108.12 60.2931C107.977 60.6868 107.829 61.0773 107.681 61.4678L107.68 61.4696C105.636 66.8342 103.071 71.8472 100.029 76.5484C98.8032 78.4754 97.4977 80.366 96.119 82.2185C93.7246 85.4376 91.1089 88.5332 88.3005 91.4799C83.0372 97.0044 77.1021 102 70.6862 106.282C62.8295 111.526 54.2547 115.7 45.3202 118.456C36.6531 116.172 28.7534 112.013 22.086 106.443C23.9662 105.997 25.9642 105.452 28.0514 104.809C31.0985 103.832 34.0868 102.72 37.0129 101.487C39.194 100.567 41.3417 99.579 43.4512 98.5229C52.5242 93.9801 60.9015 88.2054 68.3745 81.4063C69.9347 79.9115 71.4456 78.363 72.9087 76.7701H71.1463C50.5007 76.7701 33.3401 61.9383 29.844 42.4038V42.4022C29.844 42.1204 29.7962 41.8496 29.7103 41.5963C29.3727 39.4618 29.1944 37.2736 29.1944 35.0441C29.1944 34.7449 29.1992 34.4472 29.2056 34.1511C29.2709 31.054 29.6768 28.0391 30.3853 25.1431C32.0394 18.3883 35.3429 12.2779 39.8516 7.25853L40.0617 7.02577C42.5676 4.27856 45.9077 2.41964 49.5725 1.73244C53.2056 1.05158 56.9532 0.695312 60.7837 0.695312C80.7829 0.695312 98.5039 10.3937 109.452 25.3189C110.161 26.3449 110.845 27.3915 111.493 28.4603ZM56.9485 50.59C64.8625 58.7034 77.532 58.8712 85.2454 50.9621L85.247 50.9637C90.2778 45.805 91.9558 38.4865 90.3208 31.7681C89.4484 28.1864 87.635 24.7742 84.8824 21.9525C77.7389 14.6277 66.7204 13.779 58.9704 19.4998C58.1345 20.1174 57.3369 20.8093 56.5855 21.5789C48.872 29.488 49.0344 42.4766 56.9485 50.59ZM14.043 60.9836C14.043 50.4888 17.5056 40.5213 23.8913 32.3746C24.0824 27.0591 25.1283 23.4078 25.4881 22.2915C25.7922 21.3953 26.117 20.5102 26.464 19.6361C28.1405 15.4164 30.3168 11.4483 32.9182 7.80175C32.24 8.15485 31.5697 8.51745 30.909 8.8943C16.7956 16.9333 6.27061 30.4888 2.30484 46.6063C1.2334 51.1918 0.665039 55.9769 0.665039 60.8965C0.665039 65.8162 1.20792 70.378 2.23161 74.8653C4.68812 85.0799 9.77628 94.2779 16.7446 101.71C17.3305 101.565 17.9148 101.416 18.4975 101.262C22.6049 100.174 26.6217 98.865 30.5349 97.3497C20.2662 89.0067 14.0445 76.1653 14.0445 60.9836H14.043ZM117.784 42.9484C114.305 76.3376 90.9245 106.331 56.0302 120.64C57.0279 120.714 57.9766 120.69 58.95 120.665L58.9505 120.665C59.4464 120.652 59.9488 120.64 60.4672 120.64C93.5482 120.64 120.396 94.0361 120.667 61.1168C120.634 54.7834 119.626 48.6802 117.785 42.9484H117.784ZM29.2054 55.7899C29.2054 55.7899 29.2022 55.7868 29.2022 55.7836C27.8586 53.5463 25.4801 45.6403 24.7605 43.1955C24.6649 42.9549 24.5885 42.7126 24.5487 42.4703C21.562 48.5759 19.9891 55.63 19.9891 61.1434C19.9891 67.1255 21.0462 72.7656 23.1302 77.9054C25.1362 82.8488 28.0416 87.2142 31.7654 90.8766C33.3352 92.4204 35.0371 93.817 36.8504 95.0647C39.0331 94.026 40.3386 93.2232 40.3386 93.2232C46.858 89.9678 53.3073 86.1597 58.9782 81.6406C45.7388 77.6789 35.0403 68.2181 29.2054 55.7899ZM250.472 50.1799V44.8125H234.936V36.7316H248.02V31.5435H234.936V24.7169H249.541V19.3411H227.633V50.1799H250.472ZM200.117 50.1831H193.182V18.6956H194.209C196.409 20.8483 199.646 23.8381 203.918 27.725C208.182 31.5605 211.419 34.5077 213.533 36.5664H213.722V19.3021H220.666V50.6957H219.681L200.271 32.355H200.134V50.1831H200.117ZM144.665 50.1831H151.6H151.617V32.355H151.754L171.164 50.6957H172.149V19.3021H165.205V36.5664H165.017C162.902 34.5077 159.666 31.5605 155.402 27.725C151.129 23.8381 147.893 20.8483 145.692 18.6956H144.665V50.1831ZM179.246 50.1798V19.341H186.213V50.1798H179.246ZM243.743 71.7122V102.091L243.752 102.083H250.989V92.2679H256.296C259.77 92.2679 262.573 91.2999 264.742 89.3218C266.91 87.3352 268.021 84.8941 268.021 81.8974C268.021 79.086 266.963 76.6954 264.883 74.7088C262.811 72.7223 259.814 71.7122 255.953 71.7122H243.743ZM250.937 87.1584V76.8301H254.745C258.747 76.8301 260.828 79.1365 260.828 82.0405C260.828 84.8099 259.091 87.1584 254.701 87.1584H250.937ZM454.906 102.096H448.075V71.0774H449.087C451.254 73.198 454.443 76.1433 458.651 79.9722C462.852 83.7506 466.04 86.6538 468.123 88.6819H468.309V71.6749H475.149V102.6H474.179L455.058 84.5332H454.923V102.096H454.906ZM331.017 74.3889C328.745 72.5876 325.934 71.7122 322.645 71.7122H322.637H309.713V102.091H316.926V76.9226H321.284C325.015 76.9226 327.384 79.1365 327.384 82.6382C327.384 85.6349 324.917 88.4884 319.879 89.044V89.6921L328.303 102.091H336.533L328.108 90.8874C332.413 89.0019 334.5 85.1719 334.5 81.6702C334.5 78.5809 333.342 76.1398 331.017 74.3889ZM224.96 71.7122C228.264 71.7122 231.088 72.5876 233.371 74.3889C235.707 76.1398 236.87 78.5809 236.87 81.6702C236.87 85.1719 234.774 89.0019 230.449 90.8874L238.913 102.091H230.644L222.18 89.6921V89.044C227.242 88.4884 229.72 85.6349 229.72 82.6382C229.72 79.1365 227.34 76.9226 223.592 76.9226H219.213V102.091H211.966V71.7122H224.951H224.96ZM359.763 97.3272L361.841 102.092H368.819L354.568 71.3313H353.554L339.075 102.092H345.926L348.055 97.3272H359.763ZM350.133 92.663L353.884 84.2875H354.061L357.719 92.663H350.133ZM160.928 102.639C158.619 102.639 156.471 102.245 154.484 101.456C152.526 100.637 150.802 99.4976 149.312 98.0364C147.85 96.5752 146.711 94.8803 145.892 92.9515C145.074 90.9935 144.665 88.8894 144.665 86.6391C144.665 84.3889 145.074 82.2994 145.892 80.3706C146.711 78.4127 147.85 76.7177 149.312 75.2857C150.773 73.8537 152.482 72.7432 154.44 71.9542C156.428 71.1359 158.575 70.7268 160.884 70.7268C163.339 70.7268 165.516 71.1213 167.416 71.9104C169.344 72.6994 171.025 73.7807 172.457 75.1542L167.854 79.8008C167.036 78.9241 166.042 78.2373 164.873 77.7405C163.733 77.2437 162.404 76.9953 160.884 76.9953C159.54 76.9953 158.298 77.2291 157.158 77.6967C156.048 78.135 155.083 78.7779 154.265 79.6254C153.476 80.4729 152.848 81.4958 152.38 82.6939C151.942 83.8921 151.722 85.2072 151.722 86.6391C151.722 88.1003 151.942 89.43 152.38 90.6282C152.848 91.8264 153.476 92.8492 154.265 93.6967C155.083 94.5442 156.048 95.2017 157.158 95.6693C158.298 96.1369 159.54 96.3707 160.884 96.3707C162.462 96.3707 163.836 96.1223 165.005 95.6255C166.174 95.1286 167.182 94.4419 168.029 93.5652L172.676 98.2118C171.186 99.5853 169.476 100.667 167.547 101.456C165.648 102.245 163.441 102.639 160.928 102.639ZM378.526 77.6072V102.091H385.423V77.6072H395.13V71.7122H368.819V77.6072H378.526ZM399.646 102.091V71.7122H406.51V102.091H399.646ZM184.713 101.468C186.7 102.286 188.863 102.696 191.201 102.696C193.48 102.696 195.599 102.286 197.557 101.468C199.544 100.65 201.268 99.5248 202.729 98.0928C204.191 96.6317 205.33 94.9367 206.149 93.0079C206.967 91.0499 207.376 88.9458 207.376 86.6956C207.376 84.4161 206.967 82.312 206.149 80.3832C205.33 78.4252 204.176 76.7303 202.686 75.2983C201.224 73.8371 199.5 72.712 197.513 71.923C195.555 71.1047 193.422 70.6956 191.113 70.6956C188.775 70.6956 186.613 71.1047 184.625 71.923C182.667 72.712 180.958 73.8371 179.497 75.2983C178.035 76.7303 176.896 78.4106 176.077 80.3394C175.259 82.2682 174.85 84.3723 174.85 86.6517C174.85 88.902 175.259 91.0061 176.077 92.9641C176.896 94.8928 178.05 96.5878 179.54 98.049C181.031 99.5102 182.755 100.65 184.713 101.468ZM195.935 95.1997C194.561 96.018 192.954 96.4271 191.113 96.4271C189.74 96.4271 188.483 96.1933 187.343 95.7257C186.203 95.2581 185.224 94.6006 184.406 93.7531C183.617 92.8764 183.003 91.839 182.565 90.6408C182.127 89.4426 181.908 88.1129 181.908 86.6517C181.908 84.6937 182.287 82.9988 183.047 81.5668C183.807 80.1056 184.874 78.9805 186.247 78.1915C187.65 77.3732 189.272 76.9641 191.113 76.9641C192.487 76.9641 193.729 77.1978 194.839 77.6654C195.979 78.1038 196.958 78.7613 197.776 79.638C198.594 80.4855 199.223 81.5083 199.661 82.7065C200.099 83.8755 200.319 85.1905 200.319 86.6517C200.319 88.5805 199.939 90.2901 199.179 91.7805C198.419 93.2417 197.338 94.3814 195.935 95.1997ZM288.948 102.696C286.61 102.696 284.447 102.286 282.46 101.468C280.502 100.65 278.778 99.5102 277.287 98.049C275.797 96.5878 274.643 94.8928 273.824 92.9641C273.006 91.0061 272.597 88.902 272.597 86.6517C272.597 84.3723 273.006 82.2682 273.824 80.3394C274.643 78.4106 275.782 76.7303 277.244 75.2983C278.705 73.8371 280.414 72.712 282.372 71.923C284.36 71.1047 286.522 70.6956 288.86 70.6956C291.169 70.6956 293.302 71.1047 295.26 71.923C297.247 72.712 298.972 73.8371 300.433 75.2983C301.923 76.7303 303.077 78.4252 303.896 80.3832C304.714 82.312 305.123 84.4161 305.123 86.6956C305.123 88.9458 304.714 91.0499 303.896 93.0079C303.077 94.9367 301.938 96.6317 300.477 98.0928C299.015 99.5248 297.291 100.65 295.304 101.468C293.346 102.286 291.227 102.696 288.948 102.696ZM288.86 96.4271C290.701 96.4271 292.308 96.018 293.682 95.1997C295.085 94.3814 296.166 93.2417 296.926 91.7805C297.686 90.2901 298.066 88.5805 298.066 86.6517C298.066 85.1905 297.846 83.8755 297.408 82.7065C296.97 81.5083 296.341 80.4855 295.523 79.638C294.705 78.7613 293.726 78.1038 292.586 77.6654C291.476 77.1978 290.234 76.9641 288.86 76.9641C287.019 76.9641 285.397 77.3732 283.994 78.1915C282.621 78.9805 281.554 80.1056 280.794 81.5668C280.035 82.9988 279.655 84.6937 279.655 86.6517C279.655 88.1129 279.874 89.4426 280.312 90.6408C280.751 91.839 281.364 92.8764 282.153 93.7531C282.972 94.6006 283.95 95.2581 285.09 95.7257C286.23 96.1933 287.487 96.4271 288.86 96.4271ZM420.949 101.468C422.936 102.286 425.099 102.696 427.437 102.696C429.716 102.696 431.835 102.286 433.793 101.468C435.78 100.65 437.504 99.5248 438.965 98.0928C440.427 96.6317 441.566 94.9367 442.385 93.0079C443.203 91.0499 443.612 88.9458 443.612 86.6956C443.612 84.4161 443.203 82.312 442.385 80.3832C441.566 78.4252 440.412 76.7303 438.921 75.2983C437.46 73.8371 435.736 72.712 433.749 71.923C431.791 71.1047 429.658 70.6956 427.349 70.6956C425.011 70.6956 422.848 71.1047 420.861 71.923C418.903 72.712 417.194 73.8371 415.732 75.2983C414.271 76.7303 413.131 78.4106 412.313 80.3394C411.495 82.2682 411.086 84.3723 411.086 86.6517C411.086 88.902 411.495 91.0061 412.313 92.9641C413.131 94.8928 414.286 96.5878 415.776 98.049C417.267 99.5102 418.991 100.65 420.949 101.468ZM432.171 95.1997C430.797 96.018 429.19 96.4271 427.349 96.4271C425.975 96.4271 424.719 96.1933 423.579 95.7257C422.439 95.2581 421.46 94.6006 420.642 93.7531C419.853 92.8764 419.239 91.839 418.801 90.6408C418.363 89.4426 418.143 88.1129 418.143 86.6517C418.143 84.6937 418.523 82.9988 419.283 81.5668C420.043 80.1056 421.11 78.9805 422.483 78.1915C423.886 77.3732 425.508 76.9641 427.349 76.9641C428.722 76.9641 429.964 77.1978 431.075 77.6654C432.215 78.1038 433.194 78.7613 434.012 79.638C434.83 80.4855 435.458 81.5083 435.897 82.7065C436.335 83.8755 436.554 85.1905 436.554 86.6517C436.554 88.5805 436.174 90.2901 435.415 91.7805C434.655 93.2417 433.574 94.3814 432.171 95.1997Z" fill="black"/>
</svg>
