<svg
  width="476"
  height="121"
  viewBox="0 0 476 121"
  fill="none"
  xmlns="http://www.w3.org/2000/svg"
>
  <g clip-path="url(#clip0_1754_4772)">
    <g clip-path="url(#clip1_1754_4772)">
      <path
        d="M14.0427 60.7346C14.0427 50.2398 17.5054 40.2722 23.8911 32.1256C24.0821 26.8101 25.1281 23.1588 25.4879 22.0425C25.792 21.1463 26.1167 20.2612 26.4638 19.3871C28.1402 15.1673 30.3165 11.1993 32.9179 7.55273C32.2397 7.90583 31.5695 8.26843 30.9088 8.64528C16.7953 16.6842 6.27037 30.2398 2.3046 46.3573C1.23315 50.9428 0.664795 55.7279 0.664795 60.6475C0.664795 65.5672 1.20768 70.1289 2.23136 74.6163C4.68788 84.8309 9.77604 94.0289 16.7444 101.461C17.3303 101.316 17.9145 101.167 18.4972 101.013C22.6047 99.9255 26.6214 98.616 30.5346 97.1007C20.266 88.7577 14.0443 75.9163 14.0443 60.7346H14.0427Z"
        fill="url(#paint0_linear_1754_4772)"
      />
      <path
        d="M117.784 42.6992C114.305 76.0884 90.9243 106.082 56.03 120.39C57.5361 120.503 58.9307 120.39 60.467 120.39C93.548 120.39 120.396 93.787 120.667 60.8676C120.633 54.5342 119.626 48.431 117.785 42.6992H117.784Z"
        fill="url(#paint1_linear_1754_4772)"
      />
      <path
        d="M111.496 28.2113H111.493C110.845 27.1425 110.161 26.0959 109.452 25.0698C98.5037 10.1446 80.7827 0.446289 60.7835 0.446289C56.953 0.446289 53.2053 0.802555 49.5723 1.48342C45.9074 2.17062 42.5673 4.02954 40.0615 6.77675C39.9914 6.85433 39.9214 6.93192 39.8513 7.00951C35.3427 12.0289 32.0392 18.1393 30.385 24.8941C29.6766 27.7901 29.2706 30.8049 29.2053 33.9021C29.199 34.1982 29.1942 34.4958 29.1942 34.7951C29.1942 37.0245 29.3725 39.2128 29.71 41.3472C29.796 41.6006 29.8437 41.8714 29.8437 42.1532C29.8437 42.1532 29.8437 42.1532 29.8437 42.1548C33.3399 61.6893 50.5005 76.521 71.146 76.521H72.9084C71.4453 78.1139 69.9345 79.6625 68.3743 81.1572C60.9013 87.9564 52.524 93.7311 43.4509 98.2739C41.3415 99.33 39.1938 100.318 37.0127 101.238C34.0865 102.471 31.0983 103.583 28.0511 104.56C25.9639 105.203 23.9659 105.748 22.0857 106.194C28.7532 111.764 36.6529 115.922 45.32 118.207C54.2545 115.451 62.8292 111.277 70.6859 106.033C77.1019 101.751 83.037 96.7554 88.3003 91.2309C91.1086 88.2841 93.7244 85.1886 96.1188 81.9695C97.4975 80.1169 98.803 78.2264 100.029 76.2993C103.071 71.5982 105.636 66.5852 107.68 61.2206C107.828 60.8295 107.976 60.4384 108.12 60.0441C108.169 59.9095 108.217 59.7765 108.266 59.6419C108.347 59.4171 108.425 59.1906 108.505 58.9642C108.626 58.6206 108.74 58.277 108.857 57.9334C108.917 57.7529 108.978 57.5724 109.035 57.3919C109.091 57.2209 109.146 57.0483 109.201 56.8757C110.805 51.831 111.971 46.4854 112.665 40.8121C112.792 39.7749 112.905 38.7283 112.999 37.669C113.05 36.9185 113.082 36.1632 113.092 35.4031C113.001 31.6695 112.087 29.3419 111.495 28.2145L111.496 28.2113ZM85.2452 50.7131C77.5317 58.6222 64.8623 58.4544 56.9482 50.341C49.0342 42.2276 48.8718 29.2389 56.5852 21.3298C57.3367 20.5603 58.1343 19.8683 58.9701 19.2508C66.7202 13.53 77.7387 14.3787 84.8822 21.7035C87.6348 24.5251 89.4481 27.9374 90.3206 31.519C91.9556 38.2374 90.2776 45.5559 85.2467 50.7147L85.2452 50.7131Z"
        fill="url(#paint2_linear_1754_4772)"
      />
      <path
        d="M29.2052 55.5403C29.2052 55.5403 29.202 55.5372 29.202 55.534C27.8583 53.2966 25.4798 45.3907 24.7602 42.9459C24.6647 42.7052 24.5883 42.463 24.5485 42.2207C21.5618 48.3263 19.9889 55.3804 19.9889 60.8938C19.9889 66.8759 21.046 72.516 23.13 77.6557C25.1359 82.5991 28.0414 86.9646 31.7652 90.627C33.3349 92.1708 35.0368 93.5674 36.8502 94.8151C39.0328 93.7764 40.3383 92.9736 40.3383 92.9736C46.8577 89.7181 53.3071 85.91 58.9779 81.391C45.7385 77.4293 35.04 67.9685 29.2052 55.5403Z"
        fill="url(#paint3_linear_1754_4772)"
      />
    </g>
  </g>
  <path
    d="M250.472 44.5547V49.9306H227.633V19.0918H249.541V24.4677H234.936V31.2942H248.02V36.4824H234.936V44.5633H250.472V44.5547Z"
    fill="currentColor"
  />
  <path
    d="M200.116 49.9339H193.181V18.4463H194.209C196.409 20.599 199.646 23.5889 203.918 27.4757C208.182 31.3113 211.418 34.2584 213.533 36.3172H213.721V19.0528H220.665V50.4464H219.681L200.271 32.1057H200.134V49.9339H200.116Z"
    fill="currentColor"
  />
  <path
    d="M151.6 49.9339H144.665V18.4463H145.692C147.893 20.599 151.129 23.5889 155.402 27.4757C159.665 31.3113 162.902 34.2584 165.017 36.3172H165.205V19.0528H172.149V50.4464H171.164L151.754 32.1057H151.617V49.9339H151.6Z"
    fill="currentColor"
  />
  <path
    d="M179.246 49.9306V19.0917H186.213V49.9306H179.246Z"
    fill="currentColor"
  />
  <path
    d="M243.743 101.842V71.4629H255.952C259.814 71.4629 262.811 72.473 264.883 74.4596C266.963 76.4461 268.021 78.8367 268.021 81.6482C268.021 84.6449 266.91 87.086 264.741 89.0725C262.573 91.0506 259.77 92.0187 256.296 92.0187H250.989V101.834H243.752L243.743 101.842ZM250.936 76.5808V86.9092H254.701C259.091 86.9092 260.827 84.5607 260.827 81.7913C260.827 78.8872 258.747 76.5808 254.745 76.5808H250.928H250.936Z"
    fill="currentColor"
  />
  <path
    d="M454.906 101.845H448.075V70.8271H449.087C451.254 72.9478 454.443 75.8931 458.651 79.7219C462.852 83.5003 466.04 86.4036 468.123 88.4316H468.309V71.4246H475.149V102.35H474.179L455.058 84.283H454.923V101.845H454.906Z"
    fill="currentColor"
  />
  <path
    d="M322.645 71.4629C325.934 71.4629 328.745 72.3383 331.017 74.1397C333.342 75.8905 334.5 78.3317 334.5 81.4209C334.5 84.9226 332.413 88.7526 328.108 90.6382L336.533 101.842H328.303L319.879 89.4429V88.7947C324.917 88.2392 327.384 85.3856 327.384 82.3889C327.384 78.8872 325.015 76.6734 321.284 76.6734H316.926V101.842H309.713V71.4629H322.637H322.645Z"
    fill="currentColor"
  />
  <path
    d="M224.96 71.4629C228.264 71.4629 231.088 72.3383 233.371 74.1397C235.707 75.8905 236.87 78.3317 236.87 81.4209C236.87 84.9226 234.774 88.7526 230.449 90.6382L238.913 101.842H230.644L222.18 89.4429V88.7947C227.242 88.2392 229.72 85.3856 229.72 82.3889C229.72 78.8872 227.34 76.6734 223.592 76.6734H219.213V101.842H211.966V71.4629H224.951H224.96Z"
    fill="currentColor"
  />
  <path
    d="M361.841 101.842L359.763 97.0779H348.055L345.926 101.842H339.075L353.554 71.082H354.568L368.819 101.842H361.833H361.841ZM353.883 84.0382L350.133 92.4137H357.719L354.061 84.0382H353.875H353.883Z"
    fill="currentColor"
  />
  <path
    d="M160.928 102.39C158.619 102.39 156.471 101.995 154.484 101.206C152.526 100.388 150.802 99.2483 149.311 97.7872C147.85 96.326 146.71 94.631 145.892 92.7022C145.074 90.7442 144.665 88.6401 144.665 86.3899C144.665 84.1397 145.074 82.0502 145.892 80.1214C146.71 78.1634 147.85 76.4684 149.311 75.0364C150.773 73.6045 152.482 72.494 154.44 71.7049C156.427 70.8867 158.575 70.4775 160.884 70.4775C163.339 70.4775 165.516 70.8721 167.416 71.6611C169.344 72.4501 171.025 73.5314 172.457 74.9049L167.854 79.5515C167.036 78.6748 166.042 77.988 164.873 77.4912C163.733 76.9944 162.404 76.746 160.884 76.746C159.54 76.746 158.298 76.9798 157.158 77.4474C156.047 77.8858 155.083 78.5287 154.265 79.3762C153.476 80.2237 152.847 81.2465 152.38 82.4447C151.942 83.6428 151.722 84.9579 151.722 86.3899C151.722 87.8511 151.942 89.1808 152.38 90.3789C152.847 91.5771 153.476 92.5999 154.265 93.4474C155.083 94.2949 156.047 94.9524 157.158 95.42C158.298 95.8876 159.54 96.1214 160.884 96.1214C162.462 96.1214 163.836 95.873 165.005 95.3762C166.173 94.8794 167.182 94.1926 168.029 93.3159L172.676 97.9625C171.185 99.336 169.476 100.417 167.547 101.206C165.647 101.995 163.441 102.39 160.928 102.39Z"
    fill="currentColor"
  />
  <path
    d="M378.526 101.842V71.8932H385.422V101.842H378.526ZM368.818 77.358V71.4629H395.13V77.358H368.818Z"
    fill="currentColor"
  />
  <path
    d="M399.646 101.842V71.4629H406.51V101.842H399.646Z"
    fill="currentColor"
  />
  <path
    d="M191.2 102.446C188.863 102.446 186.7 102.037 184.713 101.219C182.755 100.401 181.031 99.2609 179.54 97.7997C178.05 96.3386 176.895 94.6436 176.077 92.7148C175.259 90.7568 174.85 88.6527 174.85 86.4025C174.85 84.123 175.259 82.0189 176.077 80.0901C176.895 78.1614 178.035 76.481 179.496 75.049C180.957 73.5878 182.667 72.4627 184.625 71.6737C186.612 70.8554 188.775 70.4463 191.113 70.4463C193.421 70.4463 195.555 70.8554 197.513 71.6737C199.5 72.4627 201.224 73.5878 202.685 75.049C204.176 76.481 205.33 78.176 206.148 80.134C206.967 82.0627 207.376 84.1669 207.376 86.4463C207.376 88.6965 206.967 90.8007 206.148 92.7586C205.33 94.6874 204.19 96.3824 202.729 97.8436C201.268 99.2755 199.544 100.401 197.557 101.219C195.599 102.037 193.48 102.446 191.2 102.446ZM191.113 96.1778C192.954 96.1778 194.561 95.7687 195.935 94.9504C197.337 94.1322 198.419 92.9924 199.179 91.5312C199.938 90.0408 200.318 88.3312 200.318 86.4025C200.318 84.9413 200.099 83.6262 199.661 82.4573C199.222 81.2591 198.594 80.2363 197.776 79.3888C196.958 78.5121 195.979 77.8545 194.839 77.4162C193.728 76.9486 192.486 76.7148 191.113 76.7148C189.272 76.7148 187.65 77.1239 186.247 77.9422C184.873 78.7312 183.807 79.8563 183.047 81.3175C182.287 82.7495 181.907 84.4445 181.907 86.4025C181.907 87.8637 182.126 89.1933 182.565 90.3915C183.003 91.5897 183.617 92.6271 184.406 93.5039C185.224 94.3513 186.203 95.0089 187.343 95.4765C188.483 95.944 189.739 96.1778 191.113 96.1778Z"
    fill="currentColor"
  />
  <path
    d="M288.948 102.446C286.61 102.446 284.447 102.037 282.46 101.219C280.502 100.401 278.778 99.2609 277.287 97.7997C275.797 96.3386 274.642 94.6436 273.824 92.7148C273.006 90.7568 272.597 88.6527 272.597 86.4025C272.597 84.123 273.006 82.0189 273.824 80.0901C274.642 78.1614 275.782 76.481 277.243 75.049C278.705 73.5878 280.414 72.4627 282.372 71.6737C284.359 70.8554 286.522 70.4463 288.86 70.4463C291.169 70.4463 293.302 70.8554 295.26 71.6737C297.247 72.4627 298.971 73.5878 300.432 75.049C301.923 76.481 303.077 78.176 303.895 80.134C304.714 82.0627 305.123 84.1669 305.123 86.4463C305.123 88.6965 304.714 90.8007 303.895 92.7586C303.077 94.6874 301.937 96.3824 300.476 97.8436C299.015 99.2755 297.291 100.401 295.304 101.219C293.346 102.037 291.227 102.446 288.948 102.446ZM288.86 96.1778C290.701 96.1778 292.308 95.7687 293.682 94.9504C295.085 94.1322 296.166 92.9924 296.926 91.5312C297.685 90.0408 298.065 88.3312 298.065 86.4025C298.065 84.9413 297.846 83.6262 297.408 82.4573C296.969 81.2591 296.341 80.2363 295.523 79.3888C294.705 78.5121 293.726 77.8545 292.586 77.4162C291.475 76.9486 290.233 76.7148 288.86 76.7148C287.019 76.7148 285.397 77.1239 283.994 77.9422C282.621 78.7312 281.554 79.8563 280.794 81.3175C280.034 82.7495 279.654 84.4445 279.654 86.4025C279.654 87.8637 279.874 89.1933 280.312 90.3915C280.75 91.5897 281.364 92.6271 282.153 93.5039C282.971 94.3513 283.95 95.0089 285.09 95.4765C286.23 95.944 287.486 96.1778 288.86 96.1778Z"
    fill="currentColor"
  />
  <path
    d="M427.437 102.446C425.099 102.446 422.936 102.037 420.949 101.219C418.991 100.401 417.267 99.2609 415.776 97.7997C414.286 96.3386 413.131 94.6436 412.313 92.7148C411.495 90.7568 411.086 88.6527 411.086 86.4025C411.086 84.123 411.495 82.0189 412.313 80.0901C413.131 78.1614 414.271 76.481 415.732 75.049C417.194 73.5878 418.903 72.4627 420.861 71.6737C422.848 70.8554 425.011 70.4463 427.349 70.4463C429.658 70.4463 431.791 70.8554 433.749 71.6737C435.736 72.4627 437.46 73.5878 438.921 75.049C440.412 76.481 441.566 78.176 442.384 80.134C443.203 82.0627 443.612 84.1669 443.612 86.4463C443.612 88.6965 443.203 90.8007 442.384 92.7586C441.566 94.6874 440.426 96.3824 438.965 97.8436C437.504 99.2755 435.78 100.401 433.793 101.219C431.835 102.037 429.716 102.446 427.437 102.446ZM427.349 96.1778C429.19 96.1778 430.797 95.7687 432.171 94.9504C433.574 94.1322 434.655 92.9924 435.415 91.5312C436.174 90.0408 436.554 88.3312 436.554 86.4025C436.554 84.9413 436.335 83.6262 435.897 82.4573C435.458 81.2591 434.83 80.2363 434.012 79.3888C433.194 78.5121 432.215 77.8545 431.075 77.4162C429.964 76.9486 428.722 76.7148 427.349 76.7148C425.508 76.7148 423.886 77.1239 422.483 77.9422C421.11 78.7312 420.043 79.8563 419.283 81.3175C418.523 82.7495 418.143 84.4445 418.143 86.4025C418.143 87.8637 418.363 89.1933 418.801 90.3915C419.239 91.5897 419.853 92.6271 420.642 93.5039C421.46 94.3513 422.439 95.0089 423.579 95.4765C424.719 95.944 425.975 96.1778 427.349 96.1778Z"
    fill="currentColor"
  />
  <defs>
    <linearGradient
      id="paint0_linear_1754_4772"
      x1="54.097"
      y1="167.348"
      x2="34.5599"
      y2="-63.946"
      gradientUnits="userSpaceOnUse"
    >
      <stop stop-color="#7747E2" />
      <stop offset="0.713542" stop-color="#7CA5EF" />
    </linearGradient>
    <linearGradient
      id="paint1_linear_1754_4772"
      x1="56.03"
      y1="159.608"
      x2="136.504"
      y2="0.564346"
      gradientUnits="userSpaceOnUse"
    >
      <stop stop-color="#7747E2" />
      <stop offset="1" stop-color="#7CA5EF" />
    </linearGradient>
    <linearGradient
      id="paint2_linear_1754_4772"
      x1="22.0857"
      y1="156.236"
      x2="75.8471"
      y2="-14.5201"
      gradientUnits="userSpaceOnUse"
    >
      <stop offset="0.0252051" stop-color="#7747E2" />
      <stop offset="1" stop-color="#7CA5EF" />
    </linearGradient>
    <linearGradient
      id="paint3_linear_1754_4772"
      x1="54.3919"
      y1="144.308"
      x2="33.8807"
      y2="17.3843"
      gradientUnits="userSpaceOnUse"
    >
      <stop stop-color="#6F47E2" />
      <stop offset="1" stop-color="#7CA5EF" />
    </linearGradient>
    <clipPath id="clip0_1754_4772">
      <rect
        width="120"
        height="120"
        fill="white"
        transform="translate(0.664795 0.446289)"
      />
    </clipPath>
    <clipPath id="clip1_1754_4772">
      <rect
        width="120"
        height="120"
        fill="white"
        transform="translate(0.664795 0.446289)"
      />
    </clipPath>
  </defs>
</svg>
