<svg width="121" height="121" viewBox="0 0 121 121" fill="none" xmlns="http://www.w3.org/2000/svg">
<g clip-path="url(#clip0_1785_5941)">
<path fill-rule="evenodd" clip-rule="evenodd" d="M111.425 28.4603C110.777 27.3915 110.092 26.3449 109.384 25.3189C98.4355 10.3937 80.7145 0.695312 60.7153 0.695312C56.8848 0.695312 53.1372 1.05158 49.5042 1.73244C45.8393 2.41964 42.4992 4.27856 39.9933 7.02577L39.7831 7.25853C35.2745 12.2779 31.971 18.3883 30.3169 25.1431C29.6084 28.0391 29.2025 31.054 29.1372 34.1511C29.1308 34.4472 29.126 34.7449 29.126 35.0441C29.126 37.2736 29.3043 39.4618 29.6419 41.5963C29.7278 41.8496 29.7756 42.1204 29.7756 42.4022V42.4038C33.2717 61.9383 50.4323 76.7701 71.0779 76.7701H72.8403C71.3772 78.363 69.8663 79.9115 68.3061 81.4063C60.8331 88.2054 52.4558 93.9801 43.3828 98.5229C41.2733 99.579 39.1256 100.567 36.9445 101.487C34.0184 102.72 31.0301 103.832 27.983 104.809C25.8958 105.452 23.8978 105.997 22.0176 106.443C28.685 112.013 36.5847 116.172 45.2518 118.456C54.1863 115.7 62.7611 111.526 70.6178 106.282C77.0337 102 82.9688 97.0044 88.2321 91.4799C91.0405 88.5332 93.6562 85.4376 96.0506 82.2185C97.4293 80.366 98.7348 78.4754 99.9607 76.5484C103.003 71.8472 105.568 66.8342 107.612 61.4696L107.612 61.4684C107.76 61.0777 107.908 60.687 108.051 60.2931C108.076 60.2261 108.1 60.1594 108.124 60.0928C108.137 60.0579 108.15 60.0231 108.162 59.9882C108.174 59.9558 108.186 59.9234 108.198 59.8909C108.255 59.7336 108.31 59.5755 108.365 59.4172L108.366 59.4165L108.437 59.2132C108.533 58.9386 108.626 58.664 108.719 58.3894L108.719 58.3881L108.789 58.1824L108.789 58.1809L108.789 58.1807C108.849 58.0008 108.91 57.8209 108.967 57.6409C109.023 57.4699 109.078 57.2973 109.132 57.1247C110.737 52.08 111.903 46.7344 112.597 41.0611C112.724 40.0239 112.837 38.9773 112.931 37.918C112.982 37.1675 113.014 36.4122 113.023 35.6522C112.933 31.9185 112.019 29.5909 111.427 28.4635L111.428 28.4603H111.425ZM85.177 50.9621C77.4636 58.8712 64.7941 58.7034 56.8801 50.59C48.966 42.4766 48.8036 29.488 56.5171 21.5789C57.2685 20.8093 58.0661 20.1174 58.902 19.4998C66.652 13.779 77.6705 14.6277 84.814 21.9525C87.5666 24.7742 89.38 28.1864 90.2524 31.7681C91.8874 38.4865 90.2094 45.805 85.1786 50.9637L85.177 50.9621ZM23.823 32.3746C17.4373 40.5213 13.9746 50.4888 13.9746 60.9836H13.9762C13.9762 76.1653 20.1979 89.0067 30.4665 97.3497C26.5533 98.865 22.5366 100.174 18.4291 101.262C17.8464 101.416 17.2622 101.565 16.6763 101.71C9.70792 94.2779 4.61976 85.0799 2.16325 74.8653C1.13957 70.378 0.59668 65.8162 0.59668 60.8965C0.59668 55.9769 1.16504 51.1918 2.23648 46.6063C6.20225 30.4888 16.7272 16.9333 30.8407 8.89431C31.5014 8.51746 32.1716 8.15486 32.8498 7.80176C30.2484 11.4483 28.0721 15.4164 26.3957 19.6361C26.0486 20.5102 25.7238 21.3953 25.4198 22.2915C25.06 23.4078 24.014 27.0591 23.823 32.3746ZM55.9619 120.639C90.8562 106.331 114.237 76.3374 117.716 42.9482H117.717C119.558 48.68 120.565 54.7833 120.599 61.1166C120.328 94.036 93.4799 120.639 60.3989 120.639C59.8804 120.639 59.3781 120.652 58.8822 120.665L58.8817 120.665C57.9083 120.69 56.9596 120.714 55.9619 120.639ZM29.134 55.783C29.134 55.7862 29.1372 55.7893 29.1372 55.7893C34.972 68.2175 45.6706 77.6783 58.91 81.64C53.2391 86.1591 46.7898 89.9672 40.2704 93.2226C40.2704 93.2226 38.9649 94.0254 36.7822 95.0641C34.9689 93.8164 33.267 92.4198 31.6972 90.876C27.9734 87.2136 25.068 82.8482 23.062 77.9048C20.978 72.765 19.9209 67.1249 19.9209 61.1428C19.9209 55.6294 21.4938 48.5753 24.4805 42.4697C24.5203 42.712 24.5967 42.9543 24.6922 43.1949C25.4118 45.6397 27.7904 53.5457 29.134 55.783Z" fill="black"/>
</g>
<defs>
<clipPath id="clip0_1785_5941">
<rect width="121" height="121" fill="white"/>
</clipPath>
</defs>
</svg>
