<svg
  width="399"
  height="29"
  viewBox="0 0 399 29"
  fill="none"
  xmlns="http://www.w3.org/2000/svg"
>
  <path
    fill-rule="evenodd"
    clip-rule="evenodd"
    d="M144.274 27.3723C146.013 28.0883 147.905 28.4463 149.951 28.4463C151.946 28.4463 153.8 28.0883 155.513 27.3723C157.252 26.6563 158.76 25.6719 160.039 24.4189C161.317 23.1404 162.315 21.6573 163.031 19.9696C163.747 18.2563 164.105 16.4152 164.105 14.4463C164.105 12.4518 163.747 10.6107 163.031 8.923C162.315 7.20976 161.305 5.72666 160 4.47369C158.722 3.19515 157.213 2.21067 155.474 1.52026C153.761 0.80428 151.895 0.446289 149.874 0.446289C147.829 0.446289 145.937 0.80428 144.198 1.52026C142.484 2.21067 140.989 3.19515 139.71 4.47369C138.432 5.72666 137.434 7.19698 136.718 8.88465C136.002 10.5723 135.644 12.4134 135.644 14.4079C135.644 16.3769 136.002 18.218 136.718 19.9312C137.434 21.6189 138.444 23.102 139.748 24.3805C141.053 25.6591 142.561 26.6563 144.274 27.3723ZM154.094 21.8874C152.892 22.6034 151.485 22.9614 149.874 22.9614C148.673 22.9614 147.573 22.7568 146.576 22.3477C145.579 21.9385 144.722 21.3632 144.006 20.6216C143.316 19.8545 142.779 18.9467 142.395 17.8983C142.011 16.8499 141.82 15.6865 141.82 14.4079C141.82 12.6947 142.152 11.2116 142.817 9.95862C143.482 8.68008 144.415 7.69561 145.617 7.00519C146.844 6.28921 148.263 5.93122 149.874 5.93122C151.076 5.93122 152.163 6.13579 153.135 6.54492C154.132 6.92848 154.989 7.50382 155.705 8.27095C156.421 9.0125 156.97 9.90748 157.354 10.9559C157.737 11.9787 157.929 13.1294 157.929 14.4079C157.929 16.0956 157.597 17.5915 156.932 18.8956C156.267 20.1741 155.321 21.1714 154.094 21.8874ZM123.463 28.3979C121.443 28.3979 119.563 28.0527 117.824 27.3623C116.111 26.6463 114.602 25.649 113.298 24.3705C112.02 23.092 111.022 21.6089 110.307 19.9212C109.591 18.2079 109.233 16.3668 109.233 14.3979C109.233 12.4289 109.591 10.6006 110.307 8.91297C111.022 7.19972 112.02 5.71662 113.298 4.46365C114.577 3.21068 116.073 2.23899 117.786 1.54858C119.525 0.832601 121.404 0.474609 123.424 0.474609C125.572 0.474609 127.477 0.819814 129.139 1.51022C130.827 2.20064 132.297 3.14675 133.55 4.34858L129.523 8.41434C128.807 7.64721 127.938 7.0463 126.915 6.6116C125.918 6.17689 124.754 5.95954 123.424 5.95954C122.248 5.95954 121.161 6.16411 120.164 6.57324C119.192 6.9568 118.349 7.51936 117.633 8.26091C116.942 9.00246 116.392 9.89744 115.983 10.9458C115.6 11.9942 115.408 13.1449 115.408 14.3979C115.408 15.6764 115.6 16.8399 115.983 17.8883C116.392 18.9367 116.942 19.8317 117.633 20.5732C118.349 21.3148 119.192 21.8901 120.164 22.2993C121.161 22.7084 122.248 22.913 123.424 22.913C124.805 22.913 126.007 22.6956 127.03 22.2609C128.053 21.8262 128.935 21.2253 129.676 20.4582L133.742 24.5239C132.438 25.7258 130.942 26.6719 129.254 27.3623C127.592 28.0527 125.662 28.3979 123.463 28.3979ZM42.6639 27.9212H48.6418H48.6566V12.5541H48.7746L65.5052 28.363H66.3539V1.30307H60.3687V16.1842H60.2063C58.3835 14.4096 55.5938 11.8693 51.9185 8.56322C48.2359 5.21294 45.4462 2.63581 43.5495 0.780273H42.6639V27.9212ZM92.0458 23.2912V27.9176H72.3597V1.33594H91.2436V5.96971H78.6543V11.8539H89.9322V16.3258H78.6543V23.2912H92.0458ZM195.926 27.9176V1.33594H206.609C209.988 1.33594 212.61 2.21979 214.423 3.95802C216.243 5.69625 217.169 7.78802 217.169 10.2481C217.169 12.8701 216.197 15.0061 214.3 16.7443C212.402 18.4752 209.949 19.3222 206.91 19.3222H202.266V27.9103H195.934L195.926 27.9176ZM202.22 5.8141V14.8514H205.514C209.355 14.8514 210.875 12.7965 210.875 10.3733C210.875 7.83221 209.054 5.8141 205.552 5.8141H202.22ZM380.747 27.9212H374.769V0.780273H375.654C377.551 2.63581 380.341 5.21294 384.023 8.56322C387.699 11.8693 390.488 14.4096 392.311 16.1842H392.473V1.30307H398.459V28.363H397.61L380.879 12.5541H380.761V27.9212H380.747ZM272.29 3.67813C270.303 2.10194 267.843 1.33594 264.966 1.33594H264.958H253.649V27.9176H259.961V5.89512H263.774C267.038 5.89512 269.111 7.83221 269.111 10.8962C269.111 13.5183 266.953 16.0152 262.544 16.5013V17.0684L269.916 27.9176H277.117L269.746 18.1143C273.513 16.4645 275.338 13.1132 275.338 10.0492C275.338 7.3461 274.325 5.21013 272.29 3.67813ZM179.49 1.33594C182.381 1.33594 184.853 2.10194 186.85 3.67813C188.894 5.21013 189.912 7.3461 189.912 10.0492C189.912 13.1132 188.078 16.4645 184.293 18.1143L191.699 27.9176H184.464L177.058 17.0684V16.5013C181.488 16.0152 183.656 13.5183 183.656 10.8962C183.656 7.83221 181.573 5.89512 178.294 5.89512H174.462V27.9176H168.121V1.33594H179.483H179.49ZM297.443 23.7493L299.262 27.9183H305.367L292.897 1.00293H292.01L279.341 27.9183H285.336L287.198 23.7493H297.443ZM289.017 19.6681L292.299 12.3396H292.454L295.654 19.6681H289.017ZM313.861 6.49414V27.9176H319.896V6.49414H328.39V1.33594H305.367V6.49414H313.861ZM332.394 27.9176V1.33594H338.399V27.9176H332.394ZM0.844971 27.9212H6.82281H6.83759V12.5541H6.95567L23.6863 28.363H24.535V1.30307H18.5497V16.1842H18.3874C16.5645 14.4096 13.7748 11.8693 10.0996 8.56322C6.41691 5.21294 3.62725 2.63581 1.73058 0.780273H0.844971V27.9212ZM30.6522 27.9176V1.33588H36.6581V27.9176H30.6522ZM235.48 28.4463C233.434 28.4463 231.542 28.0883 229.803 27.3723C228.09 26.6563 226.581 25.6591 225.277 24.3805C223.973 23.102 222.963 21.6189 222.247 19.9312C221.531 18.218 221.173 16.3769 221.173 14.4079C221.173 12.4134 221.531 10.5723 222.247 8.88465C222.963 7.19698 223.96 5.72666 225.239 4.47369C226.517 3.19515 228.013 2.21067 229.726 1.52026C231.465 0.80428 233.357 0.446289 235.403 0.446289C237.423 0.446289 239.29 0.80428 241.003 1.52026C242.742 2.21067 244.251 3.19515 245.529 4.47369C246.833 5.72666 247.843 7.20976 248.559 8.923C249.275 10.6107 249.633 12.4518 249.633 14.4463C249.633 16.4152 249.275 18.2563 248.559 19.9696C247.843 21.6573 246.846 23.1404 245.568 24.4189C244.289 25.6719 242.78 26.6563 241.041 27.3723C239.328 28.0883 237.474 28.4463 235.48 28.4463ZM235.403 22.9614C237.014 22.9614 238.42 22.6034 239.622 21.8874C240.85 21.1714 241.796 20.1741 242.461 18.8956C243.126 17.5915 243.458 16.0956 243.458 14.4079C243.458 13.1294 243.266 11.9787 242.883 10.9559C242.499 9.90748 241.949 9.0125 241.233 8.27095C240.517 7.50382 239.661 6.92848 238.663 6.54492C237.692 6.13579 236.605 5.93122 235.403 5.93122C233.792 5.93122 232.373 6.28921 231.146 7.00519C229.944 7.69561 229.01 8.68008 228.346 9.95862C227.681 11.2116 227.348 12.6947 227.348 14.4079C227.348 15.6865 227.54 16.8499 227.924 17.8983C228.307 18.9467 228.844 19.8545 229.535 20.6216C230.251 21.3632 231.107 21.9385 232.104 22.3477C233.102 22.7568 234.201 22.9614 235.403 22.9614ZM351.034 27.3723C352.772 28.0883 354.665 28.4463 356.71 28.4463C358.705 28.4463 360.559 28.0883 362.272 27.3723C364.011 26.6563 365.519 25.6719 366.798 24.4189C368.077 23.1404 369.074 21.6573 369.79 19.9696C370.506 18.2563 370.864 16.4152 370.864 14.4463C370.864 12.4518 370.506 10.6107 369.79 8.923C369.074 7.20976 368.064 5.72666 366.76 4.47369C365.481 3.19515 363.972 2.21067 362.234 1.52026C360.52 0.80428 358.654 0.446289 356.634 0.446289C354.588 0.446289 352.696 0.80428 350.957 1.52026C349.244 2.21067 347.748 3.19515 346.469 4.47369C345.191 5.72666 344.193 7.19698 343.477 8.88465C342.761 10.5723 342.403 12.4134 342.403 14.4079C342.403 16.3769 342.761 18.218 343.477 19.9312C344.193 21.6189 345.203 23.102 346.508 24.3805C347.812 25.6591 349.32 26.6563 351.034 27.3723ZM360.853 21.8874C359.651 22.6034 358.245 22.9614 356.634 22.9614C355.432 22.9614 354.332 22.7568 353.335 22.3477C352.338 21.9385 351.481 21.3632 350.765 20.6216C350.075 19.8545 349.538 18.9467 349.154 17.8983C348.771 16.8499 348.579 15.6865 348.579 14.4079C348.579 12.6947 348.911 11.2116 349.576 9.95862C350.241 8.68008 351.174 7.69561 352.376 7.00519C353.603 6.28921 355.023 5.93122 356.634 5.93122C357.835 5.93122 358.922 6.13579 359.894 6.54492C360.891 6.92848 361.748 7.50382 362.464 8.27095C363.18 9.0125 363.729 9.90748 364.113 10.9559C364.497 11.9787 364.688 13.1294 364.688 14.4079C364.688 16.0956 364.356 17.5915 363.691 18.8956C363.026 20.1741 362.08 21.1714 360.853 21.8874Z"
    fill="black"
  />
</svg>
