<svg
  width="474"
  height="57"
  viewBox="0 0 474 57"
  fill="none"
  xmlns="http://www.w3.org/2000/svg"
>
  <g>
    <path
      d="M6.24302 28.5809C6.24302 23.6833 7.85895 19.0318 10.8389 15.23C10.9281 12.7495 11.4162 11.0455 11.5841 10.5246C11.726 10.1063 11.8776 9.69329 12.0395 9.2854C12.8219 7.31618 13.8375 5.46443 15.0515 3.7627C14.735 3.92748 14.4222 4.09669 14.1139 4.27255C7.52759 8.02406 2.61593 14.35 0.765241 21.8715C0.265234 24.0114 0 26.2444 0 28.5403C0 30.8361 0.253347 32.9649 0.731065 35.059C1.87744 39.8258 4.25191 44.1182 7.50381 47.5867C7.77722 47.5187 8.04988 47.4493 8.3218 47.3776C10.2386 46.87 12.1131 46.2589 13.9393 45.5517C9.14722 41.6583 6.24377 35.6657 6.24377 28.5809H6.24302Z"
      fill="url(#paint0_linear_1755_5123)"
    />
    <path
      d="M54.6555 20.1641C53.0321 35.7457 42.1211 49.7428 25.8371 56.4199C26.5399 56.4725 27.1908 56.4199 27.9077 56.4199C43.3455 56.4199 55.8746 44.005 56.0009 28.6427C55.9853 25.6871 55.5151 22.8389 54.6562 20.1641H54.6555Z"
      fill="url(#paint1_linear_1755_5123)"
    />
    <path
      d="M51.7214 13.4033H51.7199C51.4175 12.9045 51.098 12.4161 50.7674 11.9373C45.6582 4.97219 37.3884 0.446289 28.0554 0.446289C26.2678 0.446289 24.5189 0.612547 22.8235 0.930283C21.1133 1.25098 19.5545 2.11847 18.3851 3.4005C18.3524 3.43671 18.3198 3.47292 18.2871 3.50912C16.183 5.85151 14.6414 8.70301 13.8695 11.8553C13.5389 13.2067 13.3494 14.6137 13.3189 16.059C13.316 16.1972 13.3137 16.3361 13.3137 16.4757C13.3137 17.5161 13.397 18.5373 13.5545 19.5334C13.5946 19.6516 13.6169 19.778 13.6169 19.9095C13.6169 19.9095 13.6169 19.9095 13.6169 19.9103C15.2484 29.0263 23.2567 35.9478 32.8913 35.9478H33.7137C33.0309 36.6912 32.3259 37.4139 31.5978 38.1114C28.1104 41.2843 24.201 43.9792 19.9669 46.0992C18.9825 46.592 17.9802 47.0531 16.9624 47.4824C15.5968 48.058 14.2023 48.5768 12.7803 49.0327C11.8063 49.3327 10.8739 49.5869 9.99646 49.7952C13.1079 52.3948 16.7945 54.3352 20.8391 55.4014C25.0085 54.115 29.0101 52.1672 32.6766 49.7199C35.6707 47.7218 38.4404 45.3905 40.8966 42.8124C42.2071 41.4373 43.4278 39.9927 44.5452 38.4905C45.1886 37.6259 45.7978 36.7437 46.3699 35.8444C47.7897 33.6505 48.9866 31.3111 49.9405 28.8076C50.0096 28.6251 50.0787 28.4426 50.1456 28.2586C50.1686 28.1958 50.1909 28.1337 50.2139 28.0709C50.2518 27.966 50.2882 27.8603 50.3254 27.7547C50.3818 27.5943 50.4353 27.434 50.4896 27.2736C50.5178 27.1894 50.546 27.1051 50.5728 27.0209C50.5988 26.9411 50.6248 26.8606 50.65 26.78C51.3989 24.4258 51.9428 21.9312 52.2667 19.2836C52.3261 18.7997 52.3789 18.3112 52.4227 17.8169C52.4465 17.4666 52.4614 17.1142 52.4658 16.7595C52.4235 15.0171 51.997 13.9309 51.7206 13.4048L51.7214 13.4033ZM39.4709 23.9041C35.8712 27.595 29.9588 27.5167 26.2656 23.7305C22.5724 19.9442 22.4966 13.8829 26.0962 10.1919C26.4469 9.83282 26.8191 9.50992 27.2092 9.22174C30.8259 6.55201 35.9678 6.94807 39.3015 10.3663C40.586 11.6831 41.4322 13.2755 41.8394 14.9469C42.6024 18.0822 41.8193 21.4975 39.4716 23.9049L39.4709 23.9041Z"
      fill="url(#paint2_linear_1755_5123)"
    />
    <path
      d="M13.3188 26.1572C13.3188 26.1572 13.3173 26.1557 13.3173 26.1543C12.6903 25.1102 11.5803 21.4207 11.2445 20.2798C11.1999 20.1675 11.1643 20.0545 11.1457 19.9414C9.75192 22.7907 9.01788 26.0826 9.01788 28.6555C9.01788 31.4472 9.5112 34.0792 10.4837 36.4778C11.4198 38.7847 12.7757 40.8219 14.5135 42.531C15.246 43.2515 16.0403 43.9032 16.8865 44.4855C17.9051 44.0007 18.5143 43.6261 18.5143 43.6261C21.5567 42.1069 24.5664 40.3298 27.2128 38.2209C21.0344 36.3721 16.0418 31.957 13.3188 26.1572Z"
      fill="url(#paint3_linear_1755_5123)"
    />
  </g>

  <path
    fill-rule="evenodd"
    clip-rule="evenodd"
    d="M219.429 41.3723C221.168 42.0883 223.06 42.4463 225.106 42.4463C227.101 42.4463 228.955 42.0883 230.668 41.3723C232.407 40.6563 233.915 39.6719 235.194 38.4189C236.472 37.1404 237.47 35.6573 238.186 33.9696C238.902 32.2563 239.26 30.4152 239.26 28.4463C239.26 26.4518 238.902 24.6107 238.186 22.923C237.47 21.2098 236.46 19.7267 235.155 18.4737C233.877 17.1951 232.368 16.2107 230.629 15.5203C228.916 14.8043 227.05 14.4463 225.029 14.4463C222.984 14.4463 221.092 14.8043 219.353 15.5203C217.639 16.2107 216.144 17.1951 214.865 18.4737C213.586 19.7267 212.589 21.197 211.873 22.8846C211.157 24.5723 210.799 26.4134 210.799 28.4079C210.799 30.3769 211.157 32.218 211.873 33.9312C212.589 35.6189 213.599 37.102 214.903 38.3805C216.208 39.6591 217.716 40.6563 219.429 41.3723ZM229.249 35.8874C228.047 36.6034 226.64 36.9614 225.029 36.9614C223.828 36.9614 222.728 36.7568 221.731 36.3477C220.734 35.9385 219.877 35.3632 219.161 34.6216C218.471 33.8545 217.934 32.9467 217.55 31.8983C217.166 30.8499 216.975 29.6865 216.975 28.4079C216.975 26.6947 217.307 25.2116 217.972 23.9586C218.637 22.6801 219.57 21.6956 220.772 21.0052C221.999 20.2892 223.418 19.9312 225.029 19.9312C226.231 19.9312 227.318 20.1358 228.29 20.5449C229.287 20.9285 230.144 21.5038 230.86 22.2709C231.576 23.0125 232.125 23.9075 232.509 24.9559C232.892 25.9787 233.084 27.1294 233.084 28.4079C233.084 30.0956 232.752 31.5915 232.087 32.8956C231.422 34.1741 230.476 35.1714 229.249 35.8874ZM198.618 42.3974C196.598 42.3974 194.718 42.0522 192.979 41.3618C191.266 40.6458 189.757 39.6486 188.453 38.37C187.175 37.0915 186.177 35.6084 185.462 33.9207C184.746 32.2075 184.388 30.3664 184.388 28.3974C184.388 26.4285 184.746 24.6002 185.462 22.9125C186.177 21.1992 187.175 19.7161 188.453 18.4632C189.732 17.2102 191.228 16.2385 192.941 15.5481C194.68 14.8321 196.559 14.4741 198.579 14.4741C200.727 14.4741 202.632 14.8193 204.294 15.5097C205.982 16.2002 207.452 17.1463 208.705 18.3481L204.678 22.4139C203.962 21.6467 203.093 21.0458 202.07 20.6111C201.072 20.1764 199.909 19.9591 198.579 19.9591C197.403 19.9591 196.316 20.1636 195.319 20.5728C194.347 20.9563 193.504 21.5189 192.788 22.2604C192.097 23.002 191.547 23.897 191.138 24.9454C190.755 25.9938 190.563 27.1445 190.563 28.3974C190.563 29.676 190.755 30.8394 191.138 31.8878C191.547 32.9362 192.097 33.8312 192.788 34.5728C193.504 35.3143 194.347 35.8897 195.319 36.2988C196.316 36.7079 197.403 36.9125 198.579 36.9125C199.96 36.9125 201.162 36.6951 202.185 36.2604C203.208 35.8257 204.09 35.2248 204.831 34.4577L208.897 38.5235C207.593 39.7253 206.097 40.6714 204.409 41.3618C202.747 42.0522 200.817 42.3974 198.618 42.3974ZM117.819 41.921H123.797H123.812V26.554H123.93L140.66 42.3628H141.509V15.3029H135.524V30.184H135.361C133.539 28.4095 130.749 25.8692 127.074 22.5631C123.391 19.2128 120.601 16.6357 118.705 14.7802H117.819V41.921ZM167.201 37.2915V41.9179H147.515V15.3362H166.399V19.97H153.809V25.8542H165.087V30.3261H153.809V37.2915H167.201ZM271.081 41.9179V15.3362H281.764C285.143 15.3362 287.765 16.2201 289.578 17.9583C291.398 19.6965 292.324 21.7883 292.324 24.2484C292.324 26.8704 291.352 29.0064 289.455 30.7446C287.557 32.4755 285.104 33.3225 282.065 33.3225H277.421V41.9106H271.089L271.081 41.9179ZM277.375 19.8144V28.8517H280.669C284.51 28.8517 286.03 26.7968 286.03 24.3736C286.03 21.8325 284.209 19.8144 280.707 19.8144H277.375ZM455.902 41.921H449.924V14.7802H450.809C452.706 16.6357 455.496 19.2128 459.178 22.5631C462.854 25.8692 465.643 28.4095 467.466 30.184H467.629V15.3029H473.614V42.3628H472.765L456.034 26.554H455.916V41.921H455.902ZM347.445 17.6784C345.458 16.1022 342.998 15.3362 340.121 15.3362H340.113H328.804V41.9179H335.116V19.8954H338.929C342.193 19.8954 344.266 21.8325 344.266 24.8965C344.266 27.5186 342.108 30.0155 337.7 30.5016V31.0687L345.071 41.9179H352.272L344.901 32.1146C348.668 30.4647 350.493 27.1135 350.493 24.0495C350.493 21.3464 349.48 19.2104 347.445 17.6784ZM254.645 15.3362C257.536 15.3362 260.008 16.1022 262.005 17.6784C264.049 19.2104 265.067 21.3464 265.067 24.0495C265.067 27.1135 263.233 30.4647 259.448 32.1146L266.855 41.9179H259.619L252.213 31.0687V30.5016C256.643 30.0155 258.811 27.5186 258.811 24.8965C258.811 21.8325 256.728 19.8954 253.449 19.8954H249.617V41.9179H243.276V15.3362H254.638H254.645ZM372.598 37.749L374.417 41.918H380.522L368.052 15.0026H367.165L354.496 41.918H360.491L362.354 37.749H372.598ZM364.172 33.6679L367.454 26.3393H367.609L370.809 33.6679H364.172ZM389.016 20.4944V41.9179H395.051V20.4944H403.545V15.3362H380.522V20.4944H389.016ZM407.549 41.9179V15.3362H413.555V41.9179H407.549ZM76 41.921H81.9778H81.9926V26.554H82.1107L98.8413 42.3628H99.69V15.3029H93.7048V30.184H93.5424C91.7195 28.4095 88.9299 25.8692 85.2546 22.5631C81.5719 19.2128 78.7823 16.6357 76.8856 14.7802H76V41.921ZM105.807 41.9179V15.3362H111.813V41.9179H105.807ZM310.635 42.4463C308.589 42.4463 306.697 42.0883 304.958 41.3723C303.245 40.6563 301.736 39.6591 300.432 38.3805C299.128 37.102 298.118 35.6189 297.402 33.9312C296.686 32.218 296.328 30.3769 296.328 28.4079C296.328 26.4134 296.686 24.5723 297.402 22.8846C298.118 21.197 299.115 19.7267 300.394 18.4737C301.672 17.1951 303.168 16.2107 304.881 15.5203C306.62 14.8043 308.512 14.4463 310.558 14.4463C312.578 14.4463 314.445 14.8043 316.158 15.5203C317.897 16.2107 319.406 17.1951 320.684 18.4737C321.988 19.7267 322.998 21.2098 323.714 22.923C324.43 24.6107 324.788 26.4518 324.788 28.4463C324.788 30.4152 324.43 32.2563 323.714 33.9696C322.998 35.6573 322.001 37.1404 320.723 38.4189C319.444 39.6719 317.935 40.6563 316.197 41.3723C314.483 42.0883 312.629 42.4463 310.635 42.4463ZM310.558 36.9614C312.169 36.9614 313.576 36.6034 314.777 35.8874C316.005 35.1714 316.951 34.1741 317.616 32.8956C318.281 31.5915 318.613 30.0956 318.613 28.4079C318.613 27.1294 318.421 25.9787 318.038 24.9559C317.654 23.9075 317.104 23.0125 316.388 22.2709C315.672 21.5038 314.816 20.9285 313.818 20.5449C312.847 20.1358 311.76 19.9312 310.558 19.9312C308.947 19.9312 307.528 20.2892 306.301 21.0052C305.099 21.6956 304.165 22.6801 303.501 23.9586C302.836 25.2116 302.503 26.6947 302.503 28.4079C302.503 29.6865 302.695 30.8499 303.079 31.8983C303.462 32.9467 303.999 33.8545 304.69 34.6216C305.406 35.3632 306.262 35.9385 307.26 36.3477C308.257 36.7568 309.356 36.9614 310.558 36.9614ZM426.189 41.3723C427.927 42.0883 429.82 42.4463 431.865 42.4463C433.86 42.4463 435.714 42.0883 437.427 41.3723C439.166 40.6563 440.674 39.6719 441.953 38.4189C443.232 37.1404 444.229 35.6573 444.945 33.9696C445.661 32.2563 446.019 30.4152 446.019 28.4463C446.019 26.4518 445.661 24.6107 444.945 22.923C444.229 21.2098 443.219 19.7267 441.915 18.4737C440.636 17.1951 439.127 16.2107 437.389 15.5203C435.675 14.8043 433.809 14.4463 431.789 14.4463C429.743 14.4463 427.851 14.8043 426.112 15.5203C424.399 16.2107 422.903 17.1951 421.624 18.4737C420.346 19.7267 419.348 21.197 418.632 22.8846C417.916 24.5723 417.558 26.4134 417.558 28.4079C417.558 30.3769 417.916 32.218 418.632 33.9312C419.348 35.6189 420.358 37.102 421.663 38.3805C422.967 39.6591 424.475 40.6563 426.189 41.3723ZM436.008 35.8874C434.806 36.6034 433.4 36.9614 431.789 36.9614C430.587 36.9614 429.487 36.7568 428.49 36.3477C427.493 35.9385 426.636 35.3632 425.92 34.6216C425.23 33.8545 424.693 32.9467 424.309 31.8983C423.926 30.8499 423.734 29.6865 423.734 28.4079C423.734 26.6947 424.066 25.2116 424.731 23.9586C425.396 22.6801 426.329 21.6956 427.531 21.0052C428.758 20.2892 430.178 19.9312 431.789 19.9312C432.99 19.9312 434.077 20.1358 435.049 20.5449C436.046 20.9285 436.903 21.5038 437.619 22.2709C438.335 23.0125 438.885 23.9075 439.268 24.9559C439.652 25.9787 439.843 27.1294 439.843 28.4079C439.843 30.0956 439.511 31.5915 438.846 32.8956C438.181 34.1741 437.235 35.1714 436.008 35.8874Z"
    fill="black"
  />
  <defs>
    <linearGradient
      id="paint0_linear_1755_5123"
      x1="24.935"
      y1="78.3338"
      x2="15.8177"
      y2="-29.6034"
      gradientUnits="userSpaceOnUse"
    >
      <stop stop-color="#7747E2" />
      <stop offset="0.713542" stop-color="#7CA5EF" />
    </linearGradient>
    <linearGradient
      id="paint1_linear_1755_5123"
      x1="25.8371"
      y1="74.7216"
      x2="63.3915"
      y2="0.501122"
      gradientUnits="userSpaceOnUse"
    >
      <stop stop-color="#7747E2" />
      <stop offset="1" stop-color="#7CA5EF" />
    </linearGradient>
    <linearGradient
      id="paint2_linear_1755_5123"
      x1="9.99646"
      y1="73.1481"
      x2="35.0851"
      y2="-6.53802"
      gradientUnits="userSpaceOnUse"
    >
      <stop offset="0.0252051" stop-color="#7747E2" />
      <stop offset="1" stop-color="#7CA5EF" />
    </linearGradient>
    <linearGradient
      id="paint3_linear_1755_5123"
      x1="25.0726"
      y1="67.5823"
      x2="15.5007"
      y2="8.3511"
      gradientUnits="userSpaceOnUse"
    >
      <stop stop-color="#6F47E2" />
      <stop offset="1" stop-color="#7CA5EF" />
    </linearGradient>
  </defs>
</svg>
