<svg
  width="285"
  height="162"
  viewBox="0 0 285 162"
  fill="none"
  xmlns="http://www.w3.org/2000/svg"
>
  <g>
    <path
      d="M95.3916 61.2336C95.3916 50.7388 98.8543 40.7713 105.24 32.6246C105.431 27.3091 106.477 23.6578 106.837 22.5415C107.141 21.6453 107.466 20.7602 107.813 19.8861C109.489 15.6664 111.665 11.6983 114.267 8.05176C113.589 8.40486 112.918 8.76746 112.258 9.14431C98.1442 17.1833 87.6192 30.7388 83.6535 46.8563C82.582 51.4418 82.0137 56.2269 82.0137 61.1465C82.0137 66.0662 82.5566 70.628 83.5802 75.1153C86.0368 85.3299 91.1249 94.5279 98.0933 101.96C98.6791 101.815 99.2634 101.666 99.8461 101.512C103.954 100.425 107.97 99.115 111.884 97.5997C101.615 89.2567 95.3932 76.4153 95.3932 61.2336H95.3916Z"
      fill="url(#paint0_linear_1755_5173)"
    />
    <path
      d="M199.132 43.1982C195.654 76.5874 172.273 106.581 137.379 120.889C138.885 121.002 140.28 120.889 141.816 120.889C174.897 120.889 201.745 94.286 202.016 61.3666C201.982 55.0333 200.974 48.93 199.134 43.1982H199.132Z"
      fill="url(#paint1_linear_1755_5173)"
    />
    <path
      d="M192.845 28.7103H192.842C192.194 27.6415 191.509 26.5949 190.801 25.5689C179.853 10.6437 162.132 0.945312 142.132 0.945312C138.302 0.945312 134.554 1.30158 130.921 1.98244C127.256 2.66964 123.916 4.52856 121.41 7.27577C121.34 7.35336 121.27 7.43094 121.2 7.50853C116.692 12.5279 113.388 18.6383 111.734 25.3931C111.025 28.2891 110.62 31.304 110.554 34.4011C110.548 34.6972 110.543 34.9949 110.543 35.2941C110.543 37.5236 110.721 39.7118 111.059 41.8463C111.145 42.0996 111.193 42.3704 111.193 42.6522C111.193 42.6522 111.193 42.6522 111.193 42.6538C114.689 62.1883 131.849 77.0201 152.495 77.0201H154.257C152.794 78.613 151.283 80.1615 149.723 81.6563C142.25 88.4554 133.873 94.2301 124.8 98.7729C122.69 99.829 120.543 100.817 118.362 101.737C115.435 102.97 112.447 104.082 109.4 105.059C107.313 105.702 105.315 106.247 103.435 106.693C110.102 112.263 118.002 116.422 126.669 118.706C135.603 115.95 144.178 111.776 152.035 106.532C158.451 102.25 164.386 97.2544 169.649 91.7299C172.458 88.7832 175.073 85.6876 177.468 82.4685C178.846 80.616 180.152 78.7254 181.378 76.7984C184.42 72.0972 186.985 67.0842 189.029 61.7196C189.177 61.3285 189.325 60.9374 189.468 60.5431C189.518 60.4085 189.566 60.2755 189.615 60.1409C189.696 59.9161 189.774 59.6897 189.854 59.4632C189.975 59.1196 190.089 58.776 190.206 58.4324C190.266 58.2519 190.327 58.0714 190.384 57.8909C190.44 57.7199 190.495 57.5473 190.549 57.3747C192.154 52.33 193.32 46.9844 194.014 41.3111C194.141 40.2739 194.254 39.2273 194.348 38.168C194.399 37.4175 194.431 36.6622 194.44 35.9022C194.35 32.1685 193.436 29.8409 192.844 28.7135L192.845 28.7103ZM166.594 51.2121C158.881 59.1212 146.211 58.9534 138.297 50.84C130.383 42.7266 130.221 29.738 137.934 21.8289C138.686 21.0593 139.483 20.3674 140.319 19.7498C148.069 14.029 159.088 14.8777 166.231 22.2025C168.984 25.0242 170.797 28.4364 171.669 32.0181C173.304 38.7365 171.626 46.055 166.596 51.2137L166.594 51.2121Z"
      fill="url(#paint2_linear_1755_5173)"
    />
    <path
      d="M110.554 56.0393C110.554 56.0393 110.551 56.0362 110.551 56.033C109.207 53.7957 106.829 45.8897 106.109 43.4449C106.014 43.2043 105.937 42.962 105.897 42.7197C102.911 48.8253 101.338 55.8794 101.338 61.3928C101.338 67.3749 102.395 73.015 104.479 78.1548C106.485 83.0982 109.39 87.4636 113.114 91.126C114.684 92.6699 116.386 94.0664 118.199 95.3141C120.382 94.2754 121.687 93.4726 121.687 93.4726C128.207 90.2172 134.656 86.4091 140.327 81.89C127.087 77.9283 116.389 68.4675 110.554 56.0393Z"
      fill="url(#paint3_linear_1755_5173)"
    />
  </g>

  <path
    fill-rule="evenodd"
    clip-rule="evenodd"
    d="M102.459 161.178C103.701 161.69 105.052 161.945 106.513 161.945C107.938 161.945 109.262 161.69 110.486 161.178C111.728 160.667 112.806 159.964 113.719 159.069C114.632 158.155 115.344 157.096 115.856 155.891C116.367 154.667 116.623 153.352 116.623 151.945C116.623 150.521 116.367 149.206 115.856 148C115.344 146.776 114.623 145.717 113.691 144.822C112.778 143.909 111.701 143.206 110.458 142.712C109.235 142.201 107.901 141.945 106.458 141.945C104.997 141.945 103.646 142.201 102.404 142.712C101.18 143.206 100.111 143.909 99.1982 144.822C98.285 145.717 97.5727 146.767 97.0612 147.973C96.5498 149.178 96.2941 150.493 96.2941 151.918C96.2941 153.324 96.5498 154.639 97.0612 155.863C97.5727 157.069 98.2941 158.128 99.2256 159.041C100.157 159.954 101.235 160.667 102.459 161.178ZM109.472 157.26C108.614 157.772 107.609 158.028 106.458 158.028C105.6 158.028 104.815 157.881 104.102 157.589C103.39 157.297 102.778 156.886 102.267 156.356C101.774 155.808 101.39 155.16 101.116 154.411C100.842 153.662 100.705 152.831 100.705 151.918C100.705 150.694 100.943 149.635 101.417 148.74C101.892 147.827 102.559 147.123 103.417 146.63C104.294 146.119 105.308 145.863 106.458 145.863C107.317 145.863 108.093 146.009 108.787 146.301C109.5 146.575 110.111 146.986 110.623 147.534C111.134 148.064 111.527 148.703 111.801 149.452C112.075 150.183 112.212 151.005 112.212 151.918C112.212 153.123 111.974 154.192 111.5 155.123C111.025 156.037 110.349 156.749 109.472 157.26ZM87.5929 161.91C86.15 161.91 84.8075 161.663 83.5655 161.17C82.3418 160.659 81.2641 159.947 80.3326 159.033C79.4194 158.12 78.7071 157.061 78.1956 155.855C77.6842 154.632 77.4285 153.316 77.4285 151.91C77.4285 150.504 77.6842 149.198 78.1956 147.992C78.7071 146.768 79.4194 145.709 80.3326 144.814C81.2459 143.919 82.3144 143.225 83.5381 142.732C84.7801 142.221 86.1226 141.965 87.5655 141.965C89.0998 141.965 90.4605 142.211 91.6477 142.705C92.8532 143.198 93.9034 143.874 94.7984 144.732L91.9217 147.636C91.4102 147.088 90.7893 146.659 90.0587 146.348C89.3463 146.038 88.5153 145.883 87.5655 145.883C86.7253 145.883 85.9491 146.029 85.2367 146.321C84.5427 146.595 83.9399 146.997 83.4285 147.526C82.9354 148.056 82.5427 148.695 82.2504 149.444C81.9765 150.193 81.8395 151.015 81.8395 151.91C81.8395 152.823 81.9765 153.654 82.2504 154.403C82.5427 155.152 82.9354 155.791 83.4285 156.321C83.9399 156.851 84.5427 157.262 85.2367 157.554C85.9491 157.846 86.7253 157.992 87.5655 157.992C88.5518 157.992 89.4103 157.837 90.1408 157.526C90.8714 157.216 91.5016 156.787 92.0312 156.239L94.9354 159.143C94.0039 160.001 92.9354 160.677 91.7299 161.17C90.5427 161.663 89.1637 161.91 87.5929 161.91ZM29.8796 161.57H34.1495H34.1601V150.593H34.2444L46.1948 161.886H46.801V142.557H42.5259V153.186H42.4099C41.1079 151.919 39.1152 150.104 36.49 147.743C33.8596 145.35 31.867 143.509 30.5122 142.184H29.8796V161.57ZM65.1524 158.263V161.568H51.0909V142.581H64.5794V145.891H55.5871V150.094H63.6427V153.288H55.5871V158.263H65.1524ZM139.352 161.568V142.581H146.983C149.396 142.581 151.27 143.212 152.564 144.454C153.865 145.696 154.526 147.19 154.526 148.947C154.526 150.82 153.832 152.345 152.476 153.587C151.121 154.823 149.369 155.428 147.198 155.428H143.881V161.563H139.358L139.352 161.568ZM143.848 145.78V152.235H146.201C148.945 152.235 150.03 150.767 150.03 149.036C150.03 147.221 148.73 145.78 146.228 145.78H143.848ZM271.367 161.57H267.097V142.184H267.729C269.084 143.509 271.077 145.35 273.707 147.743C276.333 150.104 278.325 151.919 279.627 153.186H279.743V142.557H284.018V161.886H283.412L271.462 150.593H271.377V161.57H271.367ZM193.898 144.254C192.478 143.128 190.721 142.581 188.666 142.581H188.661H180.583V161.568H185.092V145.838H187.815C190.147 145.838 191.627 147.221 191.627 149.41C191.627 151.283 190.086 153.066 186.937 153.413V153.819L192.202 161.568H197.346L192.081 154.566C194.771 153.387 196.075 150.993 196.075 148.805C196.075 146.874 195.351 145.348 193.898 144.254ZM127.613 142.581C129.678 142.581 131.443 143.128 132.87 144.254C134.33 145.348 135.057 146.874 135.057 148.805C135.057 150.993 133.747 153.387 131.043 154.566L136.333 161.568H131.165L125.875 153.819V153.413C129.039 153.066 130.588 151.283 130.588 149.41C130.588 147.221 129.1 145.838 126.758 145.838H124.021V161.568H119.492V142.581H127.607H127.613ZM211.865 158.59L213.163 161.568H217.524L208.618 142.343H207.984L198.935 161.568H203.216L204.547 158.59H211.865ZM205.846 155.675L208.19 150.44H208.301L210.587 155.675H205.846ZM223.592 146.265V161.568H227.902V146.265H233.969V142.581H217.524V146.265H223.592ZM236.829 161.568V142.581H241.119V161.568H236.829ZM0.0090332 161.57H4.27891H4.28947V150.593H4.37381L16.3242 161.886H16.9304V142.557H12.6553V153.186H12.5393C11.2373 151.919 9.24463 150.104 6.61944 147.743C3.98898 145.35 1.99637 143.509 0.641607 142.184H0.0090332V161.57ZM21.2998 161.568V142.581H25.5897V161.568H21.2998ZM167.605 161.945C166.144 161.945 164.792 161.69 163.55 161.178C162.326 160.667 161.249 159.954 160.317 159.041C159.386 158.128 158.664 157.069 158.153 155.863C157.642 154.639 157.386 153.324 157.386 151.918C157.386 150.493 157.642 149.178 158.153 147.973C158.664 146.767 159.377 145.717 160.29 144.822C161.203 143.909 162.272 143.206 163.495 142.712C164.737 142.201 166.089 141.945 167.55 141.945C168.993 141.945 170.326 142.201 171.55 142.712C172.792 143.206 173.87 143.909 174.783 144.822C175.715 145.717 176.436 146.776 176.947 148C177.459 149.206 177.715 150.521 177.715 151.945C177.715 153.352 177.459 154.667 176.947 155.891C176.436 157.096 175.724 158.155 174.811 159.069C173.897 159.964 172.82 160.667 171.578 161.178C170.354 161.69 169.03 161.945 167.605 161.945ZM167.55 158.028C168.701 158.028 169.705 157.772 170.564 157.26C171.441 156.749 172.116 156.037 172.591 155.123C173.066 154.192 173.304 153.123 173.304 151.918C173.304 151.005 173.167 150.183 172.893 149.452C172.619 148.703 172.226 148.064 171.715 147.534C171.203 146.986 170.591 146.575 169.879 146.301C169.185 146.009 168.409 145.863 167.55 145.863C166.4 145.863 165.386 146.119 164.509 146.63C163.651 147.123 162.984 147.827 162.509 148.74C162.034 149.635 161.797 150.694 161.797 151.918C161.797 152.831 161.934 153.662 162.208 154.411C162.482 155.16 162.865 155.808 163.358 156.356C163.87 156.886 164.482 157.297 165.194 157.589C165.906 157.881 166.692 158.028 167.55 158.028ZM250.143 161.178C251.385 161.69 252.737 161.945 254.198 161.945C255.623 161.945 256.947 161.69 258.171 161.178C259.413 160.667 260.49 159.964 261.404 159.069C262.317 158.155 263.029 157.096 263.54 155.891C264.052 154.667 264.308 153.352 264.308 151.945C264.308 150.521 264.052 149.206 263.54 148C263.029 146.776 262.308 145.717 261.376 144.822C260.463 143.909 259.385 143.206 258.143 142.712C256.919 142.201 255.586 141.945 254.143 141.945C252.682 141.945 251.33 142.201 250.088 142.712C248.865 143.206 247.796 143.909 246.883 144.822C245.97 145.717 245.257 146.767 244.746 147.973C244.235 149.178 243.979 150.493 243.979 151.918C243.979 153.324 244.235 154.639 244.746 155.863C245.257 157.069 245.979 158.128 246.91 159.041C247.842 159.954 248.92 160.667 250.143 161.178ZM257.157 157.26C256.298 157.772 255.294 158.028 254.143 158.028C253.285 158.028 252.499 157.881 251.787 157.589C251.075 157.297 250.463 156.886 249.951 156.356C249.458 155.808 249.075 155.16 248.801 154.411C248.527 153.662 248.39 152.831 248.39 151.918C248.39 150.694 248.627 149.635 249.102 148.74C249.577 147.827 250.244 147.123 251.102 146.63C251.979 146.119 252.993 145.863 254.143 145.863C255.002 145.863 255.778 146.009 256.472 146.301C257.184 146.575 257.796 146.986 258.308 147.534C258.819 148.064 259.212 148.703 259.486 149.452C259.76 150.183 259.897 151.005 259.897 151.918C259.897 153.123 259.659 154.192 259.184 155.123C258.709 156.037 258.034 156.749 257.157 157.26Z"
    fill="black"
  />
  <defs>
    <linearGradient
      id="paint0_linear_1755_5173"
      x1="135.446"
      y1="167.847"
      x2="115.909"
      y2="-63.447"
      gradientUnits="userSpaceOnUse"
    >
      <stop stop-color="#7747E2" />
      <stop offset="0.713542" stop-color="#7CA5EF" />
    </linearGradient>
    <linearGradient
      id="paint1_linear_1755_5173"
      x1="137.379"
      y1="160.107"
      x2="217.853"
      y2="1.06337"
      gradientUnits="userSpaceOnUse"
    >
      <stop stop-color="#7747E2" />
      <stop offset="1" stop-color="#7CA5EF" />
    </linearGradient>
    <linearGradient
      id="paint2_linear_1755_5173"
      x1="103.435"
      y1="156.735"
      x2="157.196"
      y2="-14.0211"
      gradientUnits="userSpaceOnUse"
    >
      <stop offset="0.0252051" stop-color="#7747E2" />
      <stop offset="1" stop-color="#7CA5EF" />
    </linearGradient>
    <linearGradient
      id="paint3_linear_1755_5173"
      x1="135.741"
      y1="144.807"
      x2="115.23"
      y2="17.8833"
      gradientUnits="userSpaceOnUse"
    >
      <stop stop-color="#6F47E2" />
      <stop offset="1" stop-color="#7CA5EF" />
    </linearGradient>
  </defs>
</svg>
