<svg
  width="399"
  height="29"
  viewBox="0 0 399 29"
  fill="none"
  xmlns="http://www.w3.org/2000/svg"
>
  <path
    d="M195.926 27.9176V1.33594H206.609C209.988 1.33594 212.61 2.21979 214.423 3.95802C216.243 5.69625 217.169 7.78802 217.169 10.2481C217.169 12.8701 216.197 15.0061 214.3 16.7443C212.402 18.4752 209.949 19.3222 206.91 19.3222H202.266V27.9103H195.934L195.926 27.9176ZM202.22 5.8141V14.8514H205.514C209.355 14.8514 210.875 12.7965 210.875 10.3733C210.875 7.83221 209.054 5.8141 205.552 5.8141H202.212H202.22Z"
    fill="currentColor"
  />
  <path
    d="M92.0458 23.2839V27.9176H72.3597V1.33594H91.2436V5.96971H78.6543V11.8539H89.9322V16.3258H78.6543V23.2912H92.0458V23.2839Z"
    fill="currentColor"
  />
  <path
    d="M48.6418 27.9212H42.6639V0.780273H43.5495C45.4462 2.63581 48.2359 5.21294 51.9185 8.56322C55.5938 11.8693 58.3835 14.4096 60.2063 16.1842H60.3687V1.30307H66.3539V28.363H65.5052L48.7746 12.5541H48.6566V27.9212H48.6418Z"
    fill="currentColor"
  />
  <path
    d="M380.747 27.9212H374.769V0.780273H375.654C377.551 2.63581 380.341 5.21294 384.023 8.56322C387.699 11.8693 390.488 14.4096 392.311 16.1842H392.473V1.30307H398.459V28.363H397.61L380.879 12.5541H380.761V27.9212H380.747Z"
    fill="currentColor"
  />
  <path
    d="M264.966 1.33594C267.843 1.33594 270.303 2.10194 272.29 3.67813C274.325 5.21013 275.338 7.3461 275.338 10.0492C275.338 13.1132 273.513 16.4645 269.746 18.1143L277.117 27.9176H269.916L262.544 17.0684V16.5013C266.953 16.0152 269.111 13.5183 269.111 10.8962C269.111 7.83221 267.038 5.89512 263.774 5.89512H259.961V27.9176H253.649V1.33594H264.958H264.966Z"
    fill="currentColor"
  />
  <path
    d="M179.49 1.33594C182.381 1.33594 184.853 2.10194 186.85 3.67813C188.894 5.21013 189.912 7.3461 189.912 10.0492C189.912 13.1132 188.078 16.4645 184.293 18.1143L191.699 27.9176H184.464L177.058 17.0684V16.5013C181.488 16.0152 183.656 13.5183 183.656 10.8962C183.656 7.83221 181.573 5.89512 178.294 5.89512H174.462V27.9176H168.121V1.33594H179.483H179.49Z"
    fill="currentColor"
  />
  <path
    d="M299.262 27.9183L297.443 23.7493H287.199L285.336 27.9183H279.341L292.01 1.00293H292.897L305.367 27.9183H299.254H299.262ZM292.299 12.3396L289.017 19.6681H295.654L292.454 12.3396H292.291H292.299Z"
    fill="currentColor"
  />
  <path
    d="M123.463 28.3979C121.443 28.3979 119.563 28.0527 117.824 27.3623C116.111 26.6463 114.602 25.649 113.298 24.3705C112.02 23.092 111.022 21.6089 110.307 19.9212C109.591 18.2079 109.233 16.3668 109.233 14.3979C109.233 12.4289 109.591 10.6006 110.307 8.91297C111.022 7.19972 112.02 5.71662 113.298 4.46365C114.577 3.21068 116.073 2.23899 117.786 1.54858C119.525 0.832601 121.404 0.474609 123.424 0.474609C125.572 0.474609 127.477 0.819814 129.139 1.51022C130.827 2.20064 132.297 3.14675 133.55 4.34858L129.523 8.41434C128.807 7.64721 127.938 7.0463 126.915 6.6116C125.918 6.17689 124.754 5.95954 123.424 5.95954C122.248 5.95954 121.161 6.16411 120.164 6.57324C119.192 6.9568 118.349 7.51936 117.633 8.26091C116.942 9.00246 116.392 9.89744 115.983 10.9458C115.6 11.9942 115.408 13.1449 115.408 14.3979C115.408 15.6764 115.6 16.8399 115.983 17.8883C116.392 18.9367 116.942 19.8317 117.633 20.5732C118.349 21.3148 119.192 21.8901 120.164 22.2993C121.161 22.7084 122.248 22.913 123.424 22.913C124.805 22.913 126.007 22.6956 127.03 22.2609C128.053 21.8262 128.935 21.2253 129.676 20.4582L133.742 24.5239C132.438 25.7258 130.942 26.6719 129.254 27.3623C127.592 28.0527 125.662 28.3979 123.463 28.3979Z"
    fill="currentColor"
  />
  <path
    d="M313.861 27.9176V1.71245H319.896V27.9176H313.861ZM305.367 6.49414V1.33594H328.39V6.49414H305.367Z"
    fill="currentColor"
  />
  <path
    d="M332.394 27.9176V1.33594H338.399V27.9176H332.394Z"
    fill="currentColor"
  />
  <path
    d="M6.82281 27.9212H0.844971V0.780273H1.73058C3.62725 2.63581 6.41691 5.21294 10.0996 8.56322C13.7748 11.8693 16.5645 14.4096 18.3874 16.1842H18.5497V1.30307H24.535V28.363H23.6863L6.95567 12.5541H6.83759V27.9212H6.82281Z"
    fill="currentColor"
  />
  <path
    d="M30.6522 27.9176V1.33588H36.6581V27.9176H30.6522Z"
    fill="currentColor"
  />
  <path
    d="M149.951 28.4463C147.905 28.4463 146.013 28.0883 144.274 27.3723C142.561 26.6563 141.053 25.6591 139.748 24.3805C138.444 23.102 137.434 21.6189 136.718 19.9312C136.002 18.218 135.644 16.3769 135.644 14.4079C135.644 12.4134 136.002 10.5723 136.718 8.88465C137.434 7.19698 138.432 5.72666 139.71 4.47369C140.989 3.19515 142.484 2.21067 144.198 1.52026C145.937 0.80428 147.829 0.446289 149.874 0.446289C151.895 0.446289 153.761 0.80428 155.474 1.52026C157.213 2.21067 158.722 3.19515 160 4.47369C161.305 5.72666 162.315 7.20976 163.031 8.923C163.747 10.6107 164.105 12.4518 164.105 14.4463C164.105 16.4152 163.747 18.2563 163.031 19.9696C162.315 21.6573 161.317 23.1404 160.039 24.4189C158.76 25.6719 157.252 26.6563 155.513 27.3723C153.8 28.0883 151.946 28.4463 149.951 28.4463ZM149.874 22.9614C151.485 22.9614 152.892 22.6034 154.094 21.8874C155.321 21.1714 156.267 20.1741 156.932 18.8956C157.597 17.5915 157.929 16.0956 157.929 14.4079C157.929 13.1294 157.737 11.9787 157.354 10.9559C156.97 9.90748 156.421 9.0125 155.705 8.27095C154.989 7.50382 154.132 6.92848 153.135 6.54492C152.163 6.13579 151.076 5.93122 149.874 5.93122C148.263 5.93122 146.844 6.28921 145.617 7.00519C144.415 7.69561 143.482 8.68008 142.817 9.95862C142.152 11.2116 141.82 12.6947 141.82 14.4079C141.82 15.6865 142.011 16.8499 142.395 17.8983C142.779 18.9467 143.316 19.8545 144.006 20.6216C144.722 21.3632 145.579 21.9385 146.576 22.3477C147.573 22.7568 148.673 22.9614 149.874 22.9614Z"
    fill="currentColor"
  />
  <path
    d="M235.48 28.4463C233.434 28.4463 231.542 28.0883 229.803 27.3723C228.09 26.6563 226.581 25.6591 225.277 24.3805C223.973 23.102 222.963 21.6189 222.247 19.9312C221.531 18.218 221.173 16.3769 221.173 14.4079C221.173 12.4134 221.531 10.5723 222.247 8.88465C222.963 7.19698 223.96 5.72666 225.239 4.47369C226.517 3.19515 228.013 2.21067 229.726 1.52026C231.465 0.80428 233.357 0.446289 235.403 0.446289C237.423 0.446289 239.29 0.80428 241.003 1.52026C242.742 2.21067 244.251 3.19515 245.529 4.47369C246.833 5.72666 247.843 7.20976 248.559 8.923C249.275 10.6107 249.633 12.4518 249.633 14.4463C249.633 16.4152 249.275 18.2563 248.559 19.9696C247.843 21.6573 246.846 23.1404 245.568 24.4189C244.289 25.6719 242.78 26.6563 241.041 27.3723C239.328 28.0883 237.474 28.4463 235.48 28.4463ZM235.403 22.9614C237.014 22.9614 238.42 22.6034 239.622 21.8874C240.85 21.1714 241.796 20.1741 242.461 18.8956C243.126 17.5915 243.458 16.0956 243.458 14.4079C243.458 13.1294 243.266 11.9787 242.883 10.9559C242.499 9.90748 241.949 9.0125 241.233 8.27095C240.517 7.50382 239.661 6.92848 238.663 6.54492C237.692 6.13579 236.605 5.93122 235.403 5.93122C233.792 5.93122 232.373 6.28921 231.146 7.00519C229.944 7.69561 229.01 8.68008 228.346 9.95862C227.681 11.2116 227.348 12.6947 227.348 14.4079C227.348 15.6865 227.54 16.8499 227.924 17.8983C228.307 18.9467 228.844 19.8545 229.535 20.6216C230.251 21.3632 231.107 21.9385 232.104 22.3477C233.102 22.7568 234.201 22.9614 235.403 22.9614Z"
    fill="currentColor"
  />
  <path
    d="M356.71 28.4463C354.665 28.4463 352.772 28.0883 351.034 27.3723C349.32 26.6563 347.812 25.6591 346.508 24.3805C345.203 23.102 344.193 21.6189 343.477 19.9312C342.761 18.218 342.403 16.3769 342.403 14.4079C342.403 12.4134 342.761 10.5723 343.477 8.88465C344.193 7.19698 345.191 5.72666 346.469 4.47369C347.748 3.19515 349.244 2.21067 350.957 1.52026C352.696 0.80428 354.588 0.446289 356.634 0.446289C358.654 0.446289 360.52 0.80428 362.234 1.52026C363.972 2.21067 365.481 3.19515 366.76 4.47369C368.064 5.72666 369.074 7.20976 369.79 8.923C370.506 10.6107 370.864 12.4518 370.864 14.4463C370.864 16.4152 370.506 18.2563 369.79 19.9696C369.074 21.6573 368.077 23.1404 366.798 24.4189C365.519 25.6719 364.011 26.6563 362.272 27.3723C360.559 28.0883 358.705 28.4463 356.71 28.4463ZM356.634 22.9614C358.245 22.9614 359.651 22.6034 360.853 21.8874C362.08 21.1714 363.026 20.1741 363.691 18.8956C364.356 17.5915 364.688 16.0956 364.688 14.4079C364.688 13.1294 364.497 11.9787 364.113 10.9559C363.729 9.90748 363.18 9.0125 362.464 8.27095C361.748 7.50382 360.891 6.92848 359.894 6.54492C358.922 6.13579 357.835 5.93122 356.634 5.93122C355.023 5.93122 353.603 6.28921 352.376 7.00519C351.174 7.69561 350.241 8.68008 349.576 9.95862C348.911 11.2116 348.579 12.6947 348.579 14.4079C348.579 15.6865 348.771 16.8499 349.154 17.8983C349.538 18.9467 350.075 19.8545 350.765 20.6216C351.481 21.3632 352.338 21.9385 353.335 22.3477C354.332 22.7568 355.432 22.9614 356.634 22.9614Z"
    fill="currentColor"
  />
</svg>
