<svg
  width="121"
  height="121"
  viewBox="0 0 121 121"
  fill="none"
  xmlns="http://www.w3.org/2000/svg"
>
  <g clip-path="url(#clip0_1754_4766)">
    <g clip-path="url(#clip1_1754_4766)">
      <path
        d="M13.9748 60.7346C13.9748 50.2398 17.4375 40.2722 23.8232 32.1256C24.0142 26.8101 25.0602 23.1588 25.42 22.0425C25.7241 21.1463 26.0489 20.2612 26.3959 19.3871C28.0723 15.1673 30.2487 11.1993 32.8501 7.55273C32.1719 7.90583 31.5016 8.26843 30.8409 8.64528C16.7275 16.6842 6.2025 30.2398 2.23672 46.3573C1.16528 50.9428 0.596924 55.7279 0.596924 60.6475C0.596924 65.5672 1.13981 70.1289 2.16349 74.6163C4.62001 84.8309 9.70817 94.0289 16.6765 101.461C17.2624 101.316 17.8467 101.167 18.4294 101.013C22.5368 99.9255 26.5535 98.616 30.4668 97.1007C20.1981 88.7577 13.9764 75.9163 13.9764 60.7346H13.9748Z"
        fill="url(#paint0_linear_1754_4766)"
      />
      <path
        d="M117.716 42.6992C114.237 76.0884 90.8565 106.082 55.9622 120.39C57.4682 120.503 58.8629 120.39 60.3992 120.39C93.4802 120.39 120.328 93.787 120.599 60.8676C120.566 54.5342 119.558 48.431 117.717 42.6992H117.716Z"
        fill="url(#paint1_linear_1754_4766)"
      />
      <path
        d="M111.428 28.2113H111.425C110.777 27.1425 110.093 26.0959 109.384 25.0698C98.4357 10.1446 80.7147 0.446289 60.7155 0.446289C56.8851 0.446289 53.1374 0.802555 49.5044 1.48342C45.8395 2.17062 42.4994 4.02954 39.9935 6.77675C39.9235 6.85433 39.8534 6.93192 39.7834 7.00951C35.2747 12.0289 31.9713 18.1393 30.3171 24.8941C29.6087 27.7901 29.2027 30.8049 29.1374 33.9021C29.1311 34.1982 29.1263 34.4958 29.1263 34.7951C29.1263 37.0245 29.3046 39.2128 29.6421 41.3472C29.7281 41.6006 29.7758 41.8714 29.7758 42.1532C29.7758 42.1532 29.7758 42.1532 29.7758 42.1548C33.272 61.6893 50.4325 76.521 71.0781 76.521H72.8405C71.3774 78.1139 69.8666 79.6625 68.3064 81.1572C60.8333 87.9564 52.456 93.7311 43.383 98.2739C41.2735 99.33 39.1259 100.318 36.9448 101.238C34.0186 102.471 31.0304 103.583 27.9832 104.56C25.896 105.203 23.898 105.748 22.0178 106.194C28.6853 111.764 36.585 115.922 45.2521 118.207C54.1866 115.451 62.7613 111.277 70.618 106.033C77.0339 101.751 82.9691 96.7554 88.2324 91.2309C91.0407 88.2841 93.6564 85.1886 96.0509 81.9695C97.4296 80.1169 98.735 78.2264 99.9609 76.2993C103.003 71.5982 105.568 66.5852 107.612 61.2206C107.76 60.8295 107.908 60.4384 108.052 60.0441C108.101 59.9095 108.149 59.7765 108.198 59.6419C108.279 59.4171 108.357 59.1906 108.437 58.9642C108.558 58.6206 108.673 58.277 108.789 57.9334C108.849 57.7529 108.91 57.5724 108.967 57.3919C109.023 57.2209 109.079 57.0483 109.133 56.8757C110.737 51.831 111.903 46.4854 112.597 40.8121C112.724 39.7749 112.837 38.7283 112.931 37.669C112.982 36.9185 113.014 36.1632 113.024 35.4031C112.933 31.6695 112.019 29.3419 111.427 28.2145L111.428 28.2113ZM85.1772 50.7131C77.4638 58.6222 64.7943 58.4544 56.8803 50.341C48.9663 42.2276 48.8039 29.2389 56.5173 21.3298C57.2688 20.5603 58.0664 19.8683 58.9022 19.2508C66.6523 13.53 77.6708 14.3787 84.8142 21.7035C87.5669 24.5251 89.3802 27.9374 90.2527 31.519C91.8877 38.2374 90.2097 45.5559 85.1788 50.7147L85.1772 50.7131Z"
        fill="url(#paint2_linear_1754_4766)"
      />
      <path
        d="M29.1372 55.5403C29.1372 55.5403 29.134 55.5372 29.134 55.534C27.7904 53.2966 25.4118 45.3907 24.6922 42.9459C24.5967 42.7052 24.5203 42.463 24.4805 42.2207C21.4938 48.3263 19.9209 55.3804 19.9209 60.8938C19.9209 66.8759 20.978 72.516 23.062 77.6557C25.068 82.5991 27.9734 86.9646 31.6972 90.627C33.267 92.1708 34.9689 93.5674 36.7822 94.8151C38.9649 93.7764 40.2704 92.9736 40.2704 92.9736C46.7898 89.7181 53.2391 85.91 58.91 81.391C45.6706 77.4293 34.972 67.9685 29.1372 55.5403Z"
        fill="url(#paint3_linear_1754_4766)"
      />
    </g>
  </g>
  <defs>
    <linearGradient
      id="paint0_linear_1754_4766"
      x1="54.0291"
      y1="167.348"
      x2="34.492"
      y2="-63.946"
      gradientUnits="userSpaceOnUse"
    >
      <stop stop-color="#7747E2" />
      <stop offset="0.713542" stop-color="#7CA5EF" />
    </linearGradient>
    <linearGradient
      id="paint1_linear_1754_4766"
      x1="55.9622"
      y1="159.608"
      x2="136.436"
      y2="0.564346"
      gradientUnits="userSpaceOnUse"
    >
      <stop stop-color="#7747E2" />
      <stop offset="1" stop-color="#7CA5EF" />
    </linearGradient>
    <linearGradient
      id="paint2_linear_1754_4766"
      x1="22.0178"
      y1="156.236"
      x2="75.7791"
      y2="-14.5201"
      gradientUnits="userSpaceOnUse"
    >
      <stop offset="0.0252051" stop-color="#7747E2" />
      <stop offset="1" stop-color="#7CA5EF" />
    </linearGradient>
    <linearGradient
      id="paint3_linear_1754_4766"
      x1="54.3239"
      y1="144.308"
      x2="33.8128"
      y2="17.3843"
      gradientUnits="userSpaceOnUse"
    >
      <stop stop-color="#6F47E2" />
      <stop offset="1" stop-color="#7CA5EF" />
    </linearGradient>
    <clipPath id="clip0_1754_4766">
      <rect
        width="120"
        height="120"
        fill="white"
        transform="translate(0.596924 0.446289)"
      />
    </clipPath>
    <clipPath id="clip1_1754_4766">
      <rect
        width="120"
        height="120"
        fill="white"
        transform="translate(0.596924 0.446289)"
      />
    </clipPath>
  </defs>
</svg>
