<svg width="399" height="29" viewBox="0 0 399 29" fill="none" xmlns="http://www.w3.org/2000/svg">
<path fill-rule="evenodd" clip-rule="evenodd" d="M144.274 27.6213C146.013 28.3373 147.905 28.6953 149.951 28.6953C151.945 28.6953 153.799 28.3373 155.513 27.6213C157.251 26.9054 158.76 25.9209 160.039 24.6679C161.317 23.3894 162.314 21.9063 163.03 20.2186C163.746 18.5054 164.104 16.6643 164.104 14.6953C164.104 12.7008 163.746 10.8597 163.03 9.17203C162.314 7.45878 161.304 5.97568 160 4.72271C158.722 3.44417 157.213 2.4597 155.474 1.76928C153.761 1.0533 151.894 0.695312 149.874 0.695312C147.829 0.695312 145.936 1.0533 144.197 1.76928C142.484 2.4597 140.988 3.44417 139.71 4.72271C138.431 5.97568 137.434 7.446 136.718 9.13367C136.002 10.8213 135.644 12.6624 135.644 14.657C135.644 16.6259 136.002 18.467 136.718 20.1802C137.434 21.8679 138.444 23.351 139.748 24.6296C141.052 25.9081 142.561 26.9054 144.274 27.6213ZM154.093 22.1364C152.892 22.8524 151.485 23.2104 149.874 23.2104C148.672 23.2104 147.573 23.0058 146.576 22.5967C145.578 22.1876 144.722 21.6122 144.006 20.8707C143.315 20.1035 142.778 19.1958 142.395 18.1474C142.011 17.099 141.819 15.9355 141.819 14.657C141.819 12.9437 142.152 11.4606 142.817 10.2076C143.481 8.9291 144.415 7.94463 145.617 7.25422C146.844 6.53824 148.263 6.18024 149.874 6.18024C151.076 6.18024 152.163 6.38481 153.134 6.79394C154.132 7.17751 154.988 7.75285 155.704 8.51997C156.42 9.26152 156.97 10.1565 157.354 11.2049C157.737 12.2277 157.929 13.3784 157.929 14.657C157.929 16.3446 157.597 17.8405 156.932 19.1446C156.267 20.4232 155.321 21.4204 154.093 22.1364ZM123.463 28.6469C121.442 28.6469 119.563 28.3017 117.824 27.6113C116.111 26.8953 114.602 25.8981 113.298 24.6195C112.02 23.341 111.022 21.8579 110.306 20.1702C109.59 18.457 109.232 16.6159 109.232 14.6469C109.232 12.678 109.59 10.8497 110.306 9.16199C111.022 7.44875 112.02 5.96564 113.298 4.71267C114.577 3.4597 116.073 2.48802 117.786 1.79761C119.525 1.08162 121.404 0.723633 123.424 0.723633C125.572 0.723633 127.477 1.06884 129.139 1.75925C130.827 2.44966 132.297 3.39578 133.55 4.5976L129.523 8.66336C128.807 7.89624 127.937 7.29532 126.915 6.86062C125.917 6.42592 124.754 6.20857 123.424 6.20857C122.248 6.20857 121.161 6.41313 120.164 6.82226C119.192 7.20582 118.348 7.76838 117.632 8.50994C116.942 9.25149 116.392 10.1465 115.983 11.1949C115.6 12.2433 115.408 13.394 115.408 14.6469C115.408 15.9255 115.6 17.0889 115.983 18.1373C116.392 19.1857 116.942 20.0807 117.632 20.8223C118.348 21.5638 119.192 22.1392 120.164 22.5483C121.161 22.9574 122.248 23.162 123.424 23.162C124.805 23.162 126.007 22.9446 127.03 22.5099C128.053 22.0752 128.935 21.4743 129.676 20.7072L133.742 24.773C132.438 25.9748 130.942 26.9209 129.254 27.6113C127.592 28.3017 125.662 28.6469 123.463 28.6469ZM42.6636 28.1702H48.6414H48.6562V12.8031H48.7743L65.5049 28.612H66.3536V1.55209H60.3683V16.4332H60.206C58.3831 14.6586 55.5934 12.1183 51.9182 8.81224C48.2355 5.46197 45.4459 2.88483 43.5492 1.0293H42.6636V28.1702ZM92.0454 23.5402V28.1667H72.3594V1.58496H91.2432V6.21874H78.654V12.1029H89.9318V16.5749H78.654V23.5402H92.0454ZM195.926 28.1667V1.58496H206.609C209.988 1.58496 212.61 2.46881 214.423 4.20704C216.243 5.94527 217.169 8.03705 217.169 10.4971C217.169 13.1192 216.197 15.2551 214.299 16.9934C212.402 18.7242 209.949 19.5712 206.91 19.5712H202.266V28.1593H195.934L195.926 28.1667ZM202.22 6.06312V15.1005H205.514C209.355 15.1005 210.875 13.0455 210.875 10.6223C210.875 8.08124 209.054 6.06312 205.552 6.06312H202.22ZM380.746 28.1702H374.769V1.0293H375.654C377.551 2.88483 380.34 5.46197 384.023 8.81224C387.698 12.1183 390.488 14.6586 392.311 16.4332H392.473V1.55209H398.459V28.612H397.61L380.879 12.8031H380.761V28.1702H380.746ZM272.29 3.92716C270.303 2.35096 267.843 1.58496 264.966 1.58496H264.958H253.649V28.1667H259.961V6.14414H263.774C267.038 6.14414 269.111 8.08124 269.111 11.1452C269.111 13.7673 266.953 16.2642 262.544 16.7503V17.3174L269.916 28.1667H277.117L269.746 18.3633C273.513 16.7135 275.338 13.3622 275.338 10.2982C275.338 7.59512 274.325 5.45916 272.29 3.92716ZM179.49 1.58496C182.381 1.58496 184.853 2.35096 186.85 3.92716C188.894 5.45916 189.912 7.59512 189.912 10.2982C189.912 13.3622 188.078 16.7135 184.293 18.3633L191.699 28.1667H184.464L177.058 17.3174V16.7503C181.488 16.2642 183.656 13.7673 183.656 11.1452C183.656 8.08124 181.573 6.14414 178.294 6.14414H174.462V28.1667H168.121V1.58496H179.483H179.49ZM297.443 23.9984L299.262 28.1673H305.367L292.897 1.25195H292.01L279.341 28.1673H285.336L287.198 23.9984H297.443ZM289.017 19.9172L292.299 12.5886H292.454L295.654 19.9172H289.017ZM313.861 6.74317V28.1667H319.895V6.74317H328.389V1.58496H305.367V6.74317H313.861ZM332.394 28.1667V1.58496H338.399V28.1667H332.394ZM0.844727 28.1702H6.82257H6.83734V12.8031H6.95543L23.686 28.612H24.5347V1.55209H18.5495V16.4332H18.3871C16.5643 14.6586 13.7746 12.1183 10.0993 8.81224C6.41667 5.46197 3.62701 2.88483 1.73033 1.0293H0.844727V28.1702ZM30.6519 28.1666V1.5849H36.6578V28.1666H30.6519ZM235.48 28.6953C233.434 28.6953 231.542 28.3373 229.803 27.6213C228.09 26.9054 226.581 25.9081 225.277 24.6296C223.973 23.351 222.963 21.8679 222.247 20.1802C221.531 18.467 221.173 16.6259 221.173 14.657C221.173 12.6624 221.531 10.8213 222.247 9.13367C222.963 7.446 223.96 5.97568 225.239 4.72271C226.517 3.44417 228.013 2.4597 229.726 1.76928C231.465 1.0533 233.357 0.695312 235.403 0.695312C237.423 0.695312 239.29 1.0533 241.003 1.76928C242.742 2.4597 244.25 3.44417 245.529 4.72271C246.833 5.97568 247.843 7.45878 248.559 9.17203C249.275 10.8597 249.633 12.7008 249.633 14.6953C249.633 16.6643 249.275 18.5054 248.559 20.2186C247.843 21.9063 246.846 23.3894 245.567 24.6679C244.289 25.9209 242.78 26.9054 241.041 27.6213C239.328 28.3373 237.474 28.6953 235.48 28.6953ZM235.403 23.2104C237.014 23.2104 238.42 22.8524 239.622 22.1364C240.85 21.4204 241.796 20.4232 242.461 19.1446C243.125 17.8405 243.458 16.3446 243.458 14.657C243.458 13.3784 243.266 12.2277 242.882 11.2049C242.499 10.1565 241.949 9.26152 241.233 8.51997C240.517 7.75285 239.661 7.17751 238.663 6.79394C237.692 6.38481 236.605 6.18024 235.403 6.18024C233.792 6.18024 232.373 6.53824 231.145 7.25422C229.944 7.94463 229.01 8.9291 228.345 10.2076C227.681 11.4606 227.348 12.9437 227.348 14.657C227.348 15.9355 227.54 17.099 227.924 18.1474C228.307 19.1958 228.844 20.1035 229.535 20.8707C230.25 21.6122 231.107 22.1876 232.104 22.5967C233.102 23.0058 234.201 23.2104 235.403 23.2104ZM351.033 27.6213C352.772 28.3373 354.665 28.6953 356.71 28.6953C358.705 28.6953 360.559 28.3373 362.272 27.6213C364.011 26.9054 365.519 25.9209 366.798 24.6679C368.076 23.3894 369.074 21.9063 369.79 20.2186C370.506 18.5054 370.864 16.6643 370.864 14.6953C370.864 12.7008 370.506 10.8597 369.79 9.17203C369.074 7.45878 368.064 5.97568 366.759 4.72271C365.481 3.44417 363.972 2.4597 362.233 1.76928C360.52 1.0533 358.654 0.695312 356.633 0.695312C354.588 0.695312 352.696 1.0533 350.957 1.76928C349.243 2.4597 347.748 3.44417 346.469 4.72271C345.191 5.97568 344.193 7.446 343.477 9.13367C342.761 10.8213 342.403 12.6624 342.403 14.657C342.403 16.6259 342.761 18.467 343.477 20.1802C344.193 21.8679 345.203 23.351 346.507 24.6296C347.812 25.9081 349.32 26.9054 351.033 27.6213ZM360.853 22.1364C359.651 22.8524 358.244 23.2104 356.633 23.2104C355.432 23.2104 354.332 23.0058 353.335 22.5967C352.338 22.1876 351.481 21.6122 350.765 20.8707C350.075 20.1035 349.538 19.1958 349.154 18.1474C348.77 17.099 348.579 15.9355 348.579 14.657C348.579 12.9437 348.911 11.4606 349.576 10.2076C350.241 8.9291 351.174 7.94463 352.376 7.25422C353.603 6.53824 355.022 6.18024 356.633 6.18024C357.835 6.18024 358.922 6.38481 359.894 6.79394C360.891 7.17751 361.748 7.75285 362.464 8.51997C363.18 9.26152 363.729 10.1565 364.113 11.2049C364.496 12.2277 364.688 13.3784 364.688 14.657C364.688 16.3446 364.356 17.8405 363.691 19.1446C363.026 20.4232 362.08 21.4204 360.853 22.1364Z" fill="black"/>
</svg>
