<svg width="288" height="186" viewBox="0 0 288 186" fill="none" xmlns="http://www.w3.org/2000/svg">
<path fill-rule="evenodd" clip-rule="evenodd" d="M86.534 56.4476C86.9386 56.7014 87.3547 56.9321 87.7708 57.1513L89.0191 57.832L94.0355 60.5545C95.1604 61.139 96.3059 61.6824 97.4514 62.2259L97.4517 62.226C98.0245 62.4977 98.5972 62.7695 99.1674 63.0463L101.745 64.2807C102.243 64.5061 102.749 64.72 103.253 64.9334L103.254 64.9336L103.255 64.934C103.628 65.0919 104 65.2495 104.369 65.4113L109.639 67.6378L115.014 69.6335C116.405 70.1834 117.824 70.6417 119.249 71.102L119.251 71.1024C119.649 71.2311 120.048 71.3599 120.447 71.4909L123.174 72.3792L124.538 72.8175L125.925 73.2098L131.473 74.7556C132.101 74.9228 132.739 75.071 133.369 75.2175L133.369 75.2175L133.369 75.2176L133.565 75.2632C135.08 73.7981 136.548 72.2753 137.923 70.6833C140.108 68.1569 142.107 65.4805 143.899 62.6772C145.69 59.8739 147.274 56.9321 148.661 53.9096C151.435 47.8646 153.423 41.462 154.741 34.9325C156.07 28.403 156.705 21.7235 156.81 15.0556C156.856 11.7216 156.763 8.3761 156.532 5.06519C156.451 3.85389 156.336 2.64258 156.208 1.44281C152.232 0.612205 148.106 0.173828 143.876 0.173828C112.483 0.196901 86.6959 24.2615 84.0374 54.9364C84.0605 54.9479 84.0836 54.9594 84.1068 54.9825L86.5456 56.4591L86.534 56.4476ZM162.08 36.6747C163.929 29.7299 165.05 22.6235 165.593 15.4826V15.4941C165.859 11.9179 165.975 8.34166 165.94 4.74235V4.37319C175.95 8.30705 184.653 14.8481 191.195 23.1657C192.698 33.8483 191.519 44.7616 187.173 54.2444C185.613 57.6591 183.671 60.8662 181.452 63.8656C179.198 66.8535 176.632 69.576 173.869 72.1371C171.107 74.7212 168.079 77.0169 164.981 79.1973C164.391 79.6126 163.79 80.0163 163.189 80.4086C158.231 79.9125 153.307 79.2665 148.418 78.4013C147.1 78.21 145.794 77.9472 144.491 77.6851C143.908 77.5677 143.325 77.4505 142.742 77.3399L139.911 76.7746C139.622 76.717 139.344 76.6593 139.067 76.5901C139.934 75.7825 140.801 74.9519 141.633 74.0982C144.141 71.5372 146.464 68.78 148.579 65.8729C150.695 62.9658 152.59 59.8971 154.289 56.7247C157.676 50.3797 160.242 43.6079 162.08 36.6747ZM109.977 90.4198C109.698 90.5311 109.419 90.6422 109.142 90.7562L109.177 90.7678C108.066 91.2406 106.926 91.6442 105.786 92.048L105.786 92.048L105.786 92.048L105.786 92.0481L105.786 92.0481L105.786 92.0481L105.786 92.0481L105.786 92.0481L105.786 92.0482L105.786 92.0482L105.786 92.0482L105.786 92.0482L105.785 92.0483L105.785 92.0483L105.785 92.0483L105.785 92.0483L105.785 92.0483L105.785 92.0484L105.785 92.0484L105.785 92.0484L105.785 92.0484L105.785 92.0485L105.785 92.0485L105.785 92.0485L105.785 92.0485L105.784 92.0489C105.311 92.2162 104.839 92.3836 104.368 92.5559C101.328 93.5711 98.2422 94.4363 95.1214 95.1861C88.8683 86.5109 84.8691 76.0937 84.0137 64.7997L85.1465 65.3419L90.5558 67.9029C91.7861 68.4504 93.0325 68.966 94.2803 69.4822L94.2807 69.4823L94.2811 69.4825L94.2814 69.4827L94.2818 69.4828L94.2822 69.483L94.2825 69.4831L94.2829 69.4833L94.2833 69.4835L94.2836 69.4836L94.284 69.4838L94.2844 69.4839L94.2847 69.4841L94.2851 69.4843L94.2855 69.4844L94.2858 69.4846L94.2862 69.4847L94.2866 69.4849L94.2869 69.4851L94.2873 69.4852L94.2877 69.4854L94.288 69.4855L94.2884 69.4857L94.2887 69.4859L94.2891 69.486L94.2898 69.4863L94.2905 69.4866L94.2912 69.4868L94.2919 69.4871L94.2925 69.4874L94.2932 69.4877L94.2939 69.4879L94.2946 69.4882C94.8825 69.7314 95.4706 69.9748 96.0577 70.2217L98.8086 71.3638C99.3883 71.588 99.9726 71.7986 100.559 72.0098C100.907 72.1355 101.256 72.2614 101.606 72.3905L107.212 74.4094L112.898 76.186C114.528 76.7247 116.183 77.1598 117.841 77.5959L117.844 77.5965L118.294 77.7151L118.62 77.801L121.486 78.5624L122.92 78.9431L124.364 79.2661L128.04 80.0852C126.329 81.4003 124.561 82.6462 122.746 83.8229C119.903 85.6687 116.898 87.2492 113.835 88.7258L111.511 89.7872C111.003 90.0111 110.489 90.2158 109.977 90.4198ZM138.893 82.1388L141.829 82.5657V82.5426C142.42 82.6224 143.009 82.7075 143.597 82.7924C144.964 82.9898 146.327 83.1865 147.7 83.3155C150.717 83.6847 153.745 83.9731 156.774 84.1923C156.631 84.2702 156.487 84.349 156.344 84.428C155.978 84.6296 155.61 84.8322 155.236 85.0229C141.759 92.06 126.722 96.0515 111.499 97.7473C110.726 97.8508 109.954 97.9236 109.175 97.997C108.998 98.0136 108.821 98.0302 108.644 98.0473L108.548 98.0577L108.547 98.0578C107.621 98.1581 106.705 98.2573 105.778 98.3241C103.859 98.4856 101.952 98.6241 100.033 98.751C99.3633 98.7856 98.6818 98.8202 98.0003 98.8547L97.9989 98.8548C97.4441 98.1972 96.9009 97.5397 96.3807 96.859C99.2935 96.3284 102.195 95.6824 105.073 94.9094C105.613 94.7459 106.156 94.5895 106.7 94.433L106.701 94.433C107.845 94.1037 108.992 93.7739 110.112 93.3751C110.42 93.2683 110.73 93.1662 111.04 93.0641C111.566 92.8907 112.092 92.7175 112.609 92.5214L115.082 91.5754C118.342 90.2488 121.578 88.7837 124.664 87.0302C127.762 85.2997 130.756 83.3501 133.611 81.2044L133.919 81.2586C134.605 81.3792 135.297 81.5008 135.98 81.6312C136.361 81.6945 136.74 81.7651 137.119 81.8357L137.12 81.8358L137.121 81.8359L137.121 81.8361L137.122 81.8362L137.123 81.8363L137.123 81.8364L137.124 81.8365L137.125 81.8366L137.125 81.8367L137.126 81.8369L137.126 81.837L137.127 81.8371L137.128 81.8372L137.128 81.8373L137.129 81.8374L137.13 81.8375L137.13 81.8377L137.131 81.8378L137.132 81.8379L137.132 81.8379L137.132 81.8379L137.132 81.838L137.132 81.838L137.132 81.838L137.132 81.838L137.133 81.838L137.133 81.8381L137.133 81.8381L137.133 81.8381L137.133 81.8381L137.133 81.8382L137.133 81.8382L137.133 81.8382L137.134 81.8382L137.134 81.8382L137.134 81.8383L137.134 81.8383L137.134 81.8383L137.134 81.8383L137.134 81.8384L137.135 81.8384C137.717 81.9468 138.301 82.0554 138.893 82.1388ZM171.258 84.8152H170.807L170.806 84.8161L170.805 84.8165L170.805 84.8168L170.805 84.8172L170.804 84.8175L170.804 84.8179L170.803 84.8182L170.803 84.8186L170.803 84.8189L170.802 84.8192L170.802 84.8196L170.801 84.8199L170.801 84.8203L170.8 84.8206L170.8 84.821L170.8 84.8213L170.799 84.8216L170.799 84.822L170.798 84.8223L170.798 84.8227C170.443 85.1086 170.087 85.3945 169.732 85.6689C166.449 88.2184 162.993 90.5026 159.41 92.5791C157.952 93.449 156.454 94.2335 154.949 95.0218L154.949 95.022L154.949 95.0222L154.948 95.0223L154.948 95.0225C154.617 95.1958 154.286 95.3693 153.955 95.5439C153.514 95.7541 153.075 95.9669 152.635 96.1798L152.633 96.1805L152.632 96.1812L152.632 96.1814C151.213 96.8677 149.792 97.5555 148.337 98.1627C146.83 98.8457 145.293 99.44 143.756 100.034C143.372 100.183 142.988 100.332 142.604 100.481L142.004 100.696L142.004 100.696L142.003 100.696C140.261 101.318 138.518 101.94 136.756 102.489C132.837 103.735 128.85 104.808 124.827 105.661C120.805 106.515 116.76 107.276 112.691 107.738C111.096 107.934 109.501 108.084 107.906 108.222C117.939 115.732 130.399 120.174 143.91 120.174C168.819 120.174 190.179 105.05 199.299 83.5116C197.796 83.6731 196.293 83.8231 194.779 83.95C186.977 84.6191 179.129 84.9191 171.269 84.8383L171.258 84.8152ZM192.524 56.4017C193.958 52.4794 194.94 48.3956 195.449 44.2887L195.472 44.2771C195.957 40.1703 195.969 36.0287 195.587 31.9564C195.507 30.9413 195.391 29.9376 195.241 28.934C200.8 38.036 204.014 48.7186 204.014 60.1626C204.014 67.5573 202.673 74.629 200.222 81.17C198.361 81.2739 196.501 81.3662 194.64 81.4238C188.098 81.643 181.544 81.5853 175.025 81.2623C176.4 80.028 177.753 78.7474 179.036 77.3977C181.937 74.4098 184.618 71.1451 186.919 67.638C189.207 64.1195 191.091 60.3356 192.524 56.4017ZM19.6572 141.6H24.0336V157.499H32.99V160.854H19.6572V141.6ZM49.0245 157.806L50.3439 160.855H54.7738L45.7262 141.174H45.0826L35.8901 160.855H40.2397L41.5912 157.806H49.0245ZM42.9105 154.822L45.2918 149.463H45.4044L47.7266 154.822H42.9105ZM0.456543 160.894V141.593H7.88453C10.2336 141.593 12.0571 142.235 13.3174 143.497C14.5831 144.759 15.2267 146.278 15.2267 148.064C15.2267 149.968 14.5509 151.519 13.2316 152.781C11.9123 154.038 10.2068 154.653 8.09369 154.653H4.86506V160.888H0.461911L0.456543 160.894ZM4.83289 144.844V151.406H7.12296C9.79381 151.406 10.8504 149.914 10.8504 148.155C10.8504 146.31 9.58465 144.844 7.14978 144.844H4.83289ZM221.765 141.6H217.388V160.854H230.721V157.499H221.765V141.6ZM248.075 160.855L246.756 157.806H239.323L237.971 160.855H233.622L242.814 141.174H243.458L252.505 160.855H248.075ZM243.023 149.463L240.642 154.822H245.458L243.136 149.463H243.023ZM124.779 157.806L126.099 160.855H130.529L121.481 141.174H120.837L111.645 160.855H115.995L117.346 157.806H124.779ZM118.665 154.822L121.047 149.463H121.159L123.482 154.822H118.665ZM62.0146 160.855H57.6704V141.227H58.314C59.6923 142.569 61.7196 144.432 64.3958 146.855C67.0667 149.246 69.0939 151.083 70.4186 152.367H70.5366V141.605H74.8862V161.174H74.2694L62.1111 149.741H62.0253V160.855H62.0146ZM93.0032 160.852V157.498H83.6927V152.448H91.5337V149.205H83.6927V144.939H92.4454V141.579H79.3164V160.852H93.0032ZM111.645 144.95H106.009V160.854H101.632V144.95H95.9634V141.599H111.645V144.95ZM146.349 143.29C144.971 142.148 143.265 141.593 141.27 141.593H141.265H133.424V160.851H137.8V144.896H140.444C142.707 144.896 144.145 146.299 144.145 148.519C144.145 150.419 142.648 152.228 139.591 152.58V152.991L144.703 160.851H149.696L144.585 153.749C147.196 152.554 148.462 150.126 148.462 147.906C148.462 145.947 147.76 144.4 146.349 143.29ZM157.13 160.907H152.753V141.579H157.13V160.907ZM178.186 141.602H173.842H173.837V153.352C173.837 155.704 172.485 157.532 169.9 157.532C167.315 157.532 165.937 155.619 165.937 153.209V141.602H161.561V153.235C161.561 158.024 164.382 161.071 169.873 161.071C172.544 161.071 174.604 160.345 176.041 158.893C177.484 157.415 178.186 155.503 178.186 153.151V141.602ZM255.387 160.856V141.592H262.874C264.265 141.592 265.439 141.809 266.386 142.257C267.333 142.695 268.054 143.302 268.532 144.082C269.013 144.856 269.252 145.732 269.252 146.703C269.252 147.498 269.098 148.194 268.779 148.781L268.778 148.782C268.465 149.353 268.041 149.819 267.51 150.177C267.168 150.407 266.801 150.595 266.409 150.74C266.873 150.844 267.323 151.029 267.757 151.291C268.417 151.681 268.953 152.231 269.367 152.936C269.787 153.653 269.991 154.51 269.991 155.497C269.991 156.51 269.743 157.429 269.244 158.246C268.741 159.062 267.987 159.701 266.996 160.163C266 160.629 264.761 160.856 263.29 160.856H255.387ZM265.644 153.855L265.661 153.882C265.902 154.281 266.024 154.728 266.024 155.231C266.024 155.908 265.776 156.452 265.276 156.882C264.794 157.296 263.969 157.53 262.745 157.53H259.299V152.511H262.837C263.516 152.511 264.086 152.637 264.556 152.878L264.558 152.879C265.033 153.118 265.392 153.443 265.644 153.853L265.644 153.855ZM264.967 148.437C265.213 148.078 265.34 147.651 265.34 147.143C265.34 146.481 265.108 145.947 264.643 145.525L264.642 145.524C264.192 145.109 263.5 144.881 262.523 144.881H259.299V149.579H262.449C263.01 149.579 263.508 149.478 263.947 149.28C264.385 149.077 264.722 148.795 264.967 148.437ZM283.798 146.956L283.82 147.173H287.559L287.555 146.927C287.536 145.811 287.226 144.816 286.622 143.95C286.02 143.082 285.193 142.408 284.149 141.928C283.108 141.44 281.904 141.199 280.542 141.199C279.198 141.199 277.986 141.44 276.911 141.927C275.836 142.407 274.978 143.086 274.346 143.966L274.345 143.967C273.714 144.854 273.401 145.885 273.401 147.052C273.401 148.473 273.869 149.633 274.818 150.508L274.82 150.51C275.755 151.36 277.018 151.985 278.591 152.395L280.73 152.952C281.393 153.123 281.967 153.317 282.453 153.534L282.457 153.535C282.939 153.741 283.3 153.994 283.552 154.287L283.553 154.289C283.79 154.561 283.919 154.91 283.925 155.356C283.919 155.85 283.773 156.274 283.49 156.638C283.202 157.001 282.799 157.294 282.268 157.51C281.746 157.719 281.13 157.827 280.414 157.827C279.729 157.827 279.117 157.723 278.573 157.518C278.041 157.315 277.616 157.011 277.29 156.607C276.971 156.212 276.783 155.71 276.737 155.088L276.721 154.864H272.896L272.906 155.115C272.956 156.415 273.291 157.532 273.92 158.456L273.921 158.457C274.555 159.377 275.431 160.074 276.539 160.548C277.652 161.022 278.955 161.255 280.441 161.255C281.97 161.255 283.288 161.016 284.385 160.528C285.484 160.035 286.336 159.348 286.928 158.462C287.519 157.571 287.812 156.542 287.812 155.384C287.812 154.531 287.654 153.774 287.328 153.121C287.007 152.478 286.57 151.928 286.018 151.473C285.479 151.024 284.869 150.653 284.189 150.36C283.522 150.069 282.827 149.839 282.104 149.669L280.345 149.223L280.342 149.223C279.965 149.132 279.591 149.02 279.22 148.886C278.857 148.756 278.528 148.597 278.233 148.409C277.949 148.223 277.727 148 277.564 147.742C277.414 147.495 277.334 147.197 277.334 146.84C277.34 146.411 277.463 146.036 277.701 145.707C277.94 145.378 278.29 145.108 278.766 144.905C279.236 144.704 279.811 144.6 280.496 144.6C281.47 144.6 282.236 144.817 282.814 145.232L282.815 145.233C283.392 145.643 283.719 146.21 283.798 146.956ZM192.974 157.292H192.969L198.252 151.422C198.311 151.422 198.343 151.422 198.37 151.449V160.857H202.601V141.245H201.985L192.647 152.03L183.278 141.245H182.634V160.852H186.834V151.443C186.86 151.443 186.893 151.443 186.919 151.417L192.326 157.292H192.969L192.964 157.298L192.974 157.292ZM119.686 179.637L123.697 185.174H127.181L122.705 179.245L127.005 173.845H123.521L119.686 178.903V173.845H116.826V185.174H119.686V179.637ZM168.953 185.174L168.184 183.397H163.85L163.062 185.174H160.525L165.885 173.698H166.261L171.536 185.174H168.953ZM166.007 178.532L164.619 181.657H167.427L166.073 178.532H166.007ZM159.979 185.174V183.198H154.495V180.224H159.113V178.315H154.495V175.802H159.65V173.823H151.918V185.174H159.979ZM145.394 173.876C146.564 173.876 147.564 174.202 148.373 174.872C149.201 175.523 149.613 176.431 149.613 177.579C149.613 178.882 148.87 180.306 147.338 181.007L150.336 185.174H147.407L144.409 180.563V180.322C146.202 180.115 147.08 179.054 147.08 177.939C147.08 176.637 146.237 175.814 144.909 175.814H143.358V185.174H140.791V173.876H145.39H145.394ZM130.851 184.717C131.59 185.022 132.395 185.174 133.265 185.174C134.113 185.174 134.902 185.022 135.63 184.717C136.37 184.413 137.011 183.994 137.555 183.461C138.099 182.918 138.523 182.287 138.828 181.569C139.132 180.84 139.284 180.057 139.284 179.22C139.284 178.372 139.132 177.589 138.828 176.871C138.523 176.142 138.093 175.511 137.539 174.979C136.995 174.435 136.353 174.016 135.614 173.722C134.885 173.418 134.091 173.266 133.232 173.266C132.362 173.266 131.557 173.418 130.818 173.722C130.089 174.016 129.453 174.435 128.909 174.979C128.366 175.511 127.941 176.137 127.637 176.855C127.332 177.572 127.18 178.355 127.18 179.204C127.18 180.041 127.332 180.824 127.637 181.553C127.941 182.27 128.371 182.901 128.926 183.445C129.48 183.989 130.122 184.413 130.851 184.717ZM135.027 182.385C134.516 182.689 133.917 182.841 133.232 182.841C132.721 182.841 132.253 182.754 131.829 182.58C131.405 182.406 131.041 182.162 130.736 181.846C130.443 181.52 130.214 181.134 130.051 180.688C129.888 180.242 129.807 179.747 129.807 179.204C129.807 178.475 129.948 177.844 130.231 177.311C130.513 176.768 130.91 176.349 131.422 176.055C131.944 175.751 132.547 175.598 133.232 175.598C133.743 175.598 134.206 175.685 134.619 175.859C135.043 176.023 135.407 176.267 135.712 176.594C136.016 176.909 136.25 177.29 136.413 177.735C136.576 178.17 136.658 178.66 136.658 179.204C136.658 179.921 136.517 180.558 136.234 181.112C135.951 181.656 135.549 182.08 135.027 182.385Z" fill="black"/>
</svg>
