<svg
  width="468"
  height="121"
  viewBox="0 0 468 121"
  fill="none"
  xmlns="http://www.w3.org/2000/svg"
>
  <g>
    <path
      d="M82.2446 15.3252C81.7013 22.4662 80.5801 29.5725 78.7308 36.5173C76.893 43.4506 74.327 50.2224 70.9404 56.5673C69.2413 59.7398 67.3457 62.8084 65.2305 65.7155C63.1153 68.6227 60.792 71.3798 58.2838 73.9409C57.4516 74.7945 56.5848 75.6252 55.7179 76.4327C55.9953 76.5019 56.2727 76.5596 56.5616 76.6173L59.3935 77.1826C61.2775 77.5402 63.1615 77.967 65.0687 78.2439C69.9579 79.1091 74.8818 79.7551 79.8404 80.2512C80.4414 79.859 81.0425 79.4552 81.632 79.0399C84.7296 76.8595 87.7579 74.5638 90.5204 71.9797C93.2829 69.4187 95.8489 66.6961 98.1028 63.7082C100.322 60.7088 102.264 57.5017 103.824 54.087C108.17 44.6042 109.349 33.6909 107.847 23.0084C101.304 14.6907 92.6009 8.14968 82.5913 4.21582C82.5913 4.34272 82.5913 4.45808 82.5913 4.58498C82.626 8.18429 82.5104 11.7605 82.2446 15.3368V15.3252Z"
      fill="#00A99D"
    />
    <path
      d="M25.7929 90.5991C26.5789 90.2761 27.3764 89.9762 28.1624 89.6301L30.4856 88.5687C33.5486 87.0921 36.5538 85.5116 39.3972 83.6658C41.2119 82.4891 42.9803 81.2432 44.691 79.9281L41.0154 79.109L39.5706 78.786L38.1373 78.4053L35.2708 77.6439C33.3521 77.1363 31.4334 76.6518 29.5494 76.0288L23.8626 74.2523L18.2568 72.2334C17.3205 71.8873 16.3843 71.5643 15.4596 71.2067L12.7087 70.0646C10.8709 69.2917 9.02156 68.5534 7.20689 67.7458L1.79752 65.1848L0.664795 64.6426C1.52012 75.9366 5.51935 86.3538 11.7725 95.029C14.8933 94.2792 17.9794 93.414 21.0192 92.3988C22.6259 91.8104 24.2556 91.2798 25.8276 90.6107L25.7929 90.5991Z"
      fill="#00D1C2"
    />
    <path
      d="M3.1853 56.2904C3.58985 56.5442 4.00595 56.7749 4.42206 56.9941L5.67037 57.6747L10.6867 60.3973C12.3743 61.274 14.1081 62.0585 15.8187 62.8891L18.3962 64.1235C19.2631 64.5157 20.1531 64.8733 21.02 65.254L26.2907 67.4805L31.6654 69.4763C33.4454 70.18 35.2716 70.7338 37.0978 71.3336L39.8256 72.2219L41.1895 72.6603L42.5766 73.0525L48.1246 74.5984C48.8181 74.783 49.5232 74.9445 50.2167 75.106C51.7309 73.6409 53.1988 72.1181 54.5742 70.5261C56.7588 67.9997 58.7584 65.3233 60.55 62.52C62.3415 59.7166 63.925 56.7749 65.3121 53.7524C68.0861 47.7074 70.0741 41.3048 71.3918 34.7753C72.721 28.2458 73.3567 21.5663 73.4608 14.8984C73.507 11.5644 73.4145 8.21887 73.1834 4.90797C73.1025 3.69666 72.9869 2.48536 72.8597 1.28559C68.8836 0.454979 64.7573 0.0166016 60.5269 0.0166016C29.1341 0.039674 3.34712 24.1043 0.688675 54.7791C0.711792 54.7907 0.734909 54.8022 0.758026 54.8253L3.19686 56.3019L3.1853 56.2904Z"
      fill="#00D1C2"
    />
    <path
      d="M58.4797 82.4082L55.5438 81.9813C54.5614 81.8429 53.602 81.6352 52.6311 81.4737C51.8451 81.3237 51.0476 81.1853 50.2616 81.0469C47.4067 83.1926 44.413 85.1422 41.3154 86.8727C38.2293 88.6262 34.9929 90.0913 31.7334 91.418L29.2599 92.3639C28.4392 92.6754 27.5955 92.9292 26.7633 93.2176C25.1104 93.806 23.3997 94.2443 21.7238 94.7519C18.8457 95.5249 15.9445 96.1709 13.0318 96.7016C13.5519 97.3822 14.0952 98.0398 14.65 98.6973C15.3319 98.6627 16.0139 98.6281 16.6843 98.5935C18.603 98.4666 20.5101 98.3282 22.4288 98.1667C23.3882 98.0974 24.336 97.9936 25.2953 97.8898C26.2547 97.7975 27.2025 97.7167 28.1503 97.5898C43.3728 95.894 58.4103 91.9025 71.8875 84.8654C72.4076 84.6 72.9162 84.3116 73.4248 84.0348C70.3965 83.8156 67.3681 83.5272 64.3514 83.158C62.3864 82.9734 60.4446 82.6504 58.4797 82.3851V82.4082Z"
      fill="#00A99D"
    />
    <path
      d="M87.909 84.6581C87.7587 84.6581 87.6085 84.6581 87.4582 84.6581C87.0999 84.9465 86.7416 85.2349 86.3833 85.5118C83.1007 88.0613 79.6447 90.3455 76.0615 92.422C74.2815 93.4833 72.4437 94.4177 70.6059 95.3868C68.745 96.2751 66.8957 97.2095 64.9885 98.0055C63.1045 98.8592 61.1742 99.5744 59.2555 100.324C57.3137 101.016 55.3719 101.72 53.4069 102.332C49.4886 103.578 45.5009 104.65 41.4786 105.504C37.4563 106.358 33.4108 107.119 29.3422 107.581C27.7471 107.777 26.1521 107.927 24.557 108.065C34.5898 115.575 47.0498 120.017 60.5616 120.017C85.4701 120.017 106.83 104.893 115.95 83.3545C114.447 83.516 112.945 83.666 111.43 83.7929C103.629 84.462 95.7803 84.7619 87.9205 84.6812L87.909 84.6581Z"
      fill="#007A8F"
    />
    <path
      d="M112.1 44.1311C111.591 48.238 110.609 52.3218 109.176 56.2442C107.742 60.178 105.858 63.9619 103.57 67.4805C101.27 70.9875 98.588 74.2522 95.6868 77.2401C94.4038 78.5899 93.0515 79.8704 91.676 81.1048C98.195 81.4278 104.749 81.4855 111.291 81.2663C113.152 81.2086 115.013 81.1163 116.873 81.0125C119.324 74.4714 120.665 67.3997 120.665 60.005C120.665 48.561 117.451 37.8785 111.892 28.7764C112.042 29.78 112.158 30.7837 112.239 31.7989C112.62 35.8712 112.608 40.0127 112.123 44.1196L112.1 44.1311Z"
      fill="#007A8F"
    />
  </g>
  <path
    d="M144.665 49.5681V18.6865H156.55C160.308 18.6865 163.226 19.7133 165.242 21.7327C167.267 23.7522 168.297 26.1823 168.297 29.0403C168.297 32.0865 167.216 34.568 165.105 36.5874C162.994 38.5982 160.265 39.5823 156.884 39.5823H151.718V49.5595H144.673L144.665 49.5681ZM151.667 23.8891V34.3883H155.331C159.605 34.3883 161.295 32.0009 161.295 29.1857C161.295 26.2336 159.27 23.8891 155.374 23.8891H151.658H151.667Z"
    fill="currentColor"
  />
  <path
    d="M175.386 18.6982H182.388V44.1367H196.719V49.5056H175.386V18.6982Z"
    fill="currentColor"
  />
  <path
    d="M224.485 49.5057L222.375 44.6283H210.481L208.319 49.5057H201.359L216.067 18.0166H217.097L231.573 49.5057H224.477H224.485ZM216.402 31.2797L212.592 39.8536H220.298L216.582 31.2797H216.393H216.402Z"
    fill="currentColor"
  />
  <path
    d="M345.694 49.5057L343.583 44.6283H331.69L329.527 49.5057H322.568L337.276 18.0166H338.306L352.782 49.5057H345.685H345.694ZM337.611 31.2797L333.801 39.8536H341.506L337.791 31.2797H337.602H337.611Z"
    fill="currentColor"
  />
  <path
    d="M243.158 49.5052H236.207V18.1006H237.237C239.443 20.2476 242.686 23.2296 246.968 27.1062C251.242 30.9317 254.485 33.8711 256.605 35.9244H256.794V18.7055H263.753V50.0164H262.766L243.313 31.724H243.175V49.5052H243.158Z"
    fill="currentColor"
  />
  <path
    d="M292.741 44.1262V49.5017H270.842V18.665H291.849V24.0406H277.844V30.8666H290.39V36.0544H277.844V44.1348H292.741V44.1262Z"
    fill="currentColor"
  />
  <path
    d="M322.541 24.0579H313.522V49.5044H306.52V24.0579H297.45V18.6963H322.541V24.0579Z"
    fill="currentColor"
  />
  <path
    d="M369.968 18.6865C373.16 18.6865 375.889 19.5745 378.095 21.4016C380.351 23.1775 381.475 25.6535 381.475 28.787C381.475 32.3388 379.45 36.2236 375.271 38.1361L383.449 49.5002H375.46L367.282 36.9237V36.2663C372.174 35.7028 374.568 32.8084 374.568 29.7689C374.568 26.217 372.268 23.9716 368.647 23.9716H364.416V49.5002H357.414V18.6865H369.96H369.968Z"
    fill="currentColor"
  />
  <path
    d="M395.092 49.5894H388.089V18.665H395.092V49.5894Z"
    fill="currentColor"
  />
  <path
    d="M421.832 18.7002H428.782V37.1784C428.782 40.9419 427.658 44.0018 425.35 46.3667C423.05 48.6892 419.755 49.8504 415.482 49.8504C406.694 49.8504 402.181 44.9766 402.181 37.314V18.7002H409.183V37.2717C409.183 41.1284 411.388 44.1883 415.524 44.1883C419.661 44.1883 421.823 41.264 421.823 37.5005V18.7002H421.832Z"
    fill="currentColor"
  />
  <path
    d="M452.471 43.7757H451.432L442.782 34.3749C442.74 34.4176 442.688 34.4176 442.645 34.4176V49.4709H435.926V18.1006H436.956L451.947 35.3568L466.887 18.1006H467.874V49.4794H461.103V34.4261C461.06 34.3834 461.009 34.3834 460.914 34.3834L452.453 43.7843L452.471 43.7757Z"
    fill="currentColor"
  />
  <path
    d="M144.665 70.7031H151.723V96.3472H166.17V101.759H144.665V70.7031Z"
    fill="currentColor"
  />
  <path
    d="M194.16 101.76L192.032 96.8433H180.043L177.863 101.76H170.848L185.674 70.0166H186.712L201.305 101.76H194.152H194.16ZM186.012 83.3868L182.171 92.0301H189.939L186.193 83.3868H186.003H186.012Z"
    fill="currentColor"
  />
  <path
    d="M206.149 101.371V101.565H206.344H218.701C221.054 101.565 223.023 101.203 224.596 100.467C226.165 99.7342 227.35 98.7296 228.138 97.4497L228.138 97.4491C228.923 96.1641 229.314 94.7184 229.314 93.1173C229.314 91.5521 228.991 90.205 228.334 89.0844C227.683 87.9738 226.84 87.111 225.806 86.5012C224.877 85.939 223.907 85.6061 222.896 85.5056C223.809 85.2599 224.643 84.8832 225.398 84.3749C226.229 83.8149 226.891 83.0864 227.382 82.1921L227.383 82.1913C227.879 81.2792 228.122 80.1905 228.122 78.933C228.122 77.4009 227.746 76.0238 226.99 74.8074C226.241 73.5867 225.112 72.6315 223.613 71.9379C222.118 71.2319 220.254 70.8842 218.03 70.8842H206.344H206.149V71.0791V101.371ZM222.663 90.3645L222.664 90.3655C223.091 91.0526 223.305 91.8252 223.305 92.6884C223.305 93.8359 222.882 94.7675 222.032 95.4987C221.2 96.2123 219.813 96.5905 217.821 96.5905H212.069V88.1059H217.97C219.089 88.1059 220.041 88.3134 220.833 88.7203L220.834 88.7211C221.629 89.1203 222.237 89.6683 222.663 90.3645ZM221.566 81.8399L221.566 81.8405C221.15 82.4496 220.578 82.9254 219.842 83.2669C219.105 83.5989 218.274 83.7669 217.344 83.7669H212.069V75.8H217.464C219.066 75.8 220.238 76.1736 221.013 76.8874L221.014 76.8881C221.806 77.6088 222.202 78.522 222.202 79.6429C222.202 80.496 221.988 81.2255 221.566 81.8399Z"
    fill="currentColor"
    stroke="black"
    stroke-width="0.389819"
  />
  <path
    d="M251.972 79.3226L251.991 79.4971H252.166H257.449H257.648L257.644 79.2988C257.614 77.5349 257.125 75.9685 256.174 74.6062C255.225 73.2365 253.919 72.1714 252.263 71.4092C250.615 70.6359 248.701 70.2524 246.528 70.2524C244.384 70.2524 242.457 70.6362 240.751 71.4082C239.045 72.17 237.69 73.2446 236.691 74.6336L236.691 74.6343C235.699 76.0286 235.205 77.6521 235.205 79.4969C235.205 81.7415 235.942 83.5591 237.428 84.9292L237.429 84.9301C238.909 86.2755 240.913 87.2714 243.43 87.9262L246.878 88.8251L246.879 88.8253C247.956 89.1029 248.893 89.4193 249.69 89.7735L249.692 89.7747C250.491 90.1157 251.1 90.5395 251.53 91.0408L251.531 91.0422C251.949 91.5207 252.169 92.1323 252.179 92.8917C252.169 93.7293 251.92 94.4556 251.436 95.0787C250.947 95.6967 250.267 96.1875 249.385 96.5466C248.515 96.8949 247.495 97.0718 246.321 97.0718C245.197 97.0718 244.185 96.9001 243.282 96.5601C242.395 96.2218 241.679 95.7119 241.13 95.0317C240.587 94.3585 240.273 93.5092 240.196 92.4728L240.183 92.2922H240.002H234.6H234.398L234.406 92.4947C234.486 94.562 235.017 96.3271 236.008 97.781L236.008 97.7817C237.008 99.2332 238.39 100.334 240.147 101.087L240.147 101.087C241.913 101.839 243.987 102.211 246.365 102.211C248.812 102.211 250.907 101.829 252.645 101.056L252.646 101.055C254.39 100.274 255.733 99.1878 256.664 97.7945L256.665 97.7939C257.596 96.3905 258.059 94.7691 258.059 92.9366C258.059 91.584 257.807 90.3944 257.298 89.3736C256.793 88.3606 256.105 87.495 255.236 86.7784C254.382 86.0667 253.414 85.478 252.333 85.0117C251.267 84.5477 250.156 84.1796 249.001 83.9073L246.161 83.1886L246.161 83.1886L246.159 83.188C245.545 83.0399 244.935 82.8571 244.33 82.6397C243.731 82.4246 243.187 82.1612 242.697 81.8503C242.216 81.5351 241.838 81.1558 241.559 80.7127C241.295 80.2791 241.159 79.7618 241.159 79.1536C241.168 78.4235 241.378 77.7791 241.788 77.214C242.197 76.6486 242.793 76.1941 243.586 75.8556C244.374 75.5188 245.329 75.3468 246.454 75.3468C248.053 75.3468 249.332 75.7049 250.306 76.404L250.307 76.4045C251.285 77.0997 251.84 78.0669 251.972 79.3226Z"
    fill="currentColor"
    stroke="black"
    stroke-width="0.389819"
  />
</svg>
