<svg width="121" height="121" viewBox="0 0 121 121" fill="none" xmlns="http://www.w3.org/2000/svg">
<path fill-rule="evenodd" clip-rule="evenodd" d="M3.11675 57.0248C3.52129 57.2786 3.9374 57.5093 4.3535 57.7285L5.60182 58.4091L10.6182 61.1317C11.7432 61.7162 12.8887 62.2596 14.0343 62.8031C14.6071 63.0749 15.1799 63.3466 15.7501 63.6235L18.3277 64.8579C18.8257 65.0832 19.3314 65.2971 19.8359 65.5106L19.836 65.5106L19.8361 65.5106L19.8363 65.5107L19.8369 65.511L19.8372 65.5111C20.2104 65.669 20.583 65.8266 20.9515 65.9884L26.2221 68.2149L31.5968 70.2107C32.9875 70.7605 34.4065 71.2188 35.8316 71.679L35.8319 71.6791L35.834 71.6798L35.8361 71.6805C36.2335 71.8088 36.6314 71.9373 37.0293 72.068L39.7571 72.9563L41.121 73.3947L42.508 73.7869L48.0561 75.3328C48.6828 75.4996 49.3189 75.6475 49.9475 75.7937L49.9489 75.794L49.9514 75.7946L49.9517 75.7947L50.1481 75.8404C51.6623 74.3753 53.1302 72.8525 54.5057 71.2605C56.6902 68.734 58.6898 66.0576 60.4814 63.2543C62.273 60.451 63.8565 57.5093 65.2435 54.4868C68.0175 48.4418 70.0056 42.0392 71.3233 35.5097C72.6525 28.9802 73.2882 22.3007 73.3922 15.6327C73.4385 12.2988 73.346 8.95324 73.1148 5.64234C73.0339 4.43104 72.9183 3.21973 72.7912 2.01996C68.8151 1.18935 64.6887 0.750977 60.4583 0.750977C29.0655 0.774049 3.27856 24.8386 0.620117 55.5135C0.643234 55.525 0.666351 55.5366 0.689468 55.5597L3.1283 57.0363L3.11675 57.0248ZM78.6623 37.2517C80.5117 30.3069 81.6329 23.2005 82.1761 16.0596V16.0711C82.4419 12.4949 82.5575 8.91866 82.5229 5.31936V4.9502C92.5325 8.88405 101.236 15.4251 107.778 23.7427C109.281 34.4253 108.102 45.3386 103.756 54.8214C102.195 58.2361 100.254 61.4432 98.0343 64.4426C95.7804 67.4305 93.2144 70.153 90.452 72.7141C87.6895 75.2982 84.6612 77.5939 81.5635 79.7743C80.974 80.1896 80.373 80.5933 79.7719 80.9856C74.8134 80.4895 69.8894 79.8435 65.0002 78.9783C63.6828 78.787 62.3764 78.5242 61.0735 78.2621C60.4902 78.1447 59.9076 78.0275 59.325 77.9169L56.4932 77.3516C56.2042 77.294 55.9268 77.2363 55.6494 77.1671C56.5163 76.3595 57.3832 75.5289 58.2154 74.6752C60.7236 72.1142 63.0468 69.357 65.162 66.4499C67.2772 63.5428 69.1728 60.4741 70.8719 57.3017C74.2585 50.9567 76.8245 44.185 78.6623 37.2517ZM26.5602 90.9971C26.281 91.1084 26.0022 91.2195 25.7248 91.3335L25.7595 91.345C24.6483 91.818 23.5083 92.2218 22.368 92.6257L22.3676 92.6258L22.3668 92.6261L22.3662 92.6263L22.3657 92.6265L22.3651 92.6267C21.8931 92.7939 21.4211 92.961 20.9511 93.1331C17.9113 94.1483 14.8252 95.0135 11.7044 95.7634C5.45124 87.0882 1.45201 76.6709 0.59668 65.377L1.72941 65.9192L7.13877 68.4802C8.37212 69.029 9.6215 69.5459 10.8724 70.0634L10.876 70.0649C11.4644 70.3083 12.0531 70.5519 12.6406 70.799L15.3915 71.9411C15.9709 72.1652 16.5549 72.3757 17.1405 72.5868L17.1414 72.5871L17.1421 72.5874L17.1428 72.5876L17.1429 72.5877L17.143 72.5877C17.4911 72.7132 17.8399 72.8389 18.1887 72.9678L23.7945 74.9866L29.4813 76.7632C31.1104 77.3019 32.7654 77.737 34.4239 78.1731L34.4243 78.1732L34.4366 78.1764L34.4486 78.1796C34.6999 78.2457 34.9513 78.3118 35.2027 78.3783L38.0692 79.1397L39.5025 79.5204L40.9473 79.8434L44.6229 80.6625C42.9122 81.9776 41.1438 83.2235 39.3291 84.4002C36.4857 86.246 33.4805 87.8265 30.4175 89.3031L28.0943 90.3644C27.5857 90.5884 27.0722 90.793 26.5602 90.9971ZM55.4759 82.7157L58.4118 83.1425V83.1194C59.003 83.1993 59.5922 83.2843 60.1805 83.3693L60.1806 83.3693C61.5474 83.5667 62.9098 83.7633 64.2835 83.8924C67.3002 84.2615 70.3285 84.5499 73.3569 84.7691C73.2144 84.8467 73.072 84.9251 72.9293 85.0037L72.9267 85.0051C72.5608 85.2067 72.1932 85.4092 71.8196 85.5997C58.3424 92.6368 43.3048 96.6284 28.0823 98.3242C27.3095 98.4277 26.5367 98.5005 25.7577 98.5738C25.5813 98.5905 25.4045 98.6071 25.2274 98.6242L25.131 98.6346C24.2045 98.7349 23.2881 98.8341 22.3609 98.901C20.4422 99.0625 18.535 99.201 16.6163 99.3279C15.946 99.3625 15.264 99.3971 14.5821 99.4317C14.0272 98.7741 13.484 98.1166 12.9639 97.4359C15.8766 96.9053 18.7778 96.2592 21.6558 95.4863C22.1959 95.3227 22.7395 95.1664 23.2836 95.0099L23.2838 95.0098L23.284 95.0098C24.4285 94.6806 25.5752 94.3507 26.6953 93.952C27.0031 93.8453 27.3124 93.7434 27.6215 93.6416L27.6223 93.6413L27.6231 93.641C28.1495 93.4676 28.6753 93.2944 29.192 93.0983L31.6655 92.1523C34.925 90.8257 38.1613 89.3605 41.2474 87.607C44.3451 85.8766 47.3387 83.927 50.1937 81.7812L50.5023 81.8355C51.1879 81.956 51.8799 82.0777 52.5632 82.2081C52.9478 82.2721 53.3305 82.3433 53.7137 82.4146L53.7142 82.4147L53.7147 82.4148L53.715 82.4148C54.2986 82.5234 54.883 82.6321 55.4759 82.7157ZM87.8412 85.3925H87.3905L87.3899 85.3929C87.0318 85.6812 86.6736 85.9694 86.3155 86.2461C83.0329 88.7956 79.5769 91.0798 75.9938 93.1563C74.5351 94.0261 73.0376 94.8106 71.5332 95.5988L71.533 95.5989C71.2016 95.7725 70.8699 95.9463 70.5382 96.1212C70.0969 96.3318 69.6562 96.5451 69.2152 96.7585C67.7968 97.4449 66.3756 98.1327 64.9208 98.7399C63.4137 99.4228 61.8769 100.017 60.3402 100.611L60.3399 100.612C59.9557 100.76 59.5715 100.909 59.1878 101.059L58.5879 101.273C56.8458 101.895 55.1018 102.518 53.3392 103.066C49.4209 104.312 45.4332 105.385 41.4109 106.238C37.3885 107.092 33.343 107.854 29.2745 108.315C27.6794 108.511 26.0843 108.661 24.4893 108.799C34.522 116.31 46.982 120.751 60.4939 120.751C85.4024 120.751 106.762 105.627 115.882 84.0889C114.379 84.2504 112.877 84.4003 111.363 84.5272C103.561 85.1963 95.7125 85.4963 87.8528 85.4155L87.8412 85.3925ZM109.108 56.9785C110.541 53.0562 111.524 48.9724 112.032 44.8655L112.055 44.8539C112.541 40.747 112.552 36.6055 112.171 32.5332C112.09 31.518 111.974 30.5144 111.824 29.5107C117.384 38.6128 120.597 49.2954 120.597 60.7393C120.597 68.1341 119.256 75.2058 116.806 81.7468C114.945 81.8507 113.084 81.943 111.223 82.0006C104.681 82.2198 98.1274 82.1621 91.6084 81.8391C92.9839 80.6047 94.3362 79.3242 95.6192 77.9745C98.5204 74.9866 101.202 71.7218 103.502 68.2148C105.791 64.6963 107.675 60.9124 109.108 56.9785Z" fill="black"/>
</svg>
