<svg
  width="121"
  height="121"
  viewBox="0 0 121 121"
  fill="none"
  xmlns="http://www.w3.org/2000/svg"
>
  <g clip-path="url(#clip0_1754_4150)">
    <path
      d="M82.1766 15.8086C81.6333 22.9496 80.5122 30.0559 78.6628 37.0007C76.825 43.934 74.259 50.7058 70.8724 57.0507C69.1733 60.2232 67.2777 63.2918 65.1625 66.1989C63.0473 69.1061 60.7241 71.8632 58.2159 74.4243C57.3837 75.2779 56.5168 76.1086 55.6499 76.9161C55.9273 76.9853 56.2047 77.043 56.4937 77.1007L59.3255 77.666C61.2095 78.0236 63.0936 78.4504 65.0007 78.7273C69.8899 79.5925 74.8138 80.2385 79.7724 80.7346C80.3735 80.3424 80.9745 79.9386 81.564 79.5233C84.6617 77.3429 87.69 75.0472 90.4524 72.4631C93.2149 69.9021 95.7809 67.1795 98.0348 64.1916C100.254 61.1922 102.196 57.9851 103.756 54.5704C108.102 45.0876 109.281 34.1743 107.779 23.4918C101.236 15.1741 92.533 8.63308 82.5233 4.69922C82.5233 4.82612 82.5233 4.94148 82.5233 5.06838C82.558 8.66769 82.4424 12.2439 82.1766 15.8202V15.8086Z"
      fill="#00A99D"
    />
    <path
      d="M25.725 91.0825C26.511 90.7595 27.3085 90.4596 28.0945 90.1135L30.4178 89.0521C33.4808 87.5755 36.486 85.995 39.3293 84.1492C41.144 82.9725 42.9125 81.7266 44.6231 80.4115L40.9475 79.5924L39.5027 79.2694L38.0695 78.8887L35.203 78.1273C33.2843 77.6197 31.3656 77.1352 29.4815 76.5122L23.7948 74.7357L18.1889 72.7168C17.2527 72.3707 16.3164 72.0477 15.3918 71.6901L12.6408 70.548C10.803 69.7751 8.95369 69.0368 7.13901 68.2292L1.72965 65.6682L0.596924 65.126C1.45225 76.42 5.45148 86.8372 11.7046 95.5124C14.8254 94.7626 17.9115 93.8973 20.9514 92.8822C22.558 92.2938 24.1877 91.7632 25.7597 91.094L25.725 91.0825Z"
      fill="#00D1C2"
    />
    <path
      d="M3.11748 56.7738C3.52202 57.0276 3.93813 57.2583 4.35423 57.4775L5.60255 58.1581L10.6189 60.8807C12.3065 61.7574 14.0402 62.5419 15.7509 63.3725L18.3284 64.6069C19.1953 64.9991 20.0853 65.3567 20.9522 65.7374L26.2229 67.9639L31.5975 69.9597C33.3775 70.6634 35.2038 71.2172 37.03 71.817L39.7578 72.7053L41.1217 73.1437L42.5087 73.5359L48.0568 75.0818C48.7503 75.2664 49.4554 75.4279 50.1489 75.5894C51.663 74.1243 53.131 72.6015 54.5064 71.0095C56.691 68.4831 58.6906 65.8067 60.4821 63.0034C62.2737 60.2 63.8572 57.2583 65.2442 54.2358C68.0183 48.1908 70.0063 41.7882 71.324 35.2587C72.6532 28.7292 73.2889 22.0497 73.393 15.3818C73.4392 12.0478 73.3467 8.70227 73.1155 5.39137C73.0346 4.18006 72.9191 2.96876 72.7919 1.76899C68.8158 0.938377 64.6894 0.5 60.459 0.5C29.0662 0.523072 3.2793 24.5877 0.62085 55.2625C0.643967 55.2741 0.667083 55.2856 0.6902 55.3087L3.12904 56.7853L3.11748 56.7738Z"
      fill="#00D1C2"
    />
    <path
      d="M58.4118 82.8915L55.4759 82.4647C54.4934 82.3263 53.5341 82.1186 52.5632 81.9571C51.7772 81.8071 50.9797 81.6687 50.1937 81.5303C47.3387 83.676 44.3451 85.6256 41.2474 87.3561C38.1613 89.1096 34.925 90.5747 31.6655 91.9013L29.192 92.8473C28.3713 93.1588 27.5275 93.4126 26.6953 93.701C25.0425 94.2893 23.3318 94.7277 21.6558 95.2353C18.7778 96.0082 15.8766 96.6543 12.9639 97.1849C13.484 97.8656 14.0272 98.5231 14.5821 99.1807C15.264 99.1461 15.946 99.1115 16.6163 99.0769C18.535 98.95 20.4422 98.8116 22.3609 98.65C23.3203 98.5808 24.268 98.477 25.2274 98.3732C26.1868 98.2809 27.1345 98.2001 28.0823 98.0732C43.3048 96.3774 58.3424 92.3859 71.8196 85.3488C72.3397 85.0834 72.8483 84.795 73.3569 84.5182C70.3285 84.299 67.3002 84.0106 64.2835 83.6414C62.3185 83.4568 60.3767 83.1338 58.4118 82.8685V82.8915Z"
      fill="#00A99D"
    />
    <path
      d="M87.841 85.1415C87.6907 85.1415 87.5405 85.1415 87.3902 85.1415C87.0319 85.4299 86.6736 85.7183 86.3153 85.9952C83.0327 88.5447 79.5767 90.8289 75.9936 92.9054C74.2136 93.9667 72.3758 94.9011 70.538 95.8702C68.677 96.7585 66.8277 97.6929 64.9205 98.4889C63.0365 99.3426 61.1062 100.058 59.1875 100.808C57.2457 101.5 55.3039 102.204 53.339 102.815C49.4206 104.061 45.433 105.134 41.4106 105.987C37.3883 106.841 33.3428 107.603 29.2742 108.064C27.6792 108.26 26.0841 108.41 24.489 108.549C34.5218 116.059 46.9818 120.5 60.4936 120.5C85.4022 120.5 106.762 105.376 115.882 83.8379C114.379 83.9994 112.877 84.1494 111.362 84.2763C103.561 84.9454 95.7123 85.2453 87.8525 85.1646L87.841 85.1415Z"
      fill="#007A8F"
    />
    <path
      d="M112.032 44.6145C111.523 48.7214 110.541 52.8052 109.108 56.7276C107.674 60.6614 105.79 64.4453 103.502 67.9638C101.202 71.4709 98.5201 74.7356 95.6189 77.7235C94.336 79.0732 92.9836 80.3538 91.6082 81.5881C98.1271 81.9112 104.681 81.9688 111.223 81.7497C113.084 81.692 114.945 81.5997 116.806 81.4959C119.256 74.9548 120.597 67.8831 120.597 60.4884C120.597 49.0444 117.384 38.3619 111.824 29.2598C111.974 30.2634 112.09 31.2671 112.171 32.2823C112.552 36.3546 112.541 40.4961 112.055 44.603L112.032 44.6145Z"
      fill="#007A8F"
    />
  </g>
  <defs>
    <clipPath id="clip0_1754_4150">
      <rect
        width="120"
        height="120"
        fill="white"
        transform="translate(0.596924 0.5)"
      />
    </clipPath>
  </defs>
</svg>
