<svg
  width="482"
  height="57"
  viewBox="0 0 482 57"
  fill="none"
  xmlns="http://www.w3.org/2000/svg"
>
  <g>
    <path
      d="M38.0706 7.16095C37.8171 10.4934 37.2939 13.8097 36.4308 17.0506C35.5732 20.2861 34.3757 23.4463 32.7953 26.4072C32.0024 27.8877 31.1178 29.3198 30.1307 30.6764C29.1436 32.0331 28.0594 33.3198 26.8889 34.5149C26.5006 34.9133 26.096 35.3009 25.6915 35.6778C25.8209 35.7101 25.9504 35.737 26.0852 35.7639L27.4067 36.0277C28.286 36.1946 29.1652 36.3938 30.0552 36.523C32.3368 36.9268 34.6346 37.2282 36.9486 37.4597C37.2291 37.2767 37.5096 37.0883 37.7847 36.8945C39.2303 35.877 40.6435 34.8056 41.9327 33.5997C43.2218 32.4046 44.4193 31.134 45.4711 29.7397C46.5067 28.3399 47.4129 26.8433 48.1411 25.2498C50.1692 20.8245 50.7194 15.7316 50.0182 10.7464C46.9652 6.86485 42.9036 3.81236 38.2324 1.97656C38.2324 2.03578 38.2324 2.08962 38.2324 2.14884C38.2486 3.82851 38.1946 5.49742 38.0706 7.16633V7.16095Z"
      fill="#00A99D"
    />
    <path
      d="M11.7264 42.2888C12.0932 42.1381 12.4654 41.9981 12.8322 41.8366L13.9164 41.3413C15.3458 40.6522 16.7482 39.9147 18.0751 39.0533C18.922 38.5042 19.7473 37.9227 20.5456 37.309L18.8303 36.9268L18.156 36.776L17.4872 36.5984L16.1495 36.2431C15.2541 36.0062 14.3587 35.7801 13.4795 35.4894L10.8257 34.6603L8.20959 33.7182C7.77268 33.5567 7.33577 33.4059 6.90426 33.239L5.6205 32.7061C4.76286 32.3454 3.89983 32.0008 3.05298 31.624L0.528607 30.4288L0 30.1758C0.399152 35.4463 2.26546 40.3077 5.18359 44.3561C6.63995 44.0062 8.08014 43.6024 9.49875 43.1287C10.2485 42.8541 11.0091 42.6065 11.7426 42.2942L11.7264 42.2888Z"
      fill="#00D1C2"
    />
    <path
      d="M1.1762 26.2777C1.36499 26.3961 1.55917 26.5038 1.75335 26.6061L2.3359 26.9237L4.67688 28.1943C5.46439 28.6034 6.27349 28.9695 7.07179 29.3571L8.27464 29.9332C8.67919 30.1162 9.09452 30.2831 9.49907 30.4607L11.9587 31.4998L14.4669 32.4311C15.2976 32.7595 16.1498 33.0179 17.0021 33.2979L18.275 33.7124L18.9115 33.917L19.5588 34.1L22.1479 34.8214C22.4715 34.9076 22.8006 34.9829 23.1242 35.0583C23.8308 34.3746 24.5158 33.664 25.1577 32.921C26.1772 31.742 27.1103 30.493 27.9464 29.1848C28.7824 27.8766 29.5214 26.5038 30.1687 25.0933C31.4632 22.2723 32.391 19.2844 33.0059 16.2373C33.6262 13.1902 33.9229 10.0731 33.9714 6.96142C33.993 5.40556 33.9499 3.84433 33.842 2.29924C33.8042 1.73396 33.7503 1.16869 33.6909 0.608795C31.8354 0.221178 29.9098 0.0166016 27.9356 0.0166016C13.2856 0.0273687 1.25172 11.2575 0.0111084 25.5725C0.0218963 25.5778 0.0326842 25.5832 0.0434721 25.594L1.1816 26.2831L1.1762 26.2777Z"
      fill="#00D1C2"
    />
    <path
      d="M26.9803 38.4663L25.6102 38.2671C25.1517 38.2025 24.704 38.1056 24.2509 38.0302C23.8841 37.9603 23.5119 37.8957 23.1452 37.8311C21.8129 38.8324 20.4158 39.7422 18.9702 40.5498C17.5301 41.3681 16.0197 42.0518 14.4987 42.6709L13.3443 43.1123C12.9614 43.2577 12.5676 43.3761 12.1793 43.5107C11.4079 43.7853 10.6096 43.9899 9.82749 44.2267C8.4844 44.5874 7.13052 44.8889 5.77124 45.1366C6.01397 45.4542 6.26748 45.7611 6.52639 46.0679C6.84464 46.0518 7.16288 46.0356 7.47573 46.0195C8.37113 45.9603 9.26113 45.8957 10.1565 45.8203C10.6042 45.788 11.0465 45.7395 11.4942 45.6911C11.9419 45.648 12.3842 45.6103 12.8265 45.5511C19.9304 44.7597 26.9479 42.897 33.2372 39.613C33.48 39.4892 33.7173 39.3546 33.9546 39.2254C32.5414 39.1231 31.1282 38.9885 29.7204 38.8163C28.8034 38.7301 27.8972 38.5794 26.9803 38.4555V38.4663Z"
      fill="#00A99D"
    />
    <path
      d="M40.714 39.5156C40.6439 39.5156 40.5737 39.5156 40.5036 39.5156C40.3364 39.6502 40.1692 39.7847 40.002 39.914C38.4701 41.1037 36.8573 42.1697 35.1852 43.1387C34.3545 43.634 33.4969 44.0701 32.6392 44.5223C31.7708 44.9368 30.9078 45.3729 30.0178 45.7444C29.1386 46.1428 28.2378 46.4765 27.3424 46.8265C26.4362 47.1495 25.53 47.4779 24.613 47.7632C22.7845 48.3446 20.9236 48.8453 19.0465 49.2437C17.1694 49.6421 15.2815 49.9974 13.3828 50.2127C12.6384 50.3043 11.8941 50.3742 11.1497 50.4389C15.8317 53.9436 21.6464 56.0162 27.9519 56.0162C39.5758 56.0162 49.5439 48.9584 53.7997 38.9072C53.0985 38.9826 52.3973 39.0526 51.6907 39.1118C48.0498 39.424 44.3873 39.564 40.7194 39.5263L40.714 39.5156Z"
      fill="#007A8F"
    />
    <path
      d="M52.003 20.603C51.7657 22.5196 51.3072 24.4254 50.6384 26.2558C49.9695 28.0916 49.0903 29.8574 48.0223 31.4994C46.9489 33.136 45.6975 34.6596 44.3436 36.0539C43.7449 36.6838 43.1138 37.2814 42.4719 37.8574C45.5141 38.0082 48.5725 38.0351 51.6255 37.9328C52.4939 37.9059 53.3623 37.8628 54.2307 37.8143C55.3743 34.7619 56 31.4617 56 28.0108C56 22.6703 54.5004 17.6851 51.9059 13.4375C51.9761 13.9059 52.03 14.3742 52.0678 14.848C52.2458 16.7484 52.2404 18.6811 52.0138 20.5977L52.003 20.603Z"
      fill="#007A8F"
    />
  </g>
  <path
    fill-rule="evenodd"
    clip-rule="evenodd"
    d="M146.317 41.6044L144.458 37.3077H133.98L132.075 41.6044H125.945L138.901 13.8643H139.809L152.561 41.6044H146.317ZM139.196 25.5483L135.84 33.1015H142.628L139.355 25.5483H139.196ZM103.064 14.4647H109.232V36.8746H121.857V41.6044H103.064V14.4647ZM76 14.4547V41.6596L76.0076 41.6521H82.2139V32.8627H86.7647C89.7431 32.8627 92.147 31.9958 94.0066 30.2244C95.8663 28.4454 96.8188 26.2593 96.8188 23.5758C96.8188 21.058 95.9116 18.9172 94.1276 17.1382C92.3511 15.3593 89.7809 14.4547 86.4699 14.4547H76ZM82.1685 28.2871V19.0378H85.4342C88.8662 19.0378 90.6502 21.1033 90.6502 23.7039C90.6502 26.1839 89.161 28.2871 85.3964 28.2871H82.1685ZM381.769 14.4647H387.937V36.8746H400.561V41.6044H381.769V14.4647ZM423.163 37.3077L425.022 41.6044H431.266L418.513 13.8643H417.606L404.649 41.6044H410.78L412.685 37.3077H423.163ZM414.545 33.1015L417.901 25.5483H418.06L421.333 33.1015H414.545ZM253.095 41.6044L251.235 37.3077H240.758L238.853 41.6044H232.722L245.679 13.8643H246.586L259.339 41.6044H253.095ZM245.974 25.5483L242.617 33.1015H249.406L246.133 25.5483H245.974ZM156.644 41.6043H162.767H162.782V25.94H162.903L180.04 42.0546H180.909V14.4714H174.779V29.6403H174.612C172.745 27.8314 169.888 25.242 166.123 21.8719C162.351 18.4569 159.493 15.8299 157.551 13.9385H156.644V41.6043ZM206.446 36.8733V41.6013H187.155V14.4359H205.66V19.1714H193.323V25.1848H204.375V29.755H193.323V36.8733H206.446ZM224.777 19.1861H232.722V14.4628H210.618V19.1861H218.609V41.6031H224.777V19.1861ZM274.479 14.4547C277.291 14.4547 279.695 15.2369 281.638 16.8465C283.626 18.411 284.616 20.5922 284.616 23.3526C284.616 26.4816 282.832 29.9039 279.151 31.5887L286.355 41.5999H279.317L272.113 30.5207V29.9415C276.422 29.4451 278.531 26.8953 278.531 24.2176C278.531 21.0887 276.505 19.1105 273.315 19.1105H269.588V41.5999H263.419V14.4547H274.471H274.479ZM290.665 41.6785H296.833V14.4359H290.665V41.6785ZM320.39 14.4668H326.513V30.7451C326.513 34.0605 325.522 36.7561 323.489 38.8395C321.463 40.8855 318.56 41.9085 314.796 41.9085C307.055 41.9085 303.078 37.6149 303.078 30.8646V14.4668H309.247V30.8273C309.247 34.2248 311.19 36.9204 314.833 36.9204C318.477 36.9204 320.382 34.3443 320.382 31.0289V14.4668H320.39ZM435.329 14.4531V41.6056H446.468C448.541 41.6056 450.287 41.2865 451.692 40.63C453.088 39.9776 454.151 39.0791 454.86 37.9279L454.861 37.9268C455.564 36.7753 455.914 35.4809 455.914 34.0526C455.914 32.6612 455.626 31.4527 455.033 30.4421C454.451 29.4489 453.695 28.6733 452.765 28.1246C452.153 27.7545 451.519 27.4945 450.865 27.3469C451.417 27.1424 451.934 26.8783 452.416 26.554C453.165 26.0491 453.762 25.3921 454.204 24.5873L454.205 24.5858C454.654 23.7586 454.871 22.7779 454.871 21.6571C454.871 20.2891 454.535 19.0543 453.857 17.9624C453.182 16.8628 452.167 16.0077 450.833 15.3899C449.497 14.7593 447.842 14.4531 445.882 14.4531H435.329ZM449.786 31.736L449.787 31.7377C450.142 32.3096 450.322 32.9532 450.322 33.6777C450.322 34.6319 449.972 35.3984 449.268 36.0043C448.588 36.588 447.426 36.9174 445.699 36.9174H440.843V29.8435H445.83C446.786 29.8435 447.59 30.0209 448.253 30.3616L448.256 30.3631C448.924 30.6988 449.431 31.1567 449.786 31.736ZM448.831 24.101L448.831 24.1019C448.487 24.6064 448.011 25.0029 447.394 25.2896C446.776 25.5683 446.074 25.7111 445.283 25.7111H440.843V19.0896H445.387C446.764 19.0896 447.739 19.4108 448.373 19.9948L448.375 19.9962C449.03 20.5923 449.358 21.3437 449.358 22.2775C449.358 22.9931 449.178 23.5959 448.831 24.101ZM475.406 22.3201L475.374 22.0152C475.263 20.9639 474.802 20.1638 473.989 19.5861L473.988 19.5852C473.173 19.0005 472.094 18.6932 470.721 18.6932C469.754 18.6932 468.944 18.8411 468.281 19.1242C467.611 19.4104 467.117 19.7901 466.781 20.2546C466.445 20.7185 466.272 21.2468 466.264 21.8507C466.264 22.3551 466.376 22.7747 466.588 23.1224C466.818 23.4864 467.13 23.8003 467.53 24.0631C467.946 24.3272 468.41 24.5518 468.922 24.7358C469.445 24.9237 469.972 25.0816 470.503 25.2097L470.507 25.2106L472.987 25.8384C474.006 26.0785 474.985 26.4032 475.926 26.8125C476.885 27.226 477.745 27.7488 478.504 28.3817C479.282 29.0231 479.898 29.7983 480.35 30.7046C480.809 31.6246 481.032 32.6912 481.032 33.8944C481.032 35.5259 480.62 36.9763 479.786 38.2332L479.785 38.2342C478.951 39.4823 477.751 40.4504 476.201 41.1447C474.655 41.8323 472.798 42.1696 470.643 42.1696C468.548 42.1696 466.712 41.8412 465.143 41.1734C463.581 40.5045 462.346 39.5224 461.452 38.225L461.451 38.2237C460.564 36.9221 460.093 35.3472 460.022 33.5147L460.008 33.1609H465.399L465.422 33.4765C465.487 34.3539 465.752 35.0614 466.201 35.6183C466.66 36.1874 467.26 36.6158 468.01 36.9016C468.776 37.1904 469.639 37.3377 470.604 37.3377C471.614 37.3377 472.483 37.1857 473.218 36.8911C473.966 36.5865 474.535 36.1739 474.94 35.6612C475.339 35.1483 475.545 34.5509 475.553 33.8553C475.545 33.2263 475.364 32.7335 475.029 32.3509L475.027 32.3485C474.673 31.935 474.164 31.5783 473.484 31.2878L473.479 31.2859C472.793 30.981 471.984 30.7073 471.05 30.4665L468.036 29.6807C465.817 29.1036 464.038 28.2228 462.719 27.0237L462.718 27.022C461.38 25.7884 460.72 24.1523 460.72 22.1497C460.72 20.5052 461.161 19.0513 462.05 17.8015L462.051 17.8002C462.943 16.5597 464.152 15.6024 465.667 14.9257C467.183 14.2397 468.891 13.9006 470.786 13.9006C472.705 13.9006 474.402 14.2393 475.869 14.9275C477.341 15.6049 478.507 16.5542 479.355 17.7784C480.206 18.9985 480.643 20.4007 480.67 21.9736L480.676 22.3201H475.406ZM347.348 36.5833H347.357L347.342 36.5908L347.348 36.5833ZM346.442 36.5833H347.348L354.795 28.3092C354.878 28.3092 354.924 28.3092 354.962 28.3468V41.6079H360.926V13.9648H360.057L346.896 29.1667L333.689 13.9648H332.782V41.6004H338.701V28.3392C338.739 28.3392 338.784 28.3392 338.822 28.3016L346.442 36.5833Z"
    fill="black"
  />
</svg>
