<svg
  width="494"
  height="29"
  viewBox="0 0 494 29"
  fill="none"
  xmlns="http://www.w3.org/2000/svg"
>
  <path
    d="M27.7258 1.09668H33.8527V23.3553H46.3918V28.0531H27.7258V1.09668Z"
    fill="currentColor"
  />
  <path
    d="M70.6875 28.0529L68.8404 23.7852H58.4337L56.5416 28.0529H50.4523L63.3217 0.5H64.2227L76.8894 28.0529H70.68H70.6875ZM63.6145 12.1052L60.2808 19.6073H67.0234L63.7722 12.1052H63.607H63.6145Z"
    fill="currentColor"
  />
  <path
    d="M0.844971 28.1082V1.08691H11.2441C14.5328 1.08691 17.0857 1.98538 18.8502 3.75236C20.6222 5.51934 21.5232 7.6457 21.5232 10.1464C21.5232 12.8119 20.5771 14.9832 18.7301 16.7501C16.883 18.5096 14.4953 19.3707 11.537 19.3707H7.0169V28.1007H0.852486L0.844971 28.1082ZM6.97185 5.63913V14.8259H10.178C13.9171 14.8259 15.3963 12.737 15.3963 10.2737C15.3963 7.69062 13.6243 5.63913 10.2155 5.63913H6.96435H6.97185Z"
    fill="currentColor"
  />
  <path
    d="M304.549 1.09668H310.676V23.3553H323.215V28.0531H304.549V1.09668Z"
    fill="currentColor"
  />
  <path
    d="M347.511 28.0529L345.664 23.7852H335.257L333.365 28.0529H327.276L340.145 0.5H341.046L353.713 28.0529H347.503H347.511ZM340.438 12.1052L337.104 19.6073H343.847L340.596 12.1052H340.431H340.438Z"
    fill="currentColor"
  />
  <path
    d="M176.744 28.0529L174.897 23.7852H164.49L162.598 28.0529H156.509L169.378 0.5H170.279L182.946 28.0529H176.737H176.744ZM169.671 12.1052L166.338 19.6073H173.08L169.829 12.1052H169.664H169.671Z"
    fill="currentColor"
  />
  <path
    d="M87.0259 28.0533H80.9441V0.574219H81.8451C83.7748 2.45287 86.6129 5.06212 90.3597 8.45413C94.0988 11.8014 96.937 14.3734 98.7916 16.17H98.9568V1.10352H105.046V28.5006H104.183L87.1611 12.4947H87.0409V28.0533H87.0259Z"
    fill="currentColor"
  />
  <path
    d="M130.411 23.3459V28.0495H111.249V1.06738H129.63V5.77095H117.376V11.7437H128.353V16.2831H117.376V23.3534H130.411V23.3459Z"
    fill="currentColor"
  />
  <path
    d="M156.509 5.78615H148.618V28.0518H142.491V5.78615H134.554V1.09473H156.509V5.78615Z"
    fill="currentColor"
  />
  <path
    d="M197.984 1.08691C200.777 1.08691 203.165 1.86387 205.094 3.46261C207.069 5.01653 208.053 7.18305 208.053 9.92481C208.053 13.0326 206.281 16.4318 202.624 18.1053L209.78 28.0488H202.789L195.634 17.0444V16.4692C199.914 15.9761 202.008 13.4435 202.008 10.7839C202.008 7.67611 199.996 5.71131 196.828 5.71131H193.126V28.0488H186.999V1.08691H197.976H197.984Z"
    fill="currentColor"
  />
  <path
    d="M220.187 28.1261H214.061V1.06738H220.187V28.1261Z"
    fill="currentColor"
  />
  <path
    d="M243.585 1.09863H249.666V17.2671C249.666 20.5601 248.683 23.2375 246.663 25.3068C244.651 27.339 241.768 28.355 238.028 28.355C230.34 28.355 226.39 24.0904 226.39 17.3857V1.09863H232.517V17.3486C232.517 20.7232 234.447 23.4007 238.066 23.4007C241.685 23.4007 243.577 20.8419 243.577 17.5489V1.09863H243.585Z"
    fill="currentColor"
  />
  <path
    d="M357.917 27.7153V27.8845H358.087H368.812C370.855 27.8845 372.563 27.5698 373.929 26.9314C375.291 26.295 376.319 25.423 377.003 24.3121L377.004 24.3116C377.685 23.1962 378.025 21.9414 378.025 20.5517C378.025 19.1931 377.744 18.0238 377.173 17.0511C376.608 16.0872 375.877 15.3383 374.979 14.809C374.173 14.321 373.33 14.0321 372.453 13.9448C373.246 13.7316 373.97 13.4046 374.625 12.9634C375.346 12.4773 375.921 11.845 376.348 11.0687L376.348 11.068C376.778 10.2764 376.99 9.33144 376.99 8.2399C376.99 6.91006 376.663 5.71481 376.007 4.65901C375.357 3.5994 374.376 2.77031 373.075 2.16826C371.778 1.55551 370.161 1.25367 368.23 1.25367H358.087H357.917V1.42285V27.7153ZM372.251 18.1623L372.252 18.1632C372.622 18.7596 372.809 19.4301 372.809 20.1794C372.809 21.1753 372.441 21.9839 371.703 22.6186C370.982 23.238 369.777 23.5663 368.049 23.5663H363.056V16.2018H368.178C369.149 16.2018 369.975 16.3819 370.662 16.7351L370.664 16.7359C371.354 17.0823 371.881 17.558 372.251 18.1623ZM371.299 10.7631L371.299 10.7635C370.938 11.2923 370.441 11.7053 369.802 12.0017C369.163 12.2899 368.442 12.4357 367.635 12.4357H363.056V5.5205H367.738C369.129 5.5205 370.146 5.84476 370.819 6.46432L370.82 6.465C371.508 7.09054 371.851 7.88313 371.851 8.85613C371.851 9.59661 371.665 10.2298 371.299 10.7631Z"
    fill="currentColor"
    stroke="black"
    stroke-width="0.338358"
  />
  <path
    d="M397.707 8.73009L397.691 8.57867C397.576 7.48869 397.095 6.64918 396.246 6.04581L396.245 6.04536C395.399 5.43852 394.289 5.12773 392.901 5.12773C391.924 5.12773 391.096 5.27699 390.411 5.56931C389.723 5.86317 389.206 6.25768 388.851 6.74843C388.495 7.23892 388.313 7.79825 388.305 8.43195C388.305 8.95991 388.423 9.40884 388.652 9.78526C388.895 10.1698 389.223 10.4991 389.64 10.7726C390.065 11.0425 390.537 11.2711 391.057 11.4579C391.582 11.6466 392.112 11.8052 392.645 11.9338L392.647 11.9342L392.647 11.9342L395.112 12.5581C396.115 12.7945 397.078 13.1139 398.004 13.5167C398.004 13.5167 398.004 13.5167 398.004 13.5167L397.936 13.6718C398.861 14.0707 399.688 14.5735 400.415 15.1804C401.152 15.7873 401.734 16.5199 402.162 17.3782C402.591 18.2366 402.805 19.2423 402.805 20.3954C402.805 21.956 402.411 23.3302 401.623 24.518C400.835 25.6971 399.696 26.6204 398.206 27.288C396.725 27.9469 394.931 28.2764 392.824 28.2764C390.777 28.2764 389 27.9556 387.493 27.314L397.707 8.73009ZM397.707 8.73009H397.859H402.445H402.617L402.614 8.55801C402.588 7.02696 402.163 5.66736 401.338 4.48486C400.514 3.296 399.381 2.37149 397.943 1.70995C396.513 1.03873 394.852 0.705821 392.965 0.705821C391.104 0.705821 389.431 1.03895 387.951 1.70907C386.47 2.37028 385.294 3.30302 384.427 4.50865L384.427 4.50931C383.565 5.71952 383.137 7.12867 383.137 8.72997C383.137 10.6783 383.777 12.2559 385.066 13.4451L385.067 13.4459C386.352 14.6136 388.092 15.478 390.277 16.0464C390.277 16.0464 390.277 16.0464 390.277 16.0464L393.269 16.8267L393.27 16.8268C394.205 17.0678 395.018 17.3424 395.71 17.6499L395.712 17.6509C396.405 17.9469 396.934 18.3147 397.307 18.7498L397.308 18.751C397.671 19.1665 397.861 19.6973 397.87 20.3564C397.861 21.0834 397.646 21.7138 397.225 22.2546C396.801 22.7911 396.211 23.217 395.445 23.5287C394.69 23.8311 393.805 23.9846 392.785 23.9846C391.809 23.9846 390.931 23.8356 390.148 23.5403L397.707 8.73009Z"
    fill="currentColor"
    stroke="black"
    stroke-width="0.338358"
  />
  <path
    d="M270.37 23.0653H269.461L261.893 14.8396C261.855 14.877 261.81 14.877 261.773 14.877V28.0486H255.894V0.599609H256.795L269.912 15.6988L282.984 0.599609H283.847V28.0561H277.923V14.8844C277.886 14.8471 277.841 14.8471 277.758 14.8471L270.355 23.0728L270.37 23.0653Z"
    fill="currentColor"
  />
  <path
    d="M426.424 28.5004L420.429 20.2233L426.178 12.6396H431.055L424.5 20.872L424.478 19.4627L431.301 28.5004H426.424ZM416.805 28.5004V12.6396H420.809V28.5004H416.805Z"
    fill="currentColor"
  />
  <path
    d="M489.783 28.4997L488.706 26.0112H482.638L481.535 28.4997H477.984L485.488 12.4336H486.013L493.399 28.4997H489.779H489.783ZM485.659 19.2006L483.715 23.5751H487.646L485.751 19.2006H485.654H485.659Z"
    fill="currentColor"
  />
  <path
    d="M477.218 25.7302V28.5003H465.933V12.6094H476.759V15.3795H469.542V18.8971H476.007V21.5705H469.542V25.7345H477.218V25.7302Z"
    fill="currentColor"
  />
  <path
    d="M456.799 12.6826C458.438 12.6826 459.838 13.1384 460.97 14.0763C462.129 14.9879 462.706 16.2589 462.706 17.8673C462.706 19.6905 461.666 21.6846 459.521 22.6664L463.719 28.4997H459.618L455.42 22.044V21.7066C457.931 21.4173 459.16 19.9316 459.16 18.3713C459.16 16.5481 457.98 15.3955 456.121 15.3955H453.949V28.4997H450.355V12.6826H456.795H456.799Z"
    fill="currentColor"
  />
  <path
    d="M439.819 28.4999C438.601 28.4999 437.474 28.2868 436.439 27.8605C435.419 27.4342 434.52 26.8404 433.744 26.0791C432.967 25.3178 432.366 24.4347 431.94 23.4299C431.513 22.4098 431.3 21.3135 431.3 20.1412C431.3 18.9536 431.513 17.8574 431.94 16.8525C432.366 15.8476 432.96 14.9722 433.721 14.2261C434.482 13.4649 435.373 12.8787 436.393 12.4676C437.428 12.0413 438.555 11.8281 439.773 11.8281C440.976 11.8281 442.087 12.0413 443.108 12.4676C444.143 12.8787 445.041 13.4649 445.802 14.2261C446.579 14.9722 447.18 15.8552 447.607 16.8753C448.033 17.8802 448.246 18.9764 448.246 20.164C448.246 21.3364 448.033 22.4326 447.607 23.4527C447.18 24.4576 446.587 25.3407 445.825 26.1019C445.064 26.848 444.166 27.4342 443.13 27.8605C442.11 28.2868 441.006 28.4999 439.819 28.4999ZM439.773 25.2341C440.732 25.2341 441.57 25.0209 442.285 24.5946C443.016 24.1683 443.58 23.5745 443.975 22.8132C444.371 22.0368 444.569 21.1461 444.569 20.1412C444.569 19.3799 444.455 18.6948 444.227 18.0858C443.998 17.4615 443.671 16.9286 443.245 16.4871C442.818 16.0303 442.308 15.6878 441.714 15.4594C441.136 15.2158 440.489 15.094 439.773 15.094C438.814 15.094 437.969 15.3071 437.238 15.7334C436.523 16.1445 435.967 16.7307 435.571 17.492C435.175 18.238 434.977 19.1211 434.977 20.1412C434.977 20.9025 435.091 21.5952 435.32 22.2195C435.548 22.8437 435.868 23.3842 436.279 23.841C436.705 24.2825 437.215 24.6251 437.809 24.8687C438.403 25.1123 439.058 25.2341 439.773 25.2341Z"
    fill="currentColor"
  />
</svg>
