<svg
  width="569"
  height="57"
  viewBox="0 0 569 57"
  fill="none"
  xmlns="http://www.w3.org/2000/svg"
>
  <g>
    <path
      d="M38.0705 7.64435C37.817 10.9768 37.2938 14.2931 36.4308 17.534C35.5731 20.7695 34.3757 23.9297 32.7952 26.8906C32.0023 28.3711 31.1177 29.8032 30.1306 31.1598C29.1435 32.5165 28.0594 33.8032 26.8889 34.9983C26.5005 35.3967 26.096 35.7843 25.6914 36.1612C25.8209 36.1935 25.9503 36.2204 26.0852 36.2473L27.4067 36.5111C28.2859 36.678 29.1651 36.8772 30.0551 37.0064C32.3368 37.4102 34.6346 37.7116 36.9486 37.9431C37.2291 37.7601 37.5096 37.5717 37.7846 37.3779C39.2302 36.3604 40.6434 35.289 41.9326 34.0831C43.2217 32.888 44.4192 31.6174 45.471 30.2231C46.5067 28.8233 47.4128 27.3267 48.141 25.7332C50.1692 21.3079 50.7193 16.215 50.0181 11.2298C46.9652 7.34825 42.9035 4.29576 38.2323 2.45996C38.2323 2.51918 38.2323 2.57302 38.2323 2.63224C38.2485 4.31191 38.1946 5.98082 38.0705 7.64973V7.64435Z"
      fill="#00A99D"
    />
    <path
      d="M11.7264 42.7722C12.0932 42.6215 12.4654 42.4815 12.8322 42.32L13.9164 41.8247C15.3458 41.1356 16.7482 40.3981 18.0751 39.5367C18.922 38.9876 19.7473 38.4061 20.5456 37.7924L18.8303 37.4102L18.156 37.2594L17.4872 37.0818L16.1495 36.7265C15.2541 36.4896 14.3587 36.2635 13.4795 35.9728L10.8257 35.1437L8.20959 34.2016C7.77268 34.0401 7.33577 33.8893 6.90426 33.7224L5.6205 33.1895C4.76286 32.8288 3.89983 32.4842 3.05298 32.1074L0.528607 30.9122L0 30.6592C0.399152 35.9297 2.26546 40.7911 5.18359 44.8395C6.63995 44.4896 8.08014 44.0858 9.49875 43.6121C10.2485 43.3375 11.0091 43.0899 11.7426 42.7776L11.7264 42.7722Z"
      fill="#00D1C2"
    />
    <path
      d="M1.17626 26.7611C1.36505 26.8795 1.55923 26.9872 1.75342 27.0895L2.33596 27.4071L4.67694 28.6777C5.46445 29.0868 6.27355 29.4529 7.07185 29.8405L8.2747 30.4165C8.67925 30.5996 9.09458 30.7665 9.49913 30.9441L11.9588 31.9832L14.467 32.9145C15.2976 33.2429 16.1499 33.5013 17.0021 33.7813L18.2751 34.1958L18.9116 34.4004L19.5588 34.5834L22.1479 35.3048C22.4716 35.391 22.8006 35.4663 23.1243 35.5417C23.8309 34.858 24.5159 34.1474 25.1578 33.4044C26.1772 32.2254 27.1104 30.9764 27.9464 29.6682C28.7825 28.36 29.5215 26.9872 30.1687 25.5767C31.4633 22.7557 32.3911 19.7678 33.006 16.7207C33.6263 13.6736 33.9229 10.5565 33.9715 7.44482C33.9931 5.88896 33.9499 4.32772 33.842 2.78264C33.8043 2.21736 33.7503 1.65209 33.691 1.09219C31.8355 0.704576 29.9098 0.5 27.9357 0.5C13.2857 0.510767 1.25178 11.7409 0.0111694 26.0559C0.0219573 26.0612 0.0327452 26.0666 0.0435331 26.0774L1.18166 26.7665L1.17626 26.7611Z"
      fill="#00D1C2"
    />
    <path
      d="M26.9803 38.9497L25.6102 38.7505C25.1517 38.6859 24.704 38.589 24.2509 38.5136C23.8841 38.4437 23.5119 38.3791 23.1452 38.3145C21.8129 39.3158 20.4158 40.2256 18.9702 41.0332C17.5301 41.8515 16.0197 42.5352 14.4987 43.1543L13.3443 43.5957C12.9614 43.7411 12.5676 43.8595 12.1793 43.9941C11.4079 44.2687 10.6096 44.4733 9.82749 44.7101C8.4844 45.0708 7.13052 45.3723 5.77124 45.62C6.01397 45.9376 6.26748 46.2445 6.52639 46.5513C6.84464 46.5352 7.16288 46.519 7.47573 46.5029C8.37113 46.4437 9.26113 46.379 10.1565 46.3037C10.6042 46.2714 11.0465 46.2229 11.4942 46.1745C11.9419 46.1314 12.3842 46.0937 12.8265 46.0345C19.9304 45.2431 26.9479 43.3804 33.2372 40.0964C33.48 39.9726 33.7173 39.838 33.9546 39.7088C32.5414 39.6065 31.1282 39.4719 29.7204 39.2996C28.8034 39.2135 27.8972 39.0628 26.9803 38.9389V38.9497Z"
      fill="#00A99D"
    />
    <path
      d="M40.714 39.999C40.6439 39.999 40.5737 39.999 40.5036 39.999C40.3364 40.1336 40.1692 40.2681 40.002 40.3974C38.4701 41.5871 36.8573 42.6531 35.1852 43.6221C34.3545 44.1174 33.4969 44.5535 32.6392 45.0057C31.7708 45.4202 30.9078 45.8563 30.0178 46.2278C29.1386 46.6262 28.2378 46.9599 27.3424 47.3099C26.4362 47.6329 25.53 47.9613 24.613 48.2466C22.7845 48.828 20.9236 49.3287 19.0465 49.7271C17.1694 50.1255 15.2815 50.4808 13.3828 50.6961C12.6385 50.7877 11.8941 50.8576 11.1497 50.9223C15.8317 54.427 21.6464 56.4996 27.9519 56.4996C39.5759 56.4996 49.5439 49.4418 53.7997 39.3906C53.0985 39.466 52.3973 39.536 51.6907 39.5952C48.0498 39.9074 44.3873 40.0474 40.7194 40.0097L40.714 39.999Z"
      fill="#007A8F"
    />
    <path
      d="M52.003 21.0864C51.7657 23.003 51.3072 24.9088 50.6383 26.7392C49.9695 28.575 49.0903 30.3408 48.0223 31.9828C46.9489 33.6194 45.6975 35.143 44.3436 36.5373C43.7449 37.1672 43.1138 37.7648 42.4719 38.3408C45.5141 38.4915 48.5725 38.5185 51.6254 38.4162C52.4939 38.3893 53.3623 38.3462 54.2307 38.2977C55.3742 35.2453 55.9999 31.9451 55.9999 28.4942C55.9999 23.1537 54.5004 18.1685 51.9059 13.9209C51.976 14.3893 52.03 14.8576 52.0677 15.3314C52.2457 17.2318 52.2403 19.1645 52.0138 21.0811L52.003 21.0864Z"
      fill="#007A8F"
    />
  </g>
  <path
    fill-rule="evenodd"
    clip-rule="evenodd"
    d="M143.995 37.7276L145.842 41.9953H152.044L139.378 14.4424H138.477L125.607 41.9953H131.697L133.589 37.7276H143.995ZM135.436 33.5497L138.77 26.0475H138.927L142.178 33.5497H135.436ZM109.008 15.0388H102.881V41.9952H121.547V37.2974H109.008V15.0388ZM76 42.0502V15.0289H86.3992C89.6879 15.0289 92.2407 15.9273 94.0052 17.6943C95.7772 19.4613 96.6782 21.5876 96.6782 24.0884C96.6782 26.7538 95.7322 28.9251 93.8851 30.6921C92.038 32.4516 89.6503 33.3126 86.692 33.3126H82.1719V42.0427H76.0075L76 42.0502ZM82.1269 19.5811V28.7679H85.333C89.0722 28.7679 90.5513 26.6789 90.5513 24.2156C90.5513 21.6326 88.7794 19.5811 85.3705 19.5811H82.1269ZM385.831 15.0388H379.704V41.9952H398.37V37.2974H385.831V15.0388ZM422.666 41.9953L420.819 37.7276H410.412L408.52 41.9953H402.431L415.3 14.4424H416.201L428.868 41.9953H422.666ZM415.593 26.0475L412.259 33.5497H419.002L415.751 26.0475H415.593ZM250.052 37.7276L251.899 41.9953H258.101L245.434 14.4424H244.533L231.664 41.9953H237.753L239.645 37.7276H250.052ZM241.493 33.5497L244.826 26.0475H244.984L248.235 33.5497H241.493ZM162.181 41.9951H156.099V14.5161H157C158.93 16.3948 161.768 19.004 165.515 22.396C169.254 25.7433 172.092 28.3153 173.947 30.1119H174.112V15.0454H180.201V42.4424H179.338L162.316 26.4366H162.196V41.9951H162.181ZM205.566 41.9921V37.296H192.531V30.2257H203.508V25.6864H192.531V19.7136H204.785V15.0101H186.404V41.9921H205.566ZM231.664 19.7283H223.773V41.9939H217.646V19.7283H209.71V15.0369H231.664V19.7283ZM280.249 17.4045C278.32 15.8058 275.932 15.0289 273.139 15.0289H273.131H262.154V41.9908H268.281V19.6532H271.983C275.151 19.6532 277.163 21.618 277.163 24.7259C277.163 27.3855 275.069 29.918 270.789 30.4111V30.9864L277.944 41.9908H284.935L277.779 32.0472C281.436 30.3738 283.208 26.9746 283.208 23.8667C283.208 21.125 282.224 18.9585 280.249 17.4045ZM295.343 42.0688H289.216V15.0101H295.343V42.0688ZM324.822 15.0409H318.74H318.732V31.4911C318.732 34.7841 316.84 37.3429 313.221 37.3429C309.602 37.3429 307.672 34.6655 307.672 31.2909V15.0409H301.545V31.3279C301.545 38.0327 305.495 42.2973 313.183 42.2973C316.923 42.2973 319.806 41.2812 321.818 39.249C323.838 37.1797 324.822 34.5023 324.822 31.2093V15.0409ZM432.903 41.9964V15.0272H443.385C445.332 15.0272 446.976 15.3313 448.302 15.9577C449.628 16.5712 450.636 17.4206 451.306 18.5128C451.98 19.5973 452.314 20.8238 452.314 22.1826C452.314 23.2958 452.098 24.2699 451.652 25.0915L451.651 25.0929C451.211 25.8923 450.619 26.545 449.874 27.0464C449.396 27.3685 448.883 27.6309 448.334 27.8339C448.984 27.9806 449.613 28.2388 450.221 28.6064C451.145 29.1515 451.896 29.9218 452.474 30.9083C453.063 31.9121 453.349 33.1124 453.349 34.4944C453.349 35.913 453.002 37.1987 452.303 38.3425L452.302 38.3435C451.598 39.4869 450.543 40.3793 449.156 41.0274C447.761 41.6794 446.026 41.9964 443.967 41.9964H432.903ZM447.263 32.1951L447.262 32.1934C446.91 31.6181 446.407 31.1632 445.743 30.8298L445.74 30.8283C445.082 30.4899 444.283 30.3137 443.333 30.3137H438.38V37.3399H443.204C444.918 37.3399 446.073 37.0127 446.748 36.4329C447.448 35.8311 447.795 35.0698 447.795 34.1221C447.795 33.4024 447.616 32.7631 447.263 32.1951ZM446.314 24.6109L446.314 24.61C446.659 24.1083 446.837 23.5095 446.837 22.7988C446.837 21.8713 446.512 21.1249 445.861 20.5329L445.86 20.5315C445.229 19.9514 444.261 19.6324 442.893 19.6324H438.38V26.2092H442.79C443.576 26.2092 444.273 26.0673 444.887 25.7905C445.5 25.5058 445.972 25.112 446.314 24.6109ZM472.678 22.5383L472.71 22.8412H477.944L477.938 22.497C477.912 20.9348 477.478 19.5421 476.632 18.3303C475.789 17.1143 474.631 16.1713 473.17 15.4984C471.712 14.8149 470.026 14.4786 468.12 14.4786C466.239 14.4786 464.542 14.8154 463.036 15.4967C461.532 16.1689 460.331 17.1197 459.445 18.3518L459.444 18.3531C458.561 19.5944 458.122 21.0385 458.122 22.6719C458.122 24.6611 458.778 26.2861 460.107 27.5113L460.109 27.513C461.419 28.704 463.186 29.5789 465.389 30.1521L468.383 30.9325C469.311 31.1718 470.115 31.4436 470.796 31.7464L470.801 31.7484C471.476 32.0369 471.981 32.3912 472.334 32.8019L472.336 32.8043C472.668 33.1843 472.847 33.6737 472.856 34.2985C472.847 34.9894 472.643 35.5828 472.247 36.0922C471.844 36.6015 471.28 37.0113 470.537 37.3139C469.806 37.6064 468.943 37.7574 467.94 37.7574C466.982 37.7574 466.124 37.611 465.363 37.3241C464.618 37.0403 464.023 36.6148 463.567 36.0496C463.12 35.4964 462.857 34.7937 462.793 33.9222L462.77 33.6088H457.415L457.429 33.9603C457.5 35.7803 457.968 37.3447 458.849 38.6374L458.85 38.6388C459.737 39.9273 460.964 40.9029 462.516 41.5672C464.074 42.2305 465.898 42.5566 467.979 42.5566C470.119 42.5566 471.964 42.2217 473.499 41.5387C475.039 40.8491 476.231 39.8875 477.059 38.6478L477.06 38.6469C477.888 37.3984 478.298 35.9578 478.298 34.3373C478.298 33.1423 478.076 32.0829 477.62 31.1691C477.171 30.2689 476.559 29.4989 475.786 28.8618C475.032 28.2332 474.178 27.714 473.226 27.3033C472.292 26.8967 471.319 26.5742 470.307 26.3357L467.844 25.7121L467.84 25.7112C467.313 25.5841 466.789 25.4272 466.269 25.2405C465.761 25.0578 465.3 24.8348 464.887 24.5724C464.489 24.3114 464.179 23.9996 463.951 23.6381C463.741 23.2927 463.629 22.876 463.629 22.375C463.637 21.7751 463.809 21.2504 464.143 20.7896C464.477 20.3283 464.967 19.9511 465.633 19.6668C466.291 19.3856 467.096 19.2388 468.056 19.2388C469.42 19.2388 470.492 19.5439 471.301 20.1247L471.303 20.1256C472.11 20.6995 472.568 21.4941 472.678 22.5383ZM345.525 37.008H345.517L352.913 28.7898C352.996 28.7898 353.041 28.7898 353.078 28.8271V41.9988H359.002V14.5423H358.139L345.067 29.6415L331.95 14.5423H331.049V41.9913H336.928V28.8197C336.965 28.8197 337.01 28.8197 337.048 28.7823L344.616 37.008H345.517L345.51 37.0155L345.525 37.008ZM495.964 34.6905L501.579 42.4426H506.456L500.19 34.1427L506.21 26.5818H501.333L495.964 33.6638V26.5818H491.96V42.4426H495.964V34.6905ZM564.938 42.4424L563.861 39.9539H557.793L556.69 42.4424H553.139L560.643 26.3763H561.169L568.554 42.4424H564.938ZM560.814 33.1433L558.87 37.5178H562.802L560.906 33.1433H560.814ZM552.374 42.4423V39.6766H544.697V35.5126H551.162V32.8392H544.697V29.3215H551.914V26.5514H541.089V42.4423H552.374ZM531.954 26.6254C533.593 26.6254 534.993 27.0812 536.125 28.0191C537.284 28.9307 537.861 30.2016 537.861 31.8101C537.861 33.6333 536.821 35.6274 534.676 36.6091L538.874 42.4425H534.773L530.575 35.9868V35.6493C533.086 35.3601 534.315 33.8743 534.315 32.3141C534.315 30.4909 533.135 29.3383 531.276 29.3383H529.104V42.4425H525.51V26.6254H531.95H531.954ZM511.594 41.803C512.629 42.2294 513.756 42.4425 514.974 42.4425C516.161 42.4425 517.265 42.2294 518.285 41.803C519.321 41.3767 520.219 40.7906 520.98 40.0445C521.742 39.2832 522.335 38.4002 522.762 37.3953C523.188 36.3752 523.401 35.279 523.401 34.1066C523.401 32.919 523.188 31.8228 522.762 30.8179C522.335 29.7978 521.734 28.9148 520.957 28.1687C520.196 27.4074 519.298 26.8213 518.263 26.4102C517.242 25.9839 516.131 25.7707 514.928 25.7707C513.71 25.7707 512.583 25.9839 511.548 26.4102C510.528 26.8213 509.637 27.4074 508.876 28.1687C508.115 28.9148 507.521 29.7902 507.095 30.7951C506.668 31.8 506.455 32.8962 506.455 34.0838C506.455 35.2561 506.668 36.3524 507.095 37.3725C507.521 38.3773 508.122 39.2604 508.899 40.0217C509.675 40.7829 510.574 41.3767 511.594 41.803ZM517.44 38.5372C516.725 38.9635 515.887 39.1767 514.928 39.1767C514.213 39.1767 513.558 39.0549 512.964 38.8113C512.37 38.5677 511.86 38.2251 511.434 37.7835C511.023 37.3268 510.703 36.7863 510.475 36.162C510.246 35.5378 510.132 34.845 510.132 34.0838C510.132 33.0637 510.33 32.1806 510.726 31.4346C511.122 30.6733 511.678 30.0871 512.393 29.676C513.124 29.2497 513.969 29.0366 514.928 29.0366C515.644 29.0366 516.291 29.1584 516.869 29.402C517.463 29.6303 517.973 29.9729 518.4 30.4297C518.826 30.8712 519.153 31.4041 519.382 32.0283C519.61 32.6374 519.724 33.3225 519.724 34.0838C519.724 35.0886 519.526 35.9793 519.13 36.7558C518.735 37.5171 518.171 38.1109 517.44 38.5372Z"
    fill="black"
  />
</svg>
