<svg
  width="120"
  height="120"
  viewBox="0 0 120 120"
  fill="none"
  xmlns="http://www.w3.org/2000/svg"
>
  <g>
    <path
      d="M81.5798 15.3087C81.0365 22.4496 79.9153 29.556 78.066 36.5008C76.2282 43.4341 73.6622 50.2058 70.2756 56.5508C68.5765 59.7232 66.6809 62.7919 64.5657 65.699C62.4505 68.6061 60.1272 71.3633 57.6191 73.9244C56.7868 74.778 55.92 75.6086 55.0531 76.4162C55.3305 76.4854 55.6079 76.5431 55.8968 76.6008L58.7287 77.166C60.6127 77.5237 62.4967 77.9505 64.4039 78.2274C69.2931 79.0926 74.217 79.7386 79.1756 80.2347C79.7766 79.8424 80.3777 79.4387 80.9672 79.0234C84.0648 76.843 87.0931 74.5473 89.8556 71.9632C92.6181 69.4022 95.1841 66.6796 97.438 63.6917C99.6572 60.6923 101.599 57.4852 103.159 54.0705C107.505 44.5877 108.684 33.6744 107.182 22.9918C100.64 14.6742 91.9361 8.13317 81.9265 4.19931C81.9265 4.32621 81.9265 4.44157 81.9265 4.56847C81.9612 8.16778 81.8456 11.744 81.5798 15.3202V15.3087Z"
      fill="#00A99D"
    />
    <path
      d="M25.1281 90.5823C25.9141 90.2593 26.7116 89.9594 27.4976 89.6133L29.8208 88.5519C32.8838 87.0753 35.889 85.4948 38.7324 83.649C40.5471 82.4723 42.3155 81.2264 44.0262 79.9113L40.3506 79.0922L38.9058 78.7692L37.4725 78.3885L34.606 77.6271C32.6873 77.1195 30.7686 76.635 28.8846 76.0121L23.1978 74.2355L17.592 72.2166C16.6557 71.8706 15.7195 71.5475 14.7948 71.1899L12.0439 70.0478C10.2061 69.2749 8.35677 68.5366 6.54209 67.729L1.13273 65.168L0 64.6258C0.855326 75.9198 4.85456 86.337 11.1077 95.0122C14.2285 94.2624 17.3146 93.3972 20.3545 92.382C21.9611 91.7936 23.5908 91.263 25.1628 90.5939L25.1281 90.5823Z"
      fill="#00D1C2"
    />
    <path
      d="M2.5205 56.2737C2.92505 56.5275 3.34115 56.7582 3.75726 56.9774L5.00557 57.6581L10.0219 60.3806C11.7095 61.2574 13.4433 62.0418 15.1539 62.8725L17.7314 64.1068C18.5983 64.4991 19.4883 64.8567 20.3552 65.2374L25.6259 67.4639L31.0006 69.4597C32.7806 70.1634 34.6068 70.7171 36.433 71.317L39.1608 72.2053L40.5247 72.6437L41.9118 73.0359L47.4598 74.5817C48.1533 74.7663 48.8584 74.9278 49.5519 75.0893C51.0661 73.6242 52.534 72.1014 53.9094 70.5094C56.094 67.983 58.0936 65.3066 59.8852 62.5033C61.6767 59.7 63.2602 56.7583 64.6473 53.7358C67.4213 47.6908 69.4093 41.2882 70.727 34.7586C72.0562 28.2291 72.6919 21.5496 72.796 14.8817C72.8422 11.5477 72.7497 8.20221 72.5186 4.89131C72.4377 3.68001 72.3221 2.4687 72.1949 1.26893C68.2188 0.438324 64.0924 -5.34058e-05 59.8621 -5.34058e-05C28.4693 0.0230191 2.68232 24.0876 0.0238724 54.7625C0.0469893 54.774 0.0701062 54.7856 0.0932232 54.8086L2.53206 56.2853L2.5205 56.2737Z"
      fill="#00D1C2"
    />
    <path
      d="M57.8149 82.3918L54.879 81.9649C53.8966 81.8265 52.9372 81.6188 51.9663 81.4573C51.1803 81.3073 50.3828 81.1689 49.5968 81.0305C46.7419 83.1762 43.7482 85.1258 40.6506 86.8563C37.5645 88.6098 34.3281 90.0749 31.0686 91.4016L28.5951 92.3475C27.7744 92.659 26.9307 92.9128 26.0985 93.2012C24.4456 93.7896 22.7349 94.2279 21.059 94.7355C18.1809 95.5085 15.2797 96.1545 12.367 96.6852C12.8871 97.3658 13.4304 98.0233 13.9852 98.6809C14.6671 98.6463 15.3491 98.6117 16.0195 98.5771C17.9382 98.4502 19.8453 98.3118 21.764 98.1502C22.7234 98.081 23.6712 97.9772 24.6305 97.8734C25.5899 97.7811 26.5377 97.7003 27.4855 97.5734C42.708 95.8776 57.7455 91.8861 71.2227 84.849C71.7428 84.5836 72.2514 84.2952 72.76 84.0184C69.7317 83.7992 66.7034 83.5108 63.6866 83.1416C61.7217 82.957 59.7798 82.634 57.8149 82.3687V82.3918Z"
      fill="#00A99D"
    />
    <path
      d="M87.2442 84.6413C87.0939 84.6413 86.9437 84.6413 86.7934 84.6413C86.4351 84.9298 86.0768 85.2182 85.7185 85.495C82.4359 88.0445 78.9799 90.3287 75.3967 92.4052C73.6167 93.4666 71.7789 94.401 69.9411 95.3701C68.0802 96.2583 66.2309 97.1928 64.3237 97.9888C62.4397 98.8425 60.5094 99.5577 58.5907 100.308C56.6489 101 54.7071 101.703 52.7421 102.315C48.8238 103.561 44.8361 104.634 40.8138 105.487C36.7915 106.341 32.746 107.102 28.6774 107.564C27.0823 107.76 25.4873 107.91 23.8922 108.048C33.925 115.558 46.385 120 59.8968 120C84.8053 120 106.165 104.876 115.285 83.3378C113.782 83.4993 112.28 83.6492 110.766 83.7761C102.964 84.4452 95.1155 84.7452 87.2557 84.6644L87.2442 84.6413Z"
      fill="#007A8F"
    />
    <path
      d="M111.435 44.1148C110.926 48.2217 109.944 52.3055 108.511 56.2279C107.077 60.1617 105.193 63.9456 102.905 67.4642C100.605 70.9712 97.9232 74.2359 95.022 77.2238C93.739 78.5736 92.3867 79.8541 91.0112 81.0884C97.5302 81.4115 104.084 81.4692 110.626 81.25C112.487 81.1923 114.348 81.1 116.209 80.9962C118.659 74.4551 120 67.3834 120 59.9887C120 48.5447 116.787 37.8622 111.227 28.7601C111.377 29.7637 111.493 30.7674 111.574 31.7826C111.955 35.8549 111.944 39.9964 111.458 44.1033L111.435 44.1148Z"
      fill="#007A8F"
    />
  </g>
</svg>
