<svg width="284" height="29" viewBox="0 0 284 29" fill="none" xmlns="http://www.w3.org/2000/svg">
<path fill-rule="evenodd" clip-rule="evenodd" d="M68.8403 24.0362L70.6874 28.3039H76.8894L64.2226 0.750977H63.3216L50.4521 28.3039H56.5415L58.4336 24.0362H68.8403ZM60.2807 19.8583L63.6145 12.3562H63.7721L67.0233 19.8583H60.2807ZM0.844727 28.3583V1.33691H11.2439C14.5326 1.33691 17.0855 2.23538 18.85 4.00236C20.622 5.76935 21.523 7.89572 21.523 10.3964C21.523 13.0619 20.5769 15.2332 18.7299 17.0002C16.8828 18.7597 14.4951 19.6207 11.5368 19.6207H7.01667V28.3508H0.852242L0.844727 28.3583ZM6.97162 5.88914V15.076H10.1777C13.9169 15.076 15.3961 12.987 15.3961 10.5237C15.3961 7.94064 13.6241 5.88914 10.2153 5.88914H6.97162ZM27.7256 1.34766H33.8525V23.6063H46.3916V28.3041H27.7256V1.34766ZM176.745 28.3039L174.897 24.0362H164.491L162.599 28.3039H156.509L169.379 0.750977H170.28L182.947 28.3039H176.745ZM169.672 12.3562L166.338 19.8583H173.08L169.829 12.3562H169.672ZM80.9443 28.3033H87.0262H87.0412V12.7448H87.1613L104.183 28.7506H105.046V1.35353H98.9571V16.4201H98.7919C96.9373 14.6234 94.0991 12.0514 90.3599 8.70415C86.6132 5.31213 83.775 2.70288 81.8453 0.824219H80.9443V28.3033ZM130.411 23.6054V28.3015H111.249V1.31934H129.63V6.02292H117.376V11.9957H128.353V16.5351H117.376V23.6054H130.411ZM148.594 6.03714H156.485V1.3457H134.531V6.03714H142.467V28.3028H148.594V6.03714ZM197.984 1.33691C200.778 1.33691 203.165 2.11387 205.095 3.71262C207.07 5.26654 208.053 7.43306 208.053 10.1748C208.053 13.2827 206.281 16.6819 202.625 18.3553L209.78 28.2989H202.79L195.634 17.2945V16.7192C199.914 16.2261 202.009 13.6936 202.009 11.034C202.009 7.92613 199.997 5.96132 196.828 5.96132H193.126V28.2989H187V1.33691H197.977H197.984ZM213.84 28.3781H219.967V1.31934H213.84V28.3781ZM243.364 1.34961H249.446V17.5181C249.446 20.8111 248.462 23.4885 246.443 25.5578C244.43 27.59 241.547 28.6061 237.808 28.6061C230.119 28.6061 226.17 24.3415 226.17 17.6367V1.34961H232.297V17.5997C232.297 20.9743 234.226 23.6517 237.846 23.6517C241.465 23.6517 243.357 21.0929 243.357 17.7999V1.34961H243.364ZM270.165 23.29H270.174L270.159 23.2975L270.165 23.29ZM269.265 23.29H270.165L277.562 15.0717C277.644 15.0717 277.689 15.0717 277.727 15.1091V28.2808H283.651V0.824219H282.788L269.716 15.9234L256.598 0.824219H255.697V28.2733H261.576V15.1016C261.614 15.1016 261.659 15.1016 261.697 15.0643L269.265 23.29Z" fill="black"/>
</svg>
