<svg width="290" height="162" viewBox="0 0 290 162" fill="none" xmlns="http://www.w3.org/2000/svg">
<g clip-path="url(#clip0_1755_5005)">
<path d="M166.248 15.8252C165.705 22.9662 164.583 30.0725 162.734 37.0173C160.896 43.9506 158.33 50.7224 154.944 57.0673C153.244 60.2398 151.349 63.3084 149.234 66.2155C147.118 69.1227 144.795 71.8798 142.287 74.4409C141.455 75.2945 140.588 76.1252 139.721 76.9327C139.998 77.0019 140.276 77.0596 140.565 77.1173L143.397 77.6826C145.281 78.0402 147.165 78.467 149.072 78.7439C153.961 79.6091 158.885 80.2551 163.844 80.7512C164.445 80.359 165.046 79.9552 165.635 79.5399C168.733 77.3595 171.761 75.0638 174.524 72.4797C177.286 69.9187 179.852 67.1961 182.106 64.2082C184.325 61.2088 186.267 58.0017 187.827 54.587C192.173 45.1042 193.352 34.1909 191.85 23.5084C185.308 15.1907 176.604 8.64968 166.595 4.71582C166.595 4.84272 166.595 4.95808 166.595 5.08498C166.629 8.68429 166.514 12.2605 166.248 15.8368V15.8252Z" fill="#00A99D"/>
<path d="M109.796 91.0991C110.582 90.7761 111.38 90.4762 112.166 90.1301L114.489 89.0687C117.552 87.5921 120.557 86.0116 123.4 84.1658C125.215 82.9891 126.984 81.7432 128.694 80.4281L125.019 79.609L123.574 79.286L122.141 78.9053L119.274 78.1439C117.355 77.6363 115.437 77.1518 113.553 76.5288L107.866 74.7523L102.26 72.7334C101.324 72.3873 100.387 72.0643 99.4628 71.7067L96.7119 70.5646C94.8741 69.7917 93.0247 69.0534 91.2101 68.2458L85.8007 65.6848L84.668 65.1426C85.5233 76.4366 89.5225 86.8538 95.7757 95.529C98.8964 94.7792 101.983 93.914 105.022 92.8988C106.629 92.3104 108.259 91.7798 109.831 91.1107L109.796 91.0991Z" fill="#00D1C2"/>
<path d="M87.1885 56.7904C87.593 57.0442 88.0091 57.2749 88.4252 57.4941L89.6735 58.1747L94.6899 60.8973C96.3774 61.774 98.1112 62.5585 99.8219 63.3891L102.399 64.6235C103.266 65.0157 104.156 65.3733 105.023 65.754L110.294 67.9805L115.669 69.9763C117.449 70.68 119.275 71.2338 121.101 71.8336L123.829 72.7219L125.193 73.1603L126.58 73.5525L132.128 75.0984C132.821 75.283 133.526 75.4445 134.22 75.606C135.734 74.1409 137.202 72.6181 138.577 71.0261C140.762 68.4997 142.762 65.8233 144.553 63.02C146.345 60.2166 147.928 57.2749 149.315 54.2524C152.089 48.2074 154.077 41.8048 155.395 35.2753C156.724 28.7458 157.36 22.0663 157.464 15.3984C157.51 12.0644 157.418 8.71887 157.187 5.40797C157.106 4.19666 156.99 2.98536 156.863 1.78559C152.887 0.954979 148.76 0.516602 144.53 0.516602C113.137 0.539674 87.3503 24.6043 84.6918 55.2791C84.715 55.2907 84.7381 55.3022 84.7612 55.3253L87.2 56.8019L87.1885 56.7904Z" fill="#00D1C2"/>
<path d="M142.483 82.9082L139.547 82.4813C138.565 82.3429 137.605 82.1352 136.634 81.9737C135.848 81.8237 135.051 81.6853 134.265 81.5469C131.41 83.6926 128.416 85.6422 125.319 87.3727C122.232 89.1262 118.996 90.5913 115.737 91.918L113.263 92.8639C112.442 93.1754 111.599 93.4292 110.766 93.7176C109.114 94.306 107.403 94.7443 105.727 95.2519C102.849 96.0249 99.9477 96.6709 97.035 97.2016C97.5551 97.8822 98.0984 98.5398 98.6532 99.1973C99.3351 99.1627 100.017 99.1281 100.687 99.0935C102.606 98.9666 104.513 98.8282 106.432 98.6667C107.391 98.5974 108.339 98.4936 109.299 98.3898C110.258 98.2975 111.206 98.2167 112.153 98.0898C127.376 96.394 142.414 92.4025 155.891 85.3654C156.411 85.1 156.919 84.8116 157.428 84.5348C154.4 84.3156 151.371 84.0272 148.355 83.658C146.39 83.4734 144.448 83.1504 142.483 82.8851V82.9082Z" fill="#00A99D"/>
<path d="M171.912 85.1581C171.762 85.1581 171.612 85.1581 171.461 85.1581C171.103 85.4465 170.745 85.7349 170.386 86.0118C167.104 88.5613 163.648 90.8455 160.065 92.922C158.285 93.9833 156.447 94.9177 154.609 95.8868C152.748 96.7751 150.899 97.7095 148.992 98.5055C147.108 99.3592 145.177 100.074 143.259 100.824C141.317 101.516 139.375 102.22 137.41 102.832C133.492 104.078 129.504 105.15 125.482 106.004C121.459 106.858 117.414 107.619 113.345 108.081C111.75 108.277 110.155 108.427 108.56 108.565C118.593 116.075 131.053 120.517 144.565 120.517C169.473 120.517 190.833 105.393 199.953 83.8545C198.45 84.016 196.948 84.166 195.434 84.2929C187.632 84.962 179.783 85.2619 171.924 85.1812L171.912 85.1581Z" fill="#007A8F"/>
<path d="M196.103 44.6311C195.594 48.738 194.612 52.8218 193.179 56.7442C191.745 60.678 189.861 64.4619 187.573 67.9805C185.273 71.4875 182.591 74.7522 179.69 77.7401C178.407 79.0899 177.055 80.3704 175.679 81.6048C182.198 81.9278 188.752 81.9855 195.294 81.7663C197.155 81.7086 199.016 81.6163 200.877 81.5125C203.327 74.9714 204.668 67.8997 204.668 60.505C204.668 49.061 201.455 38.3785 195.895 29.2764C196.045 30.28 196.161 31.2837 196.242 32.2989C196.623 36.3712 196.612 40.5127 196.126 44.6196L196.103 44.6311Z" fill="#007A8F"/>
</g>
<path fill-rule="evenodd" clip-rule="evenodd" d="M50.2401 161.331L48.9118 158.262H41.4279L40.0672 161.331H35.6881L44.9431 141.517H45.591L54.7002 161.331H50.2401ZM45.1537 149.862L42.7562 155.257H47.6051L45.2671 149.862H45.1537ZM19.3447 141.946H23.7508V157.953H32.7681V161.331H19.3447V141.946ZM0.0134888 141.939V161.371L0.0188937 161.365H4.45197V155.087H7.70254C9.82999 155.087 11.5471 154.468 12.8754 153.203C14.2037 151.932 14.884 150.371 14.884 148.454C14.884 146.655 14.2361 145.126 12.9618 143.855C11.6929 142.585 9.85699 141.939 7.49196 141.939H0.0134888ZM4.41958 151.819V145.212H6.75221C9.20364 145.212 10.4779 146.688 10.4779 148.545C10.4779 150.317 9.41422 151.819 6.72521 151.819H4.41958ZM218.42 141.946H222.826V157.953H231.843V161.331H218.42V141.946ZM247.987 158.262L249.315 161.331H253.775L244.666 141.517H244.018L234.763 161.331H239.142L240.503 158.262H247.987ZM241.831 155.257L244.229 149.862H244.342L246.68 155.257H241.831ZM126.51 161.331L125.181 158.262H117.698L116.337 161.331H111.958L121.213 141.517H121.861L130.97 161.331H126.51ZM121.423 149.862L119.026 155.257H123.875L121.537 149.862H121.423ZM57.616 161.331H61.9897H62.0005V150.142H62.0869L74.3278 161.653H74.9488V141.95H70.5697V152.785H70.4509C69.1172 151.493 67.0761 149.644 64.3871 147.236C61.6927 144.797 59.6517 142.921 58.264 141.57H57.616V161.331ZM93.1894 157.951V161.329H79.4096V141.925H92.6279V145.307H83.8157V149.602H91.71V152.867H83.8157V157.951H93.1894ZM106.283 145.318H111.958V141.944H96.1694V145.318H101.877V161.33H106.283V145.318ZM141.784 141.939C143.793 141.939 145.51 142.497 146.898 143.647C148.318 144.765 149.025 146.323 149.025 148.294C149.025 150.529 147.751 152.974 145.121 154.177L150.267 161.328H145.24L140.094 153.414V153.001C143.172 152.646 144.678 150.825 144.678 148.912C144.678 146.677 143.231 145.264 140.953 145.264H138.291V161.328H133.884V141.939H141.779H141.784ZM153.346 161.384H157.752V141.925H153.346V161.384ZM174.577 141.947H178.951V153.574C178.951 155.943 178.244 157.868 176.791 159.356C175.344 160.817 173.271 161.548 170.582 161.548C165.053 161.548 162.212 158.481 162.212 153.66V141.947H166.618V153.633C166.618 156.06 168.006 157.985 170.609 157.985C173.211 157.985 174.572 156.145 174.572 153.777V141.947H174.577ZM256.677 141.938V161.332H264.633C266.114 161.332 267.362 161.104 268.365 160.635C269.362 160.169 270.122 159.527 270.628 158.704C271.131 157.882 271.38 156.957 271.38 155.937C271.38 154.943 271.175 154.08 270.751 153.358C270.335 152.649 269.795 152.095 269.131 151.703C268.694 151.438 268.241 151.253 267.774 151.147C268.168 151.001 268.538 150.813 268.882 150.581C269.417 150.22 269.843 149.751 270.159 149.176L270.16 149.175C270.481 148.584 270.636 147.884 270.636 147.083C270.636 146.106 270.396 145.224 269.911 144.444C269.429 143.659 268.704 143.048 267.751 142.607C266.797 142.156 265.615 141.938 264.215 141.938H256.677ZM267.003 154.282L267.004 154.284C267.258 154.692 267.386 155.152 267.386 155.669C267.386 156.351 267.137 156.898 266.633 157.331C266.148 157.748 265.318 157.983 264.084 157.983H260.615V152.931H264.177C264.861 152.931 265.435 153.057 265.908 153.301L265.91 153.302C266.388 153.542 266.75 153.869 267.003 154.282ZM266.697 147.526C266.697 148.037 266.569 148.468 266.322 148.829C266.076 149.189 265.736 149.473 265.295 149.678C264.853 149.877 264.352 149.979 263.787 149.979H260.615V145.249H263.861C264.845 145.249 265.541 145.479 265.994 145.896L265.995 145.897C266.464 146.323 266.697 146.859 266.697 147.526ZM285.304 147.557L285.281 147.339C285.201 146.588 284.872 146.017 284.292 145.604L284.291 145.603C283.709 145.186 282.938 144.966 281.957 144.966C281.267 144.966 280.688 145.072 280.214 145.274C279.735 145.478 279.383 145.75 279.143 146.081C278.903 146.413 278.779 146.79 278.773 147.222C278.773 147.582 278.854 147.882 279.005 148.13C279.169 148.39 279.392 148.614 279.678 148.802C279.975 148.991 280.306 149.151 280.672 149.282C281.046 149.417 281.422 149.529 281.802 149.621L281.804 149.621L283.576 150.07C284.303 150.241 285.003 150.473 285.675 150.766C286.36 151.061 286.974 151.435 287.516 151.887C288.072 152.345 288.512 152.898 288.835 153.546C289.163 154.203 289.322 154.965 289.322 155.824C289.322 156.99 289.027 158.026 288.432 158.923C287.836 159.815 286.978 160.507 285.872 161.003C284.767 161.494 283.441 161.735 281.902 161.735C280.405 161.735 279.093 161.501 277.973 161.024C276.857 160.546 275.975 159.844 275.337 158.918L275.336 158.917C274.702 157.987 274.365 156.862 274.315 155.553L274.305 155.3H278.156L278.172 155.526C278.218 156.152 278.408 156.658 278.729 157.056C279.056 157.462 279.485 157.768 280.02 157.972C280.567 158.178 281.184 158.284 281.874 158.284C282.595 158.284 283.215 158.175 283.741 157.965C284.275 157.747 284.681 157.452 284.971 157.086C285.256 156.72 285.402 156.293 285.409 155.796C285.403 155.347 285.273 154.995 285.035 154.722L285.033 154.72C284.78 154.425 284.417 154.17 283.931 153.962L283.927 153.961C283.437 153.743 282.859 153.548 282.192 153.376L280.039 152.814C278.455 152.402 277.184 151.773 276.242 150.917L276.24 150.915C275.285 150.034 274.813 148.866 274.813 147.435C274.813 146.261 275.128 145.222 275.764 144.329L275.764 144.328C276.401 143.442 277.265 142.759 278.347 142.275C279.43 141.785 280.65 141.543 282.003 141.543C283.374 141.543 284.586 141.785 285.634 142.276C286.685 142.76 287.518 143.438 288.124 144.313C288.732 145.184 289.044 146.186 289.064 147.309L289.068 147.557H285.304ZM193.834 157.744H193.84L193.829 157.75L193.834 157.744ZM193.186 157.744H193.834L199.153 151.834C199.212 151.834 199.245 151.834 199.272 151.861V161.334H203.532V141.588H202.911L193.51 152.447L184.077 141.588H183.429V161.328H187.657V151.856C187.684 151.856 187.717 151.856 187.744 151.829L193.186 157.744Z" fill="black"/>
<defs>
<clipPath id="clip0_1755_5005">
<rect width="120" height="120" fill="white" transform="translate(84.668 0.516602)"/>
</clipPath>
</defs>
</svg>
