<svg width="494" height="29" viewBox="0 0 494 29" fill="none" xmlns="http://www.w3.org/2000/svg">
<path fill-rule="evenodd" clip-rule="evenodd" d="M68.8403 23.959L70.6874 28.2267H76.8893L64.2226 0.673828H63.3216L50.4521 28.2267H56.5415L58.4336 23.959H68.8403ZM60.2807 19.7812L63.6144 12.279H63.7721L67.0232 19.7812H60.2807ZM33.8525 1.27051H27.7256V28.2269H46.3915V23.5291H33.8525V1.27051ZM0.844727 28.282V1.26074H11.2439C14.5326 1.26074 17.0855 2.15921 18.8499 3.92619C20.6219 5.69317 21.5229 7.81953 21.5229 10.3203C21.5229 12.9857 20.5769 15.157 18.7298 16.924C16.8827 18.6835 14.4951 19.5445 11.5367 19.5445H7.01665V28.2746H0.852242L0.844727 28.282ZM6.97161 5.81296V14.9998H10.1777C13.9169 14.9998 15.3961 12.9108 15.3961 10.4475C15.3961 7.86445 13.6241 5.81296 10.2153 5.81296H6.97161ZM310.676 1.27051H304.549V28.2269H323.215V23.5291H310.676V1.27051ZM347.511 28.2267L345.664 23.959H335.257L333.365 28.2267H327.275L340.145 0.673828H341.046L353.713 28.2267H347.511ZM340.438 12.279L337.104 19.7812H343.846L340.595 12.279H340.438ZM174.897 23.959L176.744 28.2267H182.946L170.279 0.673828H169.378L156.509 28.2267H162.598L164.49 23.959H174.897ZM166.337 19.7812L169.671 12.279H169.829L173.08 19.7812H166.337ZM87.0257 28.2271H80.9438V0.748047H81.8449C83.7745 2.6267 86.6127 5.23594 90.3594 8.62796C94.0986 11.9752 96.9368 14.5472 98.7914 16.3439H98.9566V1.27735H105.046V28.6744H104.182L87.1608 12.6686H87.0407V28.2271H87.0257ZM130.411 28.2233V23.5272H117.376V16.4569H128.353V11.9176H117.376V5.94478H129.63V1.24121H111.249V28.2233H130.411ZM156.509 5.95998H148.617V28.2256H142.491V5.95998H134.554V1.26855H156.509V5.95998ZM205.094 3.63644C203.165 2.0377 200.777 1.26074 197.984 1.26074H197.976H186.999V28.2227H193.126V5.88514H196.828C199.996 5.88514 202.008 7.84994 202.008 10.9578C202.008 13.6174 199.914 16.1499 195.634 16.643V17.2183L202.789 28.2227H209.78L202.624 18.2791C206.281 16.6057 208.053 13.2065 208.053 10.0986C208.053 7.35687 207.069 5.19036 205.094 3.63644ZM220.187 28.3H214.061V1.24121H220.187V28.3ZM249.666 1.27246H243.584H243.577V17.7227C243.577 21.0157 241.685 23.5745 238.066 23.5745C234.447 23.5745 232.517 20.8971 232.517 17.5225V1.27246H226.39V17.5596C226.39 24.2643 230.34 28.5289 238.028 28.5289C241.767 28.5289 244.651 27.5128 246.663 25.4806C248.683 23.4113 249.666 20.7339 249.666 17.4409V1.27246ZM357.748 28.228V1.25879H368.23C370.176 1.25879 371.821 1.56292 373.147 2.1893C374.473 2.80289 375.481 3.65233 376.151 4.74461C376.825 5.82911 377.159 7.05553 377.159 8.41419C377.159 9.52744 376.943 10.5015 376.496 11.3231L376.496 11.3245C376.056 12.1239 375.464 12.7766 374.719 13.278C374.241 13.6001 373.728 13.8625 373.179 14.0655C373.829 14.2122 374.458 14.4704 375.066 14.838C375.99 15.383 376.741 16.1534 377.319 17.1399C377.908 18.1437 378.194 19.344 378.194 20.726C378.194 22.1446 377.847 23.4303 377.148 24.5741L377.147 24.5751C376.443 25.7185 375.387 26.6109 374.001 27.259C372.605 27.911 370.871 28.228 368.812 28.228H357.748ZM372.108 18.4267L372.107 18.425C371.754 17.8496 371.252 17.3948 370.588 17.0613L370.585 17.0599C369.927 16.7215 369.128 16.5453 368.178 16.5453H363.225V23.5715H368.048C369.763 23.5715 370.918 23.2443 371.593 22.6645C372.293 22.0627 372.639 21.3014 372.639 20.3536C372.639 19.634 372.461 18.9947 372.108 18.4267ZM371.159 10.8425L371.159 10.8416C371.504 10.3399 371.682 9.74109 371.682 9.03042C371.682 8.10292 371.357 7.3565 370.706 6.76445L370.704 6.76309C370.074 6.18299 369.106 5.86397 367.738 5.86397H363.225V12.4408H367.634C368.42 12.4408 369.117 12.2989 369.732 12.0221C370.345 11.7374 370.817 11.3436 371.159 10.8425ZM397.523 8.76975L397.555 9.07259H402.789L402.783 8.72844C402.756 7.16624 402.322 5.77355 401.477 4.56166C400.634 3.34571 399.476 2.40269 398.015 1.72985C396.557 1.04633 394.871 0.709961 392.965 0.709961C391.083 0.709961 389.387 1.04677 387.881 1.72809C386.376 2.40026 385.176 3.35106 384.29 4.58321L384.289 4.58453C383.405 5.82583 382.967 7.26995 382.967 8.90329C382.967 10.8925 383.623 12.5175 384.952 13.7428L384.953 13.7444C386.263 14.9354 388.031 15.8103 390.234 16.3835L393.227 17.1639C394.156 17.4032 394.959 17.675 395.641 17.9778L395.645 17.9798C396.321 18.2683 396.826 18.6226 397.178 19.0333L397.18 19.0357C397.512 19.4157 397.692 19.9051 397.701 20.5299C397.692 21.2209 397.488 21.8142 397.092 22.3237C396.689 22.8329 396.124 23.2427 395.382 23.5453C394.651 23.8378 393.788 23.9888 392.785 23.9888C391.827 23.9888 390.969 23.8424 390.208 23.5555C389.463 23.2717 388.868 22.8462 388.412 22.281C387.965 21.7278 387.702 21.0251 387.638 20.1536L387.615 19.8402H382.26L382.274 20.1917C382.344 22.0117 382.813 23.5761 383.694 24.8688L383.695 24.8702C384.582 26.1587 385.809 27.1343 387.361 27.7987C388.919 28.4619 390.743 28.7881 392.824 28.7881C394.964 28.7881 396.809 28.4531 398.344 27.7701C399.883 27.0805 401.076 26.1189 401.904 24.8792L401.905 24.8783C402.733 23.6298 403.143 22.1892 403.143 20.5687C403.143 19.3737 402.921 18.3143 402.465 17.4005C402.016 16.5003 401.404 15.7303 400.631 15.0932C399.877 14.4646 399.023 13.9454 398.071 13.5347C397.136 13.1281 396.163 12.8056 395.152 12.5671L392.688 11.9435L392.685 11.9426C392.157 11.8155 391.634 11.6586 391.114 11.472C390.605 11.2892 390.145 11.0662 389.732 10.8038C389.334 10.5428 389.024 10.2311 388.795 9.86946C388.586 9.52408 388.474 9.10736 388.474 8.60636C388.482 8.00655 388.654 7.48178 388.987 7.02099C389.322 6.55969 389.812 6.1825 390.478 5.89822C391.136 5.61703 391.941 5.47022 392.901 5.47022C394.264 5.47022 395.337 5.77536 396.146 6.35613L396.147 6.35703C396.955 6.93087 397.412 7.72555 397.523 8.76975ZM270.37 23.2392H270.361L277.758 15.0209C277.841 15.0209 277.886 15.0209 277.923 15.0583V28.2299H283.847V0.773438H282.984L269.912 15.8726L256.795 0.773438H255.894V28.2224H261.773V15.0508C261.81 15.0508 261.855 15.0508 261.893 15.0134L269.461 23.2392H270.361L270.355 23.2466L270.37 23.2392ZM420.809 20.9221L426.424 28.6742H431.301L425.035 20.3743L431.055 12.8135H426.178L420.809 19.8955V12.8135H416.805V28.6742H420.809V20.9221ZM489.783 28.6735L488.706 26.185H482.638L481.535 28.6735H477.984L485.488 12.6074H486.013L493.399 28.6735H489.783ZM485.659 19.3744L483.715 23.7489H487.646L485.751 19.3744H485.659ZM477.218 28.6741V25.9084H469.541V21.7444H476.007V19.071H469.541V15.5533H476.758V12.7832H465.933V28.6741H477.218ZM456.799 12.8564C458.437 12.8564 459.838 13.3122 460.97 14.2501C462.128 15.1617 462.706 16.4327 462.706 18.0412C462.706 19.8644 461.666 21.8585 459.521 22.8402L463.719 28.6735H459.618L455.42 22.2179V21.8804C457.931 21.5911 459.16 20.1054 459.16 18.5452C459.16 16.722 457.979 15.5693 456.12 15.5693H453.949V28.6735H450.354V12.8564H456.794H456.799ZM436.438 28.0343C437.474 28.4606 438.6 28.6738 439.818 28.6738C441.006 28.6738 442.11 28.4606 443.13 28.0343C444.165 27.608 445.064 27.0218 445.825 26.2758C446.586 25.5145 447.18 24.6314 447.606 23.6265C448.032 22.6064 448.246 21.5102 448.246 20.3379C448.246 19.1503 448.032 18.054 447.606 17.0492C447.18 16.0291 446.578 15.146 445.802 14.4C445.041 13.6387 444.142 13.0525 443.107 12.6414C442.087 12.2151 440.976 12.002 439.773 12.002C438.555 12.002 437.428 12.2151 436.393 12.6414C435.373 13.0525 434.482 13.6387 433.721 14.4C432.959 15.146 432.366 16.0215 431.939 17.0263C431.513 18.0312 431.3 19.1274 431.3 20.315C431.3 21.4874 431.513 22.5836 431.939 23.6037C432.366 24.6086 432.967 25.4916 433.743 26.2529C434.52 27.0142 435.418 27.608 436.438 28.0343ZM442.285 24.7684C441.569 25.1948 440.732 25.4079 439.773 25.4079C439.057 25.4079 438.402 25.2861 437.809 25.0425C437.215 24.7989 436.705 24.4563 436.279 24.0148C435.867 23.558 435.548 23.0175 435.319 22.3933C435.091 21.769 434.977 21.0763 434.977 20.315C434.977 19.2949 435.175 18.4118 435.571 17.6658C435.966 16.9045 436.522 16.3184 437.238 15.9073C437.969 15.481 438.814 15.2678 439.773 15.2678C440.488 15.2678 441.135 15.3896 441.714 15.6332C442.308 15.8616 442.818 16.2042 443.244 16.6609C443.67 17.1025 443.998 17.6353 444.226 18.2596C444.454 18.8686 444.569 19.5537 444.569 20.315C444.569 21.3199 444.371 22.2106 443.975 22.9871C443.579 23.7483 443.016 24.3421 442.285 24.7684Z" fill="black"/>
</svg>
