<svg width="290" height="163" viewBox="0 0 290 163" fill="none" xmlns="http://www.w3.org/2000/svg">
<path fill-rule="evenodd" clip-rule="evenodd" d="M88.7708 57.9755C88.3547 57.7564 87.9386 57.5256 87.534 57.2718L87.5456 57.2834L85.1068 55.8067C85.0836 55.7837 85.0605 55.7721 85.0374 55.7606C87.6959 25.0857 113.483 1.02112 144.876 0.998047C149.106 0.998047 153.232 1.43642 157.208 2.26703C157.336 3.4668 157.451 4.67811 157.532 5.88941C157.763 9.20031 157.856 12.5458 157.81 15.8798C157.705 22.5477 157.07 29.2272 155.741 35.7567C154.423 42.2863 152.435 48.6889 149.661 54.7339C148.274 57.7564 146.69 60.6981 144.899 63.5014C143.107 66.3047 141.108 68.9811 138.923 71.5075C137.548 73.0995 136.08 74.6223 134.565 76.0874L134.369 76.0418L134.369 76.0417L134.369 76.0417C133.739 75.8952 133.101 75.747 132.473 75.5798L126.925 74.034L125.538 73.6418L124.174 73.2034L121.447 72.3151C121.048 72.1841 120.649 72.0553 120.251 71.9267L120.249 71.9262C118.824 71.4659 117.405 71.0076 116.014 70.4577L110.639 68.462L105.369 66.2355C105 66.0737 104.628 65.9161 104.255 65.7582L104.254 65.7578L104.253 65.7576C103.749 65.5442 103.243 65.3303 102.745 65.1049L100.167 63.8706C99.5972 63.5937 99.0244 63.3219 98.4516 63.0502C97.3061 62.5067 96.1605 61.9632 95.0355 61.3787L90.0191 58.6562L88.7708 57.9755ZM166.593 16.3068C166.05 23.4477 164.929 30.5541 163.08 37.4989C161.242 44.4322 158.676 51.2039 155.289 57.5489C153.59 60.7213 151.695 63.79 149.579 66.6971C147.464 69.6042 145.141 72.3614 142.633 74.9225C141.801 75.7761 140.934 76.6068 140.067 77.4143C140.344 77.4835 140.622 77.5412 140.911 77.5989L143.742 78.1641C144.325 78.2747 144.908 78.3919 145.491 78.5093C146.794 78.7714 148.1 79.0342 149.418 79.2255C154.307 80.0907 159.231 80.7367 164.189 81.2328C164.79 80.8405 165.391 80.4368 165.981 80.0215C169.079 77.8411 172.107 75.5454 174.869 72.9613C177.632 70.4003 180.198 67.6777 182.452 64.6898C184.671 61.6904 186.613 58.4833 188.173 55.0686C192.519 45.5858 193.698 34.6725 192.195 23.9899C185.653 15.6723 176.95 9.13127 166.94 5.19741V5.56657C166.975 9.16588 166.859 12.7421 166.593 16.3183V16.3068ZM110.142 91.5804C110.419 91.4664 110.698 91.3553 110.977 91.244C111.489 91.04 112.003 90.8353 112.511 90.6114L114.835 89.5501C117.898 88.0734 120.903 86.493 123.746 84.6472C125.561 83.4705 127.329 82.2245 129.04 80.9094L125.364 80.0903L123.92 79.7673L122.486 79.3866L119.62 78.6252C119.361 78.5568 119.102 78.4887 118.844 78.4207L118.841 78.4202C117.183 77.9841 115.528 77.5489 113.898 77.0102L108.212 75.2336L102.606 73.2148C102.256 73.0856 101.907 72.9597 101.559 72.8341C100.973 72.6228 100.388 72.4122 99.8086 72.188L97.0577 71.0459C96.4689 70.7983 95.879 70.5543 95.2895 70.3104C94.0386 69.7929 92.7892 69.276 91.5558 68.7271L86.1465 66.1661L85.0137 65.6239C85.8691 76.9179 89.8683 87.3351 96.1214 96.0104C99.2422 95.2605 102.328 94.3953 105.368 93.3801C105.839 93.2078 106.311 93.0404 106.784 92.8731L106.785 92.8727L106.785 92.8727L106.785 92.8727L106.785 92.8727L106.785 92.8727L106.785 92.8726L106.785 92.8726L106.785 92.8726L106.785 92.8726L106.785 92.8725L106.785 92.8725L106.785 92.8725L106.785 92.8725L106.786 92.8725L106.786 92.8724L106.786 92.8724L106.786 92.8724L106.786 92.8724L106.786 92.8723L106.786 92.8723C107.926 92.4685 109.066 92.0648 110.177 91.592L110.142 91.5804ZM142.829 83.3899L139.893 82.963C139.301 82.8796 138.717 82.771 138.134 82.6625L138.134 82.6625L138.134 82.6624L138.133 82.6624L138.133 82.6624L138.133 82.6624L138.133 82.6624L138.133 82.6623L138.133 82.6623L138.133 82.6623L138.133 82.6623L138.132 82.6622L138.132 82.6622L138.132 82.6622L138.132 82.6622L138.132 82.6621L138.132 82.6621L138.132 82.6621L138.131 82.662L138.13 82.6619L138.13 82.6618C137.747 82.5905 137.364 82.5193 136.98 82.4554C136.297 82.325 135.605 82.2034 134.919 82.0828L134.611 82.0286C131.756 84.1743 128.762 86.124 125.664 87.8544C122.578 89.6079 119.342 91.073 116.082 92.3997L113.609 93.3456C113.092 93.5417 112.566 93.715 112.04 93.8884C111.73 93.9904 111.42 94.0925 111.112 94.1993C109.992 94.5981 108.845 94.9279 107.701 95.2572L107.7 95.2572C107.156 95.4137 106.613 95.5701 106.073 95.7336C103.195 96.5066 100.293 97.1526 97.3807 97.6833C97.9009 98.3639 98.4441 99.0215 98.9989 99.679L99.0003 99.679C99.6818 99.6444 100.363 99.6098 101.033 99.5752C102.952 99.4483 104.859 99.3099 106.778 99.1484C107.705 99.0815 108.621 98.9823 109.547 98.882L109.548 98.8819L109.644 98.8715C109.821 98.8545 109.998 98.8378 110.175 98.8212C110.954 98.7478 111.726 98.675 112.499 98.5716C127.722 96.8757 142.759 92.8842 156.236 85.8471C156.61 85.6565 156.978 85.4539 157.344 85.2523L157.43 85.205L157.596 85.1138C157.655 85.0812 157.714 85.0488 157.774 85.0165C154.745 84.7973 151.717 84.5089 148.7 84.1397C147.327 84.0107 145.964 83.814 144.597 83.6166C144.009 83.5317 143.42 83.4466 142.829 83.3668V83.3899ZM171.807 85.6395H172.258L172.269 85.6625C180.129 85.7433 187.977 85.4433 195.779 84.7742C197.293 84.6473 198.796 84.4974 200.299 84.3359C191.179 105.874 169.819 120.998 144.91 120.998C131.399 120.998 118.939 116.557 108.906 109.046C110.501 108.908 112.096 108.758 113.691 108.562C117.76 108.101 121.805 107.339 125.827 106.485C129.85 105.632 133.837 104.559 137.756 103.313C139.519 102.764 141.263 102.142 143.005 101.52L143.604 101.306C143.988 101.156 144.372 101.007 144.756 100.859C146.293 100.264 147.83 99.6699 149.337 98.9869C150.792 98.3798 152.213 97.6921 153.631 97.0058L153.632 97.0055C154.073 96.7921 154.513 96.5788 154.955 96.3682C155.286 96.1935 155.617 96.02 155.948 95.8466L155.949 95.8465L155.949 95.8463L155.949 95.8461L155.949 95.8459L155.95 95.8457C157.454 95.0576 158.952 94.2731 160.41 93.4034C163.993 91.3268 167.449 89.0426 170.732 86.4931C171.09 86.2167 171.448 85.9287 171.805 85.6407L171.806 85.6404L171.807 85.6395ZM196.449 45.1129C195.94 49.2198 194.958 53.3036 193.524 57.226C192.091 61.1598 190.207 64.9437 187.919 68.4623C185.618 71.9693 182.937 75.234 180.036 78.2219C178.753 79.5716 177.4 80.8522 176.025 82.0865C182.544 82.4096 189.098 82.4673 195.64 82.2481C197.501 82.1904 199.361 82.0981 201.222 81.9943C203.673 75.4532 205.014 68.3815 205.014 60.9868C205.014 49.5428 201.8 38.8603 196.241 29.7582C196.391 30.7618 196.507 31.7655 196.587 32.7807C196.969 36.853 196.957 40.9945 196.472 45.1014L196.449 45.1129ZM23.7371 142.429H19.3311V161.814H32.7545V158.436H23.7371V142.429ZM50.2263 161.815L48.898 158.745H41.4141L40.0534 161.815H35.6743L44.9293 142H45.5772L54.6864 161.815H50.2263ZM45.1398 150.346L42.7424 155.741H47.5913L45.2532 150.346H45.1398ZM0 142.422V161.854L0.00540489 161.849H4.43848V155.571H7.68905C9.8165 155.571 11.5336 154.951 12.8619 153.686C14.1902 152.415 14.8705 150.854 14.8705 148.937C14.8705 147.139 14.2226 145.61 12.9483 144.339C11.6794 143.068 9.8435 142.422 7.47847 142.422H0ZM4.40609 152.302V145.696H6.73872C9.19015 145.696 10.4645 147.171 10.4645 149.029C10.4645 150.8 9.40073 152.302 6.71172 152.302H4.40609ZM218.406 142.429H222.812V158.436H231.83V161.814H218.406V142.429ZM247.973 158.745L249.301 161.815H253.762L244.652 142H244.004L234.75 161.815H239.129L240.489 158.745H247.973ZM241.818 155.741L244.215 150.346H244.328L246.666 155.741H241.818ZM126.496 161.815L125.168 158.745H117.684L116.323 161.815H111.944L121.199 142H121.847L130.956 161.815H126.496ZM121.41 150.346L119.012 155.741H123.861L121.523 150.346H121.41ZM57.6025 161.814H61.9762H61.987V150.625H62.0734L74.3143 162.136H74.9353V142.434H70.5562V153.268H70.4374C69.1037 151.976 67.0627 150.127 64.3736 147.72C61.6792 145.28 59.6382 143.404 58.2505 142.053H57.6025V161.814ZM93.1758 158.435V161.812H79.396V142.408H92.6143V145.791H83.8021V150.086H91.6963V153.351H83.8021V158.435H93.1758ZM106.269 145.802H111.944V142.428H96.1558V145.802H101.863V161.814H106.269V145.802ZM141.771 142.422C143.779 142.422 145.496 142.981 146.884 144.13C148.304 145.248 149.012 146.806 149.012 148.778C149.012 151.013 147.737 153.457 145.108 154.661L150.254 161.811H145.226L140.081 153.898V153.484C143.158 153.129 144.665 151.308 144.665 149.396C144.665 147.161 143.218 145.748 140.939 145.748H138.277V161.811H133.871V142.422H141.765H141.771ZM153.332 161.867H157.738V142.408H153.332V161.867ZM174.564 142.431H178.938V154.058C178.938 156.426 178.23 158.352 176.778 159.84C175.331 161.301 173.257 162.032 170.568 162.032C165.039 162.032 162.199 158.965 162.199 154.143V142.431H166.605V154.117C166.605 156.544 167.993 158.469 170.595 158.469C173.198 158.469 174.558 156.629 174.558 154.261V142.431H174.564ZM256.664 142.421V161.816H264.62C266.101 161.816 267.348 161.588 268.352 161.119C269.349 160.653 270.108 160.01 270.615 159.188C271.117 158.365 271.367 157.441 271.367 156.421C271.367 155.427 271.161 154.564 270.738 153.842C270.322 153.132 269.782 152.578 269.118 152.186C268.681 151.922 268.228 151.736 267.76 151.631C268.155 151.485 268.525 151.296 268.868 151.065C269.404 150.704 269.83 150.235 270.146 149.66L270.146 149.659C270.467 149.068 270.622 148.367 270.622 147.567C270.622 146.59 270.382 145.708 269.898 144.928C269.416 144.142 268.691 143.531 267.738 143.09C266.784 142.64 265.601 142.421 264.201 142.421H256.664ZM266.99 154.766L266.99 154.767C267.244 155.176 267.373 155.635 267.373 156.153C267.373 156.834 267.123 157.382 266.62 157.815C266.134 158.232 265.304 158.467 264.071 158.467H260.602V153.414H264.164C264.848 153.414 265.422 153.541 265.895 153.784L265.897 153.785C266.375 154.025 266.736 154.352 266.99 154.766ZM266.684 148.01C266.684 148.521 266.556 148.952 266.308 149.312C266.062 149.673 265.722 149.957 265.282 150.161C264.84 150.36 264.338 150.462 263.773 150.462H260.602V145.733H263.848C264.831 145.733 265.528 145.962 265.981 146.379L265.982 146.38C266.45 146.806 266.684 147.343 266.684 148.01ZM285.29 148.04L285.267 147.823C285.188 147.072 284.858 146.5 284.278 146.088L284.277 146.087C283.695 145.669 282.924 145.45 281.943 145.45C281.253 145.45 280.674 145.555 280.2 145.758C279.722 145.962 279.369 146.233 279.129 146.565C278.889 146.896 278.765 147.274 278.759 147.705C278.76 148.065 278.84 148.365 278.991 148.613C279.155 148.873 279.378 149.098 279.664 149.285C279.961 149.474 280.292 149.634 280.658 149.766C281.032 149.9 281.408 150.013 281.788 150.104L281.79 150.105L283.562 150.553C284.289 150.725 284.989 150.957 285.661 151.249C286.346 151.545 286.96 151.918 287.502 152.37C288.058 152.828 288.498 153.382 288.821 154.029C289.149 154.686 289.309 155.448 289.309 156.308C289.309 157.473 289.014 158.509 288.418 159.407C287.822 160.298 286.965 160.991 285.858 161.487C284.753 161.978 283.427 162.219 281.888 162.219C280.391 162.219 279.079 161.984 277.959 161.507C276.843 161.029 275.961 160.328 275.323 159.401L275.322 159.4C274.688 158.47 274.352 157.345 274.301 156.037L274.291 155.784H278.142L278.158 156.009C278.205 156.636 278.394 157.141 278.715 157.539C279.043 157.945 279.471 158.251 280.006 158.456C280.554 158.662 281.171 158.767 281.86 158.767C282.581 158.767 283.202 158.659 283.727 158.448C284.261 158.231 284.667 157.936 284.957 157.57C285.242 157.203 285.389 156.777 285.395 156.28C285.389 155.831 285.259 155.479 285.021 155.205L285.019 155.204C284.766 154.908 284.403 154.653 283.917 154.446L283.913 154.445C283.424 154.227 282.846 154.031 282.178 153.859L280.025 153.298C278.441 152.886 277.17 152.257 276.228 151.4L276.226 151.399C275.271 150.518 274.799 149.349 274.799 147.919C274.799 146.744 275.114 145.706 275.75 144.813L275.75 144.812C276.388 143.926 277.251 143.242 278.333 142.759C279.416 142.269 280.636 142.026 281.989 142.026C283.36 142.026 284.573 142.268 285.621 142.76C286.672 143.244 287.504 143.922 288.11 144.796C288.719 145.668 289.031 146.669 289.05 147.793L289.054 148.04H285.29ZM193.82 158.228H193.826L193.816 158.234L193.82 158.228ZM193.173 158.228H193.82L199.14 152.318C199.199 152.318 199.231 152.318 199.258 152.345V161.817H203.519V142.072H202.898L193.497 152.931L184.064 142.072H183.416V161.812H187.644V152.34C187.671 152.34 187.703 152.34 187.73 152.313L193.173 158.228Z" fill="black"/>
</svg>
