<svg width="359" height="57" viewBox="0 0 359 57" fill="none" xmlns="http://www.w3.org/2000/svg">
<g clip-path="url(#clip0_1786_6468)">
<path d="M38.0705 7.89532C37.817 11.2278 37.2938 14.544 36.4308 17.785C35.5731 21.0205 34.3757 24.1807 32.7952 27.1416C32.0023 28.6221 31.1177 30.0541 30.1306 31.4108C29.1435 32.7675 28.0594 34.0541 26.8889 35.2493C26.5005 35.6477 26.096 36.0353 25.6914 36.4121C25.8209 36.4444 25.9503 36.4714 26.0852 36.4983L27.4067 36.7621C28.2859 36.929 29.1651 37.1282 30.0551 37.2574C32.3368 37.6611 34.6346 37.9626 36.9486 38.1941C37.2291 38.0111 37.5096 37.8226 37.7846 37.6288C39.2302 36.6113 40.6434 35.54 41.9326 34.3341C43.2217 33.1389 44.4192 31.8684 45.471 30.4741C46.5067 29.0743 47.4128 27.5777 48.141 25.9841C50.1692 21.5588 50.7193 16.466 50.0181 11.4808C46.9652 7.59923 42.9035 4.54674 38.2323 2.71094C38.2323 2.77016 38.2323 2.82399 38.2323 2.88321C38.2485 4.56289 38.1946 6.2318 38.0705 7.90071V7.89532Z" fill="black"/>
<path d="M11.7264 43.0232C12.0932 42.8725 12.4654 42.7325 12.8322 42.571L13.9164 42.0757C15.3458 41.3866 16.7482 40.649 18.0751 39.7877C18.922 39.2386 19.7473 38.6571 20.5456 38.0434L18.8303 37.6612L18.156 37.5104L17.4872 37.3328L16.1495 36.9774C15.2541 36.7406 14.3587 36.5145 13.4795 36.2238L10.8257 35.3947L8.20959 34.4526C7.77268 34.291 7.33577 34.1403 6.90426 33.9734L5.6205 33.4404C4.76286 33.0797 3.89983 32.7352 3.05298 32.3583L0.528607 31.1632L0 30.9102C0.399152 36.1807 2.26546 41.0421 5.18359 45.0905C6.63995 44.7406 8.08014 44.3368 9.49875 43.863C10.2485 43.5885 11.0091 43.3408 11.7426 43.0286L11.7264 43.0232Z" fill="black"/>
<path d="M1.17632 27.0121C1.36511 27.1305 1.55929 27.2382 1.75348 27.3405L2.33602 27.6581L4.677 28.9286C5.46451 29.3378 6.27361 29.7039 7.07191 30.0915L8.27476 30.6675C8.67931 30.8506 9.09464 31.0175 9.49919 31.1951L11.9588 32.2341L14.467 33.1655C15.2977 33.4939 16.1499 33.7523 17.0022 34.0323L18.2751 34.4468L18.9116 34.6514L19.5589 34.8344L22.148 35.5558C22.4716 35.6419 22.8007 35.7173 23.1243 35.7927C23.8309 35.109 24.5159 34.3983 25.1578 33.6554C26.1773 32.4764 27.1104 31.2274 27.9465 29.9192C28.7826 28.611 29.5215 27.2382 30.1688 25.8277C31.4634 23.0067 32.3911 20.0188 33.006 16.9717C33.6263 13.9246 33.923 10.8075 33.9715 7.69579C33.9931 6.13994 33.95 4.5787 33.8421 3.03361C33.8043 2.46834 33.7504 1.90306 33.6911 1.34317C31.8355 0.955553 29.9099 0.750977 27.9357 0.750977C13.2857 0.761744 1.25184 11.9919 0.0112305 26.3068C0.0220184 26.3122 0.0328063 26.3176 0.0435942 26.3284L1.18172 27.0175L1.17632 27.0121Z" fill="black"/>
<path d="M26.9805 39.2007L25.6104 39.0015C25.152 38.9369 24.7043 38.84 24.2512 38.7646C23.8844 38.6946 23.5122 38.63 23.1454 38.5654C21.8131 39.5668 20.4161 40.4766 18.9705 41.2841C17.5303 42.1024 16.02 42.7862 14.4989 43.4053L13.3446 43.8467C12.9616 43.9921 12.5679 44.1105 12.1795 44.2451C11.4082 44.5197 10.6099 44.7242 9.82774 44.9611C8.48464 45.3218 7.13076 45.6233 5.77148 45.8709C6.01421 46.1886 6.26773 46.4954 6.52664 46.8023C6.84488 46.7862 7.16312 46.77 7.47597 46.7539C8.37137 46.6946 9.26137 46.63 10.1568 46.5547C10.6045 46.5224 11.0468 46.4739 11.4945 46.4255C11.9422 46.3824 12.3845 46.3447 12.8268 46.2855C19.9306 45.4941 26.9481 43.6314 33.2375 40.3474C33.4802 40.2236 33.7175 40.089 33.9549 39.9598C32.5417 39.8575 31.1285 39.7229 29.7206 39.5506C28.8037 39.4645 27.8975 39.3137 26.9805 39.1899V39.2007Z" fill="black"/>
<path d="M40.7142 40.2499C40.644 40.2499 40.5739 40.2499 40.5038 40.2499C40.3366 40.3845 40.1694 40.5191 40.0022 40.6483C38.4703 41.8381 36.8575 42.9041 35.1854 43.8731C34.3547 44.3684 33.497 44.8045 32.6394 45.2567C31.771 45.6712 30.908 46.1073 30.0179 46.4787C29.1387 46.8771 28.2379 47.2109 27.3425 47.5608C26.4364 47.8839 25.5302 48.2123 24.6132 48.4976C22.7847 49.079 20.9237 49.5797 19.0466 49.9781C17.1696 50.3765 15.2817 50.7318 13.383 50.9471C12.6386 51.0386 11.8943 51.1086 11.1499 51.1732C15.8319 54.6779 21.6465 56.7506 27.9521 56.7506C39.576 56.7506 49.5441 49.6927 53.7999 39.6416C53.0987 39.717 52.3975 39.787 51.6909 39.8462C48.0499 40.1584 44.3874 40.2984 40.7195 40.2607L40.7142 40.2499Z" fill="black"/>
<path d="M52.0033 21.3384C51.7659 23.2549 51.3075 25.1607 50.6386 26.9912C49.9698 28.827 49.0905 30.5928 48.0225 32.2348C46.9491 33.8714 45.6978 35.3949 44.3439 36.7893C43.7451 37.4191 43.114 38.0167 42.4722 38.5928C45.5144 38.7435 48.5727 38.7704 51.6257 38.6681C52.4941 38.6412 53.3626 38.5981 54.231 38.5497C55.3745 35.4972 56.0002 32.1971 56.0002 28.7462C56.0002 23.4057 54.5007 18.4205 51.9062 14.1729C51.9763 14.6412 52.0302 15.1096 52.068 15.5833C52.246 17.4838 52.2406 19.4165 52.0141 21.333L52.0033 21.3384Z" fill="black"/>
</g>
<path d="M76 42.3583V15.3369H86.3992C89.6879 15.3369 92.2408 16.2354 94.0053 18.0024C95.7773 19.7693 96.6783 21.8957 96.6783 24.3964C96.6783 27.0619 95.7322 29.2332 93.8851 31.0002C92.038 32.7597 89.6504 33.6207 86.692 33.6207H82.1719V42.3508H76.0075L76 42.3583ZM82.1269 19.8891V29.076H85.333C89.0722 29.076 90.5514 26.987 90.5514 24.5237C90.5514 21.9406 88.7794 19.8891 85.3706 19.8891H82.1194H82.1269Z" fill="black"/>
<path d="M102.881 15.3477H109.008V37.6063H121.547V42.3041H102.881V15.3477Z" fill="black"/>
<path d="M145.843 42.3039L143.996 38.0362H133.589L131.697 42.3039H125.607L138.477 14.751H139.378L152.045 42.3039H145.835H145.843ZM138.77 26.3562L135.436 33.8583H142.179L138.927 26.3562H138.762H138.77Z" fill="black"/>
<path d="M251.9 42.3039L250.053 38.0362H239.646L237.754 42.3039H231.665L244.534 14.751H245.435L258.102 42.3039H251.892H251.9ZM244.827 26.3562L241.493 33.8583H248.236L244.985 26.3562H244.819H244.827Z" fill="black"/>
<path d="M162.181 42.3033H156.1V14.8242H157.001C158.93 16.7029 161.768 19.3121 165.515 22.7041C169.254 26.0514 172.093 28.6234 173.947 30.4201H174.112V15.3535H180.202V42.7506H179.338L162.317 26.7448H162.196V42.3033H162.181Z" fill="black"/>
<path d="M205.566 37.5979V42.3015H186.404V15.3193H204.785V20.0229H192.531V25.9957H203.509V30.5351H192.531V37.6054H205.566V37.5979Z" fill="black"/>
<path d="M231.641 20.0371H223.749V42.3028H217.622V20.0371H209.686V15.3457H231.641V20.0371Z" fill="black"/>
<path d="M273.14 15.3369C275.933 15.3369 278.32 16.1139 280.25 17.7126C282.225 19.2665 283.208 21.4331 283.208 24.1748C283.208 27.2827 281.436 30.6819 277.78 32.3553L284.935 42.2989H277.945L270.789 31.2945V30.7192C275.069 30.2261 277.164 27.6936 277.164 25.034C277.164 21.9261 275.152 19.9613 271.983 19.9613H268.282V42.2989H262.155V15.3369H273.132H273.14Z" fill="black"/>
<path d="M295.123 42.3781H288.996V15.3193H295.123V42.3781Z" fill="black"/>
<path d="M318.52 15.3496H324.601V31.5181C324.601 34.8111 323.618 37.4885 321.598 39.5578C319.586 41.59 316.702 42.6061 312.963 42.6061C305.275 42.6061 301.325 38.3415 301.325 31.6367V15.3496H307.452V31.5997C307.452 34.9743 309.382 37.6517 313.001 37.6517C316.62 37.6517 318.512 35.0929 318.512 31.7999V15.3496H318.52Z" fill="black"/>
<path d="M345.329 37.29H344.42L336.852 29.0643C336.814 29.1016 336.769 29.1016 336.732 29.1016V42.2733H330.853V14.8242H331.754L344.871 29.9234L357.943 14.8242H358.806V42.2808H352.882V29.1091C352.845 29.0717 352.8 29.0717 352.717 29.0717L345.314 37.2975L345.329 37.29Z" fill="black"/>
<defs>
<clipPath id="clip0_1786_6468">
<rect width="56" height="56" fill="white" transform="translate(0 0.750977)"/>
</clipPath>
</defs>
</svg>
