<svg width="121" height="121" viewBox="0 0 121 121" fill="none" xmlns="http://www.w3.org/2000/svg">
<path fill-rule="evenodd" clip-rule="evenodd" d="M3.11675 56.7718C3.52129 57.0256 3.9374 57.2564 4.3535 57.4755L5.60182 58.1562L10.6182 60.8787C11.7432 61.4632 12.8887 62.0067 14.0343 62.5502C14.6071 62.8219 15.1799 63.0937 15.7501 63.3706L18.3277 64.6049C18.8257 64.8303 19.3314 65.0442 19.8359 65.2576L19.836 65.2577L19.8361 65.2577L19.8363 65.2578L19.8369 65.2581L19.8372 65.2582C20.2104 65.4161 20.583 65.5737 20.9515 65.7355L26.2221 67.962L31.5968 69.9577C32.9875 70.5076 34.4065 70.9658 35.8316 71.4261L35.8319 71.4262L35.834 71.4269L35.8361 71.4276C36.2335 71.5559 36.6314 71.6844 37.0293 71.8151L39.7571 72.7034L41.121 73.1418L42.508 73.534L48.0561 75.0798C48.6828 75.2466 49.3189 75.3946 49.9475 75.5408L49.9489 75.5411L49.9514 75.5417L49.9517 75.5417L50.1481 75.5874C51.6623 74.1223 53.1302 72.5995 54.5057 71.0075C56.6902 68.4811 58.6898 65.8047 60.4814 63.0014C62.273 60.1981 63.8565 57.2564 65.2435 54.2339C68.0175 48.1889 70.0056 41.7863 71.3233 35.2567C72.6525 28.7272 73.2882 22.0477 73.3922 15.3798C73.4385 12.0458 73.346 8.70031 73.1148 5.38941C73.0339 4.17811 72.9183 2.9668 72.7912 1.76703C68.8151 0.936424 64.6887 0.498047 60.4583 0.498047C29.0655 0.521119 3.27856 24.5857 0.620117 55.2606C0.643234 55.2721 0.666351 55.2837 0.689468 55.3067L3.1283 56.7834L3.11675 56.7718ZM78.6623 36.9987C80.5117 30.0539 81.6329 22.9476 82.1761 15.8067V15.8182C82.4419 12.242 82.5575 8.66573 82.5229 5.06643V4.69727C92.5325 8.63112 101.236 15.1722 107.778 23.4898C109.281 34.1724 108.102 45.0856 103.756 54.5684C102.195 57.9832 100.254 61.1902 98.0343 64.1897C95.7804 67.1776 93.2144 69.9001 90.452 72.4612C87.6895 75.0453 84.6612 77.341 81.5635 79.5213C80.974 79.9366 80.373 80.3404 79.7719 80.7326C74.8134 80.2366 69.8894 79.5905 65.0002 78.7253C63.6828 78.5341 62.3764 78.2713 61.0735 78.0091C60.4902 77.8918 59.9076 77.7746 59.325 77.664L56.4932 77.0987C56.2042 77.041 55.9268 76.9834 55.6494 76.9141C56.5163 76.1066 57.3832 75.276 58.2154 74.4223C60.7236 71.8613 63.0468 69.1041 65.162 66.197C67.2772 63.2898 69.1728 60.2212 70.8719 57.0487C74.2585 50.7038 76.8245 43.932 78.6623 36.9987ZM26.5602 90.7442C26.281 90.8554 26.0022 90.9666 25.7248 91.0806L25.7595 91.0921C24.6483 91.5651 23.5083 91.9688 22.368 92.3727L22.3676 92.3729L22.3668 92.3732L22.3662 92.3734L22.3657 92.3736L22.3651 92.3738C21.8931 92.5409 21.4211 92.7081 20.9511 92.8802C17.9113 93.8954 14.8252 94.7606 11.7044 95.5105C5.45124 86.8352 1.45201 76.418 0.59668 65.124L1.72941 65.6662L7.13877 68.2273C8.37212 68.7761 9.6215 69.293 10.8724 69.8105L10.876 69.812C11.4644 70.0554 12.0531 70.299 12.6406 70.5461L15.3915 71.6881C15.9709 71.9122 16.5549 72.1227 17.1405 72.3338L17.1414 72.3342L17.1421 72.3344L17.1428 72.3347L17.1429 72.3347L17.143 72.3347C17.4911 72.4602 17.8399 72.586 18.1887 72.7149L23.7945 74.7337L29.4813 76.5103C31.1104 77.049 32.7654 77.4841 34.4239 77.9202L34.4243 77.9203L34.4366 77.9235L34.4486 77.9267C34.6999 77.9927 34.9513 78.0588 35.2027 78.1254L38.0692 78.8868L39.5025 79.2675L40.9473 79.5905L44.6229 80.4095C42.9122 81.7247 41.1438 82.9706 39.3291 84.1473C36.4857 85.9931 33.4805 87.5735 30.4175 89.0502L28.0943 90.1115C27.5857 90.3355 27.0722 90.5401 26.5602 90.7442ZM55.4759 82.4628L58.4118 82.8896V82.8665C59.003 82.9464 59.5922 83.0314 60.1805 83.1164L60.1806 83.1164C61.5474 83.3137 62.9098 83.5104 64.2835 83.6395C67.3002 84.0086 70.3285 84.297 73.3569 84.5162C73.2144 84.5938 73.072 84.6722 72.9293 84.7508L72.9267 84.7522C72.5608 84.9538 72.1932 85.1562 71.8196 85.3468C58.3424 92.3839 43.3048 96.3755 28.0823 98.0713C27.3095 98.1747 26.5367 98.2475 25.7577 98.3209C25.5813 98.3375 25.4045 98.3542 25.2274 98.3712L25.131 98.3817C24.2045 98.482 23.2881 98.5812 22.3609 98.6481C20.4422 98.8096 18.535 98.948 16.6163 99.0749C15.946 99.1095 15.264 99.1441 14.5821 99.1788C14.0272 98.5212 13.484 97.8636 12.9639 97.183C15.8766 96.6523 18.7778 96.0063 21.6558 95.2334C22.1959 95.0698 22.7395 94.9135 23.2836 94.7569L23.2838 94.7569L23.284 94.7568C24.4285 94.4276 25.5752 94.0978 26.6953 93.699C27.0031 93.5924 27.3124 93.4905 27.6215 93.3886L27.6223 93.3884L27.6231 93.3881C28.1495 93.2147 28.6753 93.0415 29.192 92.8454L31.6655 91.8994C34.925 90.5727 38.1613 89.1076 41.2474 87.3541C44.3451 85.6237 47.3387 83.6741 50.1937 81.5283L50.5023 81.5826C51.1879 81.7031 51.8799 81.8248 52.5632 81.9552C52.9478 82.0191 53.3305 82.0904 53.7137 82.1616L53.7142 82.1617L53.7147 82.1618L53.715 82.1619C54.2986 82.2705 54.883 82.3792 55.4759 82.4628ZM87.8412 85.1395H87.3905L87.3899 85.14C87.0318 85.4282 86.6736 85.7165 86.3155 85.9932C83.0329 88.5427 79.5769 90.8269 75.9938 92.9034C74.5351 93.7732 73.0376 94.5577 71.5332 95.3459L71.533 95.346C71.2016 95.5196 70.8699 95.6933 70.5382 95.8682C70.0969 96.0789 69.6562 96.2922 69.2152 96.5056C67.7968 97.192 66.3756 97.8797 64.9208 98.487C63.4137 99.1699 61.8769 99.7642 60.3402 100.358L60.3399 100.359C59.9557 100.507 59.5715 100.656 59.1878 100.806L58.5879 101.02C56.8458 101.642 55.1018 102.265 53.3392 102.813C49.4209 104.059 45.4332 105.132 41.4109 105.986C37.3885 106.839 33.343 107.601 29.2745 108.062C27.6794 108.258 26.0843 108.408 24.4893 108.547C34.522 116.057 46.982 120.498 60.4939 120.498C85.4024 120.498 106.762 105.374 115.882 83.8359C114.379 83.9974 112.877 84.1474 111.363 84.2743C103.561 84.9434 95.7125 85.2434 87.8528 85.1626L87.8412 85.1395ZM109.108 56.7256C110.541 52.8033 111.524 48.7194 112.032 44.6125L112.055 44.601C112.541 40.4941 112.552 36.3526 112.171 32.2803C112.09 31.2651 111.974 30.2615 111.824 29.2578C117.384 38.3599 120.597 49.0425 120.597 60.4864C120.597 67.8811 119.256 74.9529 116.806 81.4939C114.945 81.5977 113.084 81.69 111.223 81.7477C104.681 81.9669 98.1274 81.9092 91.6084 81.5862C92.9839 80.3518 94.3362 79.0713 95.6192 77.7215C98.5204 74.7337 101.202 71.4689 103.502 67.9619C105.791 64.4433 107.675 60.6595 109.108 56.7256Z" fill="black"/>
</svg>
