<svg
  width="288"
  height="185"
  viewBox="0 0 288 185"
  fill="none"
  xmlns="http://www.w3.org/2000/svg"
>
  <g clip-path="url(#clip0_1754_4158)">
    <path
      d="M165.593 15.3086C165.05 22.4496 163.929 29.5559 162.08 36.5007C160.242 43.434 157.676 50.2058 154.289 56.5507C152.59 59.7232 150.694 62.7918 148.579 65.6989C146.464 68.6061 144.141 71.3632 141.633 73.9243C140.8 74.7779 139.934 75.6086 139.067 76.4161C139.344 76.4853 139.621 76.543 139.91 76.6007L142.742 77.166C144.626 77.5236 146.51 77.9504 148.417 78.2273C153.307 79.0925 158.231 79.7385 163.189 80.2346C163.79 79.8424 164.391 79.4386 164.981 79.0233C168.078 76.8429 171.107 74.5472 173.869 71.9631C176.632 69.4021 179.198 66.6795 181.452 63.6916C183.671 60.6922 185.613 57.4851 187.173 54.0704C191.519 44.5876 192.698 33.6743 191.195 22.9918C184.653 14.6741 175.95 8.13308 165.94 4.19922C165.94 4.32612 165.94 4.44148 165.94 4.56838C165.975 8.16769 165.859 11.7439 165.593 15.3202V15.3086Z"
      fill="#00A99D"
    />
    <path
      d="M109.142 90.5825C109.928 90.2595 110.725 89.9596 111.511 89.6135L113.834 88.5521C116.897 87.0755 119.903 85.495 122.746 83.6492C124.561 82.4725 126.329 81.2266 128.04 79.9115L124.364 79.0924L122.919 78.7694L121.486 78.3887L118.62 77.6273C116.701 77.1197 114.782 76.6352 112.898 76.0122L107.211 74.2357L101.606 72.2168C100.669 71.8707 99.7331 71.5477 98.8084 71.1901L96.0575 70.048C94.2197 69.2751 92.3703 68.5368 90.5556 67.7292L85.1463 65.1682L84.0135 64.626C84.8689 75.92 88.8681 86.3372 95.1212 95.0124C98.242 94.2626 101.328 93.3973 104.368 92.3822C105.975 91.7938 107.604 91.2632 109.176 90.594L109.142 90.5825Z"
      fill="#00D1C2"
    />
    <path
      d="M86.534 56.2738C86.9386 56.5276 87.3547 56.7583 87.7708 56.9775L89.0191 57.6581L94.0355 60.3807C95.723 61.2574 97.4568 62.0419 99.1674 62.8725L101.745 64.1069C102.612 64.4991 103.502 64.8567 104.369 65.2374L109.639 67.4639L115.014 69.4597C116.794 70.1634 118.62 70.7172 120.447 71.317L123.174 72.2053L124.538 72.6437L125.925 73.0359L131.473 74.5818C132.167 74.7664 132.872 74.9279 133.565 75.0894C135.08 73.6243 136.548 72.1015 137.923 70.5095C140.108 67.9831 142.107 65.3067 143.899 62.5034C145.69 59.7 147.274 56.7583 148.661 53.7358C151.435 47.6908 153.423 41.2882 154.741 34.7587C156.07 28.2292 156.705 21.5497 156.81 14.8818C156.856 11.5478 156.763 8.20227 156.532 4.89137C156.451 3.68006 156.336 2.46876 156.208 1.26899C152.232 0.438377 148.106 0 143.876 0C112.483 0.0230725 86.6959 24.0877 84.0374 54.7625C84.0605 54.7741 84.0836 54.7856 84.1068 54.8087L86.5456 56.2853L86.534 56.2738Z"
      fill="#00D1C2"
    />
    <path
      d="M141.828 82.3915L138.893 81.9647C137.91 81.8263 136.951 81.6186 135.98 81.4571C135.194 81.3071 134.396 81.1687 133.61 81.0303C130.755 83.176 127.762 85.1256 124.664 86.8561C121.578 88.6096 118.342 90.0747 115.082 91.4013L112.609 92.3473C111.788 92.6588 110.944 92.9126 110.112 93.201C108.459 93.7893 106.748 94.2277 105.073 94.7353C102.194 95.5082 99.2933 96.1543 96.3806 96.6849C96.9007 97.3656 97.4439 98.0231 97.9987 98.6807C98.6807 98.6461 99.3626 98.6115 100.033 98.5769C101.952 98.45 103.859 98.3116 105.778 98.15C106.737 98.0808 107.685 97.977 108.644 97.8732C109.603 97.7809 110.551 97.7001 111.499 97.5732C126.722 95.8774 141.759 91.8859 155.236 84.8488C155.756 84.5834 156.265 84.295 156.774 84.0182C153.745 83.799 150.717 83.5106 147.7 83.1414C145.735 82.9568 143.793 82.6338 141.828 82.3685V82.3915Z"
      fill="#00A99D"
    />
    <path
      d="M171.258 84.6415C171.107 84.6415 170.957 84.6415 170.807 84.6415C170.449 84.9299 170.09 85.2183 169.732 85.4952C166.449 88.0447 162.993 90.3289 159.41 92.4054C157.63 93.4667 155.793 94.4011 153.955 95.3702C152.094 96.2585 150.244 97.1929 148.337 97.9889C146.453 98.8426 144.523 99.5578 142.604 100.308C140.662 101 138.721 101.704 136.756 102.315C132.837 103.561 128.85 104.634 124.827 105.487C120.805 106.341 116.76 107.103 112.691 107.564C111.096 107.76 109.501 107.91 107.906 108.049C117.939 115.559 130.399 120 143.91 120C168.819 120 190.179 104.876 199.299 83.3379C197.796 83.4994 196.293 83.6494 194.779 83.7763C186.977 84.4454 179.129 84.7453 171.269 84.6646L171.258 84.6415Z"
      fill="#007A8F"
    />
    <path
      d="M195.449 44.1145C194.94 48.2214 193.958 52.3052 192.524 56.2276C191.091 60.1614 189.207 63.9453 186.918 67.4638C184.618 70.9709 181.937 74.2356 179.036 77.2235C177.753 78.5732 176.4 79.8538 175.025 81.0881C181.544 81.4112 188.097 81.4688 194.64 81.2497C196.5 81.192 198.361 81.0997 200.222 80.9959C202.673 74.4548 204.013 67.3831 204.013 59.9884C204.013 48.5444 200.8 37.8619 195.241 28.7598C195.391 29.7634 195.506 30.7671 195.587 31.7823C195.969 35.8546 195.957 39.9961 195.472 44.103L195.449 44.1145Z"
      fill="#007A8F"
    />
  </g>
  <path
    d="M19.6572 141.426H24.0335V157.325H32.99V160.68H19.6572V141.426Z"
    fill="currentColor"
  />
  <path
    d="M50.344 160.681L49.0247 157.632H41.5914L40.2398 160.681H35.8903L45.0828 141H45.7264L54.774 160.681H50.3387H50.344ZM45.2919 149.289L42.9107 154.648H47.7268L45.4046 149.289H45.2866H45.2919Z"
    fill="currentColor"
  />
  <path
    d="M0.456543 160.72V141.419H7.88453C10.2336 141.419 12.0571 142.061 13.3174 143.323C14.5831 144.585 15.2267 146.104 15.2267 147.89C15.2267 149.794 14.5509 151.345 13.2316 152.607C11.9123 153.864 10.2068 154.479 8.09369 154.479H4.86506V160.715H0.461911L0.456543 160.72ZM4.83289 144.671V151.233H7.12296C9.79381 151.233 10.8504 149.74 10.8504 147.981C10.8504 146.136 9.58465 144.671 7.14978 144.671H4.82753H4.83289Z"
    fill="currentColor"
  />
  <path
    d="M217.388 141.426H221.765V157.325H230.721V160.68H217.388V141.426Z"
    fill="currentColor"
  />
  <path
    d="M248.075 160.681L246.756 157.632H239.322L237.971 160.681H233.621L242.814 141H243.457L252.505 160.681H248.07H248.075ZM243.023 149.289L240.642 154.648H245.458L243.136 149.289H243.018H243.023Z"
    fill="currentColor"
  />
  <path
    d="M126.099 160.681L124.78 157.632H117.346L115.995 160.681H111.645L120.838 141H121.481L130.529 160.681H126.093H126.099ZM121.047 149.289L118.666 154.648H123.482L121.159 149.289H121.041H121.047Z"
    fill="currentColor"
  />
  <path
    d="M62.0144 160.681H57.6702V141.053H58.3138C59.6921 142.395 61.7194 144.258 64.3956 146.681C67.0665 149.072 69.0938 150.909 70.4185 152.193H70.5365V141.431H74.886V161H74.2692L62.1109 149.567H62.0251V160.681H62.0144Z"
    fill="currentColor"
  />
  <path
    d="M93.0034 157.318V160.678H79.3167V141.405H92.4457V144.765H83.693V149.031H91.5339V152.274H83.693V157.324H93.0034V157.318Z"
    fill="currentColor"
  />
  <path
    d="M111.645 144.776H106.009V160.68H101.632V144.776H95.9633V141.425H111.645V144.776Z"
    fill="currentColor"
  />
  <path
    d="M141.27 141.419C143.265 141.419 144.971 141.974 146.349 143.116C147.759 144.226 148.462 145.773 148.462 147.732C148.462 149.952 147.196 152.38 144.584 153.575L149.696 160.677H144.702L139.591 152.817V152.406C142.648 152.054 144.145 150.245 144.145 148.345C144.145 146.126 142.707 144.722 140.444 144.722H137.8V160.677H133.424V141.419H141.265H141.27Z"
    fill="currentColor"
  />
  <path
    d="M157.13 160.733H152.753V141.405H157.13V160.733Z"
    fill="currentColor"
  />
  <path
    d="M173.842 141.428H178.186V152.977C178.186 155.329 177.484 157.241 176.041 158.719C174.604 160.171 172.544 160.897 169.873 160.897C164.381 160.897 161.56 157.85 161.56 153.061V141.428H165.937V153.035C165.937 155.445 167.315 157.358 169.9 157.358C172.485 157.358 173.837 155.53 173.837 153.178V141.428H173.842Z"
    fill="currentColor"
  />
  <path
    d="M255.508 160.44V160.56H255.629H263.29C264.749 160.56 265.969 160.336 266.945 159.88C267.918 159.425 268.652 158.802 269.141 158.009L269.141 158.008C269.628 157.212 269.87 156.315 269.87 155.323C269.87 154.352 269.67 153.517 269.262 152.822C268.859 152.134 268.336 151.599 267.695 151.221C267.119 150.872 266.518 150.666 265.891 150.603C266.457 150.451 266.974 150.218 267.442 149.902C267.957 149.555 268.368 149.104 268.673 148.549L268.673 148.549C268.98 147.983 269.131 147.308 269.131 146.528C269.131 145.579 268.898 144.725 268.429 143.971C267.965 143.214 267.265 142.622 266.335 142.192C265.409 141.754 264.253 141.538 262.874 141.538H255.629H255.508V141.659V160.44ZM265.747 153.616L265.747 153.617C266.012 154.043 266.145 154.522 266.145 155.057C266.145 155.768 265.882 156.346 265.355 156.799C264.84 157.241 263.979 157.476 262.745 157.476H259.178V152.216H262.837C263.531 152.216 264.121 152.344 264.612 152.597L264.613 152.597C265.106 152.845 265.482 153.184 265.747 153.616ZM265.066 148.331L265.066 148.331C264.809 148.709 264.454 149.004 263.998 149.215C263.541 149.421 263.025 149.525 262.449 149.525H259.178V144.586H262.523C263.517 144.586 264.243 144.818 264.724 145.26L264.724 145.261C265.215 145.708 265.461 146.274 265.461 146.969C265.461 147.498 265.328 147.95 265.066 148.331Z"
    fill="currentColor"
    stroke="black"
    stroke-width="0.241684"
  />
  <path
    d="M283.918 146.77L283.929 146.878H284.038H287.314H287.437L287.435 146.755C287.416 145.662 287.113 144.691 286.523 143.846C285.935 142.997 285.125 142.337 284.098 141.864C283.076 141.385 281.89 141.147 280.543 141.147C279.213 141.147 278.018 141.385 276.961 141.863C275.903 142.336 275.063 143.002 274.444 143.863L274.444 143.864C273.828 144.728 273.522 145.734 273.522 146.878C273.522 148.27 273.98 149.397 274.901 150.246L274.901 150.247C275.819 151.081 277.061 151.698 278.622 152.104L280.76 152.662L280.76 152.662C281.428 152.834 282.009 153.03 282.503 153.25L282.504 153.25C283 153.462 283.377 153.725 283.644 154.035L283.644 154.036C283.904 154.333 284.04 154.712 284.046 155.183C284.04 155.702 283.886 156.152 283.585 156.539C283.282 156.922 282.861 157.226 282.314 157.449C281.774 157.665 281.142 157.774 280.414 157.774C279.717 157.774 279.089 157.668 278.53 157.457C277.98 157.247 277.536 156.931 277.196 156.51C276.859 156.092 276.664 155.566 276.617 154.923L276.609 154.811H276.496H273.147H273.022L273.027 154.937C273.076 156.218 273.406 157.313 274.02 158.214L274.02 158.215C274.64 159.115 275.497 159.797 276.586 160.264L276.587 160.264C277.681 160.73 278.967 160.961 280.442 160.961C281.958 160.961 283.258 160.724 284.335 160.244L284.335 160.244C285.417 159.76 286.25 159.086 286.827 158.223L286.827 158.222C287.404 157.352 287.691 156.347 287.691 155.211C287.691 154.372 287.536 153.635 287.22 153.002C286.907 152.374 286.48 151.837 285.941 151.393C285.412 150.951 284.812 150.586 284.141 150.297C283.48 150.01 282.792 149.781 282.076 149.613L280.315 149.167L280.315 149.167L280.314 149.167C279.933 149.075 279.555 148.962 279.18 148.827C278.808 148.693 278.471 148.53 278.167 148.337C277.869 148.142 277.635 147.907 277.462 147.632C277.298 147.363 277.214 147.043 277.214 146.665C277.22 146.213 277.35 145.813 277.603 145.463C277.857 145.112 278.227 144.831 278.718 144.621C279.207 144.412 279.799 144.305 280.497 144.305C281.488 144.305 282.281 144.527 282.885 144.961L282.886 144.961C283.492 145.392 283.836 145.992 283.918 146.77Z"
    fill="currentColor"
    stroke="black"
    stroke-width="0.241684"
  />
  <path
    d="M192.974 157.118H192.325L186.919 151.243C186.892 151.269 186.86 151.269 186.834 151.269V160.678H182.634V141.071H183.278L192.647 151.856L201.984 141.071H202.601V160.683H198.37V151.275C198.343 151.248 198.311 151.248 198.252 151.248L192.964 157.124L192.974 157.118Z"
    fill="currentColor"
  />
  <path
    d="M123.697 185L119.415 179.088L123.521 173.671H127.005L122.323 179.551L122.307 178.544L127.18 185H123.697ZM116.826 185V173.671H119.686V185H116.826Z"
    fill="currentColor"
  />
  <path
    d="M168.953 185L168.184 183.223H163.85L163.062 185H160.526L165.886 173.524H166.261L171.537 185H168.95H168.953ZM166.008 178.358L164.619 181.483H167.427L166.073 178.358H166.004H166.008Z"
    fill="currentColor"
  />
  <path
    d="M159.979 183.021V185H151.918V173.649H159.65V175.628H154.496V178.141H159.113V180.05H154.496V183.025H159.979V183.021Z"
    fill="currentColor"
  />
  <path
    d="M145.394 173.702C146.564 173.702 147.564 174.028 148.373 174.698C149.201 175.349 149.613 176.257 149.613 177.406C149.613 178.708 148.87 180.132 147.338 180.833L150.336 185H147.407L144.409 180.389V180.148C146.202 179.941 147.08 178.88 147.08 177.766C147.08 176.463 146.237 175.64 144.909 175.64H143.358V185H140.791V173.702H145.39H145.394Z"
    fill="currentColor"
  />
  <path
    d="M133.265 185C132.395 185 131.59 184.848 130.85 184.543C130.122 184.239 129.48 183.815 128.926 183.271C128.371 182.727 127.941 182.097 127.637 181.379C127.332 180.65 127.18 179.867 127.18 179.03C127.18 178.181 127.332 177.398 127.637 176.681C127.941 175.963 128.365 175.338 128.909 174.805C129.453 174.261 130.089 173.842 130.818 173.549C131.557 173.244 132.362 173.092 133.232 173.092C134.091 173.092 134.885 173.244 135.614 173.549C136.353 173.842 136.995 174.261 137.539 174.805C138.093 175.338 138.523 175.968 138.827 176.697C139.132 177.415 139.284 178.198 139.284 179.046C139.284 179.883 139.132 180.666 138.827 181.395C138.523 182.113 138.099 182.744 137.555 183.287C137.011 183.82 136.37 184.239 135.63 184.543C134.901 184.848 134.113 185 133.265 185ZM133.232 182.667C133.917 182.667 134.515 182.515 135.027 182.211C135.549 181.906 135.951 181.482 136.234 180.938C136.516 180.384 136.658 179.747 136.658 179.03C136.658 178.486 136.576 177.997 136.413 177.562C136.25 177.116 136.016 176.735 135.712 176.42C135.407 176.093 135.043 175.849 134.619 175.686C134.205 175.512 133.743 175.425 133.232 175.425C132.547 175.425 131.943 175.577 131.421 175.881C130.91 176.175 130.513 176.594 130.231 177.137C129.948 177.67 129.806 178.301 129.806 179.03C129.806 179.573 129.888 180.068 130.051 180.514C130.214 180.96 130.443 181.346 130.736 181.672C131.041 181.988 131.405 182.232 131.829 182.406C132.253 182.58 132.721 182.667 133.232 182.667Z"
    fill="currentColor"
  />
  <defs>
    <clipPath id="clip0_1754_4158">
      <rect
        width="120"
        height="120"
        fill="white"
        transform="translate(84.0135)"
      />
    </clipPath>
  </defs>
</svg>
