<svg
  width="121"
  height="121"
  viewBox="0 0 121 121"
  fill="none"
  xmlns="http://www.w3.org/2000/svg"
>
  <g>
    <path
      d="M82.1766 15.3252C81.6333 22.4662 80.5122 29.5725 78.6628 36.5173C76.825 43.4506 74.259 50.2224 70.8724 56.5673C69.1733 59.7398 67.2777 62.8084 65.1625 65.7155C63.0473 68.6227 60.7241 71.3798 58.2159 73.9409C57.3837 74.7945 56.5168 75.6252 55.6499 76.4327C55.9273 76.5019 56.2047 76.5596 56.4937 76.6173L59.3255 77.1826C61.2095 77.5402 63.0936 77.967 65.0007 78.2439C69.8899 79.1091 74.8138 79.7551 79.7724 80.2512C80.3735 79.859 80.9745 79.4552 81.564 79.0399C84.6617 76.8595 87.69 74.5638 90.4524 71.9797C93.2149 69.4187 95.7809 66.6961 98.0348 63.7082C100.254 60.7088 102.196 57.5017 103.756 54.087C108.102 44.6042 109.281 33.6909 107.779 23.0084C101.237 14.6907 92.533 8.14968 82.5233 4.21582C82.5233 4.34272 82.5233 4.45808 82.5233 4.58498C82.558 8.18429 82.4424 11.7605 82.1766 15.3368V15.3252Z"
      fill="#00A99D"
    />
    <path
      d="M25.725 90.5991C26.511 90.2761 27.3085 89.9762 28.0945 89.6301L30.4178 88.5687C33.4808 87.0921 36.486 85.5116 39.3293 83.6658C41.144 82.4891 42.9125 81.2432 44.6231 79.9281L40.9475 79.109L39.5027 78.786L38.0695 78.4053L35.203 77.6439C33.2843 77.1363 31.3656 76.6518 29.4815 76.0288L23.7948 74.2523L18.1889 72.2334C17.2527 71.8873 16.3164 71.5643 15.3918 71.2067L12.6408 70.0646C10.803 69.2917 8.95369 68.5534 7.13901 67.7458L1.72965 65.1848L0.596924 64.6426C1.45225 75.9366 5.45148 86.3538 11.7046 95.029C14.8254 94.2792 17.9115 93.414 20.9514 92.3988C22.558 91.8104 24.1877 91.2798 25.7597 90.6107L25.725 90.5991Z"
      fill="#00D1C2"
    />
    <path
      d="M3.11748 56.2904C3.52202 56.5442 3.93813 56.7749 4.35423 56.9941L5.60255 57.6747L10.6189 60.3973C12.3065 61.274 14.0402 62.0585 15.7509 62.8891L18.3284 64.1235C19.1953 64.5157 20.0853 64.8733 20.9522 65.254L26.2229 67.4805L31.5975 69.4763C33.3775 70.18 35.2038 70.7338 37.03 71.3336L39.7578 72.2219L41.1217 72.6603L42.5087 73.0525L48.0568 74.5984C48.7503 74.783 49.4554 74.9445 50.1489 75.106C51.663 73.6409 53.131 72.1181 54.5064 70.5261C56.691 67.9997 58.6906 65.3233 60.4821 62.52C62.2737 59.7166 63.8572 56.7749 65.2442 53.7524C68.0183 47.7074 70.0063 41.3048 71.324 34.7753C72.6532 28.2458 73.2889 21.5663 73.393 14.8984C73.4392 11.5644 73.3467 8.21887 73.1155 4.90797C73.0346 3.69666 72.9191 2.48536 72.7919 1.28559C68.8158 0.454979 64.6894 0.0166016 60.459 0.0166016C29.0662 0.039674 3.2793 24.1043 0.62085 54.7791C0.643967 54.7907 0.667083 54.8022 0.6902 54.8253L3.12904 56.3019L3.11748 56.2904Z"
      fill="#00D1C2"
    />
    <path
      d="M58.4118 82.4082L55.4759 81.9813C54.4934 81.8429 53.5341 81.6352 52.5632 81.4737C51.7772 81.3237 50.9797 81.1853 50.1937 81.0469C47.3387 83.1926 44.3451 85.1422 41.2474 86.8727C38.1613 88.6262 34.925 90.0913 31.6655 91.418L29.192 92.3639C28.3713 92.6754 27.5275 92.9292 26.6953 93.2176C25.0425 93.806 23.3318 94.2443 21.6558 94.7519C18.7778 95.5249 15.8766 96.1709 12.9639 96.7016C13.484 97.3822 14.0272 98.0398 14.5821 98.6973C15.264 98.6627 15.946 98.6281 16.6163 98.5935C18.535 98.4666 20.4422 98.3282 22.3609 98.1667C23.3203 98.0974 24.268 97.9936 25.2274 97.8898C26.1868 97.7975 27.1345 97.7167 28.0823 97.5898C43.3048 95.894 58.3424 91.9025 71.8196 84.8654C72.3397 84.6 72.8483 84.3116 73.3569 84.0348C70.3285 83.8156 67.3002 83.5272 64.2835 83.158C62.3185 82.9734 60.3767 82.6504 58.4118 82.3851V82.4082Z"
      fill="#00A99D"
    />
    <path
      d="M87.841 84.6581C87.6907 84.6581 87.5405 84.6581 87.3902 84.6581C87.0319 84.9465 86.6736 85.2349 86.3153 85.5118C83.0327 88.0613 79.5767 90.3455 75.9936 92.422C74.2136 93.4833 72.3758 94.4177 70.538 95.3868C68.677 96.2751 66.8277 97.2095 64.9205 98.0055C63.0365 98.8592 61.1062 99.5744 59.1875 100.324C57.2457 101.016 55.3039 101.72 53.339 102.332C49.4206 103.578 45.433 104.65 41.4106 105.504C37.3883 106.358 33.3428 107.119 29.2742 107.581C27.6792 107.777 26.0841 107.927 24.489 108.065C34.5218 115.575 46.9818 120.017 60.4936 120.017C85.4022 120.017 106.762 104.893 115.882 83.3545C114.379 83.516 112.877 83.666 111.362 83.7929C103.561 84.462 95.7123 84.7619 87.8525 84.6812L87.841 84.6581Z"
      fill="#007A8F"
    />
    <path
      d="M112.032 44.1311C111.523 48.238 110.541 52.3218 109.108 56.2442C107.674 60.178 105.79 63.9619 103.502 67.4805C101.202 70.9875 98.5201 74.2522 95.6189 77.2401C94.336 78.5899 92.9836 79.8704 91.6082 81.1048C98.1271 81.4278 104.681 81.4855 111.223 81.2663C113.084 81.2086 114.945 81.1163 116.806 81.0125C119.256 74.4714 120.597 67.3997 120.597 60.005C120.597 48.561 117.384 37.8785 111.824 28.7764C111.974 29.78 112.09 30.7837 112.171 31.7989C112.552 35.8712 112.541 40.0127 112.055 44.1196L112.032 44.1311Z"
      fill="#007A8F"
    />
  </g>
</svg>
