<svg
  width="482"
  height="57"
  viewBox="0 0 482 57"
  fill="none"
  xmlns="http://www.w3.org/2000/svg"
>
  <g clip-path="url(#clip0_1754_3516)">
    <path
      d="M38.0705 7.16095C37.817 10.4934 37.2938 13.8097 36.4308 17.0506C35.5731 20.2861 34.3757 23.4463 32.7952 26.4072C32.0023 27.8877 31.1177 29.3198 30.1306 30.6764C29.1435 32.0331 28.0594 33.3198 26.8889 34.5149C26.5005 34.9133 26.096 35.3009 25.6914 35.6778C25.8209 35.7101 25.9503 35.737 26.0852 35.7639L27.4067 36.0277C28.2859 36.1946 29.1651 36.3938 30.0551 36.523C32.3368 36.9268 34.6346 37.2282 36.9486 37.4597C37.2291 37.2767 37.5096 37.0883 37.7846 36.8945C39.2302 35.877 40.6434 34.8056 41.9326 33.5997C43.2217 32.4046 44.4192 31.134 45.471 29.7397C46.5067 28.3399 47.4129 26.8433 48.141 25.2498C50.1692 20.8245 50.7193 15.7316 50.0181 10.7464C46.9652 6.86485 42.9035 3.81236 38.2323 1.97656C38.2323 2.03578 38.2323 2.08962 38.2323 2.14884C38.2485 3.82851 38.1946 5.49742 38.0705 7.16633V7.16095Z"
      fill="#00A99D"
    />
    <path
      d="M11.7264 42.2888C12.0932 42.1381 12.4654 41.9981 12.8322 41.8366L13.9164 41.3413C15.3458 40.6522 16.7482 39.9147 18.0751 39.0533C18.922 38.5042 19.7473 37.9227 20.5456 37.309L18.8303 36.9268L18.156 36.776L17.4872 36.5984L16.1495 36.2431C15.2541 36.0062 14.3587 35.7801 13.4795 35.4894L10.8257 34.6603L8.20959 33.7182C7.77268 33.5567 7.33577 33.4059 6.90426 33.239L5.6205 32.7061C4.76286 32.3454 3.89983 32.0008 3.05298 31.624L0.528607 30.4288L0 30.1758C0.399152 35.4463 2.26546 40.3077 5.18359 44.3561C6.63995 44.0062 8.08014 43.6024 9.49875 43.1287C10.2485 42.8541 11.0091 42.6065 11.7426 42.2942L11.7264 42.2888Z"
      fill="#00D1C2"
    />
    <path
      d="M1.17626 26.2777C1.36505 26.3961 1.55923 26.5038 1.75342 26.6061L2.33596 26.9237L4.67694 28.1943C5.46445 28.6034 6.27355 28.9695 7.07185 29.3571L8.2747 29.9332C8.67925 30.1162 9.09458 30.2831 9.49913 30.4607L11.9588 31.4998L14.467 32.4311C15.2976 32.7595 16.1499 33.0179 17.0021 33.2979L18.2751 33.7124L18.9116 33.917L19.5589 34.1L22.1479 34.8214C22.4716 34.9076 22.8006 34.9829 23.1243 35.0583C23.8309 34.3746 24.5159 33.664 25.1578 32.921C26.1772 31.742 27.1104 30.493 27.9464 29.1848C28.7825 27.8766 29.5215 26.5038 30.1688 25.0933C31.4633 22.2723 32.3911 19.2844 33.006 16.2373C33.6263 13.1902 33.9229 10.0731 33.9715 6.96142C33.9931 5.40556 33.9499 3.84433 33.842 2.29924C33.8043 1.73396 33.7503 1.16869 33.691 0.608795C31.8355 0.221178 29.9098 0.0166016 27.9357 0.0166016C13.2857 0.0273687 1.25178 11.2575 0.0111694 25.5725C0.0219573 25.5778 0.0327452 25.5832 0.0435331 25.594L1.18166 26.2831L1.17626 26.2777Z"
      fill="#00D1C2"
    />
    <path
      d="M26.9803 38.4663L25.6102 38.2671C25.1517 38.2025 24.704 38.1056 24.2509 38.0302C23.8841 37.9603 23.5119 37.8957 23.1452 37.8311C21.8129 38.8324 20.4158 39.7422 18.9702 40.5498C17.5301 41.3681 16.0197 42.0518 14.4987 42.6709L13.3443 43.1123C12.9614 43.2577 12.5676 43.3761 12.1793 43.5107C11.4079 43.7853 10.6096 43.9899 9.82749 44.2267C8.4844 44.5874 7.13052 44.8889 5.77124 45.1366C6.01397 45.4542 6.26748 45.7611 6.52639 46.0679C6.84464 46.0518 7.16288 46.0356 7.47573 46.0195C8.37113 45.9603 9.26113 45.8957 10.1565 45.8203C10.6042 45.788 11.0465 45.7395 11.4942 45.6911C11.9419 45.648 12.3842 45.6103 12.8265 45.5511C19.9304 44.7597 26.9479 42.897 33.2372 39.613C33.48 39.4892 33.7173 39.3546 33.9546 39.2254C32.5414 39.1231 31.1282 38.9885 29.7204 38.8163C28.8034 38.7301 27.8972 38.5794 26.9803 38.4555V38.4663Z"
      fill="#00A99D"
    />
    <path
      d="M40.7139 39.5156C40.6438 39.5156 40.5737 39.5156 40.5036 39.5156C40.3363 39.6502 40.1691 39.7847 40.0019 39.914C38.47 41.1037 36.8572 42.1697 35.1851 43.1387C34.3544 43.634 33.4968 44.0701 32.6392 44.5223C31.7707 44.9368 30.9077 45.3729 30.0177 45.7444C29.1385 46.1428 28.2377 46.4765 27.3423 46.8265C26.4361 47.1495 25.5299 47.4779 24.613 47.7632C22.7844 48.3446 20.9235 48.8453 19.0464 49.2437C17.1693 49.6421 15.2814 49.9974 13.3828 50.2127C12.6384 50.3043 11.894 50.3742 11.1497 50.4389C15.8316 53.9436 21.6463 56.0162 27.9518 56.0162C39.5758 56.0162 49.5438 48.9584 53.7996 38.9072C53.0984 38.9826 52.3972 39.0526 51.6906 39.1118C48.0497 39.424 44.3872 39.564 40.7193 39.5263L40.7139 39.5156Z"
      fill="#007A8F"
    />
    <path
      d="M52.003 20.603C51.7657 22.5196 51.3072 24.4254 50.6384 26.2558C49.9695 28.0916 49.0903 29.8574 48.0223 31.4994C46.9489 33.136 45.6975 34.6596 44.3436 36.0539C43.7449 36.6838 43.1138 37.2814 42.4719 37.8574C45.5141 38.0082 48.5725 38.0351 51.6255 37.9328C52.4939 37.9059 53.3623 37.8628 54.2307 37.8143C55.3743 34.7619 56 31.4617 56 28.0108C56 22.6703 54.5004 17.6851 51.9059 13.4375C51.9761 13.9059 52.03 14.3742 52.0678 14.848C52.2458 16.7484 52.2404 18.6811 52.0138 20.5977L52.003 20.603Z"
      fill="#007A8F"
    />
  </g>
  <path
    d="M103.064 14.6172H109.232V37.0271H121.856V41.7568H103.064V14.6172Z"
    fill="currentColor"
  />
  <path
    d="M146.317 41.7568L144.458 37.46H133.98L132.075 41.7568H125.944L138.901 14.0166H139.809L152.561 41.7568H146.31H146.317ZM139.196 25.7006L135.84 33.2538H142.628L139.355 25.7006H139.189H139.196Z"
    fill="currentColor"
  />
  <path
    d="M75.9999 41.8124V14.6074H86.4698C89.7808 14.6074 92.3511 15.512 94.1275 17.291C95.9116 19.07 96.8187 21.2108 96.8187 23.7285C96.8187 26.4121 95.8662 28.5981 94.0066 30.3771C92.147 32.1486 89.743 33.0154 86.7646 33.0154H82.2138V41.8048H76.0075L75.9999 41.8124ZM82.1685 19.1906V28.4398H85.3964C89.161 28.4398 90.6502 26.3367 90.6502 23.8567C90.6502 21.256 88.8661 19.1906 85.4342 19.1906H82.1609H82.1685Z"
    fill="currentColor"
  />
  <path
    d="M381.769 14.6172H387.937V37.0271H400.561V41.7568H381.769V14.6172Z"
    fill="currentColor"
  />
  <path
    d="M425.022 41.7568L423.162 37.46H412.685L410.78 41.7568H404.649L417.606 14.0166H418.513L431.266 41.7568H425.015H425.022ZM417.901 25.7006L414.545 33.2538H421.333L418.06 25.7006H417.894H417.901Z"
    fill="currentColor"
  />
  <path
    d="M253.095 41.7568L251.235 37.46H240.758L238.853 41.7568H232.722L245.679 14.0166H246.586L259.339 41.7568H253.087H253.095ZM245.974 25.7006L242.617 33.2538H249.406L246.132 25.7006H245.966H245.974Z"
    fill="currentColor"
  />
  <path
    d="M162.767 41.7566H156.643V14.0908H157.551C159.493 15.9822 162.351 18.6092 166.123 22.0243C169.888 25.3943 172.745 27.9838 174.612 29.7926H174.779V14.6237H180.909V42.207H180.04L162.903 26.0923H162.782V41.7566H162.767Z"
    fill="currentColor"
  />
  <path
    d="M206.446 37.0178V41.7534H187.155V14.5879H205.66V19.3234H193.323V25.3368H204.375V29.907H193.323V37.0253H206.446V37.0178Z"
    fill="currentColor"
  />
  <path
    d="M232.722 19.3385H224.777V41.7555H218.609V19.3385H210.618V14.6152H232.722V19.3385Z"
    fill="currentColor"
  />
  <path
    d="M274.479 14.6074C277.291 14.6074 279.695 15.3897 281.638 16.9993C283.626 18.5637 284.616 20.745 284.616 23.5054C284.616 26.6343 282.832 30.0566 279.151 31.7415L286.355 41.7526H279.317L272.113 30.6734V30.0942C276.422 29.5978 278.531 27.048 278.531 24.3704C278.531 21.2414 276.505 19.2632 273.315 19.2632H269.588V41.7526H263.419V14.6074H274.471H274.479Z"
    fill="currentColor"
  />
  <path
    d="M296.833 41.8305H290.665V14.5879H296.833V41.8305Z"
    fill="currentColor"
  />
  <path
    d="M320.39 14.6191H326.513V30.8975C326.513 34.2129 325.522 36.9085 323.489 38.9918C321.463 41.0378 318.56 42.0608 314.796 42.0608C307.055 42.0608 303.078 37.7672 303.078 31.0169V14.6191H309.247V30.9796C309.247 34.3771 311.19 37.0728 314.833 37.0728C318.477 37.0728 320.382 34.4966 320.382 31.1812V14.6191H320.39Z"
    fill="currentColor"
  />
  <path
    d="M435.499 41.4175V41.5878H435.67H446.468C448.525 41.5878 450.245 41.271 451.62 40.6282C452.991 39.9875 454.026 39.1096 454.715 37.9911L454.715 37.9906C455.401 36.8676 455.743 35.6043 455.743 34.2051C455.743 32.8373 455.46 31.6601 454.886 30.6808C454.317 29.7103 453.581 28.9563 452.677 28.4234C451.865 27.9321 451.017 27.6412 450.134 27.5533C450.932 27.3387 451.661 27.0095 452.32 26.5653C453.047 26.0759 453.625 25.4393 454.055 24.6577L454.055 24.657C454.488 23.86 454.701 22.9086 454.701 21.8097C454.701 20.4708 454.372 19.2674 453.712 18.2045C453.058 17.1376 452.07 16.3029 450.76 15.6967C449.454 15.0798 447.826 14.776 445.882 14.776H435.67H435.499V14.9463V41.4175ZM449.931 31.7995L449.931 31.8004C450.304 32.4008 450.492 33.0759 450.492 33.8303C450.492 34.833 450.122 35.6471 449.379 36.2861C448.652 36.9097 447.44 37.2403 445.699 37.2403H440.672V29.8257H445.83C446.807 29.8257 447.639 30.0071 448.331 30.3627L448.332 30.3634C449.027 30.7122 449.558 31.1911 449.931 31.7995ZM448.972 24.35L448.971 24.3505C448.608 24.8828 448.108 25.2986 447.465 25.597C446.822 25.8872 446.095 26.034 445.283 26.034H440.672V19.0718H445.387C446.787 19.0718 447.811 19.3983 448.489 20.022L448.489 20.0227C449.182 20.6525 449.528 21.4505 449.528 22.4301C449.528 23.1756 449.341 23.8131 448.972 24.35Z"
    fill="currentColor"
    stroke="black"
    stroke-width="0.340658"
  />
  <path
    d="M475.543 22.1496L475.559 22.302H475.713H480.33H480.503L480.5 22.1288C480.473 20.5873 480.046 19.2184 479.215 18.0279C478.386 16.831 477.244 15.9002 475.797 15.2342C474.357 14.5584 472.685 14.2232 470.785 14.2232C468.911 14.2232 467.227 14.5586 465.737 15.2333C464.246 15.899 463.062 16.8381 462.189 18.0519L462.189 18.0526C461.322 19.271 460.89 20.6897 460.89 22.3019C460.89 24.2634 461.535 25.8518 462.833 27.0491L462.834 27.0499C464.127 28.2256 465.879 29.0959 468.078 29.6681C468.078 29.6681 468.078 29.6681 468.079 29.6681L471.092 30.4537L471.092 30.4538C472.034 30.6964 472.852 30.9729 473.548 31.2825L473.551 31.2835C474.249 31.5815 474.781 31.9518 475.157 32.3899L475.158 32.3911C475.523 32.8093 475.715 33.3438 475.723 34.0075C475.715 34.7394 475.498 35.3741 475.074 35.9186C474.647 36.4586 474.053 36.8875 473.282 37.2013C472.522 37.5057 471.631 37.6603 470.604 37.6603C469.622 37.6603 468.737 37.5102 467.949 37.2131C467.173 36.9174 466.548 36.4719 466.068 35.8775C465.594 35.2892 465.319 34.547 465.252 33.6413L465.241 33.4835H465.082H460.362H460.185L460.192 33.6604C460.262 35.467 460.726 37.0095 461.592 38.28L461.593 38.2807C462.466 39.5491 463.674 40.5114 465.209 41.1688L465.21 41.169C466.753 41.8258 468.565 42.1515 470.643 42.1515C472.781 42.1515 474.612 41.8172 476.131 41.1417L476.132 41.1415C477.656 40.4583 478.83 39.5094 479.644 38.2918L479.644 38.2914C480.457 37.0649 480.862 35.648 480.862 34.0466C480.862 32.8646 480.642 31.825 480.197 30.9329C479.756 30.0477 479.155 29.2913 478.395 28.6651C477.649 28.0431 476.803 27.5286 475.858 27.1211C474.926 26.7156 473.956 26.394 472.947 26.1561L470.465 25.528L470.465 25.528L470.463 25.5275C469.926 25.398 469.393 25.2383 468.864 25.0483C468.341 24.8603 467.866 24.6302 467.438 24.3585C467.018 24.0831 466.687 23.7515 466.443 23.3644C466.212 22.9854 466.093 22.5334 466.093 22.0018C466.102 21.3638 466.285 20.8007 466.643 20.3069C467.001 19.8128 467.521 19.4156 468.214 19.1198C468.903 18.8255 469.737 18.6752 470.721 18.6752C472.118 18.6752 473.236 18.9881 474.087 19.5991L474.088 19.5995C474.943 20.207 475.427 21.0522 475.543 22.1496Z"
    fill="currentColor"
    stroke="black"
    stroke-width="0.340658"
  />
  <path
    d="M347.357 36.7356H346.442L338.822 28.454C338.784 28.4916 338.739 28.4916 338.701 28.4916V41.7527H332.782V14.1172H333.689L346.896 29.319L360.057 14.1172H360.926V41.7603H354.962V28.4991C354.924 28.4615 354.878 28.4615 354.795 28.4615L347.342 36.7431L347.357 36.7356Z"
    fill="currentColor"
  />
  <defs>
    <clipPath id="clip0_1754_3516">
      <rect
        width="56"
        height="56"
        fill="white"
        transform="translate(0 0.0166016)"
      />
    </clipPath>
  </defs>
</svg>
