<svg width="494" height="29" viewBox="0 0 494 29" fill="none" xmlns="http://www.w3.org/2000/svg">
<path fill-rule="evenodd" clip-rule="evenodd" d="M68.8404 23.7852L70.6875 28.0529H76.8894L64.2227 0.5H63.3217L50.4523 28.0529H56.5416L58.4337 23.7852H68.8404ZM60.2808 19.6073L63.6145 12.1052H63.7722L67.0234 19.6073H60.2808ZM33.8527 1.09668H27.7258V28.0531H46.3918V23.3553H33.8527V1.09668ZM0.844971 28.1082V1.08691H11.2441C14.5328 1.08691 17.0857 1.98538 18.8502 3.75236C20.6222 5.51934 21.5232 7.6457 21.5232 10.1464C21.5232 12.8119 20.5771 14.9832 18.7301 16.7501C16.883 18.5096 14.4953 19.3707 11.537 19.3707H7.0169V28.1007H0.852486L0.844971 28.1082ZM6.97185 5.63913V14.8259H10.178C13.9171 14.8259 15.3963 12.737 15.3963 10.2737C15.3963 7.69062 13.6243 5.63913 10.2155 5.63913H6.97185ZM310.676 1.09668H304.549V28.0531H323.215V23.3553H310.676V1.09668ZM347.511 28.0529L345.664 23.7852H335.257L333.365 28.0529H327.276L340.145 0.5H341.046L353.713 28.0529H347.511ZM340.438 12.1052L337.104 19.6073H343.847L340.596 12.1052H340.438ZM174.897 23.7852L176.744 28.0529H182.946L170.279 0.5H169.378L156.509 28.0529H162.598L164.49 23.7852H174.897ZM166.338 19.6073L169.671 12.1052H169.829L173.08 19.6073H166.338ZM87.0259 28.0533H80.9441V0.574219H81.8451C83.7748 2.45287 86.6129 5.06212 90.3596 8.45413C94.0988 11.8014 96.937 14.3734 98.7916 16.17H98.9568V1.10352H105.046V28.5006H104.183L87.1611 12.4947H87.0409V28.0533H87.0259ZM130.411 28.0495V23.3534H117.376V16.2831H128.353V11.7437H117.376V5.77096H129.63V1.06738H111.249V28.0495H130.411ZM156.509 5.78615H148.618V28.0518H142.491V5.78615H134.554V1.09473H156.509V5.78615ZM205.094 3.46261C203.165 1.86387 200.777 1.08691 197.984 1.08691H197.976H186.999V28.0488H193.126V5.71131H196.828C199.996 5.71131 202.008 7.67611 202.008 10.7839C202.008 13.4435 199.914 15.9761 195.634 16.4692V17.0444L202.789 28.0488H209.78L202.624 18.1053C206.281 16.4318 208.053 13.0326 208.053 9.92481C208.053 7.18304 207.069 5.01653 205.094 3.46261ZM220.187 28.1261H214.061V1.06738H220.187V28.1261ZM249.667 1.09863H243.585H243.577V17.5489C243.577 20.8419 241.685 23.4007 238.066 23.4007C234.447 23.4007 232.517 20.7232 232.517 17.3486V1.09863H226.39V17.3857C226.39 24.0904 230.34 28.355 238.028 28.355C241.768 28.355 244.651 27.339 246.663 25.3068C248.683 23.2375 249.667 20.5601 249.667 17.2671V1.09863ZM357.748 28.0542V1.08496H368.23C370.177 1.08496 371.821 1.38909 373.147 2.01547C374.473 2.62906 375.481 3.47851 376.151 4.57078C376.825 5.65528 377.159 6.8817 377.159 8.24036C377.159 9.35361 376.943 10.3277 376.497 11.1493L376.496 11.1507C376.056 11.9501 375.464 12.6027 374.719 13.1042C374.241 13.4263 373.728 13.6887 373.179 13.8917C373.829 14.0383 374.458 14.2965 375.066 14.6642C375.99 15.2092 376.741 15.9796 377.319 16.966C377.908 17.9699 378.194 19.1702 378.194 20.5521C378.194 21.9708 377.847 23.2565 377.148 24.4002L377.147 24.4013C376.443 25.5447 375.388 26.4371 374.001 27.0852C372.606 27.7372 370.871 28.0542 368.812 28.0542H357.748ZM372.108 18.2529L372.107 18.2512C371.755 17.6758 371.252 17.221 370.588 16.8875L370.585 16.8861C369.927 16.5477 369.128 16.3715 368.178 16.3715H363.225V23.3976H368.049C369.763 23.3976 370.918 23.0705 371.593 22.4907C372.293 21.8889 372.639 21.1276 372.639 20.1798C372.639 19.4602 372.461 18.8209 372.108 18.2529ZM371.159 10.6687L371.159 10.6677C371.504 10.1661 371.682 9.56727 371.682 8.85659C371.682 7.92909 371.357 7.18268 370.706 6.59062L370.704 6.58926C370.074 6.00916 369.106 5.69014 367.738 5.69014H363.225V12.267H367.635C368.42 12.267 369.118 12.1251 369.732 11.8483C370.345 11.5636 370.817 11.1698 371.159 10.6687ZM397.523 8.59592L397.555 8.89876H402.789L402.783 8.55461C402.757 6.99241 402.323 5.59972 401.477 4.38783C400.634 3.17188 399.476 2.22886 398.015 1.55602C396.557 0.872504 394.871 0.536133 392.965 0.536133C391.084 0.536133 389.387 0.87294 387.881 1.55427C386.377 2.22644 385.176 3.17724 384.29 4.40938L384.289 4.4107C383.406 5.652 382.967 7.09612 382.967 8.72946C382.967 10.7186 383.623 12.3436 384.952 13.5689L384.954 13.5706C386.264 14.7616 388.031 15.6365 390.234 16.2096L393.228 16.9901C394.156 17.2294 394.96 17.5012 395.641 17.804L395.646 17.806C396.321 18.0945 396.826 18.4488 397.179 18.8594L397.181 18.8618C397.513 19.2419 397.692 19.7313 397.701 20.3561C397.692 21.047 397.488 21.6404 397.092 22.1498C396.689 22.6591 396.125 23.0689 395.382 23.3715C394.651 23.664 393.788 23.8149 392.786 23.8149C391.827 23.8149 390.969 23.6686 390.208 23.3817C389.463 23.0979 388.868 22.6723 388.412 22.1071C387.965 21.554 387.702 20.8513 387.638 19.9798L387.615 19.6664H382.26L382.274 20.0178C382.345 21.8379 382.813 23.4022 383.694 24.695L383.695 24.6963C384.582 25.9849 385.809 26.9604 387.361 27.6248C388.919 28.2881 390.743 28.6142 392.824 28.6142C394.964 28.6142 396.809 28.2793 398.344 27.5963C399.884 26.9067 401.076 25.9451 401.904 24.7054L401.905 24.7045C402.733 23.456 403.143 22.0154 403.143 20.3949C403.143 19.1998 402.921 18.1405 402.465 17.2267C402.016 16.3265 401.404 15.5565 400.631 14.9194C399.877 14.2908 399.023 13.7716 398.071 13.3608C397.137 12.9543 396.164 12.6318 395.152 12.3933L392.689 11.7697L392.685 11.7688C392.158 11.6417 391.634 11.4848 391.114 11.2981C390.606 11.1154 390.145 10.8923 389.732 10.63C389.334 10.369 389.024 10.0572 388.796 9.69563C388.586 9.35025 388.474 8.93353 388.474 8.43254C388.482 7.83272 388.654 7.30795 388.988 6.84716C389.322 6.38586 389.812 6.00867 390.478 5.72439C391.136 5.4432 391.941 5.29639 392.901 5.29639C394.265 5.29639 395.337 5.60153 396.146 6.18231L396.148 6.1832C396.955 6.75704 397.413 7.55172 397.523 8.59592ZM270.37 23.0653H270.361L277.758 14.8471C277.841 14.8471 277.886 14.8471 277.923 14.8844V28.0561H283.847V0.599609H282.984L269.912 15.6988L256.795 0.599609H255.894V28.0486H261.773V14.877C261.81 14.877 261.855 14.877 261.893 14.8396L269.461 23.0653H270.361L270.355 23.0728L270.37 23.0653ZM420.809 20.7483L426.424 28.5004H431.301L425.035 20.2005L431.055 12.6396H426.178L420.809 19.7216V12.6396H416.805V28.5004H420.809V20.7483ZM489.783 28.4997L488.706 26.0112H482.638L481.535 28.4997H477.984L485.488 12.4336H486.013L493.399 28.4997H489.783ZM485.659 19.2006L483.715 23.5751H487.646L485.751 19.2006H485.659ZM477.218 28.5003V25.7345H469.542V21.5705H476.007V18.8971H469.542V15.3795H476.759V12.6094H465.933V28.5003H477.218ZM456.799 12.6826C458.438 12.6826 459.838 13.1384 460.97 14.0763C462.129 14.9879 462.706 16.2589 462.706 17.8673C462.706 19.6905 461.666 21.6846 459.521 22.6664L463.719 28.4997H459.618L455.42 22.044V21.7066C457.931 21.4173 459.16 19.9316 459.16 18.3713C459.16 16.5481 457.98 15.3955 456.121 15.3955H453.949V28.4997H450.355V12.6826H456.795H456.799ZM436.439 27.8605C437.474 28.2868 438.601 28.4999 439.819 28.4999C441.006 28.4999 442.11 28.2868 443.13 27.8605C444.166 27.4342 445.064 26.848 445.825 26.1019C446.587 25.3407 447.18 24.4576 447.607 23.4527C448.033 22.4326 448.246 21.3364 448.246 20.164C448.246 18.9764 448.033 17.8802 447.607 16.8753C447.18 15.8552 446.579 14.9722 445.802 14.2261C445.041 13.4649 444.143 12.8787 443.108 12.4676C442.087 12.0413 440.976 11.8281 439.773 11.8281C438.555 11.8281 437.428 12.0413 436.393 12.4676C435.373 12.8787 434.482 13.4649 433.721 14.2261C432.96 14.9722 432.366 15.8476 431.94 16.8525C431.513 17.8574 431.3 18.9536 431.3 20.1412C431.3 21.3135 431.513 22.4098 431.94 23.4299C432.366 24.4347 432.967 25.3178 433.744 26.0791C434.52 26.8404 435.419 27.4342 436.439 27.8605ZM442.285 24.5946C441.57 25.0209 440.732 25.2341 439.773 25.2341C439.058 25.2341 438.403 25.1123 437.809 24.8687C437.215 24.6251 436.705 24.2825 436.279 23.841C435.868 23.3842 435.548 22.8437 435.32 22.2195C435.091 21.5952 434.977 20.9025 434.977 20.1412C434.977 19.1211 435.175 18.238 435.571 17.492C435.967 16.7307 436.523 16.1445 437.238 15.7334C437.969 15.3071 438.814 15.094 439.773 15.094C440.489 15.094 441.136 15.2158 441.714 15.4594C442.308 15.6878 442.818 16.0303 443.245 16.4871C443.671 16.9286 443.998 17.4615 444.227 18.0858C444.455 18.6948 444.569 19.3799 444.569 20.1412C444.569 21.1461 444.371 22.0368 443.975 22.8132C443.58 23.5745 443.016 24.1683 442.285 24.5946Z" fill="black"/>
</svg>
