<svg
  width="407"
  height="29"
  viewBox="0 0 407 29"
  fill="none"
  xmlns="http://www.w3.org/2000/svg"
>
  <path
    d="M27.9086 0.617188H34.0771V23.0271H46.7014V27.7568H27.9086V0.617188Z"
    fill="currentColor"
  />
  <path
    d="M71.1622 27.7568L69.3025 23.46H58.8251L56.9201 27.7568H50.7894L63.7463 0.0166016H64.6535L77.4063 27.7568H71.1546H71.1622ZM64.0412 11.7006L60.6848 19.2538H67.4731L64.1999 11.7006H64.0336H64.0412Z"
    fill="currentColor"
  />
  <path
    d="M0.844971 27.8124V0.607422H11.3148C14.6259 0.607422 17.1961 1.51199 18.9726 3.29098C20.7566 5.06997 21.6637 7.21079 21.6637 9.72851C21.6637 12.4121 20.7112 14.5981 18.8516 16.3771C16.992 18.1486 14.5881 19.0154 11.6096 19.0154H7.05885V27.8048H0.852538L0.844971 27.8124ZM7.01349 5.19058V14.4398H10.2414C14.006 14.4398 15.4952 12.3367 15.4952 9.85666C15.4952 7.25602 13.7112 5.19058 10.2792 5.19058H7.00594H7.01349Z"
    fill="currentColor"
  />
  <path
    d="M306.614 0.617188H312.782V23.0271H325.406V27.7568H306.614V0.617188Z"
    fill="currentColor"
  />
  <path
    d="M349.867 27.7568L348.007 23.46H337.53L335.625 27.7568H329.494L342.451 0.0166016H343.358L356.111 27.7568H349.86H349.867ZM342.746 11.7006L339.39 19.2538H346.178L342.905 11.7006H342.739H342.746Z"
    fill="currentColor"
  />
  <path
    d="M177.94 27.7568L176.08 23.46H165.603L163.698 27.7568H157.567L170.524 0.0166016H171.431L184.184 27.7568H177.932H177.94ZM170.819 11.7006L167.462 19.2538H174.251L170.977 11.7006H170.811H170.819Z"
    fill="currentColor"
  />
  <path
    d="M87.6117 27.7566H81.4885V0.0908203H82.3957C84.3384 1.98224 87.1959 4.60922 90.9681 8.02429C94.7327 11.3943 97.5902 13.9838 99.4574 15.7926H99.6237V0.623723H105.754V28.207H104.885L87.7478 12.0923H87.6268V27.7566H87.6117Z"
    fill="currentColor"
  />
  <path
    d="M131.291 23.0178V27.7534H112V0.587891H130.505V5.32343H118.168V11.3368H129.22V15.907H118.168V23.0253H131.291V23.0178Z"
    fill="currentColor"
  />
  <path
    d="M157.567 5.33855H149.622V27.7555H143.454V5.33855H135.463V0.615234H157.567V5.33855Z"
    fill="currentColor"
  />
  <path
    d="M199.324 0.607422C202.136 0.607422 204.54 1.38966 206.483 2.99927C208.471 4.56374 209.461 6.74499 209.461 9.50539C209.461 12.6343 207.677 16.0566 203.996 17.7415L211.2 27.7526H204.162L196.958 16.6734V16.0942C201.267 15.5978 203.376 13.048 203.376 10.3704C203.376 7.24141 201.35 5.26325 198.16 5.26325H194.433V27.7526H188.264V0.607422H199.316H199.324Z"
    fill="currentColor"
  />
  <path
    d="M221.678 27.8305H215.51V0.587891H221.678V27.8305Z"
    fill="currentColor"
  />
  <path
    d="M245.234 0.619141H251.358V16.8975C251.358 20.2129 250.367 22.9085 248.334 24.9918C246.308 27.0378 243.405 28.0608 239.64 28.0608C231.9 28.0608 227.923 23.7672 227.923 17.0169V0.619141H234.092V16.9796C234.092 20.3771 236.035 23.0728 239.678 23.0728C243.322 23.0728 245.227 20.4966 245.227 17.1812V0.619141H245.234Z"
    fill="currentColor"
  />
  <path
    d="M360.344 27.4175V27.5878H360.515H371.313C373.37 27.5878 375.09 27.271 376.465 26.6282C377.836 25.9875 378.871 25.1096 379.56 23.9911L379.56 23.9906C380.246 22.8676 380.588 21.6043 380.588 20.2051C380.588 18.8373 380.305 17.6601 379.731 16.6808C379.162 15.7103 378.426 14.9563 377.522 14.4234C376.71 13.9321 375.862 13.6412 374.979 13.5533C375.777 13.3387 376.506 13.0095 377.165 12.5653C377.892 12.0759 378.47 11.4393 378.9 10.6577L378.9 10.657C379.333 9.85997 379.546 8.90863 379.546 7.80967C379.546 6.4708 379.217 5.26743 378.557 4.20446C377.903 3.13763 376.915 2.30289 375.605 1.69675C374.299 1.07985 372.671 0.77596 370.727 0.77596H360.515H360.344V0.946289V27.4175ZM374.776 17.7995L374.776 17.8004C375.149 18.4008 375.337 19.0759 375.337 19.8303C375.337 20.833 374.967 21.6471 374.224 22.2861C373.498 22.9097 372.285 23.2403 370.544 23.2403H365.517V15.8257H370.675C371.652 15.8257 372.484 16.0071 373.176 16.3627L373.177 16.3634C373.872 16.7122 374.403 17.1911 374.776 17.7995ZM373.817 10.35L373.816 10.3505C373.453 10.8828 372.953 11.2986 372.31 11.597C371.667 11.8872 370.94 12.034 370.128 12.034H365.517V5.07178H370.232C371.632 5.07178 372.656 5.39825 373.334 6.02203L373.335 6.02271C374.027 6.6525 374.373 7.45047 374.373 8.43008C374.373 9.1756 374.186 9.8131 373.817 10.35Z"
    fill="currentColor"
    stroke="black"
    stroke-width="0.340658"
  />
  <path
    d="M400.388 8.14958L400.404 8.30203H400.558H405.175H405.348L405.345 8.12879C405.318 6.5873 404.891 5.21845 404.06 4.0279C403.231 2.83098 402.089 1.9002 400.642 1.23418C399.202 0.558401 397.53 0.223226 395.63 0.223226C393.756 0.223226 392.072 0.558622 390.582 1.2333C389.091 1.899 387.907 2.83808 387.034 4.0519L387.034 4.05257C386.167 5.271 385.735 6.68973 385.735 8.30192C385.735 10.2634 386.38 11.8518 387.678 13.0491L387.679 13.0499C388.972 14.2256 390.724 15.0959 392.923 15.6681C392.923 15.6681 392.923 15.6681 392.923 15.6681L395.937 16.4537L395.937 16.4538C396.879 16.6964 397.697 16.9729 398.393 17.2825L398.396 17.2835C399.094 17.5815 399.626 17.9518 400.002 18.3899L400.003 18.3911C400.368 18.8093 400.56 19.3438 400.568 20.0075C400.56 20.7394 400.343 21.3741 399.919 21.9186C399.492 22.4586 398.898 22.8875 398.127 23.2013C397.367 23.5057 396.476 23.6603 395.449 23.6603C394.467 23.6603 393.582 23.5102 392.794 23.2131C392.018 22.9174 391.393 22.4719 390.913 21.8775C390.439 21.2892 390.164 20.547 390.097 19.6413L390.085 19.4835H389.927H385.207H385.03L385.037 19.6604C385.107 21.467 385.571 23.0095 386.437 24.28L386.437 24.2807C387.311 25.5491 388.519 26.5114 390.054 27.1688L390.055 27.169C391.598 27.8258 393.41 28.1515 395.488 28.1515C397.626 28.1515 399.457 27.8172 400.976 27.1417L400.976 27.1415C402.501 26.4583 403.675 25.5094 404.488 24.2918L404.489 24.2914C405.302 23.0649 405.707 21.648 405.707 20.0466C405.707 18.8646 405.487 17.825 405.042 16.9329C404.601 16.0477 404 15.2913 403.24 14.6651C402.494 14.0431 401.648 13.5286 400.703 13.1211C399.771 12.7156 398.801 12.394 397.792 12.1561L395.31 11.528L395.31 11.528L395.308 11.5275C394.771 11.398 394.238 11.2383 393.709 11.0483C393.186 10.8603 392.711 10.6302 392.283 10.3585C391.863 10.0831 391.532 9.75155 391.288 9.3644C391.057 8.98542 390.938 8.53342 390.938 8.00184C390.947 7.36384 391.13 6.80072 391.488 6.3069C391.846 5.81282 392.366 5.41563 393.059 5.11977C393.748 4.82547 394.582 4.67518 395.566 4.67518C396.963 4.67518 398.081 4.98809 398.932 5.59906L398.933 5.59951C399.788 6.20698 400.272 7.0522 400.388 8.14958Z"
    fill="currentColor"
    stroke="black"
    stroke-width="0.340658"
  />
  <path
    d="M272.202 22.7356H271.287L263.667 14.454C263.629 14.4916 263.584 14.4916 263.546 14.4916V27.7527H257.627V0.117188H258.534L271.741 15.319L284.902 0.117188H285.771V27.7603H279.807V14.4991C279.769 14.4615 279.723 14.4615 279.64 14.4615L272.187 22.7431L272.202 22.7356Z"
    fill="currentColor"
  />
</svg>
