<svg width="482" height="57" viewBox="0 0 482 57" fill="none" xmlns="http://www.w3.org/2000/svg">
<path fill-rule="evenodd" clip-rule="evenodd" d="M1.75341 27.0875C1.55923 26.9853 1.36505 26.8776 1.17626 26.7591L1.18165 26.7645L0.0435291 26.0754C0.0327412 26.0647 0.0219533 26.0593 0.0111654 26.0539C1.25177 11.739 13.2857 0.508814 27.9357 0.498047C29.9098 0.498047 31.8355 0.702623 33.691 1.09024C33.7503 1.65013 33.8043 2.21541 33.842 2.78068C33.9499 4.32577 33.9931 5.88701 33.9715 7.44286C33.9229 10.5546 33.6263 13.6717 33.006 16.7188C32.3911 19.7659 31.4633 22.7538 30.1687 25.5748C29.5215 26.9853 28.7825 28.3581 27.9464 29.6663C27.1104 30.9745 26.1772 32.2235 25.1578 33.4025C24.5159 34.1454 23.8309 34.856 23.1242 35.5398L23.0323 35.5184L23.0321 35.5183L23.032 35.5183L23.032 35.5183L23.0315 35.5182L23.0306 35.518L23.0297 35.5178C22.7366 35.4496 22.4401 35.3806 22.1479 35.3029L19.5588 34.5815L18.9116 34.3984L18.2751 34.1939L17.0021 33.7793C16.8158 33.7181 16.6294 33.6579 16.4433 33.5978C15.7782 33.383 15.116 33.1692 14.467 32.9126L11.9588 31.9812L9.49913 30.9422C9.32718 30.8667 9.1533 30.7931 8.97911 30.7194L8.97909 30.7194L8.97906 30.7194L8.97904 30.7194L8.97902 30.7194L8.979 30.7194L8.97897 30.7194L8.97895 30.7194L8.97893 30.7194L8.9789 30.7193L8.97888 30.7193L8.97886 30.7193L8.97876 30.7193C8.74324 30.6196 8.50719 30.5198 8.2747 30.4146L7.07185 29.8386C6.80575 29.7094 6.53846 29.5825 6.27117 29.4557L6.27115 29.4557L6.27113 29.4557C5.73654 29.2021 5.20194 28.9485 4.67693 28.6757L2.33596 27.4052L1.75341 27.0875ZM38.0706 7.64207C37.8171 10.9745 37.2939 14.2908 36.4309 17.5317C35.5732 20.7672 34.3758 23.9274 32.7953 26.8884C32.0024 28.3688 31.1178 29.8009 30.1307 31.1575C29.1436 32.5142 28.0594 33.8009 26.889 34.996C26.5006 35.3944 26.096 35.782 25.6915 36.1589C25.821 36.1912 25.9504 36.2181 26.0853 36.245L27.4068 36.5088C27.6787 36.5604 27.9505 36.6151 28.2227 36.6699C28.8308 36.7922 29.4404 36.9149 30.0552 37.0041C32.3369 37.4079 34.6347 37.7094 36.9487 37.9408C37.2292 37.7578 37.5097 37.5694 37.7847 37.3756C39.2303 36.3581 40.6435 35.2867 41.9327 34.0808C43.2218 32.8857 44.4193 31.6151 45.4711 30.2208C46.5068 28.8211 47.4129 27.3244 48.1411 25.7309C50.1693 21.3056 50.7194 16.2127 50.0182 11.2275C46.9653 7.34597 42.9036 4.29348 38.2324 2.45768V2.62996C38.2486 4.30963 38.1947 5.97854 38.0706 7.64745V7.64207ZM11.7264 42.7699C11.8559 42.7167 11.986 42.6648 12.1163 42.6129C12.3552 42.5177 12.5949 42.4222 12.8322 42.3177L13.9164 41.8224C15.3458 41.1333 16.7482 40.3957 18.0751 39.5344C18.922 38.9852 19.7473 38.4038 20.5456 37.7901L18.8303 37.4078L18.156 37.2571L17.4872 37.0794L16.1495 36.7241L15.9798 36.6794L15.7914 36.6298L15.7862 36.6284C15.0121 36.4249 14.2398 36.2218 13.4795 35.9704L10.8257 35.1414L8.20959 34.1992C8.04662 34.139 7.88366 34.0802 7.72097 34.0216C7.4475 33.923 7.17482 33.8247 6.90426 33.7201L5.6205 33.1871C5.34571 33.0715 5.07036 32.9576 4.79518 32.8438C4.21148 32.6023 3.62849 32.3611 3.05298 32.105L0.528607 30.9099L0 30.6568C0.399152 35.9274 2.26546 40.7887 5.18359 44.8372C6.63995 44.4872 8.08014 44.0835 9.49875 43.6097C9.71845 43.5293 9.93908 43.4511 10.1597 43.373C10.6919 43.1845 11.224 42.996 11.7426 42.7753L11.7264 42.7699ZM26.9804 38.9474L25.6103 38.7482C25.3336 38.7093 25.0608 38.6585 24.7884 38.6078C24.6095 38.5745 24.4307 38.5412 24.251 38.5114C23.9321 38.4505 23.609 38.3937 23.289 38.3375L23.2889 38.3374L23.1453 38.3122C21.813 39.3135 20.4159 40.2233 18.9704 41.0309C17.5302 41.8492 16.0199 42.5329 14.4988 43.152L13.3445 43.5935C13.1034 43.685 12.858 43.7658 12.6124 43.8467C12.4678 43.8944 12.3232 43.942 12.1794 43.9918C11.6567 44.1779 11.1216 44.3318 10.5876 44.4854L10.5872 44.4855L10.5871 44.4856L10.5871 44.4856L10.587 44.4856L10.5869 44.4856L10.5868 44.4857L10.5868 44.4857L10.5867 44.4857L10.5866 44.4857L10.5866 44.4857L10.5865 44.4858L10.5864 44.4858C10.3328 44.5587 10.0793 44.6316 9.82761 44.7079C8.48451 45.0686 7.13063 45.37 5.77135 45.6177C6.01408 45.9353 6.2676 46.2422 6.52651 46.549L6.53953 46.5484C6.85343 46.5325 7.16726 46.5165 7.47584 46.5006C8.37124 46.4414 9.26124 46.3768 10.1566 46.3014C10.5892 46.2702 11.0168 46.2239 11.4491 46.1771L11.4943 46.1722C11.577 46.1642 11.6595 46.1565 11.7419 46.1487L11.7421 46.1487C12.1056 46.1145 12.4661 46.0805 12.8266 46.0322C19.9305 45.2408 26.948 43.3781 33.2374 40.0941C33.4109 40.0056 33.5816 39.9116 33.7516 39.818L33.7517 39.8179L33.7519 39.8178L33.752 39.8177L33.7522 39.8176L33.7523 39.8176L33.7525 39.8175L33.7526 39.8174L33.7528 39.8173L33.7529 39.8172L33.7531 39.8172L33.7532 39.8171L33.7534 39.817L33.7535 39.8169L33.7537 39.8168L33.7538 39.8168L33.754 39.8167L33.7541 39.8166L33.7542 39.8165L33.7544 39.8165L33.7563 39.8154C33.8225 39.7789 33.8886 39.7425 33.9547 39.7065C32.5415 39.6042 31.1283 39.4696 29.7205 39.2974C29.0801 39.2372 28.4449 39.1455 27.8076 39.0535L27.8075 39.0535L27.8074 39.0534L27.8073 39.0534L27.8072 39.0534L27.8071 39.0534L27.807 39.0534L27.8069 39.0534L27.8068 39.0534L27.8067 39.0534L27.8066 39.0533L27.8065 39.0533L27.8064 39.0533L27.8063 39.0533L27.8062 39.0533L27.8061 39.0533L27.8059 39.0533L27.8058 39.0533C27.5313 39.0136 27.2563 38.9739 26.9804 38.9367V38.9474ZM40.5035 39.9974H40.7139L40.7193 40.0082C44.3872 40.0459 48.0497 39.9059 51.6906 39.5936C52.3972 39.5344 53.0984 39.4644 53.7996 39.3891C49.5438 49.4402 39.5758 56.4981 27.9518 56.4981C21.6463 56.4981 15.8316 54.4254 11.1496 50.9207C11.894 50.8561 12.6384 50.7861 13.3827 50.6946C15.2814 50.4792 17.1693 50.1239 19.0464 49.7255C20.9235 49.3271 22.7844 48.8265 24.6129 48.245C25.4355 47.9891 26.2494 47.6985 27.0624 47.4082L27.3423 47.3083C27.5214 47.2383 27.7007 47.169 27.88 47.0996C28.5972 46.8223 29.3143 46.5449 30.0177 46.2262C30.6963 45.943 31.3592 45.6221 32.0208 45.3019L32.0209 45.3019L32.0209 45.3019L32.021 45.3019L32.021 45.3018L32.0211 45.3018L32.0211 45.3018L32.0212 45.3018L32.0213 45.3018L32.0213 45.3017L32.0214 45.3017L32.0214 45.3017L32.0215 45.3017L32.0215 45.3016L32.0216 45.3016L32.0217 45.3016L32.0217 45.3016L32.0225 45.3012L32.0233 45.3008L32.0241 45.3004L32.0249 45.3001L32.0257 45.2997C32.2301 45.2007 32.4345 45.1018 32.6391 45.0041C32.7906 44.9243 32.9421 44.8449 33.0934 44.7656L33.1016 44.7613L33.1032 44.7605C33.8054 44.3926 34.5043 44.0265 35.1851 43.6206C36.8572 42.6515 38.47 41.5856 40.0019 40.3958C40.1691 40.2666 40.3363 40.132 40.5035 39.9974ZM52.003 21.0848C51.7657 23.0014 51.3072 24.9072 50.6384 26.7376C49.9695 28.5734 49.0903 30.3392 48.0223 31.9812C46.9489 33.6178 45.6975 35.1413 44.3436 36.5357C43.7449 37.1656 43.1138 37.7631 42.4719 38.3392C45.5141 38.4899 48.5725 38.5168 51.6254 38.4146C52.4939 38.3876 53.3623 38.3446 54.2307 38.2961C55.3742 35.2436 55.9999 31.9435 55.9999 28.4926C55.9999 23.1521 54.5004 18.1669 51.9059 13.9193C51.9761 14.3876 52.03 14.856 52.0677 15.3298C52.2457 17.2302 52.2404 19.1629 52.0138 21.0794L52.003 21.0848ZM109.232 15.0987H103.064V42.2383H121.856V37.5086H109.232V15.0987ZM146.317 42.2383L144.457 37.9416H133.98L132.075 42.2383H125.944L138.901 14.4981H139.808L152.561 42.2383H146.317ZM139.196 26.1822L135.84 33.7353H142.628L139.355 26.1822H139.196ZM76 15.0889V42.2939L76.0076 42.2864H82.2139V33.4969H86.7647C89.7431 33.4969 92.147 32.6301 94.0067 30.8586C95.8663 29.0796 96.8188 26.8936 96.8188 24.21C96.8188 21.6923 95.9117 19.5515 94.1276 17.7725C92.3512 15.9935 89.7809 15.0889 86.4699 15.0889H76ZM82.1686 28.9213V19.6721H85.4342C88.8662 19.6721 90.6503 21.7375 90.6503 24.3382C90.6503 26.8182 89.1611 28.9213 85.3964 28.9213H82.1686ZM381.769 15.0987H387.937V37.5086H400.561V42.2383H381.769V15.0987ZM423.163 37.9416L425.022 42.2383H431.266L418.513 14.4981H417.606L404.649 42.2383H410.78L412.685 37.9416H423.163ZM414.545 33.7353L417.901 26.1822H418.06L421.333 33.7353H414.545ZM253.095 42.2383L251.235 37.9416H240.758L238.853 42.2383H232.722L245.679 14.4981H246.586L259.339 42.2383H253.095ZM245.974 26.1822L242.618 33.7353H249.406L246.133 26.1822H245.974ZM156.644 42.2381H162.767H162.782V26.5739H162.903L180.04 42.6885H180.909V15.1052H174.779V30.2741H174.612C172.745 28.4653 169.888 25.8758 166.123 22.5058C162.351 19.0907 159.494 16.4638 157.551 14.5723H156.644V42.2381ZM206.446 37.5069V42.2349H187.154V15.0694H205.66V19.8049H193.323V25.8183H204.375V30.3885H193.323V37.5069H206.446ZM224.777 19.8201H232.722V15.0967H210.618V19.8201H218.609V42.237H224.777V19.8201ZM274.479 15.0889C277.291 15.0889 279.695 15.8712 281.638 17.4808C283.626 19.0453 284.616 21.2265 284.616 23.9869C284.616 27.1159 282.832 30.5381 279.151 32.223L286.355 42.2341H279.317L272.113 31.1549V30.5758C276.422 30.0793 278.531 27.5295 278.531 24.8519C278.531 21.7229 276.505 19.7448 273.315 19.7448H269.588V42.2341H263.419V15.0889H274.471H274.479ZM290.665 42.3121H296.834V15.0694H290.665V42.3121ZM320.389 15.1007H326.512V31.379C326.512 34.6944 325.522 37.39 323.489 39.4733C321.463 41.5193 318.56 42.5423 314.795 42.5423C307.054 42.5423 303.078 38.2487 303.078 31.4984V15.1007H309.247V31.4611C309.247 34.8587 311.189 37.5543 314.833 37.5543C318.477 37.5543 320.382 34.9781 320.382 31.6627V15.1007H320.389ZM435.329 15.087V42.2395H446.468C448.541 42.2395 450.288 41.9204 451.692 41.2639C453.088 40.6115 454.151 39.713 454.86 38.5618L454.861 38.5607C455.564 37.4092 455.914 36.1148 455.914 34.6865C455.914 33.2951 455.626 32.0866 455.033 31.076C454.451 30.0828 453.695 29.3072 452.765 28.7585C452.153 28.3883 451.519 28.1284 450.865 27.9808C451.417 27.7763 451.934 27.5122 452.416 27.1879C453.165 26.683 453.762 26.026 454.204 25.2211L454.205 25.2197C454.655 24.3925 454.872 23.4118 454.872 22.291C454.872 20.923 454.535 19.6882 453.857 18.5963C453.182 17.4967 452.167 16.6415 450.833 16.0238C449.497 15.3932 447.842 15.087 445.882 15.087H435.329ZM449.786 32.3699L449.787 32.3716C450.142 32.9435 450.322 33.5871 450.322 34.3116C450.322 35.2658 449.973 36.0323 449.268 36.6382C448.588 37.2219 447.426 37.5513 445.7 37.5513H440.843V30.4774H445.83C446.787 30.4774 447.59 30.6548 448.253 30.9955L448.256 30.9969C448.925 31.3327 449.431 31.7906 449.786 32.3699ZM448.831 24.7349L448.831 24.7358C448.487 25.2403 448.012 25.6368 447.394 25.9235C446.776 26.2022 446.074 26.345 445.283 26.345H440.843V19.7235H445.387C446.764 19.7235 447.739 20.0447 448.374 20.6287L448.375 20.6301C449.03 21.2261 449.358 21.9776 449.358 22.9114C449.358 23.6269 449.179 24.2298 448.831 24.7349ZM475.406 22.9537L475.374 22.6488C475.263 21.5975 474.802 20.7974 473.989 20.2197L473.988 20.2188C473.173 19.6341 472.094 19.3269 470.721 19.3269C469.754 19.3269 468.944 19.4747 468.281 19.7578C467.611 20.044 467.117 20.4237 466.781 20.8882C466.445 21.3521 466.272 21.8804 466.264 22.4843C466.264 22.9887 466.376 23.4083 466.587 23.756C466.817 24.12 467.13 24.4339 467.53 24.6967C467.946 24.9608 468.41 25.1854 468.922 25.3694C469.445 25.5573 469.972 25.7153 470.503 25.8433L470.507 25.8442L472.987 26.472C474.006 26.7121 474.985 27.0368 475.926 27.4461C476.884 27.8596 477.744 28.3824 478.504 29.0153C479.282 29.6567 479.898 30.4319 480.35 31.3383C480.809 32.2583 481.032 33.3248 481.032 34.528C481.032 36.1595 480.619 37.6099 479.786 38.8669L479.785 38.8678C478.951 40.1159 477.751 41.084 476.201 41.7783C474.655 42.466 472.798 42.8032 470.643 42.8032C468.548 42.8032 466.712 42.4748 465.143 41.8071C463.58 41.1382 462.346 40.156 461.452 38.8587L461.451 38.8573C460.564 37.5558 460.093 35.9808 460.022 34.1484L460.008 33.7945H465.399L465.422 34.1101C465.487 34.9875 465.752 35.695 466.201 36.2519C466.66 36.821 467.26 37.2494 468.009 37.5352C468.776 37.824 469.639 37.9713 470.604 37.9713C471.614 37.9713 472.483 37.8193 473.218 37.5248C473.966 37.2201 474.535 36.8076 474.94 36.2948C475.339 35.7819 475.544 35.1846 475.553 34.4889C475.545 33.8599 475.364 33.3671 475.029 32.9845L475.027 32.9821C474.673 32.5686 474.164 32.2119 473.484 31.9215L473.479 31.9195C472.793 31.6146 471.984 31.3409 471.05 31.1001L468.036 30.3143C465.817 29.7372 464.038 28.8564 462.719 27.6573L462.717 27.6556C461.38 26.422 460.72 24.786 460.72 22.7833C460.72 21.1388 461.161 19.6849 462.05 18.4352L462.051 18.4338C462.943 17.1933 464.152 16.236 465.667 15.5593C467.183 14.8733 468.891 14.5342 470.785 14.5342C472.704 14.5342 474.402 14.8729 475.869 15.5611C477.341 16.2384 478.506 17.1878 479.355 18.412C480.206 19.6322 480.643 21.0343 480.67 22.6072L480.676 22.9537H475.406ZM347.349 37.2171H347.357L347.342 37.2247L347.349 37.2171ZM346.442 37.2171H347.349L354.795 28.943C354.879 28.943 354.924 28.943 354.962 28.9806V42.2418H360.926V14.5987H360.057L346.896 29.8005L333.689 14.5987H332.782V42.2343H338.701V28.9731C338.739 28.9731 338.784 28.9731 338.822 28.9355L346.442 37.2171Z" fill="black"/>
</svg>
