<svg
  width="468"
  height="121"
  viewBox="0 0 468 121"
  fill="none"
  xmlns="http://www.w3.org/2000/svg"
>
  <g>
    <path
      d="M82.2446 15.3252C81.7013 22.4662 80.5801 29.5725 78.7308 36.5173C76.893 43.4506 74.327 50.2224 70.9404 56.5673C69.2413 59.7398 67.3457 62.8084 65.2305 65.7155C63.1153 68.6227 60.792 71.3798 58.2838 73.9409C57.4516 74.7945 56.5848 75.6252 55.7179 76.4327C55.9953 76.5019 56.2727 76.5596 56.5616 76.6173L59.3935 77.1826C61.2775 77.5402 63.1615 77.967 65.0687 78.2439C69.9579 79.1091 74.8818 79.7551 79.8404 80.2512C80.4414 79.859 81.0425 79.4552 81.632 79.0399C84.7296 76.8595 87.7579 74.5638 90.5204 71.9797C93.2829 69.4187 95.8489 66.6961 98.1028 63.7082C100.322 60.7088 102.264 57.5017 103.824 54.087C108.17 44.6042 109.349 33.6909 107.847 23.0084C101.304 14.6907 92.6009 8.14968 82.5913 4.21582C82.5913 4.34272 82.5913 4.45808 82.5913 4.58498C82.626 8.18429 82.5104 11.7605 82.2446 15.3368V15.3252Z"
      fill="#00A99D"
    />
    <path
      d="M25.7929 90.5991C26.5789 90.2761 27.3764 89.9762 28.1624 89.6301L30.4856 88.5687C33.5486 87.0921 36.5538 85.5116 39.3972 83.6658C41.2119 82.4891 42.9803 81.2432 44.691 79.9281L41.0154 79.109L39.5706 78.786L38.1373 78.4053L35.2708 77.6439C33.3521 77.1363 31.4334 76.6518 29.5494 76.0288L23.8626 74.2523L18.2568 72.2334C17.3205 71.8873 16.3843 71.5643 15.4596 71.2067L12.7087 70.0646C10.8709 69.2917 9.02156 68.5534 7.20689 67.7458L1.79752 65.1848L0.664795 64.6426C1.52012 75.9366 5.51935 86.3538 11.7725 95.029C14.8933 94.2792 17.9794 93.414 21.0192 92.3988C22.6259 91.8104 24.2556 91.2798 25.8276 90.6107L25.7929 90.5991Z"
      fill="#00D1C2"
    />
    <path
      d="M3.1853 56.2904C3.58985 56.5442 4.00595 56.7749 4.42206 56.9941L5.67037 57.6747L10.6867 60.3973C12.3743 61.274 14.1081 62.0585 15.8187 62.8891L18.3962 64.1235C19.2631 64.5157 20.1531 64.8733 21.02 65.254L26.2907 67.4805L31.6654 69.4763C33.4454 70.18 35.2716 70.7338 37.0978 71.3336L39.8256 72.2219L41.1895 72.6603L42.5766 73.0525L48.1246 74.5984C48.8181 74.783 49.5232 74.9445 50.2167 75.106C51.7309 73.6409 53.1988 72.1181 54.5742 70.5261C56.7588 67.9997 58.7584 65.3233 60.55 62.52C62.3415 59.7166 63.925 56.7749 65.3121 53.7524C68.0861 47.7074 70.0741 41.3048 71.3918 34.7753C72.721 28.2458 73.3567 21.5663 73.4608 14.8984C73.507 11.5644 73.4145 8.21887 73.1834 4.90797C73.1025 3.69666 72.9869 2.48536 72.8597 1.28559C68.8836 0.454979 64.7573 0.0166016 60.5269 0.0166016C29.1341 0.039674 3.34712 24.1043 0.688675 54.7791C0.711792 54.7907 0.734909 54.8022 0.758026 54.8253L3.19686 56.3019L3.1853 56.2904Z"
      fill="#00D1C2"
    />
    <path
      d="M58.4797 82.4082L55.5438 81.9813C54.5614 81.8429 53.602 81.6352 52.6311 81.4737C51.8451 81.3237 51.0476 81.1853 50.2616 81.0469C47.4067 83.1926 44.413 85.1422 41.3154 86.8727C38.2293 88.6262 34.9929 90.0913 31.7334 91.418L29.2599 92.3639C28.4392 92.6754 27.5955 92.9292 26.7633 93.2176C25.1104 93.806 23.3997 94.2443 21.7238 94.7519C18.8457 95.5249 15.9445 96.1709 13.0318 96.7016C13.5519 97.3822 14.0952 98.0398 14.65 98.6973C15.3319 98.6627 16.0139 98.6281 16.6843 98.5935C18.603 98.4666 20.5101 98.3282 22.4288 98.1667C23.3882 98.0974 24.336 97.9936 25.2953 97.8898C26.2547 97.7975 27.2025 97.7167 28.1503 97.5898C43.3728 95.894 58.4103 91.9025 71.8875 84.8654C72.4076 84.6 72.9162 84.3116 73.4248 84.0348C70.3965 83.8156 67.3681 83.5272 64.3514 83.158C62.3864 82.9734 60.4446 82.6504 58.4797 82.3851V82.4082Z"
      fill="#00A99D"
    />
    <path
      d="M87.909 84.6581C87.7587 84.6581 87.6085 84.6581 87.4582 84.6581C87.0999 84.9465 86.7416 85.2349 86.3833 85.5118C83.1007 88.0613 79.6447 90.3455 76.0615 92.422C74.2815 93.4833 72.4437 94.4177 70.6059 95.3868C68.745 96.2751 66.8957 97.2095 64.9885 98.0055C63.1045 98.8592 61.1742 99.5744 59.2555 100.324C57.3137 101.016 55.3719 101.72 53.4069 102.332C49.4886 103.578 45.5009 104.65 41.4786 105.504C37.4563 106.358 33.4108 107.119 29.3422 107.581C27.7471 107.777 26.1521 107.927 24.557 108.065C34.5898 115.575 47.0498 120.017 60.5616 120.017C85.4701 120.017 106.83 104.893 115.95 83.3545C114.447 83.516 112.945 83.666 111.43 83.7929C103.629 84.462 95.7803 84.7619 87.9205 84.6812L87.909 84.6581Z"
      fill="#007A8F"
    />
    <path
      d="M112.1 44.1311C111.591 48.238 110.609 52.3218 109.176 56.2442C107.742 60.178 105.858 63.9619 103.57 67.4805C101.27 70.9875 98.588 74.2522 95.6868 77.2401C94.4038 78.5899 93.0515 79.8704 91.676 81.1048C98.195 81.4278 104.749 81.4855 111.291 81.2663C113.152 81.2086 115.013 81.1163 116.873 81.0125C119.324 74.4714 120.665 67.3997 120.665 60.005C120.665 48.561 117.451 37.8785 111.892 28.7764C112.042 29.78 112.158 30.7837 112.239 31.7989C112.62 35.8712 112.608 40.0127 112.123 44.1196L112.1 44.1311Z"
      fill="#007A8F"
    />
  </g>
  <path
    fill-rule="evenodd"
    clip-rule="evenodd"
    d="M222.374 44.433L224.485 49.3103H231.573L217.097 17.8213H216.067L201.359 49.3103H208.319L210.481 44.433H222.374ZM212.592 39.6583L216.402 31.0843H216.582L220.298 39.6583H212.592ZM144.665 49.3731V18.4916H156.55C160.308 18.4916 163.226 19.5184 165.242 21.5378C167.267 23.5572 168.297 25.9873 168.297 28.8453C168.297 31.8915 167.216 34.373 165.105 36.3924C162.994 38.4033 160.265 39.3873 156.884 39.3873H151.718V49.3645H144.673L144.665 49.3731ZM151.667 23.6941V34.1933H155.331C159.605 34.1933 161.295 31.806 161.295 28.9908C161.295 26.0387 159.27 23.6941 155.374 23.6941H151.667ZM175.386 18.5029H182.388V43.9414H196.719V49.3103H175.386V18.5029ZM345.694 49.3103L343.583 44.433H331.69L329.527 49.3103H322.568L337.276 17.8213H338.306L352.782 49.3103H345.694ZM337.611 31.0843L333.801 39.6583H341.506L337.791 31.0843H337.611ZM236.207 49.3101H243.158H243.175V31.5289H243.313L262.766 49.8213H263.753V18.5104H256.794V35.7293H256.605C254.485 33.6759 251.242 30.7366 246.968 26.9111C242.686 23.0345 239.443 20.0525 237.237 17.9055H236.207V49.3101ZM292.741 43.9398V49.3068H270.842V18.4701H291.849V23.8456H277.844V30.6717H290.39V35.8595H277.844V43.9398H292.741ZM313.522 23.8624H322.541V18.5007H297.45V23.8624H306.52V49.3089H313.522V23.8624ZM369.968 18.4916C373.16 18.4916 375.889 19.3795 378.095 21.2066C380.351 22.9825 381.475 25.4586 381.475 28.592C381.475 32.1438 379.45 36.0286 375.271 37.9411L383.449 49.3052H375.46L367.282 36.7287V36.0713C372.174 35.5078 374.568 32.6134 374.568 29.5739C374.568 26.0221 372.268 23.7766 368.647 23.7766H364.416V49.3052H357.414V18.4916H369.96H369.968ZM388.089 49.3944H395.092V18.4701H388.089V49.3944ZM421.832 18.5051H428.782V36.9833C428.782 40.7468 427.658 43.8067 425.35 46.1716C423.05 48.4941 419.755 49.6553 415.482 49.6553C406.694 49.6553 402.181 44.7815 402.181 37.119V18.5051H409.183V37.0766C409.183 40.9333 411.388 43.9932 415.524 43.9932C419.661 43.9932 421.823 41.0689 421.823 37.3054V18.5051H421.832ZM452.461 43.5806H452.471L452.453 43.5892L452.461 43.5806ZM460.914 34.1883L452.461 43.5806H451.432L442.783 34.1798C442.74 34.2225 442.688 34.2225 442.645 34.2225V49.2758H435.926V17.9055H436.956L451.947 35.1617L466.887 17.9055H467.874V49.2843H461.103V34.231C461.06 34.1883 461.009 34.1883 460.914 34.1883ZM144.665 70.508H151.723V96.1521H166.17V101.564H144.665V70.508ZM192.032 96.648L194.16 101.565H201.305L186.712 69.8213H185.674L170.848 101.565H177.863L180.043 96.648H192.032ZM182.171 91.8347L186.012 83.1915H186.193L189.939 91.8347H182.171ZM205.954 101.565V70.4943H218.03C220.273 70.4943 222.167 70.8447 223.695 71.5664C225.223 72.2732 226.384 73.2519 227.156 74.5102C227.932 75.7597 228.317 77.1727 228.317 78.738C228.317 80.0206 228.069 81.1428 227.554 82.0894L227.553 82.091C227.047 83.012 226.364 83.7639 225.507 84.3416C224.956 84.7127 224.364 85.015 223.732 85.2489C224.481 85.4179 225.206 85.7154 225.906 86.139C226.971 86.7669 227.836 87.6543 228.502 88.7909C229.18 89.9473 229.509 91.3302 229.509 92.9224C229.509 94.5568 229.11 96.0381 228.304 97.3558L228.304 97.3569C227.492 98.6743 226.276 99.7024 224.679 100.449C223.071 101.2 221.073 101.565 218.701 101.565H205.954ZM222.498 90.2735L222.497 90.2714C222.091 89.6086 221.512 89.0846 220.747 88.7004L220.743 88.6987C219.985 88.3089 219.065 88.1058 217.97 88.1058H212.264V96.2006H217.821C219.797 96.2006 221.127 95.8237 221.905 95.1558C222.711 94.4624 223.11 93.5853 223.11 92.4934C223.11 91.6644 222.905 90.9278 222.498 90.2735ZM221.404 81.5357L221.405 81.5346C221.802 80.9567 222.007 80.2668 222.007 79.448C222.007 78.3794 221.633 77.5195 220.883 76.8374L220.881 76.8358C220.155 76.1675 219.039 75.7999 217.464 75.7999H212.264V83.3771H217.344C218.25 83.3771 219.053 83.2137 219.761 82.8947C220.467 82.5667 221.011 82.113 221.404 81.5357ZM251.779 79.1483L251.815 79.4972H257.846L257.839 79.1008C257.808 77.3008 257.308 75.6961 256.334 74.2998C255.363 72.8992 254.029 71.8128 252.345 71.0377C250.666 70.2502 248.724 69.8627 246.528 69.8627C244.36 69.8627 242.405 70.2507 240.671 71.0357C238.937 71.8101 237.554 72.9055 236.533 74.3251L236.532 74.3266C235.514 75.7567 235.01 77.4204 235.01 79.3022C235.01 81.5939 235.765 83.4661 237.296 84.8777L237.298 84.8796C238.807 86.2518 240.843 87.2598 243.381 87.9201L246.829 88.819L246.83 88.8193C247.9 89.0949 248.826 89.4081 249.611 89.7569L249.616 89.7592C250.394 90.0916 250.976 90.4997 251.382 90.9729L251.384 90.9757C251.767 91.4135 251.974 91.9774 251.984 92.6971C251.974 93.4932 251.739 94.1768 251.282 94.7638C250.818 95.3504 250.168 95.8225 249.312 96.1711C248.47 96.5082 247.476 96.6821 246.321 96.6821C245.217 96.6821 244.229 96.5136 243.352 96.1831C242.494 95.8561 241.807 95.3658 241.282 94.7146C240.768 94.0773 240.465 93.2677 240.391 92.2637L240.364 91.9026H234.195L234.211 92.3075C234.292 94.4044 234.832 96.2066 235.847 97.696L235.848 97.6976C236.87 99.1821 238.283 100.306 240.071 101.071C241.866 101.836 243.968 102.211 246.365 102.211C248.831 102.211 250.955 101.826 252.724 101.039L252.725 101.039C254.498 100.244 255.872 99.1362 256.826 97.708L256.827 97.7069C257.781 96.2686 258.254 94.6089 258.254 92.7419C258.254 91.3651 257.998 90.1446 257.473 89.0918C256.955 88.0547 256.25 87.1676 255.36 86.4336C254.491 85.7094 253.507 85.1111 252.41 84.6379C251.334 84.1696 250.213 83.7981 249.048 83.5233L246.209 82.8049L246.205 82.8038C245.597 82.6573 244.994 82.4766 244.396 82.2616C243.81 82.051 243.279 81.794 242.803 81.4918C242.345 81.1911 241.987 80.8319 241.724 80.4153C241.482 80.0174 241.354 79.5373 241.354 78.9601C241.363 78.269 241.561 77.6645 241.945 77.1336C242.33 76.6022 242.895 76.1676 243.662 75.8401C244.421 75.5161 245.348 75.347 246.454 75.347C248.025 75.347 249.26 75.6985 250.193 76.3676L250.194 76.3687C251.125 77.0298 251.652 77.9453 251.779 79.1483Z"
    fill="black"
  />
</svg>
