<svg
  width="569"
  height="57"
  viewBox="0 0 569 57"
  fill="none"
  xmlns="http://www.w3.org/2000/svg"
>
  <g clip-path="url(#clip0_1754_4159)">
    <path
      d="M38.0705 7.64435C37.817 10.9768 37.2938 14.2931 36.4308 17.534C35.5731 20.7695 34.3757 23.9297 32.7952 26.8906C32.0023 28.3711 31.1177 29.8032 30.1306 31.1598C29.1435 32.5165 28.0594 33.8032 26.8889 34.9983C26.5005 35.3967 26.096 35.7843 25.6914 36.1612C25.8209 36.1935 25.9503 36.2204 26.0852 36.2473L27.4067 36.5111C28.2859 36.678 29.1651 36.8772 30.0551 37.0064C32.3368 37.4102 34.6346 37.7116 36.9486 37.9431C37.2291 37.7601 37.5096 37.5717 37.7846 37.3779C39.2302 36.3604 40.6434 35.289 41.9326 34.0831C43.2217 32.888 44.4192 31.6174 45.471 30.2231C46.5067 28.8233 47.4128 27.3267 48.141 25.7332C50.1692 21.3079 50.7193 16.215 50.0181 11.2298C46.9652 7.34825 42.9035 4.29576 38.2323 2.45996C38.2323 2.51918 38.2323 2.57302 38.2323 2.63224C38.2485 4.31191 38.1946 5.98082 38.0705 7.64973V7.64435Z"
      fill="#00A99D"
    />
    <path
      d="M11.7264 42.7722C12.0932 42.6215 12.4654 42.4815 12.8322 42.32L13.9164 41.8247C15.3458 41.1356 16.7482 40.3981 18.0751 39.5367C18.922 38.9876 19.7473 38.4061 20.5456 37.7924L18.8303 37.4102L18.156 37.2594L17.4872 37.0818L16.1495 36.7265C15.2541 36.4896 14.3587 36.2635 13.4795 35.9728L10.8257 35.1437L8.20959 34.2016C7.77268 34.0401 7.33577 33.8893 6.90426 33.7224L5.6205 33.1895C4.76286 32.8288 3.89983 32.4842 3.05298 32.1074L0.528607 30.9122L0 30.6592C0.399152 35.9297 2.26546 40.7911 5.18359 44.8395C6.63995 44.4896 8.08014 44.0858 9.49875 43.6121C10.2485 43.3375 11.0091 43.0899 11.7426 42.7776L11.7264 42.7722Z"
      fill="#00D1C2"
    />
    <path
      d="M1.17626 26.7611C1.36505 26.8795 1.55923 26.9872 1.75342 27.0895L2.33596 27.4071L4.67694 28.6777C5.46445 29.0868 6.27355 29.4529 7.07185 29.8405L8.2747 30.4165C8.67925 30.5996 9.09458 30.7665 9.49913 30.9441L11.9588 31.9832L14.467 32.9145C15.2976 33.2429 16.1499 33.5013 17.0021 33.7813L18.2751 34.1958L18.9116 34.4004L19.5588 34.5834L22.1479 35.3048C22.4716 35.391 22.8006 35.4663 23.1243 35.5417C23.8309 34.858 24.5159 34.1474 25.1578 33.4044C26.1772 32.2254 27.1104 30.9764 27.9464 29.6682C28.7825 28.36 29.5215 26.9872 30.1687 25.5767C31.4633 22.7557 32.3911 19.7678 33.006 16.7207C33.6263 13.6736 33.9229 10.5565 33.9715 7.44482C33.9931 5.88896 33.9499 4.32772 33.842 2.78264C33.8043 2.21736 33.7503 1.65209 33.691 1.09219C31.8355 0.704576 29.9098 0.5 27.9357 0.5C13.2857 0.510767 1.25178 11.7409 0.0111694 26.0559C0.0219573 26.0612 0.0327452 26.0666 0.0435331 26.0774L1.18166 26.7665L1.17626 26.7611Z"
      fill="#00D1C2"
    />
    <path
      d="M26.9803 38.9497L25.6102 38.7505C25.1517 38.6859 24.704 38.589 24.2509 38.5136C23.8841 38.4437 23.5119 38.3791 23.1452 38.3145C21.8129 39.3158 20.4158 40.2256 18.9702 41.0332C17.5301 41.8515 16.0197 42.5352 14.4987 43.1543L13.3443 43.5957C12.9614 43.7411 12.5676 43.8595 12.1793 43.9941C11.4079 44.2687 10.6096 44.4733 9.82749 44.7101C8.4844 45.0708 7.13052 45.3723 5.77124 45.62C6.01397 45.9376 6.26748 46.2445 6.52639 46.5513C6.84464 46.5352 7.16288 46.519 7.47573 46.5029C8.37113 46.4437 9.26113 46.379 10.1565 46.3037C10.6042 46.2714 11.0465 46.2229 11.4942 46.1745C11.9419 46.1314 12.3842 46.0937 12.8265 46.0345C19.9304 45.2431 26.9479 43.3804 33.2372 40.0964C33.48 39.9726 33.7173 39.838 33.9546 39.7088C32.5414 39.6065 31.1282 39.4719 29.7204 39.2996C28.8034 39.2135 27.8972 39.0628 26.9803 38.9389V38.9497Z"
      fill="#00A99D"
    />
    <path
      d="M40.714 39.999C40.6439 39.999 40.5737 39.999 40.5036 39.999C40.3364 40.1336 40.1692 40.2681 40.002 40.3974C38.4701 41.5871 36.8573 42.6531 35.1852 43.6221C34.3545 44.1174 33.4969 44.5535 32.6392 45.0057C31.7708 45.4202 30.9078 45.8563 30.0178 46.2278C29.1386 46.6262 28.2378 46.9599 27.3424 47.3099C26.4362 47.6329 25.53 47.9613 24.613 48.2466C22.7845 48.828 20.9236 49.3287 19.0465 49.7271C17.1694 50.1255 15.2815 50.4808 13.3828 50.6961C12.6385 50.7877 11.8941 50.8576 11.1497 50.9223C15.8317 54.427 21.6464 56.4996 27.9519 56.4996C39.5759 56.4996 49.5439 49.4418 53.7997 39.3906C53.0985 39.466 52.3973 39.536 51.6907 39.5952C48.0498 39.9074 44.3873 40.0474 40.7194 40.0097L40.714 39.999Z"
      fill="#007A8F"
    />
    <path
      d="M52.003 21.0864C51.7657 23.003 51.3072 24.9088 50.6383 26.7392C49.9695 28.575 49.0903 30.3408 48.0223 31.9828C46.9489 33.6194 45.6975 35.143 44.3436 36.5373C43.7449 37.1672 43.1138 37.7648 42.4719 38.3408C45.5141 38.4915 48.5725 38.5185 51.6254 38.4162C52.4939 38.3893 53.3623 38.3462 54.2307 38.2977C55.3742 35.2453 55.9999 31.9451 55.9999 28.4942C55.9999 23.1537 54.5004 18.1685 51.9059 13.9209C51.976 14.3893 52.03 14.8576 52.0677 15.3314C52.2457 17.2318 52.2403 19.1645 52.0138 21.0811L52.003 21.0864Z"
      fill="#007A8F"
    />
  </g>
  <path
    d="M102.881 15.0967H109.008V37.3553H121.547V42.0531H102.881V15.0967Z"
    fill="currentColor"
  />
  <path
    d="M145.842 42.0529L143.995 37.7852H133.589L131.697 42.0529H125.607L138.477 14.5H139.378L152.044 42.0529H145.835H145.842ZM138.77 26.1052L135.436 33.6073H142.178L138.927 26.1052H138.762H138.77Z"
    fill="currentColor"
  />
  <path
    d="M76 42.1082V15.0869H86.3992C89.6879 15.0869 92.2407 15.9854 94.0052 17.7524C95.7772 19.5193 96.6782 21.6457 96.6782 24.1464C96.6782 26.8119 95.7322 28.9832 93.8851 30.7501C92.038 32.5096 89.6503 33.3707 86.692 33.3707H82.1719V42.1007H76.0075L76 42.1082ZM82.1269 19.6391V28.8259H85.333C89.0722 28.8259 90.5513 26.737 90.5513 24.2737C90.5513 21.6906 88.7794 19.6391 85.3705 19.6391H82.1194H82.1269Z"
    fill="currentColor"
  />
  <path
    d="M379.704 15.0967H385.831V37.3553H398.37V42.0531H379.704V15.0967Z"
    fill="currentColor"
  />
  <path
    d="M422.666 42.0529L420.819 37.7852H410.412L408.52 42.0529H402.431L415.3 14.5H416.201L428.868 42.0529H422.658H422.666ZM415.593 26.1052L412.259 33.6073H419.002L415.751 26.1052H415.586H415.593Z"
    fill="currentColor"
  />
  <path
    d="M251.899 42.0529L250.052 37.7852H239.645L237.753 42.0529H231.664L244.533 14.5H245.434L258.101 42.0529H251.892H251.899ZM244.826 26.1052L241.493 33.6073H248.235L244.984 26.1052H244.819H244.826Z"
    fill="currentColor"
  />
  <path
    d="M162.181 42.0533H156.099V14.5742H157C158.93 16.4529 161.768 19.0621 165.515 22.4541C169.254 25.8014 172.092 28.3734 173.947 30.17H174.112V15.1035H180.201V42.5006H179.338L162.316 26.4947H162.196V42.0533H162.181Z"
    fill="currentColor"
  />
  <path
    d="M205.566 37.3459V42.0495H186.404V15.0674H204.785V19.771H192.531V25.7437H203.508V30.2831H192.531V37.3534H205.566V37.3459Z"
    fill="currentColor"
  />
  <path
    d="M231.664 19.7862H223.773V42.0518H217.646V19.7862H209.709V15.0947H231.664V19.7862Z"
    fill="currentColor"
  />
  <path
    d="M273.139 15.0869C275.932 15.0869 278.32 15.8639 280.249 17.4626C282.224 19.0165 283.208 21.183 283.208 23.9248C283.208 27.0326 281.436 30.4318 277.779 32.1053L284.935 42.0488H277.944L270.789 31.0444V30.4692C275.069 29.9761 277.163 27.4435 277.163 24.7839C277.163 21.6761 275.151 19.7113 271.983 19.7113H268.281V42.0488H262.154V15.0869H273.131H273.139Z"
    fill="currentColor"
  />
  <path
    d="M295.343 42.1261H289.216V15.0674H295.343V42.1261Z"
    fill="currentColor"
  />
  <path
    d="M318.74 15.0986H324.822V31.2671C324.822 34.5601 323.838 37.2375 321.818 39.3068C319.806 41.339 316.923 42.355 313.183 42.355C305.495 42.355 301.545 38.0904 301.545 31.3857V15.0986H307.672V31.3486C307.672 34.7232 309.602 37.4007 313.221 37.4007C316.84 37.4007 318.732 34.8419 318.732 31.5489V15.0986H318.74Z"
    fill="currentColor"
  />
  <path
    d="M433.072 41.7153V41.8845H433.242H443.967C446.01 41.8845 447.718 41.5698 449.084 40.9314C450.446 40.295 451.474 39.423 452.158 38.3121L452.159 38.3116C452.84 37.1962 453.18 35.9414 453.18 34.5517C453.18 33.1931 452.899 32.0238 452.328 31.0511C451.763 30.0872 451.032 29.3383 450.134 28.809C449.328 28.321 448.485 28.0321 447.608 27.9448C448.401 27.7316 449.125 27.4046 449.78 26.9634C450.501 26.4773 451.076 25.845 451.503 25.0687L451.503 25.068C451.933 24.2764 452.145 23.3314 452.145 22.2399C452.145 20.9101 451.818 19.7148 451.162 18.659C450.512 17.5994 449.531 16.7703 448.23 16.1683C446.933 15.5555 445.316 15.2537 443.385 15.2537H433.242H433.072V15.4229V41.7153ZM447.406 32.1623L447.407 32.1632C447.777 32.7596 447.964 33.4301 447.964 34.1794C447.964 35.1753 447.596 35.9839 446.858 36.6186C446.137 37.238 444.932 37.5663 443.204 37.5663H438.211V30.2018H443.333C444.304 30.2018 445.13 30.3819 445.817 30.7351L445.819 30.7359C446.509 31.0823 447.036 31.558 447.406 32.1623ZM446.454 24.7631L446.454 24.7635C446.093 25.2923 445.596 25.7053 444.957 26.0017C444.318 26.2899 443.597 26.4357 442.79 26.4357H438.211V19.5205H442.893C444.284 19.5205 445.301 19.8448 445.974 20.4643L445.975 20.465C446.663 21.0905 447.006 21.8831 447.006 22.8561C447.006 23.5966 446.82 24.2298 446.454 24.7631Z"
    fill="currentColor"
    stroke="black"
    stroke-width="0.338358"
  />
  <path
    d="M472.862 22.7301L472.846 22.5787C472.731 21.4887 472.25 20.6492 471.401 20.0458L471.4 20.0454C470.554 19.4385 469.444 19.1277 468.056 19.1277C467.079 19.1277 466.251 19.277 465.566 19.5693C464.878 19.8632 464.361 20.2577 464.006 20.7484C463.65 21.2389 463.468 21.7982 463.46 22.432C463.46 22.9599 463.578 23.4088 463.807 23.7853C464.05 24.1698 464.378 24.4991 464.795 24.7726C465.22 25.0425 465.692 25.2711 466.212 25.4579C466.737 25.6466 467.267 25.8052 467.8 25.9338L467.802 25.9342L467.802 25.9342L470.267 26.5581C471.27 26.7945 472.233 27.1139 473.159 27.5167C473.159 27.5167 473.159 27.5167 473.159 27.5167L473.091 27.6718C474.016 28.0707 474.843 28.5735 475.57 29.1804C476.307 29.7873 476.889 30.5199 477.317 31.3782C477.746 32.2366 477.96 33.2423 477.96 34.3954C477.96 35.956 477.566 37.3302 476.778 38.518C475.99 39.6971 474.851 40.6204 473.361 41.288C471.88 41.9469 470.086 42.2764 467.979 42.2764C465.932 42.2764 464.155 41.9556 462.648 41.314L472.862 22.7301ZM472.862 22.7301H473.014H477.6H477.772L477.769 22.558C477.743 21.027 477.318 19.6674 476.493 18.4849C475.669 17.296 474.536 16.3715 473.098 15.7099C471.668 15.0387 470.007 14.7058 468.12 14.7058C466.259 14.7058 464.586 15.039 463.106 15.7091C461.625 16.3703 460.449 17.303 459.582 18.5087L459.582 18.5093C458.72 19.7195 458.292 21.1287 458.292 22.73C458.292 24.6783 458.932 26.2559 460.221 27.4451L460.222 27.4459C461.507 28.6136 463.247 29.478 465.432 30.0464C465.432 30.0464 465.432 30.0464 465.432 30.0464L468.424 30.8267L468.425 30.8268C469.36 31.0678 470.173 31.3424 470.865 31.6499L470.867 31.6509C471.56 31.9469 472.089 32.3147 472.462 32.7498L472.463 32.751C472.826 33.1665 473.016 33.6973 473.025 34.3564C473.016 35.0834 472.801 35.7138 472.38 36.2546C471.956 36.7911 471.366 37.217 470.6 37.5287C469.845 37.8311 468.96 37.9846 467.94 37.9846C466.964 37.9846 466.086 37.8356 465.303 37.5403L472.862 22.7301Z"
    fill="currentColor"
    stroke="black"
    stroke-width="0.338358"
  />
  <path
    d="M345.525 37.0653H344.616L337.048 28.8396C337.01 28.877 336.965 28.877 336.928 28.877V42.0486H331.049V14.5996H331.95L345.067 29.6988L358.139 14.5996H359.002V42.0561H353.078V28.8844C353.041 28.8471 352.996 28.8471 352.913 28.8471L345.51 37.0728L345.525 37.0653Z"
    fill="currentColor"
  />
  <path
    d="M501.579 42.5004L495.584 34.2233L501.333 26.6396H506.21L499.655 34.872L499.633 33.4627L506.456 42.5004H501.579ZM491.96 42.5004V26.6396H495.964V42.5004H491.96Z"
    fill="currentColor"
  />
  <path
    d="M564.938 42.4997L563.861 40.0112H557.793L556.69 42.4997H553.139L560.643 26.4336H561.169L568.554 42.4997H564.934H564.938ZM560.814 33.2006L558.87 37.5751H562.802L560.906 33.2006H560.809H560.814Z"
    fill="currentColor"
  />
  <path
    d="M552.374 39.7302V42.5003H541.088V26.6094H551.914V29.3795H544.697V32.8971H551.162V35.5705H544.697V39.7345H552.374V39.7302Z"
    fill="currentColor"
  />
  <path
    d="M531.954 26.6826C533.593 26.6826 534.993 27.1384 536.125 28.0763C537.284 28.9879 537.861 30.2589 537.861 31.8673C537.861 33.6905 536.821 35.6846 534.676 36.6664L538.874 42.4997H534.773L530.575 36.044V35.7066C533.086 35.4173 534.315 33.9316 534.315 32.3713C534.315 30.5481 533.135 29.3955 531.276 29.3955H529.104V42.4997H525.51V26.6826H531.95H531.954Z"
    fill="currentColor"
  />
  <path
    d="M514.974 42.4999C513.756 42.4999 512.629 42.2868 511.594 41.8605C510.574 41.4342 509.675 40.8404 508.899 40.0791C508.122 39.3178 507.521 38.4347 507.095 37.4299C506.668 36.4098 506.455 35.3135 506.455 34.1412C506.455 32.9536 506.668 31.8574 507.095 30.8525C507.521 29.8476 508.115 28.9722 508.876 28.2261C509.637 27.4649 510.528 26.8787 511.548 26.4676C512.583 26.0413 513.71 25.8281 514.928 25.8281C516.131 25.8281 517.242 26.0413 518.263 26.4676C519.298 26.8787 520.196 27.4649 520.957 28.2261C521.734 28.9722 522.335 29.8552 522.762 30.8753C523.188 31.8802 523.401 32.9764 523.401 34.164C523.401 35.3364 523.188 36.4326 522.762 37.4527C522.335 38.4576 521.742 39.3407 520.98 40.1019C520.219 40.848 519.321 41.4342 518.285 41.8605C517.265 42.2868 516.161 42.4999 514.974 42.4999ZM514.928 39.2341C515.887 39.2341 516.725 39.0209 517.44 38.5946C518.171 38.1683 518.735 37.5745 519.13 36.8132C519.526 36.0368 519.724 35.1461 519.724 34.1412C519.724 33.3799 519.61 32.6948 519.382 32.0858C519.153 31.4615 518.826 30.9286 518.4 30.4871C517.973 30.0303 517.463 29.6878 516.869 29.4594C516.291 29.2158 515.644 29.094 514.928 29.094C513.969 29.094 513.124 29.3071 512.393 29.7334C511.678 30.1445 511.122 30.7307 510.726 31.492C510.33 32.238 510.132 33.1211 510.132 34.1412C510.132 34.9025 510.246 35.5952 510.475 36.2195C510.703 36.8437 511.023 37.3842 511.434 37.841C511.86 38.2825 512.37 38.6251 512.964 38.8687C513.558 39.1123 514.213 39.2341 514.928 39.2341Z"
    fill="currentColor"
  />
  <defs>
    <clipPath id="clip0_1754_4159">
      <rect width="56" height="56" fill="white" transform="translate(0 0.5)" />
    </clipPath>
  </defs>
</svg>
