<svg
  width="468"
  height="121"
  viewBox="0 0 468 121"
  fill="none"
  xmlns="http://www.w3.org/2000/svg"
>
  <g>
    <path
      d="M82.2445 15.8086C81.7013 22.9496 80.5801 30.0559 78.7308 37.0007C76.893 43.934 74.327 50.7058 70.9404 57.0507C69.2413 60.2232 67.3457 63.2918 65.2305 66.1989C63.1153 69.1061 60.792 71.8632 58.2838 74.4243C57.4516 75.2779 56.5848 76.1086 55.7179 76.9161C55.9953 76.9853 56.2727 77.043 56.5616 77.1007L59.3935 77.666C61.2775 78.0236 63.1615 78.4504 65.0687 78.7273C69.9579 79.5925 74.8818 80.2385 79.8404 80.7346C80.4414 80.3424 81.0425 79.9386 81.632 79.5233C84.7296 77.3429 87.7579 75.0472 90.5204 72.4631C93.2829 69.9021 95.8489 67.1795 98.1028 64.1916C100.322 61.1922 102.264 57.9851 103.824 54.5704C108.17 45.0876 109.349 34.1743 107.847 23.4918C101.304 15.1741 92.6009 8.63308 82.5913 4.69922C82.5913 4.82612 82.5913 4.94148 82.5913 5.06838C82.626 8.66769 82.5104 12.2439 82.2445 15.8202V15.8086Z"
      fill="#00A99D"
    />
    <path
      d="M25.7929 91.0825C26.5789 90.7595 27.3764 90.4596 28.1624 90.1135L30.4856 89.0521C33.5486 87.5755 36.5538 85.995 39.3972 84.1492C41.2119 82.9725 42.9803 81.7266 44.691 80.4115L41.0154 79.5924L39.5706 79.2694L38.1373 78.8887L35.2708 78.1273C33.3521 77.6197 31.4334 77.1352 29.5494 76.5122L23.8626 74.7357L18.2568 72.7168C17.3205 72.3707 16.3843 72.0477 15.4596 71.6901L12.7087 70.548C10.8709 69.7751 9.02156 69.0368 7.20689 68.2292L1.79752 65.6682L0.664795 65.126C1.52012 76.42 5.51935 86.8372 11.7725 95.5124C14.8933 94.7626 17.9794 93.8973 21.0192 92.8822C22.6259 92.2938 24.2556 91.7632 25.8276 91.094L25.7929 91.0825Z"
      fill="#00D1C2"
    />
    <path
      d="M3.1853 56.7738C3.58985 57.0276 4.00595 57.2583 4.42206 57.4775L5.67037 58.1581L10.6867 60.8807C12.3743 61.7574 14.1081 62.5419 15.8187 63.3725L18.3962 64.6069C19.2631 64.9991 20.1531 65.3567 21.02 65.7374L26.2907 67.9639L31.6654 69.9597C33.4454 70.6634 35.2716 71.2172 37.0978 71.817L39.8256 72.7053L41.1895 73.1437L42.5766 73.5359L48.1246 75.0818C48.8181 75.2664 49.5232 75.4279 50.2167 75.5894C51.7309 74.1243 53.1988 72.6015 54.5742 71.0095C56.7588 68.4831 58.7584 65.8067 60.55 63.0034C62.3415 60.2 63.925 57.2583 65.3121 54.2358C68.0861 48.1908 70.0741 41.7882 71.3918 35.2587C72.721 28.7292 73.3567 22.0497 73.4608 15.3818C73.507 12.0478 73.4145 8.70227 73.1834 5.39137C73.1025 4.18006 72.9869 2.96876 72.8597 1.76899C68.8836 0.938377 64.7573 0.5 60.5269 0.5C29.1341 0.523072 3.34712 24.5877 0.688675 55.2625C0.711792 55.2741 0.734909 55.2856 0.758026 55.3087L3.19686 56.7853L3.1853 56.7738Z"
      fill="#00D1C2"
    />
    <path
      d="M58.4797 82.8915L55.5438 82.4647C54.5614 82.3263 53.602 82.1186 52.6311 81.9571C51.8451 81.8071 51.0476 81.6687 50.2616 81.5303C47.4067 83.676 44.413 85.6256 41.3154 87.3561C38.2292 89.1096 34.9929 90.5747 31.7334 91.9013L29.2599 92.8473C28.4392 93.1588 27.5955 93.4126 26.7632 93.701C25.1104 94.2893 23.3997 94.7277 21.7238 95.2353C18.8457 96.0082 15.9445 96.6543 13.0318 97.1849C13.5519 97.8656 14.0952 98.5231 14.65 99.1807C15.3319 99.1461 16.0139 99.1115 16.6843 99.0769C18.603 98.95 20.5101 98.8116 22.4288 98.65C23.3882 98.5808 24.336 98.477 25.2953 98.3732C26.2547 98.2809 27.2025 98.2001 28.1503 98.0732C43.3728 96.3774 58.4103 92.3859 71.8875 85.3488C72.4076 85.0834 72.9162 84.795 73.4248 84.5182C70.3965 84.299 67.3681 84.0106 64.3514 83.6414C62.3864 83.4568 60.4446 83.1338 58.4797 82.8685V82.8915Z"
      fill="#00A99D"
    />
    <path
      d="M87.909 85.1415C87.7587 85.1415 87.6085 85.1415 87.4582 85.1415C87.0999 85.4299 86.7416 85.7183 86.3833 85.9952C83.1006 88.5447 79.6447 90.8289 76.0615 92.9054C74.2815 93.9667 72.4437 94.9011 70.6059 95.8702C68.745 96.7585 66.8957 97.6929 64.9885 98.4889C63.1045 99.3426 61.1742 100.058 59.2555 100.808C57.3137 101.5 55.3719 102.204 53.4069 102.815C49.4886 104.061 45.5009 105.134 41.4786 105.987C37.4562 106.841 33.4108 107.603 29.3422 108.064C27.7471 108.26 26.1521 108.41 24.557 108.549C34.5897 116.059 47.0498 120.5 60.5616 120.5C85.4701 120.5 106.83 105.376 115.95 83.8379C114.447 83.9994 112.945 84.1494 111.43 84.2763C103.628 84.9454 95.7803 85.2453 87.9205 85.1646L87.909 85.1415Z"
      fill="#007A8F"
    />
    <path
      d="M112.1 44.6145C111.591 48.7214 110.609 52.8052 109.176 56.7276C107.742 60.6614 105.858 64.4453 103.57 67.9638C101.27 71.4709 98.588 74.7356 95.6868 77.7235C94.4038 79.0732 93.0515 80.3538 91.676 81.5881C98.195 81.9112 104.749 81.9688 111.291 81.7497C113.152 81.692 115.013 81.5997 116.873 81.4959C119.324 74.9548 120.665 67.8831 120.665 60.4884C120.665 49.0444 117.451 38.3619 111.892 29.2598C112.042 30.2634 112.158 31.2671 112.239 32.2823C112.62 36.3546 112.608 40.4961 112.123 44.603L112.1 44.6145Z"
      fill="#007A8F"
    />
  </g>
  <path
    fill-rule="evenodd"
    clip-rule="evenodd"
    d="M224.485 49.7947L222.374 44.9173H210.481L208.319 49.7947H201.359L216.067 18.3057H217.097L231.573 49.7947H224.485ZM216.402 31.5687L212.592 40.1426H220.298L216.582 31.5687H216.402ZM144.665 18.9759V49.8575L144.673 49.8489H151.718V39.8717H156.884C160.265 39.8717 162.994 38.8876 165.105 36.8768C167.216 34.8574 168.297 32.3759 168.297 29.3297C168.297 26.4717 167.267 24.0416 165.242 22.0222C163.226 20.0027 160.308 18.9759 156.55 18.9759H144.665ZM151.667 34.6777V24.1785H155.374C159.27 24.1785 161.295 26.523 161.295 29.4751C161.295 32.2903 159.605 34.6777 155.331 34.6777H151.667ZM182.388 18.9873H175.386V49.7947H196.719V44.4258H182.388V18.9873ZM343.583 44.9173L345.694 49.7947H352.782L338.306 18.3057H337.276L322.568 49.7947H329.527L331.69 44.9173H343.583ZM333.801 40.1426L337.611 31.5687H337.791L341.506 40.1426H333.801ZM243.158 49.7945H236.207V18.3898H237.237C239.443 20.5369 242.686 23.5189 246.968 27.3955C251.242 31.2209 254.485 34.1603 256.605 36.2136H256.794V18.9948H263.753V50.3057H262.766L243.313 32.0133H243.175V49.7945H243.158ZM292.741 49.7912V44.4242H277.844V36.3438H290.39V31.156H277.844V24.33H291.849V18.9545H270.842V49.7912H292.741ZM322.541 24.3467H313.522V49.7932H306.52V24.3467H297.45V18.9851H322.541V24.3467ZM378.095 21.691C375.889 19.8639 373.16 18.9759 369.968 18.9759H369.96H357.414V49.7896H364.416V24.261H368.647C372.268 24.261 374.568 26.5065 374.568 30.0583C374.568 33.0978 372.174 35.9922 367.282 36.5557V37.2131L375.46 49.7896H383.449L375.271 38.4255C379.45 36.513 381.475 32.6282 381.475 29.0764C381.475 25.9429 380.351 23.4669 378.095 21.691ZM395.092 49.8788H388.089V18.9545H395.092V49.8788ZM428.782 18.9895H421.832H421.823V37.7898C421.823 41.5533 419.661 44.4776 415.524 44.4776C411.388 44.4776 409.183 41.4177 409.183 37.561V18.9895H402.181V37.6033C402.181 45.2659 406.694 50.1397 415.482 50.1397C419.755 50.1397 423.05 48.9785 425.35 46.656C427.658 44.2911 428.782 41.2312 428.782 37.4677V18.9895ZM452.471 44.065H452.461L460.914 34.6727C461.009 34.6727 461.06 34.6727 461.103 34.7154V49.7687H467.874V18.3898H466.887L451.947 35.6461L436.956 18.3898H435.926V49.7602H442.645V34.7068C442.688 34.7068 442.74 34.7068 442.783 34.6641L451.432 44.065H452.461L452.453 44.0735L452.471 44.065ZM151.723 70.9924H144.665V102.049H166.17V96.6364H151.723V70.9924ZM194.16 102.049L192.032 97.1324H180.043L177.863 102.049H170.848L185.674 70.3056H186.712L201.305 102.049H194.16ZM186.012 83.6759L182.171 92.3191H189.939L186.193 83.6759H186.012ZM205.954 70.9787V102.05H218.701C221.073 102.05 223.071 101.685 224.679 100.933C226.276 100.187 227.492 99.1587 228.304 97.8413L228.304 97.8401C229.11 96.5224 229.509 95.0412 229.509 93.4067C229.509 91.8146 229.18 90.4317 228.502 89.2752C227.836 88.1387 226.971 87.2512 225.906 86.6233C225.206 86.1997 224.481 85.9022 223.732 85.7333C224.364 85.4994 224.956 85.1971 225.507 84.826C226.364 84.2483 227.047 83.4964 227.553 82.5754L227.554 82.5738C228.069 81.6272 228.317 80.505 228.317 79.2224C228.317 77.6571 227.932 76.2441 227.156 74.9946C226.384 73.7363 225.223 72.7577 223.695 72.0508C222.167 71.3291 220.273 70.9787 218.03 70.9787H205.954ZM222.497 90.7558L222.498 90.7578C222.905 91.4122 223.11 92.1487 223.11 92.9778C223.11 94.0697 222.711 94.9468 221.905 95.6402C221.127 96.3081 219.797 96.685 217.821 96.685H212.264V88.5902H217.97C219.065 88.5902 219.985 88.7933 220.743 89.1831L220.747 89.1848C221.512 89.569 222.091 90.093 222.497 90.7558ZM221.405 82.019L221.404 82.0201C221.011 82.5974 220.467 83.0511 219.761 83.3791C219.053 83.698 218.25 83.8615 217.344 83.8615H212.264V76.2843H217.464C219.039 76.2843 220.155 76.6519 220.881 77.3202L220.883 77.3218C221.633 78.0039 222.007 78.8638 222.007 79.9324C222.007 80.7511 221.802 81.441 221.405 82.019ZM251.815 79.9811L251.779 79.6322C251.652 78.4292 251.125 77.5137 250.194 76.8525L250.193 76.8515C249.26 76.1824 248.025 75.8309 246.454 75.8309C245.348 75.8309 244.421 76 243.662 76.324C242.895 76.6515 242.33 77.086 241.945 77.6175C241.561 78.1483 241.363 78.7529 241.354 79.4439C241.354 80.0212 241.482 80.5013 241.724 80.8992C241.987 81.3158 242.345 81.6749 242.803 81.9756C243.279 82.2779 243.81 82.5349 244.396 82.7454C244.994 82.9605 245.597 83.1412 246.205 83.2877L246.209 83.2887L249.048 84.0071C250.213 84.2819 251.334 84.6534 252.41 85.1218C253.507 85.595 254.491 86.1932 255.36 86.9175C256.25 87.6515 256.955 88.5385 257.473 89.5757C257.998 90.6285 258.254 91.8489 258.254 93.2257C258.254 95.0928 257.781 96.7524 256.827 98.1908L256.826 98.1919C255.872 99.6201 254.498 100.728 252.725 101.522L252.724 101.523C250.955 102.31 248.831 102.695 246.365 102.695C243.968 102.695 241.866 102.319 240.071 101.555C238.283 100.79 236.87 99.666 235.848 98.1814L235.847 98.1799C234.832 96.6905 234.292 94.8883 234.211 92.7913L234.195 92.3864H240.364L240.391 92.7476C240.465 93.7516 240.768 94.5612 241.282 95.1984C241.807 95.8497 242.494 96.34 243.352 96.667C244.229 96.9975 245.217 97.166 246.321 97.166C247.476 97.166 248.47 96.992 249.312 96.6549C250.168 96.3063 250.818 95.8343 251.282 95.2477C251.739 94.6607 251.974 93.9771 251.984 93.181C251.974 92.4612 251.767 91.8974 251.384 91.4595L251.382 91.4568C250.976 90.9836 250.394 90.5755 249.616 90.2431L249.611 90.2408C248.826 89.8919 247.9 89.5788 246.83 89.3031L246.829 89.3029L243.381 88.4039C240.843 87.7436 238.807 86.7357 237.298 85.3635L237.296 85.3616C235.765 83.9499 235.01 82.0778 235.01 79.7861C235.01 77.9043 235.514 76.2405 236.532 74.8105L236.533 74.8089C237.554 73.3894 238.937 72.294 240.671 71.5196C242.405 70.7346 244.36 70.3466 246.528 70.3466C248.724 70.3466 250.666 70.7341 252.345 71.5216C254.029 72.2967 255.363 73.383 256.334 74.7837C257.308 76.18 257.808 77.7847 257.839 79.5846L257.846 79.9811H251.815ZM278.44 93.4463L284.857 102.306H290.431L283.27 92.8202L290.149 84.1793H284.576L278.44 92.2729V84.1793H273.864V102.306H278.44V93.4463ZM357.268 102.306L356.037 99.4616H349.102L347.841 102.306H343.783L352.359 83.9444H352.96L361.401 102.306H357.268ZM352.554 91.678L350.333 96.6775H354.826L352.659 91.678H352.554ZM342.908 102.306V99.1447H334.135V94.3858H341.523V91.3305H334.135V87.3103H342.383V84.1445H330.011V102.306H342.908ZM319.572 84.229C321.444 84.229 323.045 84.7499 324.339 85.8218C325.663 86.8636 326.322 88.3162 326.322 90.1544C326.322 92.238 325.134 94.517 322.683 95.639L327.48 102.306H322.793L317.996 94.9277V94.5421C320.865 94.2115 322.27 92.5135 322.27 90.7304C322.27 88.6467 320.921 87.3294 318.796 87.3294H316.315V102.306H312.207V84.229H319.567H319.572ZM296.303 101.575C297.486 102.062 298.774 102.306 300.166 102.306C301.523 102.306 302.784 102.062 303.95 101.575C305.133 101.088 306.16 100.418 307.03 99.5651C307.9 98.6951 308.579 97.6859 309.066 96.5375C309.553 95.3716 309.797 94.1188 309.797 92.779C309.797 91.4217 309.553 90.1689 309.066 89.0205C308.579 87.8547 307.891 86.8454 307.004 85.9928C306.134 85.1228 305.107 84.4529 303.924 83.9831C302.758 83.4958 301.488 83.2522 300.113 83.2522C298.721 83.2522 297.434 83.4958 296.251 83.9831C295.085 84.4529 294.067 85.1228 293.197 85.9928C292.327 86.8454 291.648 87.846 291.161 88.9944C290.674 90.1428 290.43 91.3956 290.43 92.7529C290.43 94.0927 290.674 95.3455 291.161 96.5114C291.648 97.6598 292.336 98.669 293.223 99.539C294.11 100.409 295.137 101.088 296.303 101.575ZM302.985 97.8425C302.167 98.3297 301.21 98.5733 300.113 98.5733C299.296 98.5733 298.547 98.4341 297.869 98.1557C297.19 97.8773 296.607 97.4858 296.12 96.9812C295.65 96.4592 295.285 95.8415 295.024 95.128C294.763 94.4146 294.632 93.6229 294.632 92.7529C294.632 91.5871 294.859 90.5778 295.311 89.7252C295.763 88.8552 296.398 88.1853 297.216 87.7155C298.052 87.2282 299.017 86.9846 300.113 86.9846C300.931 86.9846 301.671 87.1238 302.332 87.4022C303.011 87.6633 303.594 88.0548 304.081 88.5768C304.568 89.0814 304.942 89.6904 305.203 90.4038C305.464 91.0998 305.595 91.8829 305.595 92.7529C305.595 93.9013 305.368 94.9192 304.916 95.8067C304.464 96.6767 303.82 97.3553 302.985 97.8425Z"
    fill="black"
  />
</svg>
