<svg width="468" height="121" viewBox="0 0 468 121" fill="none" xmlns="http://www.w3.org/2000/svg">
<path fill-rule="evenodd" clip-rule="evenodd" d="M4.42211 57.4755C4.006 57.2563 3.5899 57.0256 3.18535 56.7718L3.19691 56.7834L0.758073 55.3067C0.734957 55.2837 0.71184 55.2721 0.688723 55.2606C3.34717 24.5857 29.1341 0.521119 60.5269 0.498047C64.7573 0.498047 68.8837 0.936424 72.8598 1.76703C72.9869 2.9668 73.1025 4.17811 73.1834 5.38941C73.4146 8.70031 73.5071 12.0458 73.4608 15.3798C73.3568 22.0477 72.7211 28.7272 71.3919 35.2567C70.0742 41.7863 68.0861 48.1889 65.3121 54.2339C63.9251 57.2564 62.3416 60.1981 60.55 63.0014C58.7585 65.8047 56.7588 68.4811 54.5743 71.0075C53.1988 72.5995 51.7309 74.1223 50.2168 75.5874L50.0204 75.5417L50.0199 75.5416C49.3901 75.3952 48.7527 75.247 48.1247 75.0798L42.5766 73.534L41.1896 73.1418L39.8257 72.7034L37.0979 71.8151C36.6996 71.6842 36.3012 71.5556 35.9034 71.4271L35.902 71.4267L35.9005 71.4262C34.4753 70.9659 33.0562 70.5076 31.6654 69.9577L26.2907 67.962L21.0201 65.7355C20.6513 65.5736 20.2784 65.4158 19.9049 65.2578C19.4003 65.0443 18.8945 64.8303 18.3963 64.6049L15.8188 63.3706C15.2489 63.0939 14.6764 62.8223 14.104 62.5507L14.103 62.5502C12.9574 62.0067 11.8118 61.4632 10.6868 60.8787L5.67042 58.1562L4.42211 57.4755ZM82.2448 15.8068C81.7015 22.9477 80.5804 30.0541 78.731 36.9989C76.8932 43.9322 74.3272 50.7039 70.9406 57.0489C69.2415 60.2213 67.3459 63.29 65.2307 66.1971C63.1155 69.1042 60.7923 71.8614 58.2841 74.4225C57.4519 75.2761 56.585 76.1068 55.7181 76.9143C55.9955 76.9835 56.2729 77.0412 56.5619 77.0989L59.3937 77.6641C59.9759 77.7746 60.558 77.8918 61.1409 78.009L61.1411 78.009L61.1413 78.0091L61.1415 78.0091L61.1417 78.0092L61.142 78.0092L61.1422 78.0093C62.4451 78.2714 63.7515 78.5342 65.0689 78.7255C69.9581 79.5907 74.882 80.2367 79.8406 80.7328C80.4417 80.3405 81.0427 79.9368 81.6322 79.5215C84.7299 77.3411 87.7582 75.0454 90.5207 72.4613C93.2831 69.9003 95.8491 67.1777 98.103 64.1898C100.322 61.1904 102.264 57.9833 103.824 54.5686C108.17 45.0858 109.349 34.1725 107.847 23.4899C101.305 15.1723 92.6012 8.63127 82.5916 4.69741V5.06657C82.6262 8.66588 82.5106 12.2421 82.2448 15.8183V15.8068ZM25.7931 91.0804C26.0705 90.9664 26.3493 90.8553 26.6286 90.744C27.1406 90.54 27.654 90.3354 28.1626 90.1114L30.4859 89.0501C33.5489 87.5734 36.5541 85.993 39.3975 84.1472C41.2121 82.9705 42.9806 81.7245 44.6912 80.4094L41.0156 79.5903L39.5708 79.2673L38.1376 78.8866L35.2711 78.1252C35.0117 78.0566 34.7523 77.9884 34.493 77.9203L34.4927 77.9202C32.834 77.4841 31.1789 77.0489 29.5496 76.5102L23.8629 74.7336L18.257 72.7148C17.908 72.5858 17.5591 72.46 17.2107 72.3344L17.2097 72.334L17.2089 72.3337C16.6233 72.1226 16.0393 71.9121 15.4599 71.688L12.709 70.5459C12.1223 70.2992 11.5344 70.056 10.9469 69.8129L10.9465 69.8128L10.9462 69.8126L10.9459 69.8125L10.9455 69.8123L10.9452 69.8122L10.9449 69.8121L10.9445 69.8119L10.9442 69.8118L10.9439 69.8117L10.9435 69.8115L10.9432 69.8114L10.9429 69.8112L10.9425 69.8111L10.9422 69.811L10.9419 69.8108L10.9415 69.8107L10.9412 69.8106L10.9409 69.8104L10.9404 69.8102L10.9401 69.8101L10.9398 69.81L10.9396 69.8099L10.9394 69.8098L10.9391 69.8097L10.9389 69.8096L10.9387 69.8095L10.9386 69.8095L10.9385 69.8094L10.9384 69.8094L10.9384 69.8094L10.9383 69.8094L10.9382 69.8093L10.9382 69.8093C9.68816 69.2922 8.43965 68.7756 7.20713 68.2272L1.79777 65.6661L0.665039 65.1239C1.52037 76.4179 5.5196 86.8351 11.7727 95.5104C14.8935 94.7605 17.9796 93.8953 21.0195 92.8801C21.4887 92.7083 21.9598 92.5414 22.4309 92.3746L22.4315 92.3744L22.4322 92.3741L22.433 92.3738L22.4337 92.3736L22.4344 92.3733L22.4352 92.373L22.4359 92.3727L22.436 92.3727C23.5764 91.9688 24.7166 91.565 25.8278 91.092L25.7931 91.0804ZM58.4799 82.8899L55.5441 82.463C54.9511 82.3795 54.3666 82.2707 53.7829 82.1621C53.3994 82.0908 53.0163 82.0195 52.6313 81.9554C51.9486 81.8252 51.2571 81.7036 50.5721 81.5832L50.5715 81.5831L50.5704 81.5829L50.2619 81.5286C47.4069 83.6743 44.4133 85.624 41.3156 87.3544C38.2295 89.1079 34.9931 90.573 31.7336 91.8997L29.2601 92.8456C28.7435 93.0417 28.2176 93.215 27.6913 93.3884L27.6904 93.3887L27.6897 93.3889C27.3805 93.4908 27.0712 93.5927 26.7635 93.6993C25.644 94.0979 24.4979 94.4275 23.354 94.7565L23.3539 94.7565L23.3538 94.7566L23.3536 94.7566L23.3535 94.7567L23.3533 94.7567L23.3532 94.7568L23.353 94.7568L23.3529 94.7569L23.3528 94.7569L23.3526 94.7569L23.3525 94.757L23.3523 94.757L23.3522 94.7571L23.352 94.7571L23.3519 94.7572L23.3518 94.7572C22.8076 94.9137 22.264 95.0701 21.724 95.2336C18.8459 96.0066 15.9448 96.6526 13.032 97.1833C13.5522 97.8639 14.0954 98.5215 14.6502 99.179C15.3322 99.1444 16.0141 99.1098 16.6845 99.0752C18.6032 98.9483 20.5104 98.8099 22.4291 98.6484C23.3563 98.5815 24.2727 98.4822 25.1991 98.3819L25.2956 98.3715C25.4727 98.3545 25.6494 98.3378 25.8258 98.3212C26.6049 98.2478 27.3777 98.175 28.1505 98.0716C43.373 96.3757 58.4106 92.3842 71.8877 85.3471C72.2614 85.1565 72.6291 84.9539 72.9952 84.7523C73.1386 84.6733 73.2818 84.5944 73.425 84.5165C70.3967 84.2973 67.3684 84.0089 64.3516 83.6397C62.9779 83.5107 61.6155 83.314 60.2486 83.1166C59.6603 83.0317 59.0712 82.9466 58.4799 82.8668V82.8899ZM87.4583 85.1395H87.9091L87.9206 85.1625C95.7804 85.2433 103.629 84.9433 111.431 84.2742C112.945 84.1473 114.447 83.9974 115.95 83.8359C106.83 105.374 85.4702 120.498 60.5617 120.498C47.0499 120.498 34.5898 116.057 24.5571 108.546C26.1521 108.408 27.7472 108.258 29.3423 108.062C33.4109 107.601 37.4563 106.839 41.4787 105.985C45.501 105.132 49.4887 104.059 53.407 102.813C55.1687 102.265 56.9118 101.642 58.6529 101.021L58.653 101.021L58.6532 101.021L58.6534 101.021L58.6536 101.021L58.6538 101.02L58.654 101.02L58.6541 101.02L58.6543 101.02L58.6545 101.02L58.6547 101.02L58.6549 101.02L58.6551 101.02L58.6552 101.02L58.6554 101.02L58.6556 101.02L59.2556 100.806C59.6393 100.656 60.0235 100.507 60.4076 100.359L60.4077 100.359L60.4078 100.359L60.4078 100.359L60.4079 100.358L60.408 100.358L60.408 100.358L60.4081 100.358L60.4082 100.358L60.4082 100.358L60.4083 100.358L60.4084 100.358L60.4085 100.358L60.4085 100.358L60.4086 100.358L60.4087 100.358L60.4087 100.358C61.9452 99.764 63.4817 99.1697 64.9886 98.4869C66.4434 97.8797 67.8646 97.1919 69.2829 96.5055L69.2844 96.5048C69.7249 96.2917 70.1651 96.0786 70.606 95.8682C70.9376 95.6933 71.2691 95.5197 71.6003 95.3462L71.6006 95.346C73.1052 94.5577 74.6028 93.7732 76.0616 92.9033C79.6448 90.8268 83.1007 88.5426 86.3833 85.9931C86.7415 85.7164 87.0996 85.4282 87.4577 85.1399L87.4583 85.1395ZM112.1 44.6129C111.591 48.7198 110.609 52.8036 109.176 56.726C107.743 60.6598 105.858 64.4437 103.57 67.9623C101.27 71.4693 98.5882 74.734 95.687 77.7219C94.404 79.0716 93.0517 80.3522 91.6762 81.5865C98.1952 81.9096 104.749 81.9673 111.291 81.7481C113.152 81.6904 115.013 81.5981 116.874 81.4943C119.324 74.9532 120.665 67.8815 120.665 60.4868C120.665 49.0428 117.452 38.3603 111.892 29.2582C112.042 30.2618 112.158 31.2655 112.239 32.2807C112.62 36.353 112.609 40.4945 112.123 44.6014L112.1 44.6129ZM144.665 19.1681V50.0496L144.674 50.0411H151.719V40.0638H156.885C160.265 40.0638 162.994 39.0798 165.105 37.0689C167.216 35.0495 168.297 32.5681 168.297 29.5218C168.297 26.6639 167.268 24.2337 165.243 22.2143C163.226 20.1949 160.308 19.1681 156.55 19.1681H144.665ZM151.667 34.8698V24.3706H155.374C159.27 24.3706 161.295 26.7152 161.295 29.6673C161.295 32.4825 159.605 34.8698 155.331 34.8698H151.667ZM175.386 19.1798H182.388V44.6183H196.719V49.9872H175.386V19.1798ZM222.374 45.1098L224.485 49.9872H231.573L217.097 18.4982H216.067L201.359 49.9872H208.319L210.481 45.1098H222.374ZM212.592 40.3351L216.402 31.7612H216.582L220.298 40.3351H212.592ZM345.694 49.9872L343.583 45.1098H331.69L329.528 49.9872H322.568L337.276 18.4982H338.306L352.782 49.9872H345.694ZM337.611 31.7612L333.801 40.3351H341.507L337.791 31.7612H337.611ZM236.207 49.9868H243.158H243.175V32.2056H243.313L262.766 50.498H263.753V19.1871H256.794V36.4059H256.605C254.485 34.3526 251.242 31.4132 246.968 27.5878C242.686 23.7112 239.443 20.7292 237.237 18.5821H236.207V49.9868ZM292.741 44.6163V49.9833H270.842V19.1466H291.849V24.5221H277.844V31.3482H290.39V36.536H277.844V44.6163H292.741ZM313.522 24.5395H322.541V19.1778H297.45V24.5395H306.52V49.986H313.522V24.5395ZM369.968 19.1681C373.16 19.1681 375.889 20.056 378.095 21.8832C380.351 23.6591 381.475 26.1351 381.475 29.2685C381.475 32.8204 379.45 36.7052 375.271 38.6177L383.449 49.9818H375.46L367.282 37.4053V36.7478C372.174 36.1843 374.568 33.2899 374.568 30.2504C374.568 26.6986 372.268 24.4531 368.647 24.4531H364.416V49.9818H357.414V19.1681H369.96H369.968ZM388.09 50.0709H395.092V19.1466H388.09V50.0709ZM421.832 19.1818H428.783V37.66C428.783 41.4234 427.658 44.4834 425.35 46.8482C423.05 49.1707 419.755 50.332 415.482 50.332C406.695 50.332 402.181 45.4581 402.181 37.7956V19.1818H409.183V37.7532C409.183 41.6099 411.389 44.6698 415.525 44.6698C419.661 44.6698 421.823 41.7455 421.823 37.9821V19.1818H421.832ZM452.461 44.2573H452.471L452.453 44.2658L452.461 44.2573ZM460.914 34.865L452.461 44.2573H451.432L442.783 34.8565C442.74 34.8992 442.688 34.8992 442.645 34.8992V49.9525H435.926V18.5821H436.956L451.947 35.8384L466.887 18.5821H467.874V49.961H461.103V34.9077C461.06 34.865 461.009 34.865 460.914 34.865ZM144.665 71.1847H151.724V96.8287H166.17V102.241H144.665V71.1847ZM192.032 97.3249L194.16 102.242H201.305L186.712 70.4982H185.674L170.848 102.242H177.863L180.043 97.3249H192.032ZM182.171 92.5116L186.012 83.8684H186.193L189.939 92.5116H182.171ZM205.955 102.242V71.171H218.03C220.273 71.171 222.167 71.5214 223.695 72.2431C225.223 72.95 226.384 73.9286 227.156 75.1869C227.932 76.4364 228.317 77.8494 228.317 79.4147C228.317 80.6973 228.069 81.8195 227.554 82.7661L227.553 82.7677C227.047 83.6887 226.364 84.4406 225.507 85.0183C224.956 85.3894 224.364 85.6917 223.732 85.9256C224.481 86.0945 225.206 86.392 225.906 86.8156C226.971 87.4435 227.836 88.331 228.502 89.4675C229.18 90.624 229.51 92.0069 229.51 93.599C229.51 95.2335 229.11 96.7147 228.305 98.0324L228.304 98.0336C227.493 99.351 226.277 100.379 224.679 101.126C223.072 101.877 221.073 102.242 218.701 102.242H205.955ZM222.499 90.9501L222.497 90.9481C222.091 90.2853 221.512 89.7613 220.747 89.3771L220.744 89.3754C219.985 88.9856 219.065 88.7825 217.971 88.7825H212.264V96.8773H217.821C219.797 96.8773 221.127 96.5004 221.905 95.8325C222.711 95.1391 223.111 94.262 223.111 93.1701C223.111 92.341 222.905 91.6045 222.499 90.9501ZM221.405 82.2123L221.405 82.2113C221.802 81.6333 222.008 80.9434 222.008 80.1247C222.008 79.0561 221.633 78.1962 220.883 77.514L220.881 77.5125C220.155 76.8442 219.039 76.4766 217.464 76.4766H212.264V84.0537H217.344C218.25 84.0537 219.053 83.8903 219.761 83.5714C220.467 83.2434 221.011 82.7897 221.405 82.2123ZM251.779 79.8248L251.816 80.1737H257.846L257.839 79.7772C257.808 77.9772 257.309 76.3726 256.334 74.9763C255.363 73.5756 254.029 72.4893 252.346 71.7142C250.667 70.9267 248.724 70.5392 246.528 70.5392C244.36 70.5392 242.405 70.9272 240.671 71.7122C238.937 72.4866 237.554 73.582 236.533 75.0015L236.532 75.0031C235.514 76.4331 235.01 78.0969 235.01 79.9787C235.01 82.2704 235.765 84.1425 237.296 85.5542L237.298 85.5561C238.807 86.9283 240.843 87.9362 243.381 88.5965L246.829 89.4955L246.83 89.4957C247.9 89.7714 248.826 90.0845 249.611 90.4334L249.616 90.4357C250.395 90.7681 250.976 91.1762 251.382 91.6494L251.385 91.6521C251.767 92.09 251.974 92.6538 251.984 93.3736C251.974 94.1697 251.739 94.8533 251.282 95.4403C250.819 96.0269 250.168 96.4989 249.312 96.8475C248.47 97.1846 247.476 97.3586 246.321 97.3586C245.217 97.3586 244.229 97.19 243.352 96.8596C242.494 96.5326 241.808 96.0423 241.282 95.391C240.768 94.7538 240.465 93.9442 240.391 92.9401L240.364 92.579H234.195L234.211 92.9839C234.292 95.0808 234.832 96.8831 235.847 98.3725L235.848 98.374C236.87 99.8585 238.283 100.982 240.071 101.748C241.866 102.512 243.968 102.888 246.365 102.888C248.831 102.888 250.955 102.502 252.724 101.715L252.725 101.715C254.499 100.921 255.872 99.8127 256.827 98.3845L256.827 98.3834C257.781 96.945 258.254 95.2853 258.254 93.4183C258.254 92.0415 257.998 90.8211 257.473 89.7683C256.955 88.7311 256.251 87.8441 255.36 87.1101C254.491 86.3858 253.507 85.7876 252.41 85.3144C251.334 84.846 250.213 84.4745 249.048 84.1997L246.209 83.4813L246.205 83.4803C245.598 83.3338 244.994 83.1531 244.396 82.938C243.81 82.7275 243.279 82.4705 242.803 82.1682C242.345 81.8675 241.988 81.5084 241.724 81.0918C241.483 80.6939 241.354 80.2138 241.354 79.6365C241.363 78.9455 241.561 78.3409 241.946 77.8101C242.33 77.2786 242.895 76.8441 243.662 76.5165C244.421 76.1926 245.348 76.0234 246.454 76.0234C248.025 76.0234 249.26 76.375 250.193 77.0441L250.194 77.0451C251.125 77.7063 251.652 78.6218 251.779 79.8248Z" fill="black"/>
</svg>
