<svg width="121" height="121" viewBox="0 0 121 121" fill="none" xmlns="http://www.w3.org/2000/svg">
<g clip-path="url(#clip0_1785_5947)">
<path fill-rule="evenodd" clip-rule="evenodd" d="M3.11675 56.9476C3.52129 57.2014 3.9374 57.4321 4.3535 57.6513L5.60182 58.332L10.6182 61.0545C11.7432 61.639 12.8887 62.1825 14.0343 62.7259C14.6071 62.9977 15.1799 63.2695 15.7501 63.5463L18.3277 64.7807C18.8257 65.0061 19.3314 65.22 19.8359 65.4334L19.836 65.4334L19.8361 65.4335L19.8363 65.4336L19.8369 65.4338L19.8372 65.434C20.2104 65.5918 20.583 65.7495 20.9515 65.9113L26.2221 68.1378L31.5968 70.1335C32.9875 70.6833 34.4065 71.1416 35.8316 71.6019L35.8319 71.602L35.834 71.6026L35.8361 71.6033C36.2335 71.7317 36.6314 71.8602 37.0293 71.9909L39.7571 72.8792L41.121 73.3175L42.508 73.7098L48.0561 75.2556C48.6828 75.4224 49.3189 75.5704 49.9475 75.7166L49.9489 75.7169L49.9514 75.7174L49.9517 75.7175L50.1481 75.7632C51.6623 74.2981 53.1302 72.7753 54.5057 71.1833C56.6902 68.6569 58.6898 65.9805 60.4814 63.1772C62.273 60.3739 63.8565 57.4321 65.2435 54.4096C68.0175 48.3647 70.0056 41.962 71.3233 35.4325C72.6525 28.903 73.2882 22.2235 73.3922 15.5556C73.4385 12.2216 73.346 8.87609 73.1148 5.56519C73.0339 4.35389 72.9183 3.14258 72.7912 1.94281C68.8151 1.11221 64.6887 0.673828 60.4583 0.673828C29.0655 0.696901 3.27856 24.7615 0.620117 55.4364C0.643234 55.4479 0.666351 55.4594 0.689468 55.4825L3.1283 56.9591L3.11675 56.9476ZM78.6623 37.1745C80.5117 30.2297 81.6329 23.1234 82.1761 15.9824V15.994C82.4419 12.4177 82.5575 8.84151 82.5229 5.24221V4.87305C92.5325 8.80691 101.236 15.348 107.778 23.6656C109.281 34.3481 108.102 45.2614 103.756 54.7442C102.195 58.1589 100.254 61.366 98.0343 64.3654C95.7804 67.3533 93.2144 70.0759 90.452 72.6369C87.6895 75.2211 84.6612 77.5168 81.5635 79.6971C80.974 80.1124 80.373 80.5162 79.7719 80.9084C74.8134 80.4124 69.8894 79.7663 65.0002 78.9011C63.6828 78.7099 62.3764 78.447 61.0735 78.1849C60.4902 78.0676 59.9076 77.9504 59.325 77.8398L56.4932 77.2745C56.2042 77.2168 55.9268 77.1591 55.6494 77.0899C56.5163 76.2824 57.3832 75.4518 58.2154 74.5981C60.7236 72.037 63.0468 69.2799 65.162 66.3728C67.2772 63.4656 69.1728 60.397 70.8719 57.2245C74.2585 50.8796 76.8245 44.1078 78.6623 37.1745ZM26.5602 90.9199C26.281 91.0312 26.0022 91.1423 25.7248 91.2563L25.7595 91.2679C24.6483 91.7408 23.5083 92.1446 22.368 92.5485L22.3676 92.5487L22.3668 92.5489L22.3662 92.5491L22.3657 92.5493L22.3651 92.5496C21.8931 92.7167 21.4211 92.8839 20.9511 93.056C17.9113 94.0712 14.8252 94.9364 11.7044 95.6863C5.45124 87.011 1.45201 76.5938 0.59668 65.2998L1.72941 65.842L7.13877 68.4031C8.37212 68.9519 9.6215 69.4688 10.8724 69.9863L10.876 69.9878C11.4644 70.2312 12.0531 70.4747 12.6406 70.7218L15.3915 71.8639C15.9709 72.088 16.5549 72.2985 17.1405 72.5096L17.1414 72.5099L17.1421 72.5102L17.1428 72.5105L17.1429 72.5105L17.143 72.5105C17.4911 72.636 17.8399 72.7617 18.1887 72.8907L23.7945 74.9095L29.4813 76.6861C31.1104 77.2247 32.7654 77.6599 34.4239 78.0959L34.4243 78.0961L34.4366 78.0993L34.4486 78.1024C34.6999 78.1685 34.9513 78.2346 35.2027 78.3011L38.0692 79.0625L39.5025 79.4432L40.9473 79.7663L44.6229 80.5853C42.9122 81.9005 41.1438 83.1464 39.3291 84.3231C36.4857 86.1689 33.4805 87.7493 30.4175 89.226L28.0943 90.2873C27.5857 90.5113 27.0722 90.7159 26.5602 90.9199ZM55.4759 82.6385L58.4118 83.0654V83.0423C59.003 83.1221 59.5922 83.2072 60.1805 83.2921L60.1806 83.2922C61.5474 83.4895 62.9098 83.6862 64.2835 83.8152C67.3002 84.1844 70.3285 84.4728 73.3569 84.692C73.2144 84.7695 73.072 84.848 72.9293 84.9266L72.9267 84.928C72.5608 85.1296 72.1932 85.332 71.8196 85.5226C58.3424 92.5597 43.3048 96.5512 28.0823 98.2471C27.3095 98.3505 26.5367 98.4233 25.7577 98.4967C25.5813 98.5133 25.4045 98.53 25.2274 98.547L25.131 98.5574C24.2045 98.6578 23.2881 98.757 22.3609 98.8239C20.4422 98.9854 18.535 99.1238 16.6163 99.2507C15.946 99.2853 15.264 99.3199 14.5821 99.3545C14.0272 98.697 13.484 98.0394 12.9639 97.3588C15.8766 96.8281 18.7778 96.1821 21.6558 95.4091C22.1959 95.2456 22.7395 95.0892 23.2836 94.9327L23.2838 94.9327L23.284 94.9326C24.4285 94.6034 25.5752 94.2736 26.6953 93.8748C27.0031 93.7682 27.3124 93.6663 27.6215 93.5644L27.6223 93.5642L27.6231 93.5639C28.1495 93.3905 28.6753 93.2172 29.192 93.0211L31.6655 92.0752C34.925 90.7485 38.1613 89.2834 41.2474 87.5299C44.3451 85.7995 47.3387 83.8498 50.1937 81.7041L50.5023 81.7584C51.1879 81.8789 51.8799 82.0006 52.5632 82.1309C52.9478 82.1949 53.3305 82.2661 53.7137 82.3374L53.7142 82.3375L53.7147 82.3376L53.715 82.3377C54.2986 82.4463 54.883 82.555 55.4759 82.6385ZM87.8412 85.3153H87.3905L87.3899 85.3158C87.0318 85.604 86.6736 85.8923 86.3155 86.169C83.0329 88.7185 79.5769 91.0027 75.9938 93.0792C74.5351 93.9489 73.0376 94.7335 71.5332 95.5217L71.533 95.5217C71.2016 95.6953 70.8699 95.8691 70.5382 96.044C70.0969 96.2547 69.6562 96.468 69.2152 96.6814C67.7968 97.3678 66.3756 98.0555 64.9208 98.6627C63.4137 99.3456 61.8769 99.94 60.3402 100.534L60.3399 100.534C59.9557 100.683 59.5715 100.832 59.1878 100.982L58.5879 101.196C56.8458 101.818 55.1018 102.44 53.3392 102.989C49.4209 104.235 45.4332 105.308 41.4109 106.161C37.3885 107.015 33.343 107.776 29.2745 108.238C27.6794 108.434 26.0843 108.584 24.4893 108.722C34.522 116.232 46.982 120.674 60.4939 120.674C85.4024 120.674 106.762 105.55 115.882 84.0117C114.379 84.1732 112.877 84.3232 111.363 84.4501C103.561 85.1192 95.7125 85.4191 87.8528 85.3384L87.8412 85.3153ZM109.108 56.9014C110.541 52.9791 111.524 48.8952 112.032 44.7883L112.055 44.7768C112.541 40.6699 112.552 36.5284 112.171 32.4561C112.09 31.4409 111.974 30.4372 111.824 29.4336C117.384 38.5357 120.597 49.2182 120.597 60.6622C120.597 68.0569 119.256 75.1286 116.806 81.6697C114.945 81.7735 113.084 81.8658 111.223 81.9235C104.681 82.1427 98.1274 82.085 91.6084 81.762C92.9839 80.5276 94.3362 79.2471 95.6192 77.8973C98.5204 74.9094 101.202 71.6447 103.502 68.1377C105.791 64.6191 107.675 60.8352 109.108 56.9014Z" fill="black"/>
</g>
<defs>
<clipPath id="clip0_1785_5947">
<rect width="121" height="121" fill="white"/>
</clipPath>
</defs>
</svg>
