<svg
  width="291"
  height="162"
  viewBox="0 0 291 162"
  fill="none"
  xmlns="http://www.w3.org/2000/svg"
>
  <g clip-path="url(#clip0_1754_3518)">
    <path
      d="M166.593 15.8252C166.05 22.9662 164.929 30.0725 163.08 37.0173C161.242 43.9506 158.676 50.7224 155.289 57.0673C153.59 60.2398 151.694 63.3084 149.579 66.2155C147.464 69.1227 145.141 71.8798 142.633 74.4409C141.8 75.2945 140.934 76.1252 140.067 76.9327C140.344 77.0019 140.621 77.0596 140.91 77.1173L143.742 77.6826C145.626 78.0402 147.51 78.467 149.417 78.7439C154.307 79.6091 159.231 80.2551 164.189 80.7512C164.79 80.359 165.391 79.9552 165.981 79.5399C169.078 77.3595 172.107 75.0638 174.869 72.4797C177.632 69.9187 180.198 67.1961 182.452 64.2082C184.671 61.2088 186.613 58.0017 188.173 54.587C192.519 45.1042 193.698 34.1909 192.195 23.5084C185.653 15.1907 176.95 8.64968 166.94 4.71582C166.94 4.84272 166.94 4.95808 166.94 5.08498C166.975 8.68429 166.859 12.2605 166.593 15.8368V15.8252Z"
      fill="#00A99D"
    />
    <path
      d="M110.142 91.0991C110.928 90.7761 111.725 90.4762 112.511 90.1301L114.834 89.0687C117.897 87.5921 120.903 86.0116 123.746 84.1658C125.561 82.9891 127.329 81.7432 129.04 80.4281L125.364 79.609L123.919 79.286L122.486 78.9053L119.62 78.1439C117.701 77.6363 115.782 77.1518 113.898 76.5288L108.211 74.7523L102.606 72.7334C101.669 72.3873 100.733 72.0643 99.8084 71.7067L97.0575 70.5646C95.2197 69.7917 93.3703 69.0534 91.5556 68.2458L86.1463 65.6848L85.0135 65.1426C85.8689 76.4366 89.8681 86.8538 96.1212 95.529C99.242 94.7792 102.328 93.914 105.368 92.8988C106.975 92.3104 108.604 91.7798 110.176 91.1107L110.142 91.0991Z"
      fill="#00D1C2"
    />
    <path
      d="M87.534 56.7904C87.9386 57.0442 88.3547 57.2749 88.7708 57.4941L90.0191 58.1747L95.0355 60.8973C96.723 61.774 98.4568 62.5585 100.167 63.3891L102.745 64.6235C103.612 65.0157 104.502 65.3733 105.369 65.754L110.639 67.9805L116.014 69.9763C117.794 70.68 119.62 71.2338 121.447 71.8336L124.174 72.7219L125.538 73.1603L126.925 73.5525L132.473 75.0984C133.167 75.283 133.872 75.4445 134.565 75.606C136.08 74.1409 137.548 72.6181 138.923 71.0261C141.108 68.4997 143.107 65.8233 144.899 63.02C146.69 60.2166 148.274 57.2749 149.661 54.2524C152.435 48.2074 154.423 41.8048 155.741 35.2753C157.07 28.7458 157.705 22.0663 157.81 15.3984C157.856 12.0644 157.763 8.71887 157.532 5.40797C157.451 4.19666 157.336 2.98536 157.208 1.78559C153.232 0.954979 149.106 0.516602 144.876 0.516602C113.483 0.539674 87.6959 24.6043 85.0374 55.2791C85.0605 55.2907 85.0836 55.3022 85.1068 55.3253L87.5456 56.8019L87.534 56.7904Z"
      fill="#00D1C2"
    />
    <path
      d="M142.828 82.9082L139.893 82.4813C138.91 82.3429 137.951 82.1352 136.98 81.9737C136.194 81.8237 135.396 81.6853 134.61 81.5469C131.755 83.6926 128.762 85.6422 125.664 87.3727C122.578 89.1262 119.342 90.5913 116.082 91.918L113.609 92.8639C112.788 93.1754 111.944 93.4292 111.112 93.7176C109.459 94.306 107.748 94.7443 106.073 95.2519C103.194 96.0249 100.293 96.6709 97.3806 97.2016C97.9007 97.8822 98.4439 98.5398 98.9987 99.1973C99.6807 99.1627 100.363 99.1281 101.033 99.0935C102.952 98.9666 104.859 98.8282 106.778 98.6667C107.737 98.5974 108.685 98.4936 109.644 98.3898C110.603 98.2975 111.551 98.2167 112.499 98.0898C127.722 96.394 142.759 92.4025 156.236 85.3654C156.756 85.1 157.265 84.8116 157.774 84.5348C154.745 84.3156 151.717 84.0272 148.7 83.658C146.735 83.4734 144.793 83.1504 142.828 82.8851V82.9082Z"
      fill="#00A99D"
    />
    <path
      d="M172.258 85.1581C172.107 85.1581 171.957 85.1581 171.807 85.1581C171.449 85.4465 171.09 85.7349 170.732 86.0118C167.449 88.5613 163.993 90.8455 160.41 92.922C158.63 93.9833 156.793 94.9177 154.955 95.8868C153.094 96.7751 151.244 97.7095 149.337 98.5055C147.453 99.3592 145.523 100.074 143.604 100.824C141.662 101.516 139.721 102.22 137.756 102.832C133.837 104.078 129.85 105.15 125.827 106.004C121.805 106.858 117.76 107.619 113.691 108.081C112.096 108.277 110.501 108.427 108.906 108.565C118.939 116.075 131.399 120.517 144.91 120.517C169.819 120.517 191.179 105.393 200.299 83.8545C198.796 84.016 197.293 84.166 195.779 84.2929C187.977 84.962 180.129 85.2619 172.269 85.1812L172.258 85.1581Z"
      fill="#007A8F"
    />
    <path
      d="M196.449 44.6311C195.94 48.738 194.958 52.8218 193.524 56.7442C192.091 60.678 190.207 64.4619 187.918 67.9805C185.618 71.4875 182.937 74.7522 180.036 77.7401C178.753 79.0899 177.4 80.3704 176.025 81.6048C182.544 81.9278 189.097 81.9855 195.639 81.7663C197.5 81.7086 199.361 81.6163 201.222 81.5125C203.673 74.9714 205.013 67.8997 205.013 60.505C205.013 49.061 201.8 38.3785 196.241 29.2764C196.391 30.28 196.506 31.2837 196.587 32.2989C196.969 36.3712 196.957 40.5127 196.472 44.6196L196.449 44.6311Z"
      fill="#007A8F"
    />
  </g>
  <path
    d="M19.3448 141.945H23.7509V157.952H32.7682V161.331H19.3448V141.945Z"
    fill="currentColor"
  />
  <path
    d="M50.2402 161.331L48.9119 158.262H41.428L40.0673 161.331H35.6882L44.9432 141.517H45.5911L54.7003 161.331H50.2348H50.2402ZM45.1538 149.862L42.7563 155.257H47.6052L45.2671 149.862H45.1484H45.1538Z"
    fill="currentColor"
  />
  <path
    d="M0.0135498 161.371V141.938H7.49202C9.85705 141.938 11.6929 142.585 12.9618 143.855C14.2361 145.126 14.8841 146.655 14.8841 148.454C14.8841 150.37 14.2037 151.932 12.8754 153.203C11.5471 154.468 9.83005 155.087 7.7026 155.087H4.45203V161.365H0.0189547L0.0135498 161.371ZM4.41964 145.212V151.819H6.72527C9.41428 151.819 10.478 150.317 10.478 148.545C10.478 146.687 9.2037 145.212 6.75227 145.212H4.41424H4.41964Z"
    fill="currentColor"
  />
  <path
    d="M218.42 141.945H222.826V157.952H231.843V161.331H218.42V141.945Z"
    fill="currentColor"
  />
  <path
    d="M249.315 161.331L247.987 158.262H240.503L239.142 161.331H234.763L244.018 141.517H244.666L253.775 161.331H249.31H249.315ZM244.229 149.862L241.831 155.257H246.68L244.342 149.862H244.223H244.229Z"
    fill="currentColor"
  />
  <path
    d="M126.51 161.331L125.181 158.262H117.698L116.337 161.331H111.958L121.213 141.517H121.861L130.97 161.331H126.504H126.51ZM121.423 149.862L119.026 155.257H123.875L121.537 149.862H121.418H121.423Z"
    fill="currentColor"
  />
  <path
    d="M61.9898 161.331H57.6161V141.569H58.264C59.6517 142.92 61.6928 144.797 64.3872 147.236C67.0762 149.643 69.1173 151.493 70.451 152.785H70.5698V141.95H74.9488V161.652H74.3279L62.087 150.142H62.0006V161.331H61.9898Z"
    fill="currentColor"
  />
  <path
    d="M93.1895 157.946V161.329H79.4097V141.925H92.6279V145.307H83.8158V149.603H91.71V152.867H83.8158V157.952H93.1895V157.946Z"
    fill="currentColor"
  />
  <path
    d="M111.958 145.318H106.283V161.33H101.877V145.318H96.1694V141.944H111.958V145.318Z"
    fill="currentColor"
  />
  <path
    d="M141.784 141.938C143.793 141.938 145.51 142.497 146.897 143.647C148.318 144.764 149.025 146.322 149.025 148.294C149.025 150.529 147.751 152.974 145.121 154.177L150.267 161.328H145.24L140.094 153.414V153C143.172 152.646 144.678 150.825 144.678 148.912C144.678 146.677 143.231 145.264 140.952 145.264H138.29V161.328H133.884V141.938H141.779H141.784Z"
    fill="currentColor"
  />
  <path
    d="M157.752 161.384H153.346V141.925H157.752V161.384Z"
    fill="currentColor"
  />
  <path
    d="M174.578 141.947H178.951V153.575C178.951 155.943 178.244 157.868 176.791 159.356C175.344 160.818 173.271 161.548 170.582 161.548C165.053 161.548 162.212 158.482 162.212 153.66V141.947H166.618V153.633C166.618 156.06 168.006 157.986 170.609 157.986C173.211 157.986 174.572 156.145 174.572 153.777V141.947H174.578Z"
    fill="currentColor"
  />
  <path
    d="M256.799 161.089V161.21H256.92H264.633C266.103 161.21 267.331 160.984 268.314 160.525C269.293 160.067 270.032 159.44 270.524 158.641L270.524 158.641C271.014 157.839 271.259 156.936 271.259 155.937C271.259 154.96 271.057 154.119 270.646 153.42C270.24 152.726 269.714 152.188 269.069 151.807C268.489 151.456 267.883 151.248 267.252 151.186C267.822 151.032 268.343 150.797 268.814 150.48C269.333 150.13 269.746 149.676 270.053 149.117L270.053 149.117C270.362 148.548 270.514 147.868 270.514 147.083C270.514 146.127 270.279 145.267 269.808 144.508C269.34 143.746 268.635 143.15 267.699 142.717C266.767 142.276 265.603 142.059 264.215 142.059H256.92H256.799V142.181V161.089ZM267.107 154.219L267.107 154.219C267.374 154.648 267.508 155.13 267.508 155.669C267.508 156.385 267.243 156.967 266.713 157.423C266.194 157.869 265.327 158.105 264.085 158.105H260.494V152.809H264.178C264.876 152.809 265.47 152.938 265.964 153.192L265.965 153.193C266.461 153.442 266.841 153.784 267.107 154.219ZM266.422 148.898L266.422 148.898C266.162 149.278 265.805 149.575 265.346 149.788C264.886 149.996 264.367 150.1 263.787 150.1H260.494V145.127H263.861C264.862 145.127 265.593 145.361 266.077 145.806L266.077 145.807C266.572 146.257 266.819 146.827 266.819 147.526C266.819 148.059 266.685 148.514 266.422 148.898Z"
    fill="currentColor"
    stroke="black"
    stroke-width="0.243327"
  />
  <path
    d="M285.402 147.326L285.413 147.435H285.523H288.82H288.944L288.942 147.311C288.923 146.21 288.618 145.233 288.024 144.382C287.432 143.527 286.617 142.862 285.583 142.387C284.554 141.904 283.36 141.664 282.003 141.664C280.665 141.664 279.462 141.904 278.397 142.386C277.332 142.861 276.487 143.532 275.863 144.399L275.863 144.4C275.243 145.27 274.935 146.283 274.935 147.435C274.935 148.836 275.396 149.971 276.323 150.826L276.324 150.826C277.247 151.666 278.498 152.288 280.07 152.696C280.07 152.696 280.07 152.697 280.07 152.697L282.222 153.258L282.222 153.258C282.895 153.431 283.479 153.629 283.977 153.85L283.978 153.85C284.477 154.063 284.857 154.328 285.125 154.641L285.126 154.642C285.387 154.94 285.524 155.322 285.53 155.796C285.524 156.319 285.369 156.772 285.067 157.161C284.762 157.547 284.337 157.853 283.787 158.077C283.244 158.295 282.607 158.405 281.874 158.405C281.172 158.405 280.54 158.298 279.977 158.086C279.423 157.875 278.976 157.556 278.634 157.132C278.295 156.712 278.099 156.181 278.051 155.535L278.043 155.422H277.93H274.558H274.431L274.436 155.548C274.486 156.839 274.818 157.94 275.436 158.848L275.437 158.848C276.061 159.754 276.923 160.442 278.02 160.911L278.02 160.911C279.123 161.381 280.417 161.613 281.902 161.613C283.429 161.613 284.737 161.374 285.822 160.892L285.822 160.892C286.911 160.404 287.749 159.726 288.33 158.856L288.331 158.856C288.912 157.98 289.201 156.968 289.201 155.824C289.201 154.98 289.044 154.237 288.726 153.6C288.411 152.968 287.981 152.427 287.439 151.98C286.906 151.536 286.301 151.168 285.626 150.877C284.961 150.588 284.268 150.358 283.547 150.188L281.774 149.739L281.774 149.739L281.773 149.739C281.389 149.646 281.009 149.532 280.631 149.397C280.257 149.262 279.918 149.098 279.612 148.904C279.312 148.707 279.076 148.47 278.901 148.194C278.736 147.923 278.652 147.6 278.652 147.221C278.658 146.765 278.789 146.363 279.044 146.01C279.3 145.657 279.672 145.373 280.167 145.162C280.659 144.952 281.255 144.844 281.957 144.844C282.955 144.844 283.754 145.068 284.362 145.504L284.362 145.505C284.973 145.939 285.319 146.542 285.402 147.326Z"
    fill="currentColor"
    stroke="black"
    stroke-width="0.243327"
  />
  <path
    d="M193.84 157.745H193.187L187.744 151.829C187.717 151.856 187.684 151.856 187.657 151.856V161.329H183.429V141.589H184.077L193.511 152.447L202.911 141.589H203.532V161.334H199.272V151.862C199.245 151.835 199.212 151.835 199.153 151.835L193.829 157.75L193.84 157.745Z"
    fill="currentColor"
  />
  <defs>
    <clipPath id="clip0_1754_3518">
      <rect
        width="120"
        height="120"
        fill="white"
        transform="translate(85.0135 0.516602)"
      />
    </clipPath>
  </defs>
</svg>
