<svg width="468" height="121" viewBox="0 0 468 121" fill="none" xmlns="http://www.w3.org/2000/svg">
<path fill-rule="evenodd" clip-rule="evenodd" d="M3.18535 56.9476C3.5899 57.2014 4.006 57.4321 4.42211 57.6513L5.67042 58.332L10.6868 61.0545C11.8118 61.639 12.9574 62.1825 14.103 62.726L14.104 62.7265C14.6764 62.9981 15.2489 63.2696 15.8188 63.5463L18.3963 64.7807C18.8945 65.0061 19.4003 65.2201 19.9049 65.4336C20.2784 65.5916 20.6513 65.7493 21.0201 65.9113L26.2907 68.1378L31.6654 70.1335C33.0562 70.6834 34.4753 71.1417 35.9005 71.602L35.902 71.6024L35.9034 71.6029C36.3012 71.7314 36.6996 71.86 37.0979 71.9909L39.8257 72.8792L41.1896 73.3175L42.5766 73.7098L48.1247 75.2556C48.7527 75.4228 49.3901 75.571 50.0199 75.7174L50.0204 75.7175L50.2168 75.7632C51.7309 74.2981 53.1988 72.7753 54.5743 71.1833C56.7588 68.6569 58.7585 65.9805 60.55 63.1772C62.3416 60.3739 63.9251 57.4321 65.3121 54.4096C68.0861 48.3646 70.0742 41.962 71.3919 35.4325C72.7211 28.903 73.3568 22.2235 73.4608 15.5556C73.5071 12.2216 73.4146 8.8761 73.1834 5.56519C73.1025 4.35389 72.9869 3.14258 72.8598 1.94281C68.8837 1.11221 64.7573 0.673828 60.5269 0.673828C29.1341 0.696901 3.34717 24.7615 0.688723 55.4364C0.71184 55.4479 0.734957 55.4594 0.758073 55.4825L3.19691 56.9591L3.18535 56.9476ZM78.731 37.1747C80.5804 30.2299 81.7015 23.1235 82.2448 15.9826V15.9941C82.5106 12.4179 82.6262 8.84166 82.5916 5.24235V4.87319C92.6012 8.80705 101.305 15.3481 107.847 23.6657C109.349 34.3483 108.17 45.2616 103.824 54.7444C102.264 58.1591 100.322 61.3662 98.103 64.3656C95.8491 67.3535 93.2831 70.076 90.5207 72.6371C87.7582 75.2212 84.7299 77.5169 81.6322 79.6973C81.0427 80.1126 80.4417 80.5163 79.8406 80.9086C74.882 80.4125 69.9581 79.7665 65.0689 78.9013C63.7515 78.71 62.4451 78.4472 61.1422 78.1851L61.142 78.185L61.1417 78.185L61.1415 78.1849L61.1413 78.1849L61.1411 78.1848L61.1409 78.1848C60.558 78.0675 59.9759 77.9504 59.3937 77.8399L56.5619 77.2746C56.2729 77.217 55.9955 77.1593 55.7181 77.0901C56.585 76.2825 57.4519 75.4519 58.2841 74.5982C60.7923 72.0372 63.1155 69.28 65.2307 66.3729C67.3459 63.4658 69.2415 60.3971 70.9406 57.2247C74.3272 50.8797 76.8932 44.1079 78.731 37.1747ZM26.6286 90.9198C26.3493 91.0311 26.0705 91.1422 25.7931 91.2562L25.8278 91.2678C24.7166 91.7408 23.5764 92.1446 22.436 92.5485L22.4359 92.5485L22.4352 92.5488L22.4344 92.5491L22.4337 92.5494L22.433 92.5496L22.4322 92.5499L22.4315 92.5502L22.4309 92.5504C21.9598 92.7172 21.4887 92.8841 21.0195 93.0559C17.9796 94.0711 14.8935 94.9363 11.7727 95.6861C5.5196 87.0109 1.52037 76.5937 0.665039 65.2997L1.79777 65.8419L7.20713 68.4029C8.43965 68.9514 9.68816 69.4679 10.9382 69.9851L10.9382 69.9851L10.9383 69.9851L10.9384 69.9852L10.9384 69.9852L10.9385 69.9852L10.9386 69.9853L10.9387 69.9853L10.9389 69.9854L10.9391 69.9855L10.9394 69.9856L10.9396 69.9856L10.9398 69.9857L10.9401 69.9859L10.9404 69.986L10.9409 69.9862L10.9412 69.9863L10.9415 69.9865L10.9419 69.9866L10.9422 69.9867L10.9425 69.9869L10.9429 69.987L10.9432 69.9872L10.9435 69.9873L10.9439 69.9874L10.9442 69.9876L10.9445 69.9877L10.9449 69.9878L10.9452 69.988L10.9455 69.9881L10.9459 69.9883L10.9462 69.9884L10.9465 69.9885L10.9469 69.9887L10.9472 69.9888L10.9475 69.9889L10.9478 69.9891L10.9482 69.9892L10.9485 69.9894C11.5355 70.2322 12.1228 70.4752 12.709 70.7217L15.4599 71.8638C16.0393 72.0879 16.6233 72.2984 17.2089 72.5095L17.2097 72.5098L17.2107 72.5102C17.5591 72.6357 17.908 72.7615 18.257 72.8905L23.8629 74.9094L29.5496 76.686C31.1789 77.2247 32.834 77.6598 34.4927 78.0959L34.493 78.096C34.7523 78.1642 35.0117 78.2324 35.2711 78.301L38.1376 79.0624L39.5708 79.4431L41.0156 79.7661L44.6912 80.5852C42.9806 81.9003 41.2121 83.1462 39.3975 84.3229C36.5541 86.1687 33.5489 87.7492 30.4859 89.2258L28.1626 90.2872C27.654 90.5111 27.1406 90.7158 26.6286 90.9198ZM55.5441 82.6388L58.4799 83.0657V83.0426C59.0712 83.1224 59.6603 83.2075 60.2486 83.2924C61.6155 83.4898 62.9779 83.6865 64.3516 83.8155C67.3684 84.1847 70.3967 84.4731 73.425 84.6923C73.2818 84.7702 73.1386 84.8491 72.9952 84.9281C72.6291 85.1297 72.2614 85.3322 71.8877 85.5229C58.4106 92.56 43.373 96.5515 28.1505 98.2473C27.3777 98.3508 26.6049 98.4236 25.8258 98.497C25.6494 98.5136 25.4727 98.5302 25.2956 98.5473L25.1991 98.5577C24.2727 98.658 23.3563 98.7572 22.4291 98.8241C20.5104 98.9856 18.6032 99.1241 16.6845 99.251C16.0141 99.2856 15.3322 99.3202 14.6502 99.3548C14.0954 98.6972 13.5522 98.0397 13.032 97.359C15.9448 96.8284 18.8459 96.1824 21.724 95.4094C22.264 95.2459 22.8076 95.0895 23.3518 94.933L23.3519 94.933L23.352 94.9329L23.3522 94.9329L23.3523 94.9328L23.3525 94.9328L23.3526 94.9327L23.3528 94.9327L23.3529 94.9326L23.353 94.9326L23.3532 94.9325L23.3533 94.9325L23.3535 94.9324L23.3536 94.9324L23.3538 94.9324L23.3539 94.9323L23.354 94.9323C24.4979 94.6033 25.644 94.2736 26.7635 93.8751C27.0712 93.7685 27.3805 93.6665 27.6897 93.5647L27.6904 93.5645L27.6913 93.5642C28.2176 93.3908 28.7435 93.2175 29.2601 93.0214L31.7336 92.0754C34.9931 90.7488 38.2295 89.2837 41.3156 87.5302C44.4133 85.7997 47.4069 83.8501 50.2619 81.7044L50.5704 81.7586L50.5715 81.7589L50.5721 81.7589C51.2571 81.8794 51.9486 82.0009 52.6313 82.1312C53.0163 82.1952 53.3994 82.2665 53.7829 82.3379C54.3666 82.4465 54.9511 82.5553 55.5441 82.6388ZM87.9091 85.3152H87.4583L87.4577 85.3157C87.0996 85.6039 86.7415 85.8922 86.3833 86.1689C83.1007 88.7184 79.6448 91.0026 76.0616 93.0791C74.6028 93.9489 73.1052 94.7335 71.6006 95.5218L71.6003 95.5219C71.2691 95.6954 70.9376 95.8691 70.606 96.0439C70.1651 96.2544 69.7249 96.4674 69.2844 96.6806L69.2829 96.6813C67.8646 97.3677 66.4434 98.0555 64.9886 98.6627C63.4818 99.3455 61.9454 99.9397 60.4091 100.534L60.409 100.534L60.4089 100.534L60.4089 100.534L60.4088 100.534L60.4087 100.534L60.4087 100.534L60.4086 100.534L60.4085 100.534L60.4085 100.534L60.4084 100.534L60.4083 100.534L60.4082 100.534L60.4082 100.534L60.4081 100.534L60.408 100.534L60.408 100.534L60.4079 100.534L60.4078 100.534L60.4078 100.534L60.4077 100.534L60.4076 100.534C60.0235 100.683 59.6393 100.831 59.2556 100.981L58.6556 101.196L58.6554 101.196L58.6552 101.196L58.6551 101.196L58.6549 101.196L58.6547 101.196L58.6545 101.196L58.6543 101.196L58.6541 101.196L58.654 101.196L58.6538 101.196L58.6536 101.196L58.6534 101.196L58.6532 101.196L58.653 101.197L58.6529 101.197C56.9118 101.818 55.1687 102.441 53.407 102.989C49.4887 104.235 45.501 105.308 41.4787 106.161C37.4563 107.015 33.4109 107.776 29.3423 108.238C27.7472 108.434 26.1521 108.584 24.5571 108.722C34.5898 116.232 47.0499 120.674 60.5617 120.674C85.4702 120.674 106.83 105.55 115.95 84.0116C114.447 84.1731 112.945 84.3231 111.431 84.45C103.629 85.1191 95.7804 85.4191 87.9206 85.3383L87.9091 85.3152ZM109.176 56.9017C110.609 52.9794 111.591 48.8956 112.1 44.7887L112.123 44.7771C112.609 40.6703 112.62 36.5287 112.239 32.4564C112.158 31.4413 112.042 30.4376 111.892 29.434C117.452 38.536 120.665 49.2186 120.665 60.6626C120.665 68.0573 119.324 75.129 116.874 81.67C115.013 81.7739 113.152 81.8662 111.291 81.9238C104.749 82.143 98.1952 82.0853 91.6762 81.7623C93.0517 80.528 94.404 79.2474 95.687 77.8977C98.5882 74.9098 101.27 71.6451 103.57 68.138C105.858 64.6195 107.743 60.8356 109.176 56.9017ZM144.665 50.2254V19.3439H156.55C160.308 19.3439 163.226 20.3707 165.243 22.3901C167.268 24.4095 168.297 26.8396 168.297 29.6976C168.297 32.7438 167.216 35.2253 165.105 37.2447C162.994 39.2556 160.265 40.2396 156.885 40.2396H151.719V50.2168H144.674L144.665 50.2254ZM151.667 24.5464V35.0456H155.331C159.605 35.0456 161.295 32.6583 161.295 29.8431C161.295 26.891 159.27 24.5464 155.374 24.5464H151.667ZM182.388 19.3556H175.386V50.163H196.719V44.794H182.388V19.3556ZM224.485 50.163L222.374 45.2856H210.481L208.319 50.163H201.359L216.067 18.6739H217.097L231.573 50.163H224.485ZM216.402 31.937L212.592 40.5109H220.298L216.582 31.937H216.402ZM343.583 45.2856L345.694 50.163H352.782L338.306 18.6739H337.276L322.568 50.163H329.528L331.69 45.2856H343.583ZM333.801 40.5109L337.611 31.937H337.791L341.507 40.5109H333.801ZM243.158 50.1626H236.207V18.7579H237.237C239.443 20.905 242.686 23.887 246.968 27.7636C251.242 31.589 254.485 34.5284 256.605 36.5817H256.794V19.3628H263.753V50.6738H262.766L243.313 32.3814H243.175V50.1626H243.158ZM292.741 50.1591V44.7921H277.844V36.7118H290.39V31.524H277.844V24.6979H291.849V19.3224H270.842V50.1591H292.741ZM322.541 24.7153H313.522V50.1618H306.52V24.7153H297.45V19.3536H322.541V24.7153ZM378.095 22.059C375.889 20.2318 373.16 19.3439 369.968 19.3439H369.96H357.414V50.1575H364.416V24.6289H368.647C372.268 24.6289 374.568 26.8744 374.568 30.4262C374.568 33.4657 372.174 36.3601 367.282 36.9236V37.581L375.46 50.1575H383.449L375.271 38.7934C379.45 36.8809 381.475 32.9961 381.475 29.4443C381.475 26.3109 380.351 23.8349 378.095 22.059ZM395.092 50.2467H388.09V19.3224H395.092V50.2467ZM428.783 19.3575H421.832H421.823V38.1579C421.823 41.9213 419.661 44.8456 415.525 44.8456C411.389 44.8456 409.183 41.7857 409.183 37.929V19.3575H402.181V37.9714C402.181 45.6339 406.695 50.5078 415.482 50.5078C419.755 50.5078 423.05 49.3465 425.35 47.024C427.658 44.6591 428.783 41.5992 428.783 37.8358V19.3575ZM452.471 44.4331H452.461L460.914 35.0408C461.009 35.0408 461.06 35.0408 461.103 35.0835V50.1368H467.874V18.7579H466.887L451.947 36.0142L436.956 18.7579H435.926V50.1282H442.645V35.0749C442.688 35.0749 442.74 35.0749 442.783 35.0322L451.432 44.4331H452.461L452.453 44.4416L452.471 44.4331ZM151.724 71.3605H144.665V102.417H166.17V97.0045H151.724V71.3605ZM194.16 102.417L192.032 97.5007H180.043L177.863 102.417H170.848L185.674 70.6739H186.712L201.305 102.417H194.16ZM186.012 84.0442L182.171 92.6874H189.939L186.193 84.0442H186.012ZM205.955 71.3468V102.418H218.701C221.073 102.418 223.072 102.053 224.679 101.301C226.277 100.555 227.493 99.5267 228.304 98.2094L228.305 98.2082C229.11 96.8905 229.51 95.4092 229.51 93.7748C229.51 92.1827 229.18 90.7998 228.502 89.6433C227.836 88.5068 226.971 87.6193 225.906 86.9914C225.206 86.5678 224.481 86.2703 223.732 86.1014C224.364 85.8674 224.956 85.5651 225.507 85.1941C226.364 84.6163 227.047 83.8644 227.553 82.9435L227.554 82.9419C228.069 81.9953 228.317 80.8731 228.317 79.5905C228.317 78.0251 227.932 76.6121 227.156 75.3627C226.384 74.1043 225.223 73.1257 223.695 72.4189C222.167 71.6972 220.273 71.3468 218.03 71.3468H205.955ZM222.497 91.1239L222.499 91.1259C222.905 91.7803 223.111 92.5168 223.111 93.3459C223.111 94.4378 222.711 95.3149 221.905 96.0083C221.127 96.6762 219.797 97.0531 217.821 97.0531H212.264V88.9583H217.971C219.065 88.9583 219.985 89.1613 220.744 89.5512L220.747 89.5528C221.512 89.937 222.091 90.461 222.497 91.1239ZM221.405 82.387L221.405 82.3881C221.011 82.9655 220.467 83.4192 219.761 83.7472C219.053 84.0661 218.25 84.2295 217.344 84.2295H212.264V76.6524H217.464C219.039 76.6524 220.155 77.0199 220.881 77.6883L220.883 77.6898C221.633 78.3719 222.008 79.2319 222.008 80.3005C222.008 81.1192 221.802 81.8091 221.405 82.387ZM251.816 80.3495L251.779 80.0006C251.652 78.7976 251.125 77.882 250.194 77.2209L250.193 77.2199C249.26 76.5508 248.025 76.1992 246.454 76.1992C245.348 76.1992 244.421 76.3684 243.662 76.6923C242.895 77.0198 242.33 77.4544 241.946 77.9859C241.561 78.5167 241.363 79.1213 241.354 79.8123C241.354 80.3895 241.483 80.8697 241.724 81.2676C241.988 81.6842 242.345 82.0433 242.803 82.344C243.279 82.6463 243.81 82.9032 244.396 83.1138C244.994 83.3289 245.598 83.5096 246.205 83.6561L246.209 83.6571L249.048 84.3755C250.213 84.6503 251.334 85.0218 252.41 85.4902C253.507 85.9634 254.491 86.5616 255.36 87.2859C256.251 88.0198 256.955 88.9069 257.473 89.9441C257.998 90.9968 258.254 92.2173 258.254 93.5941C258.254 95.4611 257.781 97.1208 256.827 98.5592L256.827 98.5603C255.872 99.9885 254.499 101.096 252.725 101.891L252.724 101.891C250.955 102.678 248.831 103.064 246.365 103.064C243.968 103.064 241.866 102.688 240.071 101.924C238.283 101.158 236.87 100.034 235.848 98.5498L235.847 98.5483C234.832 97.0589 234.292 95.2566 234.211 93.1597L234.195 92.7548H240.364L240.391 93.1159C240.465 94.1199 240.768 94.9296 241.282 95.5668C241.808 96.2181 242.494 96.7084 243.352 97.0354C244.229 97.3658 245.217 97.5344 246.321 97.5344C247.476 97.5344 248.47 97.3604 249.312 97.0233C250.168 96.6747 250.819 96.2027 251.282 95.616C251.739 95.0291 251.974 94.3455 251.984 93.5494C251.974 92.8296 251.767 92.2657 251.385 91.8279L251.382 91.8251C250.976 91.352 250.395 90.9438 249.616 90.6114L249.611 90.6092C248.826 90.2603 247.9 89.9471 246.83 89.6715L246.829 89.6712L243.381 88.7723C240.843 88.112 238.807 87.104 237.298 85.7319L237.296 85.73C235.765 84.3183 235.01 82.4462 235.01 80.1544C235.01 78.2727 235.514 76.6089 236.532 75.1788L236.533 75.1773C237.554 73.7578 238.937 72.6623 240.671 71.8879C242.405 71.103 244.36 70.715 246.528 70.715C248.724 70.715 250.667 71.1025 252.346 71.89C254.029 72.6651 255.363 73.7514 256.334 75.1521C257.309 76.5484 257.808 78.153 257.839 79.953L257.846 80.3495H251.816ZM278.441 93.815L284.858 102.674H290.431L283.27 93.1889L290.15 84.548H284.576L278.441 92.6416V84.548H273.864V102.674H278.441V93.815ZM357.268 102.674L356.037 99.8298H349.102L347.841 102.674H343.783L352.359 84.3126H352.96L361.401 102.674H357.268ZM352.554 92.0463L350.333 97.0457H354.826L352.66 92.0463H352.554ZM342.908 102.674V99.513H334.135V94.7541H341.524V91.6988H334.135V87.6787H342.383V84.5128H330.011V102.674H342.908ZM319.572 84.5978C321.444 84.5978 323.045 85.1187 324.339 86.1906C325.663 87.2324 326.322 88.6849 326.322 90.5232C326.322 92.6068 325.134 94.8858 322.683 96.0078L327.48 102.674H322.794L317.996 95.2965V94.9108C320.866 94.5803 322.27 92.8823 322.27 91.0992C322.27 89.0155 320.921 87.6982 318.797 87.6982H316.315V102.674H312.207V84.5978H319.567H319.572ZM296.303 101.943C297.486 102.43 298.774 102.674 300.166 102.674C301.523 102.674 302.785 102.43 303.951 101.943C305.134 101.456 306.161 100.786 307.031 99.9331C307.901 99.0631 308.579 98.0539 309.066 96.9055C309.554 95.7396 309.797 94.4868 309.797 93.147C309.797 91.7897 309.554 90.5369 309.066 89.3885C308.579 88.2226 307.892 87.2134 307.004 86.3608C306.134 85.4908 305.108 84.8209 303.925 84.3511C302.759 83.8638 301.489 83.6202 300.114 83.6202C298.722 83.6202 297.434 83.8638 296.251 84.3511C295.085 84.8209 294.067 85.4908 293.197 86.3608C292.327 87.2134 291.649 88.2139 291.161 89.3624C290.674 90.5108 290.431 91.7636 290.431 93.1209C290.431 94.4607 290.674 95.7135 291.161 96.8794C291.649 98.0278 292.336 99.037 293.223 99.907C294.111 100.777 295.137 101.456 296.303 101.943ZM302.985 98.2105C302.167 98.6977 301.21 98.9413 300.114 98.9413C299.296 98.9413 298.548 98.8021 297.869 98.5237C297.191 98.2453 296.608 97.8538 296.121 97.3492C295.651 96.8272 295.285 96.2094 295.024 95.496C294.763 94.7826 294.633 93.9909 294.633 93.1209C294.633 91.955 294.859 90.9458 295.311 90.0932C295.764 89.2232 296.399 88.5533 297.217 88.0834C298.052 87.5962 299.018 87.3526 300.114 87.3526C300.932 87.3526 301.671 87.4918 302.332 87.7702C303.011 88.0312 303.594 88.4228 304.081 88.9448C304.568 89.4494 304.943 90.0584 305.204 90.7718C305.465 91.4678 305.595 92.2508 305.595 93.1209C305.595 94.2693 305.369 95.2872 304.916 96.1746C304.464 97.0447 303.82 97.7233 302.985 98.2105Z" fill="black"/>
</svg>
