<svg width="407" height="29" viewBox="0 0 407 29" fill="none" xmlns="http://www.w3.org/2000/svg">
<path fill-rule="evenodd" clip-rule="evenodd" d="M71.1622 27.7568L69.3025 23.46H58.8251L56.9201 27.7568H50.7894L63.7463 0.0166016H64.6535L77.4063 27.7568H71.1622ZM64.0412 11.7006L60.6848 19.2538H67.4731L64.1999 11.7006H64.0412ZM27.9086 0.617188H34.0771V23.0271H46.7014V27.7568H27.9086V0.617188ZM0.844971 0.607422V27.8124L0.852538 27.8048H7.05885V19.0154H11.6096C14.5881 19.0154 16.992 18.1486 18.8516 16.3771C20.7112 14.5981 21.6637 12.4121 21.6637 9.72851C21.6637 7.21079 20.7566 5.06997 18.9726 3.29098C17.1961 1.51199 14.6259 0.607422 11.3148 0.607422H0.844971ZM7.01349 14.4398V5.19058H10.2792C13.7112 5.19058 15.4952 7.25602 15.4952 9.85666C15.4952 12.3367 14.006 14.4398 10.2414 14.4398H7.01349ZM306.614 0.617188H312.782V23.0271H325.406V27.7568H306.614V0.617188ZM348.007 23.46L349.867 27.7568H356.111L343.358 0.0166016H342.451L329.494 27.7568H335.625L337.53 23.46H348.007ZM339.39 19.2538L342.746 11.7006H342.905L346.178 19.2538H339.39ZM177.94 27.7568L176.08 23.46H165.603L163.698 27.7568H157.567L170.524 0.0166016H171.431L184.184 27.7568H177.94ZM170.819 11.7006L167.462 19.2538H174.251L170.977 11.7006H170.819ZM81.4885 27.7566H87.6117H87.6268V12.0923H87.7478L104.885 28.207H105.754V0.623723H99.6237V15.7926H99.4574C97.5902 13.9838 94.7327 11.3943 90.9681 8.02429C87.1959 4.60922 84.3384 1.98224 82.3957 0.0908203H81.4885V27.7566ZM131.291 23.0253V27.7534H112V0.587891H130.505V5.32343H118.168V11.3368H129.22V15.907H118.168V23.0253H131.291ZM149.622 5.33855H157.567V0.615234H135.463V5.33855H143.454V27.7555H149.622V5.33855ZM199.324 0.607422C202.136 0.607422 204.54 1.38966 206.483 2.99927C208.471 4.56374 209.461 6.74499 209.461 9.50539C209.461 12.6343 207.677 16.0566 203.996 17.7415L211.2 27.7526H204.162L196.958 16.6734V16.0942C201.267 15.5978 203.376 13.048 203.376 10.3704C203.376 7.24141 201.35 5.26325 198.16 5.26325H194.433V27.7526H188.264V0.607422H199.316H199.324ZM215.51 27.8305H221.678V0.587891H215.51V27.8305ZM245.234 0.619141H251.358V16.8975C251.358 20.2129 250.367 22.9085 248.334 24.9918C246.308 27.0378 243.405 28.0608 239.641 28.0608C231.9 28.0608 227.923 23.7672 227.923 17.0169V0.619141H234.092V16.9796C234.092 20.3771 236.035 23.0728 239.678 23.0728C243.322 23.0728 245.227 20.4966 245.227 17.1812V0.619141H245.234ZM360.174 0.605469V27.758H371.313C373.386 27.758 375.132 27.4389 376.537 26.7824C377.933 26.1299 378.996 25.2315 379.705 24.0802L379.706 24.0792C380.409 22.9277 380.758 21.6333 380.758 20.2049C380.758 18.8136 380.471 17.6051 379.878 16.5945C379.296 15.6013 378.54 14.8257 377.61 14.277C376.998 13.9068 376.364 13.6469 375.71 13.4992C376.262 13.2948 376.779 13.0306 377.261 12.7064C378.01 12.2015 378.607 11.5444 379.049 10.7396L379.05 10.7382C379.499 9.91099 379.716 8.93032 379.716 7.8095C379.716 6.44152 379.38 5.20668 378.702 4.11476C378.027 3.01517 377.012 2.16003 375.677 1.54231C374.342 0.911665 372.687 0.605469 370.727 0.605469H360.174ZM374.631 17.8883L374.632 17.8901C374.987 18.462 375.166 19.1056 375.166 19.8301C375.166 20.7843 374.817 21.5508 374.113 22.1567C373.433 22.7404 372.271 23.0698 370.544 23.0698H365.688V15.9959H370.675C371.631 15.9959 372.435 16.1733 373.098 16.514L373.101 16.5154C373.769 16.8512 374.276 17.3091 374.631 17.8883ZM373.676 10.2534L373.676 10.2543C373.332 10.7588 372.856 11.1553 372.239 11.4419C371.621 11.7207 370.919 11.8635 370.128 11.8635H365.688V5.24195H370.232C371.609 5.24195 372.584 5.56314 373.218 6.14718L373.22 6.14855C373.875 6.74463 374.203 7.49611 374.203 8.42992C374.203 9.14543 374.023 9.74831 373.676 10.2534ZM400.251 8.4722L400.219 8.1673C400.108 7.11601 399.647 6.31593 398.834 5.73819L398.833 5.73728C398.018 5.15256 396.938 4.84535 395.566 4.84535C394.599 4.84535 393.789 4.99316 393.126 5.27626C392.456 5.56247 391.962 5.94222 391.626 6.40666C391.29 6.87058 391.117 7.39892 391.108 8.00282C391.109 8.50721 391.221 8.92675 391.432 9.27448C391.662 9.63852 391.974 9.95238 392.375 10.2152C392.791 10.4793 393.255 10.7039 393.767 10.8879C394.29 11.0758 394.817 11.2337 395.348 11.3618L395.352 11.3627L397.832 11.9905C398.85 12.2306 399.83 12.5553 400.771 12.9646C401.729 13.3781 402.589 13.9009 403.349 14.5338C404.127 15.1752 404.743 15.9504 405.195 16.8567C405.654 17.7767 405.877 18.8433 405.877 20.0465C405.877 21.678 405.464 23.1284 404.631 24.3853L404.63 24.3863C403.796 25.6344 402.596 26.6025 401.046 27.2968C399.5 27.9845 397.643 28.3217 395.488 28.3217C393.393 28.3217 391.556 27.9933 389.988 27.3255C388.425 26.6566 387.19 25.6745 386.297 24.3772L386.296 24.3758C385.409 23.0742 384.937 21.4993 384.866 19.6668L384.853 19.313H390.244L390.267 19.6286C390.332 20.506 390.597 21.2135 391.046 21.7704C391.505 22.3395 392.105 22.7679 392.854 23.0537C393.621 23.3425 394.484 23.4898 395.449 23.4898C396.459 23.4898 397.327 23.3378 398.063 23.0432C398.811 22.7386 399.38 22.326 399.785 21.8133C400.184 21.3004 400.389 20.703 400.398 20.0074C400.389 19.3784 400.209 18.8856 399.874 18.503L399.872 18.5006C399.518 18.0871 399.009 17.7304 398.329 17.4399L398.324 17.438C397.638 17.1331 396.829 16.8594 395.895 16.6186L392.881 15.8328C390.662 15.2557 388.883 14.3749 387.564 13.1758L387.562 13.1741C386.225 11.9405 385.565 10.3044 385.565 8.30175C385.565 6.65731 386.006 5.20337 386.895 3.95364L386.896 3.95231C387.788 2.71179 388.997 1.75453 390.512 1.07779C392.028 0.391831 393.736 0.0527344 395.63 0.0527344C397.549 0.0527344 399.247 0.39139 400.714 1.07955C402.186 1.75693 403.351 2.70633 404.2 3.93048C405.051 5.15064 405.488 6.55283 405.515 8.12571L405.521 8.4722H400.251ZM272.193 22.7356H272.202L272.187 22.7431L272.193 22.7356ZM271.287 22.7356H272.193L279.64 14.4615C279.723 14.4615 279.769 14.4615 279.807 14.4991V27.7603H285.771V0.117188H284.902L271.741 15.319L258.534 0.117188H257.627V27.7527H263.546V14.4916C263.584 14.4916 263.629 14.4916 263.667 14.454L271.287 22.7356Z" fill="black"/>
</svg>
