<svg
  width="468"
  height="121"
  viewBox="0 0 468 121"
  fill="none"
  xmlns="http://www.w3.org/2000/svg"
>
  <g>
    <path
      d="M82.2445 15.8086C81.7013 22.9496 80.5801 30.0559 78.7308 37.0007C76.893 43.934 74.327 50.7058 70.9404 57.0507C69.2413 60.2232 67.3457 63.2918 65.2305 66.1989C63.1153 69.1061 60.792 71.8632 58.2838 74.4243C57.4516 75.2779 56.5848 76.1086 55.7179 76.9161C55.9953 76.9853 56.2727 77.043 56.5616 77.1007L59.3935 77.666C61.2775 78.0236 63.1615 78.4504 65.0687 78.7273C69.9579 79.5925 74.8818 80.2385 79.8404 80.7346C80.4414 80.3424 81.0425 79.9386 81.632 79.5233C84.7296 77.3429 87.7579 75.0472 90.5204 72.4631C93.2829 69.9021 95.8489 67.1795 98.1028 64.1916C100.322 61.1922 102.264 57.9851 103.824 54.5704C108.17 45.0876 109.349 34.1743 107.847 23.4918C101.304 15.1741 92.6009 8.63308 82.5913 4.69922C82.5913 4.82612 82.5913 4.94148 82.5913 5.06838C82.626 8.66769 82.5104 12.2439 82.2445 15.8202V15.8086Z"
      fill="#00A99D"
    />
    <path
      d="M25.7929 91.0825C26.5789 90.7595 27.3764 90.4596 28.1624 90.1135L30.4856 89.0521C33.5486 87.5755 36.5538 85.995 39.3972 84.1492C41.2119 82.9725 42.9803 81.7266 44.691 80.4115L41.0154 79.5924L39.5706 79.2694L38.1373 78.8887L35.2708 78.1273C33.3521 77.6197 31.4334 77.1352 29.5494 76.5122L23.8626 74.7357L18.2568 72.7168C17.3205 72.3707 16.3843 72.0477 15.4596 71.6901L12.7087 70.548C10.8709 69.7751 9.02156 69.0368 7.20689 68.2292L1.79752 65.6682L0.664795 65.126C1.52012 76.42 5.51935 86.8372 11.7725 95.5124C14.8933 94.7626 17.9794 93.8973 21.0192 92.8822C22.6259 92.2938 24.2556 91.7632 25.8276 91.094L25.7929 91.0825Z"
      fill="#00D1C2"
    />
    <path
      d="M3.1853 56.7738C3.58985 57.0276 4.00595 57.2583 4.42206 57.4775L5.67037 58.1581L10.6867 60.8807C12.3743 61.7574 14.1081 62.5419 15.8187 63.3725L18.3962 64.6069C19.2631 64.9991 20.1531 65.3567 21.02 65.7374L26.2907 67.9639L31.6654 69.9597C33.4454 70.6634 35.2716 71.2172 37.0978 71.817L39.8256 72.7053L41.1895 73.1437L42.5766 73.5359L48.1246 75.0818C48.8181 75.2664 49.5232 75.4279 50.2167 75.5894C51.7309 74.1243 53.1988 72.6015 54.5742 71.0095C56.7588 68.4831 58.7584 65.8067 60.55 63.0034C62.3415 60.2 63.925 57.2583 65.3121 54.2358C68.0861 48.1908 70.0741 41.7882 71.3918 35.2587C72.721 28.7292 73.3567 22.0497 73.4608 15.3818C73.507 12.0478 73.4145 8.70227 73.1834 5.39137C73.1025 4.18006 72.9869 2.96876 72.8597 1.76899C68.8836 0.938377 64.7573 0.5 60.5269 0.5C29.1341 0.523072 3.34712 24.5877 0.688675 55.2625C0.711792 55.2741 0.734909 55.2856 0.758026 55.3087L3.19686 56.7853L3.1853 56.7738Z"
      fill="#00D1C2"
    />
    <path
      d="M58.4797 82.8915L55.5438 82.4647C54.5614 82.3263 53.602 82.1186 52.6311 81.9571C51.8451 81.8071 51.0476 81.6687 50.2616 81.5303C47.4067 83.676 44.413 85.6256 41.3154 87.3561C38.2292 89.1096 34.9929 90.5747 31.7334 91.9013L29.2599 92.8473C28.4392 93.1588 27.5955 93.4126 26.7632 93.701C25.1104 94.2893 23.3997 94.7277 21.7238 95.2353C18.8457 96.0082 15.9445 96.6543 13.0318 97.1849C13.5519 97.8656 14.0952 98.5231 14.65 99.1807C15.3319 99.1461 16.0139 99.1115 16.6843 99.0769C18.603 98.95 20.5101 98.8116 22.4288 98.65C23.3882 98.5808 24.336 98.477 25.2953 98.3732C26.2547 98.2809 27.2025 98.2001 28.1503 98.0732C43.3728 96.3774 58.4103 92.3859 71.8875 85.3488C72.4076 85.0834 72.9162 84.795 73.4248 84.5182C70.3965 84.299 67.3681 84.0106 64.3514 83.6414C62.3864 83.4568 60.4446 83.1338 58.4797 82.8685V82.8915Z"
      fill="#00A99D"
    />
    <path
      d="M87.909 85.1415C87.7587 85.1415 87.6085 85.1415 87.4582 85.1415C87.0999 85.4299 86.7416 85.7183 86.3833 85.9952C83.1006 88.5447 79.6447 90.8289 76.0615 92.9054C74.2815 93.9667 72.4437 94.9011 70.6059 95.8702C68.745 96.7585 66.8957 97.6929 64.9885 98.4889C63.1045 99.3426 61.1742 100.058 59.2555 100.808C57.3137 101.5 55.3719 102.204 53.4069 102.815C49.4886 104.061 45.5009 105.134 41.4786 105.987C37.4562 106.841 33.4108 107.603 29.3422 108.064C27.7471 108.26 26.1521 108.41 24.557 108.549C34.5897 116.059 47.0498 120.5 60.5616 120.5C85.4701 120.5 106.83 105.376 115.95 83.8379C114.447 83.9994 112.945 84.1494 111.43 84.2763C103.628 84.9454 95.7803 85.2453 87.9205 85.1646L87.909 85.1415Z"
      fill="#007A8F"
    />
    <path
      d="M112.1 44.6145C111.591 48.7214 110.609 52.8052 109.176 56.7276C107.742 60.6614 105.858 64.4453 103.57 67.9638C101.27 71.4709 98.588 74.7356 95.6868 77.7235C94.4038 79.0732 93.0515 80.3538 91.676 81.5881C98.195 81.9112 104.749 81.9688 111.291 81.7497C113.152 81.692 115.013 81.5997 116.873 81.4959C119.324 74.9548 120.665 67.8831 120.665 60.4884C120.665 49.0444 117.451 38.3619 111.892 29.2598C112.042 30.2634 112.158 31.2671 112.239 32.2823C112.62 36.3546 112.608 40.4961 112.123 44.603L112.1 44.6145Z"
      fill="#007A8F"
    />
  </g>
  <path
    d="M144.665 50.0515V19.1699H156.55C160.308 19.1699 163.226 20.1967 165.242 22.2161C167.267 24.2356 168.297 26.6657 168.297 29.5237C168.297 32.5699 167.216 35.0514 165.105 37.0708C162.994 39.0816 160.265 40.0657 156.884 40.0657H151.718V50.0429H144.673L144.665 50.0515ZM151.667 24.3725V34.8717H155.331C159.605 34.8717 161.295 32.4843 161.295 29.6691C161.295 26.717 159.27 24.3725 155.374 24.3725H151.658H151.667Z"
    fill="currentColor"
  />
  <path
    d="M175.386 19.1816H182.388V44.6201H196.719V49.989H175.386V19.1816Z"
    fill="currentColor"
  />
  <path
    d="M224.485 49.9891L222.375 45.1117H210.481L208.319 49.9891H201.359L216.067 18.5H217.097L231.573 49.9891H224.477H224.485ZM216.402 31.7631L212.592 40.337H220.298L216.582 31.7631H216.393H216.402Z"
    fill="currentColor"
  />
  <path
    d="M345.694 49.9891L343.583 45.1117H331.69L329.527 49.9891H322.568L337.276 18.5H338.306L352.782 49.9891H345.685H345.694ZM337.611 31.7631L333.801 40.337H341.506L337.791 31.7631H337.602H337.611Z"
    fill="currentColor"
  />
  <path
    d="M243.158 49.9886H236.207V18.584H237.237C239.443 20.731 242.686 23.713 246.968 27.5896C251.242 31.4151 254.485 34.3545 256.605 36.4078H256.794V19.1889H263.753V50.4998H262.766L243.313 32.2074H243.175V49.9886H243.158Z"
    fill="currentColor"
  />
  <path
    d="M292.741 44.6096V49.9851H270.842V19.1484H291.849V24.524H277.844V31.35H290.39V36.5378H277.844V44.6182H292.741V44.6096Z"
    fill="currentColor"
  />
  <path
    d="M322.541 24.5413H313.522V49.9878H306.52V24.5413H297.45V19.1797H322.541V24.5413Z"
    fill="currentColor"
  />
  <path
    d="M369.968 19.1699C373.16 19.1699 375.889 20.0579 378.095 21.885C380.351 23.6609 381.475 26.1369 381.475 29.2704C381.475 32.8222 379.45 36.707 375.271 38.6195L383.449 49.9836H375.46L367.282 37.4071V36.7497C372.174 36.1862 374.568 33.2918 374.568 30.2523C374.568 26.7004 372.268 24.4549 368.647 24.4549H364.416V49.9836H357.414V19.1699H369.96H369.968Z"
    fill="currentColor"
  />
  <path
    d="M395.092 50.0727H388.089V19.1484H395.092V50.0727Z"
    fill="currentColor"
  />
  <path
    d="M421.832 19.1836H428.782V37.6618C428.782 41.4253 427.658 44.4852 425.35 46.8501C423.05 49.1726 419.755 50.3338 415.482 50.3338C406.694 50.3338 402.181 45.46 402.181 37.7974V19.1836H409.183V37.7551C409.183 41.6117 411.388 44.6717 415.524 44.6717C419.661 44.6717 421.823 41.7474 421.823 37.9839V19.1836H421.832Z"
    fill="currentColor"
  />
  <path
    d="M452.471 44.2591H451.432L442.782 34.8583C442.74 34.901 442.688 34.901 442.645 34.901V49.9543H435.926V18.584H436.956L451.947 35.8402L466.887 18.584H467.874V49.9628H461.103V34.9095C461.06 34.8668 461.009 34.8668 460.914 34.8668L452.453 44.2677L452.471 44.2591Z"
    fill="currentColor"
  />
  <path
    d="M144.665 71.1865H151.723V96.8306H166.17V102.243H144.665V71.1865Z"
    fill="currentColor"
  />
  <path
    d="M194.16 102.244L192.032 97.3267H180.043L177.863 102.244H170.848L185.674 70.5H186.712L201.305 102.244H194.152H194.16ZM186.012 83.8702L182.171 92.5135H189.939L186.193 83.8702H186.003H186.012Z"
    fill="currentColor"
  />
  <path
    d="M206.149 101.854V102.049H206.344H218.701C221.054 102.049 223.023 101.686 224.596 100.951C226.165 100.218 227.35 99.213 228.138 97.9331L228.138 97.9325C228.923 96.6475 229.314 95.2018 229.314 93.6007C229.314 92.0355 228.991 90.6883 228.334 89.5678C227.683 88.4572 226.84 87.5944 225.806 86.9846C224.877 86.4224 223.907 86.0895 222.896 85.989C223.809 85.7433 224.643 85.3666 225.398 84.8583C226.229 84.2983 226.891 83.5698 227.382 82.6755L227.383 82.6747C227.879 81.7626 228.122 80.6739 228.122 79.4164C228.122 77.8843 227.746 76.5072 226.99 75.2908C226.241 74.0701 225.112 73.1149 223.613 72.4213C222.118 71.7153 220.254 71.3676 218.03 71.3676H206.344H206.149V71.5625V101.854ZM222.663 90.8479L222.664 90.8489C223.091 91.536 223.305 92.3086 223.305 93.1718C223.305 94.3193 222.882 95.2509 222.032 95.9821C221.2 96.6957 219.813 97.0739 217.821 97.0739H212.069V88.5893H217.97C219.089 88.5893 220.041 88.7968 220.833 89.2037L220.834 89.2045C221.629 89.6037 222.237 90.1517 222.663 90.8479ZM221.566 82.3233L221.566 82.3239C221.15 82.933 220.578 83.4088 219.842 83.7503C219.105 84.0823 218.274 84.2503 217.344 84.2503H212.069V76.2834H217.464C219.066 76.2834 220.238 76.657 221.013 77.3708L221.014 77.3715C221.806 78.0922 222.202 79.0054 222.202 80.1263C222.202 80.9794 221.988 81.7089 221.566 82.3233Z"
    fill="currentColor"
    stroke="black"
    stroke-width="0.389819"
  />
  <path
    d="M251.972 79.806L251.991 79.9805H252.166H257.449H257.648L257.644 79.7822C257.614 78.0183 257.125 76.4519 256.174 75.0896C255.225 73.7199 253.919 72.6547 252.263 71.8926C250.615 71.1193 248.701 70.7358 246.528 70.7358C244.384 70.7358 242.457 71.1196 240.751 71.8916C239.045 72.6534 237.69 73.728 236.691 75.117L236.691 75.1177C235.699 76.512 235.205 78.1355 235.205 79.9803C235.205 82.2249 235.942 84.0425 237.428 85.4126L237.429 85.4135C238.909 86.7589 240.913 87.7548 243.43 88.4096L246.878 89.3085L246.879 89.3087C247.956 89.5863 248.893 89.9027 249.69 90.2569L249.692 90.2581C250.491 90.5991 251.1 91.0229 251.53 91.5242L251.531 91.5256C251.949 92.0041 252.169 92.6157 252.179 93.3751C252.169 94.2127 251.92 94.939 251.436 95.5621C250.947 96.1801 250.267 96.6709 249.385 97.03C248.515 97.3783 247.495 97.5552 246.321 97.5552C245.197 97.5552 244.185 97.3835 243.282 97.0435C242.395 96.7052 241.679 96.1953 241.13 95.5151C240.587 94.8419 240.273 93.9926 240.196 92.9562L240.183 92.7756H240.002H234.6H234.398L234.406 92.9781C234.486 95.0454 235.017 96.8105 236.008 98.2644L236.008 98.2651C237.008 99.7166 238.39 100.818 240.147 101.57L240.147 101.57C241.913 102.322 243.987 102.695 246.365 102.695C248.812 102.695 250.907 102.312 252.645 101.539L252.646 101.539C254.39 100.757 255.733 99.6712 256.664 98.2779L256.665 98.2773C257.596 96.8739 258.059 95.2525 258.059 93.42C258.059 92.0674 257.807 90.8778 257.298 89.857C256.793 88.844 256.105 87.9784 255.236 87.2618C254.382 86.5501 253.414 85.9614 252.333 85.4951C251.267 85.0311 250.156 84.663 249.001 84.3907L246.161 83.672L246.161 83.6719L246.159 83.6714C245.545 83.5233 244.935 83.3405 244.33 83.1231C243.731 82.908 243.187 82.6446 242.697 82.3337C242.216 82.0185 241.838 81.6392 241.559 81.1961C241.295 80.7625 241.159 80.2452 241.159 79.637C241.168 78.9069 241.378 78.2625 241.788 77.6974C242.197 77.132 242.793 76.6775 243.586 76.339C244.374 76.0022 245.329 75.8302 246.454 75.8302C248.053 75.8302 249.332 76.1883 250.306 76.8874L250.307 76.8879C251.285 77.5831 251.84 78.5503 251.972 79.806Z"
    fill="currentColor"
    stroke="black"
    stroke-width="0.389819"
  />
  <path
    d="M284.857 102.501L278.006 93.041L284.576 84.374H290.149L282.659 93.7824L282.633 92.1717L290.431 102.501H284.857ZM273.864 102.501V84.374H278.44V102.501H273.864Z"
    fill="currentColor"
  />
  <path
    d="M357.268 102.5L356.037 99.6559H349.102L347.841 102.5H343.783L352.359 84.1387H352.96L361.401 102.5H357.263H357.268ZM352.554 91.8723L350.333 96.8718H354.826L352.659 91.8723H352.549H352.554Z"
    fill="currentColor"
  />
  <path
    d="M342.908 99.334V102.5H330.011V84.3389H342.383V87.5047H334.135V91.5249H341.523V94.5802H334.135V99.3391H342.908V99.334Z"
    fill="currentColor"
  />
  <path
    d="M319.572 84.4238C321.444 84.4238 323.045 84.9447 324.339 86.0166C325.663 87.0584 326.322 88.511 326.322 90.3492C326.322 92.4329 325.134 94.7119 322.683 95.8338L327.48 102.5H322.793L317.996 95.1226V94.7369C320.865 94.4063 322.27 92.7083 322.27 90.9252C322.27 88.8416 320.921 87.5243 318.796 87.5243H316.315V102.5H312.207V84.4238H319.567H319.572Z"
    fill="currentColor"
  />
  <path
    d="M300.166 102.5C298.774 102.5 297.486 102.256 296.303 101.769C295.137 101.282 294.11 100.603 293.223 99.7331C292.336 98.8631 291.648 97.8538 291.161 96.7054C290.674 95.5396 290.43 94.2868 290.43 92.9469C290.43 91.5897 290.674 90.3369 291.161 89.1884C291.648 88.04 292.327 87.0395 293.197 86.1869C294.067 85.3168 295.085 84.6469 296.251 84.1771C297.434 83.6899 298.721 83.4463 300.113 83.4463C301.488 83.4463 302.758 83.6899 303.924 84.1771C305.107 84.6469 306.134 85.3168 307.004 86.1869C307.891 87.0395 308.579 88.0487 309.066 89.2145C309.553 90.363 309.797 91.6158 309.797 92.973C309.797 94.3129 309.553 95.5657 309.066 96.7315C308.579 97.8799 307.9 98.8892 307.03 99.7592C306.16 100.612 305.134 101.282 303.95 101.769C302.784 102.256 301.523 102.5 300.166 102.5ZM300.113 98.7674C301.21 98.7674 302.167 98.5238 302.985 98.0365C303.82 97.5493 304.464 96.8707 304.916 96.0007C305.368 95.1133 305.595 94.0954 305.595 92.9469C305.595 92.0769 305.464 91.2939 305.203 90.5979C304.942 89.8844 304.568 89.2754 304.081 88.7708C303.594 88.2488 303.011 87.8573 302.332 87.5963C301.671 87.3179 300.931 87.1787 300.113 87.1787C299.017 87.1787 298.052 87.4223 297.216 87.9095C296.399 88.3793 295.763 89.0492 295.311 89.9192C294.859 90.7719 294.632 91.7811 294.632 92.9469C294.632 93.8169 294.763 94.6087 295.024 95.3221C295.285 96.0355 295.65 96.6532 296.12 97.1752C296.607 97.6798 297.19 98.0714 297.869 98.3498C298.547 98.6282 299.296 98.7674 300.113 98.7674Z"
    fill="currentColor"
  />
</svg>
