<svg width="203" height="162" viewBox="0 0 203 162" fill="none" xmlns="http://www.w3.org/2000/svg">
<path fill-rule="evenodd" clip-rule="evenodd" d="M45.7708 57.2285C45.3547 57.0093 44.9386 56.7786 44.534 56.5248L44.5456 56.5363L42.1068 55.0597C42.0836 55.0366 42.0605 55.025 42.0374 55.0135C44.6959 24.3386 70.4828 0.274049 101.876 0.250977C106.106 0.250977 110.232 0.689354 114.208 1.51996C114.336 2.71973 114.451 3.93104 114.532 5.14234C114.763 8.45324 114.856 11.7988 114.81 15.1327C114.705 21.8007 114.07 28.4802 112.741 35.0097C111.423 41.5392 109.435 47.9418 106.661 53.9868C105.274 57.0093 103.69 59.951 101.899 62.7543C100.107 65.5576 98.1075 68.234 95.923 70.7605C94.5475 72.3525 93.0796 73.8753 91.5654 75.3404L91.3689 75.2946C90.739 75.1482 90.1015 74.9999 89.4734 74.8328L83.9253 73.2869L82.5383 72.8947L81.1744 72.4563L78.4466 71.568C78.0478 71.437 77.649 71.3082 77.2507 71.1796L77.2492 71.1791C75.824 70.7188 74.4049 70.2605 73.0141 69.7107L67.6394 67.7149L62.3688 65.4884C62.0006 65.3267 61.6283 65.1693 61.2554 65.0115L61.2552 65.0114L61.2551 65.0114L61.255 65.0113L61.2545 65.0111L61.2541 65.0109L61.2536 65.0107L61.2534 65.0106L61.2532 65.0106L61.253 65.0105L61.2528 65.0104C60.7484 64.797 60.2429 64.5831 59.745 64.3579L57.1674 63.1235C56.5972 62.8466 56.0244 62.5749 55.4517 62.3031L55.4513 62.303L55.4512 62.3029C54.3058 61.7595 53.1603 61.2161 52.0355 60.6317L47.0191 57.9091L45.7708 57.2285ZM123.593 15.5597C123.05 22.7007 121.929 29.807 120.08 36.7518C118.242 43.6851 115.676 50.4569 112.289 56.8018C110.59 59.9743 108.695 63.0429 106.579 65.95C104.464 68.8572 102.141 71.6143 99.6328 74.1754C98.8006 75.0291 97.9337 75.8597 97.0668 76.6672C97.3442 76.7364 97.6216 76.7941 97.9106 76.8518L100.742 77.4171C101.325 77.5277 101.908 77.6449 102.491 77.7622C103.794 78.0243 105.1 78.2871 106.418 78.4784C111.307 79.3436 116.231 79.9896 121.189 80.4857C121.79 80.0935 122.391 79.6897 122.981 79.2744C126.079 77.0941 129.107 74.7983 131.869 72.2142C134.632 69.6532 137.198 66.9306 139.452 63.9427C141.671 60.9433 143.613 57.7362 145.173 54.3215C149.519 44.8387 150.698 33.9254 149.195 23.2429C142.653 14.9252 133.95 8.3842 123.94 4.45034V4.8195C123.975 8.41881 123.859 11.995 123.593 15.5713V15.5597ZM67.1418 90.8334C67.4192 90.7194 67.698 90.6082 67.9773 90.497C68.4893 90.2929 69.0027 90.0883 69.5113 89.8643L71.8346 88.803C74.8976 87.3263 77.9028 85.7459 80.7461 83.9001C82.5608 82.7234 84.3293 81.4775 86.0399 80.1623L82.3643 79.3433L80.9195 79.0203L79.4863 78.6396L76.6198 77.8782C76.3603 77.8095 76.1007 77.7413 75.8413 77.6731C74.1827 77.237 72.5275 76.8018 70.8983 76.2631L65.2116 74.4865L59.6057 72.4677C59.2564 72.3386 58.9071 72.2126 58.5584 72.0869C57.9725 71.8757 57.3882 71.6651 56.8086 71.4409L54.0576 70.2989C53.4688 70.0512 52.8787 69.8071 52.289 69.5631L52.2881 69.5627L52.288 69.5627L52.2879 69.5627L52.2876 69.5625L52.2872 69.5624L52.2868 69.5622L52.2865 69.5621L52.2861 69.5619L52.2858 69.5617L52.2854 69.5616L52.285 69.5614L52.2847 69.5613L52.2843 69.5611L52.2839 69.5609L52.2831 69.5606C51.0343 69.044 49.7871 68.528 48.5558 67.9801L43.1465 65.419L42.0137 64.8768C42.8691 76.1708 46.8683 86.588 53.1214 95.2633C56.2422 94.5134 59.3283 93.6482 62.3682 92.633C62.8362 92.4616 63.3061 92.2952 63.776 92.1288L63.7766 92.1286L63.7772 92.1284L63.7778 92.1282L63.7783 92.1279L63.7789 92.1277L63.7795 92.1275L63.78 92.1273L63.7806 92.1271L63.7812 92.1269L63.7818 92.1267L63.7823 92.1265L63.7829 92.1263L63.7835 92.1261L63.784 92.1259L63.7846 92.1257L63.7847 92.1256L63.7848 92.1256L63.785 92.1255L63.7851 92.1255L63.7852 92.1255L63.7853 92.1254L63.7854 92.1254L63.7855 92.1253L63.7856 92.1253L63.7858 92.1252L63.7859 92.1252L63.786 92.1251L63.7861 92.1251L63.7862 92.125L63.7863 92.125C64.9262 91.7213 66.0658 91.3177 67.1765 90.8449L67.1418 90.8334ZM99.8286 82.6428L96.8928 82.216C96.2999 82.1324 95.7155 82.0237 95.1318 81.9151L95.1316 81.915L95.1312 81.9149L95.1273 81.9142C94.7452 81.8431 94.3635 81.7722 93.98 81.7084C93.2968 81.578 92.6048 81.4563 91.9192 81.3358L91.6105 81.2815C88.7556 83.4273 85.762 85.3769 82.6643 87.1073C79.5782 88.8608 76.3418 90.3259 73.0823 91.6526L70.6088 92.5986C70.0922 92.7947 69.5663 92.9679 69.04 93.1413C68.7303 93.2433 68.4205 93.3454 68.1122 93.4522C66.9919 93.851 65.845 94.1809 64.7005 94.5101C64.1563 94.6666 63.6127 94.823 63.0727 94.9866C60.1946 95.7595 57.2935 96.4055 54.3807 96.9362C54.9009 97.6168 55.4441 98.2744 55.9989 98.932C56.6809 98.8974 57.3628 98.8627 58.0332 98.8281C59.9519 98.7012 61.8591 98.5628 63.7778 98.4013C64.7047 98.3344 65.6209 98.2352 66.5471 98.1349L66.5478 98.1349L66.6443 98.1244C66.8214 98.1074 66.9981 98.0907 67.1745 98.0741C67.9536 98.0007 68.7264 97.9279 69.4992 97.8245C84.7217 96.1287 99.7593 92.1371 113.236 85.1C113.61 84.9094 113.978 84.7069 114.344 84.5053C114.487 84.4262 114.631 84.3474 114.774 84.2694C111.745 84.0502 108.717 83.7618 105.7 83.3927C104.327 83.2636 102.964 83.0669 101.597 82.8696L101.596 82.8694L101.596 82.8693L101.595 82.8692L101.594 82.8691L101.594 82.8691L101.593 82.869L101.592 82.8689L101.592 82.8688L101.591 82.8687L101.591 82.8686L101.59 82.8685L101.589 82.8684C101.004 82.7839 100.417 82.6992 99.8286 82.6197V82.6428ZM128.807 84.8924H129.258L129.269 84.9155C137.129 84.9962 144.977 84.6963 152.779 84.0272C154.293 83.9003 155.796 83.7503 157.299 83.5888C148.179 105.127 126.819 120.251 101.91 120.251C88.3985 120.251 75.9385 115.81 65.9058 108.299C67.5008 108.161 69.0959 108.011 70.691 107.815C74.7596 107.353 78.805 106.592 82.8274 105.738C86.8497 104.885 90.8374 103.812 94.7557 102.566C96.5183 102.017 98.2623 101.395 100.004 100.773L100.604 100.559C100.988 100.409 101.372 100.26 101.756 100.111C103.293 99.5171 104.83 98.9228 106.337 98.2398C107.792 97.6326 109.213 96.9449 110.632 96.2585L110.633 96.2578C111.074 96.0446 111.514 95.8315 111.955 95.6211C112.286 95.4463 112.618 95.2727 112.949 95.0993L112.949 95.0991L112.949 95.0989C114.454 94.3107 115.952 93.5261 117.41 92.6563C120.993 90.5798 124.449 88.2956 127.732 85.7461C128.09 85.4693 128.448 85.1811 128.806 84.8928L128.807 84.8924ZM153.449 44.3658C152.94 48.4727 151.958 52.5566 150.524 56.4789C149.091 60.4127 147.207 64.1966 144.919 67.7152C142.618 71.2222 139.937 74.487 137.036 77.4748C135.753 78.8246 134.4 80.1051 133.025 81.3395C139.544 81.6625 146.098 81.7202 152.64 81.501C154.501 81.4433 156.361 81.351 158.222 81.2472C160.673 74.7061 162.014 67.6344 162.014 60.2397C162.014 48.7957 158.8 38.1132 153.241 29.0111C153.391 30.0148 153.507 31.0184 153.587 32.0336C153.969 36.1059 153.957 40.2474 153.472 44.3543L153.449 44.3658ZM0.942383 141.67V160.971L0.947751 160.966H5.35091V154.73H8.57955C10.6926 154.73 12.3981 154.115 13.7175 152.858C15.0368 151.596 15.7126 150.045 15.7126 148.141C15.7126 146.355 15.069 144.836 13.8033 143.574C12.5429 142.312 10.7195 141.67 8.37039 141.67H0.942383ZM5.31874 151.484V144.922H7.63563C10.0705 144.922 11.3362 146.387 11.3362 148.232C11.3362 149.991 10.2797 151.484 7.60882 151.484H5.31874ZM20.1431 141.677H24.5195V157.576H33.476V160.932H20.1431V141.677ZM49.5107 157.883L50.83 160.932H55.26L46.2123 141.251H45.5687L36.3763 160.932H40.7258L42.0773 157.883H49.5107ZM43.3967 154.899L45.7779 149.541H45.8905L48.2128 154.899H43.3967ZM126.585 160.932L125.266 157.883H117.832L116.481 160.932H112.131L121.324 141.251H121.967L131.015 160.932H126.585ZM121.533 149.541L119.152 154.899H123.968L121.646 149.541H121.533ZM58.1562 160.932H62.5004H62.5111V149.818H62.5969L74.7552 161.251H75.372V141.682H71.0225V152.444H70.9045C69.5798 151.16 67.5525 149.323 64.8816 146.932C62.2054 144.509 60.1781 142.646 58.7998 141.304H58.1562V160.932ZM93.4896 157.575V160.93H79.8027V141.657H92.9318V145.016H84.1791V149.283H92.02V152.525H84.1791V157.575H93.4896ZM106.478 145.027H112.114V141.676H96.4324V145.027H102.101V160.931H106.478V145.027ZM141.756 141.67C143.751 141.67 145.457 142.225 146.835 143.367C148.246 144.477 148.948 146.024 148.948 147.983C148.948 150.203 147.683 152.631 145.071 153.826L150.182 160.928H145.189L140.078 153.068V152.657C143.135 152.305 144.631 150.496 144.631 148.596C144.631 146.377 143.194 144.973 140.93 144.973H138.286V160.928H133.91V141.67H141.751H141.756ZM153.082 160.984H157.458V141.657H153.082V160.984ZM174.171 141.679H178.515V153.228C178.515 155.58 177.812 157.492 176.37 158.97C174.932 160.422 172.873 161.148 170.202 161.148C164.71 161.148 161.889 158.101 161.889 153.312V141.679H166.265V153.286C166.265 155.696 167.644 157.609 170.229 157.609C172.814 157.609 174.165 155.781 174.165 153.429V141.679H174.171ZM193.314 157.351H193.32L193.309 157.356L193.314 157.351ZM192.671 157.351H193.314L198.597 151.48C198.656 151.48 198.689 151.48 198.715 151.507V160.915H202.947V141.304H202.33L192.993 152.089L183.623 141.304H182.98V160.91H187.179V151.502C187.206 151.502 187.238 151.502 187.265 151.475L192.671 157.351Z" fill="black"/>
</svg>
