<svg width="406" height="29" viewBox="0 0 406 29" fill="none" xmlns="http://www.w3.org/2000/svg">
<path fill-rule="evenodd" clip-rule="evenodd" d="M71.1618 28.2382L69.3022 23.9415H58.8248L56.9198 28.2382H50.7891L63.746 0.498047H64.6531L77.4059 28.2382H71.1618ZM64.0408 12.1821L60.6844 19.7352H67.4728L64.1995 12.1821H64.0408ZM27.9082 1.09863H34.0767V23.5085H46.701V28.2383H27.9082V1.09863ZM0.844727 1.08887V28.2938L0.852293 28.2863H7.0586V19.4969H11.6094C14.5878 19.4969 16.9917 18.63 18.8514 16.8585C20.711 15.0796 21.6635 12.8935 21.6635 10.21C21.6635 7.69223 20.7564 5.55142 18.9723 3.77243C17.1958 1.99344 14.6256 1.08887 11.3146 1.08887H0.844727ZM7.01325 14.9213V5.67203H10.2789C13.7109 5.67203 15.495 7.73746 15.495 10.3381C15.495 12.8181 14.0058 14.9213 10.2411 14.9213H7.01325ZM306.613 1.09863H312.782V23.5085H325.406V28.2383H306.613V1.09863ZM348.007 23.9415L349.867 28.2382H356.111L343.358 0.498047H342.451L329.494 28.2382H335.625L337.53 23.9415H348.007ZM339.389 19.7352L342.746 12.1821H342.905L346.178 19.7352H339.389ZM177.94 28.2382L176.08 23.9415H165.603L163.698 28.2382H157.567L170.524 0.498047H171.431L184.184 28.2382H177.94ZM170.819 12.1821L167.462 19.7352H174.251L170.977 12.1821H170.819ZM81.4883 28.2381H87.6114H87.6266V12.5738H87.7475L104.885 28.6884H105.754V1.10517H99.6234V16.2741H99.4571C97.5899 14.4652 94.7324 11.8758 90.9678 8.50573C87.1957 5.09067 84.3382 2.46369 82.3954 0.572266H81.4883V28.2381ZM131.291 23.5068V28.2348H111.999V1.06934H130.505V5.80488H118.168V11.8183H129.219V16.3884H118.168V23.5068H131.291ZM149.622 5.81999H157.567V1.09668H135.463V5.81999H143.453V28.237H149.622V5.81999ZM199.324 1.08887C202.136 1.08887 204.54 1.87111 206.482 3.48071C208.471 5.04519 209.461 7.22643 209.461 9.98683C209.461 13.1158 207.677 16.5381 203.995 18.2229L211.2 28.234H204.162L196.958 17.1548V16.5757C201.266 16.0793 203.376 13.5295 203.376 10.8518C203.376 7.72285 201.35 5.74469 198.159 5.74469H194.433V28.234H188.264V1.08887H199.316H199.324ZM215.51 28.312H221.678V1.06934H215.51V28.312ZM245.234 1.10059H251.357V17.3789C251.357 20.6943 250.367 23.3899 248.333 25.4733C246.307 27.5193 243.405 28.5422 239.64 28.5422C231.899 28.5422 227.923 24.2487 227.923 17.4984V1.10059H234.091V17.461C234.091 20.8586 236.034 23.5542 239.678 23.5542C243.321 23.5542 245.226 20.9781 245.226 17.6627V1.10059H245.234ZM360.174 1.08691V28.2394H371.313C373.386 28.2394 375.132 27.9203 376.537 27.2638C377.933 26.6114 378.996 25.7129 379.705 24.5617L379.705 24.5607C380.409 23.4092 380.758 22.1147 380.758 20.6864C380.758 19.2951 380.47 18.0866 379.878 17.0759C379.296 16.0827 378.54 15.3071 377.609 14.7584C376.998 14.3883 376.364 14.1283 375.709 13.9807C376.262 13.7763 376.779 13.5121 377.26 13.1878C378.01 12.683 378.607 12.0259 379.049 11.2211L379.05 11.2197C379.499 10.3924 379.716 9.41176 379.716 8.29095C379.716 6.92297 379.38 5.68813 378.702 4.59621C378.027 3.49662 377.012 2.64147 375.677 2.02376C374.342 1.39311 372.687 1.08691 370.727 1.08691H360.174ZM374.63 18.3698L374.631 18.3716C374.987 18.9434 375.166 19.587 375.166 20.3116C375.166 21.2657 374.817 22.0322 374.113 22.6382C373.433 23.2219 372.271 23.5512 370.544 23.5512H365.688V16.4773H370.674C371.631 16.4773 372.435 16.6548 373.098 16.9954L373.101 16.9969C373.769 17.3326 374.275 17.7905 374.63 18.3698ZM373.676 10.7348L373.676 10.7358C373.331 11.2403 372.856 11.6368 372.239 11.9234C371.621 12.2021 370.919 12.3449 370.127 12.3449H365.688V5.72339H370.232C371.609 5.72339 372.584 6.04458 373.218 6.62863L373.22 6.62999C373.875 7.22607 374.202 7.97756 374.202 8.91137C374.202 9.62687 374.023 10.2298 373.676 10.7348ZM400.251 8.95365L400.219 8.64875C400.108 7.59745 399.647 6.79737 398.834 6.21963L398.833 6.21873C398.018 5.634 396.938 5.3268 395.565 5.3268C394.599 5.3268 393.789 5.4746 393.126 5.7577C392.455 6.04391 391.962 6.42367 391.625 6.8881C391.289 7.35202 391.116 7.88037 391.108 8.48427C391.109 8.98866 391.221 9.4082 391.432 9.75592C391.662 10.12 391.974 10.4338 392.375 10.6966C392.791 10.9608 393.254 11.1853 393.767 11.3693C394.29 11.5573 394.817 11.7152 395.348 11.8432L395.352 11.8441L397.832 12.4719C398.85 12.712 399.83 13.0367 400.77 13.4461C401.729 13.8596 402.589 14.3823 403.348 15.0152C404.126 15.6566 404.742 16.4318 405.195 17.3382C405.654 18.2582 405.877 19.3247 405.877 20.5279C405.877 22.1595 405.464 23.6098 404.63 24.8668L404.63 24.8677C403.796 26.1158 402.595 27.084 401.046 27.7782C399.5 28.4659 397.643 28.8031 395.488 28.8031C393.393 28.8031 391.556 28.4748 389.988 27.807C388.425 27.1381 387.19 26.1559 386.297 24.8586L386.296 24.8573C385.409 23.5557 384.937 21.9807 384.866 20.1483L384.853 19.7944H390.243L390.267 20.11C390.331 20.9874 390.596 21.6949 391.046 22.2518C391.505 22.8209 392.104 23.2494 392.854 23.5351C393.621 23.8239 394.484 23.9712 395.449 23.9712C396.458 23.9712 397.327 23.8192 398.063 23.5247C398.811 23.22 399.38 22.8075 399.785 22.2948C400.184 21.7819 400.389 21.1845 400.398 20.4888C400.389 19.8598 400.208 19.3671 399.874 18.9844L399.872 18.982C399.518 18.5685 399.009 18.2119 398.329 17.9214L398.324 17.9194C397.638 17.6145 396.829 17.3409 395.894 17.1L392.88 16.3142C390.662 15.7372 388.883 14.8564 387.564 13.6572L387.562 13.6556C386.225 12.4219 385.564 10.7859 385.564 8.7832C385.564 7.13875 386.005 5.68482 386.895 4.43509L386.896 4.43375C387.788 3.19323 388.997 2.23597 390.511 1.55923C392.027 0.873276 393.736 0.53418 395.63 0.53418C397.549 0.53418 399.247 0.872835 400.714 1.56099C402.185 2.23838 403.351 3.18777 404.199 4.41192C405.051 5.63208 405.488 7.03428 405.515 8.60715L405.521 8.95365H400.251ZM272.193 23.2171H272.202L272.186 23.2246L272.193 23.2171ZM271.287 23.2171H272.193L279.64 14.9429C279.723 14.9429 279.769 14.9429 279.806 14.9806V28.2417H285.771V0.598633H284.901L271.74 15.8004L258.534 0.598633H257.627V28.2342H263.546V14.973C263.584 14.973 263.629 14.973 263.667 14.9354L271.287 23.2171Z" fill="black"/>
</svg>
