<svg width="288" height="185" viewBox="0 0 288 185" fill="none" xmlns="http://www.w3.org/2000/svg">
<g clip-path="url(#clip0_1755_5319)">
<path d="M165.714 15.3086C165.171 22.4496 164.05 29.5559 162.2 36.5007C160.363 43.434 157.797 50.2058 154.41 56.5507C152.711 59.7232 150.815 62.7918 148.7 65.6989C146.585 68.6061 144.262 71.3632 141.753 73.9243C140.921 74.7779 140.054 75.6086 139.188 76.4161C139.465 76.4853 139.742 76.543 140.031 76.6007L142.863 77.166C144.747 77.5236 146.631 77.9504 148.538 78.2273C153.428 79.0925 158.351 79.7385 163.31 80.2346C163.911 79.8424 164.512 79.4386 165.102 79.0233C168.199 76.8429 171.228 74.5472 173.99 71.9631C176.753 69.4021 179.319 66.6795 181.572 63.6916C183.792 60.6922 185.733 57.4851 187.294 54.0704C191.64 44.5876 192.819 33.6743 191.316 22.9918C184.774 14.6741 176.071 8.13308 166.061 4.19922C166.061 4.32612 166.061 4.44148 166.061 4.56838C166.096 8.16769 165.98 11.7439 165.714 15.3202V15.3086Z" fill="#00A99D"/>
<path d="M109.263 90.5825C110.048 90.2595 110.846 89.9596 111.632 89.6135L113.955 88.5521C117.018 87.0755 120.023 85.495 122.867 83.6492C124.681 82.4725 126.45 81.2266 128.161 79.9115L124.485 79.0924L123.04 78.7694L121.607 78.3887L118.74 77.6273C116.822 77.1197 114.903 76.6352 113.019 76.0122L107.332 74.2357L101.726 72.2168C100.79 71.8707 99.8539 71.5477 98.9292 71.1901L96.1783 70.048C94.3405 69.2751 92.4912 68.5368 90.6765 67.7292L85.2671 65.1682L84.1344 64.626C84.9897 75.92 88.989 86.3372 95.2421 95.0124C98.3629 94.2626 101.449 93.3973 104.489 92.3822C106.095 91.7938 107.725 91.2632 109.297 90.594L109.263 90.5825Z" fill="#00D1C2"/>
<path d="M86.6549 56.2738C87.0594 56.5276 87.4755 56.7583 87.8916 56.9775L89.14 57.6581L94.1563 60.3807C95.8439 61.2574 97.5776 62.0419 99.2883 62.8725L101.866 64.1069C102.733 64.4991 103.623 64.8567 104.49 65.2374L109.76 67.4639L115.135 69.4597C116.915 70.1634 118.741 70.7172 120.567 71.317L123.295 72.2053L124.659 72.6437L126.046 73.0359L131.594 74.5818C132.288 74.7664 132.993 74.9279 133.686 75.0894C135.2 73.6243 136.668 72.1015 138.044 70.5095C140.228 67.9831 142.228 65.3067 144.02 62.5034C145.811 59.7 147.395 56.7583 148.782 53.7358C151.556 47.6908 153.544 41.2882 154.861 34.7587C156.191 28.2292 156.826 21.5497 156.93 14.8818C156.977 11.5478 156.884 8.20227 156.653 4.89137C156.572 3.68006 156.456 2.46876 156.329 1.26899C152.353 0.438377 148.227 0 143.996 0C112.604 0.0230725 86.8167 24.0877 84.1583 54.7625C84.1814 54.7741 84.2045 54.7856 84.2276 54.8087L86.6665 56.2853L86.6549 56.2738Z" fill="#00D1C2"/>
<path d="M141.949 82.3915L139.013 81.9647C138.031 81.8263 137.072 81.6186 136.101 81.4571C135.315 81.3071 134.517 81.1687 133.731 81.0303C130.876 83.176 127.883 85.1256 124.785 86.8561C121.699 88.6096 118.462 90.0747 115.203 91.4013L112.729 92.3473C111.909 92.6588 111.065 92.9126 110.233 93.201C108.58 93.7893 106.869 94.2277 105.193 94.7353C102.315 95.5082 99.4141 96.1543 96.5014 96.6849C97.0215 97.3656 97.5648 98.0231 98.1196 98.6807C98.8015 98.6461 99.4835 98.6115 100.154 98.5769C102.073 98.45 103.98 98.3116 105.898 98.15C106.858 98.0808 107.806 97.977 108.765 97.8732C109.724 97.7809 110.672 97.7001 111.62 97.5732C126.842 95.8774 141.88 91.8859 155.357 84.8488C155.877 84.5834 156.386 84.295 156.894 84.0182C153.866 83.799 150.838 83.5106 147.821 83.1414C145.856 82.9568 143.914 82.6338 141.949 82.3685V82.3915Z" fill="#00A99D"/>
<path d="M171.379 84.6415C171.228 84.6415 171.078 84.6415 170.928 84.6415C170.569 84.9299 170.211 85.2183 169.853 85.4952C166.57 88.0447 163.114 90.3289 159.531 92.4054C157.751 93.4667 155.913 94.4011 154.076 95.3702C152.215 96.2585 150.365 97.1929 148.458 97.9889C146.574 98.8426 144.644 99.5578 142.725 100.308C140.783 101 138.841 101.704 136.877 102.315C132.958 103.561 128.971 104.634 124.948 105.487C120.926 106.341 116.88 107.103 112.812 107.564C111.217 107.76 109.622 107.91 108.027 108.049C118.059 115.559 130.519 120 144.031 120C168.94 120 190.3 104.876 199.419 83.3379C197.917 83.4994 196.414 83.6494 194.9 83.7763C187.098 84.4454 179.25 84.7453 171.39 84.6646L171.379 84.6415Z" fill="#007A8F"/>
<path d="M195.569 44.1145C195.061 48.2214 194.078 52.3052 192.645 56.2276C191.212 60.1614 189.328 63.9453 187.039 67.4638C184.739 70.9709 182.058 74.2356 179.156 77.2235C177.873 78.5732 176.521 79.8538 175.146 81.0881C181.665 81.4112 188.218 81.4688 194.76 81.2497C196.621 81.192 198.482 81.0997 200.343 80.9959C202.793 74.4548 204.134 67.3831 204.134 59.9884C204.134 48.5444 200.921 37.8619 195.361 28.7598C195.512 29.7634 195.627 30.7671 195.708 31.7823C196.09 35.8546 196.078 39.9961 195.593 44.103L195.569 44.1145Z" fill="#007A8F"/>
</g>
<path fill-rule="evenodd" clip-rule="evenodd" d="M49.0247 157.632L50.344 160.681H54.774L45.7264 141H45.0828L35.8903 160.681H40.2398L41.5914 157.632H49.0247ZM42.9107 154.648L45.2919 149.289H45.4046L47.7268 154.648H42.9107ZM24.0335 141.426H19.6572V160.681H32.99V157.325H24.0335V141.426ZM0.456543 160.72V141.419H7.88453C10.2336 141.419 12.0571 142.061 13.3174 143.323C14.5831 144.585 15.2267 146.104 15.2267 147.89C15.2267 149.794 14.5509 151.345 13.2316 152.607C11.9123 153.864 10.2068 154.479 8.09369 154.479H4.86506V160.714H0.461911L0.456543 160.72ZM4.83289 144.67V151.232H7.12296C9.79381 151.232 10.8504 149.74 10.8504 147.981C10.8504 146.136 9.58465 144.67 7.14978 144.67H4.83289ZM221.765 141.426H217.388V160.681H230.721V157.325H221.765V141.426ZM248.075 160.681L246.756 157.632H239.322L237.971 160.681H233.621L242.814 141H243.457L252.505 160.681H248.075ZM243.023 149.289L240.642 154.648H245.458L243.136 149.289H243.023ZM124.78 157.632L126.099 160.681H130.529L121.481 141H120.838L111.645 160.681H115.995L117.346 157.632H124.78ZM118.666 154.648L121.047 149.289H121.159L123.482 154.648H118.666ZM62.0144 160.681H57.6702V141.053H58.3138C59.6921 142.395 61.7194 144.258 64.3956 146.681C67.0665 149.072 69.0938 150.909 70.4185 152.193H70.5364V141.431H74.886V161H74.2692L62.1109 149.567H62.0251V160.681H62.0144ZM93.0034 160.678V157.324H83.693V152.274H91.5339V149.031H83.693V144.765H92.4457V141.405H79.3167V160.678H93.0034ZM111.645 144.776H106.009V160.68H101.632V144.776H95.9633V141.425H111.645V144.776ZM146.349 143.116C144.971 141.974 143.265 141.419 141.27 141.419H141.265H133.424V160.677H137.8V144.722H140.444C142.707 144.722 144.145 146.125 144.145 148.345C144.145 150.245 142.648 152.054 139.591 152.406V152.817L144.702 160.677H149.696L144.584 153.575C147.196 152.38 148.462 149.952 148.462 147.732C148.462 145.773 147.759 144.226 146.349 143.116ZM157.13 160.733H152.753V141.405H157.13V160.733ZM178.186 141.428H173.842H173.837V153.178C173.837 155.53 172.485 157.358 169.9 157.358C167.315 157.358 165.937 155.445 165.937 153.035V141.428H161.56V153.061C161.56 157.85 164.381 160.896 169.873 160.896C172.544 160.896 174.604 160.171 176.041 158.719C177.484 157.241 178.186 155.329 178.186 152.976V141.428ZM255.387 160.681V141.418H262.874C264.265 141.418 265.439 141.635 266.387 142.082C267.334 142.521 268.054 143.127 268.532 143.908C269.013 144.682 269.252 145.558 269.252 146.529C269.252 147.324 269.098 148.02 268.779 148.606L268.779 148.607C268.465 149.178 268.041 149.645 267.51 150.003C267.168 150.233 266.801 150.42 266.409 150.565C266.874 150.67 267.323 150.855 267.757 151.117C268.417 151.506 268.954 152.057 269.367 152.761C269.787 153.478 269.991 154.336 269.991 155.323C269.991 156.336 269.743 157.254 269.244 158.071C268.741 158.888 267.987 159.526 266.996 159.989C266 160.455 264.761 160.681 263.29 160.681H255.387ZM265.645 153.681L265.644 153.679C265.392 153.268 265.033 152.943 264.559 152.705L264.556 152.704C264.086 152.462 263.516 152.337 262.837 152.337H259.299V157.355H262.745C263.97 157.355 264.794 157.122 265.277 156.708C265.776 156.278 266.024 155.734 266.024 155.057C266.024 154.543 265.897 154.086 265.645 153.681ZM264.967 148.263C265.213 147.904 265.34 147.476 265.34 146.969C265.34 146.306 265.108 145.773 264.643 145.35L264.642 145.349C264.192 144.935 263.5 144.707 262.523 144.707H259.299V149.405H262.449C263.01 149.405 263.508 149.304 263.947 149.106C264.385 148.902 264.723 148.62 264.967 148.263ZM283.798 146.783L283.821 146.999H287.56L287.555 146.753C287.536 145.637 287.226 144.643 286.622 143.777C286.02 142.908 285.193 142.235 284.149 141.754C283.108 141.266 281.904 141.026 280.543 141.026C279.198 141.026 277.986 141.266 276.911 141.753C275.836 142.233 274.979 142.912 274.346 143.792L274.345 143.793C273.714 144.68 273.401 145.712 273.401 146.878C273.401 148.299 273.87 149.46 274.819 150.335L274.82 150.336C275.756 151.187 277.018 151.812 278.592 152.221L280.73 152.779C281.393 152.95 281.967 153.144 282.454 153.36L282.457 153.361C282.94 153.568 283.3 153.821 283.552 154.114L283.553 154.116C283.791 154.387 283.919 154.737 283.925 155.183C283.919 155.676 283.773 156.1 283.49 156.464C283.203 156.828 282.799 157.121 282.269 157.337C281.747 157.546 281.13 157.654 280.414 157.654C279.729 157.654 279.117 157.549 278.573 157.344C278.041 157.141 277.616 156.837 277.29 156.434C276.971 156.039 276.783 155.537 276.737 154.914L276.721 154.69H272.896L272.906 154.941C272.956 156.241 273.291 157.359 273.92 158.282L273.921 158.283C274.555 159.204 275.431 159.9 276.539 160.375C277.652 160.849 278.955 161.082 280.442 161.082C281.97 161.082 283.288 160.842 284.385 160.355C285.484 159.862 286.336 159.174 286.928 158.289C287.519 157.397 287.812 156.368 287.812 155.211C287.812 154.357 287.654 153.6 287.328 152.948C287.007 152.305 286.57 151.755 286.018 151.3C285.48 150.851 284.87 150.48 284.189 150.186C283.522 149.896 282.827 149.666 282.105 149.495L280.345 149.05L280.342 149.049C279.966 148.958 279.592 148.846 279.22 148.713C278.857 148.582 278.528 148.423 278.233 148.236C277.949 148.049 277.727 147.827 277.564 147.568C277.414 147.322 277.335 147.024 277.334 146.666C277.34 146.238 277.463 145.863 277.701 145.534C277.94 145.204 278.29 144.935 278.766 144.732C279.236 144.531 279.811 144.426 280.497 144.426C281.471 144.426 282.237 144.644 282.815 145.059L282.816 145.059C283.392 145.469 283.719 146.037 283.798 146.783ZM192.974 157.118H192.968L198.252 151.248C198.311 151.248 198.343 151.248 198.37 151.275V160.683H202.601V141.071H201.984L192.647 151.856L183.278 141.071H182.634V160.678H186.833V151.269C186.86 151.269 186.892 151.269 186.919 151.243L192.325 157.118H192.968L192.964 157.124L192.974 157.118ZM119.686 179.463L123.697 185H127.18L122.705 179.072L127.005 173.671H123.521L119.686 178.73V173.671H116.826V185H119.686V179.463ZM168.953 185L168.184 183.223H163.85L163.062 185H160.526L165.886 173.524H166.261L171.537 185H168.953ZM166.008 178.358L164.619 181.483H167.427L166.073 178.358H166.008ZM159.979 185V183.025H154.495V180.05H159.113V178.141H154.495V175.628H159.65V173.65H151.918V185H159.979ZM145.393 173.702C146.564 173.702 147.564 174.028 148.373 174.698C149.2 175.349 149.613 176.257 149.613 177.406C149.613 178.708 148.87 180.132 147.338 180.834L150.336 185H147.407L144.409 180.389V180.148C146.202 179.941 147.08 178.88 147.08 177.766C147.08 176.463 146.237 175.64 144.909 175.64H143.358V185H140.79V173.702H145.39H145.393ZM130.85 184.544C131.59 184.848 132.395 185 133.265 185C134.113 185 134.901 184.848 135.63 184.544C136.37 184.239 137.011 183.82 137.555 183.287C138.099 182.744 138.523 182.113 138.827 181.395C139.132 180.666 139.284 179.883 139.284 179.046C139.284 178.198 139.132 177.415 138.827 176.697C138.523 175.968 138.093 175.338 137.539 174.805C136.995 174.261 136.353 173.842 135.614 173.549C134.885 173.244 134.091 173.092 133.232 173.092C132.362 173.092 131.557 173.244 130.818 173.549C130.089 173.842 129.453 174.261 128.909 174.805C128.365 175.338 127.941 175.963 127.637 176.681C127.332 177.398 127.18 178.181 127.18 179.03C127.18 179.867 127.332 180.65 127.637 181.379C127.941 182.097 128.371 182.727 128.926 183.271C129.48 183.815 130.122 184.239 130.85 184.544ZM135.027 182.211C134.515 182.515 133.917 182.668 133.232 182.668C132.721 182.668 132.253 182.581 131.829 182.407C131.405 182.233 131.041 181.988 130.736 181.672C130.443 181.346 130.214 180.96 130.051 180.514C129.888 180.068 129.806 179.574 129.806 179.03C129.806 178.301 129.948 177.67 130.231 177.137C130.513 176.594 130.91 176.175 131.421 175.881C131.943 175.577 132.547 175.425 133.232 175.425C133.743 175.425 134.205 175.512 134.619 175.686C135.043 175.849 135.407 176.093 135.712 176.42C136.016 176.735 136.25 177.116 136.413 177.562C136.576 177.997 136.658 178.486 136.658 179.03C136.658 179.748 136.516 180.384 136.234 180.938C135.951 181.482 135.549 181.906 135.027 182.211Z" fill="black"/>
<defs>
<clipPath id="clip0_1755_5319">
<rect width="120" height="120" fill="white" transform="translate(84.1344)"/>
</clipPath>
</defs>
</svg>
