<svg width="569" height="57" viewBox="0 0 569 57" fill="none" xmlns="http://www.w3.org/2000/svg">
<path fill-rule="evenodd" clip-rule="evenodd" d="M1.7533 27.2633C1.55912 27.161 1.36493 27.0534 1.17615 26.9349L1.18154 26.9403L0.0434161 26.2512C0.0326281 26.2404 0.0218402 26.2351 0.0110523 26.2297C1.25166 11.9147 13.2856 0.684595 27.9355 0.673828C29.9097 0.673828 31.8354 0.878404 33.6909 1.26602C33.7502 1.82591 33.8042 2.39119 33.8419 2.95647C33.9498 4.50155 33.9929 6.06279 33.9714 7.61865C33.9228 10.7304 33.6262 13.8474 33.0059 16.8946C32.3909 19.9417 31.4632 22.9295 30.1686 25.7505C29.5214 27.161 28.7824 28.5338 27.9463 29.8421C27.1103 31.1503 26.1771 32.3993 25.1577 33.5783C24.5158 34.3212 23.8307 35.0318 23.1241 35.7155L23.0323 35.6942C22.7384 35.6258 22.4409 35.5567 22.1478 35.4787L19.5587 34.7573L18.9115 34.5742L18.275 34.3696L17.002 33.9551C16.816 33.894 16.63 33.8339 16.4443 33.7739L16.4441 33.7739L16.444 33.7739L16.4439 33.7738L16.4438 33.7738L16.4437 33.7738L16.4436 33.7737L16.4435 33.7737L16.4433 33.7737L16.4432 33.7736L16.4431 33.7736L16.443 33.7735C15.7779 33.5588 15.1158 33.3449 14.4668 33.0884L11.9587 32.157L9.49901 31.118C9.32695 31.0424 9.15293 30.9688 8.97862 30.8951C8.74311 30.7954 8.50707 30.6956 8.27459 30.5904L7.07174 30.0143C6.80564 29.8851 6.53835 29.7583 6.27105 29.6315L6.27104 29.6315L6.27102 29.6315C5.73642 29.3779 5.20183 29.1242 4.67682 28.8515L2.33585 27.581L1.7533 27.2633ZM38.0706 7.81792C37.817 11.1504 37.2938 14.4666 36.4308 17.7076C35.5732 20.9431 34.3757 24.1032 32.7953 27.0642C32.0024 28.5447 31.1177 29.9767 30.1307 31.3334C29.1436 32.6901 28.0594 33.9767 26.8889 35.1719C26.5005 35.5703 26.096 35.9579 25.6914 36.3347C25.8209 36.367 25.9503 36.394 26.0852 36.4209L27.4067 36.6847C27.6786 36.7363 27.9504 36.791 28.2226 36.8457L28.2226 36.8457L28.2227 36.8457C28.8307 36.9681 29.4404 37.0907 30.0551 37.18C32.3368 37.5837 34.6346 37.8852 36.9486 38.1167C37.2291 37.9337 37.5096 37.7452 37.7847 37.5514C39.2303 36.5339 40.6435 35.4626 41.9326 34.2567C43.2218 33.0615 44.4192 31.791 45.4711 30.3966C46.5067 28.9969 47.4129 27.5003 48.1411 25.9067C50.1692 21.4814 50.7194 16.3886 50.0182 11.4034C46.9652 7.52182 42.9035 4.46933 38.2324 2.63353V2.80581C38.2486 4.48548 38.1946 6.15439 38.0706 7.8233V7.81792ZM12.116 42.7887L12.1164 42.7886L12.1167 42.7885L12.1168 42.7884C12.3556 42.6933 12.595 42.5978 12.8322 42.4934L13.9164 41.9981C15.3458 41.309 16.7482 40.5715 18.0751 39.7101C18.922 39.161 19.7473 38.5795 20.5456 37.9658L18.8303 37.5836L18.156 37.4328L17.4872 37.2552L16.1495 36.8999C16.0284 36.8678 15.9073 36.836 15.7863 36.8042L15.7861 36.8041C15.0121 36.6006 14.2397 36.3975 13.4795 36.1462L10.8257 35.3171L8.20959 34.375C8.04744 34.315 7.88528 34.2566 7.7234 34.1982L7.72307 34.1981L7.72279 34.198L7.72252 34.1979L7.72202 34.1977L7.72147 34.1975L7.72091 34.1973C7.44746 34.0987 7.1748 34.0005 6.90426 33.8958L5.6205 33.3628C5.34577 33.2473 5.07048 33.1334 4.79536 33.0196C4.2116 32.7781 3.62855 32.5369 3.05298 32.2807L0.528607 31.0856L0 30.8326C0.399152 36.1031 2.26546 40.9645 5.18359 45.0129C6.63995 44.663 8.08014 44.2592 9.49875 43.7855C9.71821 43.7051 9.93859 43.627 10.159 43.549L10.1592 43.5489L10.1594 43.5488L10.1597 43.5487C10.6919 43.3602 11.224 43.1717 11.7426 42.951L11.7264 42.9456C11.8556 42.8925 11.9855 42.8408 12.1155 42.7889L12.1156 42.7889L12.1158 42.7888L12.116 42.7887ZM26.9803 39.1233L25.6102 38.9242C25.3335 38.8852 25.0607 38.8344 24.7883 38.7837C24.6094 38.7504 24.4306 38.7172 24.2509 38.6873C23.932 38.6264 23.609 38.5697 23.2891 38.5134L23.289 38.5134L23.289 38.5134L23.2889 38.5134L23.2888 38.5133L23.1452 38.4881C21.8129 39.4894 20.4158 40.3993 18.9703 41.2068C17.5301 42.0251 16.0198 42.7088 14.4987 43.3279L13.3444 43.7694C13.1033 43.8609 12.8579 43.9417 12.6123 44.0226L12.6122 44.0227C12.4677 44.0703 12.3231 44.1179 12.1793 44.1678C11.6565 44.3538 11.1214 44.5078 10.5873 44.6614L10.5871 44.6614L10.587 44.6615L10.587 44.6615L10.5869 44.6615L10.5868 44.6615L10.5868 44.6616L10.5867 44.6616L10.5866 44.6616L10.5865 44.6616L10.5865 44.6617L10.5864 44.6617L10.5863 44.6617L10.5861 44.6618L10.5858 44.6619L10.5853 44.662L10.5847 44.6622C10.3316 44.735 10.0787 44.8077 9.82752 44.8838C8.48442 45.2445 7.13054 45.546 5.77126 45.7936C6.01399 46.1112 6.26751 46.4181 6.52642 46.725L6.53944 46.7243L6.54017 46.7243C6.85383 46.7083 7.16741 46.6924 7.47575 46.6765C8.37115 46.6173 9.26115 46.5527 10.1565 46.4773C10.5884 46.4462 11.0153 46.4 11.4468 46.3532L11.4469 46.3532L11.447 46.3532L11.4471 46.3532L11.4472 46.3532L11.4473 46.3532L11.4474 46.3532L11.4475 46.3532L11.4476 46.3531L11.4477 46.3531L11.4478 46.3531L11.4479 46.3531L11.4481 46.3531L11.4482 46.3531L11.4483 46.3531L11.4484 46.3531L11.4485 46.3531L11.4486 46.353L11.4487 46.353L11.4488 46.353L11.4489 46.353L11.449 46.353L11.4491 46.353L11.4493 46.353L11.4942 46.3481C11.5769 46.3402 11.6593 46.3324 11.7416 46.3246C12.1052 46.2904 12.4659 46.2564 12.8266 46.2081C19.9304 45.4167 26.9479 43.554 33.2373 40.27C33.4116 40.1811 33.5831 40.0867 33.7538 39.9926L33.7539 39.9926C33.8209 39.9557 33.8878 39.9188 33.9547 39.8824C32.5414 39.7801 31.1282 39.6456 29.7204 39.4733C29.0799 39.4132 28.4447 39.3214 27.8075 39.2294L27.8074 39.2294L27.8073 39.2294L27.8072 39.2294L27.8072 39.2294L27.8071 39.2294L27.807 39.2294L27.8069 39.2294L27.8069 39.2293L27.8068 39.2293L27.8067 39.2293L27.8066 39.2293L27.8066 39.2293L27.8065 39.2293L27.8064 39.2293L27.8063 39.2293L27.8063 39.2293L27.8062 39.2292L27.8061 39.2292L27.806 39.2292L27.806 39.2292L27.8059 39.2292L27.8058 39.2292L27.8057 39.2292C27.5312 39.1895 27.2562 39.1498 26.9803 39.1126V39.1233ZM40.5035 40.1731H40.7139L40.7193 40.1839C44.3872 40.2216 48.0496 40.0816 51.6906 39.7694C52.3972 39.7102 53.0984 39.6402 53.7996 39.5648C49.5438 49.6159 39.5757 56.6738 27.9518 56.6738C21.6462 56.6738 15.8316 54.6011 11.1496 51.0964C11.894 51.0318 12.6383 50.9618 13.3827 50.8703C15.2814 50.655 17.1693 50.2997 19.0464 49.9013C20.9235 49.5029 22.7844 49.0022 24.6129 48.4208C25.4355 48.1648 26.2493 47.8742 27.0623 47.584L27.3423 47.4841C27.5214 47.4141 27.7007 47.3447 27.88 47.2754L27.88 47.2754L27.88 47.2753L27.8801 47.2753L27.8801 47.2753L27.8801 47.2753L27.8802 47.2753L27.8802 47.2753L27.8802 47.2753L27.8803 47.2753L27.8803 47.2753L27.8803 47.2752L27.8804 47.2752L27.8804 47.2752L27.8804 47.2752L27.8805 47.2752L27.8805 47.2752L27.8805 47.2752L27.8806 47.2752L27.8806 47.2752L27.8806 47.2751L27.8807 47.2751L27.8807 47.2751C28.5976 46.9978 29.3146 46.7206 30.0177 46.402C30.6966 46.1186 31.3598 45.7976 32.0217 45.4773C32.2275 45.3777 32.4332 45.2782 32.6391 45.1799C32.7933 45.0986 32.9475 45.0178 33.1016 44.9371L33.1032 44.9362C33.8054 44.5684 34.5043 44.2022 35.1851 43.7963C36.8572 42.8273 38.47 41.7613 40.0019 40.5715C40.1691 40.4423 40.3363 40.3077 40.5035 40.1731ZM52.003 21.2608C51.7657 23.1773 51.3072 25.0831 50.6383 26.9135C49.9695 28.7493 49.0903 30.5151 48.0223 32.1571C46.9489 33.7937 45.6975 35.3173 44.3436 36.7116C43.7449 37.3415 43.1138 37.9391 42.4719 38.5151C45.5141 38.6659 48.5725 38.6928 51.6254 38.5905C52.4939 38.5636 53.3623 38.5205 54.2307 38.4721C55.3742 35.4196 55.9999 32.1194 55.9999 28.6686C55.9999 23.3281 54.5004 18.3429 51.9059 14.0952C51.976 14.5636 52.03 15.032 52.0677 15.5057C52.2457 17.4061 52.2403 19.3388 52.0138 21.2554L52.003 21.2608ZM109.008 15.2706H102.881V42.227H121.547V37.5292H109.008V15.2706ZM145.843 42.2268L143.996 37.9591H133.589L131.697 42.2268H125.607L138.477 14.6739H139.378L152.045 42.2268H145.843ZM138.77 26.279L135.436 33.7812H142.178L138.927 26.279H138.77ZM76 15.2608V42.2821L76.0075 42.2746H82.1719V33.5445H86.692C89.6503 33.5445 92.038 32.6835 93.885 30.924C95.7321 29.157 96.6782 26.9858 96.6782 24.3203C96.6782 21.8196 95.7772 19.6932 94.0052 17.9262C92.2407 16.1593 89.6878 15.2608 86.3991 15.2608H76ZM82.1268 28.9998V19.813H85.3705C88.7793 19.813 90.5513 21.8645 90.5513 24.4476C90.5513 26.9109 89.0722 28.9998 85.333 28.9998H82.1268ZM379.704 15.2706H385.831V37.5292H398.37V42.227H379.704V15.2706ZM420.819 37.9591L422.666 42.2268H428.868L416.201 14.6739H415.3L402.431 42.2268H408.52L410.412 37.9591H420.819ZM412.259 33.7812L415.593 26.279H415.751L419.002 33.7812H412.259ZM251.899 42.2268L250.052 37.9591H239.645L237.753 42.2268H231.664L244.533 14.6739H245.434L258.101 42.2268H251.899ZM244.826 26.279L241.493 33.7812H248.235L244.984 26.279H244.826ZM156.099 42.2271H162.181H162.196V26.6686H162.316L179.338 42.6744H180.201V15.2774H174.112V30.3439H173.947C172.092 28.5473 169.254 25.9753 165.515 22.628C161.768 19.236 158.93 16.6268 157 14.7481H156.099V42.2271ZM205.566 37.5272V42.2234H186.404V15.2413H204.785V19.9448H192.531V25.9176H203.508V30.4569H192.531V37.5272H205.566ZM223.773 19.96H231.664V15.2686H209.709V19.96H217.646V42.2257H223.773V19.96ZM273.139 15.2608C275.932 15.2608 278.32 16.0378 280.25 17.6365C282.224 19.1904 283.208 21.3569 283.208 24.0987C283.208 27.2065 281.436 30.6057 277.779 32.2792L284.935 42.2227H277.944L270.789 31.2183V30.6431C275.069 30.15 277.164 27.6174 277.164 24.9578C277.164 21.85 275.151 19.8852 271.983 19.8852H268.281V42.2227H262.154V15.2608H273.132H273.139ZM289.216 42.3H295.343V15.2413H289.216V42.3ZM318.74 15.2725H324.822V31.4409C324.822 34.734 323.838 37.4114 321.818 39.4807C319.806 41.5128 316.923 42.5289 313.183 42.5289C305.495 42.5289 301.545 38.2643 301.545 31.5596V15.2725H307.672V31.5225C307.672 34.8971 309.602 37.5746 313.221 37.5746C316.84 37.5746 318.732 35.0158 318.732 31.7228V15.2725H318.74ZM432.903 15.2588V42.228H443.967C446.026 42.228 447.761 41.9111 449.156 41.259C450.543 40.611 451.598 39.7186 452.302 38.5751L452.303 38.5741C453.002 37.4304 453.349 36.1447 453.349 34.726C453.349 33.3441 453.063 32.1437 452.474 31.1399C451.896 30.1534 451.145 29.3831 450.221 28.8381C449.613 28.4704 448.984 28.2122 448.334 28.0656C448.883 27.8625 449.397 27.6001 449.875 27.2781C450.619 26.7766 451.212 26.124 451.651 25.3246L451.652 25.3232C452.098 24.5015 452.314 23.5275 452.314 22.4142C452.314 21.0555 451.98 19.829 451.306 18.7444C450.636 17.6523 449.628 16.8029 448.302 16.1894C446.976 15.563 445.332 15.2588 443.385 15.2588H432.903ZM447.262 32.425L447.263 32.4268C447.616 32.9948 447.795 33.6341 447.795 34.3537C447.795 35.3014 447.448 36.0628 446.748 36.6646C446.073 37.2444 444.918 37.5715 443.204 37.5715H438.38V30.5453H443.333C444.283 30.5453 445.082 30.7216 445.74 31.0599L445.743 31.0614C446.407 31.3949 446.91 31.8497 447.262 32.425ZM446.314 24.8416L446.314 24.8425C445.972 25.3437 445.5 25.7375 444.887 26.0222C444.273 26.299 443.576 26.4408 442.79 26.4408H438.38V19.864H442.893C444.261 19.864 445.229 20.183 445.86 20.7631L445.861 20.7645C446.512 21.3566 446.837 22.103 446.837 23.0305C446.837 23.7411 446.659 24.34 446.314 24.8416ZM472.678 22.7698L472.71 23.0726H477.944L477.938 22.7285C477.912 21.1663 477.478 19.7736 476.632 18.5617C475.789 17.3458 474.631 16.4027 473.17 15.7299C471.712 15.0464 470.026 14.71 468.12 14.71C466.239 14.71 464.542 15.0468 463.036 15.7281C461.532 16.4003 460.331 17.3511 459.445 18.5833L459.444 18.5846C458.561 19.8259 458.122 21.27 458.122 22.9033C458.122 24.8925 458.778 26.5175 460.107 27.7428L460.109 27.7444C461.419 28.9355 463.186 29.8104 465.389 30.3835L468.383 31.164C469.311 31.4033 470.115 31.6751 470.796 31.9779L470.801 31.9799C471.476 32.2684 471.981 32.6226 472.334 33.0333L472.336 33.0357C472.668 33.4157 472.847 33.9052 472.856 34.5299C472.847 35.2209 472.643 35.8143 472.247 36.3237C471.844 36.833 471.28 37.2428 470.537 37.5454C469.806 37.8379 468.943 37.9888 467.941 37.9888C466.982 37.9888 466.124 37.8425 465.363 37.5556C464.618 37.2718 464.023 36.8462 463.567 36.281C463.12 35.7279 462.857 35.0252 462.793 34.1537L462.77 33.8403H457.415L457.429 34.1917C457.5 36.0118 457.968 37.5761 458.849 38.8689L458.85 38.8702C459.737 40.1588 460.964 41.1343 462.516 41.7987C464.074 42.462 465.898 42.7881 467.979 42.7881C470.119 42.7881 471.964 42.4532 473.499 41.7702C475.039 41.0806 476.231 40.119 477.059 38.8793L477.06 38.8783C477.888 37.6299 478.298 36.1893 478.298 34.5688C478.298 33.3737 478.076 32.3144 477.62 31.4006C477.171 30.5003 476.559 29.7304 475.786 29.0933C475.032 28.4647 474.178 27.9454 473.226 27.5347C472.292 27.1281 471.319 26.8057 470.307 26.5672L467.844 25.9436L467.84 25.9427C467.313 25.8155 466.789 25.6587 466.269 25.472C465.761 25.2893 465.3 25.0662 464.887 24.8039C464.489 24.5429 464.179 24.2311 463.951 23.8695C463.741 23.5241 463.629 23.1074 463.629 22.6064C463.637 22.0066 463.809 21.4818 464.143 21.021C464.477 20.5597 464.967 20.1826 465.633 19.8983C466.291 19.6171 467.096 19.4703 468.056 19.4703C469.42 19.4703 470.492 19.7754 471.301 20.3562L471.303 20.3571C472.11 20.9309 472.568 21.7256 472.678 22.7698ZM345.525 37.2392H345.517L352.913 29.021C352.996 29.021 353.041 29.021 353.079 29.0583V42.23H359.003V14.7735H358.139L345.067 29.8727L331.95 14.7735H331.049V42.2225H336.928V29.0509C336.965 29.0509 337.01 29.0509 337.048 29.0135L344.617 37.2392H345.517L345.51 37.2467L345.525 37.2392ZM495.964 34.9222L501.579 42.6742H506.456L500.19 34.3744L506.21 26.8135H501.333L495.964 33.8955V26.8135H491.96V42.6742H495.964V34.9222ZM564.938 42.6735L563.861 40.1851H557.793L556.69 42.6735H553.139L560.643 26.6075H561.169L568.555 42.6735H564.938ZM560.814 33.3744L558.87 37.7489H562.802L560.906 33.3744H560.814ZM552.373 42.6742V39.9084H544.697V35.7444H551.162V33.071H544.697V29.5534H551.913V26.7833H541.088V42.6742H552.373ZM531.954 26.8565C533.593 26.8565 534.993 27.3123 536.125 28.2502C537.284 29.1618 537.861 30.4328 537.861 32.0412C537.861 33.8644 536.821 35.8585 534.676 36.8403L538.874 42.6736H534.773L530.575 36.2179V35.8804C533.086 35.5912 534.315 34.1055 534.315 32.5452C534.315 30.722 533.134 29.5694 531.276 29.5694H529.104V42.6736H525.51V26.8565H531.949H531.954ZM511.594 42.0343C512.629 42.4607 513.756 42.6738 514.974 42.6738C516.161 42.6738 517.265 42.4607 518.285 42.0343C519.32 41.608 520.219 41.0219 520.98 40.2758C521.741 39.5145 522.335 38.6315 522.761 37.6266C523.188 36.6065 523.401 35.5103 523.401 34.3379C523.401 33.1503 523.188 32.0541 522.761 31.0492C522.335 30.0291 521.734 29.146 520.957 28.4C520.196 27.6387 519.298 27.0526 518.262 26.6415C517.242 26.2152 516.131 26.002 514.928 26.002C513.71 26.002 512.583 26.2152 511.548 26.6415C510.528 27.0526 509.637 27.6387 508.876 28.4C508.115 29.146 507.521 30.0215 507.095 31.0264C506.668 32.0313 506.455 33.1275 506.455 34.3151C506.455 35.4874 506.668 36.5837 507.095 37.6038C507.521 38.6086 508.122 39.4917 508.899 40.253C509.675 41.0142 510.574 41.608 511.594 42.0343ZM517.44 38.7685C516.725 39.1948 515.887 39.408 514.928 39.408C514.212 39.408 513.558 39.2862 512.964 39.0426C512.37 38.799 511.86 38.4564 511.434 38.0148C511.023 37.5581 510.703 37.0176 510.475 36.3933C510.246 35.7691 510.132 35.0763 510.132 34.3151C510.132 33.295 510.33 32.4119 510.726 31.6659C511.122 30.9046 511.677 30.3184 512.393 29.9073C513.124 29.481 513.969 29.2679 514.928 29.2679C515.644 29.2679 516.291 29.3897 516.869 29.6333C517.463 29.8616 517.973 30.2042 518.399 30.661C518.826 31.1025 519.153 31.6354 519.381 32.2596C519.61 32.8687 519.724 33.5538 519.724 34.3151C519.724 35.3199 519.526 36.2106 519.13 36.9871C518.734 37.7484 518.171 38.3422 517.44 38.7685Z" fill="black"/>
</svg>
