<svg width="122" height="117" viewBox="0 0 122 117" fill="none" xmlns="http://www.w3.org/2000/svg">
<g clip-path="url(#clip0_1786_6717)">
<path d="M76.1457 19.1501C75.6406 25.7893 74.5982 32.3964 72.8787 38.8533C71.1701 45.2995 68.7843 51.5955 65.6356 57.4947C64.0559 60.4443 62.2935 63.2974 60.3268 66.0003C58.3602 68.7032 56.2002 71.2666 53.8682 73.6477C53.0945 74.4414 52.2885 75.2137 51.4825 75.9645C51.7404 76.0289 51.9983 76.0825 52.267 76.1361L54.8999 76.6617C56.6515 76.9942 58.4032 77.391 60.1764 77.6484C64.7222 78.4529 69.3002 79.0535 73.9104 79.5147C74.4692 79.1501 75.028 78.7746 75.5761 78.3885C78.4562 76.3614 81.2718 74.2269 83.8402 71.8244C86.4086 69.4432 88.7943 66.9119 90.8899 64.134C92.9532 61.3453 94.7586 58.3635 96.2094 55.1887C100.25 46.3721 101.346 36.2255 99.9492 26.2935C93.8666 18.5602 85.7745 12.4787 76.4681 8.82117C76.4681 8.93915 76.4681 9.04641 76.4681 9.1644C76.5003 12.5108 76.3929 15.8358 76.1457 19.1608V19.1501Z" fill="black"/>
<path d="M23.6597 89.1357C24.3905 88.8354 25.132 88.5565 25.8628 88.2347L28.0228 87.248C30.8706 85.8751 33.6647 84.4056 36.3084 82.6895C37.9956 81.5955 39.6398 80.4371 41.2302 79.2144L36.4696 78.1525L32.4719 77.0907C30.6879 76.6187 28.904 76.1682 27.1523 75.589L21.8651 73.9373L16.653 72.0603C15.7826 71.7385 14.9121 71.4382 14.0524 71.1057L11.4947 70.0438C9.78602 69.3252 8.06659 68.6387 6.37939 67.8879L1.35003 65.5068L0.296875 65.0027C1.09212 75.5032 4.8104 85.1886 10.6243 93.2544C13.5258 92.5572 16.3951 91.7528 19.2214 90.8089C20.7152 90.2619 22.2305 89.7685 23.692 89.1464L23.6597 89.1357Z" fill="black"/>
<path d="M2.63966 57.2373C3.01579 57.4733 3.40266 57.6878 3.78953 57.8916L4.95015 58.5244L9.61413 61.0557C11.1831 61.8708 12.7951 62.6002 14.3856 63.3724L16.782 64.5201C17.588 64.8848 18.4155 65.2173 19.2215 65.5712L24.1219 67.6413L29.119 69.4969C30.774 70.1511 32.4719 70.666 34.1699 71.2237L36.706 72.0496L37.9741 72.4572L39.2637 72.8219L44.422 74.2591C45.0668 74.4307 45.7223 74.5809 46.3671 74.731C47.7749 73.3689 49.1397 71.9531 50.4185 70.4729C52.4496 68.124 54.3088 65.6356 55.9745 63.0292C57.6402 60.4229 59.1125 57.6878 60.402 54.8776C62.9812 49.2573 64.8296 43.3045 66.0547 37.2337C67.2905 31.163 67.8816 24.9527 67.9783 18.7532C68.0213 15.6535 67.9353 12.543 67.7204 9.46472C67.6452 8.33851 67.5377 7.21231 67.4195 6.09683C63.7227 5.32457 59.8862 4.91699 55.953 4.91699C26.7655 4.93844 2.79011 27.3124 0.318416 55.8322C0.339909 55.843 0.361402 55.8537 0.382895 55.8751L2.6504 57.248L2.63966 57.2373Z" fill="black"/>
<path d="M54.0498 81.5205L51.3202 81.1236C50.4068 80.9949 49.5148 80.8019 48.6121 80.6517C47.8813 80.5123 47.1398 80.3836 46.4091 80.2548C43.7547 82.2498 40.9713 84.0625 38.0913 85.6714C35.222 87.3017 32.213 88.6638 29.1824 89.8973L26.8827 90.7768C26.1197 91.0664 25.3352 91.3024 24.5615 91.5705C23.0247 92.1175 21.4342 92.5251 19.876 92.9971C17.2001 93.7157 14.5027 94.3163 11.7946 94.8097C12.2782 95.4425 12.7833 96.0539 13.2991 96.6653C13.9332 96.6331 14.5672 96.6009 15.1905 96.5687C16.9744 96.4508 18.7476 96.3221 20.5315 96.1719C21.4235 96.1075 22.3047 96.011 23.1967 95.9145C24.0886 95.8287 24.9698 95.7536 25.851 95.6356C40.0042 94.0589 53.9853 90.3478 66.5158 83.8051C66.9993 83.5584 67.4722 83.2902 67.945 83.0328C65.1295 82.829 62.3139 82.5609 59.509 82.2177C57.6821 82.0461 55.8767 81.7457 54.0498 81.499V81.5205Z" fill="black"/>
<path d="M81.4114 83.612C81.2716 83.612 81.1319 83.612 80.9922 83.612C80.6591 83.8802 80.326 84.1483 79.9928 84.4057C76.9408 86.7761 73.7276 88.8998 70.3962 90.8305C68.7412 91.8173 67.0325 92.6861 65.3239 93.587C63.5937 94.4129 61.8742 95.2817 60.1011 96.0218C58.3494 96.8155 56.5547 97.4805 54.7708 98.1776C52.9654 98.8212 51.16 99.4755 49.3331 100.044C45.69 101.202 41.9825 102.2 38.2427 102.994C34.5029 103.787 30.7416 104.495 26.9589 104.924C25.4759 105.106 23.9928 105.246 22.5098 105.375C31.8378 112.357 43.4225 116.487 55.9852 116.487C79.1438 116.487 99.0033 102.425 107.482 82.4C106.085 82.5502 104.688 82.6896 103.28 82.8076C96.0266 83.4297 88.7297 83.7086 81.4221 83.6335L81.4114 83.612Z" fill="black"/>
<path d="M103.903 45.9325C103.431 49.7508 102.517 53.5478 101.185 57.1945C99.852 60.852 98.1003 64.3701 95.9725 67.6414C93.8339 70.902 91.3407 73.9374 88.6434 76.7154C87.4505 77.9703 86.1932 79.1609 84.9143 80.3085C90.9754 80.6089 97.0686 80.6625 103.151 80.4587C104.881 80.4051 106.611 80.3193 108.342 80.2227C110.62 74.1412 111.867 67.5663 111.867 60.6911C111.867 50.0512 108.879 40.1191 103.71 31.6565C103.85 32.5896 103.957 33.5227 104.032 34.4666C104.387 38.2528 104.376 42.1034 103.925 45.9217L103.903 45.9325Z" fill="black"/>
<path d="M119.085 20.9208C119.085 30.6122 111.228 38.4685 101.537 38.4685C91.8457 38.4685 83.9893 30.6122 83.9893 20.9208C83.9893 11.2294 91.8457 3.37305 101.537 3.37305C111.228 3.37305 119.085 11.2294 119.085 20.9208Z" fill="black"/>
<path fill-rule="evenodd" clip-rule="evenodd" d="M101.537 5.77266C93.1707 5.77266 86.3889 12.5545 86.3889 20.9204C86.3889 29.2863 93.1707 36.0681 101.537 36.0681C109.902 36.0681 116.684 29.2863 116.684 20.9204C116.684 12.5545 109.902 5.77266 101.537 5.77266ZM81.5889 20.9204C81.5889 9.90357 90.5198 0.972656 101.537 0.972656C112.553 0.972656 121.484 9.90357 121.484 20.9204C121.484 31.9372 112.553 40.8681 101.537 40.8681C90.5198 40.8681 81.5889 31.9372 81.5889 20.9204Z" fill="white"/>
</g>
<defs>
<clipPath id="clip0_1786_6717">
<rect width="122" height="117" fill="white"/>
</clipPath>
</defs>
</svg>
