<svg
  width="230"
  height="162"
  viewBox="0 0 230 162"
  fill="none"
  xmlns="http://www.w3.org/2000/svg"
>
  <g clip-path="url(#clip0_1754_3225)">
    <path
      d="M133.563 19.6472C133.057 26.2864 132.015 32.8935 130.296 39.3504C128.587 45.7966 126.201 52.0926 123.052 57.9918C121.473 60.9414 119.71 63.7944 117.744 66.4973C115.777 69.2002 113.617 71.7637 111.285 74.1448C110.511 74.9385 109.705 75.7108 108.899 76.4616C109.157 76.5259 109.415 76.5795 109.684 76.6332L112.317 77.1587C114.068 77.4912 115.82 77.8881 117.593 78.1455C122.139 78.9499 126.717 79.5506 131.327 80.0118C131.886 79.6471 132.445 79.2717 132.993 78.8856C135.873 76.8584 138.689 74.724 141.257 72.3214C143.825 69.9403 146.211 67.409 148.307 64.631C150.37 61.8423 152.175 58.8606 153.626 55.6858C157.667 46.8692 158.763 36.7226 157.366 26.7905C151.283 19.0572 143.191 12.9757 133.885 9.31824C133.885 9.43622 133.885 9.54348 133.885 9.66147C133.917 13.0079 133.81 16.3329 133.563 19.6579V19.6472Z"
      fill="url(#paint0_linear_1754_3225)"
    />
    <path
      d="M81.0766 89.6328C81.8073 89.3324 82.5488 89.0536 83.2796 88.7318L85.4397 87.745C88.2875 86.3721 91.0816 84.9027 93.7252 83.1866C95.4124 82.0925 97.0566 80.9342 98.6471 79.7114L93.8864 78.6496L89.8887 77.5877C88.1048 77.1158 86.3209 76.6653 84.5692 76.0861L79.2819 74.4343L74.0699 72.5573C73.1994 72.2356 72.3289 71.9352 71.4692 71.6027L68.9116 70.5409C67.2029 69.8223 65.4834 69.1358 63.7962 68.385L58.7669 66.0039L57.7137 65.4998C58.509 76.0003 62.2272 85.6857 68.0411 93.7515C70.9426 93.0543 73.812 92.2499 76.6383 91.306C78.132 90.759 79.6473 90.2656 81.1088 89.6435L81.0766 89.6328Z"
      fill="url(#paint1_linear_1754_3225)"
    />
    <path
      d="M60.0565 57.7344C60.4326 57.9703 60.8195 58.1849 61.2064 58.3887L62.367 59.0215L67.031 61.5528C68.6 62.3679 70.2119 63.0973 71.8024 63.8695L74.1989 65.0172C75.0049 65.3819 75.8323 65.7144 76.6383 66.0683L81.5387 68.1384L86.5359 69.9939C88.1908 70.6482 89.8888 71.163 91.5867 71.7208L94.1229 72.5467L95.391 72.9543L96.6805 73.3189L101.839 74.7562C102.484 74.9278 103.139 75.0779 103.784 75.2281C105.192 73.8659 106.557 72.4501 107.835 70.97C109.866 68.621 111.726 66.1327 113.391 63.5263C115.057 60.9199 116.529 58.1849 117.819 55.3747C120.398 49.7544 122.246 43.8016 123.472 37.7308C124.707 31.66 125.298 25.4498 125.395 19.2503C125.438 16.1506 125.352 13.0401 125.137 9.96179C125.062 8.83558 124.955 7.70938 124.836 6.5939C121.14 5.82164 117.303 5.41406 113.37 5.41406C84.1824 5.43551 60.2069 27.8095 57.7353 56.3293C57.7567 56.34 57.7782 56.3508 57.7997 56.3722L60.0672 57.7451L60.0565 57.7344Z"
      fill="url(#paint2_linear_1754_3225)"
    />
    <path
      d="M111.467 82.0176L108.737 81.6207C107.824 81.492 106.932 81.2989 106.029 81.1488C105.298 81.0093 104.557 80.8806 103.826 80.7519C101.172 82.7469 98.3882 84.5596 95.5081 86.1684C92.6388 87.7987 89.6298 89.1609 86.5993 90.3944L84.2995 91.2739C83.5365 91.5635 82.752 91.7995 81.9783 92.0676C80.4416 92.6146 78.8511 93.0222 77.2928 93.4941C74.617 94.2128 71.9196 94.8134 69.2115 95.3068C69.6951 95.9396 70.2001 96.551 70.716 97.1623C71.35 97.1302 71.9841 97.098 72.6074 97.0658C74.3913 96.9478 76.1644 96.8191 77.9484 96.669C78.8403 96.6046 79.7215 96.5081 80.6135 96.4115C81.5055 96.3257 82.3867 96.2507 83.2679 96.1327C97.421 94.556 111.402 90.8449 123.933 84.3021C124.416 84.0555 124.889 83.7873 125.362 83.5299C122.546 83.3261 119.731 83.058 116.926 82.7147C115.099 82.5431 113.294 82.2428 111.467 81.9961V82.0176Z"
      fill="url(#paint3_linear_1754_3225)"
    />
    <path
      d="M138.828 84.1091C138.688 84.1091 138.549 84.1091 138.409 84.1091C138.076 84.3773 137.743 84.6454 137.41 84.9028C134.358 87.2732 131.144 89.3969 127.813 91.3276C126.158 92.3143 124.449 93.1831 122.741 94.0841C121.011 94.91 119.291 95.7787 117.518 96.5188C115.766 97.3125 113.972 97.9775 112.188 98.6747C110.382 99.3183 108.577 99.9725 106.75 100.541C103.107 101.699 99.3993 102.697 95.6595 103.491C91.9198 104.284 88.1585 104.992 84.3757 105.421C82.8927 105.604 81.4097 105.743 79.9267 105.872C89.2546 112.854 100.839 116.984 113.402 116.984C136.561 116.984 156.42 102.922 164.899 82.8971C163.502 83.0473 162.105 83.1867 160.697 83.3047C153.443 83.9268 146.147 84.2056 138.839 84.1306L138.828 84.1091Z"
      fill="url(#paint4_linear_1754_3225)"
    />
    <path
      d="M161.32 46.4295C160.847 50.2479 159.934 54.0448 158.601 57.6916C157.269 61.3491 155.517 64.8671 153.389 68.1385C151.251 71.3991 148.758 74.4345 146.06 77.2125C144.867 78.4674 143.61 79.658 142.331 80.8056C148.392 81.1059 154.485 81.1596 160.568 80.9558C162.298 80.9022 164.028 80.8164 165.759 80.7198C168.037 74.6383 169.283 68.0634 169.283 61.1882C169.283 50.5482 166.296 40.6162 161.127 32.1535C161.266 33.0867 161.374 34.0198 161.449 34.9637C161.804 38.7499 161.793 42.6004 161.342 46.4188L161.32 46.4295Z"
      fill="url(#paint5_linear_1754_3225)"
    />
    <path
      d="M176.502 21.4179C176.502 31.1092 168.645 38.9656 158.954 38.9656C149.263 38.9656 141.406 31.1092 141.406 21.4179C141.406 11.7265 149.263 3.87012 158.954 3.87012C168.645 3.87012 176.502 11.7265 176.502 21.4179Z"
      fill="#12BDBD"
    />
    <path
      fill-rule="evenodd"
      clip-rule="evenodd"
      d="M158.954 6.26973C150.588 6.26973 143.806 13.0516 143.806 21.4175C143.806 29.7833 150.588 36.5652 158.954 36.5652C167.32 36.5652 174.102 29.7833 174.102 21.4175C174.102 13.0516 167.32 6.26973 158.954 6.26973ZM139.006 21.4175C139.006 10.4006 147.937 1.46973 158.954 1.46973C169.971 1.46973 178.902 10.4006 178.902 21.4175C178.902 32.4343 169.971 41.3652 158.954 41.3652C147.937 41.3652 139.006 32.4343 139.006 21.4175Z"
      fill="white"
    />
  </g>
  <path
    d="M39.9091 142.006H44.2247V157.684H53.0568V160.993H39.9091V142.006Z"
    fill="currentColor"
  />
  <path
    d="M70.1699 160.993L68.8689 157.987H61.5388L60.206 160.993H55.9169L64.9817 141.586H65.6163L74.5384 160.993H70.1646H70.1699ZM65.188 149.76L62.8398 155.045H67.589L65.299 149.76H65.1827H65.188Z"
    fill="currentColor"
  />
  <path
    d="M84.9905 141.999C86.9579 141.999 88.6397 142.546 89.9989 143.672C91.3899 144.767 92.0827 146.293 92.0827 148.224C92.0827 150.413 90.8345 152.808 88.259 153.986L93.2991 160.99H88.3753L83.3352 153.239V152.834C86.3497 152.487 87.8253 150.703 87.8253 148.829C87.8253 146.64 86.4079 145.256 84.1761 145.256H81.5688V160.99H77.2532V141.999H84.9852H84.9905Z"
    fill="currentColor"
  />
  <path
    d="M100.63 161.045H96.3145V141.985H100.63V161.045Z"
    fill="currentColor"
  />
  <path
    d="M117.11 142.008H121.394V153.396C121.394 155.716 120.701 157.602 119.279 159.059C117.861 160.491 115.83 161.206 113.197 161.206C107.781 161.206 104.999 158.203 104.999 153.48V142.008H109.315V153.454C109.315 155.831 110.674 157.717 113.223 157.717C115.772 157.717 117.105 155.914 117.105 153.595V142.008H117.11Z"
    fill="currentColor"
  />
  <path
    d="M11.3278 147.31L11.3163 147.201C11.2337 146.418 10.8879 145.815 10.278 145.381L10.2775 145.381C9.66999 144.945 8.87266 144.722 7.87544 144.722C7.17378 144.722 6.57878 144.829 6.08693 145.039C5.59248 145.25 5.22111 145.534 4.96577 145.886C4.71056 146.239 4.57963 146.64 4.57364 147.096C4.57376 147.475 4.65843 147.797 4.82301 148.068C4.99732 148.344 5.23323 148.58 5.533 148.777C5.83833 148.971 6.17747 149.135 6.55089 149.269C6.92822 149.405 7.30848 149.519 7.69169 149.611L7.69303 149.611L7.69303 149.611L9.46372 150.06C10.1838 150.229 10.8762 150.459 11.5409 150.748M11.3278 147.31L11.4925 150.86M11.3278 147.31H11.4372H14.7313H14.855L14.8528 147.186C14.834 146.086 14.529 145.11 13.936 144.26C13.3442 143.406 12.53 142.742 11.4976 142.267C10.4697 141.785 9.27669 141.545 7.92158 141.545C6.58445 141.545 5.38289 141.785 4.31923 142.266C3.25595 142.741 2.41095 143.411 1.78825 144.277L1.78791 144.278C1.16917 145.147 0.861119 146.159 0.861119 147.31C0.861119 148.709 1.3212 149.843 2.24744 150.697L2.24808 150.697C3.17077 151.536 4.42054 152.157 5.99009 152.565L11.3278 147.31ZM11.5409 150.748C11.5409 150.748 11.541 150.748 11.541 150.748L11.4925 150.86M11.5409 150.748C11.5408 150.748 11.5407 150.748 11.5407 150.748L11.4925 150.86M11.5409 150.748C12.2151 151.039 12.8187 151.406 13.3509 151.85M11.4925 150.86C12.1569 151.146 12.7505 151.507 13.2734 151.943C13.8024 152.379 14.2207 152.906 14.5283 153.522C14.8359 154.139 14.9897 154.861 14.9897 155.69C14.9897 156.811 14.7067 157.798 14.1408 158.651C13.5748 159.498 12.7567 160.161 11.6863 160.641C10.6221 161.114 9.33335 161.351 7.82008 161.351C6.34986 161.351 5.07342 161.12 3.99075 160.66C2.91423 160.199 2.07147 159.526 1.46247 158.642C0.878935 157.786 0.554764 156.749 0.489958 155.531H0.484375V155.409L0.605814 155.405C0.605875 155.406 0.605936 155.408 0.605998 155.409H3.85234C3.90155 156.076 4.10455 156.63 4.46134 157.072C4.81813 157.514 5.28257 157.844 5.85466 158.062C6.43291 158.28 7.07882 158.389 7.79239 158.389C8.53673 158.389 9.18879 158.277 9.74858 158.053M13.3509 151.85C13.3509 151.85 13.3508 151.85 13.3507 151.85L13.2734 151.943L13.3512 151.85C13.3511 151.85 13.351 151.85 13.3509 151.85ZM13.3509 151.85C13.8931 152.297 14.322 152.836 14.6371 153.468C14.9546 154.104 15.1112 154.846 15.1112 155.69C15.1112 156.832 14.8224 157.843 14.2421 158.718L14.2418 158.719C13.6614 159.587 12.824 160.264 11.736 160.752L11.7357 160.752C10.652 161.234 9.34549 161.472 7.82008 161.472C6.33745 161.472 5.04412 161.24 3.94315 160.771L3.94292 160.771C2.84727 160.302 1.98558 159.616 1.36238 158.711L1.36205 158.71C0.744105 157.804 0.412863 156.703 0.362936 155.414L0.358046 155.288H0.484375H3.85234H3.96522L3.97354 155.4C4.02126 156.047 4.21723 156.576 4.55592 156.996C4.89812 157.42 5.34421 157.738 5.89772 157.949M5.89772 157.949C5.89766 157.949 5.89759 157.949 5.89753 157.949L5.85468 158.062L5.89793 157.949C5.89786 157.949 5.89779 157.949 5.89772 157.949ZM5.89772 157.949C6.46027 158.161 7.0913 158.268 7.79239 158.268C8.52455 158.268 9.16055 158.158 9.70293 157.941M9.70293 157.941C9.70287 157.941 9.70281 157.941 9.70275 157.941L9.74858 158.053M9.70293 157.941C9.70309 157.94 9.70324 157.94 9.70339 157.94L9.74858 158.053M9.70293 157.941C10.2528 157.717 10.6771 157.411 10.9817 157.025M9.74858 158.053C10.3145 157.823 10.7574 157.505 11.0773 157.1M11.0773 157.1L10.9814 157.026C10.9815 157.025 10.9816 157.025 10.9817 157.025M11.0773 157.1C11.3972 156.689 11.5602 156.21 11.5664 155.662M11.0773 157.1L10.982 157.025C10.9819 157.025 10.9818 157.025 10.9817 157.025M10.9817 157.025C11.2839 156.637 11.4387 156.184 11.4448 155.662M11.5664 155.662L11.4448 155.663C11.4448 155.663 11.4448 155.662 11.4448 155.662M11.5664 155.662L11.4448 155.66C11.4448 155.661 11.4448 155.661 11.4448 155.662M11.5664 155.662L5.99016 152.565L8.14005 153.126L8.14038 153.126C8.81216 153.299 9.39608 153.496 9.89299 153.717L9.89464 153.718C10.3927 153.931 10.7725 154.195 11.0404 154.507L11.0412 154.508C11.3019 154.807 11.4387 155.188 11.4448 155.662"
    fill="currentColor"
    stroke="black"
    stroke-width="0.243061"
  />
  <path
    d="M160.052 142.006H164.367V157.684H173.2V160.993H160.052V142.006Z"
    fill="currentColor"
  />
  <path
    d="M190.313 160.993L189.012 157.987H181.681L180.349 160.993H176.06L185.124 141.586H185.759L194.681 160.993H190.307H190.313ZM185.331 149.76L182.983 155.045H187.732L185.442 149.76H185.325H185.331Z"
    fill="currentColor"
  />
  <path
    d="M197.643 160.756V160.875H197.762H205.316C206.755 160.875 207.959 160.654 208.921 160.204C209.88 159.756 210.604 159.141 211.086 158.359L211.086 158.358C211.566 157.573 211.805 156.689 211.805 155.71C211.805 154.753 211.608 153.93 211.206 153.244C210.808 152.565 210.293 152.038 209.661 151.665C209.093 151.321 208.499 151.118 207.881 151.056C208.439 150.906 208.95 150.676 209.411 150.365C209.919 150.023 210.324 149.577 210.624 149.031L210.625 149.03C210.928 148.472 211.076 147.807 211.076 147.038C211.076 146.101 210.846 145.259 210.384 144.516C209.927 143.769 209.236 143.185 208.319 142.761C207.406 142.33 206.266 142.117 204.906 142.117H197.762H197.643V142.236V160.756ZM207.739 154.027L207.739 154.028C208 154.448 208.132 154.92 208.132 155.448C208.132 156.149 207.873 156.719 207.353 157.166C206.845 157.602 205.996 157.834 204.779 157.834H201.262V152.646H204.87C205.554 152.646 206.136 152.773 206.62 153.022L206.621 153.022C207.107 153.266 207.478 153.601 207.739 154.027ZM207.068 148.815L207.068 148.816C206.814 149.188 206.464 149.479 206.014 149.688C205.564 149.891 205.056 149.993 204.487 149.993H201.262V145.123H204.56C205.54 145.123 206.256 145.351 206.73 145.787L206.731 145.788C207.215 146.228 207.457 146.787 207.457 147.472C207.457 147.994 207.326 148.44 207.068 148.815Z"
    fill="currentColor"
    stroke="black"
    stroke-width="0.238329"
  />
  <path
    d="M225.881 147.311L225.869 147.202C225.787 146.419 225.441 145.816 224.831 145.382L224.831 145.382C224.223 144.946 223.426 144.723 222.429 144.723C221.727 144.723 221.132 144.83 220.64 145.04C220.146 145.251 219.774 145.535 219.519 145.887C219.264 146.24 219.133 146.641 219.127 147.097C219.127 147.476 219.212 147.798 219.376 148.069C219.55 148.345 219.786 148.581 220.086 148.778C220.391 148.972 220.731 149.136 221.104 149.27C221.481 149.406 221.862 149.52 222.245 149.612L222.246 149.612L222.246 149.612L224.017 150.061C224.737 150.23 225.429 150.46 226.094 150.749M225.881 147.311L226.046 150.861M225.881 147.311H225.99H229.284H229.408L229.406 147.187C229.387 146.087 229.082 145.11 228.489 144.261C227.897 143.407 227.083 142.743 226.051 142.268C225.023 141.786 223.83 141.546 222.475 141.546C221.138 141.546 219.936 141.786 218.872 142.267C217.809 142.742 216.964 143.412 216.341 144.278L216.341 144.279C215.722 145.148 215.414 146.16 215.414 147.311C215.414 148.71 215.874 149.843 216.801 150.698L216.801 150.698C217.724 151.537 218.974 152.158 220.543 152.566L225.881 147.311ZM226.094 150.749C226.094 150.749 226.094 150.749 226.094 150.749L226.046 150.861M226.094 150.749C226.094 150.749 226.094 150.749 226.094 150.749L226.046 150.861M226.094 150.749C226.768 151.04 227.372 151.407 227.904 151.851M226.046 150.861C226.71 151.147 227.304 151.508 227.827 151.944C228.356 152.38 228.774 152.907 229.081 153.523C229.389 154.14 229.543 154.862 229.543 155.691C229.543 156.812 229.26 157.799 228.694 158.652C228.128 159.499 227.31 160.162 226.239 160.642C225.175 161.115 223.886 161.352 222.373 161.352C220.903 161.352 219.627 161.121 218.544 160.661C217.467 160.2 216.625 159.527 216.016 158.643C215.432 157.787 215.108 156.75 215.043 155.532H215.037V155.41L215.159 155.406C215.159 155.407 215.159 155.409 215.159 155.41H218.405C218.455 156.077 218.658 156.631 219.014 157.073C219.371 157.515 219.836 157.845 220.408 158.063C220.986 158.281 221.632 158.39 222.345 158.39C223.09 158.39 223.742 158.278 224.302 158.054M227.904 151.851C227.904 151.851 227.904 151.851 227.904 151.851L227.827 151.944L227.904 151.851C227.904 151.851 227.904 151.851 227.904 151.851ZM227.904 151.851C228.446 152.298 228.875 152.837 229.19 153.469C229.508 154.105 229.664 154.847 229.664 155.691C229.664 156.833 229.376 157.844 228.795 158.719L228.795 158.72C228.214 159.588 227.377 160.265 226.289 160.753L226.289 160.753C225.205 161.235 223.899 161.473 222.373 161.473C220.891 161.473 219.597 161.241 218.496 160.772L218.496 160.772C217.4 160.303 216.539 159.617 215.915 158.712L215.915 158.711C215.297 157.805 214.966 156.704 214.916 155.415L214.911 155.289H215.037H218.405H218.518L218.527 155.401C218.574 156.048 218.77 156.577 219.109 156.997C219.451 157.421 219.897 157.739 220.451 157.95M220.451 157.95C220.451 157.95 220.451 157.95 220.451 157.95L220.408 158.063L220.451 157.95C220.451 157.95 220.451 157.95 220.451 157.95ZM220.451 157.95C221.013 158.162 221.644 158.269 222.345 158.269C223.078 158.269 223.714 158.159 224.256 157.941M224.256 157.941C224.256 157.942 224.256 157.942 224.256 157.942L224.302 158.054M224.256 157.941C224.256 157.941 224.256 157.941 224.256 157.941L224.302 158.054M224.256 157.941C224.806 157.718 225.23 157.412 225.535 157.026M224.302 158.054C224.868 157.824 225.311 157.506 225.63 157.101M225.63 157.101L225.534 157.027C225.535 157.026 225.535 157.026 225.535 157.026M225.63 157.101C225.95 156.69 226.113 156.211 226.119 155.663M225.63 157.101L225.535 157.026C225.535 157.026 225.535 157.026 225.535 157.026M225.535 157.026C225.837 156.638 225.992 156.185 225.998 155.663M226.119 155.663L225.998 155.664C225.998 155.664 225.998 155.663 225.998 155.663M226.119 155.663L225.998 155.661C225.998 155.662 225.998 155.662 225.998 155.663M226.119 155.663L220.543 152.566L222.693 153.127L222.693 153.127C223.365 153.3 223.949 153.497 224.446 153.718L224.448 153.719C224.946 153.932 225.326 154.196 225.594 154.508L225.594 154.509C225.855 154.808 225.992 155.189 225.998 155.663"
    fill="currentColor"
    stroke="black"
    stroke-width="0.243061"
  />
  <path
    d="M135.977 157.48H135.337L130.006 151.686C129.98 151.713 129.948 151.713 129.921 151.713V160.991H125.78V141.656H126.415L135.654 152.292L144.862 141.656H145.47V160.996H141.297V151.718C141.271 151.692 141.239 151.692 141.181 151.692L135.966 157.486L135.977 157.48Z"
    fill="currentColor"
  />
  <path
    d="M26.8999 161.499C25.4387 161.499 24.0871 161.243 22.8451 160.732C21.6214 160.22 20.5438 159.508 19.6123 158.595C18.6808 157.682 17.9593 156.622 17.4479 155.417C16.9365 154.193 16.6808 152.878 16.6808 151.472C16.6808 150.047 16.9365 148.732 17.4479 147.526C17.9593 146.321 18.6716 145.271 19.5849 144.376C20.4981 143.462 21.5666 142.759 22.7903 142.266C24.0324 141.755 25.3839 141.499 26.8451 141.499C28.288 141.499 29.6214 141.755 30.8451 142.266C32.0871 142.759 33.1647 143.462 34.078 144.376C35.0095 145.271 35.7309 146.33 36.2423 147.554C36.7538 148.759 37.0095 150.074 37.0095 151.499C37.0095 152.905 36.7538 154.22 36.2423 155.444C35.7309 156.65 35.0186 157.709 34.1054 158.622C33.1921 159.517 32.1145 160.22 30.8725 160.732C29.6488 161.243 28.3246 161.499 26.8999 161.499ZM26.8451 157.581C27.9958 157.581 29.0004 157.326 29.8588 156.814C30.7355 156.303 31.4113 155.59 31.8862 154.677C32.3611 153.746 32.5985 152.677 32.5985 151.472C32.5985 150.558 32.4615 149.736 32.1876 149.006C31.9136 148.257 31.5209 147.618 31.0095 147.088C30.4981 146.54 29.8862 146.129 29.1739 145.855C28.4798 145.563 27.7036 145.417 26.8451 145.417C25.6944 145.417 24.6807 145.673 23.804 146.184C22.9456 146.677 22.2789 147.38 21.8041 148.294C21.3292 149.189 21.0917 150.248 21.0917 151.472C21.0917 152.385 21.2287 153.216 21.5027 153.965C21.7767 154.714 22.1602 155.362 22.6534 155.91C23.1648 156.44 23.7766 156.851 24.489 157.143C25.2013 157.435 25.9867 157.581 26.8451 157.581Z"
    fill="currentColor"
  />
  <defs>
    <linearGradient
      id="paint0_linear_1754_3225"
      x1="143.365"
      y1="13.7644"
      x2="56.0214"
      y2="101.256"
      gradientUnits="userSpaceOnUse"
    >
      <stop stop-color="#02C6B4" />
      <stop offset="1" stop-color="#6C83FF" />
    </linearGradient>
    <linearGradient
      id="paint1_linear_1754_3225"
      x1="143.365"
      y1="13.7644"
      x2="56.0214"
      y2="101.256"
      gradientUnits="userSpaceOnUse"
    >
      <stop stop-color="#02C6B4" />
      <stop offset="1" stop-color="#6C83FF" />
    </linearGradient>
    <linearGradient
      id="paint2_linear_1754_3225"
      x1="143.365"
      y1="13.7644"
      x2="56.0214"
      y2="101.256"
      gradientUnits="userSpaceOnUse"
    >
      <stop stop-color="#02C6B4" />
      <stop offset="1" stop-color="#6C83FF" />
    </linearGradient>
    <linearGradient
      id="paint3_linear_1754_3225"
      x1="143.365"
      y1="13.7644"
      x2="56.0214"
      y2="101.256"
      gradientUnits="userSpaceOnUse"
    >
      <stop stop-color="#02C6B4" />
      <stop offset="1" stop-color="#6C83FF" />
    </linearGradient>
    <linearGradient
      id="paint4_linear_1754_3225"
      x1="143.365"
      y1="13.7644"
      x2="56.0214"
      y2="101.256"
      gradientUnits="userSpaceOnUse"
    >
      <stop stop-color="#02C6B4" />
      <stop offset="1" stop-color="#6C83FF" />
    </linearGradient>
    <linearGradient
      id="paint5_linear_1754_3225"
      x1="143.365"
      y1="13.7644"
      x2="56.0214"
      y2="101.256"
      gradientUnits="userSpaceOnUse"
    >
      <stop stop-color="#02C6B4" />
      <stop offset="1" stop-color="#6C83FF" />
    </linearGradient>
    <clipPath id="clip0_1754_3225">
      <rect
        width="120"
        height="120"
        fill="white"
        transform="translate(55.0136 0.499023)"
      />
    </clipPath>
  </defs>
</svg>
