<svg width="230" height="162" viewBox="0 0 230 162" fill="none" xmlns="http://www.w3.org/2000/svg">
<g clip-path="url(#clip0_1786_6753)">
<path d="M133.563 19.6501C133.058 26.2893 132.015 32.8964 130.296 39.3533C128.587 45.7995 126.201 52.0955 123.053 57.9947C121.473 60.9443 119.71 63.7974 117.744 66.5003C115.777 69.2032 113.617 71.7666 111.285 74.1477C110.511 74.9414 109.705 75.7137 108.899 76.4645C109.157 76.5289 109.415 76.5825 109.684 76.6361L112.317 77.1617C114.069 77.4942 115.82 77.891 117.593 78.1484C122.139 78.9529 126.717 79.5535 131.327 80.0147C131.886 79.6501 132.445 79.2746 132.993 78.8885C135.873 76.8614 138.689 74.7269 141.257 72.3244C143.826 69.9432 146.211 67.4119 148.307 64.634C150.37 61.8453 152.176 58.8635 153.626 55.6887C157.667 46.8721 158.763 36.7255 157.366 26.7935C151.284 19.0602 143.192 12.9787 133.885 9.32117C133.885 9.43915 133.885 9.54641 133.885 9.6644C133.917 13.0108 133.81 16.3358 133.563 19.6608V19.6501Z" fill="black"/>
<path d="M81.0767 89.6357C81.8075 89.3354 82.549 89.0565 83.2798 88.7347L85.4398 87.748C88.2876 86.3751 91.0817 84.9056 93.7254 83.1895C95.4126 82.0955 97.0568 80.9371 98.6472 79.7144L93.8865 78.6525L89.8889 77.5907C88.1049 77.1187 86.321 76.6682 84.5693 76.089L79.2821 74.4373L74.07 72.5603C73.1996 72.2385 72.3291 71.9382 71.4694 71.6057L68.9117 70.5438C67.203 69.8252 65.4836 69.1387 63.7964 68.3879L58.767 66.0068L57.7139 65.5027C58.5091 76.0032 62.2274 85.6886 68.0412 93.7544C70.9428 93.0572 73.8121 92.2528 76.6384 91.3089C78.1322 90.7619 79.6474 90.2685 81.109 89.6464L81.0767 89.6357Z" fill="black"/>
<path d="M60.0567 57.7373C60.4328 57.9733 60.8197 58.1878 61.2065 58.3916L62.3671 59.0244L67.0311 61.5557C68.6001 62.3708 70.2121 63.1002 71.8026 63.8724L74.199 65.0201C75.005 65.3848 75.8325 65.7173 76.6385 66.0712L81.5389 68.1413L86.536 69.9969C88.191 70.6511 89.8889 71.166 91.5869 71.7237L94.123 72.5496L95.3911 72.9572L96.6807 73.3219L101.839 74.7591C102.484 74.9307 103.139 75.0809 103.784 75.231C105.192 73.8689 106.557 72.4531 107.836 70.9729C109.867 68.624 111.726 66.1356 113.391 63.5292C115.057 60.9229 116.529 58.1878 117.819 55.3776C120.398 49.7573 122.247 43.8045 123.472 37.7337C124.708 31.663 125.299 25.4527 125.395 19.2532C125.438 16.1535 125.352 13.043 125.137 9.96472C125.062 8.83851 124.955 7.71231 124.836 6.59683C121.14 5.82457 117.303 5.41699 113.37 5.41699C84.1825 5.43844 60.2071 27.8124 57.7354 56.3322C57.7569 56.343 57.7784 56.3537 57.7999 56.3751L60.0674 57.748L60.0567 57.7373Z" fill="black"/>
<path d="M111.467 82.0205L108.737 81.6236C107.824 81.4949 106.932 81.3019 106.029 81.1517C105.298 81.0123 104.557 80.8836 103.826 80.7548C101.172 82.7498 98.3883 84.5625 95.5083 86.1714C92.639 87.8017 89.63 89.1638 86.5994 90.3973L84.2997 91.2768C83.5367 91.5664 82.7522 91.8024 81.9785 92.0705C80.4417 92.6175 78.8512 93.0251 77.293 93.4971C74.6171 94.2157 71.9197 94.8163 69.2116 95.3097C69.6952 95.9425 70.2003 96.5539 70.7161 97.1653C71.3502 97.1331 71.9842 97.1009 72.6075 97.0687C74.3914 96.9508 76.1646 96.8221 77.9485 96.6719C78.8405 96.6075 79.7217 96.511 80.6136 96.4145C81.5056 96.3287 82.3868 96.2536 83.268 96.1356C97.4212 94.5589 111.402 90.8478 123.933 84.3051C124.416 84.0584 124.889 83.7902 125.362 83.5328C122.546 83.329 119.731 83.0609 116.926 82.7177C115.099 82.5461 113.294 82.2457 111.467 81.999V82.0205Z" fill="black"/>
<path d="M138.828 84.112C138.689 84.112 138.549 84.112 138.409 84.112C138.076 84.3802 137.743 84.6483 137.41 84.9057C134.358 87.2761 131.145 89.3998 127.813 91.3305C126.158 92.3173 124.45 93.1861 122.741 94.087C121.011 94.9129 119.291 95.7817 117.518 96.5218C115.766 97.3155 113.972 97.9805 112.188 98.6776C110.382 99.3212 108.577 99.9755 106.75 100.544C103.107 101.702 99.3995 102.7 95.6597 103.494C91.9199 104.287 88.1586 104.995 84.3759 105.424C82.8929 105.606 81.4098 105.746 79.9268 105.875C89.2548 112.857 100.839 116.987 113.402 116.987C136.561 116.987 156.42 102.925 164.899 82.9C163.502 83.0502 162.105 83.1896 160.697 83.3076C153.444 83.9297 146.147 84.2086 138.839 84.1335L138.828 84.112Z" fill="black"/>
<path d="M161.32 46.4325C160.848 50.2508 159.934 54.0478 158.602 57.6945C157.269 61.352 155.517 64.8701 153.389 68.1414C151.251 71.402 148.758 74.4374 146.06 77.2154C144.867 78.4703 143.61 79.6609 142.331 80.8085C148.392 81.1089 154.486 81.1625 160.568 80.9587C162.298 80.9051 164.028 80.8193 165.759 80.7227C168.037 74.6412 169.284 68.0663 169.284 61.1911C169.284 50.5512 166.296 40.6191 161.127 32.1565C161.267 33.0896 161.374 34.0227 161.449 34.9666C161.804 38.7528 161.793 42.6034 161.342 46.4217L161.32 46.4325Z" fill="black"/>
<path d="M176.502 21.4208C176.502 31.1122 168.645 38.9685 158.954 38.9685C149.263 38.9685 141.406 31.1122 141.406 21.4208C141.406 11.7294 149.263 3.87305 158.954 3.87305C168.645 3.87305 176.502 11.7294 176.502 21.4208Z" fill="black"/>
<path fill-rule="evenodd" clip-rule="evenodd" d="M158.954 6.27266C150.588 6.27266 143.806 13.0545 143.806 21.4204C143.806 29.7863 150.588 36.5681 158.954 36.5681C167.32 36.5681 174.102 29.7863 174.102 21.4204C174.102 13.0545 167.32 6.27266 158.954 6.27266ZM139.006 21.4204C139.006 10.4036 147.937 1.47266 158.954 1.47266C169.971 1.47266 178.902 10.4036 178.902 21.4204C178.902 32.4372 169.971 41.3681 158.954 41.3681C147.937 41.3681 139.006 32.4372 139.006 21.4204Z" fill="white"/>
</g>
<path fill-rule="evenodd" clip-rule="evenodd" d="M225.748 147.217L225.771 147.434H229.532L229.527 147.187C229.508 146.065 229.196 145.064 228.589 144.194C227.983 143.32 227.152 142.643 226.102 142.159C225.055 141.668 223.844 141.427 222.475 141.427C221.123 141.427 219.904 141.669 218.822 142.158C217.742 142.641 216.879 143.324 216.243 144.209L216.242 144.21C215.607 145.102 215.293 146.139 215.293 147.312C215.293 148.741 215.764 149.909 216.718 150.789L216.719 150.79C217.66 151.646 218.93 152.274 220.513 152.686L222.663 153.247C223.33 153.418 223.907 153.614 224.397 153.831L224.4 153.833C224.885 154.04 225.248 154.294 225.501 154.589L225.503 154.591C225.741 154.864 225.87 155.216 225.876 155.665C225.87 156.161 225.724 156.587 225.439 156.953C225.15 157.319 224.744 157.613 224.211 157.831C223.685 158.041 223.065 158.149 222.345 158.149C221.657 158.149 221.041 158.044 220.494 157.838C219.959 157.634 219.531 157.328 219.203 156.922C218.883 156.525 218.694 156.02 218.648 155.394L218.631 155.169H214.785L214.794 155.422C214.845 156.729 215.182 157.853 215.815 158.781L215.815 158.782C216.453 159.708 217.334 160.409 218.449 160.886C219.568 161.363 220.878 161.597 222.373 161.597C223.911 161.597 225.236 161.356 226.339 160.866C227.444 160.37 228.301 159.679 228.896 158.788C229.491 157.891 229.786 156.857 229.786 155.692C229.786 154.834 229.626 154.073 229.299 153.417C228.976 152.77 228.537 152.217 227.982 151.759C227.44 151.308 226.826 150.935 226.142 150.639C225.471 150.347 224.772 150.116 224.046 149.944L222.276 149.496L222.273 149.496C221.894 149.404 221.518 149.292 221.145 149.158C220.779 149.026 220.449 148.866 220.152 148.678C219.866 148.49 219.643 148.266 219.479 148.007C219.328 147.758 219.248 147.459 219.248 147.099C219.254 146.668 219.377 146.291 219.617 145.96C219.857 145.629 220.209 145.358 220.688 145.154C221.161 144.952 221.739 144.846 222.428 144.846C223.408 144.846 224.178 145.066 224.76 145.483L224.76 145.483C225.341 145.896 225.669 146.466 225.748 147.217ZM68.869 157.99L70.17 160.996H74.5385L65.6165 141.589H64.9818L55.917 160.996H60.2061L61.5389 157.99H68.869ZM62.8399 155.048L65.1881 149.763H65.2991L67.5891 155.048H62.8399ZM44.2248 142.009H39.9092V160.996H53.0569V157.687H44.2248V142.009ZM84.9908 142.002C86.9582 142.002 88.64 142.549 89.9992 143.675C91.3901 144.77 92.0829 146.296 92.0829 148.227C92.0829 150.416 90.8348 152.81 88.2592 153.989L93.2993 160.993H88.3755L83.3354 153.242V152.837C86.35 152.489 87.8255 150.706 87.8255 148.832C87.8255 146.643 86.4081 145.259 84.1763 145.259H81.569V160.993H77.2534V142.002H84.9855H84.9908ZM96.3145 161.048H100.63V141.988H96.3145V161.048ZM117.11 142.011H121.394V153.399C121.394 155.719 120.701 157.605 119.279 159.062C117.861 160.494 115.83 161.209 113.197 161.209C107.781 161.209 104.999 158.205 104.999 153.483V142.011H109.315V153.457C109.315 155.834 110.674 157.72 113.223 157.72C115.772 157.72 117.105 155.917 117.105 153.598V142.011H117.11ZM10.3484 145.285C10.9881 145.74 11.3511 146.375 11.4372 147.191H14.7313C14.7129 146.114 14.4145 145.161 13.8363 144.332C13.258 143.498 12.4614 142.847 11.4464 142.38C10.4376 141.907 9.26261 141.67 7.92158 141.67C6.599 141.67 5.41483 141.907 4.36907 142.38C3.32331 142.847 2.49593 143.504 1.88692 144.351C1.28408 145.198 0.982649 146.185 0.982649 147.313C0.982649 148.683 1.43171 149.782 2.32983 150.61C3.23411 151.432 4.46441 152.046 6.02075 152.451L8.17071 153.011C8.84738 153.186 9.43793 153.385 9.94235 153.609C10.4529 153.827 10.8497 154.101 11.1327 154.431C11.4156 154.755 11.5602 155.166 11.5664 155.664C11.5602 156.213 11.3972 156.692 11.0773 157.103C10.7574 157.508 10.3145 157.826 9.74858 158.056C9.18879 158.28 8.53673 158.392 7.79239 158.392C7.07882 158.392 6.43291 158.283 5.85466 158.065C5.28257 157.847 4.81813 157.517 4.46134 157.075C4.10455 156.633 3.90155 156.079 3.85234 155.412H0.484375C0.533587 156.683 0.859619 157.76 1.46247 158.645C2.07147 159.529 2.91423 160.202 3.99075 160.663C5.07342 161.123 6.34986 161.354 7.82008 161.354C9.33335 161.354 10.6221 161.117 11.6863 160.644C12.7567 160.164 13.5748 159.501 14.1408 158.654C14.7067 157.801 14.9897 156.814 14.9897 155.692C14.9897 154.864 14.8359 154.142 14.5283 153.525C14.2207 152.909 13.8024 152.382 13.2734 151.946C12.7505 151.51 12.1569 151.149 11.4925 150.863C10.8343 150.576 10.1484 150.349 9.43485 150.181L7.66321 149.732C7.27566 149.639 6.89119 149.524 6.5098 149.387C6.1284 149.25 5.78084 149.081 5.46711 148.882C5.15339 148.677 4.90425 148.427 4.7197 148.135C4.54131 147.842 4.45211 147.496 4.45211 147.098C4.45827 146.618 4.59667 146.192 4.86734 145.818C5.13801 145.444 5.52863 145.148 6.03921 144.93C6.54979 144.712 7.16186 144.603 7.87544 144.603C8.89044 144.603 9.71475 144.831 10.3484 145.285ZM160.052 142.009H164.367V157.687H173.199V160.996H160.052V142.009ZM189.012 157.99L190.313 160.996H194.681L185.759 141.589H185.124L176.06 160.996H180.349L181.681 157.99H189.012ZM182.982 155.048L185.331 149.763H185.442L187.732 155.048H182.982ZM197.523 160.997V142.001H204.906C206.278 142.001 207.436 142.215 208.37 142.656C209.304 143.089 210.014 143.687 210.486 144.456C210.96 145.22 211.196 146.084 211.196 147.041C211.196 147.825 211.044 148.511 210.729 149.09L210.729 149.091C210.419 149.654 210.002 150.114 209.477 150.467C209.141 150.694 208.779 150.879 208.392 151.022C208.85 151.125 209.294 151.307 209.722 151.566C210.372 151.95 210.901 152.492 211.309 153.187C211.723 153.894 211.925 154.74 211.925 155.713C211.925 156.712 211.68 157.618 211.188 158.424C210.692 159.229 209.948 159.858 208.971 160.315C207.989 160.774 206.767 160.997 205.316 160.997H197.523ZM207.638 154.094L207.637 154.092C207.389 153.687 207.035 153.367 206.567 153.132L206.565 153.131C206.102 152.892 205.539 152.768 204.87 152.768H201.381V157.717H204.779C205.986 157.717 206.799 157.487 207.275 157.079C207.768 156.655 208.012 156.118 208.012 155.451C208.012 154.944 207.887 154.494 207.638 154.094ZM206.97 148.751C207.213 148.397 207.338 147.976 207.338 147.475C207.338 146.822 207.109 146.296 206.651 145.879L206.649 145.878C206.206 145.469 205.523 145.245 204.56 145.245H201.381V149.877H204.487C205.041 149.877 205.532 149.777 205.965 149.582C206.396 149.382 206.729 149.104 206.97 148.751ZM135.977 157.483H135.971L141.181 151.695C141.239 151.695 141.271 151.695 141.297 151.721V160.999H145.47V141.659H144.862L135.654 152.295L126.415 141.659H125.78V160.993H129.921V151.716C129.948 151.716 129.979 151.716 130.006 151.689L135.337 157.483H135.971L135.966 157.489L135.977 157.483ZM22.845 160.735C24.087 161.246 25.4386 161.502 26.8998 161.502C28.3244 161.502 29.6486 161.246 30.8724 160.735C32.1144 160.223 33.192 159.52 34.1052 158.625C35.0185 157.712 35.7308 156.653 36.2422 155.447C36.7536 154.223 37.0093 152.908 37.0093 151.502C37.0093 150.077 36.7536 148.762 36.2422 147.557C35.7308 146.333 35.0093 145.274 34.0778 144.379C33.1646 143.465 32.087 142.762 30.845 142.269C29.6212 141.758 28.2879 141.502 26.845 141.502C25.3838 141.502 24.0322 141.758 22.7902 142.269C21.5665 142.762 20.498 143.465 19.5848 144.379C18.6715 145.274 17.9592 146.324 17.4478 147.529C16.9364 148.735 16.6807 150.05 16.6807 151.475C16.6807 152.881 16.9364 154.196 17.4478 155.42C17.9592 156.625 18.6807 157.685 19.6122 158.598C20.5437 159.511 21.6213 160.223 22.845 160.735ZM29.8587 156.817C29.0002 157.328 27.9957 157.584 26.845 157.584C25.9866 157.584 25.2012 157.438 24.4888 157.146C23.7765 156.854 23.1647 156.443 22.6532 155.913C22.1601 155.365 21.7765 154.717 21.5026 153.968C21.2286 153.219 21.0916 152.388 21.0916 151.475C21.0916 150.251 21.329 149.191 21.8039 148.296C22.2788 147.383 22.9455 146.68 23.8039 146.187C24.6806 145.675 25.6943 145.42 26.845 145.42C27.7034 145.42 28.4797 145.566 29.1738 145.858C29.8861 146.132 30.498 146.543 31.0094 147.091C31.5208 147.621 31.9135 148.26 32.1875 149.009C32.4614 149.739 32.5984 150.561 32.5984 151.475C32.5984 152.68 32.361 153.749 31.8861 154.68C31.4112 155.593 30.7354 156.306 29.8587 156.817Z" fill="black"/>
<defs>
<clipPath id="clip0_1786_6753">
<rect width="120" height="120" fill="white" transform="translate(55.0137 0.501953)"/>
</clipPath>
</defs>
</svg>
