<svg
  width="372"
  height="56"
  viewBox="0 0 372 56"
  fill="none"
  xmlns="http://www.w3.org/2000/svg"
>
  <g>
    <path
      d="M36.6561 8.93508C36.4204 12.0334 35.934 15.1167 35.1316 18.1299C34.3342 21.1381 33.2208 24.0763 31.7514 26.8292C31.0142 28.2057 30.1917 29.5371 29.274 30.7985C28.3562 32.0598 27.3482 33.2561 26.26 34.3673C25.8989 34.7377 25.5228 35.0981 25.1466 35.4485C25.267 35.4785 25.3874 35.5035 25.5127 35.5286L26.7414 35.7738C27.5589 35.929 28.3763 36.1142 29.2038 36.2343C31.3251 36.6097 33.4615 36.89 35.613 37.1052C35.8738 36.9351 36.1346 36.7599 36.3903 36.5797C37.7344 35.6337 39.0483 34.6376 40.2469 33.5164C41.4455 32.4052 42.5588 31.2239 43.5367 29.9276C44.4996 28.6262 45.3422 27.2347 46.0192 25.7531C47.9048 21.6387 48.4164 16.9036 47.7644 12.2687C44.9259 8.65979 41.1496 5.82175 36.8066 4.11492C36.8066 4.16998 36.8066 4.22003 36.8066 4.27509C36.8216 5.83676 36.7715 7.38842 36.6561 8.94009V8.93508Z"
      fill="url(#solarium_labs_horizontal_paint_0)"
    />
    <path
      d="M12.1627 41.595C12.5037 41.4549 12.8497 41.3247 13.1908 41.1746L14.1988 40.7141C15.5278 40.0734 16.8317 39.3877 18.0654 38.5868C18.8527 38.0763 19.62 37.5357 20.3623 36.9651L18.1406 36.4695L16.275 35.974C15.4425 35.7538 14.61 35.5436 13.7926 35.2733L11.3252 34.5024L8.89288 33.6265C8.48666 33.4763 8.08045 33.3362 7.67925 33.181L6.48567 32.6855C5.68828 32.3501 4.88587 32.0298 4.09852 31.6794L1.75148 30.5682L1.26001 30.333C1.63112 35.2332 3.36632 39.7531 6.07945 43.5171C7.43351 43.1917 8.77252 42.8163 10.0915 42.3759C10.7886 42.1206 11.4957 41.8903 12.1777 41.6L12.1627 41.595Z"
      fill="url(#solarium_labs_horizontal_paint_1)"
    />
    <path
      d="M2.35331 26.7091C2.52883 26.8192 2.70938 26.9193 2.88992 27.0144L3.43154 27.3098L5.60806 28.491C6.34026 28.8714 7.09251 29.2118 7.83473 29.5722L8.95309 30.1078C9.32921 30.2779 9.71537 30.4331 10.0915 30.5983L12.3784 31.5643L14.7103 32.4302C15.4827 32.7356 16.275 32.9758 17.0674 33.2361L18.251 33.6215L18.8427 33.8117L19.4445 33.9819L21.8517 34.6526C22.1526 34.7327 22.4586 34.8028 22.7595 34.8729C23.4164 34.2372 24.0533 33.5765 24.6501 32.8857C25.598 31.7896 26.4656 30.6283 27.2429 29.412C28.0202 28.1957 28.7073 26.9193 29.3091 25.6079C30.5127 22.9851 31.3753 20.2072 31.947 17.3741C32.5237 14.5411 32.7995 11.643 32.8447 8.74988C32.8647 7.30333 32.8246 5.85178 32.7243 4.41524C32.6892 3.88968 32.6391 3.36412 32.5839 2.84356C30.8587 2.48317 29.0684 2.29297 27.2329 2.29297C13.612 2.30298 2.42352 12.7442 1.27006 26.0534C1.28009 26.0584 1.29012 26.0634 1.30015 26.0734L2.35832 26.7141L2.35331 26.7091Z"
      fill="url(#solarium_labs_horizontal_paint_2)"
    />
    <path
      d="M26.3447 38.0413L25.0709 37.8561C24.6446 37.796 24.2284 37.7059 23.8071 37.6358C23.4661 37.5708 23.1201 37.5107 22.779 37.4506C21.5403 38.3816 20.2414 39.2275 18.8974 39.9783C17.5584 40.7392 16.1542 41.3748 14.7399 41.9505L13.6667 42.3609C13.3107 42.496 12.9446 42.6062 12.5835 42.7313C11.8663 42.9866 11.1241 43.1768 10.3969 43.397C9.14819 43.7324 7.88942 44.0127 6.62563 44.2429C6.85131 44.5382 7.08701 44.8235 7.32773 45.1088C7.62362 45.0938 7.91951 45.0788 8.21038 45.0638C9.04287 45.0087 9.87035 44.9487 10.7028 44.8786C11.1191 44.8486 11.5303 44.8035 11.9466 44.7585C12.3628 44.7184 12.7741 44.6834 13.1853 44.6283C19.7901 43.8925 26.3146 42.1607 32.1622 39.1074C32.3878 38.9923 32.6085 38.8671 32.8292 38.747C31.5152 38.6519 30.2013 38.5268 28.8924 38.3666C28.0398 38.2865 27.1973 38.1464 26.3447 38.0313V38.0413Z"
      fill="url(#solarium_labs_horizontal_paint_3)"
    />
    <path
      d="M39.1134 39.0173C39.0482 39.0173 38.983 39.0173 38.9178 39.0173C38.7624 39.1425 38.6069 39.2676 38.4514 39.3877C37.0272 40.4939 35.5277 41.485 33.973 42.3859C33.2007 42.8464 32.4033 43.2519 31.6059 43.6723C30.7985 44.0577 29.9961 44.4632 29.1686 44.8085C28.3512 45.1789 27.5137 45.4893 26.6812 45.8146C25.8387 46.1149 24.9961 46.4203 24.1436 46.6855C22.4435 47.2261 20.7133 47.6916 18.9681 48.062C17.2228 48.4324 15.4676 48.7628 13.7023 48.963C13.0102 49.0481 12.3181 49.1131 11.6261 49.1732C15.9791 52.4317 21.3853 54.3588 27.2479 54.3588C38.0553 54.3588 47.323 47.7967 51.2799 38.4517C50.6279 38.5218 49.976 38.5869 49.319 38.6419C45.9339 38.9322 42.5287 39.0624 39.1184 39.0273L39.1134 39.0173Z"
      fill="url(#solarium_labs_horizontal_paint_4)"
    />
    <path
      d="M49.6097 21.4335C49.3891 23.2154 48.9628 24.9873 48.3409 26.6891C47.719 28.396 46.9016 30.0377 45.9086 31.5644C44.9106 33.086 43.7471 34.5025 42.4884 35.7989C41.9317 36.3845 41.3449 36.9401 40.7482 37.4757C43.5766 37.6158 46.4202 37.6409 49.2587 37.5458C50.0661 37.5207 50.8735 37.4807 51.6809 37.4357C52.7441 34.5976 53.3259 31.5293 53.3259 28.3209C53.3259 23.3556 51.9317 18.7206 49.5194 14.7714C49.5846 15.2069 49.6348 15.6423 49.6699 16.0828C49.8354 17.8497 49.8304 19.6466 49.6197 21.4285L49.6097 21.4335Z"
      fill="url(#solarium_labs_horizontal_paint_5)"
    />
    <path
      d="M56.6944 9.76122C56.6944 14.2838 53.0281 17.9502 48.5055 17.9502C43.9828 17.9502 40.3165 14.2838 40.3165 9.76122C40.3165 5.23858 43.9828 1.57227 48.5055 1.57227C53.0281 1.57227 56.6944 5.23858 56.6944 9.76122Z"
      fill="#12BDBD"
    />
    <path
      fill-rule="evenodd"
      clip-rule="evenodd"
      d="M48.5055 2.69215C44.6014 2.69215 41.4365 5.85702 41.4365 9.7611C41.4365 13.6652 44.6014 16.83 48.5055 16.83C52.4096 16.83 55.5744 13.6652 55.5744 9.7611C55.5744 5.85702 52.4096 2.69215 48.5055 2.69215ZM39.1965 9.7611C39.1965 4.61991 43.3643 0.452148 48.5055 0.452148C53.6467 0.452148 57.8144 4.61991 57.8144 9.7611C57.8144 14.9023 53.6467 19.07 48.5055 19.07C43.3643 19.07 39.1965 14.9023 39.1965 9.7611Z"
      fill="white"
    />
  </g>
  <path
    fill-rule="evenodd"
    clip-rule="evenodd"
    d="M366.387 22.3919L366.417 22.6759H371.326L371.32 22.3531C371.295 20.8884 370.888 19.5825 370.095 18.4462C369.305 17.3058 368.219 16.4214 366.848 15.7904C365.482 15.1494 363.901 14.834 362.113 14.834C360.349 14.834 358.758 15.1498 357.346 15.7887C355.935 16.419 354.809 17.3106 353.978 18.466L353.977 18.4673C353.149 19.6313 352.738 20.9855 352.738 22.5171C352.738 24.3824 353.353 25.9062 354.599 27.0552L354.601 27.0567C355.829 28.1736 357.486 28.994 359.552 29.5315L362.359 30.2633C363.23 30.4877 363.984 30.7426 364.622 31.0266L364.627 31.0284C365.26 31.299 365.734 31.6311 366.064 32.0163L366.066 32.0185C366.378 32.3749 366.546 32.8338 366.554 33.4197C366.546 34.0676 366.355 34.6241 365.983 35.1018C365.606 35.5793 365.076 35.9634 364.38 36.2472C363.694 36.5216 362.885 36.6632 361.945 36.6632C361.046 36.6632 360.242 36.526 359.528 36.2569C358.829 35.9908 358.271 35.5917 357.843 35.0617C357.425 34.543 357.178 33.8841 357.118 33.0669L357.096 32.7729H352.075L352.088 33.1025C352.154 34.8093 352.593 36.2762 353.42 37.4884L353.42 37.4897C354.253 38.698 355.403 39.6128 356.858 40.2358C358.319 40.8578 360.029 41.1636 361.981 41.1636C363.988 41.1636 365.718 40.8495 367.158 40.209C368.601 39.5624 369.719 38.6607 370.496 37.4982L370.496 37.4973C371.273 36.3266 371.657 34.9757 371.657 33.4561C371.657 32.3355 371.449 31.3421 371.022 30.4852C370.601 29.641 370.027 28.919 369.302 28.3216C368.595 27.7321 367.794 27.2452 366.901 26.8601C366.025 26.4788 365.113 26.1764 364.164 25.9528L361.854 25.368L361.851 25.3672C361.356 25.248 360.865 25.1009 360.378 24.9258C359.901 24.7544 359.469 24.5453 359.081 24.2993C358.708 24.0545 358.418 23.7622 358.203 23.4231C358.007 23.0992 357.902 22.7085 357.902 22.2387C357.909 21.6762 358.07 21.1841 358.383 20.752C358.697 20.3194 359.156 19.9657 359.781 19.6992C360.398 19.4355 361.153 19.2978 362.053 19.2978C363.332 19.2978 364.337 19.5839 365.096 20.1286L365.098 20.1294C365.855 20.6675 366.284 21.4127 366.387 22.3919ZM86.3119 22.3921L86.3419 22.6761H91.2504L91.2449 22.3534C91.2198 20.8886 90.813 19.5828 90.02 18.4464C89.2299 17.306 88.1439 16.4216 86.7732 15.7906C85.4067 15.1497 83.8256 14.8342 82.0382 14.8342C80.2738 14.8342 78.6826 15.1501 77.2707 15.789C75.8599 16.4193 74.7338 17.3109 73.9031 18.4663L73.9022 18.4675C73.0737 19.6315 72.663 20.9857 72.663 22.5174C72.663 24.3827 73.2779 25.9065 74.5237 27.0555L74.5254 27.057C75.754 28.1739 77.4109 28.9943 79.4771 29.5317L82.2843 30.2636C83.1548 30.488 83.9084 30.7428 84.5473 31.0268L84.5516 31.0286C85.1853 31.2992 85.6589 31.6314 85.9891 32.0165L85.991 32.0188C86.3024 32.3751 86.4709 32.8341 86.4788 33.4199C86.4708 34.0679 86.2795 34.6243 85.908 35.1021C85.5304 35.5795 85.001 35.9637 84.3046 36.2474C83.6192 36.5218 82.8097 36.6634 81.8696 36.6634C80.9707 36.6634 80.1664 36.5262 79.4525 36.2572C78.7543 35.991 78.1959 35.592 77.7682 35.062C77.3497 34.5433 77.1031 33.8843 77.0427 33.0671L77.021 32.7732H72L72.0128 33.1028C72.0789 34.8095 72.5181 36.2764 73.3444 37.4887L73.3453 37.4899C74.1773 38.6982 75.3275 39.6131 76.7827 40.2361C78.2438 40.858 79.9541 41.1638 81.9058 41.1638C83.9129 41.1638 85.6424 40.8498 87.0824 40.2093C88.5257 39.5626 89.6438 38.6609 90.4205 37.4985L90.4211 37.4976C91.1976 36.3268 91.5822 34.976 91.5822 33.4563C91.5822 32.3357 91.374 31.3423 90.9465 30.4854C90.5254 29.6413 89.9517 28.9193 89.227 28.3218C88.5198 27.7324 87.7189 27.2455 86.8258 26.8603C85.9498 26.4791 85.0374 26.1767 84.089 25.953L81.7788 25.3683L81.7753 25.3674C81.2808 25.2482 80.7899 25.1011 80.3026 24.9261C79.8256 24.7547 79.3939 24.5455 79.0063 24.2995C78.6332 24.0548 78.3425 23.7624 78.1283 23.4234C77.9314 23.0995 77.8269 22.7087 77.8265 22.2389C77.8341 21.6765 77.9953 21.1844 78.3083 20.7523C78.6216 20.3197 79.0812 19.966 79.7056 19.6994C80.3232 19.4357 81.0776 19.2981 81.978 19.2981C83.2566 19.2981 84.2622 19.5842 85.0212 20.1288L85.0223 20.1297C85.7795 20.6678 86.2086 21.413 86.3119 22.3921ZM161.598 36.4549L163.297 40.379H168.999L157.352 15.0448H156.524L144.691 40.379H150.29L152.03 36.4549H161.598ZM153.728 32.6135L156.793 25.7155H156.938L159.927 32.6135H153.728ZM129.428 15.5934H123.795V40.3791H140.957V36.0596H129.428V15.5934ZM182.643 15.5841C185.211 15.5841 187.407 16.2985 189.181 17.7685C190.997 19.1973 191.901 21.1894 191.901 23.7103C191.901 26.5679 190.272 29.6934 186.91 31.2321L193.489 40.3749H187.062L180.482 30.2566V29.7277C184.417 29.2744 186.344 26.9457 186.344 24.5003C186.344 21.6427 184.493 19.8361 181.58 19.8361H178.176V40.3749H172.543V15.5841H182.636H182.643ZM197.425 40.4468H203.059V15.5671H197.425V40.4468ZM224.572 15.5951H230.164V30.4616C230.164 33.4894 229.26 35.9512 227.403 37.8539C225.552 39.7224 222.901 40.6567 219.463 40.6567C212.394 40.6567 208.762 36.7355 208.762 30.5707V15.5951H214.396V30.5366C214.396 33.6394 216.17 36.1013 219.498 36.1013C222.825 36.1013 224.565 33.7485 224.565 30.7207V15.5951H224.572ZM280.627 15.5932H286.261V36.0594H297.79V40.3789H280.627V15.5932ZM318.431 36.4551L320.129 40.3792H325.832L314.185 15.045H313.357L301.524 40.3792H307.123L308.862 36.4551H318.431ZM310.561 32.6137L313.626 25.7157H313.771L316.76 32.6137H310.561ZM329.542 40.3799V15.5825H339.18C340.97 15.5825 342.482 15.8621 343.701 16.4381C344.92 17.0022 345.847 17.7832 346.463 18.7875C347.083 19.7847 347.39 20.9124 347.39 22.1617C347.39 23.1853 347.192 24.0809 346.781 24.8364L346.78 24.8377C346.376 25.5727 345.831 26.1728 345.147 26.6338C344.707 26.93 344.235 27.1712 343.73 27.3579C344.328 27.4928 344.907 27.7302 345.466 28.0682C346.315 28.5694 347.006 29.2777 347.537 30.1847C348.079 31.1077 348.342 32.2114 348.342 33.482C348.342 34.7864 348.022 35.9686 347.38 37.0203L347.379 37.0212C346.732 38.0726 345.761 38.8931 344.486 39.489C343.203 40.0885 341.608 40.3799 339.715 40.3799H329.542ZM342.746 31.368L342.745 31.3664C342.421 30.8373 341.959 30.4191 341.348 30.1125L341.345 30.1112C340.74 29.8001 340.006 29.638 339.132 29.638H334.578V36.0984H339.013C340.59 36.0984 341.651 35.7976 342.272 35.2647C342.916 34.7113 343.235 34.0112 343.235 33.1397C343.235 32.478 343.07 31.8902 342.746 31.368ZM341.873 24.3944L341.874 24.3936C342.191 23.9323 342.354 23.3817 342.354 22.7283C342.354 21.8755 342.055 21.1892 341.457 20.6448L341.455 20.6435C340.876 20.1102 339.985 19.8168 338.728 19.8168H334.578V25.864H338.633C339.355 25.864 339.996 25.7336 340.561 25.4791C341.125 25.2173 341.559 24.8552 341.873 24.3944ZM249.2 35.7935H249.193L255.994 28.237C256.07 28.237 256.111 28.237 256.146 28.2714V40.3824H261.593V15.1369H260.799L248.779 29.0202L236.718 15.1369H235.89V40.3755H241.295V28.2645C241.33 28.2645 241.371 28.2645 241.406 28.2302L248.365 35.7935H249.193L249.186 35.8004L249.2 35.7935ZM101.519 40.038C103.141 40.7056 104.905 41.0394 106.812 41.0394C108.672 41.0394 110.401 40.7056 111.998 40.038C113.62 39.3705 115.026 38.4525 116.218 37.2842C117.41 36.0921 118.34 34.7092 119.008 33.1356C119.676 31.5382 120.009 29.8215 120.009 27.9856C120.009 26.1259 119.676 24.4092 119.008 22.8356C118.34 21.2382 117.399 19.8553 116.183 18.687C114.99 17.4949 113.584 16.5769 111.962 15.9332C110.365 15.2656 108.624 14.9318 106.741 14.9318C104.834 14.9318 103.069 15.2656 101.448 15.9332C99.8504 16.5769 98.4556 17.4949 97.2635 18.687C96.0714 19.8553 95.1415 21.2262 94.4739 22.7999C93.8063 24.3735 93.4725 26.0901 93.4725 27.9499C93.4725 29.7857 93.8063 31.5024 94.4739 33.0998C95.1415 34.6735 96.0833 36.0563 97.2993 37.2485C98.5152 38.4406 99.9219 39.3705 101.519 40.038ZM110.675 34.9238C109.554 35.5914 108.243 35.9252 106.741 35.9252C105.62 35.9252 104.595 35.7345 103.665 35.353C102.735 34.9715 101.937 34.435 101.269 33.7436C100.625 33.0283 100.125 32.1819 99.767 31.2044C99.4093 30.2268 99.2305 29.142 99.2305 27.9499C99.2305 26.3524 99.5405 24.9695 100.16 23.8012C100.78 22.6091 101.651 21.6912 102.771 21.0474C103.916 20.3798 105.239 20.046 106.741 20.046C107.862 20.046 108.875 20.2368 109.781 20.6183C110.711 20.9759 111.509 21.5124 112.177 22.2276C112.845 22.9191 113.357 23.7536 113.715 24.7311C114.073 25.6848 114.251 26.7577 114.251 27.9499C114.251 29.5235 113.941 30.9183 113.321 32.1342C112.702 33.3264 111.819 34.2562 110.675 34.9238Z"
    fill="black"
  />

  <defs>
    <linearGradient
      id="solarium_labs_horizontal_paint_0"
      x1="41.2308"
      y1="6.1898"
      x2="0.470264"
      y2="47.0192"
      gradientUnits="userSpaceOnUse"
    >
      <stop stop-color="#02C6B4" />
      <stop offset="1" stop-color="#6C83FF" />
    </linearGradient>
    <linearGradient
      id="solarium_labs_horizontal_paint_1"
      x1="41.2308"
      y1="6.1898"
      x2="0.470264"
      y2="47.0192"
      gradientUnits="userSpaceOnUse"
    >
      <stop stop-color="#02C6B4" />
      <stop offset="1" stop-color="#6C83FF" />
    </linearGradient>
    <linearGradient
      id="solarium_labs_horizontal_paint_2"
      x1="41.2308"
      y1="6.1898"
      x2="0.470264"
      y2="47.0192"
      gradientUnits="userSpaceOnUse"
    >
      <stop stop-color="#02C6B4" />
      <stop offset="1" stop-color="#6C83FF" />
    </linearGradient>
    <linearGradient
      id="solarium_labs_horizontal_paint_3"
      x1="41.2308"
      y1="6.1898"
      x2="0.470264"
      y2="47.0192"
      gradientUnits="userSpaceOnUse"
    >
      <stop stop-color="#02C6B4" />
      <stop offset="1" stop-color="#6C83FF" />
    </linearGradient>
    <linearGradient
      id="solarium_labs_horizontal_paint_4"
      x1="41.2308"
      y1="6.1898"
      x2="0.470264"
      y2="47.0192"
      gradientUnits="userSpaceOnUse"
    >
      <stop stop-color="#02C6B4" />
      <stop offset="1" stop-color="#6C83FF" />
    </linearGradient>
    <linearGradient
      id="solarium_labs_horizontal_paint_5"
      x1="41.2308"
      y1="6.1898"
      x2="0.470264"
      y2="47.0192"
      gradientUnits="userSpaceOnUse"
    >
      <stop stop-color="#02C6B4" />
      <stop offset="1" stop-color="#6C83FF" />
    </linearGradient>
  </defs>
</svg>
