<svg
  width="372"
  height="56"
  viewBox="0 0 372 56"
  fill="none"
  xmlns="http://www.w3.org/2000/svg"
>
  <g clip-path="url(#clip0_1754_3223)">
    <path
      d="M36.6561 8.93508C36.4204 12.0334 35.934 15.1167 35.1316 18.1299C34.3342 21.1381 33.2208 24.0763 31.7514 26.8292C31.0142 28.2057 30.1917 29.5371 29.274 30.7985C28.3562 32.0598 27.3482 33.2561 26.26 34.3673C25.8989 34.7377 25.5228 35.0981 25.1466 35.4485C25.267 35.4785 25.3874 35.5035 25.5127 35.5286L26.7414 35.7738C27.5589 35.929 28.3763 36.1142 29.2038 36.2343C31.3251 36.6097 33.4615 36.89 35.613 37.1052C35.8738 36.9351 36.1346 36.7599 36.3903 36.5797C37.7344 35.6337 39.0483 34.6376 40.2469 33.5164C41.4455 32.4052 42.5588 31.2239 43.5367 29.9276C44.4996 28.6262 45.3422 27.2347 46.0192 25.7531C47.9048 21.6387 48.4164 16.9036 47.7644 12.2687C44.9259 8.65979 41.1496 5.82175 36.8066 4.11492C36.8066 4.16998 36.8066 4.22003 36.8066 4.27509C36.8216 5.83676 36.7715 7.38842 36.6561 8.94009V8.93508Z"
      fill="url(#paint0_linear_1754_3223)"
    />
    <path
      d="M12.1627 41.595C12.5037 41.4549 12.8497 41.3247 13.1908 41.1746L14.1988 40.7141C15.5278 40.0734 16.8317 39.3877 18.0654 38.5868C18.8527 38.0763 19.62 37.5357 20.3623 36.9651L18.1406 36.4695L16.275 35.974C15.4425 35.7538 14.61 35.5436 13.7926 35.2733L11.3252 34.5024L8.89288 33.6265C8.48666 33.4763 8.08045 33.3362 7.67925 33.181L6.48567 32.6855C5.68828 32.3501 4.88587 32.0298 4.09852 31.6794L1.75148 30.5682L1.26001 30.333C1.63112 35.2332 3.36632 39.7531 6.07945 43.5171C7.43351 43.1917 8.77252 42.8163 10.0915 42.3759C10.7886 42.1206 11.4957 41.8903 12.1777 41.6L12.1627 41.595Z"
      fill="url(#paint1_linear_1754_3223)"
    />
    <path
      d="M2.35331 26.7091C2.52883 26.8192 2.70938 26.9193 2.88992 27.0144L3.43154 27.3098L5.60806 28.491C6.34026 28.8714 7.09251 29.2118 7.83473 29.5722L8.95309 30.1078C9.32921 30.2779 9.71537 30.4331 10.0915 30.5983L12.3784 31.5643L14.7103 32.4302C15.4827 32.7356 16.275 32.9758 17.0674 33.2361L18.251 33.6215L18.8427 33.8117L19.4445 33.9819L21.8517 34.6526C22.1526 34.7327 22.4586 34.8028 22.7595 34.8729C23.4164 34.2372 24.0533 33.5765 24.6501 32.8857C25.598 31.7896 26.4656 30.6283 27.2429 29.412C28.0202 28.1957 28.7073 26.9193 29.3091 25.6079C30.5127 22.9851 31.3753 20.2072 31.947 17.3741C32.5237 14.5411 32.7995 11.643 32.8447 8.74988C32.8647 7.30333 32.8246 5.85178 32.7243 4.41524C32.6892 3.88968 32.6391 3.36412 32.5839 2.84356C30.8587 2.48317 29.0684 2.29297 27.2329 2.29297C13.612 2.30298 2.42352 12.7442 1.27006 26.0534C1.28009 26.0584 1.29012 26.0634 1.30015 26.0734L2.35832 26.7141L2.35331 26.7091Z"
      fill="url(#paint2_linear_1754_3223)"
    />
    <path
      d="M26.3447 38.0413L25.0709 37.8561C24.6446 37.796 24.2284 37.7059 23.8071 37.6358C23.4661 37.5708 23.1201 37.5107 22.779 37.4506C21.5403 38.3816 20.2414 39.2275 18.8974 39.9783C17.5584 40.7392 16.1542 41.3748 14.7399 41.9505L13.6667 42.3609C13.3107 42.496 12.9446 42.6062 12.5835 42.7313C11.8663 42.9866 11.1241 43.1768 10.3969 43.397C9.14819 43.7324 7.88942 44.0127 6.62563 44.2429C6.85131 44.5382 7.08701 44.8235 7.32773 45.1088C7.62362 45.0938 7.91951 45.0788 8.21038 45.0638C9.04287 45.0087 9.87035 44.9487 10.7028 44.8786C11.1191 44.8486 11.5303 44.8035 11.9466 44.7585C12.3628 44.7184 12.7741 44.6834 13.1853 44.6283C19.7901 43.8925 26.3146 42.1607 32.1622 39.1074C32.3878 38.9923 32.6085 38.8671 32.8292 38.747C31.5152 38.6519 30.2013 38.5268 28.8924 38.3666C28.0398 38.2865 27.1973 38.1464 26.3447 38.0313V38.0413Z"
      fill="url(#paint3_linear_1754_3223)"
    />
    <path
      d="M39.1134 39.0173C39.0482 39.0173 38.983 39.0173 38.9178 39.0173C38.7624 39.1425 38.6069 39.2676 38.4514 39.3877C37.0272 40.4939 35.5277 41.485 33.973 42.3859C33.2007 42.8464 32.4033 43.2519 31.6059 43.6723C30.7985 44.0577 29.9961 44.4632 29.1686 44.8085C28.3512 45.1789 27.5137 45.4893 26.6812 45.8146C25.8387 46.1149 24.9961 46.4203 24.1436 46.6855C22.4435 47.2261 20.7133 47.6916 18.9681 48.062C17.2228 48.4324 15.4676 48.7628 13.7023 48.963C13.0102 49.0481 12.3181 49.1131 11.6261 49.1732C15.9791 52.4317 21.3853 54.3588 27.2479 54.3588C38.0553 54.3588 47.323 47.7967 51.2799 38.4517C50.6279 38.5218 49.976 38.5869 49.319 38.6419C45.9339 38.9322 42.5287 39.0624 39.1184 39.0273L39.1134 39.0173Z"
      fill="url(#paint4_linear_1754_3223)"
    />
    <path
      d="M49.6097 21.4335C49.3891 23.2154 48.9628 24.9873 48.3409 26.6891C47.719 28.396 46.9016 30.0377 45.9086 31.5644C44.9106 33.086 43.7471 34.5025 42.4884 35.7989C41.9317 36.3845 41.3449 36.9401 40.7482 37.4757C43.5766 37.6158 46.4202 37.6409 49.2587 37.5458C50.0661 37.5207 50.8735 37.4807 51.6809 37.4357C52.7441 34.5976 53.3259 31.5293 53.3259 28.3209C53.3259 23.3556 51.9317 18.7206 49.5194 14.7714C49.5846 15.2069 49.6348 15.6423 49.6699 16.0828C49.8354 17.8497 49.8304 19.6466 49.6197 21.4285L49.6097 21.4335Z"
      fill="url(#paint5_linear_1754_3223)"
    />
    <path
      d="M56.6944 9.76122C56.6944 14.2838 53.0281 17.9502 48.5055 17.9502C43.9828 17.9502 40.3165 14.2838 40.3165 9.76122C40.3165 5.23858 43.9828 1.57227 48.5055 1.57227C53.0281 1.57227 56.6944 5.23858 56.6944 9.76122Z"
      fill="#12BDBD"
    />
    <path
      fill-rule="evenodd"
      clip-rule="evenodd"
      d="M48.5055 2.69215C44.6014 2.69215 41.4365 5.85702 41.4365 9.7611C41.4365 13.6652 44.6014 16.83 48.5055 16.83C52.4096 16.83 55.5744 13.6652 55.5744 9.7611C55.5744 5.85702 52.4096 2.69215 48.5055 2.69215ZM39.1965 9.7611C39.1965 4.61991 43.3643 0.452148 48.5055 0.452148C53.6467 0.452148 57.8144 4.61991 57.8144 9.7611C57.8144 14.9023 53.6467 19.07 48.5055 19.07C43.3643 19.07 39.1965 14.9023 39.1965 9.7611Z"
      fill="white"
    />
  </g>
  <path
    d="M123.465 15.6074H129.098V36.0736H140.628V40.3931H123.465V15.6074Z"
    fill="currentColor"
  />
  <path
    d="M162.967 40.3927L161.268 36.4687H151.7L149.96 40.3927H144.361L156.194 15.0586H157.023L168.669 40.3927H162.96H162.967ZM156.463 25.7292L153.398 32.6273H159.598L156.608 25.7292H156.456H156.463Z"
    fill="currentColor"
  />
  <path
    d="M182.313 15.5977C184.882 15.5977 187.077 16.312 188.851 17.782C190.667 19.2108 191.571 21.2029 191.571 23.7239C191.571 26.5814 189.942 29.7069 186.58 31.2456L193.159 40.3884H186.732L180.153 30.2702V29.7412C184.088 29.2879 186.014 26.9592 186.014 24.5138C186.014 21.6562 184.164 19.8497 181.25 19.8497H177.847V40.3884H172.213V15.5977H182.306H182.313Z"
    fill="currentColor"
  />
  <path
    d="M202.729 40.4599H197.096V15.5801H202.729V40.4599Z"
    fill="currentColor"
  />
  <path
    d="M224.242 15.6084H229.834V30.4748C229.834 33.5027 228.93 35.9645 227.073 37.8671C225.223 39.7357 222.571 40.6699 219.133 40.6699C212.064 40.6699 208.432 36.7487 208.432 30.5839V15.6084H214.066V30.5498C214.066 33.6527 215.84 36.1145 219.168 36.1145C222.496 36.1145 224.235 33.7618 224.235 30.734V15.6084H224.242Z"
    fill="currentColor"
  />
  <path
    d="M86.1399 22.389L86.1549 22.531H86.2977H90.5978H90.7592L90.7564 22.3696C90.7318 20.934 90.3337 19.6591 89.5598 18.5503C88.7873 17.4354 87.7244 16.5684 86.3765 15.948C85.0348 15.3186 83.4774 15.0064 81.7084 15.0064C79.963 15.0064 78.3945 15.3188 77.006 15.9472C75.618 16.5672 74.5149 17.4419 73.7021 18.5724L73.7016 18.573C72.8939 19.7079 72.4918 21.0293 72.4918 22.5309C72.4918 24.3578 73.0924 25.8372 74.3015 26.9524L74.3023 26.9531C75.5068 28.0482 77.1383 28.8587 79.1872 29.3917L81.9936 30.1234L81.9941 30.1235C82.871 30.3495 83.6332 30.607 84.2819 30.8953L84.2819 30.8953L84.284 30.8963C84.9342 31.1738 85.43 31.5188 85.7797 31.9268L85.7807 31.9279C86.1211 32.3174 86.2996 32.8152 86.3076 33.4333C86.2996 34.115 86.0976 34.7062 85.7031 35.2134C85.3055 35.7164 84.7516 36.1158 84.0339 36.4081C83.3259 36.6916 82.4956 36.8356 81.5398 36.8356C80.6247 36.8356 79.801 36.6959 79.0668 36.4191C78.3441 36.1438 77.7617 35.7288 77.3149 35.1751C76.8728 34.6272 76.617 33.9359 76.5547 33.0923L76.5439 32.9454H76.3965H72H71.8351L71.8415 33.1101C71.9066 34.7928 72.339 36.2295 73.1457 37.4129L73.1461 37.4135C73.9597 38.5949 75.0845 39.4912 76.5147 40.1035L76.515 40.1036C77.9522 40.7154 79.6405 41.0187 81.5759 41.0187C83.5672 41.0187 85.2727 40.7074 86.6873 40.0782L86.6877 40.078C88.108 39.4417 89.2011 38.5579 89.9588 37.4238L89.9591 37.4234C90.7167 36.2811 91.0937 34.9614 91.0937 33.4699C91.0937 32.3689 90.8892 31.4007 90.4748 30.5698C90.0634 29.7453 89.5036 29.0407 88.7959 28.4575C88.101 27.8782 87.313 27.3989 86.4329 27.0194C85.5653 26.6418 84.6614 26.3422 83.7215 26.1206L81.4101 25.5356L81.4101 25.5356L81.4083 25.5352C80.9081 25.4146 80.4117 25.2658 79.9192 25.0889C79.4317 24.9137 78.989 24.6994 78.5904 24.4463C78.1991 24.1898 77.8911 23.881 77.6636 23.5205C77.4488 23.1675 77.3382 22.7465 77.3381 22.2514C77.3459 21.6571 77.5168 21.1327 77.85 20.6727C78.1833 20.2125 78.6681 19.8426 79.3135 19.567C79.9556 19.2929 80.7323 19.1529 81.6482 19.1529C82.95 19.1529 83.9908 19.4444 84.7838 20.0134L84.7844 20.0139C85.5806 20.5797 86.032 21.3669 86.1399 22.389Z"
    fill="currentColor"
    stroke="black"
    stroke-width="0.317288"
  />
  <path
    d="M280.298 15.6074H285.931V36.0736H297.46V40.3931H280.298V15.6074Z"
    fill="currentColor"
  />
  <path
    d="M319.8 40.3927L318.101 36.4687H308.533L306.793 40.3927H301.194L313.027 15.0586H313.855L325.502 40.3927H319.793H319.8ZM313.296 25.7292L310.231 32.6273H316.431L313.441 25.7292H313.289H313.296Z"
    fill="currentColor"
  />
  <path
    d="M329.368 40.0824V40.238H329.524H339.385C341.264 40.238 342.835 39.9487 344.091 39.3617C345.343 38.7765 346.288 37.9747 346.917 36.9532L346.917 36.9528C347.544 35.9272 347.856 34.7735 347.856 33.4956C347.856 32.2465 347.598 31.1713 347.073 30.277C346.554 29.3907 345.881 28.7021 345.056 28.2154C344.315 27.7668 343.54 27.5011 342.733 27.4208C343.462 27.2248 344.128 26.9241 344.73 26.5185C345.394 26.0715 345.922 25.4901 346.314 24.7764L346.315 24.7757C346.71 24.0478 346.904 23.179 346.904 22.1753C346.904 20.9525 346.604 19.8535 346.001 18.8827C345.404 17.9085 344.502 17.1462 343.306 16.5926C342.113 16.0292 340.625 15.7517 338.85 15.7517H329.524H329.368V15.9072V40.0824ZM342.548 31.2987L342.548 31.2995C342.889 31.8479 343.06 32.4644 343.06 33.1533C343.06 34.0691 342.722 34.8126 342.044 35.3962C341.38 35.9657 340.273 36.2676 338.684 36.2676H334.093V29.4961H338.802C339.695 29.4961 340.455 29.6617 341.087 29.9865L341.088 29.9871C341.722 30.3057 342.207 30.743 342.548 31.2987ZM341.672 24.4953L341.672 24.4957C341.34 24.9818 340.883 25.3616 340.296 25.6341C339.708 25.8991 339.045 26.0332 338.303 26.0332H334.093V19.6749H338.398C339.677 19.6749 340.612 19.9731 341.231 20.5427L341.232 20.5433C341.864 21.1185 342.18 21.8473 342.18 22.7419C342.18 23.4228 342.009 24.005 341.672 24.4953Z"
    fill="currentColor"
    stroke="black"
    stroke-width="0.311111"
  />
  <path
    d="M366.215 22.389L366.23 22.531H366.373H370.673H370.834L370.832 22.3696C370.807 20.934 370.409 19.6591 369.635 18.5503C368.863 17.4354 367.8 16.5684 366.452 15.948C365.11 15.3186 363.553 15.0064 361.784 15.0064C360.038 15.0064 358.47 15.3188 357.081 15.9472C355.693 16.5672 354.59 17.4419 353.777 18.5724L353.777 18.573C352.969 19.7079 352.567 21.0293 352.567 22.5309C352.567 24.3578 353.168 25.8372 354.377 26.9524L354.378 26.9531C355.582 28.0482 357.213 28.8587 359.262 29.3917L362.069 30.1234L362.069 30.1235C362.946 30.3495 363.708 30.607 364.357 30.8953L364.357 30.8953L364.359 30.8963C365.009 31.1738 365.505 31.5188 365.855 31.9268L365.856 31.9279C366.196 32.3174 366.375 32.8152 366.383 33.4333C366.375 34.115 366.173 34.7062 365.778 35.2134C365.381 35.7164 364.827 36.1158 364.109 36.4081C363.401 36.6916 362.571 36.8356 361.615 36.8356C360.7 36.8356 359.876 36.6959 359.142 36.4191C358.419 36.1438 357.837 35.7288 357.39 35.1751C356.948 34.6272 356.692 33.9359 356.63 33.0923L356.619 32.9454H356.472H352.075H351.91L351.917 33.1101C351.982 34.7928 352.414 36.2295 353.221 37.4129L353.221 37.4135C354.035 38.5949 355.16 39.4912 356.59 40.1035L356.59 40.1036C358.027 40.7154 359.716 41.0187 361.651 41.0187C363.642 41.0187 365.348 40.7074 366.763 40.0782L366.763 40.078C368.183 39.4417 369.276 38.5579 370.034 37.4238L370.034 37.4234C370.792 36.2811 371.169 34.9614 371.169 33.4699C371.169 32.3689 370.964 31.4007 370.55 30.5698C370.139 29.7453 369.579 29.0407 368.871 28.4575C368.176 27.8782 367.388 27.3989 366.508 27.0194C365.64 26.6418 364.737 26.3422 363.797 26.1206L361.485 25.5356L361.485 25.5356L361.484 25.5352C360.983 25.4146 360.487 25.2658 359.994 25.0889C359.507 24.9137 359.064 24.6994 358.666 24.4463C358.274 24.1898 357.966 23.881 357.739 23.5205C357.524 23.1675 357.413 22.7465 357.413 22.2514C357.421 21.6571 357.592 21.1327 357.925 20.6727C358.258 20.2125 358.743 19.8426 359.389 19.567C360.031 19.2929 360.807 19.1529 361.723 19.1529C363.025 19.1529 364.066 19.4444 364.859 20.0134L364.86 20.0139C365.656 20.5797 366.107 21.3669 366.215 22.389Z"
    fill="currentColor"
    stroke="black"
    stroke-width="0.317288"
  />
  <path
    d="M248.87 35.807H248.035L241.076 28.2437C241.042 28.278 241 28.278 240.966 28.278V40.389H235.56V15.1504H236.388L248.449 29.0337L260.469 15.1504H261.263V40.3959H255.816V28.2849C255.781 28.2506 255.74 28.2506 255.664 28.2506L248.857 35.8139L248.87 35.807Z"
    fill="currentColor"
  />
  <path
    d="M106.483 41.0529C104.575 41.0529 102.811 40.7192 101.19 40.0516C99.5921 39.384 98.1854 38.4541 96.9694 37.262C95.7535 36.0698 94.8117 34.687 94.1441 33.1134C93.4765 31.5159 93.1427 29.7992 93.1427 27.9634C93.1427 26.1036 93.4765 24.387 94.1441 22.8134C94.8117 21.2398 95.7415 19.8688 96.9337 18.7005C98.1258 17.5084 99.5206 16.5905 101.118 15.9467C102.739 15.2791 104.504 14.9453 106.411 14.9453C108.295 14.9453 110.035 15.2791 111.633 15.9467C113.254 16.5905 114.661 17.5084 115.853 18.7005C117.069 19.8688 118.011 21.2517 118.678 22.8491C119.346 24.4227 119.68 26.1394 119.68 27.9991C119.68 29.835 119.346 31.5517 118.678 33.1491C118.011 34.7227 117.081 36.1056 115.889 37.2977C114.696 38.466 113.29 39.384 111.668 40.0516C110.071 40.7192 108.342 41.0529 106.483 41.0529ZM106.411 35.9387C107.913 35.9387 109.225 35.6049 110.345 34.9373C111.49 34.2697 112.372 33.3399 112.992 32.1477C113.612 30.9318 113.922 29.537 113.922 27.9634C113.922 26.7712 113.743 25.6983 113.385 24.7446C113.027 23.7671 112.515 22.9326 111.847 22.2411C111.18 21.5259 110.381 20.9894 109.451 20.6318C108.545 20.2503 107.532 20.0595 106.411 20.0595C104.909 20.0595 103.586 20.3933 102.441 21.0609C101.321 21.7047 100.45 22.6226 99.8305 23.8148C99.2106 24.983 98.9007 26.3659 98.9007 27.9634C98.9007 29.1555 99.0795 30.2403 99.4371 31.2179C99.7948 32.1954 100.295 33.0418 100.939 33.7571C101.607 34.4485 102.406 34.985 103.335 35.3665C104.265 35.748 105.291 35.9387 106.411 35.9387Z"
    fill="currentColor"
  />
  <defs>
    <linearGradient
      id="paint0_linear_1754_3223"
      x1="41.2308"
      y1="6.1898"
      x2="0.470264"
      y2="47.0192"
      gradientUnits="userSpaceOnUse"
    >
      <stop stop-color="#02C6B4" />
      <stop offset="1" stop-color="#6C83FF" />
    </linearGradient>
    <linearGradient
      id="paint1_linear_1754_3223"
      x1="41.2308"
      y1="6.1898"
      x2="0.470264"
      y2="47.0192"
      gradientUnits="userSpaceOnUse"
    >
      <stop stop-color="#02C6B4" />
      <stop offset="1" stop-color="#6C83FF" />
    </linearGradient>
    <linearGradient
      id="paint2_linear_1754_3223"
      x1="41.2308"
      y1="6.1898"
      x2="0.470264"
      y2="47.0192"
      gradientUnits="userSpaceOnUse"
    >
      <stop stop-color="#02C6B4" />
      <stop offset="1" stop-color="#6C83FF" />
    </linearGradient>
    <linearGradient
      id="paint3_linear_1754_3223"
      x1="41.2308"
      y1="6.1898"
      x2="0.470264"
      y2="47.0192"
      gradientUnits="userSpaceOnUse"
    >
      <stop stop-color="#02C6B4" />
      <stop offset="1" stop-color="#6C83FF" />
    </linearGradient>
    <linearGradient
      id="paint4_linear_1754_3223"
      x1="41.2308"
      y1="6.1898"
      x2="0.470264"
      y2="47.0192"
      gradientUnits="userSpaceOnUse"
    >
      <stop stop-color="#02C6B4" />
      <stop offset="1" stop-color="#6C83FF" />
    </linearGradient>
    <linearGradient
      id="paint5_linear_1754_3223"
      x1="41.2308"
      y1="6.1898"
      x2="0.470264"
      y2="47.0192"
      gradientUnits="userSpaceOnUse"
    >
      <stop stop-color="#02C6B4" />
      <stop offset="1" stop-color="#6C83FF" />
    </linearGradient>
    <clipPath id="clip0_1754_3223">
      <rect
        width="56"
        height="56"
        fill="white"
        transform="translate(0 -0.000976562)"
      />
    </clipPath>
  </defs>
</svg>
