<svg
  width="322"
  height="30"
  viewBox="0 0 322 30"
  fill="none"
  xmlns="http://www.w3.org/2000/svg"
>
  <path
    d="M56.04 1.70898H62.0818V23.6586H74.4468V28.2912H56.04V1.70898Z"
    fill="currentColor"
  />
  <path
    d="M98.4051 28.2906L96.5837 24.0821H86.3215L84.4556 28.2906H78.4508L91.1416 1.12012H92.0301L104.521 28.2906H98.3977H98.4051ZM91.4304 12.5642L88.1429 19.9622H94.7919L91.5859 12.5642H91.423H91.4304Z"
    fill="currentColor"
  />
  <path
    d="M119.154 1.69824C121.908 1.69824 124.263 2.46442 126.166 4.04096C128.113 5.57331 129.083 7.70975 129.083 10.4135C129.083 13.4782 127.336 16.8302 123.73 18.4804L130.786 28.2859H123.893L116.837 17.4343V16.867C121.057 16.3808 123.123 13.8833 123.123 11.2607C123.123 8.19598 121.138 6.25845 118.014 6.25845H114.364V28.2859H108.322V1.69824H119.147H119.154Z"
    fill="currentColor"
  />
  <path
    d="M141.05 28.3638H135.008V1.68066H141.05V28.3638Z"
    fill="currentColor"
  />
  <path
    d="M164.122 1.70996H170.119V17.654C170.119 20.9013 169.149 23.5415 167.158 25.5821C165.173 27.586 162.33 28.588 158.643 28.588C151.061 28.588 147.166 24.3826 147.166 17.771V1.70996H153.208V17.7344C153.208 21.0622 155.111 23.7024 158.68 23.7024C162.249 23.7024 164.115 21.1792 164.115 17.9319V1.70996H164.122Z"
    fill="currentColor"
  />
  <path
    d="M1.01524 20.4736H5.56014H1.01524ZM1.01524 20.4736C1.01516 20.4714 1.01507 20.4692 1.01499 20.467L0.844995 20.4736M1.01524 20.4736H0.844995M0.844995 20.4736H0.844971V20.6438H0.852787C0.943515 22.3487 1.39736 23.8005 2.21431 24.999C3.06691 26.2371 4.24678 27.1788 5.75391 27.824C7.26965 28.4693 9.05668 28.7919 11.115 28.7919C13.2336 28.7919 15.0378 28.4605 16.5277 27.7979C18.0263 27.1265 19.1717 26.1979 19.964 25.012C20.7563 23.8175 21.1525 22.4355 21.1525 20.866C21.1525 19.7063 20.9372 18.6949 20.5066 17.8317C20.076 16.9684 19.4903 16.2317 18.7497 15.6213C18.0176 15.0109 17.1866 14.5052 16.2565 14.1041C15.335 13.703 14.3747 13.3848 13.3757 13.1494L0.844995 20.4736ZM16.0097 8.98194L16.0258 9.13422H16.1789H20.7908H20.9638L20.9609 8.96116C20.9345 7.42139 20.5075 6.05405 19.6774 4.86481C18.849 3.66918 17.709 2.7394 16.2636 2.07409C14.8246 1.39904 13.1543 1.06423 11.2571 1.06423C9.3851 1.06423 7.70292 1.39926 6.21379 2.0732C4.72519 2.73818 3.54218 3.67623 2.6704 4.88873L2.66993 4.8894C1.80368 6.10649 1.37241 7.52368 1.37241 9.1341C1.37241 11.0935 2.01653 12.6801 3.31327 13.8761L3.31417 13.8769C4.60594 15.0513 6.35562 15.9206 8.553 16.4922C8.55303 16.4922 8.55306 16.4922 8.5531 16.4922L11.563 17.2769L11.5634 17.2771C12.5039 17.5194 13.3214 17.7956 14.0171 18.1049L14.0194 18.1058C14.7166 18.4035 15.2484 18.7735 15.6235 19.2111L15.6245 19.2123C15.9896 19.6301 16.1811 20.1639 16.1896 20.8269C16.1811 21.5579 15.9644 22.192 15.5413 22.7358C15.1149 23.2753 14.5209 23.7037 13.7512 24.0172C12.9918 24.3213 12.1013 24.4757 11.0762 24.4757C10.0947 24.4757 9.2113 24.3258 8.42374 24.029C7.6488 23.7337 7.02424 23.2886 6.54516 22.6948C6.07098 22.1072 5.79663 21.3658 5.72982 20.4611L5.71818 20.3035H5.56014H0.844971H0.66811L0.674955 20.4802C0.744854 22.2848 1.20859 23.8256 2.07372 25.0948L2.07418 25.0955C2.94666 26.3625 4.15304 27.3237 5.68695 27.9804L5.68727 27.9806C7.22864 28.6367 9.0393 28.962 11.115 28.962C13.2506 28.962 15.0797 28.6281 16.5969 27.9533L16.5973 27.9531C18.1205 27.2707 19.2928 26.3228 20.1055 25.1066L20.1058 25.1061C20.9183 23.881 21.3226 22.4656 21.3226 20.866C21.3226 19.6852 21.1033 18.6468 20.6588 17.7557C20.2177 16.8714 19.6172 16.1158 18.8583 15.4903C18.113 14.869 17.2679 14.355 16.324 13.948C15.3935 13.543 14.4241 13.2217 13.4161 12.9841L10.9371 12.3566L10.9371 12.3566L10.9352 12.3562C10.3988 12.2268 9.86639 12.0673 9.33812 11.8775C8.81535 11.6897 8.34056 11.4599 7.91311 11.1884C7.4934 10.9133 7.16311 10.5821 6.91906 10.1954C6.68866 9.81684 6.57013 9.36535 6.56997 8.83439C6.57834 8.19707 6.76164 7.63455 7.11894 7.14127C7.47642 6.64772 7.99634 6.25097 8.68857 5.95543C9.37716 5.66145 10.2102 5.51133 11.1925 5.51133C12.5886 5.51133 13.7049 5.82389 14.5554 6.43419L14.556 6.43464C15.4099 7.04146 15.894 7.88575 16.0097 8.98194Z"
    fill="currentColor"
    stroke="black"
    stroke-width="0.340286"
  />
  <path
    d="M224.24 1.70801H230.282V23.6577H242.647V28.2903H224.24V1.70801Z"
    fill="currentColor"
  />
  <path
    d="M266.606 28.2906L264.784 24.0821H254.522L252.656 28.2906H246.651L259.342 1.12012H260.231L272.721 28.2906H266.598H266.606ZM259.631 12.5642L256.343 19.9622H262.992L259.786 12.5642H259.623H259.631Z"
    fill="currentColor"
  />
  <path
    d="M291.003 18.5382L291.003 18.5374C290.637 17.9414 290.117 17.4724 289.437 17.1307L289.436 17.13C288.758 16.7817 287.943 16.6041 286.986 16.6041H281.935V23.8664H286.858C288.563 23.8664 289.751 23.5426 290.462 22.9318L291.003 18.5382ZM291.003 18.5382C291.369 19.1263 291.552 19.7876 291.552 20.5264C291.552 21.5085 291.19 22.3059 290.462 22.9318L291.003 18.5382ZM276.868 27.9578V28.1246H277.034H287.611C289.626 28.1246 291.31 27.8143 292.657 27.1848C294 26.5572 295.014 25.6973 295.689 24.6018L295.689 24.6013C296.361 23.5014 296.696 22.264 296.696 20.8936C296.696 19.5539 296.419 18.4008 295.856 17.4416C295.299 16.4911 294.578 15.7525 293.693 15.2306C292.898 14.7494 292.067 14.4645 291.202 14.3784C291.983 14.1682 292.698 13.8457 293.343 13.4106C294.055 12.9313 294.621 12.3078 295.042 11.5423L295.042 11.5416C295.467 10.7609 295.675 9.82909 295.675 8.75269C295.675 7.4413 295.353 6.26264 294.706 5.22149C294.065 4.1766 293.098 3.35902 291.815 2.76534C290.536 2.16109 288.941 1.86344 287.037 1.86344H277.034H276.868V2.03027V27.9578ZM290.063 11.2408L290.063 11.2413C289.707 11.7627 289.217 12.17 288.588 12.4623C287.957 12.7464 287.246 12.8902 286.45 12.8902H281.935V6.07104H286.552C287.924 6.07104 288.927 6.3908 289.59 7.00177L289.591 7.00243C290.269 7.61929 290.608 8.40088 290.608 9.36037C290.608 10.0906 290.425 10.715 290.063 11.2408Z"
    fill="currentColor"
    stroke="black"
    stroke-width="0.333661"
  />
  <path
    d="M301.391 20.4736H305.936H301.391ZM301.391 20.4736C301.391 20.4714 301.391 20.4692 301.391 20.467L301.221 20.4736M301.391 20.4736H301.221M301.221 20.4736H301.221V20.6438H301.228C301.319 22.3487 301.773 23.8005 302.59 24.999C303.443 26.2371 304.622 27.1788 306.13 27.824C307.645 28.4693 309.432 28.7919 311.491 28.7919C313.609 28.7919 315.413 28.4605 316.903 27.7979C318.402 27.1265 319.547 26.1979 320.34 25.012C321.132 23.8175 321.528 22.4355 321.528 20.866C321.528 19.7063 321.313 18.6949 320.882 17.8317C320.452 16.9684 319.866 16.2317 319.125 15.6213C318.393 15.0109 317.562 14.5052 316.632 14.1041C315.711 13.703 314.75 13.3848 313.751 13.1494L301.221 20.4736ZM316.385 8.98194L316.401 9.13422H316.555H321.166H321.339L321.336 8.96116C321.31 7.42139 320.883 6.05405 320.053 4.86481C319.225 3.66918 318.085 2.7394 316.639 2.07409C315.2 1.39904 313.53 1.06423 311.633 1.06423C309.761 1.06423 308.079 1.39926 306.589 2.0732C305.101 2.73818 303.918 3.67623 303.046 4.88873L303.046 4.8894C302.179 6.10649 301.748 7.52368 301.748 9.1341C301.748 11.0935 302.392 12.6801 303.689 13.8761L303.69 13.8769C304.982 15.0513 306.731 15.9206 308.929 16.4922C308.929 16.4922 308.929 16.4922 308.929 16.4922L311.939 17.2769L311.939 17.2771C312.88 17.5194 313.697 17.7956 314.393 18.1049L314.395 18.1058C315.092 18.4035 315.624 18.7735 315.999 19.2111L316 19.2123C316.365 19.6301 316.557 20.1639 316.565 20.8269C316.557 21.5579 316.34 22.192 315.917 22.7358C315.491 23.2753 314.897 23.7037 314.127 24.0172C313.367 24.3213 312.477 24.4757 311.452 24.4757C310.47 24.4757 309.587 24.3258 308.799 24.029C308.024 23.7337 307.4 23.2886 306.921 22.6948C306.447 22.1072 306.172 21.3658 306.105 20.4611L306.094 20.3035H305.936H301.221H301.044L301.051 20.4802C301.12 22.2848 301.584 23.8256 302.449 25.0948L302.45 25.0955C303.322 26.3625 304.529 27.3237 306.063 27.9804L306.063 27.9806C307.604 28.6367 309.415 28.962 311.491 28.962C313.626 28.962 315.455 28.6281 316.972 27.9533L316.973 27.9531C318.496 27.2707 319.668 26.3228 320.481 25.1066L320.481 25.1061C321.294 23.881 321.698 22.4656 321.698 20.866C321.698 19.6852 321.479 18.6468 321.034 17.7557C320.593 16.8714 319.993 16.1158 319.234 15.4903C318.489 14.869 317.644 14.355 316.7 13.948C315.769 13.543 314.8 13.2217 313.792 12.9841L311.313 12.3566L311.313 12.3566L311.311 12.3562C310.774 12.2268 310.242 12.0673 309.714 11.8775C309.191 11.6897 308.716 11.4599 308.289 11.1884C307.869 10.9133 307.539 10.5821 307.295 10.1954C307.064 9.81684 306.946 9.36535 306.946 8.83439C306.954 8.19707 307.137 7.63455 307.495 7.14127C307.852 6.64772 308.372 6.25097 309.064 5.95543C309.753 5.66145 310.586 5.51133 311.568 5.51133C312.964 5.51133 314.08 5.82389 314.931 6.43419L314.932 6.43464C315.786 7.04146 316.27 7.88575 316.385 8.98194Z"
    fill="currentColor"
    stroke="black"
    stroke-width="0.340286"
  />
  <path
    d="M190.535 23.3726H189.639L182.176 15.2611C182.139 15.2979 182.095 15.2979 182.058 15.2979V28.2867H176.26V1.21875H177.149L190.084 16.1084L202.974 1.21875H203.826V28.2941H197.984V15.3053C197.947 15.2685 197.903 15.2685 197.821 15.2685L190.521 23.38L190.535 23.3726Z"
    fill="currentColor"
  />
  <path
    d="M37.827 28.999C35.7813 28.999 33.8891 28.641 32.1503 27.9251C30.437 27.2091 28.9284 26.2118 27.6242 24.9333C26.3201 23.6547 25.3101 22.1716 24.5941 20.484C23.8781 18.7707 23.5201 16.9296 23.5201 14.9607C23.5201 12.9661 23.8781 11.1251 24.5941 9.43738C25.3101 7.74971 26.3074 6.27939 27.5859 5.02642C28.8644 3.74788 30.3603 2.76341 32.0736 2.073C33.8124 1.35701 35.7046 0.999023 37.7503 0.999023C39.7704 0.999023 41.637 1.35701 43.3503 2.073C45.0891 2.76341 46.5977 3.74788 47.8763 5.02642C49.1804 6.27939 50.1904 7.76249 50.9064 9.47574C51.6224 11.1634 51.9804 13.0045 51.9804 14.999C51.9804 16.968 51.6224 18.8091 50.9064 20.5223C50.1904 22.21 49.1932 23.6931 47.9146 24.9716C46.6361 26.2246 45.1274 27.2091 43.3886 27.9251C41.6754 28.641 39.8215 28.999 37.827 28.999ZM37.7503 23.5141C39.3612 23.5141 40.7676 23.1561 41.9694 22.4401C43.1968 21.7241 44.143 20.7269 44.8078 19.4483C45.4726 18.1442 45.8051 16.6483 45.8051 14.9607C45.8051 13.6821 45.6133 12.5314 45.2297 11.5086C44.8462 10.4602 44.2964 9.56524 43.5804 8.82368C42.8644 8.05656 42.0078 7.48122 41.0105 7.09765C40.0388 6.68852 38.9521 6.48395 37.7503 6.48395C36.1393 6.48395 34.7201 6.84195 33.4927 7.55793C32.2909 8.24834 31.3576 9.23281 30.6927 10.5114C30.0279 11.7643 29.6955 13.2474 29.6955 14.9607C29.6955 16.2392 29.8873 17.4027 30.2708 18.4511C30.6544 19.4995 31.1914 20.4072 31.8818 21.1744C32.5978 21.9159 33.4544 22.4913 34.4516 22.9004C35.4489 23.3095 36.5484 23.5141 37.7503 23.5141Z"
    fill="currentColor"
  />
</svg>
