<svg
  width="231"
  height="162"
  viewBox="0 0 231 162"
  fill="none"
  xmlns="http://www.w3.org/2000/svg"
>
  <defs>
    <linearGradient
      id="solarium_labs_vertical_paint_0"
      x1="143.613"
      y1="13.7644"
      x2="56.2692"
      y2="101.256"
      gradientUnits="userSpaceOnUse"
    >
      <stop stop-color="#02C6B4" />
      <stop offset="1" stop-color="#6C83FF" />
    </linearGradient>
    <linearGradient
      id="solarium_labs_vertical_paint_1"
      x1="143.613"
      y1="13.7644"
      x2="56.2692"
      y2="101.256"
      gradientUnits="userSpaceOnUse"
    >
      <stop stop-color="#02C6B4" />
      <stop offset="1" stop-color="#6C83FF" />
    </linearGradient>
    <linearGradient
      id="solarium_labs_vertical_paint_2"
      x1="143.613"
      y1="13.7644"
      x2="56.2692"
      y2="101.256"
      gradientUnits="userSpaceOnUse"
    >
      <stop stop-color="#02C6B4" />
      <stop offset="1" stop-color="#6C83FF" />
    </linearGradient>
    <linearGradient
      id="solarium_labs_vertical_paint_3"
      x1="143.613"
      y1="13.7644"
      x2="56.2692"
      y2="101.256"
      gradientUnits="userSpaceOnUse"
    >
      <stop stop-color="#02C6B4" />
      <stop offset="1" stop-color="#6C83FF" />
    </linearGradient>
    <linearGradient
      id="solarium_labs_vertical_paint_4"
      x1="143.613"
      y1="13.7644"
      x2="56.2692"
      y2="101.256"
      gradientUnits="userSpaceOnUse"
    >
      <stop stop-color="#02C6B4" />
      <stop offset="1" stop-color="#6C83FF" />
    </linearGradient>
    <linearGradient
      id="solarium_labs_vertical_paint_5"
      x1="143.613"
      y1="13.7644"
      x2="56.2692"
      y2="101.256"
      gradientUnits="userSpaceOnUse"
    >
      <stop stop-color="#02C6B4" />
      <stop offset="1" stop-color="#6C83FF" />
    </linearGradient>
  </defs>

  <g>
    <path
      d="M133.81 19.6472C133.305 26.2864 132.263 32.8935 130.543 39.3504C128.835 45.7966 126.449 52.0926 123.3 57.9918C121.721 60.9414 119.958 63.7944 117.992 66.4973C116.025 69.2002 113.865 71.7637 111.533 74.1448C110.759 74.9385 109.953 75.7108 109.147 76.4616C109.405 76.5259 109.663 76.5795 109.932 76.6332L112.565 77.1587C114.316 77.4912 116.068 77.8881 117.841 78.1455C122.387 78.9499 126.965 79.5506 131.575 80.0118C132.134 79.6471 132.693 79.2717 133.241 78.8856C136.121 76.8584 138.936 74.724 141.505 72.3214C144.073 69.9403 146.459 67.409 148.555 64.631C150.618 61.8423 152.423 58.8606 153.874 55.6858C157.915 46.8692 159.011 36.7226 157.614 26.7905C151.531 19.0572 143.439 12.9757 134.133 9.31824C134.133 9.43622 134.133 9.54348 134.133 9.66147C134.165 13.0079 134.058 16.3329 133.81 19.6579V19.6472Z"
      fill="url(#solarium_labs_vertical_paint_0)"
    />
    <path
      d="M81.3244 89.6328C82.0552 89.3324 82.7967 89.0536 83.5274 88.7318L85.6875 87.745C88.5353 86.3721 91.3294 84.9027 93.973 83.1866C95.6602 82.0925 97.3044 80.9342 98.8949 79.7114L94.1342 78.6496L90.1365 77.5877C88.3526 77.1158 86.5687 76.6653 84.817 76.0861L79.5297 74.4343L74.3177 72.5573C73.4472 72.2356 72.5768 71.9352 71.7171 71.6027L69.1594 70.5409C67.4507 69.8223 65.7313 69.1358 64.0441 68.385L59.0147 66.0039L57.9615 65.4998C58.7568 76.0003 62.4751 85.6857 68.2889 93.7515C71.1905 93.0543 74.0598 92.2499 76.8861 91.306C78.3799 90.759 79.8951 90.2656 81.3567 89.6435L81.3244 89.6328Z"
      fill="url(#solarium_labs_vertical_paint_1)"
    />
    <path
      d="M60.3043 57.7344C60.6805 57.9703 61.0673 58.1849 61.4542 58.3887L62.6148 59.0215L67.2788 61.5528C68.8478 62.3679 70.4598 63.0973 72.0502 63.8695L74.4467 65.0172C75.2527 65.3819 76.0802 65.7144 76.8862 66.0683L81.7866 68.1384L86.7837 69.9939C88.4386 70.6482 90.1366 71.163 91.8345 71.7208L94.3707 72.5467L95.6388 72.9543L96.9284 73.3189L102.087 74.7562C102.731 74.9278 103.387 75.0779 104.032 75.2281C105.44 73.8659 106.804 72.4501 108.083 70.97C110.114 68.621 111.973 66.1327 113.639 63.5263C115.305 60.9199 116.777 58.1849 118.067 55.3747C120.646 49.7544 122.494 43.8016 123.719 37.7308C124.955 31.66 125.546 25.4498 125.643 19.2503C125.686 16.1506 125.6 13.0401 125.385 9.96179C125.31 8.83558 125.202 7.70938 125.084 6.5939C121.387 5.82164 117.551 5.41406 113.618 5.41406C84.4302 5.43551 60.4548 27.8095 57.9831 56.3293C58.0046 56.34 58.0261 56.3508 58.0476 56.3722L60.3151 57.7451L60.3043 57.7344Z"
      fill="url(#solarium_labs_vertical_paint_2)"
    />
    <path
      d="M111.714 82.0176L108.985 81.6207C108.071 81.492 107.179 81.2989 106.277 81.1488C105.546 81.0093 104.805 80.8806 104.074 80.7519C101.419 82.7469 98.636 84.5596 95.756 86.1684C92.8867 87.7987 89.8776 89.1609 86.8471 90.3944L84.5474 91.2739C83.7844 91.5635 82.9999 91.7995 82.2261 92.0676C80.6894 92.6146 79.0989 93.0222 77.5407 93.4941C74.8648 94.2128 72.1674 94.8134 69.4593 95.3068C69.9429 95.9396 70.448 96.551 70.9638 97.1623C71.5979 97.1302 72.2319 97.098 72.8552 97.0658C74.6391 96.9478 76.4123 96.8191 78.1962 96.669C79.0882 96.6046 79.9694 96.5081 80.8613 96.4115C81.7533 96.3257 82.6345 96.2507 83.5157 96.1327C97.6688 94.556 111.65 90.8449 124.18 84.3021C124.664 84.0555 125.137 83.7873 125.61 83.5299C122.794 83.3261 119.979 83.058 117.174 82.7147C115.347 82.5431 113.541 82.2428 111.714 81.9961V82.0176Z"
      fill="url(#solarium_labs_vertical_paint_3)"
    />
    <path
      d="M139.076 84.1091C138.936 84.1091 138.797 84.1091 138.657 84.1091C138.324 84.3773 137.991 84.6454 137.657 84.9028C134.605 87.2732 131.392 89.3969 128.061 91.3276C126.406 92.3143 124.697 93.1831 122.989 94.0841C121.258 94.91 119.539 95.7787 117.766 96.5188C116.014 97.3125 114.219 97.9775 112.435 98.6747C110.63 99.3183 108.825 99.9725 106.998 100.541C103.355 101.699 99.6471 102.697 95.9074 103.491C92.1676 104.284 88.4063 104.992 84.6236 105.421C83.1405 105.604 81.6575 105.743 80.1745 105.872C89.5025 112.854 101.087 116.984 113.65 116.984C136.809 116.984 156.668 102.922 165.147 82.8971C163.75 83.0473 162.353 83.1867 160.945 83.3047C153.691 83.9268 146.394 84.2056 139.087 84.1306L139.076 84.1091Z"
      fill="url(#solarium_labs_vertical_paint_4)"
    />
    <path
      d="M161.568 46.4295C161.095 50.2479 160.182 54.0448 158.849 57.6916C157.517 61.3491 155.765 64.8671 153.637 68.1385C151.499 71.3991 149.005 74.4345 146.308 77.2125C145.115 78.4674 143.858 79.658 142.579 80.8056C148.64 81.1059 154.733 81.1596 160.816 80.9558C162.546 80.9022 164.276 80.8164 166.006 80.7198C168.285 74.6383 169.531 68.0634 169.531 61.1882C169.531 50.5482 166.544 40.6162 161.375 32.1535C161.514 33.0867 161.622 34.0198 161.697 34.9637C162.052 38.7499 162.041 42.6004 161.59 46.4188L161.568 46.4295Z"
      fill="url(#solarium_labs_vertical_paint_5)"
    />
    <path
      d="M176.749 21.4179C176.749 31.1092 168.893 38.9656 159.202 38.9656C149.51 38.9656 141.654 31.1092 141.654 21.4179C141.654 11.7265 149.51 3.87012 159.202 3.87012C168.893 3.87012 176.749 11.7265 176.749 21.4179Z"
      fill="#12BDBD"
    />
    <path
      fill-rule="evenodd"
      clip-rule="evenodd"
      d="M159.202 6.26973C150.836 6.26973 144.054 13.0516 144.054 21.4175C144.054 29.7833 150.836 36.5652 159.202 36.5652C167.568 36.5652 174.35 29.7833 174.35 21.4175C174.35 13.0516 167.568 6.26973 159.202 6.26973ZM139.254 21.4175C139.254 10.4006 148.185 1.46973 159.202 1.46973C170.219 1.46973 179.15 10.4006 179.15 21.4175C179.15 32.4343 170.219 41.3652 159.202 41.3652C148.185 41.3652 139.254 32.4343 139.254 21.4175Z"
      fill="white"
    />
  </g>
  <path
    fill-rule="evenodd"
    clip-rule="evenodd"
    d="M11.4481 147.289L11.4711 147.506H15.2312L15.227 147.259C15.2078 146.137 14.8961 145.136 14.2885 144.266C13.6832 143.392 12.8514 142.715 11.8015 142.232C10.7546 141.741 9.54346 141.499 8.17423 141.499C6.82255 141.499 5.60361 141.741 4.52205 142.23C3.44126 142.713 2.57863 143.396 1.94223 144.281L1.94156 144.282C1.30692 145.174 0.992246 146.211 0.992246 147.385C0.992246 148.814 1.46335 149.981 2.4177 150.861L2.41899 150.862C3.36009 151.718 4.62945 152.346 6.21222 152.758L8.36271 153.319C9.0296 153.491 9.60688 153.686 10.0963 153.903L10.0996 153.905C10.585 154.112 10.9479 154.367 11.2008 154.662L11.2023 154.663C11.4408 154.936 11.5699 155.288 11.5759 155.737C11.5698 156.233 11.4233 156.659 11.1387 157.025C10.8494 157.391 10.4438 157.685 9.91022 157.903C9.38518 158.113 8.76516 158.221 8.04505 158.221C7.35647 158.221 6.74032 158.116 6.19348 157.91C5.65854 157.706 5.23077 157.401 4.90316 156.995C4.58257 156.597 4.39363 156.093 4.3474 155.466L4.33077 155.241H0.484375L0.494154 155.494C0.544797 156.801 0.881249 157.925 1.51429 158.854L1.51494 158.855C2.15234 159.78 3.03343 160.481 4.1482 160.958C5.26748 161.435 6.5777 161.669 8.07273 161.669C9.61029 161.669 10.9352 161.428 12.0384 160.938C13.144 160.442 14.001 159.751 14.596 158.86C15.1908 157.964 15.4854 156.929 15.4854 155.765C15.4854 154.906 15.3259 154.145 14.9985 153.489C14.6759 152.842 14.2364 152.289 13.6813 151.831C13.1396 151.38 12.526 151.007 11.8418 150.712C11.1707 150.42 10.4718 150.188 9.74525 150.017L7.97551 149.569L7.97283 149.568C7.59396 149.477 7.2179 149.364 6.84464 149.23C6.4792 149.099 6.14848 148.938 5.85154 148.75C5.56574 148.562 5.34305 148.339 5.17897 148.079C5.02819 147.831 4.94806 147.531 4.94783 147.171C4.95365 146.741 5.0771 146.364 5.31685 146.033C5.55687 145.701 5.90898 145.43 6.3873 145.226C6.86043 145.024 7.43835 144.919 8.1281 144.919C9.10753 144.919 9.87789 145.138 10.4593 145.555L10.4602 145.556C11.0403 145.968 11.3689 146.539 11.4481 147.289ZM69.1216 158.062L70.4226 161.068H74.7911L65.869 141.66H65.2344L56.1696 161.068H60.4587L61.7914 158.062H69.1216ZM63.0925 155.119L65.4406 149.834H65.5517L67.8417 155.119H63.0925ZM44.4774 142.081H40.1618V161.068H53.3095V157.759H44.4774V142.081ZM85.2432 142.073C87.2106 142.073 88.8924 142.621 90.2516 143.747C91.6426 144.841 92.3354 146.367 92.3354 148.298C92.3354 150.487 91.0872 152.882 88.5116 154.06L93.5518 161.064H88.628L83.5879 153.313V152.908C86.6024 152.561 88.078 150.777 88.078 148.904C88.078 146.714 86.6606 145.331 84.4288 145.331H81.8214V161.064H77.5059V142.073H85.2379H85.2432ZM96.5672 161.12H100.883V142.061H96.5672V161.12ZM117.363 142.082H121.647V153.471C121.647 155.79 120.954 157.676 119.531 159.134C118.114 160.565 116.083 161.281 113.449 161.281C108.034 161.281 105.252 158.277 105.252 153.554V142.082H109.567V153.528C109.567 155.905 110.927 157.791 113.476 157.791C116.025 157.791 117.358 155.989 117.358 153.669V142.082H117.363ZM160.305 142.081H164.62V157.759H173.452V161.068H160.305V142.081ZM189.264 158.062L190.565 161.068H194.934L186.012 141.66H185.377L176.312 161.068H180.601L181.934 158.062H189.264ZM183.235 155.119L185.583 149.834H185.694L187.984 155.119H183.235ZM197.776 161.069V142.072H205.159C206.53 142.072 207.688 142.286 208.623 142.728C209.556 143.16 210.267 143.758 210.738 144.527C211.213 145.291 211.448 146.155 211.448 147.112C211.448 147.896 211.296 148.583 210.982 149.161L210.981 149.162C210.672 149.725 210.254 150.185 209.73 150.538C209.393 150.765 209.032 150.95 208.645 151.093C209.103 151.196 209.546 151.378 209.974 151.637C210.625 152.021 211.154 152.564 211.561 153.258C211.976 153.965 212.177 154.811 212.177 155.784C212.177 156.784 211.933 157.689 211.441 158.495C210.945 159.3 210.201 159.93 209.224 160.386C208.241 160.845 207.019 161.069 205.569 161.069H197.776ZM207.891 154.165L207.89 154.164C207.642 153.758 207.288 153.438 206.82 153.203L206.818 153.202C206.354 152.964 205.792 152.84 205.123 152.84H201.634V157.789H205.031C206.239 157.789 207.052 157.558 207.528 157.15C208.021 156.726 208.265 156.19 208.265 155.522C208.265 155.015 208.139 154.565 207.891 154.165ZM207.223 148.822C207.465 148.469 207.591 148.047 207.591 147.546C207.591 146.893 207.362 146.367 206.903 145.95L206.902 145.949C206.458 145.541 205.776 145.316 204.813 145.316H201.634V149.949H204.74C205.293 149.949 205.784 149.849 206.217 149.654C206.649 149.453 206.982 149.175 207.223 148.822ZM226.001 147.289L226.024 147.506H229.784L229.78 147.259C229.761 146.137 229.449 145.136 228.842 144.266C228.236 143.392 227.405 142.715 226.355 142.232C225.308 141.741 224.097 141.499 222.727 141.499C221.376 141.499 220.157 141.741 219.075 142.23C217.994 142.713 217.132 143.396 216.495 144.281L216.495 144.282C215.86 145.174 215.545 146.211 215.545 147.385C215.545 148.814 216.017 149.981 216.971 150.861L216.972 150.862C217.913 151.718 219.183 152.346 220.765 152.758L222.916 153.319C223.583 153.491 224.16 153.686 224.649 153.903L224.653 153.905C225.138 154.112 225.501 154.367 225.754 154.662L225.755 154.663C225.994 154.936 226.123 155.288 226.129 155.737C226.123 156.233 225.976 156.659 225.692 157.025C225.403 157.391 224.997 157.685 224.463 157.903C223.938 158.113 223.318 158.221 222.598 158.221C221.91 158.221 221.293 158.116 220.747 157.91C220.212 157.706 219.784 157.401 219.456 156.995C219.136 156.597 218.947 156.093 218.901 155.466L218.884 155.241H215.038L215.047 155.494C215.098 156.801 215.434 157.925 216.067 158.854L216.068 158.855C216.706 159.78 217.587 160.481 218.701 160.958C219.821 161.435 221.131 161.669 222.626 161.669C224.163 161.669 225.488 161.428 226.592 160.938C227.697 160.442 228.554 159.751 229.149 158.86C229.744 157.964 230.039 156.929 230.039 155.765C230.039 154.906 229.879 154.145 229.552 153.489C229.229 152.842 228.79 152.289 228.234 151.831C227.693 151.38 227.079 151.007 226.395 150.712C225.724 150.42 225.025 150.188 224.298 150.017L222.529 149.569L222.526 149.568C222.147 149.477 221.771 149.364 221.398 149.23C221.032 149.099 220.702 148.938 220.405 148.75C220.119 148.562 219.896 148.339 219.732 148.079C219.581 147.831 219.501 147.531 219.501 147.171C219.507 146.741 219.63 146.364 219.87 146.033C220.11 145.701 220.462 145.43 220.94 145.226C221.414 145.024 221.992 144.919 222.681 144.919C223.661 144.919 224.431 145.138 225.012 145.555L225.013 145.556C225.593 145.968 225.922 146.539 226.001 147.289ZM136.23 157.555H136.224L141.434 151.766C141.492 151.766 141.524 151.766 141.55 151.792V161.07H145.723V141.73H145.115L135.907 152.366L126.668 141.73H126.033V161.065H130.174V151.787C130.201 151.787 130.232 151.787 130.259 151.761L135.59 157.555H136.224L136.219 157.56L136.23 157.555ZM23.0978 160.807C24.3398 161.319 25.6914 161.574 27.1526 161.574C28.5772 161.574 29.9014 161.319 31.1252 160.807C32.3672 160.296 33.4448 159.592 34.358 158.698C35.2713 157.784 35.9836 156.725 36.495 155.519C37.0064 154.296 37.2621 152.981 37.2621 151.574C37.2621 150.15 37.0064 148.834 36.495 147.629C35.9836 146.405 35.2621 145.346 34.3306 144.451C33.4174 143.538 32.3398 142.834 31.0978 142.341C29.874 141.83 28.5407 141.574 27.0978 141.574C25.6366 141.574 24.285 141.83 23.043 142.341C21.8193 142.834 20.7508 143.538 19.8375 144.451C18.9243 145.346 18.212 146.396 17.7006 147.602C17.1891 148.807 16.9334 150.122 16.9334 151.547C16.9334 152.953 17.1891 154.268 17.7006 155.492C18.212 156.698 18.9334 157.757 19.8649 158.67C20.7964 159.583 21.8741 160.296 23.0978 160.807ZM30.1115 156.889C29.253 157.401 28.2485 157.656 27.0978 157.656C26.2393 157.656 25.4539 157.51 24.7416 157.218C24.0293 156.926 23.4174 156.515 22.906 155.985C22.4129 155.437 22.0293 154.789 21.7553 154.04C21.4814 153.291 21.3444 152.46 21.3444 151.547C21.3444 150.323 21.5818 149.264 22.0567 148.369C22.5316 147.455 23.1982 146.752 24.0567 146.259C24.9334 145.748 25.9471 145.492 27.0978 145.492C27.9562 145.492 28.7325 145.638 29.4265 145.93C30.1389 146.204 30.7507 146.615 31.2621 147.163C31.7736 147.693 32.1663 148.332 32.4402 149.081C32.7142 149.812 32.8512 150.634 32.8512 151.547C32.8512 152.752 32.6137 153.821 32.1389 154.752C31.664 155.666 30.9882 156.378 30.1115 156.889Z"
    fill="black"
  />
</svg>
