<svg width="372" height="58" viewBox="0 0 372 58" fill="none" xmlns="http://www.w3.org/2000/svg">
<g clip-path="url(#clip0_1786_6737)">
<path d="M35.7228 9.87356C35.4871 12.9719 35.0006 16.0552 34.1982 19.0684C33.4008 22.0766 32.2875 25.0148 30.8181 27.7677C30.0809 29.1442 29.2584 30.4756 28.3406 31.737C27.4229 32.9983 26.4149 34.1946 25.3266 35.3058C24.9655 35.6762 24.5894 36.0366 24.2133 36.3869C24.3336 36.417 24.454 36.442 24.5794 36.467L25.8081 36.7123C26.6255 36.8675 27.443 37.0527 28.2704 37.1728C30.3918 37.5482 32.5282 37.8285 34.6796 38.0437C34.9404 37.8735 35.2012 37.6983 35.457 37.5182C36.801 36.5721 38.1149 35.5761 39.3135 34.4549C40.5121 33.3437 41.6255 32.1624 42.6034 30.866C43.5663 29.5646 44.4088 28.1731 45.0858 26.6916C46.9715 22.5772 47.483 17.8421 46.8311 13.2071C43.9925 9.59826 40.2162 6.76022 35.8732 5.0534C35.8732 5.10845 35.8732 5.15851 35.8732 5.21357C35.8883 6.77524 35.8381 8.3269 35.7228 9.87856V9.87356Z" fill="black"/>
<path d="M11.2293 42.5335C11.5704 42.3934 11.9164 42.2632 12.2574 42.1131L13.2654 41.6526C14.5944 41.0119 15.8983 40.3261 17.132 39.5253C17.9194 39.0147 18.6867 38.4742 19.4289 37.9035L17.2072 37.408L15.3417 36.9125C14.5092 36.6922 13.6767 36.482 12.8592 36.2117L10.3918 35.4409L7.95953 34.565C7.55331 34.4148 7.1471 34.2747 6.7459 34.1195L5.55232 33.624C4.75493 33.2886 3.95252 32.9683 3.16517 32.6179L0.818133 31.5067L0.32666 31.2714C0.697772 36.1717 2.43297 40.6915 5.1461 44.4556C6.50016 44.1302 7.83917 43.7548 9.15812 43.3143C9.85521 43.0591 10.5623 42.8288 11.2444 42.5385L11.2293 42.5335Z" fill="black"/>
<path d="M1.41996 27.6476C1.59548 27.7577 1.77603 27.8578 1.95657 27.9529L2.49819 28.2482L4.67471 29.4295C5.40691 29.8099 6.15916 30.1503 6.90138 30.5107L8.01974 31.0462C8.39586 31.2164 8.78202 31.3716 9.15815 31.5368L11.445 32.5028L13.777 33.3687C14.5493 33.674 15.3417 33.9143 16.1341 34.1746L17.3176 34.56L17.9094 34.7502L18.5112 34.9204L20.9184 35.5911C21.2193 35.6712 21.5252 35.7413 21.8261 35.8113C22.4831 35.1756 23.12 34.5149 23.7168 33.8242C24.6646 32.728 25.5322 31.5668 26.3095 30.3505C27.0869 29.1342 27.7739 27.8578 28.3757 26.5464C29.5793 23.9236 30.4419 21.1456 31.0136 18.3126C31.5904 15.4796 31.8662 12.5815 31.9113 9.68836C31.9314 8.24181 31.8913 6.79026 31.791 5.35372C31.7559 4.82815 31.7057 4.30259 31.6505 3.78203C29.9254 3.42165 28.135 3.23145 26.2995 3.23145C12.6787 3.24146 1.49017 13.6826 0.336713 26.9919C0.346743 26.9969 0.356773 27.0019 0.366803 27.0119L1.42497 27.6526L1.41996 27.6476Z" fill="black"/>
<path d="M25.4114 38.9797L24.1376 38.7945C23.7113 38.7345 23.295 38.6444 22.8738 38.5743C22.5327 38.5092 22.1867 38.4492 21.8457 38.3891C20.607 39.3201 19.3081 40.166 17.9641 40.9168C16.625 41.6776 15.2208 42.3133 13.8066 42.8889L12.7334 43.2994C12.3773 43.4345 12.0112 43.5446 11.6501 43.6698C10.933 43.925 10.1908 44.1152 9.46358 44.3355C8.21484 44.6708 6.95607 44.9511 5.69228 45.1814C5.91795 45.4767 6.15366 45.762 6.39438 46.0473C6.69027 46.0323 6.98616 46.0173 7.27703 46.0023C8.10952 45.9472 8.937 45.8871 9.7695 45.8171C10.1857 45.787 10.597 45.742 11.0132 45.6969C11.4295 45.6569 11.8407 45.6218 12.2519 45.5668C18.8567 44.831 25.3813 43.0991 31.2288 40.0459C31.4545 39.9308 31.6751 39.8056 31.8958 39.6855C30.5819 39.5904 29.2679 39.4653 27.959 39.3051C27.1064 39.225 26.2639 39.0848 25.4114 38.9697V38.9797Z" fill="black"/>
<path d="M38.1801 39.9558C38.1149 39.9558 38.0497 39.9558 37.9845 39.9558C37.829 40.0809 37.6736 40.2061 37.5181 40.3262C36.0938 41.4324 34.5943 42.4234 33.0397 43.3244C32.2674 43.7849 31.47 44.1903 30.6726 44.6108C29.8652 44.9962 29.0628 45.4016 28.2353 45.747C27.4178 46.1174 26.5803 46.4277 25.7478 46.7531C24.9053 47.0534 24.0628 47.3587 23.2102 47.624C21.5101 48.1646 19.7799 48.6301 18.0347 49.0005C16.2895 49.3709 14.5342 49.7012 12.7689 49.9014C12.0769 49.9865 11.3848 50.0516 10.6927 50.1117C15.0458 53.3702 20.452 55.2972 26.3145 55.2972C37.1219 55.2972 46.3897 48.7352 50.3465 39.3902C49.6946 39.4603 49.0426 39.5253 48.3857 39.5804C45.0005 39.8707 41.5953 40.0008 38.1851 39.9658L38.1801 39.9558Z" fill="black"/>
<path d="M48.6764 22.372C48.4557 24.1539 48.0294 25.9258 47.4076 27.6276C46.7857 29.3344 45.9682 30.9762 44.9753 32.5028C43.9773 34.0245 42.8138 35.441 41.555 36.7374C40.9983 37.323 40.4116 37.8786 39.8148 38.4142C42.6433 38.5543 45.4868 38.5793 48.3253 38.4842C49.1327 38.4592 49.9401 38.4192 50.7476 38.3741C51.8108 35.5361 52.3925 32.4678 52.3925 29.2594C52.3925 24.2941 50.9983 19.6591 48.5861 15.7099C48.6513 16.1453 48.7014 16.5808 48.7365 17.0213C48.902 18.7882 48.897 20.5851 48.6864 22.367L48.6764 22.372Z" fill="black"/>
<path d="M55.7612 10.6997C55.7612 15.2223 52.0949 18.8886 47.5723 18.8886C43.0496 18.8886 39.3833 15.2223 39.3833 10.6997C39.3833 6.17706 43.0496 2.51074 47.5723 2.51074C52.0949 2.51074 55.7612 6.17706 55.7612 10.6997Z" fill="black"/>
<path fill-rule="evenodd" clip-rule="evenodd" d="M47.5721 3.63063C43.6681 3.63063 40.5032 6.7955 40.5032 10.6996C40.5032 14.6036 43.6681 17.7685 47.5721 17.7685C51.4762 17.7685 54.6411 14.6036 54.6411 10.6996C54.6411 6.7955 51.4762 3.63063 47.5721 3.63063ZM38.2632 10.6996C38.2632 5.55838 42.4309 1.39062 47.5721 1.39062C52.7133 1.39062 56.8811 5.55838 56.8811 10.6996C56.8811 15.8408 52.7133 20.0085 47.5721 20.0085C42.4309 20.0085 38.2632 15.8408 38.2632 10.6996Z" fill="white"/>
</g>
<path fill-rule="evenodd" clip-rule="evenodd" d="M366.057 22.4104L366.087 22.6944H370.995L370.99 22.3717C370.965 20.9069 370.558 19.6011 369.765 18.4647C368.975 17.3243 367.889 16.4399 366.518 15.8089C365.152 15.168 363.571 14.8525 361.783 14.8525C360.019 14.8525 358.428 15.1684 357.016 15.8073C355.605 16.4376 354.479 17.3292 353.648 18.4846L353.647 18.4858C352.819 19.6498 352.408 21.004 352.408 22.5357C352.408 24.401 353.023 25.9248 354.269 27.0738L354.271 27.0753C355.499 28.1922 357.156 29.0126 359.222 29.55L362.029 30.2819C362.9 30.5063 363.654 30.7611 364.292 31.0451L364.297 31.0469C364.93 31.3175 365.404 31.6497 365.734 32.0348L365.736 32.0371C366.048 32.3934 366.216 32.8524 366.224 33.4382C366.216 34.0862 366.025 34.6426 365.653 35.1204C365.276 35.5978 364.746 35.982 364.05 36.2657C363.364 36.5401 362.555 36.6817 361.615 36.6817C360.716 36.6817 359.912 36.5445 359.198 36.2755C358.499 36.0093 357.941 35.6103 357.513 35.0803C357.095 34.5616 356.848 33.9026 356.788 33.0854L356.766 32.7915H351.745L351.758 33.1211C351.824 34.8278 352.263 36.2947 353.09 37.507L353.09 37.5082C353.922 38.7165 355.073 39.6314 356.528 40.2544C357.989 40.8763 359.699 41.1821 361.651 41.1821C363.658 41.1821 365.388 40.8681 366.828 40.2276C368.271 39.5809 369.389 38.6792 370.166 37.5168L370.166 37.5159C370.943 36.3451 371.327 34.9943 371.327 33.4746C371.327 32.354 371.119 31.3606 370.692 30.5038C370.271 29.6596 369.697 28.9376 368.972 28.3401C368.265 27.7507 367.464 27.2638 366.571 26.8786C365.695 26.4974 364.783 26.195 363.834 25.9713L361.524 25.3866L361.52 25.3857C361.026 25.2665 360.535 25.1194 360.048 24.9444C359.571 24.773 359.139 24.5638 358.751 24.3178C358.378 24.0731 358.088 23.7807 357.873 23.4417C357.677 23.1178 357.572 22.727 357.572 22.2572C357.579 21.6948 357.74 21.2027 358.053 20.7706C358.367 20.338 358.826 19.9843 359.451 19.7177C360.068 19.454 360.823 19.3164 361.723 19.3164C363.002 19.3164 364.007 19.6025 364.766 20.1471L364.767 20.148C365.525 20.6861 365.954 21.4313 366.057 22.4104ZM161.268 36.4736L162.967 40.3976H168.669L157.022 15.0635H156.194L144.361 40.3976H149.96L151.7 36.4736H161.268ZM153.398 32.6321L156.463 25.7341H156.608L159.598 32.6321H153.398ZM129.098 15.6113H123.465V40.397H140.628V36.0775H129.098V15.6113ZM182.313 15.6025C184.881 15.6025 187.077 16.3169 188.851 17.7869C190.667 19.2157 191.571 21.2078 191.571 23.7287C191.571 26.5863 189.942 29.7118 186.58 31.2505L193.159 40.3933H186.732L180.152 30.275V29.7461C184.087 29.2928 186.014 26.9641 186.014 24.5187C186.014 21.6611 184.163 19.8545 181.25 19.8545H177.846V40.3933H172.213V15.6025H182.306H182.313ZM197.096 40.4647H202.729V15.585H197.096V40.4647ZM224.242 15.6133H229.834V30.4797C229.834 33.5075 228.93 35.9694 227.073 37.872C225.223 39.7405 222.572 40.6748 219.134 40.6748C212.064 40.6748 208.433 36.7536 208.433 30.5888V15.6133H214.066V30.5547C214.066 33.6576 215.84 36.1194 219.168 36.1194C222.496 36.1194 224.235 33.7667 224.235 30.7388V15.6133H224.242ZM84.8763 19.8894C85.7115 20.4829 86.1852 21.3122 86.2977 22.3772H90.5978C90.5737 20.9707 90.1842 19.7268 89.4294 18.6455C88.6746 17.5561 87.6347 16.7065 86.3097 16.0967C84.9928 15.4789 83.459 15.1699 81.7084 15.1699C79.982 15.1699 78.4362 15.4789 77.071 16.0967C75.7059 16.7065 74.6259 17.5642 73.8309 18.6699C73.0439 19.7756 72.6504 21.0642 72.6504 22.5357C72.6504 24.3244 73.2366 25.7593 74.409 26.8406C75.5895 27.9138 77.1955 28.7146 79.2271 29.243L82.0337 29.9747C82.917 30.2024 83.6879 30.4626 84.3463 30.7552C85.0128 31.0398 85.5308 31.3975 85.9002 31.8284C86.2695 32.2512 86.4583 32.7877 86.4663 33.4382C86.4583 34.1536 86.2455 34.7796 85.8279 35.3162C85.4103 35.8447 84.8322 36.2593 84.0934 36.5601C83.3626 36.8528 82.5114 36.9991 81.5398 36.9991C80.6083 36.9991 79.7651 36.8568 79.0103 36.5723C78.2635 36.2877 77.6572 35.8568 77.1915 35.2796C76.7257 34.7024 76.4607 33.9788 76.3965 33.1089H72C72.0642 34.7674 72.4898 36.1739 73.2768 37.3284C74.0718 38.4829 75.1719 39.3609 76.5772 39.9625C77.9905 40.5641 79.6567 40.865 81.5759 40.865C83.5513 40.865 85.2337 40.556 86.6229 39.9381C88.0201 39.3121 89.0881 38.4463 89.8269 37.3406C90.5657 36.2268 90.9351 34.9381 90.9351 33.4747C90.9351 32.3934 90.7343 31.4504 90.3328 30.6455C89.9313 29.8406 89.3852 29.1536 88.6946 28.5845C88.0121 28.0154 87.2372 27.5439 86.3699 27.1699C85.5107 26.7959 84.6153 26.4992 83.6838 26.2796L81.3712 25.6943C80.8653 25.5723 80.3634 25.4219 79.8655 25.2431C79.3676 25.0642 78.9139 24.8447 78.5044 24.5845C78.0949 24.3162 77.7697 23.991 77.5287 23.6089C77.2959 23.2268 77.1794 22.7756 77.1794 22.2553C77.1875 21.6293 77.3681 21.0723 77.7215 20.5845C78.0748 20.0967 78.5847 19.7106 79.2512 19.426C79.9177 19.1415 80.7167 18.9992 81.6482 18.9992C82.9732 18.9992 84.0492 19.2959 84.8763 19.8894ZM280.297 15.6113H285.931V36.0775H297.46V40.397H280.297V15.6113ZM318.101 36.4736L319.8 40.3976H325.502L313.855 15.0635H313.027L301.194 40.3976H306.793L308.533 36.4736H318.101ZM310.231 32.6321L313.296 25.7341H313.441L316.431 32.6321H310.231ZM329.212 40.398V15.6006H338.85C340.64 15.6006 342.152 15.8802 343.371 16.4562C344.59 17.0203 345.517 17.8013 346.133 18.8056C346.753 19.8028 347.06 20.9305 347.06 22.1798C347.06 23.2034 346.862 24.099 346.451 24.8545L346.45 24.8558C346.046 25.5908 345.501 26.1909 344.817 26.6519C344.378 26.9481 343.905 27.1893 343.401 27.376C343.998 27.5108 344.577 27.7483 345.136 28.0863C345.985 28.5874 346.676 29.2958 347.207 30.2028C347.749 31.1258 348.012 32.2295 348.012 33.5001C348.012 34.8045 347.692 35.9867 347.05 37.0384L347.049 37.0393C346.402 38.0907 345.431 38.9112 344.156 39.5071C342.873 40.1066 341.278 40.398 339.385 40.398H329.212ZM342.416 31.3861L342.415 31.3844C342.091 30.8554 341.629 30.4372 341.018 30.1306L341.015 30.1293C340.41 29.8182 339.676 29.6561 338.802 29.6561H334.248V36.1165H338.683C340.26 36.1165 341.321 35.8157 341.942 35.2828C342.586 34.7294 342.905 34.0293 342.905 33.1578C342.905 32.4961 342.741 31.9083 342.416 31.3861ZM341.543 24.4125L341.544 24.4117C341.861 23.9504 342.024 23.3998 342.024 22.7464C342.024 21.8936 341.725 21.2073 341.127 20.6629L341.125 20.6616C340.546 20.1283 339.655 19.8349 338.398 19.8349H334.248V25.8821H338.303C339.025 25.8821 339.666 25.7517 340.231 25.4972C340.795 25.2354 341.229 24.8733 341.543 24.4125ZM248.871 35.8119H248.863L255.664 28.2554C255.74 28.2554 255.781 28.2554 255.816 28.2898V40.4007H261.263V15.1553H260.469L248.449 29.0386L236.389 15.1553H235.56V40.3939H240.966V28.2829C241 28.2829 241.042 28.2829 241.076 28.2486L248.035 35.8119H248.863L248.857 35.8188L248.871 35.8119ZM101.189 40.0564C102.811 40.724 104.575 41.0578 106.483 41.0578C108.342 41.0578 110.071 40.724 111.668 40.0564C113.29 39.3888 114.696 38.4709 115.888 37.3026C117.081 36.1105 118.01 34.7276 118.678 33.154C119.346 31.5566 119.679 29.8399 119.679 28.004C119.679 26.1443 119.346 24.4276 118.678 22.854C118.01 21.2566 117.069 19.8737 115.853 18.7054C114.661 17.5133 113.254 16.5953 111.633 15.9516C110.035 15.284 108.295 14.9502 106.411 14.9502C104.504 14.9502 102.739 15.284 101.118 15.9516C99.5205 16.5953 98.1257 17.5133 96.9336 18.7054C95.7414 19.8737 94.8116 21.2446 94.144 22.8182C93.4764 24.3919 93.1426 26.1085 93.1426 27.9682C93.1426 29.8041 93.4764 31.5208 94.144 33.1182C94.8116 34.6919 95.7533 36.0747 96.9693 37.2669C98.1853 38.459 99.592 39.3888 101.189 40.0564ZM110.345 34.9422C109.224 35.6098 107.913 35.9436 106.411 35.9436C105.29 35.9436 104.265 35.7529 103.335 35.3714C102.405 34.9899 101.607 34.4534 100.939 33.762C100.295 33.0467 99.7947 32.2003 99.437 31.2228C99.0794 30.2452 98.9006 29.1604 98.9006 27.9682C98.9006 26.3708 99.2105 24.9879 99.8304 23.8196C100.45 22.6275 101.321 21.7096 102.441 21.0658C103.586 20.3982 104.909 20.0644 106.411 20.0644C107.532 20.0644 108.545 20.2552 109.451 20.6367C110.381 20.9943 111.18 21.5308 111.847 22.246C112.515 22.9375 113.027 23.772 113.385 24.7495C113.743 25.7032 113.921 26.7761 113.921 27.9682C113.921 29.5419 113.611 30.9367 112.992 32.1526C112.372 33.3448 111.489 34.2746 110.345 34.9422Z" fill="black"/>
<defs>
<clipPath id="clip0_1786_6737">
<rect width="56" height="56" fill="white" transform="translate(0 0.00390625)"/>
</clipPath>
</defs>
</svg>
