<svg
  width="121"
  height="120"
  viewBox="0 0 121 120"
  fill="none"
  xmlns="http://www.w3.org/2000/svg"
>
  <g>
    <path
      d="M79.1458 19.1472C78.6407 25.7864 77.5983 32.3935 75.8789 38.8504C74.1702 45.2966 71.7845 51.5926 68.6357 57.4918C67.056 60.4414 65.2936 63.2944 63.327 65.9973C61.3604 68.7002 59.2003 71.2637 56.8683 73.6448C56.0946 74.4385 55.2886 75.2108 54.4826 75.9616C54.7405 76.0259 54.9984 76.0795 55.2671 76.1332L57.9 76.6587C59.6517 76.9912 61.4033 77.3881 63.1765 77.6455C67.7223 78.4499 72.3003 79.0506 76.9105 79.5118C77.4693 79.1471 78.0282 78.7717 78.5762 78.3856C81.4563 76.3584 84.2719 74.224 86.8403 71.8214C89.4087 69.4403 91.7944 66.909 93.89 64.131C95.9533 61.3423 97.7587 58.3606 99.2095 55.1858C103.25 46.3692 104.346 36.2226 102.949 26.2905C96.8668 18.5572 88.7747 12.4757 79.4682 8.81824C79.4682 8.93622 79.4682 9.04348 79.4682 9.16147C79.5004 12.5079 79.393 15.8329 79.1458 19.1579V19.1472Z"
      fill="url(#solarium_labs_paint_0)"
    />
    <path
      d="M26.6599 89.1328C27.3906 88.8324 28.1321 88.5536 28.8629 88.2318L31.0229 87.245C33.8708 85.8721 36.6648 84.4027 39.3085 82.6866C40.9957 81.5925 42.6399 80.4342 44.2304 79.2114L39.4697 78.1496L35.472 77.0877C33.6881 76.6158 31.9041 76.1653 30.1525 75.5861L24.8652 73.9343L19.6532 72.0573C18.7827 71.7356 17.9122 71.4352 17.0525 71.1027L14.4948 70.0409C12.7861 69.3223 11.0667 68.6358 9.37951 67.885L4.35015 65.5039L3.297 64.9998C4.09224 75.5003 7.81052 85.1857 13.6244 93.2515C16.5259 92.5543 19.3952 91.7499 22.2216 90.806C23.7153 90.259 25.2306 89.7656 26.6921 89.1435L26.6599 89.1328Z"
      fill="url(#solarium_labs_paint_1)"
    />
    <path
      d="M5.63978 57.2344C6.01591 57.4703 6.40278 57.6849 6.78965 57.8887L7.95028 58.5215L12.6143 61.0528C14.1832 61.8679 15.7952 62.5973 17.3857 63.3695L19.7822 64.5172C20.5881 64.8819 21.4156 65.2144 22.2216 65.5683L27.122 67.6384L32.1191 69.4939C33.7741 70.1482 35.472 70.663 37.17 71.2208L39.7062 72.0467L40.9742 72.4543L42.2638 72.8189L47.4221 74.2562C48.0669 74.4278 48.7225 74.5779 49.3673 74.7281C50.775 73.3659 52.1398 71.9501 53.4187 70.47C55.4498 68.121 57.3089 65.6327 58.9746 63.0263C60.6403 60.4199 62.1126 57.6849 63.4022 54.8747C65.9813 49.2544 67.8297 43.3016 69.0548 37.2308C70.2907 31.16 70.8817 24.9498 70.9784 18.7503C71.0214 15.6506 70.9355 12.5401 70.7205 9.46179C70.6453 8.33558 70.5378 7.20938 70.4196 6.0939C66.7228 5.32164 62.8863 4.91406 58.9531 4.91406C29.7657 4.93551 5.79023 27.3095 3.31854 55.8293C3.34003 55.84 3.36152 55.8508 3.38302 55.8722L5.65053 57.2451L5.63978 57.2344Z"
      fill="url(#solarium_labs_paint_2)"
    />
    <path
      d="M57.0499 81.5176L54.3203 81.1207C53.4069 80.992 52.5149 80.7989 51.6122 80.6488C50.8815 80.5093 50.14 80.3806 49.4092 80.2519C46.7548 82.2469 43.9715 84.0596 41.0914 85.6684C38.2221 87.2987 35.2131 88.6609 32.1826 89.8944L29.8828 90.7739C29.1198 91.0635 28.3353 91.2995 27.5616 91.5676C26.0248 92.1146 24.4344 92.5222 22.8761 92.9941C20.2002 93.7128 17.5029 94.3134 14.7948 94.8068C15.2783 95.4396 15.7834 96.051 16.2993 96.6623C16.9333 96.6302 17.5673 96.598 18.1906 96.5658C19.9746 96.4478 21.7477 96.3191 23.5316 96.169C24.4236 96.1046 25.3048 96.0081 26.1968 95.9115C27.0887 95.8257 27.9699 95.7507 28.8512 95.6327C43.0043 94.056 56.9855 90.3449 69.5159 83.8021C69.9995 83.5555 70.4723 83.2873 70.9452 83.0299C68.1296 82.8261 65.314 82.558 62.5092 82.2147C60.6823 82.0431 58.8768 81.7428 57.0499 81.4961V81.5176Z"
      fill="url(#solarium_labs_paint_3)"
    />
    <path
      d="M84.4115 83.6091C84.2718 83.6091 84.1321 83.6091 83.9924 83.6091C83.6592 83.8773 83.3261 84.1454 82.9929 84.4028C79.9409 86.7732 76.7277 88.8969 73.3963 90.8276C71.7414 91.8143 70.0327 92.6831 68.324 93.5841C66.5938 94.41 64.8744 95.2787 63.1012 96.0188C61.3495 96.8125 59.5548 97.4775 57.7709 98.1747C55.9655 98.8183 54.1601 99.4725 52.3332 100.041C48.6901 101.199 44.9826 102.197 41.2428 102.991C37.503 103.784 33.7418 104.492 29.959 104.921C28.476 105.104 26.993 105.243 25.51 105.372C34.8379 112.354 46.4226 116.484 58.9853 116.484C82.144 116.484 102.003 102.422 110.482 82.3971C109.085 82.5473 107.688 82.6867 106.281 82.8047C99.0267 83.4268 91.7298 83.7056 84.4222 83.6306L84.4115 83.6091Z"
      fill="url(#solarium_labs_paint_4)"
    />
    <path
      d="M106.904 45.9295C106.431 49.7479 105.517 53.5448 104.185 57.1916C102.852 60.8491 101.1 64.3671 98.9726 67.6385C96.834 70.8991 94.3409 73.9345 91.6435 76.7125C90.4506 77.9674 89.1933 79.158 87.9145 80.3056C93.9755 80.6059 100.069 80.6596 106.151 80.4558C107.881 80.4022 109.612 80.3164 111.342 80.2198C113.62 74.1383 114.867 67.5634 114.867 60.6882C114.867 50.0482 111.879 40.1162 106.71 31.6535C106.85 32.5867 106.957 33.5198 107.032 34.4637C107.387 38.2499 107.376 42.1004 106.925 45.9188L106.904 45.9295Z"
      fill="url(#solarium_labs_paint_5)"
    />
    <path
      d="M122.085 20.9179C122.085 30.6092 114.229 38.4656 104.537 38.4656C94.8459 38.4656 86.9895 30.6092 86.9895 20.9179C86.9895 11.2265 94.8459 3.37012 104.537 3.37012C114.229 3.37012 122.085 11.2265 122.085 20.9179Z"
      fill="#12BDBD"
    />
    <path
      fill-rule="evenodd"
      clip-rule="evenodd"
      d="M104.537 5.76973C96.1714 5.76973 89.3895 12.5516 89.3895 20.9175C89.3895 29.2833 96.1714 36.0652 104.537 36.0652C112.903 36.0652 119.685 29.2833 119.685 20.9175C119.685 12.5516 112.903 5.76973 104.537 5.76973ZM84.5895 20.9175C84.5895 9.90064 93.5204 0.969727 104.537 0.969727C115.554 0.969727 124.485 9.90064 124.485 20.9175C124.485 31.9343 115.554 40.8652 104.537 40.8652C93.5204 40.8652 84.5895 31.9343 84.5895 20.9175Z"
      fill="white"
    />
  </g>
  <defs>
    <linearGradient
      id="solarium_labs_paint_0"
      x1="88.9487"
      y1="13.2644"
      x2="1.60468"
      y2="100.756"
      gradientUnits="userSpaceOnUse"
    >
      <stop stop-color="#02C6B4" />
      <stop offset="1" stop-color="#6C83FF" />
    </linearGradient>
    <linearGradient
      id="solarium_labs_paint_1"
      x1="88.9487"
      y1="13.2644"
      x2="1.60468"
      y2="100.756"
      gradientUnits="userSpaceOnUse"
    >
      <stop stop-color="#02C6B4" />
      <stop offset="1" stop-color="#6C83FF" />
    </linearGradient>
    <linearGradient
      id="solarium_labs_paint_2"
      x1="88.9487"
      y1="13.2644"
      x2="1.60468"
      y2="100.756"
      gradientUnits="userSpaceOnUse"
    >
      <stop stop-color="#02C6B4" />
      <stop offset="1" stop-color="#6C83FF" />
    </linearGradient>
    <linearGradient
      id="solarium_labs_paint_3"
      x1="88.9487"
      y1="13.2644"
      x2="1.60468"
      y2="100.756"
      gradientUnits="userSpaceOnUse"
    >
      <stop stop-color="#02C6B4" />
      <stop offset="1" stop-color="#6C83FF" />
    </linearGradient>
    <linearGradient
      id="solarium_labs_paint_4"
      x1="88.9487"
      y1="13.2644"
      x2="1.60468"
      y2="100.756"
      gradientUnits="userSpaceOnUse"
    >
      <stop stop-color="#02C6B4" />
      <stop offset="1" stop-color="#6C83FF" />
    </linearGradient>
    <linearGradient
      id="solarium_labs_paint_5"
      x1="88.9487"
      y1="13.2644"
      x2="1.60468"
      y2="100.756"
      gradientUnits="userSpaceOnUse"
    >
      <stop stop-color="#02C6B4" />
      <stop offset="1" stop-color="#6C83FF" />
    </linearGradient>
  </defs>
</svg>
