<svg width="322" height="30" viewBox="0 0 322 30" fill="none" xmlns="http://www.w3.org/2000/svg">
<path fill-rule="evenodd" clip-rule="evenodd" d="M316.216 9.00317L316.248 9.30773H321.512L321.506 8.96162C321.48 7.39037 321.043 5.98963 320.192 4.77076C319.345 3.54804 318.18 2.59975 316.711 1.92314C315.245 1.23574 313.549 0.897461 311.633 0.897461C309.74 0.897461 308.034 1.23619 306.519 1.9214C305.006 2.5974 303.799 3.55361 302.908 4.79278L302.907 4.79411C302.018 6.04247 301.578 7.49482 301.578 9.13747C301.578 11.138 302.237 12.7722 303.573 14.0045L303.575 14.0062C304.893 15.204 306.67 16.0839 308.886 16.6603L311.896 17.4452C312.83 17.6858 313.638 17.9592 314.323 18.2637L314.328 18.2657C315.008 18.5559 315.516 18.9121 315.87 19.3252L315.872 19.3276C316.206 19.7098 316.386 20.202 316.395 20.8303C316.386 21.5253 316.181 22.122 315.783 22.6344C315.378 23.1465 314.81 23.5585 314.063 23.8628C313.328 24.1571 312.46 24.3089 311.452 24.3089C310.488 24.3089 309.625 24.1618 308.859 23.8732C308.111 23.5878 307.512 23.1598 307.053 22.5914C306.604 22.0351 306.34 21.3284 306.275 20.4519L306.252 20.1367H300.867L300.88 20.4902C300.951 22.3206 301.422 23.8938 302.309 25.194L302.31 25.1953C303.202 26.4912 304.435 27.4723 305.996 28.1405C307.563 28.8075 309.397 29.1355 311.49 29.1355C313.643 29.1355 315.498 28.7987 317.042 28.1118C318.59 27.4183 319.789 26.4512 320.622 25.2045L320.623 25.2035C321.456 23.9479 321.868 22.4991 321.868 20.8694C321.868 19.6675 321.645 18.6021 321.187 17.6831C320.735 16.7778 320.12 16.0034 319.342 15.3627C318.584 14.7305 317.725 14.2083 316.767 13.7952C315.828 13.3863 314.849 13.062 313.832 12.8222L311.354 12.195L311.351 12.1941C310.82 12.0663 310.294 11.9085 309.771 11.7208C309.259 11.537 308.796 11.3127 308.381 11.0488C307.981 10.7863 307.669 10.4728 307.439 10.1091C307.228 9.76179 307.116 9.34269 307.116 8.83883C307.124 8.23561 307.297 7.70785 307.632 7.24444C307.968 6.78052 308.461 6.40118 309.131 6.11528C309.793 5.83249 310.602 5.68484 311.568 5.68484C312.939 5.68484 314.018 5.99172 314.832 6.5758L314.833 6.5767C315.645 7.15381 316.105 7.95302 316.216 9.00317ZM96.5836 24.085L98.405 28.2935H104.521L92.03 1.12305H91.1415L78.4507 28.2935H84.4555L86.3213 24.085H96.5836ZM88.1428 19.9652L91.4303 12.5671H91.5857L94.7918 19.9652H88.1428ZM62.0814 1.71191H56.0396V28.2942H74.4464V23.6616H62.0814V1.71191ZM119.154 1.70117C121.908 1.70117 124.263 2.46734 126.165 4.04389C128.113 5.57624 129.083 7.71268 129.083 10.4164C129.083 13.4811 127.335 16.8331 123.729 18.4833L130.786 28.2888H123.892L116.836 17.4372V16.8699C121.057 16.3837 123.122 13.8863 123.122 11.2636C123.122 8.19891 121.138 6.26138 118.013 6.26138H114.363V28.2888H108.321V1.70117H119.146H119.154ZM135.007 28.3667H141.049V1.68359H135.007V28.3667ZM164.122 1.71289H170.119V17.6569C170.119 20.9042 169.149 23.5445 167.157 25.585C165.173 27.589 162.33 28.591 158.643 28.591C151.061 28.591 147.166 24.3855 147.166 17.7739V1.71289H153.208V17.7373C153.208 21.0651 155.111 23.7054 158.68 23.7054C162.248 23.7054 164.114 21.1821 164.114 17.9348V1.71289H164.122ZM14.6543 6.29889C15.55 6.9354 16.0581 7.82477 16.1787 8.96701H20.7905C20.7647 7.45856 20.347 6.1245 19.5375 4.96482C18.7279 3.79643 17.6126 2.88526 16.1916 2.23131C14.7792 1.56864 13.1343 1.2373 11.2568 1.2373C9.40523 1.2373 7.74739 1.56864 6.28332 2.23131C4.81925 2.88526 3.66091 3.80515 2.8083 4.99098C1.96431 6.17681 1.54231 7.55883 1.54231 9.13703C1.54231 11.0553 2.171 12.5943 3.42838 13.7539C4.69437 14.9049 6.4168 15.7637 8.59568 16.3305L11.6056 17.1152C12.553 17.3594 13.3797 17.6384 14.0859 17.9523C14.8008 18.2575 15.3562 18.6411 15.7524 19.1032C16.1486 19.5567 16.3509 20.1321 16.3596 20.8297C16.3509 21.597 16.1227 22.2684 15.6749 22.8438C15.2271 23.4106 14.607 23.8553 13.8147 24.1779C13.031 24.4918 12.1181 24.6488 11.076 24.6488C10.077 24.6488 9.1727 24.4962 8.36315 24.191C7.56222 23.8858 6.912 23.4237 6.4125 22.8046C5.91299 22.1855 5.62879 21.4095 5.55989 20.4765H0.844727C0.913624 22.2553 1.37007 23.7637 2.21406 25.0019C3.06667 26.24 4.24654 27.1817 5.75367 27.827C7.26941 28.4722 9.05643 28.7948 11.1147 28.7948C13.2333 28.7948 15.0376 28.4635 16.5275 27.8008C18.026 27.1294 19.1714 26.2008 19.9638 25.015C20.7561 23.8204 21.1522 22.4384 21.1522 20.8689C21.1522 19.7092 20.9369 18.6978 20.5063 17.8346C20.0757 16.9714 19.4901 16.2346 18.7494 15.6242C18.0174 15.0139 17.1863 14.5082 16.2562 14.1071C15.3347 13.706 14.3745 13.3877 13.3754 13.1523L10.8951 12.5245C10.3526 12.3937 9.81431 12.2324 9.28035 12.0406C8.7464 11.8487 8.25981 11.6133 7.82059 11.3343C7.38137 11.0466 7.03257 10.6978 6.77421 10.288C6.52446 9.87818 6.39958 9.39425 6.39958 8.83622C6.40819 8.16483 6.60197 7.56755 6.9809 7.04439C7.35984 6.52123 7.90671 6.10706 8.62152 5.80188C9.33633 5.49671 10.1932 5.34412 11.1923 5.34412C12.6133 5.34412 13.7673 5.66237 14.6543 6.29889ZM224.24 1.71094H230.282V23.6606H242.647V28.2932H224.24V1.71094ZM264.784 24.085L266.605 28.2935H272.721L260.23 1.12305H259.342L246.651 28.2935H252.656L254.522 24.085H264.784ZM256.343 19.9652L259.63 12.5671H259.786L262.992 19.9652H256.343ZM276.701 28.295V1.7002H287.037C288.957 1.7002 290.578 2.0001 291.886 2.6178C293.193 3.22286 294.187 4.06051 294.848 5.13761C295.512 6.20706 295.842 7.41647 295.842 8.75628C295.842 9.85407 295.629 10.8146 295.189 11.6248L295.188 11.6262C294.755 12.4145 294.17 13.0581 293.436 13.5526C292.965 13.8702 292.458 14.1289 291.917 14.3292C292.558 14.4738 293.179 14.7284 293.778 15.091C294.689 15.6284 295.43 16.388 296 17.3608C296.58 18.3507 296.862 19.5344 296.862 20.8971C296.862 22.2961 296.52 23.564 295.831 24.6918L295.831 24.6928C295.136 25.8204 294.095 26.7004 292.728 27.3395C291.352 27.9825 289.641 28.295 287.611 28.295H276.701ZM290.861 18.6298L290.86 18.6281C290.513 18.0608 290.017 17.6122 289.362 17.2834L289.359 17.282C288.71 16.9483 287.923 16.7745 286.986 16.7745H282.101V23.7031H286.858C288.549 23.7031 289.687 23.3806 290.353 22.809C291.043 22.2155 291.385 21.4647 291.385 20.53C291.385 19.8204 291.209 19.1899 290.861 18.6298ZM289.925 11.1509L289.926 11.1499C290.266 10.6553 290.441 10.0648 290.441 9.36395C290.441 8.44932 290.121 7.71327 289.479 7.12943L289.477 7.12809C288.856 6.55604 287.901 6.24145 286.552 6.24145H282.101V12.727H286.45C287.225 12.727 287.912 12.5871 288.518 12.3141C289.123 12.0334 289.588 11.645 289.925 11.1509ZM190.535 23.3756H190.527L197.821 15.2714C197.902 15.2714 197.947 15.2714 197.984 15.3082V28.297H203.826V1.22168H202.974L190.083 16.1113L177.148 1.22168H176.26V28.2897H182.057V15.3009C182.094 15.3009 182.139 15.3009 182.176 15.264L189.639 23.3756H190.527L190.52 23.3829L190.535 23.3756ZM32.1501 27.928C33.889 28.644 35.7812 29.002 37.8269 29.002C39.8214 29.002 41.6752 28.644 43.3885 27.928C45.1273 27.212 46.636 26.2275 47.9145 24.9746C49.1931 23.696 50.1903 22.2129 50.9063 20.5252C51.6223 18.812 51.9803 16.9709 51.9803 15.002C51.9803 13.0074 51.6223 11.1663 50.9063 9.47867C50.1903 7.76542 49.1803 6.28232 47.8762 5.02935C46.5976 3.75081 45.089 2.76634 43.3501 2.07593C41.6369 1.35994 39.7702 1.00195 37.7501 1.00195C35.7045 1.00195 33.8122 1.35994 32.0734 2.07593C30.3602 2.76634 28.8643 3.75081 27.5858 5.02935C26.3072 6.28232 25.31 7.75264 24.594 9.44031C23.878 11.128 23.52 12.9691 23.52 14.9636C23.52 16.9325 23.878 18.7736 24.594 20.4869C25.31 22.1746 26.32 23.6577 27.6241 24.9362C28.9282 26.2147 30.4369 27.212 32.1501 27.928ZM41.9693 22.4431C40.7675 23.159 39.3611 23.517 37.7501 23.517C36.5483 23.517 35.4488 23.3125 34.4515 22.9033C33.4543 22.4942 32.5976 21.9189 31.8817 21.1773C31.1912 20.4102 30.6543 19.5024 30.2707 18.454C29.8871 17.4056 29.6954 16.2421 29.6954 14.9636C29.6954 13.2504 30.0278 11.7673 30.6926 10.5143C31.3575 9.23574 32.2908 8.25127 33.4926 7.56086C34.72 6.84488 36.1392 6.48688 37.7501 6.48688C38.952 6.48688 40.0387 6.69145 41.0104 7.10058C42.0077 7.48415 42.8643 8.05949 43.5803 8.82661C44.2963 9.56816 44.846 10.4631 45.2296 11.5115C45.6132 12.5344 45.8049 13.6851 45.8049 14.9636C45.8049 16.6513 45.4725 18.1472 44.8077 19.4513C44.1428 20.7298 43.1967 21.7271 41.9693 22.4431Z" fill="black"/>
</svg>
