<svg width="322" height="30" viewBox="0 0 322 30" fill="none" xmlns="http://www.w3.org/2000/svg">
<path fill-rule="evenodd" clip-rule="evenodd" d="M15.8406 9.00024L15.8727 9.3048H21.137L21.131 8.95869C21.1041 7.38744 20.6677 5.9867 19.8169 4.76783C18.9696 3.54511 17.8051 2.59682 16.3353 1.92022C14.8696 1.23281 13.174 0.894531 11.2571 0.894531C9.36475 0.894531 7.65822 1.23326 6.14403 1.91847C4.63092 2.59447 3.42323 3.55068 2.53228 4.78985L2.53133 4.79118C1.64283 6.03954 1.20229 7.49189 1.20229 9.13454C1.20229 11.135 1.86185 12.7693 3.19794 14.0016L3.19974 14.0032C4.51732 15.2011 6.29432 16.0809 8.51029 16.6573L11.521 17.4423C12.4546 17.6829 13.2628 17.9562 13.948 18.2608L13.9526 18.2628C14.6323 18.5529 15.1402 18.9092 15.4943 19.3222L15.4964 19.3247C15.8303 19.7068 16 20.5 16.0195 20.8274C16.011 21.5223 15.8057 22.1191 15.4073 22.6314C15.0023 23.1435 14.4345 23.5556 13.6875 23.8599C12.9524 24.1541 12.0844 24.306 11.0763 24.306C10.1122 24.306 9.24964 24.1588 8.48406 23.8703C7.73514 23.5849 7.13626 23.1569 6.67759 22.5884C6.22876 22.0322 5.96424 21.3254 5.89952 20.449L5.87624 20.1338H0.491272L0.504963 20.4872C0.575863 22.3177 1.0469 23.8909 1.93315 25.1911L1.93407 25.1924C2.82643 26.4883 4.05996 27.4694 5.62065 28.1376C7.18764 28.8046 9.02195 29.1326 11.115 29.1326C13.2676 29.1326 15.1225 28.7958 16.6669 28.1089C18.2148 27.4153 19.414 26.4482 20.247 25.2015L20.2476 25.2006C21.0804 23.945 21.4928 22.4962 21.4928 20.8664C21.4928 19.6646 21.2695 18.5992 20.8111 17.6802C20.3595 16.7748 19.7441 16.0005 18.9669 15.3598C18.2085 14.7275 17.3494 14.2053 16.3916 13.7923C15.4521 13.3834 14.4736 13.0591 13.4565 12.8192L10.9789 12.1921L10.9751 12.1912C10.4447 12.0633 9.91825 11.9056 9.39567 11.7178C8.88405 11.534 8.42103 11.3097 8.00531 11.0459C7.60519 10.7834 7.29343 10.4699 7.06371 10.1062C6.85263 9.75886 6.74046 9.33976 6.74013 8.8359C6.74827 8.23268 6.9211 7.70492 7.25676 7.24152C7.59279 6.77759 8.08574 6.39825 8.7554 6.11235C9.41778 5.82956 10.2269 5.68192 11.1925 5.68192C12.5637 5.68192 13.6422 5.98879 14.4562 6.57287L14.4575 6.57378C15.2696 7.15088 15.7297 7.95009 15.8406 9.00024ZM16.0195 20.8274L16.0196 20.8234L16.0196 20.8314L16.0195 20.8274ZM96.5837 24.0821L98.4051 28.2906H104.521L92.0301 1.12012H91.1416L78.4508 28.2906H84.4556L86.3215 24.0821H96.5837ZM88.1429 19.9622L91.4304 12.5642H91.5859L94.7919 19.9622H88.1429ZM62.0818 1.70898H56.04V28.2912H74.4468V23.6586H62.0818V1.70898ZM119.154 1.69824C121.908 1.69824 124.263 2.46442 126.166 4.04096C128.113 5.57331 129.083 7.70975 129.083 10.4135C129.083 13.4782 127.336 16.8302 123.73 18.4804L130.786 28.2859H123.893L116.837 17.4343V16.867C121.057 16.3808 123.123 13.8833 123.123 11.2607C123.123 8.19598 121.138 6.25845 118.014 6.25845H114.364V28.2859H108.322V1.69824H119.147H119.154ZM135.008 28.3638H141.05V1.68066H135.008V28.3638ZM164.122 1.70996H170.119V17.654C170.119 20.9013 169.149 23.5415 167.158 25.5821C165.173 27.586 162.33 28.588 158.643 28.588C151.061 28.588 147.166 24.3826 147.166 17.771V1.70996H153.208V17.7344C153.208 21.0622 155.111 23.7024 158.68 23.7024C162.249 23.7024 164.115 21.1792 164.115 17.9319V1.70996H164.122ZM224.24 1.70801H230.282V23.6577H242.647V28.2903H224.24V1.70801ZM264.784 24.0821L266.606 28.2906H272.721L260.231 1.12012H259.342L246.651 28.2906H252.656L254.522 24.0821H264.784ZM256.343 19.9622L259.631 12.5642H259.786L262.992 19.9622H256.343ZM276.701 28.2921V1.69727H287.037C288.957 1.69727 290.578 1.99717 291.886 2.61487C293.193 3.21993 294.188 4.05758 294.848 5.13468C295.512 6.20413 295.842 7.41354 295.842 8.75335C295.842 9.85114 295.629 10.8117 295.189 11.6219L295.188 11.6233C294.755 12.4116 294.17 13.0552 293.436 13.5496C292.965 13.8673 292.458 14.126 291.917 14.3262C292.558 14.4708 293.179 14.7255 293.778 15.088C294.689 15.6255 295.43 16.3851 296 17.3579C296.581 18.3478 296.863 19.5315 296.863 20.8942C296.863 22.2932 296.52 23.5611 295.831 24.6889L295.831 24.6899C295.136 25.8175 294.095 26.6975 292.728 27.3366C291.352 27.9795 289.641 28.2921 287.611 28.2921H276.701ZM290.862 18.6269L290.86 18.6252C290.513 18.0578 290.017 17.6093 289.362 17.2805L289.359 17.279C288.71 16.9454 287.923 16.7716 286.986 16.7716H282.101V23.7002H286.858C288.549 23.7002 289.687 23.3777 290.353 22.8061C291.043 22.2126 291.385 21.4618 291.385 20.5271C291.385 19.8174 291.209 19.187 290.862 18.6269ZM289.925 11.1479L289.926 11.147C290.266 10.6523 290.441 10.0618 290.441 9.36102C290.441 8.44639 290.121 7.71034 289.479 7.1265L289.477 7.12516C288.856 6.55311 287.901 6.23852 286.552 6.23852H282.101V12.7241H286.45C287.225 12.7241 287.912 12.5842 288.518 12.3112C289.123 12.0305 289.588 11.6421 289.925 11.1479ZM316.216 9.00024L316.248 9.3048H321.513L321.507 8.95869C321.48 7.38744 321.043 5.9867 320.192 4.76783C319.345 3.54511 318.181 2.59682 316.711 1.92022C315.245 1.23281 313.55 0.894531 311.633 0.894531C309.74 0.894531 308.034 1.23326 306.52 1.91847C305.006 2.59447 303.799 3.55068 302.908 4.78985L302.907 4.79118C302.018 6.03954 301.578 7.49189 301.578 9.13454C301.578 11.135 302.237 12.7693 303.573 14.0016L303.575 14.0032C304.893 15.2011 306.67 16.0809 308.886 16.6573L311.897 17.4423C312.83 17.6829 313.638 17.9562 314.324 18.2608L314.328 18.2628C315.008 18.5529 315.516 18.9092 315.87 19.3222L315.872 19.3247C316.206 19.7068 316.387 20.1991 316.395 20.8274C316.387 21.5223 316.181 22.1191 315.783 22.6314C315.378 23.1435 314.81 23.5556 314.063 23.8599C313.328 24.1541 312.46 24.306 311.452 24.306C310.488 24.306 309.625 24.1588 308.86 23.8703C308.111 23.5849 307.512 23.1569 307.053 22.5884C306.604 22.0322 306.34 21.3254 306.275 20.449L306.252 20.1338H300.867L300.881 20.4872C300.951 22.3177 301.422 23.8909 302.309 25.1911L302.31 25.1924C303.202 26.4883 304.436 27.4694 305.996 28.1376C307.563 28.8046 309.397 29.1326 311.491 29.1326C313.643 29.1326 315.498 28.7958 317.042 28.1089C318.59 27.4153 319.79 26.4482 320.622 25.2015L320.623 25.2006C321.456 23.945 321.868 22.4962 321.868 20.8664C321.868 19.6646 321.645 18.5992 321.187 17.6802C320.735 16.7748 320.12 16.0005 319.342 15.3598C318.584 14.7275 317.725 14.2053 316.767 13.7923C315.828 13.3834 314.849 13.0591 313.832 12.8192L311.354 12.1921L311.351 12.1912C310.82 12.0633 310.294 11.9056 309.771 11.7178C309.26 11.534 308.797 11.3097 308.381 11.0459C307.981 10.7834 307.669 10.4699 307.439 10.1062C307.228 9.75886 307.116 9.33976 307.116 8.8359C307.124 8.23268 307.297 7.70492 307.632 7.24152C307.968 6.77759 308.461 6.39825 309.131 6.11235C309.793 5.82956 310.602 5.68192 311.568 5.68192C312.939 5.68192 314.018 5.98879 314.832 6.57287L314.833 6.57378C315.645 7.15088 316.105 7.95009 316.216 9.00024ZM190.535 23.3726H190.527L197.821 15.2685C197.903 15.2685 197.947 15.2685 197.984 15.3053V28.2941H203.826V1.21875H202.974L190.084 16.1084L177.149 1.21875H176.26V28.2867H182.058V15.2979C182.095 15.2979 182.139 15.2979 182.176 15.2611L189.639 23.3726H190.527L190.521 23.38L190.535 23.3726ZM32.1503 27.9251C33.8891 28.641 35.7813 28.999 37.827 28.999C39.8215 28.999 41.6754 28.641 43.3886 27.9251C45.1274 27.2091 46.6361 26.2246 47.9146 24.9716C49.1932 23.6931 50.1904 22.21 50.9064 20.5223C51.6224 18.8091 51.9804 16.968 51.9804 14.999C51.9804 13.0045 51.6224 11.1634 50.9064 9.47574C50.1904 7.7625 49.1804 6.27939 47.8763 5.02642C46.5977 3.74788 45.0891 2.76341 43.3503 2.073C41.637 1.35701 39.7704 0.999023 37.7503 0.999023C35.7046 0.999023 33.8124 1.35701 32.0736 2.073C30.3603 2.76341 28.8644 3.74788 27.5859 5.02642C26.3074 6.27939 25.3101 7.74971 24.5941 9.43738C23.8781 11.1251 23.5201 12.9661 23.5201 14.9607C23.5201 16.9296 23.8781 18.7707 24.5941 20.484C25.3101 22.1716 26.3201 23.6547 27.6242 24.9333C28.9284 26.2118 30.437 27.2091 32.1503 27.9251ZM41.9694 22.4401C40.7676 23.1561 39.3612 23.5141 37.7503 23.5141C36.5484 23.5141 35.4489 23.3095 34.4516 22.9004C33.4544 22.4913 32.5978 21.9159 31.8818 21.1744C31.1914 20.4072 30.6544 19.4995 30.2708 18.4511C29.8873 17.4027 29.6955 16.2392 29.6955 14.9607C29.6955 13.2474 30.0279 11.7643 30.6927 10.5114C31.3576 9.23281 32.2909 8.24834 33.4927 7.55793C34.7201 6.84195 36.1393 6.48395 37.7503 6.48395C38.9521 6.48395 40.0388 6.68852 41.0105 7.09765C42.0078 7.48122 42.8644 8.05656 43.5804 8.82368C44.2964 9.56524 44.8462 10.4602 45.2297 11.5086C45.6133 12.5314 45.8051 13.6821 45.8051 14.9607C45.8051 16.6483 45.4726 18.1442 44.8078 19.4483C44.143 20.7269 43.1968 21.7241 41.9694 22.4401Z" fill="black"/>
</svg>
