<svg>
  <symbol
    fill="none"
    xmlns="http://www.w3.org/2000/svg"
    viewBox="0 0 12 12"
    id="size-12"
  >
    <path
      fill-rule="evenodd"
      clip-rule="evenodd"
      d="M9.89775 3.60225C10.1174 3.82192 10.1174 4.17808 9.89775 4.39775L5.77275 8.52275C5.55308 8.74242 5.19692 8.74242 4.97725 8.52275L3.10225 6.64775C2.88258 6.42808 2.88258 6.07192 3.10225 5.85225C3.32192 5.63258 3.67808 5.63258 3.89775 5.85225L5.375 7.3295L9.10225 3.60225C9.32192 3.38258 9.67808 3.38258 9.89775 3.60225Z"
      fill="currentColor"
    />
  </symbol>

  <symbol
    fill="none"
    xmlns="http://www.w3.org/2000/svg"
    viewBox="0 0 16 16"
    id="size-16"
  >
    <path
      fill-rule="evenodd"
      clip-rule="evenodd"
      d="M13.0303 4.80292C13.3232 5.09582 13.3232 5.57069 13.0303 5.86358L7.53033 11.3636C7.23744 11.6565 6.76256 11.6565 6.46967 11.3636L3.96967 8.86358C3.67678 8.57069 3.67678 8.09582 3.96967 7.80292C4.26256 7.51003 4.73744 7.51003 5.03033 7.80292L7 9.77259L11.9697 4.80292C12.2626 4.51003 12.7374 4.51003 13.0303 4.80292Z"
      fill="currentColor"
    />
  </symbol>

  <symbol
    fill="none"
    xmlns="http://www.w3.org/2000/svg"
    viewBox="0 0 24 24"
    id="size-24"
  >
    <path
      fill-rule="evenodd"
      clip-rule="evenodd"
      d="M19.2071 7.29289C19.5976 7.68342 19.5976 8.31658 19.2071 8.70711L10.9571 16.9571C10.5666 17.3476 9.93342 17.3476 9.54289 16.9571L5.79289 13.2071C5.40237 12.8166 5.40237 12.1834 5.79289 11.7929C6.18342 11.4024 6.81658 11.4024 7.20711 11.7929L10.25 14.8358L17.7929 7.29289C18.1834 6.90237 18.8166 6.90237 19.2071 7.29289Z"
      fill="currentColor"
    />
  </symbol>

  <symbol
    fill="none"
    xmlns="http://www.w3.org/2000/svg"
    viewBox="0 0 32 32"
    id="size-32"
  >
    <path
      fill-rule="evenodd"
      clip-rule="evenodd"
      d="M28.2274 6.93934C28.8132 7.52513 28.8132 8.47487 28.2274 9.06066L13.5607 23.7273C12.9749 24.3131 12.0252 24.3131 11.4394 23.7273L4.77271 17.0607C4.18693 16.4749 4.18693 15.5251 4.77271 14.9393C5.3585 14.3536 6.30825 14.3536 6.89403 14.9393L12.5 20.5453L26.106 6.93934C26.6918 6.35355 27.6416 6.35355 28.2274 6.93934Z"
      fill="currentColor"
    />
  </symbol>

  <symbol
    fill="none"
    xmlns="http://www.w3.org/2000/svg"
    viewBox="0 0 40 40"
    id="size-40"
  >
    <path
      fill-rule="evenodd"
      clip-rule="evenodd"
      d="M34.6591 8.67417C35.3914 9.40641 35.3914 10.5936 34.6591 11.3258L16.3258 29.6592C15.5936 30.3914 14.4064 30.3914 13.6741 29.6592L5.3408 21.3258C4.60857 20.5936 4.60857 19.4064 5.3408 18.6742C6.07303 17.9419 7.26022 17.9419 7.99245 18.6742L15 25.6817L32.0075 8.67417C32.7397 7.94194 33.9269 7.94194 34.6591 8.67417Z"
      fill="currentColor"
    />
  </symbol>
</svg>
