<svg>
  <symbol
    fill="none"
    xmlns="http://www.w3.org/2000/svg"
    viewBox="0 0 12 12"
    id="size-12"
  >
    <path
      fill-rule="evenodd"
      clip-rule="evenodd"
      d="M4.60225 2.60225C4.82192 2.38258 5.17808 2.38258 5.39775 2.60225L8.39775 5.60225C8.61742 5.82192 8.61742 6.17808 8.39775 6.39775L5.39775 9.39775C5.17808 9.61742 4.82192 9.61742 4.60225 9.39775C4.38258 9.17808 4.38258 8.82192 4.60225 8.60225L7.2045 6L4.60225 3.39775C4.38258 3.17808 4.38258 2.82192 4.60225 2.60225Z"
      fill="currentColor"
    />
  </symbol>

  <symbol
    fill="none"
    xmlns="http://www.w3.org/2000/svg"
    viewBox="0 0 16 16"
    id="size-16"
  >
    <path
      fill-rule="evenodd"
      clip-rule="evenodd"
      d="M6.1363 3.46967C6.42919 3.17678 6.90406 3.17678 7.19696 3.46967L11.197 7.46967C11.4898 7.76256 11.4898 8.23744 11.197 8.53033L7.19696 12.5303C6.90406 12.8232 6.42919 12.8232 6.1363 12.5303C5.8434 12.2374 5.8434 11.7626 6.1363 11.4697L9.60597 8L6.1363 4.53033C5.8434 4.23744 5.8434 3.76256 6.1363 3.46967Z"
      fill="currentColor"
    />
  </symbol>

  <symbol
    fill="none"
    xmlns="http://www.w3.org/2000/svg"
    viewBox="0 0 24 24"
    id="size-24"
  >
    <path
      fill-rule="evenodd"
      clip-rule="evenodd"
      d="M9.29289 5.29289C9.68342 4.90237 10.3166 4.90237 10.7071 5.29289L16.7071 11.2929C17.0976 11.6834 17.0976 12.3166 16.7071 12.7071L10.7071 18.7071C10.3166 19.0976 9.68342 19.0976 9.29289 18.7071C8.90237 18.3166 8.90237 17.6834 9.29289 17.2929L14.5858 12L9.29289 6.70711C8.90237 6.31658 8.90237 5.68342 9.29289 5.29289Z"
      fill="currentColor"
    />
  </symbol>

  <symbol
    fill="none"
    xmlns="http://www.w3.org/2000/svg"
    viewBox="0 0 32 32"
    id="size-32"
  >
    <path
      fill-rule="evenodd"
      clip-rule="evenodd"
      d="M12.2929 7.29289C12.6834 6.90237 13.3166 6.90237 13.7071 7.29289L21.7071 15.2929C22.0976 15.6834 22.0976 16.3166 21.7071 16.7071L13.7071 24.7071C13.3166 25.0976 12.6834 25.0976 12.2929 24.7071C11.9024 24.3166 11.9024 23.6834 12.2929 23.2929L19.5858 16L12.2929 8.70711C11.9024 8.31658 11.9024 7.68342 12.2929 7.29289Z"
      fill="currentColor"
    />
  </symbol>

  <symbol
    fill="none"
    xmlns="http://www.w3.org/2000/svg"
    viewBox="0 0 40 40"
    id="size-40"
  >
    <path
      fill-rule="evenodd"
      clip-rule="evenodd"
      d="M15.3661 9.11612C15.8543 8.62796 16.6457 8.62796 17.1339 9.11612L27.1339 19.1161C27.622 19.6043 27.622 20.3957 27.1339 20.8839L17.1339 30.8839C16.6457 31.372 15.8543 31.372 15.3661 30.8839C14.878 30.3957 14.878 29.6043 15.3661 29.1161L24.4822 20L15.3661 10.8839C14.878 10.3957 14.878 9.60427 15.3661 9.11612Z"
      fill="currentColor"
    />
  </symbol>
</svg>
