<svg>
  <symbol
    fill="none"
    xmlns="http://www.w3.org/2000/svg"
    viewBox="0 0 12 12"
    id="size-12"
  >
    <path
      fill-rule="evenodd"
      clip-rule="evenodd"
      d="M10.106 7.89775C10.3257 7.67808 10.3257 7.32192 10.106 7.10225L7.106 4.10225C6.88633 3.88258 6.53017 3.88258 6.3105 4.10225L3.3105 7.10225C3.09083 7.32192 3.09083 7.67808 3.3105 7.89775C3.53017 8.11742 3.88633 8.11742 4.106 7.89775L6.70825 5.2955L9.3105 7.89775C9.53017 8.11742 9.88633 8.11742 10.106 7.89775Z"
      fill="currentColor"
    />
  </symbol>

  <symbol
    fill="none"
    xmlns="http://www.w3.org/2000/svg"
    viewBox="0 0 16 16"
    id="size-16"
  >
    <path
      fill-rule="evenodd"
      clip-rule="evenodd"
      d="M13.2386 10.5303C13.5315 10.2374 13.5315 9.76256 13.2386 9.46967L9.23858 5.46967C8.94569 5.17678 8.47081 5.17678 8.17792 5.46967L4.17792 9.46967C3.88503 9.76256 3.88503 10.2374 4.17792 10.5303C4.47081 10.8232 4.94569 10.8232 5.23858 10.5303L8.70825 7.06066L12.1779 10.5303C12.4708 10.8232 12.9457 10.8232 13.2386 10.5303Z"
      fill="currentColor"
    />
  </symbol>

  <symbol
    fill="none"
    xmlns="http://www.w3.org/2000/svg"
    viewBox="0 0 24 24"
    id="size-24"
  >
    <path
      fill-rule="evenodd"
      clip-rule="evenodd"
      d="M19.4156 15.7071C19.8061 15.3166 19.8061 14.6834 19.4156 14.2929L13.4156 8.29289C13.0251 7.90237 12.3919 7.90237 12.0014 8.29289L6.00139 14.2929C5.61086 14.6834 5.61086 15.3166 6.00139 15.7071C6.39191 16.0976 7.02508 16.0976 7.4156 15.7071L12.7085 10.4142L18.0014 15.7071C18.3919 16.0976 19.0251 16.0976 19.4156 15.7071Z"
      fill="currentColor"
    />
  </symbol>

  <symbol
    fill="none"
    xmlns="http://www.w3.org/2000/svg"
    viewBox="0 0 32 32"
    id="size-32"
  >
    <path
      fill-rule="evenodd"
      clip-rule="evenodd"
      d="M25.4154 20.7071C25.8059 20.3166 25.8059 19.6834 25.4154 19.2929L17.4154 11.2929C17.0248 10.9024 16.3917 10.9024 16.0011 11.2929L8.00114 19.2929C7.61062 19.6834 7.61062 20.3166 8.00114 20.7071C8.39167 21.0976 9.02483 21.0976 9.41536 20.7071L16.7083 13.4142L24.0011 20.7071C24.3917 21.0976 25.0248 21.0976 25.4154 20.7071Z"
      fill="currentColor"
    />
  </symbol>

  <symbol
    fill="none"
    xmlns="http://www.w3.org/2000/svg"
    viewBox="0 0 40 40"
    id="size-40"
  >
    <path
      fill-rule="evenodd"
      clip-rule="evenodd"
      d="M31.5921 25.8839C32.0803 25.3957 32.0803 24.6043 31.5921 24.1161L21.5921 14.1161C21.104 13.628 20.3125 13.628 19.8244 14.1161L9.82437 24.1161C9.33621 24.6043 9.33621 25.3957 9.82437 25.8839C10.3125 26.372 11.104 26.372 11.5921 25.8839L20.7083 16.7678L29.8244 25.8839C30.3125 26.372 31.104 26.372 31.5921 25.8839Z"
      fill="currentColor"
    />
  </symbol>
</svg>
