<svg>
  <symbol
    fill="none"
    xmlns="http://www.w3.org/2000/svg"
    viewBox="0 0 12 12"
    id="size-12"
  >
    <path
      fill-rule="evenodd"
      clip-rule="evenodd"
      d="M10.106 4.10225C10.3257 4.32192 10.3257 4.67808 10.106 4.89775L7.106 7.89775C6.88633 8.11742 6.53017 8.11742 6.3105 7.89775L3.3105 4.89775C3.09083 4.67808 3.09083 4.32192 3.3105 4.10225C3.53017 3.88258 3.88633 3.88258 4.106 4.10225L6.70825 6.7045L9.3105 4.10225C9.53017 3.88258 9.88633 3.88258 10.106 4.10225Z"
      fill="currentColor"
    />
  </symbol>

  <symbol
    fill="none"
    xmlns="http://www.w3.org/2000/svg"
    viewBox="0 0 16 16"
    id="size-16"
  >
    <path
      fill-rule="evenodd"
      clip-rule="evenodd"
      d="M13.2386 5.46967C13.5315 5.76256 13.5315 6.23744 13.2386 6.53033L9.23858 10.5303C8.94569 10.8232 8.47081 10.8232 8.17792 10.5303L4.17792 6.53033C3.88503 6.23744 3.88503 5.76256 4.17792 5.46967C4.47081 5.17678 4.94569 5.17678 5.23858 5.46967L8.70825 8.93934L12.1779 5.46967C12.4708 5.17678 12.9457 5.17678 13.2386 5.46967Z"
      fill="currentColor"
    />
  </symbol>

  <symbol
    fill="none"
    xmlns="http://www.w3.org/2000/svg"
    viewBox="0 0 24 24"
    id="size-24"
  >
    <path
      fill-rule="evenodd"
      clip-rule="evenodd"
      d="M19.4156 8.29289C19.8061 8.68342 19.8061 9.31658 19.4156 9.70711L13.4156 15.7071C13.0251 16.0976 12.3919 16.0976 12.0014 15.7071L6.00139 9.70711C5.61086 9.31658 5.61086 8.68342 6.00139 8.29289C6.39191 7.90237 7.02508 7.90237 7.4156 8.29289L12.7085 13.5858L18.0014 8.29289C18.3919 7.90237 19.0251 7.90237 19.4156 8.29289Z"
      fill="currentColor"
    />
  </symbol>

  <symbol
    fill="none"
    xmlns="http://www.w3.org/2000/svg"
    viewBox="0 0 32 32"
    id="size-32"
  >
    <path
      fill-rule="evenodd"
      clip-rule="evenodd"
      d="M25.4154 11.2929C25.8059 11.6834 25.8059 12.3166 25.4154 12.7071L17.4154 20.7071C17.0248 21.0976 16.3917 21.0976 16.0011 20.7071L8.00114 12.7071C7.61062 12.3166 7.61062 11.6834 8.00114 11.2929C8.39167 10.9024 9.02483 10.9024 9.41536 11.2929L16.7083 18.5858L24.0011 11.2929C24.3917 10.9024 25.0248 10.9024 25.4154 11.2929Z"
      fill="currentColor"
    />
  </symbol>

  <symbol
    fill="none"
    xmlns="http://www.w3.org/2000/svg"
    viewBox="0 0 40 40"
    id="size-40"
  >
    <path
      fill-rule="evenodd"
      clip-rule="evenodd"
      d="M31.5921 14.1161C32.0803 14.6043 32.0803 15.3957 31.5921 15.8839L21.5921 25.8839C21.104 26.372 20.3125 26.372 19.8244 25.8839L9.82437 15.8839C9.33621 15.3957 9.33621 14.6043 9.82437 14.1161C10.3125 13.628 11.104 13.628 11.5921 14.1161L20.7083 23.2322L29.8244 14.1161C30.3125 13.628 31.104 13.628 31.5921 14.1161Z"
      fill="currentColor"
    />
  </symbol>
</svg>
