<svg>
  <symbol
    fill="none"
    xmlns="http://www.w3.org/2000/svg"
    viewBox="0 0 12 12"
    id="size-12"
  >
    <path
      fill-rule="evenodd"
      clip-rule="evenodd"
      d="M8.75187 2.60225C8.5322 2.38258 8.17605 2.38258 7.95638 2.60225L4.95638 5.60225C4.73671 5.82192 4.73671 6.17808 4.95638 6.39775L7.95638 9.39775C8.17605 9.61742 8.5322 9.61742 8.75187 9.39775C8.97154 9.17808 8.97154 8.82192 8.75187 8.60225L6.14962 6L8.75187 3.39775C8.97154 3.17808 8.97154 2.82192 8.75187 2.60225Z"
      fill="currentColor"
    />
  </symbol>

  <symbol
    fill="none"
    xmlns="http://www.w3.org/2000/svg"
    viewBox="0 0 16 16"
    id="size-16"
  >
    <path
      fill-rule="evenodd"
      clip-rule="evenodd"
      d="M11.3845 3.46967C11.0916 3.17678 10.6167 3.17678 10.3238 3.46967L6.3238 7.46967C6.0309 7.76256 6.0309 8.23744 6.3238 8.53033L10.3238 12.5303C10.6167 12.8232 11.0916 12.8232 11.3845 12.5303C11.6773 12.2374 11.6773 11.7626 11.3845 11.4697L7.91479 8L11.3845 4.53033C11.6773 4.23744 11.6773 3.76256 11.3845 3.46967Z"
      fill="currentColor"
    />
  </symbol>

  <symbol
    fill="none"
    xmlns="http://www.w3.org/2000/svg"
    viewBox="0 0 24 24"
    id="size-24"
  >
    <path
      fill-rule="evenodd"
      clip-rule="evenodd"
      d="M16.5612 5.29289C16.1707 4.90237 15.5375 4.90237 15.147 5.29289L9.14702 11.2929C8.7565 11.6834 8.7565 12.3166 9.14702 12.7071L15.147 18.7071C15.5375 19.0976 16.1707 19.0976 16.5612 18.7071C16.9518 18.3166 16.9518 17.6834 16.5612 17.2929L11.2683 12L16.5612 6.70711C16.9518 6.31658 16.9518 5.68342 16.5612 5.29289Z"
      fill="currentColor"
    />
  </symbol>

  <symbol
    fill="none"
    xmlns="http://www.w3.org/2000/svg"
    viewBox="0 0 32 32"
    id="size-32"
  >
    <path
      fill-rule="evenodd"
      clip-rule="evenodd"
      d="M21.5612 7.29289C21.1707 6.90237 20.5375 6.90237 20.147 7.29289L12.147 15.2929C11.7565 15.6834 11.7565 16.3166 12.147 16.7071L20.147 24.7071C20.5375 25.0976 21.1707 25.0976 21.5612 24.7071C21.9518 24.3166 21.9518 23.6834 21.5612 23.2929L14.2683 16L21.5612 8.70711C21.9518 8.31658 21.9518 7.68342 21.5612 7.29289Z"
      fill="currentColor"
    />
  </symbol>

  <symbol
    fill="none"
    xmlns="http://www.w3.org/2000/svg"
    viewBox="0 0 40 40"
    id="size-40"
  >
    <path
      fill-rule="evenodd"
      clip-rule="evenodd"
      d="M26.738 9.11612C26.2499 8.62796 25.4584 8.62796 24.9702 9.11612L14.9702 19.1161C14.4821 19.6043 14.4821 20.3957 14.9702 20.8839L24.9702 30.8839C25.4584 31.372 26.2499 31.372 26.738 30.8839C27.2262 30.3957 27.2262 29.6043 26.738 29.1161L17.6219 20L26.738 10.8839C27.2262 10.3957 27.2262 9.60427 26.738 9.11612Z"
      fill="currentColor"
    />
  </symbol>
</svg>
