<svg>
  <symbol
    fill="none"
    xmlns="http://www.w3.org/2000/svg"
    viewBox="0 0 12 12"
    id="size-12"
  >
    <path
      d="M9.26517 3.26517C9.41161 3.11872 9.41161 2.88128 9.26517 2.73483C9.11872 2.58839 8.88128 2.58839 8.73483 2.73483L6 5.46967L3.26517 2.73483C3.11872 2.58839 2.88128 2.58839 2.73483 2.73483C2.58839 2.88128 2.58839 3.11872 2.73483 3.26517L5.46967 6L2.73483 8.73483C2.58839 8.88128 2.58839 9.11872 2.73483 9.26517C2.88128 9.41161 3.11872 9.41161 3.26517 9.26517L6 6.53033L8.73483 9.26517C8.88128 9.41161 9.11872 9.41161 9.26517 9.26517C9.41161 9.11872 9.41161 8.88128 9.26517 8.73483L6.53033 6L9.26517 3.26517Z"
      fill="currentColor"
    />
  </symbol>

  <symbol
    fill="none"
    xmlns="http://www.w3.org/2000/svg"
    viewBox="0 0 16 16"
    id="size-16"
  >
    <path
      d="M12.3536 4.35355C12.5488 4.15829 12.5488 3.84171 12.3536 3.64645C12.1583 3.45118 11.8417 3.45118 11.6464 3.64645L8 7.29289L4.35355 3.64645C4.15829 3.45118 3.84171 3.45118 3.64645 3.64645C3.45118 3.84171 3.45118 4.15829 3.64645 4.35355L7.29289 8L3.64645 11.6464C3.45118 11.8417 3.45118 12.1583 3.64645 12.3536C3.84171 12.5488 4.15829 12.5488 4.35355 12.3536L8 8.70711L11.6464 12.3536C11.8417 12.5488 12.1583 12.5488 12.3536 12.3536C12.5488 12.1583 12.5488 11.8417 12.3536 11.6464L8.70711 8L12.3536 4.35355Z"
      fill="currentColor"
    />
  </symbol>

  <symbol
    fill="none"
    xmlns="http://www.w3.org/2000/svg"
    viewBox="0 0 24 24"
    id="size-24"
  >
    <path
      d="M5.46967 5.46967C5.76256 5.17678 6.23744 5.17678 6.53033 5.46967L12 10.9393L17.4697 5.46967C17.7626 5.17678 18.2374 5.17678 18.5303 5.46967C18.8232 5.76256 18.8232 6.23744 18.5303 6.53033L13.0607 12L18.5303 17.4697C18.8232 17.7626 18.8232 18.2374 18.5303 18.5303C18.2374 18.8232 17.7626 18.8232 17.4697 18.5303L12 13.0607L6.53033 18.5303C6.23744 18.8232 5.76256 18.8232 5.46967 18.5303C5.17678 18.2374 5.17678 17.7626 5.46967 17.4697L10.9393 12L5.46967 6.53033C5.17678 6.23744 5.17678 5.76256 5.46967 5.46967Z"
      fill="currentColor"
    />
  </symbol>

  <symbol
    fill="none"
    xmlns="http://www.w3.org/2000/svg"
    viewBox="0 0 32 32"
    id="size-32"
  >
    <path
      d="M7.29289 7.29289C7.68342 6.90237 8.31658 6.90237 8.70711 7.29289L16 14.5858L23.2929 7.29289C23.6834 6.90237 24.3166 6.90237 24.7071 7.29289C25.0976 7.68342 25.0976 8.31658 24.7071 8.70711L17.4142 16L24.7071 23.2929C25.0976 23.6834 25.0976 24.3166 24.7071 24.7071C24.3166 25.0976 23.6834 25.0976 23.2929 24.7071L16 17.4142L8.70711 24.7071C8.31658 25.0976 7.68342 25.0976 7.29289 24.7071C6.90237 24.3166 6.90237 23.6834 7.29289 23.2929L14.5858 16L7.29289 8.70711C6.90237 8.31658 6.90237 7.68342 7.29289 7.29289Z"
      fill="currentColor"
    />
  </symbol>

  <symbol
    fill="none"
    xmlns="http://www.w3.org/2000/svg"
    viewBox="0 0 40 40"
    id="size-40"
  >
    <path
      d="M9.11612 9.11612C9.60427 8.62796 10.3957 8.62796 10.8839 9.11612L20 18.2322L29.1161 9.11612C29.6043 8.62796 30.3957 8.62796 30.8839 9.11612C31.372 9.60427 31.372 10.3957 30.8839 10.8839L21.7678 20L30.8839 29.1161C31.372 29.6043 31.372 30.3957 30.8839 30.8839C30.3957 31.372 29.6043 31.372 29.1161 30.8839L20 21.7678L10.8839 30.8839C10.3957 31.372 9.60427 31.372 9.11612 30.8839C8.62796 30.3957 8.62796 29.6043 9.11612 29.1161L18.2322 20L9.11612 10.8839C8.62796 10.3957 8.62796 9.60427 9.11612 9.11612Z"
      fill="currentColor"
    />
  </symbol>
</svg>
