<svg
  width="32"
  height="32"
  viewBox="0 0 32 32"
  fill="none"
  xmlns="http://www.w3.org/2000/svg"
>
  <path
    d="M7.29289 7.29289C7.68342 6.90237 8.31658 6.90237 8.70711 7.29289L16 14.5858L23.2929 7.29289C23.6834 6.90237 24.3166 6.90237 24.7071 7.29289C25.0976 7.68342 25.0976 8.31658 24.7071 8.70711L17.4142 16L24.7071 23.2929C25.0976 23.6834 25.0976 24.3166 24.7071 24.7071C24.3166 25.0976 23.6834 25.0976 23.2929 24.7071L16 17.4142L8.70711 24.7071C8.31658 25.0976 7.68342 25.0976 7.29289 24.7071C6.90237 24.3166 6.90237 23.6834 7.29289 23.2929L14.5858 16L7.29289 8.70711C6.90237 8.31658 6.90237 7.68342 7.29289 7.29289Z"
    fill="currentColor"
  />
</svg>
