<svg
  width="12"
  height="12"
  viewBox="0 0 12 12"
  fill="none"
  xmlns="http://www.w3.org/2000/svg"
>
  <path
    d="M9.26517 3.26517C9.41161 3.11872 9.41161 2.88128 9.26517 2.73483C9.11872 2.58839 8.88128 2.58839 8.73483 2.73483L6 5.46967L3.26517 2.73483C3.11872 2.58839 2.88128 2.58839 2.73483 2.73483C2.58839 2.88128 2.58839 3.11872 2.73483 3.26517L5.46967 6L2.73483 8.73483C2.58839 8.88128 2.58839 9.11872 2.73483 9.26517C2.88128 9.41161 3.11872 9.41161 3.26517 9.26517L6 6.53033L8.73483 9.26517C8.88128 9.41161 9.11872 9.41161 9.26517 9.26517C9.41161 9.11872 9.41161 8.88128 9.26517 8.73483L6.53033 6L9.26517 3.26517Z"
    fill="currentColor"
  />
</svg>
