<svg
  width="40"
  height="40"
  viewBox="0 0 40 40"
  fill="none"
  xmlns="http://www.w3.org/2000/svg"
>
  <path
    d="M9.11612 9.11612C9.60427 8.62796 10.3957 8.62796 10.8839 9.11612L20 18.2322L29.1161 9.11612C29.6043 8.62796 30.3957 8.62796 30.8839 9.11612C31.372 9.60427 31.372 10.3957 30.8839 10.8839L21.7678 20L30.8839 29.1161C31.372 29.6043 31.372 30.3957 30.8839 30.8839C30.3957 31.372 29.6043 31.372 29.1161 30.8839L20 21.7678L10.8839 30.8839C10.3957 31.372 9.60427 31.372 9.11612 30.8839C8.62796 30.3957 8.62796 29.6043 9.11612 29.1161L18.2322 20L9.11612 10.8839C8.62796 10.3957 8.62796 9.60427 9.11612 9.11612Z"
    fill="currentColor"
  />
</svg>
