<svg>
  <symbol
    fill="none"
    xmlns="http://www.w3.org/2000/svg"
    viewBox="0 0 12 12"
    id="size-12"
  >
    <path
      d="M9.15 3.29999C9.91233 3.29999 10.5 3.98565 10.5 4.79996V9.00003C10.5 9.81433 9.91233 10.5 9.15 10.5H4.65C3.88767 10.5 3.3 9.81433 3.3 9.00003H4.2C4.2 9.34544 4.41822 9.60001 4.65 9.60001H9.15C9.38178 9.60001 9.6 9.34544 9.6 9.00003V4.79996C9.6 4.45455 9.38178 4.19998 9.15 4.19998V3.29999ZM7.35 1.5C8.09557 1.5 8.7 2.10443 8.7 2.84999V7.34996C8.7 8.09552 8.09557 8.69995 7.35 8.69995H2.85C2.10443 8.69995 1.5 8.09552 1.5 7.34996V2.84999C1.5 2.10443 2.10443 1.5 2.85 1.5H7.35ZM7.35 2.39999H2.85C2.60146 2.39999 2.4 2.60145 2.4 2.84999V7.34996C2.4 7.5985 2.60146 7.79995 2.85 7.79995H7.35C7.59854 7.79995 7.8 7.5985 7.8 7.34996V2.84999C7.8 2.60145 7.59854 2.39999 7.35 2.39999Z"
      fill="currentColor"
    />
  </symbol>

  <symbol
    fill="none"
    xmlns="http://www.w3.org/2000/svg"
    viewBox="0 0 16 16"
    id="size-16"
  >
    <path
      d="M12.2 4.39998C13.2164 4.39998 14 5.3142 14 6.39994V12C14 13.0858 13.2164 14 12.2 14H6.2C5.18356 14 4.4 13.0858 4.4 12H5.6C5.6 12.4606 5.89096 12.8 6.2 12.8H12.2C12.509 12.8 12.8 12.4606 12.8 12V6.39994C12.8 5.9394 12.509 5.59997 12.2 5.59997V4.39998ZM9.8 2C10.7941 2 11.6 2.8059 11.6 3.79999V9.79994C11.6 10.794 10.7941 11.5999 9.8 11.5999H3.8C2.80591 11.5999 2 10.794 2 9.79994V3.79999C2 2.8059 2.80591 2 3.8 2H9.8ZM9.8 3.19999H3.8C3.46861 3.19999 3.2 3.4686 3.2 3.79999V9.79994C3.2 10.1313 3.46861 10.3999 3.8 10.3999H9.8C10.1314 10.3999 10.4 10.1313 10.4 9.79994V3.79999C10.4 3.4686 10.1314 3.19999 9.8 3.19999Z"
      fill="currentColor"
    />
  </symbol>

  <symbol
    fill="none"
    xmlns="http://www.w3.org/2000/svg"
    viewBox="0 0 24 24"
    id="size-24"
  >
    <path
      d="M18.3 6.59997C19.8247 6.59997 21 7.97131 21 9.59991V18.0001C21 19.6287 19.8247 21 18.3 21H9.3C7.77534 21 6.6 19.6287 6.6 18.0001H8.4C8.4 18.6909 8.83644 19.2 9.3 19.2H18.3C18.7636 19.2 19.2 18.6909 19.2 18.0001V9.59991C19.2 8.9091 18.7636 8.39996 18.3 8.39996V6.59997ZM14.7 3C16.1911 3 17.4 4.20885 17.4 5.69998V14.6999C17.4 16.191 16.1911 17.3999 14.7 17.3999H5.7C4.20886 17.3999 3 16.191 3 14.6999V5.69998C3 4.20885 4.20886 3 5.7 3H14.7ZM14.7 4.79999H5.7C5.20291 4.79999 4.8 5.20289 4.8 5.69998V14.6999C4.8 15.197 5.20291 15.5999 5.7 15.5999H14.7C15.1971 15.5999 15.6 15.197 15.6 14.6999V5.69998C15.6 5.20289 15.1971 4.79999 14.7 4.79999Z"
      fill="currentColor"
    />
  </symbol>

  <symbol
    fill="none"
    xmlns="http://www.w3.org/2000/svg"
    viewBox="0 0 32 32"
    id="size-32"
  >
    <path
      d="M24.4 8.79997C26.4329 8.79997 28 10.6284 28 12.7999V24.0001C28 26.1716 26.4329 28 24.4 28H12.4C10.3671 28 8.8 26.1716 8.8 24.0001H11.2C11.2 24.9212 11.7819 25.6 12.4 25.6H24.4C25.0181 25.6 25.6 24.9212 25.6 24.0001V12.7999C25.6 11.8788 25.0181 11.1999 24.4 11.1999V8.79997ZM19.6 4C21.5882 4 23.2 5.6118 23.2 7.59997V19.5999C23.2 21.5881 21.5882 23.1999 19.6 23.1999H7.6C5.61181 23.1999 4 21.5881 4 19.5999V7.59997C4 5.6118 5.61181 4 7.6 4H19.6ZM19.6 6.39998H7.6C6.93721 6.39998 6.4 6.93719 6.4 7.59997V19.5999C6.4 20.2627 6.93721 20.7999 7.6 20.7999H19.6C20.2628 20.7999 20.8 20.2627 20.8 19.5999V7.59997C20.8 6.93719 20.2628 6.39998 19.6 6.39998Z"
      fill="currentColor"
    />
  </symbol>

  <symbol
    fill="none"
    xmlns="http://www.w3.org/2000/svg"
    viewBox="0 0 40 40"
    id="size-40"
  >
    <path
      d="M30.5 11C33.0411 11 35 13.2855 35 15.9998V30.0001C35 32.7144 33.0411 35 30.5 35H15.5C12.9589 35 11 32.7144 11 30.0001H14C14 31.1515 14.7274 32 15.5 32H30.5C31.2726 32 32 31.1515 32 30.0001V15.9998C32 14.8485 31.2726 13.9999 30.5 13.9999V11ZM24.5 5C26.9852 5 29 7.01475 29 9.49997V24.4999C29 26.9851 26.9852 28.9998 24.5 28.9998H9.5C7.01477 28.9998 5 26.9851 5 24.4999V9.49997C5 7.01475 7.01477 5 9.5 5H24.5ZM24.5 7.99998H9.5C8.67152 7.99998 8 8.67149 8 9.49997V24.4999C8 25.3283 8.67152 25.9998 9.5 25.9998H24.5C25.3285 25.9998 26 25.3283 26 24.4999V9.49997C26 8.67149 25.3285 7.99998 24.5 7.99998Z"
      fill="currentColor"
    />
  </symbol>
</svg>
