<svg
  width="12"
  height="12"
  viewBox="0 0 12 12"
  fill="none"
  xmlns="http://www.w3.org/2000/svg"
>
  <path
    d="M9.15 3.29999C9.91233 3.29999 10.5 3.98565 10.5 4.79996V9.00003C10.5 9.81433 9.91233 10.5 9.15 10.5H4.65C3.88767 10.5 3.3 9.81433 3.3 9.00003H4.2C4.2 9.34544 4.41822 9.60001 4.65 9.60001H9.15C9.38178 9.60001 9.6 9.34544 9.6 9.00003V4.79996C9.6 4.45455 9.38178 4.19998 9.15 4.19998V3.29999ZM7.35 1.5C8.09557 1.5 8.7 2.10443 8.7 2.84999V7.34996C8.7 8.09552 8.09557 8.69995 7.35 8.69995H2.85C2.10443 8.69995 1.5 8.09552 1.5 7.34996V2.84999C1.5 2.10443 2.10443 1.5 2.85 1.5H7.35ZM7.35 2.39999H2.85C2.60146 2.39999 2.4 2.60145 2.4 2.84999V7.34996C2.4 7.5985 2.60146 7.79995 2.85 7.79995H7.35C7.59854 7.79995 7.8 7.5985 7.8 7.34996V2.84999C7.8 2.60145 7.59854 2.39999 7.35 2.39999Z"
    fill="currentColor"
  />
</svg>
