<svg
  width="16"
  height="16"
  viewBox="0 0 16 16"
  fill="none"
  xmlns="http://www.w3.org/2000/svg"
>
  <path
    d="M12.2 4.39998C13.2164 4.39998 14 5.3142 14 6.39994V12C14 13.0858 13.2164 14 12.2 14H6.2C5.18356 14 4.4 13.0858 4.4 12H5.6C5.6 12.4606 5.89096 12.8 6.2 12.8H12.2C12.509 12.8 12.8 12.4606 12.8 12V6.39994C12.8 5.9394 12.509 5.59997 12.2 5.59997V4.39998ZM9.8 2C10.7941 2 11.6 2.8059 11.6 3.79999V9.79994C11.6 10.794 10.7941 11.5999 9.8 11.5999H3.8C2.80591 11.5999 2 10.794 2 9.79994V3.79999C2 2.8059 2.80591 2 3.8 2H9.8ZM9.8 3.19999H3.8C3.46861 3.19999 3.2 3.4686 3.2 3.79999V9.79994C3.2 10.1313 3.46861 10.3999 3.8 10.3999H9.8C10.1314 10.3999 10.4 10.1313 10.4 9.79994V3.79999C10.4 3.4686 10.1314 3.19999 9.8 3.19999Z"
    fill="currentColor"
  />
</svg>
