<svg
  width="24"
  height="24"
  viewBox="0 0 24 24"
  fill="none"
  xmlns="http://www.w3.org/2000/svg"
>
  <path
    d="M18.3 6.59997C19.8247 6.59997 21 7.97131 21 9.59991V18.0001C21 19.6287 19.8247 21 18.3 21H9.3C7.77534 21 6.6 19.6287 6.6 18.0001H8.4C8.4 18.6909 8.83644 19.2 9.3 19.2H18.3C18.7636 19.2 19.2 18.6909 19.2 18.0001V9.59991C19.2 8.9091 18.7636 8.39996 18.3 8.39996V6.59997ZM14.7 3C16.1911 3 17.4 4.20885 17.4 5.69998V14.6999C17.4 16.191 16.1911 17.3999 14.7 17.3999H5.7C4.20886 17.3999 3 16.191 3 14.6999V5.69998C3 4.20885 4.20886 3 5.7 3H14.7ZM14.7 4.79999H5.7C5.20291 4.79999 4.8 5.20289 4.8 5.69998V14.6999C4.8 15.197 5.20291 15.5999 5.7 15.5999H14.7C15.1971 15.5999 15.6 15.197 15.6 14.6999V5.69998C15.6 5.20289 15.1971 4.79999 14.7 4.79999Z"
    fill="currentColor"
  />
</svg>
