<svg
  width="40"
  height="40"
  viewBox="0 0 40 40"
  fill="none"
  xmlns="http://www.w3.org/2000/svg"
>
  <path
    d="M30.5 11C33.0411 11 35 13.2855 35 15.9998V30.0001C35 32.7144 33.0411 35 30.5 35H15.5C12.9589 35 11 32.7144 11 30.0001H14C14 31.1515 14.7274 32 15.5 32H30.5C31.2726 32 32 31.1515 32 30.0001V15.9998C32 14.8485 31.2726 13.9999 30.5 13.9999V11ZM24.5 5C26.9852 5 29 7.01475 29 9.49997V24.4999C29 26.9851 26.9852 28.9998 24.5 28.9998H9.5C7.01477 28.9998 5 26.9851 5 24.4999V9.49997C5 7.01475 7.01477 5 9.5 5H24.5ZM24.5 7.99998H9.5C8.67152 7.99998 8 8.67149 8 9.49997V24.4999C8 25.3283 8.67152 25.9998 9.5 25.9998H24.5C25.3285 25.9998 26 25.3283 26 24.4999V9.49997C26 8.67149 25.3285 7.99998 24.5 7.99998Z"
    fill="currentColor"
  />
</svg>
