<svg
  width="32"
  height="32"
  viewBox="0 0 32 32"
  fill="none"
  xmlns="http://www.w3.org/2000/svg"
>
  <path
    d="M24.4 8.79997C26.4329 8.79997 28 10.6284 28 12.7999V24.0001C28 26.1716 26.4329 28 24.4 28H12.4C10.3671 28 8.8 26.1716 8.8 24.0001H11.2C11.2 24.9212 11.7819 25.6 12.4 25.6H24.4C25.0181 25.6 25.6 24.9212 25.6 24.0001V12.7999C25.6 11.8788 25.0181 11.1999 24.4 11.1999V8.79997ZM19.6 4C21.5882 4 23.2 5.6118 23.2 7.59997V19.5999C23.2 21.5881 21.5882 23.1999 19.6 23.1999H7.6C5.61181 23.1999 4 21.5881 4 19.5999V7.59997C4 5.6118 5.61181 4 7.6 4H19.6ZM19.6 6.39998H7.6C6.93721 6.39998 6.4 6.93719 6.4 7.59997V19.5999C6.4 20.2627 6.93721 20.7999 7.6 20.7999H19.6C20.2628 20.7999 20.8 20.2627 20.8 19.5999V7.59997C20.8 6.93719 20.2628 6.39998 19.6 6.39998Z"
    fill="currentColor"
  />
</svg>
