<svg
  width="16"
  height="16"
  viewBox="0 0 16 16"
  fill="none"
  xmlns="http://www.w3.org/2000/svg"
>
  <path
    d="M11.75 1.33325H4.24996C3.65382 1.33496 3.08255 1.56643 2.66091 1.97723C2.23943 2.38792 2.00174 2.94458 2 3.52557V12.4743C2.00176 13.0553 2.23943 13.6119 2.66091 14.0226C3.08252 14.4334 3.65382 14.6649 4.24996 14.6666H11.75C12.3462 14.6649 12.9174 14.4334 13.3391 14.0226C13.7606 13.6119 13.9983 13.0553 14 12.4743V3.52557C13.9982 2.94458 13.7606 2.38795 13.3391 1.97723C12.9175 1.56642 12.3462 1.33494 11.75 1.33325ZM5.75004 10.1922H10.25C10.5148 10.1969 10.7573 10.3371 10.8884 10.5613C11.0194 10.7856 11.0194 11.0605 10.8884 11.2847C10.7573 11.5089 10.5147 11.6492 10.25 11.6538H5.75004C5.48211 11.6538 5.23451 11.5145 5.10054 11.2884C4.96657 11.0623 4.96657 10.7838 5.10054 10.5577C5.23451 10.3316 5.4821 10.1922 5.75004 10.1922ZM5.75004 7.26919H10.25C10.5148 7.27371 10.7573 7.41404 10.8884 7.63828C11.0194 7.8624 11.0194 8.13744 10.8884 8.36156C10.7573 8.58581 10.5147 8.72614 10.25 8.73065H5.75004C5.48524 8.72612 5.24267 8.5858 5.1116 8.36156C4.98064 8.13743 4.98064 7.8624 5.1116 7.63828C5.24268 7.41403 5.48525 7.2737 5.75004 7.26919ZM10.25 5.8076H5.75004C5.48524 5.80295 5.24267 5.66275 5.1116 5.4385C4.98064 5.21425 4.98064 4.93934 5.1116 4.7151C5.24268 4.49098 5.48525 4.35064 5.75004 4.34601H10.25C10.5148 4.35066 10.7573 4.49098 10.8884 4.7151C11.0194 4.93935 11.0194 5.21426 10.8884 5.4385C10.7573 5.66275 10.5147 5.80296 10.25 5.8076Z"
    fill="currentColor"
  />
</svg>
