<svg
  width="40"
  height="40"
  viewBox="0 0 40 40"
  fill="none"
  xmlns="http://www.w3.org/2000/svg"
>
  <path
    d="M29.3751 3.33325H10.6249C9.13454 3.33753 7.70638 3.9162 6.65227 4.9432C5.59857 5.96991 5.00434 7.36156 5 8.81406V31.1858C5.00439 32.6383 5.59859 34.0298 6.65227 35.0566C7.7063 36.0837 9.13454 36.6624 10.6249 36.6666H29.3751C30.8655 36.6623 32.2936 36.0836 33.3477 35.0566C34.4014 34.0299 34.9957 32.6383 35 31.1858V8.81406C34.9956 7.36156 34.4014 5.96999 33.3477 4.9432C32.2937 3.91617 30.8655 3.33748 29.3751 3.33325ZM14.3751 25.4807H25.6249C26.2869 25.4923 26.8933 25.8428 27.221 26.4035C27.5484 26.9641 27.5484 27.6514 27.221 28.212C26.8933 28.7723 26.2869 29.1231 25.6249 29.1347H14.3751C13.7053 29.1347 13.0863 28.7863 12.7514 28.2211C12.4164 27.6559 12.4164 26.9595 12.7514 26.3943C13.0863 25.8291 13.7053 25.4807 14.3751 25.4807ZM14.3751 18.1731H25.6249C26.2869 18.1844 26.8933 18.5352 27.221 19.0958C27.5484 19.6561 27.5484 20.3437 27.221 20.904C26.8933 21.4646 26.2869 21.8155 25.6249 21.8267H14.3751C13.7131 21.8154 13.1067 21.4646 12.779 20.904C12.4516 20.3437 12.4516 19.6561 12.779 19.0958C13.1067 18.5352 13.7131 18.1844 14.3751 18.1731ZM25.6249 14.5191H14.3751C13.7131 14.5075 13.1067 14.157 12.779 13.5964C12.4516 13.0358 12.4516 12.3485 12.779 11.7879C13.1067 11.2276 13.7131 10.8767 14.3751 10.8651H25.6249C26.2869 10.8768 26.8933 11.2276 27.221 11.7879C27.5484 12.3485 27.5484 13.0358 27.221 13.5964C26.8933 14.157 26.2869 14.5075 25.6249 14.5191Z"
    fill="currentColor"
  />
</svg>
