<svg
  width="24"
  height="24"
  viewBox="0 0 24 24"
  fill="none"
  xmlns="http://www.w3.org/2000/svg"
>
  <path
    d="M17.6251 2H6.37494C5.48073 2.00257 4.62383 2.34977 3.99136 2.96597C3.35914 3.582 3.0026 4.41699 3 5.28848V18.7115C3.00264 19.583 3.35915 20.418 3.99136 21.034C4.62378 21.6502 5.48073 21.9975 6.37494 22H17.6251C18.5193 21.9974 19.3762 21.6502 20.0086 21.034C20.6409 20.418 20.9974 19.583 21 18.7115V5.28848C20.9974 4.41699 20.6408 3.58204 20.0086 2.96597C19.3762 2.34975 18.5193 2.00254 17.6251 2ZM8.62506 15.2885H15.3749C15.7721 15.2955 16.136 15.5058 16.3326 15.8421C16.529 16.1785 16.529 16.5909 16.3326 16.9272C16.136 17.2634 15.7721 17.4739 15.3749 17.4809H8.62506C8.22316 17.4809 7.85177 17.2719 7.65081 16.9327C7.44986 16.5936 7.44986 16.1758 7.65081 15.8366C7.85177 15.4975 8.22315 15.2885 8.62506 15.2885ZM8.62506 10.9039H15.3749C15.7721 10.9107 16.136 11.1212 16.3326 11.4575C16.529 11.7937 16.529 12.2063 16.3326 12.5425C16.136 12.8788 15.7721 13.0893 15.3749 13.0961H8.62506C8.22786 13.0893 7.86401 12.8788 7.6674 12.5425C7.47097 12.2063 7.47097 11.7937 7.6674 11.4575C7.86402 11.1212 8.22788 10.9107 8.62506 10.9039ZM15.3749 8.71152H8.62506C8.22786 8.70454 7.86401 8.49424 7.6674 8.15788C7.47097 7.8215 7.47097 7.40914 7.6674 7.07277C7.86402 6.73659 8.22788 6.52609 8.62506 6.51913H15.3749C15.7721 6.52611 16.136 6.73659 16.3326 7.07277C16.529 7.40915 16.529 7.82151 16.3326 8.15788C16.136 8.49425 15.7721 8.70456 15.3749 8.71152Z"
    fill="currentColor"
  />
</svg>
