<svg
  width="12"
  height="12"
  viewBox="0 0 12 12"
  fill="none"
  xmlns="http://www.w3.org/2000/svg"
>
  <path
    d="M8.81253 1H3.18747C2.74036 1.00128 2.31191 1.17488 1.99568 1.48298C1.67957 1.791 1.5013 2.20849 1.5 2.64424V9.35576C1.50132 9.79151 1.67958 10.209 1.99568 10.517C2.31189 10.8251 2.74036 10.9987 3.18747 11H8.81253C9.25964 10.9987 9.68809 10.8251 10.0043 10.517C10.3204 10.209 10.4987 9.79151 10.5 9.35576V2.64424C10.4987 2.20849 10.3204 1.79102 10.0043 1.48298C9.68811 1.17488 9.25964 1.00127 8.81253 1ZM4.31253 7.64424H7.68747C7.88607 7.64773 8.068 7.75288 8.1663 7.92106C8.26452 8.08925 8.26452 8.29543 8.1663 8.46361C8.06799 8.63171 7.88606 8.73696 7.68747 8.74043H4.31253C4.11158 8.74043 3.92588 8.63593 3.82541 8.46636C3.72493 8.2968 3.72493 8.08788 3.82541 7.91831C3.92588 7.74874 4.11158 7.64424 4.31253 7.64424ZM4.31253 5.45195H7.68747C7.88607 5.45535 8.068 5.56059 8.1663 5.72877C8.26452 5.89686 8.26452 6.10314 8.1663 6.27123C8.06799 6.43942 7.88606 6.54467 7.68747 6.54805H4.31253C4.11393 6.54465 3.93201 6.43941 3.8337 6.27123C3.73548 6.10314 3.73548 5.89686 3.8337 5.72877C3.93201 5.56058 4.11394 5.45533 4.31253 5.45195ZM7.68747 4.35576H4.31253C4.11393 4.35227 3.93201 4.24712 3.8337 4.07894C3.73548 3.91075 3.73548 3.70457 3.8337 3.53639C3.93201 3.36829 4.11394 3.26304 4.31253 3.25957H7.68747C7.88607 3.26305 8.068 3.3683 8.1663 3.53639C8.26452 3.70457 8.26452 3.91076 8.1663 4.07894C8.06799 4.24713 7.88606 4.35228 7.68747 4.35576Z"
    fill="currentColor"
  />
</svg>
