<svg>
  <symbol
    fill="none"
    xmlns="http://www.w3.org/2000/svg"
    viewBox="0 0 12 12"
    id="size-12"
  >
    <path
      d="M8.81253 1H3.18747C2.74036 1.00128 2.31191 1.17488 1.99568 1.48298C1.67957 1.791 1.5013 2.20849 1.5 2.64424V9.35576C1.50132 9.79151 1.67958 10.209 1.99568 10.517C2.31189 10.8251 2.74036 10.9987 3.18747 11H8.81253C9.25964 10.9987 9.68809 10.8251 10.0043 10.517C10.3204 10.209 10.4987 9.79151 10.5 9.35576V2.64424C10.4987 2.20849 10.3204 1.79102 10.0043 1.48298C9.68811 1.17488 9.25964 1.00127 8.81253 1ZM4.31253 7.64424H7.68747C7.88607 7.64773 8.068 7.75288 8.1663 7.92106C8.26452 8.08925 8.26452 8.29543 8.1663 8.46361C8.06799 8.63171 7.88606 8.73696 7.68747 8.74043H4.31253C4.11158 8.74043 3.92588 8.63593 3.82541 8.46636C3.72493 8.2968 3.72493 8.08788 3.82541 7.91831C3.92588 7.74874 4.11158 7.64424 4.31253 7.64424ZM4.31253 5.45195H7.68747C7.88607 5.45535 8.068 5.56059 8.1663 5.72877C8.26452 5.89686 8.26452 6.10314 8.1663 6.27123C8.06799 6.43942 7.88606 6.54467 7.68747 6.54805H4.31253C4.11393 6.54465 3.93201 6.43941 3.8337 6.27123C3.73548 6.10314 3.73548 5.89686 3.8337 5.72877C3.93201 5.56058 4.11394 5.45533 4.31253 5.45195ZM7.68747 4.35576H4.31253C4.11393 4.35227 3.93201 4.24712 3.8337 4.07894C3.73548 3.91075 3.73548 3.70457 3.8337 3.53639C3.93201 3.36829 4.11394 3.26304 4.31253 3.25957H7.68747C7.88607 3.26305 8.068 3.3683 8.1663 3.53639C8.26452 3.70457 8.26452 3.91076 8.1663 4.07894C8.06799 4.24713 7.88606 4.35228 7.68747 4.35576Z"
      fill="currentColor"
    />
  </symbol>

  <symbol
    fill="none"
    xmlns="http://www.w3.org/2000/svg"
    viewBox="0 0 16 16"
    id="size-16"
  >
    <path
      d="M11.75 1.33325H4.24996C3.65382 1.33496 3.08255 1.56643 2.66091 1.97723C2.23943 2.38792 2.00174 2.94458 2 3.52557V12.4743C2.00176 13.0553 2.23943 13.6119 2.66091 14.0226C3.08252 14.4334 3.65382 14.6649 4.24996 14.6666H11.75C12.3462 14.6649 12.9174 14.4334 13.3391 14.0226C13.7606 13.6119 13.9983 13.0553 14 12.4743V3.52557C13.9982 2.94458 13.7606 2.38795 13.3391 1.97723C12.9175 1.56642 12.3462 1.33494 11.75 1.33325ZM5.75004 10.1922H10.25C10.5148 10.1969 10.7573 10.3371 10.8884 10.5613C11.0194 10.7856 11.0194 11.0605 10.8884 11.2847C10.7573 11.5089 10.5147 11.6492 10.25 11.6538H5.75004C5.48211 11.6538 5.23451 11.5145 5.10054 11.2884C4.96657 11.0623 4.96657 10.7838 5.10054 10.5577C5.23451 10.3316 5.4821 10.1922 5.75004 10.1922ZM5.75004 7.26919H10.25C10.5148 7.27371 10.7573 7.41404 10.8884 7.63828C11.0194 7.8624 11.0194 8.13744 10.8884 8.36156C10.7573 8.58581 10.5147 8.72614 10.25 8.73065H5.75004C5.48524 8.72612 5.24267 8.5858 5.1116 8.36156C4.98064 8.13743 4.98064 7.8624 5.1116 7.63828C5.24268 7.41403 5.48525 7.2737 5.75004 7.26919ZM10.25 5.8076H5.75004C5.48524 5.80295 5.24267 5.66275 5.1116 5.4385C4.98064 5.21425 4.98064 4.93934 5.1116 4.7151C5.24268 4.49098 5.48525 4.35064 5.75004 4.34601H10.25C10.5148 4.35066 10.7573 4.49098 10.8884 4.7151C11.0194 4.93935 11.0194 5.21426 10.8884 5.4385C10.7573 5.66275 10.5147 5.80296 10.25 5.8076Z"
      fill="currentColor"
    />
  </symbol>

  <symbol
    fill="none"
    xmlns="http://www.w3.org/2000/svg"
    viewBox="0 0 24 24"
    id="size-24"
  >
    <path
      d="M17.6251 2H6.37494C5.48073 2.00257 4.62383 2.34977 3.99136 2.96597C3.35914 3.582 3.0026 4.41699 3 5.28848V18.7115C3.00264 19.583 3.35915 20.418 3.99136 21.034C4.62378 21.6502 5.48073 21.9975 6.37494 22H17.6251C18.5193 21.9974 19.3762 21.6502 20.0086 21.034C20.6409 20.418 20.9974 19.583 21 18.7115V5.28848C20.9974 4.41699 20.6408 3.58204 20.0086 2.96597C19.3762 2.34975 18.5193 2.00254 17.6251 2ZM8.62506 15.2885H15.3749C15.7721 15.2955 16.136 15.5058 16.3326 15.8421C16.529 16.1785 16.529 16.5909 16.3326 16.9272C16.136 17.2634 15.7721 17.4739 15.3749 17.4809H8.62506C8.22316 17.4809 7.85177 17.2719 7.65081 16.9327C7.44986 16.5936 7.44986 16.1758 7.65081 15.8366C7.85177 15.4975 8.22315 15.2885 8.62506 15.2885ZM8.62506 10.9039H15.3749C15.7721 10.9107 16.136 11.1212 16.3326 11.4575C16.529 11.7937 16.529 12.2063 16.3326 12.5425C16.136 12.8788 15.7721 13.0893 15.3749 13.0961H8.62506C8.22786 13.0893 7.86401 12.8788 7.6674 12.5425C7.47097 12.2063 7.47097 11.7937 7.6674 11.4575C7.86402 11.1212 8.22788 10.9107 8.62506 10.9039ZM15.3749 8.71152H8.62506C8.22786 8.70454 7.86401 8.49424 7.6674 8.15788C7.47097 7.8215 7.47097 7.40914 7.6674 7.07277C7.86402 6.73659 8.22788 6.52609 8.62506 6.51913H15.3749C15.7721 6.52611 16.136 6.73659 16.3326 7.07277C16.529 7.40915 16.529 7.82151 16.3326 8.15788C16.136 8.49425 15.7721 8.70456 15.3749 8.71152Z"
      fill="currentColor"
    />
  </symbol>

  <symbol
    fill="none"
    xmlns="http://www.w3.org/2000/svg"
    viewBox="0 0 32 32"
    id="size-32"
  >
    <path
      d="M23.5001 2.66675H8.49992C7.30763 2.67017 6.1651 3.1331 5.32182 3.95471C4.47886 4.77607 4.00347 5.8894 4 7.05139V24.9488C4.00352 26.1108 4.47887 27.224 5.32182 28.0455C6.16504 28.8671 7.30763 29.33 8.49992 29.3334H23.5001C24.6924 29.33 25.8349 28.8671 26.6782 28.0455C27.5211 27.2241 27.9965 26.1108 28 24.9488V7.05139C27.9965 5.8894 27.5211 4.77614 26.6782 3.95471C25.835 3.13309 24.6924 2.67013 23.5001 2.66675ZM11.5001 20.3847H20.4999C21.0295 20.394 21.5147 20.6744 21.7768 21.1229C22.0387 21.5714 22.0387 22.1212 21.7768 22.5697C21.5146 23.018 21.0295 23.2986 20.4999 23.3079H11.5001C10.9642 23.3079 10.469 23.0292 10.2011 22.577C9.93314 22.1249 9.93314 21.5678 10.2011 21.1156C10.469 20.6634 10.9642 20.3847 11.5001 20.3847ZM11.5001 14.5386H20.4999C21.0295 14.5477 21.5147 14.8283 21.7768 15.2768C22.0387 15.7251 22.0387 16.2751 21.7768 16.7234C21.5146 17.1719 21.0295 17.4525 20.4999 17.4615H11.5001C10.9705 17.4525 10.4853 17.1718 10.2232 16.7234C9.96129 16.2751 9.96129 15.725 10.2232 15.2768C10.4854 14.8283 10.9705 14.5476 11.5001 14.5386ZM20.4999 11.6154H11.5001C10.9705 11.6061 10.4853 11.3257 10.2232 10.8773C9.96129 10.4288 9.96129 9.87893 10.2232 9.43044C10.4854 8.9822 10.9705 8.70153 11.5001 8.69226H20.4999C21.0295 8.70156 21.5147 8.9822 21.7768 9.43044C22.0387 9.87894 22.0387 10.4288 21.7768 10.8773C21.5146 11.3258 21.0295 11.6062 20.4999 11.6154Z"
      fill="currentColor"
    />
  </symbol>

  <symbol
    fill="none"
    xmlns="http://www.w3.org/2000/svg"
    viewBox="0 0 40 40"
    id="size-40"
  >
    <path
      d="M29.3751 3.33325H10.6249C9.13454 3.33753 7.70638 3.9162 6.65227 4.9432C5.59857 5.96991 5.00434 7.36156 5 8.81406V31.1858C5.00439 32.6383 5.59859 34.0298 6.65227 35.0566C7.7063 36.0837 9.13454 36.6624 10.6249 36.6666H29.3751C30.8655 36.6623 32.2936 36.0836 33.3477 35.0566C34.4014 34.0299 34.9957 32.6383 35 31.1858V8.81406C34.9956 7.36156 34.4014 5.96999 33.3477 4.9432C32.2937 3.91617 30.8655 3.33748 29.3751 3.33325ZM14.3751 25.4807H25.6249C26.2869 25.4923 26.8933 25.8428 27.221 26.4035C27.5484 26.9641 27.5484 27.6514 27.221 28.212C26.8933 28.7723 26.2869 29.1231 25.6249 29.1347H14.3751C13.7053 29.1347 13.0863 28.7863 12.7514 28.2211C12.4164 27.6559 12.4164 26.9595 12.7514 26.3943C13.0863 25.8291 13.7053 25.4807 14.3751 25.4807ZM14.3751 18.1731H25.6249C26.2869 18.1844 26.8933 18.5352 27.221 19.0958C27.5484 19.6561 27.5484 20.3437 27.221 20.904C26.8933 21.4646 26.2869 21.8155 25.6249 21.8267H14.3751C13.7131 21.8154 13.1067 21.4646 12.779 20.904C12.4516 20.3437 12.4516 19.6561 12.779 19.0958C13.1067 18.5352 13.7131 18.1844 14.3751 18.1731ZM25.6249 14.5191H14.3751C13.7131 14.5075 13.1067 14.157 12.779 13.5964C12.4516 13.0358 12.4516 12.3485 12.779 11.7879C13.1067 11.2276 13.7131 10.8767 14.3751 10.8651H25.6249C26.2869 10.8768 26.8933 11.2276 27.221 11.7879C27.5484 12.3485 27.5484 13.0358 27.221 13.5964C26.8933 14.157 26.2869 14.5075 25.6249 14.5191Z"
      fill="currentColor"
    />
  </symbol>
</svg>
