<svg
  width="32"
  height="32"
  viewBox="0 0 32 32"
  fill="none"
  xmlns="http://www.w3.org/2000/svg"
>
  <path
    d="M23.5001 2.66675H8.49992C7.30763 2.67017 6.1651 3.1331 5.32182 3.95471C4.47886 4.77607 4.00347 5.8894 4 7.05139V24.9488C4.00352 26.1108 4.47887 27.224 5.32182 28.0455C6.16504 28.8671 7.30763 29.33 8.49992 29.3334H23.5001C24.6924 29.33 25.8349 28.8671 26.6782 28.0455C27.5211 27.2241 27.9965 26.1108 28 24.9488V7.05139C27.9965 5.8894 27.5211 4.77614 26.6782 3.95471C25.835 3.13309 24.6924 2.67013 23.5001 2.66675ZM11.5001 20.3847H20.4999C21.0295 20.394 21.5147 20.6744 21.7768 21.1229C22.0387 21.5714 22.0387 22.1212 21.7768 22.5697C21.5146 23.018 21.0295 23.2986 20.4999 23.3079H11.5001C10.9642 23.3079 10.469 23.0292 10.2011 22.577C9.93314 22.1249 9.93314 21.5678 10.2011 21.1156C10.469 20.6634 10.9642 20.3847 11.5001 20.3847ZM11.5001 14.5386H20.4999C21.0295 14.5477 21.5147 14.8283 21.7768 15.2768C22.0387 15.7251 22.0387 16.2751 21.7768 16.7234C21.5146 17.1719 21.0295 17.4525 20.4999 17.4615H11.5001C10.9705 17.4525 10.4853 17.1718 10.2232 16.7234C9.96129 16.2751 9.96129 15.725 10.2232 15.2768C10.4854 14.8283 10.9705 14.5476 11.5001 14.5386ZM20.4999 11.6154H11.5001C10.9705 11.6061 10.4853 11.3257 10.2232 10.8773C9.96129 10.4288 9.96129 9.87893 10.2232 9.43044C10.4854 8.9822 10.9705 8.70153 11.5001 8.69226H20.4999C21.0295 8.70156 21.5147 8.9822 21.7768 9.43044C22.0387 9.87894 22.0387 10.4288 21.7768 10.8773C21.5146 11.3258 21.0295 11.6062 20.4999 11.6154Z"
    fill="currentColor"
  />
</svg>
