<svg
  width="12"
  height="12"
  viewBox="0 0 12 12"
  fill="none"
  xmlns="http://www.w3.org/2000/svg"
>
  <path
    fill-rule="evenodd"
    clip-rule="evenodd"
    d="M10.8318 5.487H10.8333C11.1088 5.487 11.3328 5.71 11.3333 5.9855C11.3373 7.321 10.8208 8.5785 9.87884 9.5255C8.93734 10.4725 7.68334 10.996 6.34784 11H6.33334C5.00284 11 3.75134 10.484 2.80784 9.5455C1.86084 8.604 1.33734 7.35 1.33334 6.0145C1.32934 4.6785 1.84584 3.4215 2.78784 2.4745C3.72934 1.5275 4.98334 1.004 6.31884 1C6.71634 1.006 7.12134 1.046 7.50934 1.139C7.77734 1.204 7.94284 1.474 7.87784 1.7425C7.81334 2.0105 7.54184 2.1755 7.27484 2.1115C6.96434 2.0365 6.63484 2.005 6.32184 2C5.25334 2.003 4.24984 2.422 3.49684 3.1795C2.74334 3.937 2.33034 4.943 2.33334 6.0115C2.33634 7.08 2.75534 8.083 3.51284 8.8365C4.26784 9.587 5.26884 10 6.33334 10H6.34484C7.41334 9.997 8.41684 9.578 9.16984 8.8205C9.92334 8.0625 10.3363 7.057 10.3333 5.9885C10.3328 5.7125 10.5558 5.4875 10.8318 5.487ZM4.47994 5.64607C4.67544 5.45057 4.99144 5.45057 5.18694 5.64607L6.30894 6.76807L9.45744 3.17007C9.63944 2.96357 9.95494 2.94157 10.1629 3.12357C10.3704 3.30507 10.3914 3.62107 10.2094 3.82907L6.70944 7.82907C6.61844 7.93307 6.48844 7.99457 6.34994 7.99957H6.33344C6.20094 7.99957 6.07394 7.94707 5.97994 7.85307L4.47994 6.35307C4.28444 6.15757 4.28444 5.84157 4.47994 5.64607Z"
    fill="currentColor"
  />
</svg>
