<svg
  width="40"
  height="40"
  viewBox="0 0 40 40"
  fill="none"
  xmlns="http://www.w3.org/2000/svg"
>
  <path
    fill-rule="evenodd"
    clip-rule="evenodd"
    d="M35.3283 18.2902H35.3333C36.2517 18.2902 36.9983 19.0335 37 19.9518C37.0133 24.4035 35.2917 28.5952 32.1517 31.7518C29.0133 34.9085 24.8333 36.6535 20.3817 36.6668H20.3333C15.8983 36.6668 11.7267 34.9468 8.58167 31.8185C5.42501 28.6802 3.68001 24.5002 3.66667 20.0485C3.65334 15.5952 5.37501 11.4052 8.51501 8.2485C11.6533 5.09183 15.8333 3.34683 20.285 3.3335C21.61 3.3535 22.96 3.48683 24.2533 3.79683C25.1467 4.0135 25.6983 4.9135 25.4817 5.8085C25.2667 6.70183 24.3617 7.25183 23.4717 7.0385C22.4367 6.7885 21.3383 6.6835 20.295 6.66683C16.7333 6.67683 13.3883 8.0735 10.8783 10.5985C8.36667 13.1235 6.99001 16.4768 7.00001 20.0385C7.01001 23.6002 8.40667 26.9435 10.9317 29.4552C13.4483 31.9568 16.785 33.3335 20.3333 33.3335H20.3717C23.9333 33.3235 27.2783 31.9268 29.7883 29.4018C32.3 26.8752 33.6767 23.5235 33.6667 19.9618C33.665 19.0418 34.4083 18.2918 35.3283 18.2902ZM14.1553 18.8204C14.807 18.1687 15.8603 18.1687 16.512 18.8204L20.252 22.5604L30.747 10.5671C31.3537 9.87872 32.4053 9.80539 33.0987 10.4121C33.7903 11.0171 33.8603 12.0704 33.2537 12.7637L21.587 26.0971C21.2837 26.4437 20.8503 26.6487 20.3887 26.6654H20.3337C19.892 26.6654 19.4687 26.4904 19.1553 26.1771L14.1553 21.1771C13.5037 20.5254 13.5037 19.4721 14.1553 18.8204Z"
    fill="currentColor"
  />
</svg>
