<svg
  width="24"
  height="24"
  viewBox="0 0 24 24"
  fill="none"
  xmlns="http://www.w3.org/2000/svg"
>
  <path
    fill-rule="evenodd"
    clip-rule="evenodd"
    d="M21.3304 10.974H21.3334C21.8844 10.974 22.3324 11.42 22.3334 11.971C22.3414 14.642 21.3084 17.157 19.4244 19.051C17.5414 20.945 15.0334 21.992 12.3624 22H12.3334C9.67236 22 7.16936 20.968 5.28236 19.091C3.38836 17.208 2.34136 14.7 2.33336 12.029C2.32536 9.357 3.35836 6.843 5.24236 4.949C7.12536 3.055 9.63336 2.008 12.3044 2C13.0994 2.012 13.9094 2.092 14.6854 2.278C15.2214 2.408 15.5524 2.948 15.4224 3.485C15.2934 4.021 14.7504 4.351 14.2164 4.223C13.5954 4.073 12.9364 4.01 12.3104 4C10.1734 4.006 8.16636 4.844 6.66036 6.359C5.15336 7.874 4.32736 9.886 4.33336 12.023C4.33936 14.16 5.17736 16.166 6.69236 17.673C8.20236 19.174 10.2044 20 12.3334 20H12.3564C14.4934 19.994 16.5004 19.156 18.0064 17.641C19.5134 16.125 20.3394 14.114 20.3334 11.977C20.3324 11.425 20.7784 10.975 21.3304 10.974ZM8.62656 11.2921C9.01756 10.9011 9.64956 10.9011 10.0406 11.2921L12.2846 13.5361L18.5816 6.34014C18.9456 5.92714 19.5766 5.88314 19.9926 6.24714C20.4076 6.61014 20.4496 7.24214 20.0856 7.65814L13.0856 15.6581C12.9036 15.8661 12.6436 15.9891 12.3666 15.9991H12.3336C12.0686 15.9991 11.8146 15.8941 11.6266 15.7061L8.62656 12.7061C8.23556 12.3151 8.23556 11.6831 8.62656 11.2921Z"
    fill="currentColor"
  />
</svg>
