<svg>
  <symbol
    fill="none"
    xmlns="http://www.w3.org/2000/svg"
    viewBox="0 0 12 12"
    id="size-12"
  >
    <path
      fill-rule="evenodd"
      clip-rule="evenodd"
      d="M10.8318 5.487H10.8333C11.1088 5.487 11.3328 5.71 11.3333 5.9855C11.3373 7.321 10.8208 8.5785 9.87884 9.5255C8.93734 10.4725 7.68334 10.996 6.34784 11H6.33334C5.00284 11 3.75134 10.484 2.80784 9.5455C1.86084 8.604 1.33734 7.35 1.33334 6.0145C1.32934 4.6785 1.84584 3.4215 2.78784 2.4745C3.72934 1.5275 4.98334 1.004 6.31884 1C6.71634 1.006 7.12134 1.046 7.50934 1.139C7.77734 1.204 7.94284 1.474 7.87784 1.7425C7.81334 2.0105 7.54184 2.1755 7.27484 2.1115C6.96434 2.0365 6.63484 2.005 6.32184 2C5.25334 2.003 4.24984 2.422 3.49684 3.1795C2.74334 3.937 2.33034 4.943 2.33334 6.0115C2.33634 7.08 2.75534 8.083 3.51284 8.8365C4.26784 9.587 5.26884 10 6.33334 10H6.34484C7.41334 9.997 8.41684 9.578 9.16984 8.8205C9.92334 8.0625 10.3363 7.057 10.3333 5.9885C10.3328 5.7125 10.5558 5.4875 10.8318 5.487ZM4.47994 5.64607C4.67544 5.45057 4.99144 5.45057 5.18694 5.64607L6.30894 6.76807L9.45744 3.17007C9.63944 2.96357 9.95494 2.94157 10.1629 3.12357C10.3704 3.30507 10.3914 3.62107 10.2094 3.82907L6.70944 7.82907C6.61844 7.93307 6.48844 7.99457 6.34994 7.99957H6.33344C6.20094 7.99957 6.07394 7.94707 5.97994 7.85307L4.47994 6.35307C4.28444 6.15757 4.28444 5.84157 4.47994 5.64607Z"
      fill="currentColor"
    />
  </symbol>

  <symbol
    fill="none"
    xmlns="http://www.w3.org/2000/svg"
    viewBox="0 0 16 16"
    id="size-16"
  >
    <path
      fill-rule="evenodd"
      clip-rule="evenodd"
      d="M14.3314 7.31616H14.3334C14.7007 7.31616 14.9994 7.6135 15 7.98083C15.0054 9.7615 14.3167 11.4382 13.0607 12.7008C11.8054 13.9635 10.1334 14.6615 8.35269 14.6668H8.33335C6.55935 14.6668 4.89069 13.9788 3.63269 12.7275C2.37002 11.4722 1.67202 9.80016 1.66669 8.0195C1.66135 6.23816 2.35002 4.56216 3.60602 3.2995C4.86135 2.03683 6.53335 1.33883 8.31402 1.3335C8.84402 1.3415 9.38402 1.39483 9.90135 1.51883C10.2587 1.6055 10.4794 1.9655 10.3927 2.3235C10.3067 2.68083 9.94469 2.90083 9.58869 2.8155C9.17469 2.7155 8.73535 2.6735 8.31802 2.66683C6.89335 2.67083 5.55535 3.2295 4.55135 4.2395C3.54669 5.2495 2.99602 6.59083 3.00002 8.0155C3.00402 9.44016 3.56269 10.7775 4.57269 11.7822C5.57935 12.7828 6.91402 13.3335 8.33335 13.3335H8.34869C9.77335 13.3295 11.1114 12.7708 12.1154 11.7608C13.12 10.7502 13.6707 9.4095 13.6667 7.98483C13.666 7.61683 13.9634 7.31683 14.3314 7.31616ZM5.86216 7.52825C6.12282 7.26759 6.54416 7.26759 6.80482 7.52825L8.30082 9.02425L12.4988 4.22692C12.7415 3.95159 13.1622 3.92225 13.4395 4.16492C13.7162 4.40692 13.7442 4.82825 13.5015 5.10559L8.83482 10.4389C8.71349 10.5776 8.54016 10.6596 8.35549 10.6663H8.33349C8.15682 10.6663 7.98749 10.5963 7.86216 10.4709L5.86216 8.47092C5.60149 8.21025 5.60149 7.78892 5.86216 7.52825Z"
      fill="currentColor"
    />
  </symbol>

  <symbol
    fill="none"
    xmlns="http://www.w3.org/2000/svg"
    viewBox="0 0 24 24"
    id="size-24"
  >
    <path
      fill-rule="evenodd"
      clip-rule="evenodd"
      d="M21.3304 10.974H21.3334C21.8844 10.974 22.3324 11.42 22.3334 11.971C22.3414 14.642 21.3084 17.157 19.4244 19.051C17.5414 20.945 15.0334 21.992 12.3624 22H12.3334C9.67236 22 7.16936 20.968 5.28236 19.091C3.38836 17.208 2.34136 14.7 2.33336 12.029C2.32536 9.357 3.35836 6.843 5.24236 4.949C7.12536 3.055 9.63336 2.008 12.3044 2C13.0994 2.012 13.9094 2.092 14.6854 2.278C15.2214 2.408 15.5524 2.948 15.4224 3.485C15.2934 4.021 14.7504 4.351 14.2164 4.223C13.5954 4.073 12.9364 4.01 12.3104 4C10.1734 4.006 8.16636 4.844 6.66036 6.359C5.15336 7.874 4.32736 9.886 4.33336 12.023C4.33936 14.16 5.17736 16.166 6.69236 17.673C8.20236 19.174 10.2044 20 12.3334 20H12.3564C14.4934 19.994 16.5004 19.156 18.0064 17.641C19.5134 16.125 20.3394 14.114 20.3334 11.977C20.3324 11.425 20.7784 10.975 21.3304 10.974ZM8.62656 11.2921C9.01756 10.9011 9.64956 10.9011 10.0406 11.2921L12.2846 13.5361L18.5816 6.34014C18.9456 5.92714 19.5766 5.88314 19.9926 6.24714C20.4076 6.61014 20.4496 7.24214 20.0856 7.65814L13.0856 15.6581C12.9036 15.8661 12.6436 15.9891 12.3666 15.9991H12.3336C12.0686 15.9991 11.8146 15.8941 11.6266 15.7061L8.62656 12.7061C8.23556 12.3151 8.23556 11.6831 8.62656 11.2921Z"
      fill="currentColor"
    />
  </symbol>

  <symbol
    fill="none"
    xmlns="http://www.w3.org/2000/svg"
    viewBox="0 0 32 32"
    id="size-32"
  >
    <path
      fill-rule="evenodd"
      clip-rule="evenodd"
      d="M28.3293 14.6321H28.3333C29.068 14.6321 29.6653 15.2267 29.6667 15.9614C29.6773 19.5227 28.3 22.8761 25.788 25.4014C23.2773 27.9267 19.9333 29.3227 16.372 29.3334H16.3333C12.7853 29.3334 9.448 27.9574 6.932 25.4547C4.40667 22.9441 3.01067 19.6001 3 16.0387C2.98933 12.4761 4.36667 9.12408 6.87867 6.59875C9.38933 4.07341 12.7333 2.67741 16.2947 2.66675C17.3547 2.68275 18.4347 2.78941 19.4693 3.03741C20.184 3.21075 20.6253 3.93075 20.452 4.64675C20.28 5.36141 19.556 5.80141 18.844 5.63075C18.016 5.43075 17.1373 5.34675 16.3027 5.33341C13.4533 5.34141 10.7773 6.45875 8.76933 8.47875C6.76 10.4987 5.65867 13.1814 5.66667 16.0307C5.67467 18.8801 6.792 21.5547 8.812 23.5641C10.8253 25.5654 13.4947 26.6667 16.3333 26.6667H16.364C19.2133 26.6587 21.8893 25.5414 23.8973 23.5214C25.9067 21.5001 27.008 18.8187 27 15.9694C26.9987 15.2334 27.5933 14.6334 28.3293 14.6321ZM11.3909 15.0563C11.9123 14.5349 12.7549 14.5349 13.2763 15.0563L16.2683 18.0483L24.6643 8.4536C25.1496 7.90293 25.9909 7.84426 26.5456 8.3296C27.0989 8.8136 27.1549 9.65626 26.6696 10.2109L17.3363 20.8776C17.0936 21.1549 16.7469 21.3189 16.3776 21.3323H16.3336C15.9803 21.3323 15.6416 21.1923 15.3909 20.9416L11.3909 16.9416C10.8696 16.4203 10.8696 15.5776 11.3909 15.0563Z"
      fill="currentColor"
    />
  </symbol>

  <symbol
    fill="none"
    xmlns="http://www.w3.org/2000/svg"
    viewBox="0 0 40 40"
    id="size-40"
  >
    <path
      fill-rule="evenodd"
      clip-rule="evenodd"
      d="M35.3283 18.2902H35.3333C36.2517 18.2902 36.9983 19.0335 37 19.9518C37.0133 24.4035 35.2917 28.5952 32.1517 31.7518C29.0133 34.9085 24.8333 36.6535 20.3817 36.6668H20.3333C15.8983 36.6668 11.7267 34.9468 8.58167 31.8185C5.42501 28.6802 3.68001 24.5002 3.66667 20.0485C3.65334 15.5952 5.37501 11.4052 8.51501 8.2485C11.6533 5.09183 15.8333 3.34683 20.285 3.3335C21.61 3.3535 22.96 3.48683 24.2533 3.79683C25.1467 4.0135 25.6983 4.9135 25.4817 5.8085C25.2667 6.70183 24.3617 7.25183 23.4717 7.0385C22.4367 6.7885 21.3383 6.6835 20.295 6.66683C16.7333 6.67683 13.3883 8.0735 10.8783 10.5985C8.36667 13.1235 6.99001 16.4768 7.00001 20.0385C7.01001 23.6002 8.40667 26.9435 10.9317 29.4552C13.4483 31.9568 16.785 33.3335 20.3333 33.3335H20.3717C23.9333 33.3235 27.2783 31.9268 29.7883 29.4018C32.3 26.8752 33.6767 23.5235 33.6667 19.9618C33.665 19.0418 34.4083 18.2918 35.3283 18.2902ZM14.1553 18.8204C14.807 18.1687 15.8603 18.1687 16.512 18.8204L20.252 22.5604L30.747 10.5671C31.3537 9.87872 32.4053 9.80539 33.0987 10.4121C33.7903 11.0171 33.8603 12.0704 33.2537 12.7637L21.587 26.0971C21.2837 26.4437 20.8503 26.6487 20.3887 26.6654H20.3337C19.892 26.6654 19.4687 26.4904 19.1553 26.1771L14.1553 21.1771C13.5037 20.5254 13.5037 19.4721 14.1553 18.8204Z"
      fill="currentColor"
    />
  </symbol>
</svg>
