<svg
  width="32"
  height="32"
  viewBox="0 0 32 32"
  fill="none"
  xmlns="http://www.w3.org/2000/svg"
>
  <path
    fill-rule="evenodd"
    clip-rule="evenodd"
    d="M28.3293 14.6321H28.3333C29.068 14.6321 29.6653 15.2267 29.6667 15.9614C29.6773 19.5227 28.3 22.8761 25.788 25.4014C23.2773 27.9267 19.9333 29.3227 16.372 29.3334H16.3333C12.7853 29.3334 9.448 27.9574 6.932 25.4547C4.40667 22.9441 3.01067 19.6001 3 16.0387C2.98933 12.4761 4.36667 9.12408 6.87867 6.59875C9.38933 4.07341 12.7333 2.67741 16.2947 2.66675C17.3547 2.68275 18.4347 2.78941 19.4693 3.03741C20.184 3.21075 20.6253 3.93075 20.452 4.64675C20.28 5.36141 19.556 5.80141 18.844 5.63075C18.016 5.43075 17.1373 5.34675 16.3027 5.33341C13.4533 5.34141 10.7773 6.45875 8.76933 8.47875C6.76 10.4987 5.65867 13.1814 5.66667 16.0307C5.67467 18.8801 6.792 21.5547 8.812 23.5641C10.8253 25.5654 13.4947 26.6667 16.3333 26.6667H16.364C19.2133 26.6587 21.8893 25.5414 23.8973 23.5214C25.9067 21.5001 27.008 18.8187 27 15.9694C26.9987 15.2334 27.5933 14.6334 28.3293 14.6321ZM11.3909 15.0563C11.9123 14.5349 12.7549 14.5349 13.2763 15.0563L16.2683 18.0483L24.6643 8.4536C25.1496 7.90293 25.9909 7.84426 26.5456 8.3296C27.0989 8.8136 27.1549 9.65626 26.6696 10.2109L17.3363 20.8776C17.0936 21.1549 16.7469 21.3189 16.3776 21.3323H16.3336C15.9803 21.3323 15.6416 21.1923 15.3909 20.9416L11.3909 16.9416C10.8696 16.4203 10.8696 15.5776 11.3909 15.0563Z"
    fill="currentColor"
  />
</svg>
