<svg
  width="16"
  height="16"
  viewBox="0 0 16 16"
  fill="none"
  xmlns="http://www.w3.org/2000/svg"
>
  <path
    fill-rule="evenodd"
    clip-rule="evenodd"
    d="M14.3314 7.31616H14.3334C14.7007 7.31616 14.9994 7.6135 15 7.98083C15.0054 9.7615 14.3167 11.4382 13.0607 12.7008C11.8054 13.9635 10.1334 14.6615 8.35269 14.6668H8.33335C6.55935 14.6668 4.89069 13.9788 3.63269 12.7275C2.37002 11.4722 1.67202 9.80016 1.66669 8.0195C1.66135 6.23816 2.35002 4.56216 3.60602 3.2995C4.86135 2.03683 6.53335 1.33883 8.31402 1.3335C8.84402 1.3415 9.38402 1.39483 9.90135 1.51883C10.2587 1.6055 10.4794 1.9655 10.3927 2.3235C10.3067 2.68083 9.94469 2.90083 9.58869 2.8155C9.17469 2.7155 8.73535 2.6735 8.31802 2.66683C6.89335 2.67083 5.55535 3.2295 4.55135 4.2395C3.54669 5.2495 2.99602 6.59083 3.00002 8.0155C3.00402 9.44016 3.56269 10.7775 4.57269 11.7822C5.57935 12.7828 6.91402 13.3335 8.33335 13.3335H8.34869C9.77335 13.3295 11.1114 12.7708 12.1154 11.7608C13.12 10.7502 13.6707 9.4095 13.6667 7.98483C13.666 7.61683 13.9634 7.31683 14.3314 7.31616ZM5.86216 7.52825C6.12282 7.26759 6.54416 7.26759 6.80482 7.52825L8.30082 9.02425L12.4988 4.22692C12.7415 3.95159 13.1622 3.92225 13.4395 4.16492C13.7162 4.40692 13.7442 4.82825 13.5015 5.10559L8.83482 10.4389C8.71349 10.5776 8.54016 10.6596 8.35549 10.6663H8.33349C8.15682 10.6663 7.98749 10.5963 7.86216 10.4709L5.86216 8.47092C5.60149 8.21025 5.60149 7.78892 5.86216 7.52825Z"
    fill="currentColor"
  />
</svg>
