<svg>
  <symbol
    fill="none"
    xmlns="http://www.w3.org/2000/svg"
    viewBox="0 0 12 12"
    id="size-12"
  >
    <path
      fill-rule="evenodd"
      clip-rule="evenodd"
      d="M1.1405 11.9998H10.6903C10.9677 11.9998 11.1929 11.7746 11.1929 11.4971C11.1929 11.2197 10.9677 10.9945 10.6903 10.9945H1.1405C0.863047 10.9945 0.637878 11.2197 0.637878 11.4971C0.637878 11.7746 0.863047 11.9998 1.1405 11.9998ZM10.9206 3.36732C11.2031 3.08437 11.3619 2.7009 11.3619 2.30127C11.3619 1.90118 11.2031 1.51773 10.9206 1.23465C10.6667 0.980875 10.3808 0.695354 10.127 0.441574C9.84449 0.158624 9.46045 -0.000244141 9.06094 -0.000244141C8.66085 -0.000244141 8.2774 0.158618 7.99432 0.441574L1.92783 6.50835C1.69705 6.73902 1.54785 7.038 1.50161 7.36123L1.27442 8.95054C1.22966 9.26366 1.33523 9.57928 1.55883 9.80342C1.78254 10.0271 2.0987 10.1321 2.41182 10.0875L4.00113 9.86075C4.32379 9.81452 4.62335 9.66475 4.85401 9.4341L10.9206 3.36732ZM7.32245 2.53498L8.82672 4.03936L4.14287 8.72321C4.06602 8.80007 3.9665 8.84988 3.85891 8.86547L2.2696 9.0921L2.49679 7.50336C2.51182 7.39532 2.56208 7.2958 2.63904 7.21884L7.32245 2.53498ZM9.53745 3.32863L8.03307 1.82424L8.70554 1.15231C8.79956 1.05773 8.9278 1.005 9.06097 1.005C9.19414 1.005 9.32182 1.05773 9.41628 1.15231C9.67017 1.40609 9.95615 1.69161 10.2099 1.94539C10.3039 2.03985 10.3567 2.16753 10.3567 2.30127C10.3567 2.43444 10.304 2.56212 10.2099 2.65658L9.53745 3.32863Z"
      fill="currentColor"
    />
  </symbol>

  <symbol
    fill="none"
    xmlns="http://www.w3.org/2000/svg"
    viewBox="0 0 16 16"
    id="size-16"
  >
    <path
      fill-rule="evenodd"
      clip-rule="evenodd"
      d="M1.52069 15.9998H14.2537C14.6237 15.9998 14.9239 15.6995 14.9239 15.3296C14.9239 14.9597 14.6237 14.6594 14.2537 14.6594H1.52069C1.15075 14.6594 0.850525 14.9597 0.850525 15.3296C0.850525 15.6995 1.15075 15.9998 1.52069 15.9998ZM14.5609 4.48984C14.9375 4.11257 15.1492 3.60128 15.1492 3.06844C15.1492 2.53499 14.9375 2.02372 14.5609 1.64628C14.2224 1.30791 13.841 0.92722 13.5027 0.588846C13.126 0.21158 12.614 -0.000244141 12.0813 -0.000244141C11.5478 -0.000244141 11.0366 0.211573 10.6591 0.588846L2.57046 8.67788C2.26276 8.98544 2.06382 9.38408 2.00217 9.81505L1.69925 11.9341C1.63956 12.3516 1.78033 12.7725 2.07845 13.0713C2.37674 13.3696 2.79828 13.5096 3.21578 13.4501L5.33486 13.1477C5.76507 13.0861 6.16448 12.8864 6.47203 12.5789L14.5609 4.48984ZM9.76328 3.38005L11.769 5.3859L5.52385 11.631C5.42138 11.7335 5.28869 11.7999 5.14523 11.8207L3.02615 12.1229L3.32907 10.0046C3.34911 9.86051 3.41613 9.72782 3.51875 9.6252L9.76328 3.38005ZM12.7166 4.43825L10.7108 2.4324L11.6074 1.53649C11.7328 1.41039 11.9038 1.34008 12.0813 1.34008C12.2589 1.34008 12.4291 1.41039 12.5551 1.53649C12.8936 1.87486 13.2749 2.25556 13.6133 2.59393C13.7386 2.71989 13.8089 2.89012 13.8089 3.06844C13.8089 3.246 13.7386 3.41624 13.6133 3.54219L12.7166 4.43825Z"
      fill="currentColor"
    />
  </symbol>

  <symbol
    fill="none"
    xmlns="http://www.w3.org/2000/svg"
    viewBox="0 0 24 24"
    id="size-24"
  >
    <path
      fill-rule="evenodd"
      clip-rule="evenodd"
      d="M2.28112 24H21.3807C21.9356 24 22.386 23.5497 22.386 22.9948C22.386 22.4399 21.9356 21.9895 21.3807 21.9895H2.28112C1.72622 21.9895 1.27588 22.4399 1.27588 22.9948C1.27588 23.5497 1.72622 24 2.28112 24ZM21.8414 6.73512C22.4064 6.16922 22.7239 5.40228 22.7239 4.60303C22.7239 3.80286 22.4064 3.03594 21.8414 2.46979C21.3336 1.96224 20.7617 1.3912 20.2541 0.883636C19.6891 0.317737 18.921 0 18.122 0C17.3218 0 16.5549 0.317725 15.9888 0.883636L3.85579 13.0172C3.39423 13.4785 3.09583 14.0765 3.00334 14.7229L2.54896 17.9016C2.45943 18.5278 2.67058 19.159 3.11777 19.6073C3.5652 20.0547 4.19752 20.2648 4.82376 20.1755L8.00239 19.722C8.64769 19.6295 9.24682 19.33 9.70814 18.8687L21.8414 6.73512ZM14.645 5.07044L17.6536 8.07921L8.28586 17.4469C8.13215 17.6006 7.93313 17.7002 7.71794 17.7314L4.53931 18.1847L4.99369 15.0072C5.02376 14.7911 5.12428 14.5921 5.27821 14.4382L14.645 5.07044ZM19.075 6.65774L16.0663 3.64897L17.4112 2.30511C17.5992 2.11595 17.8557 2.01049 18.1221 2.01049C18.3884 2.01049 18.6438 2.11595 18.8327 2.30511C19.3405 2.81266 19.9124 3.3837 20.42 3.89126C20.608 4.0802 20.7135 4.33554 20.7135 4.60303C20.7135 4.86937 20.608 5.12472 20.42 5.31365L19.075 6.65774Z"
      fill="currentColor"
    />
  </symbol>

  <symbol
    fill="none"
    xmlns="http://www.w3.org/2000/svg"
    viewBox="0 0 32 32"
    id="size-32"
  >
    <path
      fill-rule="evenodd"
      clip-rule="evenodd"
      d="M3.04162 32H28.5077C29.2476 32 29.8481 31.3996 29.8481 30.6597C29.8481 29.9198 29.2476 29.3194 28.5077 29.3194H3.04162C2.30174 29.3194 1.70129 29.9198 1.70129 30.6597C1.70129 31.3996 2.30174 32 3.04162 32ZM29.122 8.98016C29.8753 8.22563 30.2986 7.20304 30.2986 6.13737C30.2986 5.07048 29.8753 4.04793 29.122 3.29306C28.4449 2.61632 27.6823 1.85493 27.0056 1.17818C26.2522 0.423649 25.2282 0 24.1628 0C23.0959 0 22.0733 0.423633 21.3185 1.17818L5.14117 17.3563C4.52576 17.9714 4.12789 18.7686 4.00458 19.6306L3.39874 23.8688C3.27937 24.7037 3.56089 25.5454 4.15715 26.1431C4.75372 26.7397 5.59681 27.0197 6.4318 26.9006L10.67 26.296C11.5304 26.1727 12.3292 25.7733 12.9443 25.1582L29.122 8.98016ZM19.5268 6.76059L23.5382 10.7723L11.0479 23.2626C10.843 23.4675 10.5776 23.6003 10.2907 23.6419L6.05254 24.2463L6.65838 20.0096C6.69847 19.7215 6.8325 19.4561 7.03774 19.2509L19.5268 6.76059ZM25.4335 8.87699L21.4218 4.86529L23.2151 3.07347C23.4658 2.82126 23.8077 2.68065 24.1629 2.68065C24.518 2.68065 24.8585 2.82126 25.1104 3.07347C25.7874 3.75021 26.55 4.5116 27.2268 5.18835C27.4775 5.44026 27.6181 5.78072 27.6181 6.13737C27.6181 6.4925 27.4775 6.83296 27.2268 7.08487L25.4335 8.87699Z"
      fill="currentColor"
    />
  </symbol>

  <symbol
    fill="none"
    xmlns="http://www.w3.org/2000/svg"
    viewBox="0 0 40 40"
    id="size-40"
  >
    <path
      fill-rule="evenodd"
      clip-rule="evenodd"
      d="M3.80205 40H35.6347C36.5595 40 37.3101 39.2494 37.3101 38.3246C37.3101 37.3998 36.5595 36.6492 35.6347 36.6492H3.80205C2.87721 36.6492 2.12665 37.3998 2.12665 38.3246C2.12665 39.2494 2.87721 40 3.80205 40ZM36.4025 11.2252C37.3442 10.282 37.8733 9.00381 37.8733 7.67172C37.8733 6.3381 37.3442 5.05991 36.4025 4.11632C35.5562 3.2704 34.6029 2.31866 33.757 1.47273C32.8153 0.529561 31.5352 0 30.2035 0C28.8699 0 27.5917 0.529542 26.6481 1.47273L6.4265 21.6953C5.65723 22.4642 5.15989 23.4608 5.00576 24.5382L4.24845 29.836C4.09924 30.8797 4.45115 31.9317 5.19647 32.6789C5.94218 33.4246 6.99605 33.7746 8.03978 33.6258L13.3375 32.87C14.413 32.7159 15.4115 32.2166 16.1804 31.4478L36.4025 11.2252ZM24.4085 8.45073L29.4228 13.4654L13.8099 29.0782C13.5538 29.3344 13.2221 29.5004 12.8634 29.5524L7.5657 30.3078L8.32301 25.012C8.37312 24.6519 8.54065 24.3202 8.7972 24.0636L24.4085 8.45073ZM31.7919 11.0962L26.7773 6.08162L29.0189 3.84184C29.3323 3.52658 29.7597 3.35081 30.2036 3.35081C30.6475 3.35081 31.0731 3.52658 31.388 3.84184C32.2343 4.68777 33.1876 5.6395 34.0335 6.48544C34.3469 6.80033 34.5227 7.22591 34.5227 7.67172C34.5227 8.11562 34.3469 8.5412 34.0335 8.85608L31.7919 11.0962Z"
      fill="currentColor"
    />
  </symbol>
</svg>
