<svg
  width="24"
  height="24"
  viewBox="0 0 24 24"
  fill="none"
  xmlns="http://www.w3.org/2000/svg"
>
  <path
    fill-rule="evenodd"
    clip-rule="evenodd"
    d="M2.28112 24H21.3807C21.9356 24 22.386 23.5497 22.386 22.9948C22.386 22.4399 21.9356 21.9895 21.3807 21.9895H2.28112C1.72622 21.9895 1.27588 22.4399 1.27588 22.9948C1.27588 23.5497 1.72622 24 2.28112 24ZM21.8414 6.73512C22.4064 6.16922 22.7239 5.40228 22.7239 4.60303C22.7239 3.80286 22.4064 3.03594 21.8414 2.46979C21.3336 1.96224 20.7617 1.3912 20.2541 0.883636C19.6891 0.317737 18.921 0 18.122 0C17.3218 0 16.5549 0.317725 15.9888 0.883636L3.85579 13.0172C3.39423 13.4785 3.09583 14.0765 3.00334 14.7229L2.54896 17.9016C2.45943 18.5278 2.67058 19.159 3.11777 19.6073C3.5652 20.0547 4.19752 20.2648 4.82376 20.1755L8.00239 19.722C8.64769 19.6295 9.24682 19.33 9.70814 18.8687L21.8414 6.73512ZM14.645 5.07044L17.6536 8.07921L8.28586 17.4469C8.13215 17.6006 7.93313 17.7002 7.71794 17.7314L4.53931 18.1847L4.99369 15.0072C5.02376 14.7911 5.12428 14.5921 5.27821 14.4382L14.645 5.07044ZM19.075 6.65774L16.0663 3.64897L17.4112 2.30511C17.5992 2.11595 17.8557 2.01049 18.1221 2.01049C18.3884 2.01049 18.6438 2.11595 18.8327 2.30511C19.3405 2.81266 19.9124 3.3837 20.42 3.89126C20.608 4.0802 20.7135 4.33554 20.7135 4.60303C20.7135 4.86937 20.608 5.12472 20.42 5.31365L19.075 6.65774Z"
    fill="currentColor"
  />
</svg>
