<svg
  width="12"
  height="12"
  viewBox="0 0 12 12"
  fill="none"
  xmlns="http://www.w3.org/2000/svg"
>
  <path
    fill-rule="evenodd"
    clip-rule="evenodd"
    d="M1.1405 11.9998H10.6903C10.9677 11.9998 11.1929 11.7746 11.1929 11.4971C11.1929 11.2197 10.9677 10.9945 10.6903 10.9945H1.1405C0.863047 10.9945 0.637878 11.2197 0.637878 11.4971C0.637878 11.7746 0.863047 11.9998 1.1405 11.9998ZM10.9206 3.36732C11.2031 3.08437 11.3619 2.7009 11.3619 2.30127C11.3619 1.90118 11.2031 1.51773 10.9206 1.23465C10.6667 0.980875 10.3808 0.695354 10.127 0.441574C9.84449 0.158624 9.46045 -0.000244141 9.06094 -0.000244141C8.66085 -0.000244141 8.2774 0.158618 7.99432 0.441574L1.92783 6.50835C1.69705 6.73902 1.54785 7.038 1.50161 7.36123L1.27442 8.95054C1.22966 9.26366 1.33523 9.57928 1.55883 9.80342C1.78254 10.0271 2.0987 10.1321 2.41182 10.0875L4.00113 9.86075C4.32379 9.81452 4.62335 9.66475 4.85401 9.4341L10.9206 3.36732ZM7.32245 2.53498L8.82672 4.03936L4.14287 8.72321C4.06602 8.80007 3.9665 8.84988 3.85891 8.86547L2.2696 9.0921L2.49679 7.50336C2.51182 7.39532 2.56208 7.2958 2.63904 7.21884L7.32245 2.53498ZM9.53745 3.32863L8.03307 1.82424L8.70554 1.15231C8.79956 1.05773 8.9278 1.005 9.06097 1.005C9.19414 1.005 9.32182 1.05773 9.41628 1.15231C9.67017 1.40609 9.95615 1.69161 10.2099 1.94539C10.3039 2.03985 10.3567 2.16753 10.3567 2.30127C10.3567 2.43444 10.304 2.56212 10.2099 2.65658L9.53745 3.32863Z"
    fill="currentColor"
  />
</svg>
