<svg
  width="16"
  height="16"
  viewBox="0 0 16 16"
  fill="none"
  xmlns="http://www.w3.org/2000/svg"
>
  <path
    fill-rule="evenodd"
    clip-rule="evenodd"
    d="M1.52069 15.9998H14.2537C14.6237 15.9998 14.9239 15.6995 14.9239 15.3296C14.9239 14.9597 14.6237 14.6594 14.2537 14.6594H1.52069C1.15075 14.6594 0.850525 14.9597 0.850525 15.3296C0.850525 15.6995 1.15075 15.9998 1.52069 15.9998ZM14.5609 4.48984C14.9375 4.11257 15.1492 3.60128 15.1492 3.06844C15.1492 2.53499 14.9375 2.02372 14.5609 1.64628C14.2224 1.30791 13.841 0.92722 13.5027 0.588846C13.126 0.21158 12.614 -0.000244141 12.0813 -0.000244141C11.5478 -0.000244141 11.0366 0.211573 10.6591 0.588846L2.57046 8.67788C2.26276 8.98544 2.06382 9.38408 2.00217 9.81505L1.69925 11.9341C1.63956 12.3516 1.78033 12.7725 2.07845 13.0713C2.37674 13.3696 2.79828 13.5096 3.21578 13.4501L5.33486 13.1477C5.76507 13.0861 6.16448 12.8864 6.47203 12.5789L14.5609 4.48984ZM9.76328 3.38005L11.769 5.3859L5.52385 11.631C5.42138 11.7335 5.28869 11.7999 5.14523 11.8207L3.02615 12.1229L3.32907 10.0046C3.34911 9.86051 3.41613 9.72782 3.51875 9.6252L9.76328 3.38005ZM12.7166 4.43825L10.7108 2.4324L11.6074 1.53649C11.7328 1.41039 11.9038 1.34008 12.0813 1.34008C12.2589 1.34008 12.4291 1.41039 12.5551 1.53649C12.8936 1.87486 13.2749 2.25556 13.6133 2.59393C13.7386 2.71989 13.8089 2.89012 13.8089 3.06844C13.8089 3.246 13.7386 3.41624 13.6133 3.54219L12.7166 4.43825Z"
    fill="currentColor"
  />
</svg>
