<svg
  width="40"
  height="40"
  viewBox="0 0 40 40"
  fill="none"
  xmlns="http://www.w3.org/2000/svg"
>
  <path
    fill-rule="evenodd"
    clip-rule="evenodd"
    d="M3.80205 40H35.6347C36.5595 40 37.3101 39.2494 37.3101 38.3246C37.3101 37.3998 36.5595 36.6492 35.6347 36.6492H3.80205C2.87721 36.6492 2.12665 37.3998 2.12665 38.3246C2.12665 39.2494 2.87721 40 3.80205 40ZM36.4025 11.2252C37.3442 10.282 37.8733 9.00381 37.8733 7.67172C37.8733 6.3381 37.3442 5.05991 36.4025 4.11632C35.5562 3.2704 34.6029 2.31866 33.757 1.47273C32.8153 0.529561 31.5352 0 30.2035 0C28.8699 0 27.5917 0.529542 26.6481 1.47273L6.4265 21.6953C5.65723 22.4642 5.15989 23.4608 5.00576 24.5382L4.24845 29.836C4.09924 30.8797 4.45115 31.9317 5.19647 32.6789C5.94218 33.4246 6.99605 33.7746 8.03978 33.6258L13.3375 32.87C14.413 32.7159 15.4115 32.2166 16.1804 31.4478L36.4025 11.2252ZM24.4085 8.45073L29.4228 13.4654L13.8099 29.0782C13.5538 29.3344 13.2221 29.5004 12.8634 29.5524L7.5657 30.3078L8.32301 25.012C8.37312 24.6519 8.54065 24.3202 8.7972 24.0636L24.4085 8.45073ZM31.7919 11.0962L26.7773 6.08162L29.0189 3.84184C29.3323 3.52658 29.7597 3.35081 30.2036 3.35081C30.6475 3.35081 31.0731 3.52658 31.388 3.84184C32.2343 4.68777 33.1876 5.6395 34.0335 6.48544C34.3469 6.80033 34.5227 7.22591 34.5227 7.67172C34.5227 8.11562 34.3469 8.5412 34.0335 8.85608L31.7919 11.0962Z"
    fill="currentColor"
  />
</svg>
