<svg
  width="32"
  height="32"
  viewBox="0 0 32 32"
  fill="none"
  xmlns="http://www.w3.org/2000/svg"
>
  <path
    fill-rule="evenodd"
    clip-rule="evenodd"
    d="M3.04162 32H28.5077C29.2476 32 29.8481 31.3996 29.8481 30.6597C29.8481 29.9198 29.2476 29.3194 28.5077 29.3194H3.04162C2.30174 29.3194 1.70129 29.9198 1.70129 30.6597C1.70129 31.3996 2.30174 32 3.04162 32ZM29.122 8.98016C29.8753 8.22563 30.2986 7.20304 30.2986 6.13737C30.2986 5.07048 29.8753 4.04793 29.122 3.29306C28.4449 2.61632 27.6823 1.85493 27.0056 1.17818C26.2522 0.423649 25.2282 0 24.1628 0C23.0959 0 22.0733 0.423633 21.3185 1.17818L5.14117 17.3563C4.52576 17.9714 4.12789 18.7686 4.00458 19.6306L3.39874 23.8688C3.27937 24.7037 3.56089 25.5454 4.15715 26.1431C4.75372 26.7397 5.59681 27.0197 6.4318 26.9006L10.67 26.296C11.5304 26.1727 12.3292 25.7733 12.9443 25.1582L29.122 8.98016ZM19.5268 6.76059L23.5382 10.7723L11.0479 23.2626C10.843 23.4675 10.5776 23.6003 10.2907 23.6419L6.05254 24.2463L6.65838 20.0096C6.69847 19.7215 6.8325 19.4561 7.03774 19.2509L19.5268 6.76059ZM25.4335 8.87699L21.4218 4.86529L23.2151 3.07347C23.4658 2.82126 23.8077 2.68065 24.1629 2.68065C24.518 2.68065 24.8585 2.82126 25.1104 3.07347C25.7874 3.75021 26.55 4.5116 27.2268 5.18835C27.4775 5.44026 27.6181 5.78072 27.6181 6.13737C27.6181 6.4925 27.4775 6.83296 27.2268 7.08487L25.4335 8.87699Z"
    fill="currentColor"
  />
</svg>
