<svg
  width="24"
  height="24"
  viewBox="0 0 24 24"
  fill="none"
  xmlns="http://www.w3.org/2000/svg"
>
  <path
    d="M6.58754 11.6337C6.58755 11.5203 6.61019 11.4081 6.65413 11.3034C6.69807 11.1988 6.76246 11.1038 6.8436 11.0238C6.92476 10.9439 7.02104 10.8806 7.12696 10.8376C7.23288 10.7946 7.34633 10.7727 7.46081 10.7732L8.90868 10.7779C9.13952 10.7779 9.36091 10.8687 9.52414 11.0303C9.68738 11.1919 9.77909 11.4111 9.77909 11.6397V17.0599C9.94208 17.012 10.1514 16.961 10.3805 16.9076C10.5396 16.8706 10.6814 16.7814 10.7829 16.6546C10.8844 16.5277 10.9396 16.3707 10.9396 16.2088V9.48527C10.9396 9.25669 11.0313 9.03748 11.1945 8.87584C11.3577 8.7142 11.5791 8.62338 11.81 8.62333H13.2607C13.4916 8.62338 13.713 8.7142 13.8762 8.87584C14.0394 9.03748 14.1311 9.25669 14.1311 9.48527V15.7254C14.1311 15.7254 14.4944 15.5799 14.8482 15.432C14.9796 15.377 15.0917 15.2849 15.1706 15.1671C15.2495 15.0494 15.2917 14.9113 15.2918 14.77V7.33085C15.2918 7.10233 15.3835 6.88315 15.5467 6.72154C15.7098 6.55994 15.9312 6.46914 16.162 6.46909H17.6128C17.8436 6.46909 18.065 6.55987 18.2282 6.72149C18.3915 6.8831 18.4832 7.1023 18.4832 7.33085V13.4568C19.7409 12.5543 21.0155 11.469 22.027 10.1638C22.1738 9.97435 22.2709 9.75189 22.3097 9.51627C22.3484 9.28065 22.3277 9.03918 22.2493 8.81341C21.7811 7.47968 21.0369 6.25739 20.0642 5.22477C19.0915 4.19217 17.9118 3.37197 16.6005 2.81667C15.2893 2.26138 13.8754 1.98322 12.4493 1.99998C11.0233 2.01675 9.61645 2.32808 8.31891 2.91405C7.02136 3.50002 5.86165 4.34772 4.91399 5.40291C3.96633 6.45809 3.2516 7.69754 2.81554 9.04192C2.37948 10.3863 2.23168 11.806 2.38161 13.2101C2.53153 14.6143 2.97589 15.972 3.68623 17.1964C3.80997 17.4076 3.99202 17.5795 4.21099 17.6918C4.42996 17.8041 4.67675 17.8523 4.9224 17.8306C5.19681 17.8067 5.53846 17.7728 5.94468 17.7256C6.1215 17.7057 6.28477 17.6221 6.40334 17.4907C6.52194 17.3594 6.58755 17.1894 6.58771 17.0132L6.58754 11.6337Z"
    fill="currentColor"
  />
  <path
    d="M6.15881 20.061C7.67115 21.1612 9.45841 21.8217 11.3228 21.9692C13.1872 22.1166 15.0561 21.7455 16.7227 20.8967C18.3892 20.0478 19.7884 18.7546 20.7656 17.1599C21.7426 15.5652 22.2596 13.7313 22.2591 11.861C22.2591 11.6277 22.2482 11.3968 22.2327 11.1672C18.5288 16.6913 11.69 19.2738 6.15913 20.0602"
    fill="currentColor"
  />
</svg>
