<svg
  width="12"
  height="12"
  viewBox="0 0 12 12"
  fill="none"
  xmlns="http://www.w3.org/2000/svg"
>
  <path
    d="M3.2945 5.81671C3.29451 5.76004 3.30583 5.70394 3.3278 5.6516C3.34977 5.59928 3.38196 5.55177 3.42253 5.51179C3.46311 5.47181 3.51125 5.44017 3.56421 5.41866C3.61717 5.39716 3.6739 5.38623 3.73114 5.3865L4.45507 5.38883C4.57049 5.38883 4.68119 5.43423 4.7628 5.51504C4.84442 5.59584 4.89028 5.70544 4.89028 5.81972V8.52983C4.97177 8.50589 5.07644 8.48035 5.19098 8.45365C5.27053 8.43516 5.34144 8.39058 5.39219 8.32716C5.44293 8.26374 5.47054 8.1852 5.47052 8.10429V4.74251C5.47052 4.62822 5.51637 4.51862 5.59798 4.4378C5.67959 4.35698 5.79029 4.31157 5.90573 4.31154H6.63109C6.74652 4.31157 6.85722 4.35698 6.93883 4.4378C7.02044 4.51862 7.0663 4.62822 7.0663 4.74251V7.86257C7.0663 7.86257 7.24791 7.78981 7.42481 7.71588C7.49052 7.68837 7.5466 7.6423 7.58605 7.58344C7.6255 7.52458 7.64656 7.45552 7.64663 7.38488V3.66531C7.64663 3.55104 7.69246 3.44145 7.77406 3.36065C7.85566 3.27985 7.96633 3.23445 8.08174 3.23442H8.80711C8.92254 3.23442 9.03323 3.27981 9.11485 3.36063C9.19646 3.44143 9.24232 3.55103 9.24232 3.66531V6.72829C9.87119 6.27705 10.5085 5.73436 11.0142 5.08178C11.0876 4.98706 11.1362 4.87582 11.1556 4.75801C11.1749 4.64021 11.1646 4.51947 11.1254 4.40658C10.8913 3.73972 10.5192 3.12857 10.0328 2.61226C9.54647 2.09596 8.95661 1.68586 8.30099 1.40821C7.64537 1.13057 6.93843 0.991486 6.22539 0.999869C5.51236 1.00825 4.80896 1.16392 4.16019 1.4569C3.51141 1.74989 2.93156 2.17374 2.45773 2.70134C1.9839 3.22892 1.62653 3.84865 1.4085 4.52084C1.19047 5.19302 1.11657 5.90286 1.19154 6.60495C1.2665 7.30704 1.48868 7.98589 1.84385 8.59809C1.90572 8.70369 1.99674 8.78962 2.10623 8.84579C2.21571 8.90195 2.33911 8.92601 2.46193 8.91516C2.59914 8.90323 2.76996 8.88629 2.97307 8.86268C3.06148 8.85274 3.14312 8.81094 3.2024 8.74525C3.2617 8.67956 3.29451 8.59457 3.29459 8.50647L3.2945 5.81671Z"
    fill="currentColor"
  />
  <path
    d="M3.08014 10.0304C3.83631 10.5805 4.72994 10.9107 5.66214 10.9845C6.59436 11.0582 7.52879 10.8726 8.36207 10.4482C9.19535 10.0238 9.89494 9.37717 10.3835 8.57983C10.872 7.78249 11.1305 6.86552 11.1303 5.9304C11.1303 5.81371 11.1248 5.69827 11.1171 5.5835C9.26515 8.34553 5.84575 9.6368 3.0803 10.03"
    fill="currentColor"
  />
</svg>
