<svg>
  <symbol
    fill="none"
    xmlns="http://www.w3.org/2000/svg"
    viewBox="0 0 12 12"
    id="size-12"
  >
    <path
      d="M3.2945 5.81671C3.29451 5.76004 3.30583 5.70394 3.3278 5.6516C3.34977 5.59928 3.38196 5.55177 3.42253 5.51179C3.46311 5.47181 3.51125 5.44017 3.56421 5.41866C3.61717 5.39716 3.6739 5.38623 3.73114 5.3865L4.45507 5.38883C4.57049 5.38883 4.68119 5.43423 4.7628 5.51504C4.84442 5.59584 4.89028 5.70544 4.89028 5.81972V8.52983C4.97177 8.50589 5.07644 8.48035 5.19098 8.45365C5.27053 8.43516 5.34144 8.39058 5.39219 8.32716C5.44293 8.26374 5.47054 8.1852 5.47052 8.10429V4.74251C5.47052 4.62822 5.51637 4.51862 5.59798 4.4378C5.67959 4.35698 5.79029 4.31157 5.90573 4.31154H6.63109C6.74652 4.31157 6.85722 4.35698 6.93883 4.4378C7.02044 4.51862 7.0663 4.62822 7.0663 4.74251V7.86257C7.0663 7.86257 7.24791 7.78981 7.42481 7.71588C7.49052 7.68837 7.5466 7.6423 7.58605 7.58344C7.6255 7.52458 7.64656 7.45552 7.64663 7.38488V3.66531C7.64663 3.55104 7.69246 3.44145 7.77406 3.36065C7.85566 3.27985 7.96633 3.23445 8.08174 3.23442H8.80711C8.92254 3.23442 9.03323 3.27981 9.11485 3.36063C9.19646 3.44143 9.24232 3.55103 9.24232 3.66531V6.72829C9.87119 6.27705 10.5085 5.73436 11.0142 5.08178C11.0876 4.98706 11.1362 4.87582 11.1556 4.75801C11.1749 4.64021 11.1646 4.51947 11.1254 4.40658C10.8913 3.73972 10.5192 3.12857 10.0328 2.61226C9.54647 2.09596 8.95661 1.68586 8.30099 1.40821C7.64537 1.13057 6.93843 0.991486 6.22539 0.999869C5.51236 1.00825 4.80896 1.16392 4.16019 1.4569C3.51141 1.74989 2.93156 2.17374 2.45773 2.70134C1.9839 3.22892 1.62653 3.84865 1.4085 4.52084C1.19047 5.19302 1.11657 5.90286 1.19154 6.60495C1.2665 7.30704 1.48868 7.98589 1.84385 8.59809C1.90572 8.70369 1.99674 8.78962 2.10623 8.84579C2.21571 8.90195 2.33911 8.92601 2.46193 8.91516C2.59914 8.90323 2.76996 8.88629 2.97307 8.86268C3.06148 8.85274 3.14312 8.81094 3.2024 8.74525C3.2617 8.67956 3.29451 8.59457 3.29459 8.50647L3.2945 5.81671Z"
      fill="currentColor"
    />
    <path
      d="M3.08014 10.0304C3.83631 10.5805 4.72994 10.9107 5.66214 10.9845C6.59436 11.0582 7.52879 10.8726 8.36207 10.4482C9.19535 10.0238 9.89494 9.37717 10.3835 8.57983C10.872 7.78249 11.1305 6.86552 11.1303 5.9304C11.1303 5.81371 11.1248 5.69827 11.1171 5.5835C9.26515 8.34553 5.84575 9.6368 3.0803 10.03"
      fill="currentColor"
    />
  </symbol>

  <symbol
    fill="none"
    xmlns="http://www.w3.org/2000/svg"
    viewBox="0 0 16 16"
    id="size-16"
  >
    <path
      d="M4.39216 7.7557C4.39217 7.68014 4.40726 7.60533 4.43656 7.53555C4.46585 7.46578 4.50878 7.40244 4.56287 7.34914C4.61698 7.29583 4.68116 7.25364 4.75177 7.22497C4.82239 7.1963 4.89802 7.18172 4.97434 7.18208L5.93959 7.18519C6.09348 7.18519 6.24107 7.24573 6.34989 7.35346C6.45872 7.4612 6.51986 7.60733 6.51986 7.7597V11.3732C6.62852 11.3413 6.76808 11.3072 6.92079 11.2716C7.02687 11.247 7.12141 11.1875 7.18907 11.103C7.25673 11.0184 7.29354 10.9137 7.29352 10.8058V6.32343C7.29352 6.17105 7.35465 6.0249 7.46347 5.91714C7.57228 5.80939 7.71988 5.74884 7.87379 5.74881H8.84095C8.99485 5.74884 9.14245 5.80939 9.25126 5.91714C9.36008 6.0249 9.42122 6.17105 9.42122 6.32343V10.4835C9.42122 10.4835 9.66338 10.3865 9.89924 10.2879C9.98685 10.2512 10.0616 10.1898 10.1142 10.1113C10.1668 10.0329 10.1949 9.94077 10.195 9.84658V4.88716C10.195 4.73481 10.2561 4.58869 10.3649 4.48095C10.4737 4.37321 10.6213 4.31268 10.7751 4.31265H11.7423C11.8962 4.31265 12.0438 4.37317 12.1526 4.48092C12.2614 4.58865 12.3226 4.73478 12.3226 4.88716V8.97113C13.1611 8.36948 14.0108 7.64589 14.6851 6.77578C14.783 6.64949 14.8477 6.50118 14.8736 6.3441C14.8994 6.18702 14.8856 6.02604 14.8334 5.87553C14.5212 4.98637 14.0251 4.17151 13.3766 3.4831C12.7281 2.7947 11.9416 2.2479 11.0675 1.8777C10.1933 1.50751 9.25073 1.32206 8.30002 1.33324C7.34931 1.34442 6.41144 1.55197 5.54641 1.94262C4.68137 2.33326 3.90823 2.8984 3.27646 3.60186C2.64469 4.30531 2.1682 5.13161 1.87749 6.02786C1.58678 6.92411 1.48825 7.87057 1.58821 8.80668C1.68816 9.7428 1.98439 10.6479 2.45795 11.4642C2.54045 11.605 2.66182 11.7196 2.80779 11.7945C2.95377 11.8693 3.1183 11.9014 3.28207 11.887C3.465 11.8711 3.69278 11.8485 3.96359 11.817C4.08147 11.8037 4.19031 11.748 4.26936 11.6604C4.34843 11.5728 4.39217 11.4595 4.39227 11.342L4.39216 7.7557Z"
      fill="currentColor"
    />
    <path
      d="M4.10638 13.374C5.11461 14.1075 6.30612 14.5478 7.54906 14.6461C8.79201 14.7444 10.0379 14.497 11.149 13.9311C12.26 13.3652 13.1928 12.5031 13.8442 11.4399C14.4956 10.3768 14.8402 9.15419 14.8399 7.90736C14.8399 7.75177 14.8327 7.59785 14.8223 7.44482C12.3531 11.1275 7.79387 12.8492 4.1066 13.3734"
      fill="currentColor"
    />
  </symbol>

  <symbol
    fill="none"
    xmlns="http://www.w3.org/2000/svg"
    viewBox="0 0 24 24"
    id="size-24"
  >
    <path
      d="M6.58754 11.6337C6.58755 11.5203 6.61019 11.4081 6.65413 11.3034C6.69807 11.1988 6.76246 11.1038 6.8436 11.0238C6.92476 10.9439 7.02104 10.8806 7.12696 10.8376C7.23288 10.7946 7.34633 10.7727 7.46081 10.7732L8.90868 10.7779C9.13952 10.7779 9.36091 10.8687 9.52414 11.0303C9.68738 11.1919 9.77909 11.4111 9.77909 11.6397V17.0599C9.94208 17.012 10.1514 16.961 10.3805 16.9076C10.5396 16.8706 10.6814 16.7814 10.7829 16.6546C10.8844 16.5277 10.9396 16.3707 10.9396 16.2088V9.48527C10.9396 9.25669 11.0313 9.03748 11.1945 8.87584C11.3577 8.7142 11.5791 8.62338 11.81 8.62333H13.2607C13.4916 8.62338 13.713 8.7142 13.8762 8.87584C14.0394 9.03748 14.1311 9.25669 14.1311 9.48527V15.7254C14.1311 15.7254 14.4944 15.5799 14.8482 15.432C14.9796 15.377 15.0917 15.2849 15.1706 15.1671C15.2495 15.0494 15.2917 14.9113 15.2918 14.77V7.33085C15.2918 7.10233 15.3835 6.88315 15.5467 6.72154C15.7098 6.55994 15.9312 6.46914 16.162 6.46909H17.6128C17.8436 6.46909 18.065 6.55987 18.2282 6.72149C18.3915 6.8831 18.4832 7.1023 18.4832 7.33085V13.4568C19.7409 12.5543 21.0155 11.469 22.027 10.1638C22.1738 9.97435 22.2709 9.75189 22.3097 9.51627C22.3484 9.28065 22.3277 9.03918 22.2493 8.81341C21.7811 7.47968 21.0369 6.25739 20.0642 5.22477C19.0915 4.19217 17.9118 3.37197 16.6005 2.81667C15.2893 2.26138 13.8754 1.98322 12.4493 1.99998C11.0233 2.01675 9.61645 2.32808 8.31891 2.91405C7.02136 3.50002 5.86165 4.34772 4.91399 5.40291C3.96633 6.45809 3.2516 7.69754 2.81554 9.04192C2.37948 10.3863 2.23168 11.806 2.38161 13.2101C2.53153 14.6143 2.97589 15.972 3.68623 17.1964C3.80997 17.4076 3.99202 17.5795 4.21099 17.6918C4.42996 17.8041 4.67675 17.8523 4.9224 17.8306C5.19681 17.8067 5.53846 17.7728 5.94468 17.7256C6.1215 17.7057 6.28477 17.6221 6.40334 17.4907C6.52194 17.3594 6.58755 17.1894 6.58771 17.0132L6.58754 11.6337Z"
      fill="currentColor"
    />
    <path
      d="M6.15881 20.061C7.67115 21.1612 9.45841 21.8217 11.3228 21.9692C13.1872 22.1166 15.0561 21.7455 16.7227 20.8967C18.3892 20.0478 19.7884 18.7546 20.7656 17.1599C21.7426 15.5652 22.2596 13.7313 22.2591 11.861C22.2591 11.6277 22.2482 11.3968 22.2327 11.1672C18.5288 16.6913 11.69 19.2738 6.15913 20.0602"
      fill="currentColor"
    />
  </symbol>

  <symbol
    fill="none"
    xmlns="http://www.w3.org/2000/svg"
    viewBox="0 0 32 32"
    id="size-32"
  >
    <path
      d="M8.78285 15.5114C8.78288 15.3603 8.81306 15.2107 8.87165 15.0711C8.93024 14.9316 9.01609 14.8049 9.12428 14.6983C9.23249 14.5917 9.36086 14.5073 9.50208 14.4499C9.64331 14.3926 9.79458 14.3634 9.94722 14.3642L11.8777 14.3704C12.1855 14.3704 12.4807 14.4915 12.6983 14.7069C12.916 14.9224 13.0383 15.2147 13.0383 15.5194V22.7464C13.2556 22.6825 13.5347 22.6144 13.8401 22.5432C14.0523 22.4939 14.2413 22.375 14.3767 22.2059C14.512 22.0368 14.5856 21.8274 14.5856 21.6116V12.6469C14.5856 12.3421 14.7078 12.0498 14.9255 11.8343C15.1431 11.6188 15.4383 11.4977 15.7461 11.4976H17.6804C17.9882 11.4977 18.2834 11.6188 18.5011 11.8343C18.7187 12.0498 18.841 12.3421 18.841 12.6469V20.967C18.841 20.967 19.3253 20.773 19.797 20.5758C19.9722 20.5025 20.1218 20.3796 20.227 20.2227C20.3322 20.0657 20.3883 19.8815 20.3885 19.6932V9.77431C20.3885 9.46961 20.5108 9.17737 20.7283 8.9619C20.9459 8.74642 21.2411 8.62536 21.5488 8.62529H23.4832C23.791 8.62529 24.0861 8.74633 24.3038 8.96183C24.5214 9.1773 24.6437 9.46957 24.6437 9.77431V17.9423C26.3207 16.739 28.0202 15.2918 29.3688 13.5516C29.5646 13.299 29.694 13.0024 29.7457 12.6882C29.7974 12.374 29.7697 12.0521 29.6652 11.7511C29.0409 9.97274 28.0487 8.34302 26.7517 6.9662C25.4548 5.5894 23.8818 4.4958 22.1335 3.7554C20.3852 3.01501 18.5 2.64412 16.5986 2.66648C14.6972 2.68884 12.8214 3.10395 11.0914 3.88524C9.36128 4.66653 7.815 5.7968 6.55146 7.20372C5.28792 8.61063 4.33494 10.2632 3.75352 12.0557C3.1721 13.8482 2.97504 15.7411 3.17495 17.6134C3.37485 19.4856 3.96732 21.2959 4.91444 22.9284C5.07943 23.21 5.32217 23.4392 5.61412 23.5889C5.90608 23.7387 6.23514 23.8029 6.56267 23.7739C6.92855 23.7421 7.38409 23.6969 7.92571 23.634C8.16148 23.6075 8.37916 23.496 8.53726 23.3208C8.69539 23.1457 8.78288 22.919 8.78308 22.6841L8.78285 15.5114Z"
      fill="currentColor"
    />
    <path
      d="M8.21124 26.748C10.2277 28.2149 12.6107 29.0956 15.0966 29.2923C17.5825 29.4887 20.0743 28.994 22.2964 27.8622C24.5185 26.7304 26.384 25.0061 27.687 22.8799C28.9897 20.7536 29.6789 18.3084 29.6782 15.8147C29.6782 15.5035 29.6638 15.1957 29.6431 14.8896C24.7046 22.2551 15.5862 25.6985 8.21166 26.7469"
      fill="currentColor"
    />
  </symbol>

  <symbol
    fill="none"
    xmlns="http://www.w3.org/2000/svg"
    viewBox="0 0 40 40"
    id="size-40"
  >
    <path
      d="M10.9782 19.3894C10.9782 19.2005 11.0159 19.0134 11.0892 18.839C11.1624 18.6646 11.2697 18.5062 11.4049 18.373C11.5402 18.2397 11.7007 18.1342 11.8772 18.0625C12.0537 17.9909 12.2428 17.9544 12.4336 17.9553L14.8467 17.9631C15.2315 17.9631 15.6005 18.1144 15.8725 18.3838C16.1446 18.6531 16.2974 19.0185 16.2974 19.3994V28.4331C16.5691 28.3533 16.918 28.2682 17.2998 28.1792C17.5649 28.1175 17.8013 27.9689 17.9705 27.7575C18.1396 27.5461 18.2316 27.2843 18.2316 27.0146V15.8087C18.2316 15.4277 18.3844 15.0624 18.6564 14.793C18.9285 14.5236 19.2975 14.3722 19.6823 14.3721H22.1001C22.4849 14.3722 22.8539 14.5236 23.1259 14.793C23.398 15.0624 23.5508 15.4277 23.5508 15.8087V26.2089C23.5508 26.2089 24.1562 25.9664 24.7459 25.7199C24.9649 25.6282 25.1518 25.4747 25.2833 25.2785C25.4148 25.0823 25.485 24.852 25.4853 24.6166V12.218C25.4853 11.8371 25.6381 11.4718 25.91 11.2025C26.182 10.9332 26.5509 10.7818 26.9356 10.7817H29.3536C29.7383 10.7817 30.1073 10.933 30.3793 11.2024C30.6514 11.4718 30.8042 11.8371 30.8042 12.218V22.428C32.9005 20.9238 35.0248 19.1149 36.7106 16.9396C36.9553 16.6238 37.1171 16.2531 37.1817 15.8604C37.2463 15.4677 37.2118 15.0652 37.0812 14.6889C36.3008 12.466 35.0605 10.4289 33.4393 8.70787C31.8181 6.98687 29.8519 5.61987 27.6665 4.69438C25.4811 3.76889 23.1246 3.30528 20.7478 3.33322C18.3711 3.36117 16.0264 3.88005 13.8638 4.85667C11.7012 5.83328 9.76835 7.24612 8.18893 9.00478C6.6095 10.7634 5.41828 12.8291 4.69151 15.0698C3.96473 17.3104 3.71841 19.6765 3.96829 22.0168C4.21817 24.3571 4.95875 26.62 6.14265 28.6606C6.34889 29.0126 6.65231 29.2991 7.01726 29.4863C7.3822 29.6735 7.79353 29.7537 8.20294 29.7175C8.66029 29.6777 9.22971 29.6213 9.90674 29.5426C10.2015 29.5095 10.4736 29.3701 10.6712 29.1512C10.8688 28.9322 10.9782 28.6489 10.9785 28.3552L10.9782 19.3894Z"
      fill="currentColor"
    />
    <path
      d="M10.2637 33.435C12.7842 35.2687 15.763 36.3694 18.8704 36.6153C21.9777 36.8609 25.0925 36.2425 27.8701 34.8278C30.6477 33.413 32.9797 31.2576 34.6083 28.5998C36.2367 25.942 37.0982 22.8855 37.0974 19.7684C37.0974 19.3794 37.0794 18.9946 37.0535 18.6121C30.8804 27.8188 19.4824 32.1231 10.2642 33.4336"
      fill="currentColor"
    />
  </symbol>
</svg>
