<svg
  width="32"
  height="32"
  viewBox="0 0 32 32"
  fill="none"
  xmlns="http://www.w3.org/2000/svg"
>
  <path
    d="M8.78285 15.5114C8.78288 15.3603 8.81306 15.2107 8.87165 15.0711C8.93024 14.9316 9.01609 14.8049 9.12428 14.6983C9.23249 14.5917 9.36086 14.5073 9.50208 14.4499C9.64331 14.3926 9.79458 14.3634 9.94722 14.3642L11.8777 14.3704C12.1855 14.3704 12.4807 14.4915 12.6983 14.7069C12.916 14.9224 13.0383 15.2147 13.0383 15.5194V22.7464C13.2556 22.6825 13.5347 22.6144 13.8401 22.5432C14.0523 22.4939 14.2413 22.375 14.3767 22.2059C14.512 22.0368 14.5856 21.8274 14.5856 21.6116V12.6469C14.5856 12.3421 14.7078 12.0498 14.9255 11.8343C15.1431 11.6188 15.4383 11.4977 15.7461 11.4976H17.6804C17.9882 11.4977 18.2834 11.6188 18.5011 11.8343C18.7187 12.0498 18.841 12.3421 18.841 12.6469V20.967C18.841 20.967 19.3253 20.773 19.797 20.5758C19.9722 20.5025 20.1218 20.3796 20.227 20.2227C20.3322 20.0657 20.3883 19.8815 20.3885 19.6932V9.77431C20.3885 9.46961 20.5108 9.17737 20.7283 8.9619C20.9459 8.74642 21.2411 8.62536 21.5488 8.62529H23.4832C23.791 8.62529 24.0861 8.74633 24.3038 8.96183C24.5214 9.1773 24.6437 9.46957 24.6437 9.77431V17.9423C26.3207 16.739 28.0202 15.2918 29.3688 13.5516C29.5646 13.299 29.694 13.0024 29.7457 12.6882C29.7974 12.374 29.7697 12.0521 29.6652 11.7511C29.0409 9.97274 28.0487 8.34302 26.7517 6.9662C25.4548 5.5894 23.8818 4.4958 22.1335 3.7554C20.3852 3.01501 18.5 2.64412 16.5986 2.66648C14.6972 2.68884 12.8214 3.10395 11.0914 3.88524C9.36128 4.66653 7.815 5.7968 6.55146 7.20372C5.28792 8.61063 4.33494 10.2632 3.75352 12.0557C3.1721 13.8482 2.97504 15.7411 3.17495 17.6134C3.37485 19.4856 3.96732 21.2959 4.91444 22.9284C5.07943 23.21 5.32217 23.4392 5.61412 23.5889C5.90608 23.7387 6.23514 23.8029 6.56267 23.7739C6.92855 23.7421 7.38409 23.6969 7.92571 23.634C8.16148 23.6075 8.37916 23.496 8.53726 23.3208C8.69539 23.1457 8.78288 22.919 8.78308 22.6841L8.78285 15.5114Z"
    fill="currentColor"
  />
  <path
    d="M8.21124 26.748C10.2277 28.2149 12.6107 29.0956 15.0966 29.2923C17.5825 29.4887 20.0743 28.994 22.2964 27.8622C24.5185 26.7304 26.384 25.0061 27.687 22.8799C28.9897 20.7536 29.6789 18.3084 29.6782 15.8147C29.6782 15.5035 29.6638 15.1957 29.6431 14.8896C24.7046 22.2551 15.5862 25.6985 8.21166 26.7469"
    fill="currentColor"
  />
</svg>
