<svg
  width="40"
  height="40"
  viewBox="0 0 40 40"
  fill="none"
  xmlns="http://www.w3.org/2000/svg"
>
  <path
    d="M10.9782 19.3894C10.9782 19.2005 11.0159 19.0134 11.0892 18.839C11.1624 18.6646 11.2697 18.5062 11.4049 18.373C11.5402 18.2397 11.7007 18.1342 11.8772 18.0625C12.0537 17.9909 12.2428 17.9544 12.4336 17.9553L14.8467 17.9631C15.2315 17.9631 15.6005 18.1144 15.8725 18.3838C16.1446 18.6531 16.2974 19.0185 16.2974 19.3994V28.4331C16.5691 28.3533 16.918 28.2682 17.2998 28.1792C17.5649 28.1175 17.8013 27.9689 17.9705 27.7575C18.1396 27.5461 18.2316 27.2843 18.2316 27.0146V15.8087C18.2316 15.4277 18.3844 15.0624 18.6564 14.793C18.9285 14.5236 19.2975 14.3722 19.6823 14.3721H22.1001C22.4849 14.3722 22.8539 14.5236 23.1259 14.793C23.398 15.0624 23.5508 15.4277 23.5508 15.8087V26.2089C23.5508 26.2089 24.1562 25.9664 24.7459 25.7199C24.9649 25.6282 25.1518 25.4747 25.2833 25.2785C25.4148 25.0823 25.485 24.852 25.4853 24.6166V12.218C25.4853 11.8371 25.6381 11.4718 25.91 11.2025C26.182 10.9332 26.5509 10.7818 26.9356 10.7817H29.3536C29.7383 10.7817 30.1073 10.933 30.3793 11.2024C30.6514 11.4718 30.8042 11.8371 30.8042 12.218V22.428C32.9005 20.9238 35.0248 19.1149 36.7106 16.9396C36.9553 16.6238 37.1171 16.2531 37.1817 15.8604C37.2463 15.4677 37.2118 15.0652 37.0812 14.6889C36.3008 12.466 35.0605 10.4289 33.4393 8.70787C31.8181 6.98687 29.8519 5.61987 27.6665 4.69438C25.4811 3.76889 23.1246 3.30528 20.7478 3.33322C18.3711 3.36117 16.0264 3.88005 13.8638 4.85667C11.7012 5.83328 9.76835 7.24612 8.18893 9.00478C6.6095 10.7634 5.41828 12.8291 4.69151 15.0698C3.96473 17.3104 3.71841 19.6765 3.96829 22.0168C4.21817 24.3571 4.95875 26.62 6.14265 28.6606C6.34889 29.0126 6.65231 29.2991 7.01726 29.4863C7.3822 29.6735 7.79353 29.7537 8.20294 29.7175C8.66029 29.6777 9.22971 29.6213 9.90674 29.5426C10.2015 29.5095 10.4736 29.3701 10.6712 29.1512C10.8688 28.9322 10.9782 28.6489 10.9785 28.3552L10.9782 19.3894Z"
    fill="currentColor"
  />
  <path
    d="M10.2637 33.435C12.7842 35.2687 15.763 36.3694 18.8704 36.6153C21.9777 36.8609 25.0925 36.2425 27.8701 34.8278C30.6477 33.413 32.9797 31.2576 34.6083 28.5998C36.2367 25.942 37.0982 22.8855 37.0974 19.7684C37.0974 19.3794 37.0794 18.9946 37.0535 18.6121C30.8804 27.8188 19.4824 32.1231 10.2642 33.4336"
    fill="currentColor"
  />
</svg>
