<svg
  width="16"
  height="16"
  viewBox="0 0 16 16"
  fill="none"
  xmlns="http://www.w3.org/2000/svg"
>
  <path
    d="M4.39216 7.7557C4.39217 7.68014 4.40726 7.60533 4.43656 7.53555C4.46585 7.46578 4.50878 7.40244 4.56287 7.34914C4.61698 7.29583 4.68116 7.25364 4.75177 7.22497C4.82239 7.1963 4.89802 7.18172 4.97434 7.18208L5.93959 7.18519C6.09348 7.18519 6.24107 7.24573 6.34989 7.35346C6.45872 7.4612 6.51986 7.60733 6.51986 7.7597V11.3732C6.62852 11.3413 6.76808 11.3072 6.92079 11.2716C7.02687 11.247 7.12141 11.1875 7.18907 11.103C7.25673 11.0184 7.29354 10.9137 7.29352 10.8058V6.32343C7.29352 6.17105 7.35465 6.0249 7.46347 5.91714C7.57228 5.80939 7.71988 5.74884 7.87379 5.74881H8.84095C8.99485 5.74884 9.14245 5.80939 9.25126 5.91714C9.36008 6.0249 9.42122 6.17105 9.42122 6.32343V10.4835C9.42122 10.4835 9.66338 10.3865 9.89924 10.2879C9.98685 10.2512 10.0616 10.1898 10.1142 10.1113C10.1668 10.0329 10.1949 9.94077 10.195 9.84658V4.88716C10.195 4.73481 10.2561 4.58869 10.3649 4.48095C10.4737 4.37321 10.6213 4.31268 10.7751 4.31265H11.7423C11.8962 4.31265 12.0438 4.37317 12.1526 4.48092C12.2614 4.58865 12.3226 4.73478 12.3226 4.88716V8.97113C13.1611 8.36948 14.0108 7.64589 14.6851 6.77578C14.783 6.64949 14.8477 6.50118 14.8736 6.3441C14.8994 6.18702 14.8856 6.02604 14.8334 5.87553C14.5212 4.98637 14.0251 4.17151 13.3766 3.4831C12.7281 2.7947 11.9416 2.2479 11.0675 1.8777C10.1933 1.50751 9.25073 1.32206 8.30002 1.33324C7.34931 1.34442 6.41144 1.55197 5.54641 1.94262C4.68137 2.33326 3.90823 2.8984 3.27646 3.60186C2.64469 4.30531 2.1682 5.13161 1.87749 6.02786C1.58678 6.92411 1.48825 7.87057 1.58821 8.80668C1.68816 9.7428 1.98439 10.6479 2.45795 11.4642C2.54045 11.605 2.66182 11.7196 2.80779 11.7945C2.95377 11.8693 3.1183 11.9014 3.28207 11.887C3.465 11.8711 3.69278 11.8485 3.96359 11.817C4.08147 11.8037 4.19031 11.748 4.26936 11.6604C4.34843 11.5728 4.39217 11.4595 4.39227 11.342L4.39216 7.7557Z"
    fill="currentColor"
  />
  <path
    d="M4.10638 13.374C5.11461 14.1075 6.30612 14.5478 7.54906 14.6461C8.79201 14.7444 10.0379 14.497 11.149 13.9311C12.26 13.3652 13.1928 12.5031 13.8442 11.4399C14.4956 10.3768 14.8402 9.15419 14.8399 7.90736C14.8399 7.75177 14.8327 7.59785 14.8223 7.44482C12.3531 11.1275 7.79387 12.8492 4.1066 13.3734"
    fill="currentColor"
  />
</svg>
