<svg>
  <symbol
    fill="none"
    xmlns="http://www.w3.org/2000/svg"
    viewBox="0 0 12 12"
    id="size-12"
  >
    <path
      d="M1.4375 3C1.4375 2.68934 1.68934 2.4375 2 2.4375H10C10.3107 2.4375 10.5625 2.68934 10.5625 3C10.5625 3.31066 10.3107 3.5625 10 3.5625H2C1.68934 3.5625 1.4375 3.31066 1.4375 3Z"
      fill="currentColor"
    />
    <path
      d="M1.4375 5.75006C1.4375 5.4394 1.68934 5.18756 2 5.18756H10C10.3107 5.18756 10.5625 5.4394 10.5625 5.75006C10.5625 6.06072 10.3107 6.31256 10 6.31256H2C1.68934 6.31256 1.4375 6.06072 1.4375 5.75006Z"
      fill="currentColor"
    />
    <path
      d="M2 7.93744C1.68934 7.93744 1.4375 8.18928 1.4375 8.49994C1.4375 8.8106 1.68934 9.06244 2 9.06244H10C10.3107 9.06244 10.5625 8.8106 10.5625 8.49994C10.5625 8.18928 10.3107 7.93744 10 7.93744H2Z"
      fill="currentColor"
    />
  </symbol>

  <symbol
    fill="none"
    xmlns="http://www.w3.org/2000/svg"
    viewBox="0 0 16 16"
    id="size-16"
  >
    <path
      d="M1.91663 4C1.91663 3.58579 2.25241 3.25 2.66663 3.25H13.3333C13.7475 3.25 14.0833 3.58579 14.0833 4C14.0833 4.41421 13.7475 4.75 13.3333 4.75H2.66663C2.25241 4.75 1.91663 4.41421 1.91663 4Z"
      fill="currentColor"
    />
    <path
      d="M1.91663 7.66675C1.91663 7.25253 2.25241 6.91675 2.66663 6.91675H13.3333C13.7475 6.91675 14.0833 7.25253 14.0833 7.66675C14.0833 8.08096 13.7475 8.41675 13.3333 8.41675H2.66663C2.25241 8.41675 1.91663 8.08096 1.91663 7.66675Z"
      fill="currentColor"
    />
    <path
      d="M2.66663 10.5833C2.25241 10.5833 1.91663 10.919 1.91663 11.3333C1.91663 11.7475 2.25241 12.0833 2.66663 12.0833H13.3333C13.7475 12.0833 14.0833 11.7475 14.0833 11.3333C14.0833 10.919 13.7475 10.5833 13.3333 10.5833H2.66663Z"
      fill="currentColor"
    />
  </symbol>

  <symbol
    fill="none"
    xmlns="http://www.w3.org/2000/svg"
    viewBox="0 0 24 24"
    id="size-24"
  >
    <path
      d="M3.25 6C3.25 5.58579 3.58579 5.25 4 5.25H20C20.4142 5.25 20.75 5.58579 20.75 6C20.75 6.41421 20.4142 6.75 20 6.75H4C3.58579 6.75 3.25 6.41421 3.25 6Z"
      fill="currentColor"
    />
    <path
      d="M3.25 11.5C3.25 11.0858 3.58579 10.75 4 10.75H20C20.4142 10.75 20.75 11.0858 20.75 11.5C20.75 11.9142 20.4142 12.25 20 12.25H4C3.58579 12.25 3.25 11.9142 3.25 11.5Z"
      fill="currentColor"
    />
    <path
      d="M4 16.25C3.58579 16.25 3.25 16.5858 3.25 17C3.25 17.4142 3.58579 17.75 4 17.75H20C20.4142 17.75 20.75 17.4142 20.75 17C20.75 16.5858 20.4142 16.25 20 16.25H4Z"
      fill="currentColor"
    />
  </symbol>

  <symbol
    fill="none"
    xmlns="http://www.w3.org/2000/svg"
    viewBox="0 0 32 32"
    id="size-32"
  >
    <path
      d="M4.33337 8C4.33337 7.44772 4.78109 7 5.33337 7H26.6667C27.219 7 27.6667 7.44772 27.6667 8C27.6667 8.55228 27.219 9 26.6667 9H5.33337C4.78109 9 4.33337 8.55228 4.33337 8Z"
      fill="currentColor"
    />
    <path
      d="M4.33337 15.3333C4.33337 14.781 4.78109 14.3333 5.33337 14.3333H26.6667C27.219 14.3333 27.6667 14.781 27.6667 15.3333C27.6667 15.8856 27.219 16.3333 26.6667 16.3333H5.33337C4.78109 16.3333 4.33337 15.8856 4.33337 15.3333Z"
      fill="currentColor"
    />
    <path
      d="M4.33337 22.6667C4.33337 22.1144 4.78109 21.6667 5.33337 21.6667H26.6667C27.219 21.6667 27.6667 22.1144 27.6667 22.6667C27.6667 23.219 27.219 23.6667 26.6667 23.6667H5.33337C4.78109 23.6667 4.33337 23.219 4.33337 22.6667Z"
      fill="currentColor"
    />
  </symbol>

  <symbol
    fill="none"
    xmlns="http://www.w3.org/2000/svg"
    viewBox="0 0 40 40"
    id="size-40"
  >
    <path
      d="M5.41663 10C5.41663 9.30964 5.97627 8.75 6.66663 8.75H33.3333C34.0236 8.75 34.5833 9.30964 34.5833 10C34.5833 10.6904 34.0236 11.25 33.3333 11.25H6.66663C5.97627 11.25 5.41663 10.6904 5.41663 10Z"
      fill="currentColor"
    />
    <path
      d="M5.41663 19.1667C5.41663 18.4763 5.97627 17.9167 6.66663 17.9167H33.3333C34.0236 17.9167 34.5833 18.4763 34.5833 19.1667C34.5833 19.857 34.0236 20.4167 33.3333 20.4167H6.66663C5.97627 20.4167 5.41663 19.857 5.41663 19.1667Z"
      fill="currentColor"
    />
    <path
      d="M5.41663 28.3333C5.41663 27.643 5.97627 27.0833 6.66663 27.0833H33.3333C34.0236 27.0833 34.5833 27.643 34.5833 28.3333C34.5833 29.0237 34.0236 29.5833 33.3333 29.5833H6.66663C5.97627 29.5833 5.41663 29.0237 5.41663 28.3333Z"
      fill="currentColor"
    />
  </symbol>
</svg>
