<svg
  width="16"
  height="16"
  viewBox="0 0 16 16"
  fill="none"
  xmlns="http://www.w3.org/2000/svg"
>
  <path
    d="M1.91663 4C1.91663 3.58579 2.25241 3.25 2.66663 3.25H13.3333C13.7475 3.25 14.0833 3.58579 14.0833 4C14.0833 4.41421 13.7475 4.75 13.3333 4.75H2.66663C2.25241 4.75 1.91663 4.41421 1.91663 4Z"
    fill="currentColor"
  />
  <path
    d="M1.91663 7.66675C1.91663 7.25253 2.25241 6.91675 2.66663 6.91675H13.3333C13.7475 6.91675 14.0833 7.25253 14.0833 7.66675C14.0833 8.08096 13.7475 8.41675 13.3333 8.41675H2.66663C2.25241 8.41675 1.91663 8.08096 1.91663 7.66675Z"
    fill="currentColor"
  />
  <path
    d="M2.66663 10.5833C2.25241 10.5833 1.91663 10.919 1.91663 11.3333C1.91663 11.7475 2.25241 12.0833 2.66663 12.0833H13.3333C13.7475 12.0833 14.0833 11.7475 14.0833 11.3333C14.0833 10.919 13.7475 10.5833 13.3333 10.5833H2.66663Z"
    fill="currentColor"
  />
</svg>
