<svg
  width="40"
  height="40"
  viewBox="0 0 40 40"
  fill="none"
  xmlns="http://www.w3.org/2000/svg"
>
  <path
    d="M5.41663 10C5.41663 9.30964 5.97627 8.75 6.66663 8.75H33.3333C34.0236 8.75 34.5833 9.30964 34.5833 10C34.5833 10.6904 34.0236 11.25 33.3333 11.25H6.66663C5.97627 11.25 5.41663 10.6904 5.41663 10Z"
    fill="currentColor"
  />
  <path
    d="M5.41663 19.1667C5.41663 18.4763 5.97627 17.9167 6.66663 17.9167H33.3333C34.0236 17.9167 34.5833 18.4763 34.5833 19.1667C34.5833 19.857 34.0236 20.4167 33.3333 20.4167H6.66663C5.97627 20.4167 5.41663 19.857 5.41663 19.1667Z"
    fill="currentColor"
  />
  <path
    d="M5.41663 28.3333C5.41663 27.643 5.97627 27.0833 6.66663 27.0833H33.3333C34.0236 27.0833 34.5833 27.643 34.5833 28.3333C34.5833 29.0237 34.0236 29.5833 33.3333 29.5833H6.66663C5.97627 29.5833 5.41663 29.0237 5.41663 28.3333Z"
    fill="currentColor"
  />
</svg>
