<svg
  width="12"
  height="12"
  viewBox="0 0 12 12"
  fill="none"
  xmlns="http://www.w3.org/2000/svg"
>
  <path
    d="M1.4375 3C1.4375 2.68934 1.68934 2.4375 2 2.4375H10C10.3107 2.4375 10.5625 2.68934 10.5625 3C10.5625 3.31066 10.3107 3.5625 10 3.5625H2C1.68934 3.5625 1.4375 3.31066 1.4375 3Z"
    fill="currentColor"
  />
  <path
    d="M1.4375 5.75006C1.4375 5.4394 1.68934 5.18756 2 5.18756H10C10.3107 5.18756 10.5625 5.4394 10.5625 5.75006C10.5625 6.06072 10.3107 6.31256 10 6.31256H2C1.68934 6.31256 1.4375 6.06072 1.4375 5.75006Z"
    fill="currentColor"
  />
  <path
    d="M2 7.93744C1.68934 7.93744 1.4375 8.18928 1.4375 8.49994C1.4375 8.8106 1.68934 9.06244 2 9.06244H10C10.3107 9.06244 10.5625 8.8106 10.5625 8.49994C10.5625 8.18928 10.3107 7.93744 10 7.93744H2Z"
    fill="currentColor"
  />
</svg>
