<svg
  width="32"
  height="32"
  viewBox="0 0 32 32"
  fill="none"
  xmlns="http://www.w3.org/2000/svg"
>
  <path
    d="M4.33337 8C4.33337 7.44772 4.78109 7 5.33337 7H26.6667C27.219 7 27.6667 7.44772 27.6667 8C27.6667 8.55228 27.219 9 26.6667 9H5.33337C4.78109 9 4.33337 8.55228 4.33337 8Z"
    fill="currentColor"
  />
  <path
    d="M4.33337 15.3333C4.33337 14.781 4.78109 14.3333 5.33337 14.3333H26.6667C27.219 14.3333 27.6667 14.781 27.6667 15.3333C27.6667 15.8856 27.219 16.3333 26.6667 16.3333H5.33337C4.78109 16.3333 4.33337 15.8856 4.33337 15.3333Z"
    fill="currentColor"
  />
  <path
    d="M4.33337 22.6667C4.33337 22.1144 4.78109 21.6667 5.33337 21.6667H26.6667C27.219 21.6667 27.6667 22.1144 27.6667 22.6667C27.6667 23.219 27.219 23.6667 26.6667 23.6667H5.33337C4.78109 23.6667 4.33337 23.219 4.33337 22.6667Z"
    fill="currentColor"
  />
</svg>
