<svg
  width="24"
  height="24"
  viewBox="0 0 24 24"
  fill="none"
  xmlns="http://www.w3.org/2000/svg"
>
  <path
    d="M3.25 6C3.25 5.58579 3.58579 5.25 4 5.25H20C20.4142 5.25 20.75 5.58579 20.75 6C20.75 6.41421 20.4142 6.75 20 6.75H4C3.58579 6.75 3.25 6.41421 3.25 6Z"
    fill="currentColor"
  />
  <path
    d="M3.25 11.5C3.25 11.0858 3.58579 10.75 4 10.75H20C20.4142 10.75 20.75 11.0858 20.75 11.5C20.75 11.9142 20.4142 12.25 20 12.25H4C3.58579 12.25 3.25 11.9142 3.25 11.5Z"
    fill="currentColor"
  />
  <path
    d="M4 16.25C3.58579 16.25 3.25 16.5858 3.25 17C3.25 17.4142 3.58579 17.75 4 17.75H20C20.4142 17.75 20.75 17.4142 20.75 17C20.75 16.5858 20.4142 16.25 20 16.25H4Z"
    fill="currentColor"
  />
</svg>
