<svg
  width="40"
  height="40"
  viewBox="0 0 40 40"
  fill="none"
  xmlns="http://www.w3.org/2000/svg"
>
  <path
    fill-rule="evenodd"
    clip-rule="evenodd"
    d="M20 0C8.96491 0 0 8.96575 0 20C0 31.0343 8.96575 40 20 40C31.0343 40 40 31.0343 40 20C40 8.96575 31.0343 0 20 0ZM20 36.6904C10.7587 36.6904 3.31044 29.242 3.31044 20.0008C3.31044 10.7597 10.7588 3.31128 20 3.31128C29.2412 3.31128 36.6896 10.7597 36.6896 20.0008C36.6896 29.242 29.2412 36.6904 20 36.6904Z"
    fill="currentColor"
  />
  <path
    fill-rule="evenodd"
    clip-rule="evenodd"
    d="M20.1382 14.4832C19.1725 14.4832 18.3452 15.3109 18.3452 16.2762L18.3449 31.0355C18.3449 32.0011 19.1725 32.8284 20.1378 32.8284C21.1035 32.8284 21.9308 32.0008 21.9308 31.0355L21.9311 16.4144C21.9311 15.311 21.1035 14.4832 20.1382 14.4832Z"
    fill="currentColor"
  />
  <path
    fill-rule="evenodd"
    clip-rule="evenodd"
    d="M21.7929 9.10326C21.7929 10.0935 20.9902 10.8962 20 10.8962C19.0098 10.8962 18.207 10.0935 18.207 9.10326C18.207 8.11306 19.0098 7.30995 20 7.30995C20.9902 7.30995 21.7929 8.11304 21.7929 9.10326Z"
    fill="currentColor"
  />
</svg>
