<svg>
  <symbol
    fill="none"
    xmlns="http://www.w3.org/2000/svg"
    viewBox="0 0 12 12"
    id="size-12"
  >
    <path
      d="M6.75 8.24988C6.75 8.69988 6.45 8.99988 6 8.99988C5.55 8.99988 5.25 8.69988 5.25 8.24988V5.99988C5.25 5.54988 5.55 5.24988 6 5.24988C6.45 5.24988 6.75 5.54988 6.75 5.99988V8.24988ZM6 4.49988C5.55 4.49988 5.25 4.19988 5.25 3.74988C5.25 3.29988 5.55 2.99988 6 2.99988C6.45 2.99988 6.75 3.29988 6.75 3.74988C6.75 4.19988 6.45 4.49988 6 4.49988Z"
      fill="currentColor"
    />
    <path
      d="M6 12C2.7 12 0 9.3 0 6C0 2.7 2.7 0 6 0C9.3 0 12 2.7 12 6C12 9.3 9.3 12 6 12ZM6 1.5C3.525 1.5 1.5 3.525 1.5 6C1.5 8.475 3.525 10.5 6 10.5C8.475 10.5 10.5 8.475 10.5 6C10.5 3.525 8.475 1.5 6 1.5Z"
      fill="currentColor"
    />
  </symbol>

  <symbol
    fill="none"
    xmlns="http://www.w3.org/2000/svg"
    viewBox="0 0 16 16"
    id="size-16"
  >
    <path
      d="M9 10.9998C9 11.5998 8.6 11.9998 8 11.9998C7.4 11.9998 7 11.5998 7 10.9998V7.99984C7 7.39984 7.4 6.99984 8 6.99984C8.6 6.99984 9 7.39984 9 7.99984V10.9998ZM8 5.99984C7.4 5.99984 7 5.59984 7 4.99984C7 4.39984 7.4 3.99984 8 3.99984C8.6 3.99984 9 4.39984 9 4.99984C9 5.59984 8.6 5.99984 8 5.99984Z"
      fill="currentColor"
    />
    <path
      d="M8 16C3.6 16 0 12.4 0 8C0 3.6 3.6 0 8 0C12.4 0 16 3.6 16 8C16 12.4 12.4 16 8 16ZM8 2C4.7 2 2 4.7 2 8C2 11.3 4.7 14 8 14C11.3 14 14 11.3 14 8C14 4.7 11.3 2 8 2Z"
      fill="currentColor"
    />
  </symbol>

  <symbol
    fill="none"
    xmlns="http://www.w3.org/2000/svg"
    viewBox="0 0 24 24"
    id="size-24"
  >
    <path
      fill-rule="evenodd"
      clip-rule="evenodd"
      d="M12 0C5.37895 0 0 5.37945 0 12C0 18.6206 5.37945 24 12 24C18.6206 24 24 18.6206 24 12C24 5.37945 18.6206 0 12 0ZM12 22.0142C6.45524 22.0142 1.98627 17.5452 1.98627 12.0005C1.98627 6.45579 6.45529 1.98677 12 1.98677C17.5447 1.98677 22.0137 6.45579 22.0137 12.0005C22.0137 17.5452 17.5447 22.0142 12 22.0142Z"
      fill="currentColor"
    />
    <path
      fill-rule="evenodd"
      clip-rule="evenodd"
      d="M12.0829 8.68996C11.5035 8.68996 11.0071 9.18655 11.0071 9.76575L11.0069 18.6213C11.0069 19.2007 11.5035 19.6971 12.0827 19.6971C12.6621 19.6971 13.1585 19.2005 13.1585 18.6213L13.1587 9.84866C13.1587 9.18661 12.6621 8.68996 12.0829 8.68996Z"
      fill="currentColor"
    />
    <path
      fill-rule="evenodd"
      clip-rule="evenodd"
      d="M13.0758 5.46197C13.0758 6.05609 12.5941 6.53776 12 6.53776C11.4059 6.53776 10.9242 6.0561 10.9242 5.46197C10.9242 4.86785 11.4059 4.38598 12 4.38598C12.5941 4.38598 13.0758 4.86784 13.0758 5.46197Z"
      fill="currentColor"
    />
  </symbol>

  <symbol
    fill="none"
    xmlns="http://www.w3.org/2000/svg"
    viewBox="0 0 32 32"
    id="size-32"
  >
    <path
      fill-rule="evenodd"
      clip-rule="evenodd"
      d="M16 0C7.17193 0 0 7.1726 0 16C0 24.8274 7.1726 32 16 32C24.8274 32 32 24.8274 32 16C32 7.1726 24.8274 0 16 0ZM16 29.3523C8.60699 29.3523 2.64836 23.3936 2.64836 16.0007C2.64836 8.60772 8.60705 2.64902 16 2.64902C23.393 2.64902 29.3516 8.60772 29.3516 16.0007C29.3516 23.3936 23.393 29.3523 16 29.3523Z"
      fill="currentColor"
    />
    <path
      fill-rule="evenodd"
      clip-rule="evenodd"
      d="M16.1105 11.5866C15.338 11.5866 14.6761 12.2487 14.6761 13.021L14.6759 24.8284C14.6759 25.6009 15.338 26.2628 16.1103 26.2628C16.8828 26.2628 17.5447 25.6006 17.5447 24.8284L17.5449 13.1315C17.5449 12.2488 16.8828 11.5866 16.1105 11.5866Z"
      fill="currentColor"
    />
    <path
      fill-rule="evenodd"
      clip-rule="evenodd"
      d="M17.4344 7.28261C17.4344 8.07477 16.7921 8.717 16 8.717C15.2078 8.717 14.5656 8.07478 14.5656 7.28261C14.5656 6.49045 15.2078 5.84796 16 5.84796C16.7921 5.84796 17.4344 6.49044 17.4344 7.28261Z"
      fill="currentColor"
    />
  </symbol>

  <symbol
    fill="none"
    xmlns="http://www.w3.org/2000/svg"
    viewBox="0 0 40 40"
    id="size-40"
  >
    <path
      fill-rule="evenodd"
      clip-rule="evenodd"
      d="M20 0C8.96491 0 0 8.96575 0 20C0 31.0343 8.96575 40 20 40C31.0343 40 40 31.0343 40 20C40 8.96575 31.0343 0 20 0ZM20 36.6904C10.7587 36.6904 3.31044 29.242 3.31044 20.0008C3.31044 10.7597 10.7588 3.31128 20 3.31128C29.2412 3.31128 36.6896 10.7597 36.6896 20.0008C36.6896 29.242 29.2412 36.6904 20 36.6904Z"
      fill="currentColor"
    />
    <path
      fill-rule="evenodd"
      clip-rule="evenodd"
      d="M20.1382 14.4832C19.1725 14.4832 18.3452 15.3109 18.3452 16.2762L18.3449 31.0355C18.3449 32.0011 19.1725 32.8284 20.1378 32.8284C21.1035 32.8284 21.9308 32.0008 21.9308 31.0355L21.9311 16.4144C21.9311 15.311 21.1035 14.4832 20.1382 14.4832Z"
      fill="currentColor"
    />
    <path
      fill-rule="evenodd"
      clip-rule="evenodd"
      d="M21.7929 9.10326C21.7929 10.0935 20.9902 10.8962 20 10.8962C19.0098 10.8962 18.207 10.0935 18.207 9.10326C18.207 8.11306 19.0098 7.30995 20 7.30995C20.9902 7.30995 21.7929 8.11304 21.7929 9.10326Z"
      fill="currentColor"
    />
  </symbol>
</svg>
