<svg
  width="24"
  height="24"
  viewBox="0 0 24 24"
  fill="none"
  xmlns="http://www.w3.org/2000/svg"
>
  <path
    fill-rule="evenodd"
    clip-rule="evenodd"
    d="M12 0C5.37895 0 0 5.37945 0 12C0 18.6206 5.37945 24 12 24C18.6206 24 24 18.6206 24 12C24 5.37945 18.6206 0 12 0ZM12 22.0142C6.45524 22.0142 1.98627 17.5452 1.98627 12.0005C1.98627 6.45579 6.45529 1.98677 12 1.98677C17.5447 1.98677 22.0137 6.45579 22.0137 12.0005C22.0137 17.5452 17.5447 22.0142 12 22.0142Z"
    fill="currentColor"
  />
  <path
    fill-rule="evenodd"
    clip-rule="evenodd"
    d="M12.0829 8.68996C11.5035 8.68996 11.0071 9.18655 11.0071 9.76575L11.0069 18.6213C11.0069 19.2007 11.5035 19.6971 12.0827 19.6971C12.6621 19.6971 13.1585 19.2005 13.1585 18.6213L13.1587 9.84866C13.1587 9.18661 12.6621 8.68996 12.0829 8.68996Z"
    fill="currentColor"
  />
  <path
    fill-rule="evenodd"
    clip-rule="evenodd"
    d="M13.0758 5.46197C13.0758 6.05609 12.5941 6.53776 12 6.53776C11.4059 6.53776 10.9242 6.0561 10.9242 5.46197C10.9242 4.86785 11.4059 4.38598 12 4.38598C12.5941 4.38598 13.0758 4.86784 13.0758 5.46197Z"
    fill="currentColor"
  />
</svg>
