<svg
  width="12"
  height="12"
  viewBox="0 0 12 12"
  fill="none"
  xmlns="http://www.w3.org/2000/svg"
>
  <path
    d="M6.75 8.24988C6.75 8.69988 6.45 8.99988 6 8.99988C5.55 8.99988 5.25 8.69988 5.25 8.24988V5.99988C5.25 5.54988 5.55 5.24988 6 5.24988C6.45 5.24988 6.75 5.54988 6.75 5.99988V8.24988ZM6 4.49988C5.55 4.49988 5.25 4.19988 5.25 3.74988C5.25 3.29988 5.55 2.99988 6 2.99988C6.45 2.99988 6.75 3.29988 6.75 3.74988C6.75 4.19988 6.45 4.49988 6 4.49988Z"
    fill="currentColor"
  />
  <path
    d="M6 12C2.7 12 0 9.3 0 6C0 2.7 2.7 0 6 0C9.3 0 12 2.7 12 6C12 9.3 9.3 12 6 12ZM6 1.5C3.525 1.5 1.5 3.525 1.5 6C1.5 8.475 3.525 10.5 6 10.5C8.475 10.5 10.5 8.475 10.5 6C10.5 3.525 8.475 1.5 6 1.5Z"
    fill="currentColor"
  />
</svg>
