<svg
  width="16"
  height="16"
  viewBox="0 0 16 16"
  fill="none"
  xmlns="http://www.w3.org/2000/svg"
>
  <path
    d="M9 10.9998C9 11.5998 8.6 11.9998 8 11.9998C7.4 11.9998 7 11.5998 7 10.9998V7.99984C7 7.39984 7.4 6.99984 8 6.99984C8.6 6.99984 9 7.39984 9 7.99984V10.9998ZM8 5.99984C7.4 5.99984 7 5.59984 7 4.99984C7 4.39984 7.4 3.99984 8 3.99984C8.6 3.99984 9 4.39984 9 4.99984C9 5.59984 8.6 5.99984 8 5.99984Z"
    fill="currentColor"
  />
  <path
    d="M8 16C3.6 16 0 12.4 0 8C0 3.6 3.6 0 8 0C12.4 0 16 3.6 16 8C16 12.4 12.4 16 8 16ZM8 2C4.7 2 2 4.7 2 8C2 11.3 4.7 14 8 14C11.3 14 14 11.3 14 8C14 4.7 11.3 2 8 2Z"
    fill="currentColor"
  />
</svg>
