<svg
  width="32"
  height="32"
  viewBox="0 0 32 32"
  fill="none"
  xmlns="http://www.w3.org/2000/svg"
>
  <path
    fill-rule="evenodd"
    clip-rule="evenodd"
    d="M16 0C7.17193 0 0 7.1726 0 16C0 24.8274 7.1726 32 16 32C24.8274 32 32 24.8274 32 16C32 7.1726 24.8274 0 16 0ZM16 29.3523C8.60699 29.3523 2.64836 23.3936 2.64836 16.0007C2.64836 8.60772 8.60705 2.64902 16 2.64902C23.393 2.64902 29.3516 8.60772 29.3516 16.0007C29.3516 23.3936 23.393 29.3523 16 29.3523Z"
    fill="currentColor"
  />
  <path
    fill-rule="evenodd"
    clip-rule="evenodd"
    d="M16.1105 11.5866C15.338 11.5866 14.6761 12.2487 14.6761 13.021L14.6759 24.8284C14.6759 25.6009 15.338 26.2628 16.1103 26.2628C16.8828 26.2628 17.5447 25.6006 17.5447 24.8284L17.5449 13.1315C17.5449 12.2488 16.8828 11.5866 16.1105 11.5866Z"
    fill="currentColor"
  />
  <path
    fill-rule="evenodd"
    clip-rule="evenodd"
    d="M17.4344 7.28261C17.4344 8.07477 16.7921 8.717 16 8.717C15.2078 8.717 14.5656 8.07478 14.5656 7.28261C14.5656 6.49045 15.2078 5.84796 16 5.84796C16.7921 5.84796 17.4344 6.49044 17.4344 7.28261Z"
    fill="currentColor"
  />
</svg>
