<svg
  width="40"
  height="40"
  viewBox="0 0 40 40"
  fill="none"
  xmlns="http://www.w3.org/2000/svg"
>
  <path
    fill-rule="evenodd"
    clip-rule="evenodd"
    d="M34.9786 6.49882C34.9786 5.67098 34.3071 5 33.4787 5H22.8721C22.0437 5 21.3722 5.67098 21.3722 6.49882C21.3722 7.32667 22.0437 7.99765 22.8721 7.99765H29.8574L19.69 18.1577C19.1041 18.7431 19.1041 19.6922 19.69 20.2773C20.2758 20.8628 21.2253 20.8628 21.8111 20.2773L31.9786 10.1173V17.0975C31.9786 17.9251 32.6504 18.5963 33.4786 18.5963C34.307 18.5963 34.9785 17.9251 34.9785 17.0975L34.9786 6.49882ZM13.6382 34.9997H26.3623C27.5697 34.9997 28.5664 34.9997 29.378 34.9335C30.2212 34.8648 30.9962 34.717 31.7242 34.3463C32.8532 33.7717 33.7711 32.8542 34.3461 31.7263C34.717 30.9989 34.8649 30.2242 34.9337 29.3819C35 28.5708 35 27.5749 35 26.3684V25.2573C35 24.4294 34.3285 23.7584 33.5001 23.7584C32.6716 23.7584 32.0002 24.4294 32.0002 25.2573V26.3064C32.0002 27.5904 31.9989 28.4632 31.9439 29.138C31.8902 29.7951 31.7927 30.1312 31.6732 30.3655C31.3857 30.9296 30.9266 31.3883 30.3621 31.6757C30.1275 31.7951 29.7913 31.8925 29.1336 31.9462C28.4584 32.0011 27.585 32.0024 26.3 32.0024H13.7C12.415 32.0024 11.5416 32.0011 10.8666 31.9462C10.209 31.8925 9.87268 31.7951 9.63817 31.6757C9.07366 31.3883 8.6146 30.9296 8.32705 30.3655C8.20752 30.1311 8.11009 29.7951 8.05635 29.138C8.0011 28.4632 8.0001 27.5904 8.0001 26.3064V13.7156C8.0001 12.4316 8.00135 11.5588 8.05635 10.8843C8.11009 10.2271 8.20752 9.89111 8.32705 9.65676C8.61458 9.09267 9.07361 8.63395 9.63817 8.34661C9.87271 8.22716 10.209 8.1298 10.8666 8.0761C11.5419 8.0209 12.4153 8.0199 13.7 8.0199H14.7499C15.5783 8.0199 16.2498 7.34892 16.2498 6.52107C16.2498 5.69322 15.5783 5.02225 14.7499 5.02225H13.6379C12.4306 5.02225 11.4339 5.02225 10.6223 5.08849C9.77902 5.15724 9.00405 5.30505 8.27607 5.67567C7.14708 6.25056 6.2292 7.16775 5.65391 8.29592C5.28301 9.02336 5.1351 9.79802 5.06629 10.6404C5 11.4517 5 12.4474 5 13.6538V26.3687C5 27.5754 5 28.5711 5.06629 29.3821C5.1351 30.2247 5.28301 30.9991 5.65391 31.7266C6.22921 32.8548 7.14708 33.772 8.27607 34.3466C9.00405 34.7172 9.77927 34.865 10.6223 34.9338C11.4341 35 12.4306 35 13.6382 35L13.6382 34.9997Z"
    fill="currentColor"
  />
</svg>
