<svg
  width="16"
  height="16"
  viewBox="0 0 16 16"
  fill="none"
  xmlns="http://www.w3.org/2000/svg"
>
  <path
    fill-rule="evenodd"
    clip-rule="evenodd"
    d="M13.9914 2.59953C13.9914 2.26839 13.7229 2 13.3915 2H9.14885C8.81746 2 8.54888 2.26839 8.54888 2.59953C8.54888 2.93067 8.81746 3.19906 9.14885 3.19906H11.943L7.87598 7.26308C7.64164 7.49725 7.64164 7.87687 7.87598 8.11093C8.11032 8.3451 8.49012 8.3451 8.72445 8.11093L12.7915 4.04691V6.839C12.7915 7.17003 13.0601 7.43853 13.3914 7.43853C13.7228 7.43853 13.9914 7.17003 13.9914 6.839L13.9914 2.59953ZM5.45527 13.9999H10.5449C11.0279 13.9999 11.4266 13.9999 11.7512 13.9734C12.0885 13.9459 12.3985 13.8868 12.6897 13.7385C13.1413 13.5087 13.5084 13.1417 13.7384 12.6905C13.8868 12.3996 13.946 12.0897 13.9735 11.7527C14 11.4283 14 11.03 14 10.5474V10.1029C14 9.77177 13.7314 9.50338 13.4 9.50338C13.0686 9.50338 12.8001 9.77177 12.8001 10.1029V10.5226C12.8001 11.0362 12.7996 11.3853 12.7776 11.6552C12.7561 11.918 12.7171 12.0525 12.6693 12.1462C12.5543 12.3718 12.3707 12.5553 12.1448 12.6703C12.051 12.718 11.9165 12.757 11.6535 12.7785C11.3834 12.8004 11.034 12.8009 10.52 12.8009H5.47998C4.966 12.8009 4.61665 12.8004 4.34664 12.7785C4.08359 12.757 3.94907 12.718 3.85527 12.6703C3.62946 12.5553 3.44584 12.3719 3.33082 12.1462C3.28301 12.0525 3.24403 11.918 3.22254 11.6552C3.20044 11.3853 3.20004 11.0362 3.20004 10.5226V5.48623C3.20004 4.97263 3.20054 4.62353 3.22254 4.35372C3.24404 4.09086 3.28301 3.95644 3.33082 3.86271C3.44583 3.63707 3.62944 3.45358 3.85527 3.33864C3.94908 3.29087 4.08358 3.25192 4.34664 3.23044C4.61675 3.20836 4.96611 3.20796 5.47998 3.20796H5.89995C6.23133 3.20796 6.49992 2.93957 6.49992 2.60843C6.49992 2.27729 6.23133 2.0089 5.89995 2.0089H5.45517C4.97223 2.0089 4.57355 2.0089 4.2489 2.0354C3.91161 2.0629 3.60162 2.12202 3.31043 2.27027C2.85883 2.50022 2.49168 2.8671 2.26156 3.31837C2.1132 3.60934 2.05404 3.91921 2.02652 4.25615C2 4.58066 2 4.97895 2 5.46153V10.5475C2 11.0302 2 11.4284 2.02652 11.7528C2.05404 12.0899 2.1132 12.3997 2.26156 12.6906C2.49169 13.1419 2.85883 13.5088 3.31043 13.7386C3.60162 13.8869 3.91171 13.946 4.2489 13.9735C4.57365 14 4.97223 14 5.45527 14L5.45527 13.9999Z"
    fill="currentColor"
  />
</svg>
