<svg
  width="32"
  height="32"
  viewBox="0 0 32 32"
  fill="none"
  xmlns="http://www.w3.org/2000/svg"
>
  <path
    fill-rule="evenodd"
    clip-rule="evenodd"
    d="M27.9829 5.19906C27.9829 4.53678 27.4457 4 26.7829 4H18.2977C17.6349 4 17.0978 4.53678 17.0978 5.19906C17.0978 5.86134 17.6349 6.39812 18.2977 6.39812H23.886L15.752 14.5262C15.2833 14.9945 15.2833 15.7537 15.752 16.2219C16.2206 16.6902 16.9802 16.6902 17.4489 16.2219L25.5829 8.09382V13.678C25.5829 14.3401 26.1203 14.8771 26.7828 14.8771C27.4456 14.8771 27.9828 14.3401 27.9828 13.678L27.9829 5.19906ZM10.9105 27.9998H21.0899C22.0558 27.9998 22.8531 27.9998 23.5024 27.9468C24.177 27.8918 24.797 27.7736 25.3793 27.4771C26.2825 27.0173 27.0168 26.2834 27.4769 25.3811C27.7736 24.7991 27.8919 24.1794 27.947 23.5055C28 22.8567 28 22.0599 28 21.0947V20.2058C28 19.5435 27.4628 19.0068 26.8001 19.0068C26.1373 19.0068 25.6001 19.5435 25.6001 20.2058V21.0451C25.6001 22.0723 25.5991 22.7705 25.5551 23.3104C25.5121 23.8361 25.4342 24.1049 25.3386 24.2924C25.1085 24.7437 24.7413 25.1106 24.2897 25.3405C24.102 25.4361 23.833 25.514 23.3069 25.5569C22.7667 25.6009 22.068 25.6019 21.04 25.6019H10.96C9.932 25.6019 9.23329 25.6009 8.69329 25.5569C8.16717 25.514 7.89815 25.4361 7.71053 25.3405C7.25893 25.1107 6.89168 24.7437 6.66164 24.2924C6.56601 24.1049 6.48807 23.8361 6.44508 23.3104C6.40088 22.7705 6.40008 22.0723 6.40008 21.0451V10.9725C6.40008 9.94525 6.40108 9.24705 6.44508 8.70745C6.48807 8.18171 6.56602 7.91289 6.66164 7.72541C6.89167 7.27413 7.25888 6.90716 7.71053 6.67729C7.89817 6.58173 8.16716 6.50384 8.69329 6.46088C9.2335 6.41672 9.93221 6.41592 10.96 6.41592H11.7999C12.4627 6.41592 12.9998 5.87914 12.9998 5.21686C12.9998 4.55458 12.4627 4.0178 11.7999 4.0178H10.9103C9.94445 4.0178 9.1471 4.0178 8.49781 4.07079C7.82321 4.1258 7.20324 4.24404 6.62086 4.54054C5.71766 5.00045 4.98336 5.7342 4.52312 6.63673C4.22641 7.21869 4.10808 7.83841 4.05303 8.51231C4 9.16133 4 9.95789 4 10.9231V21.0949C4 22.0603 4 22.8569 4.05303 23.5057C4.10808 24.1798 4.22641 24.7993 4.52312 25.3813C4.98337 26.2838 5.71766 27.0176 6.62086 27.4773C7.20324 27.7738 7.82342 27.892 8.49781 27.947C9.1473 28 9.94445 28 10.9105 28L10.9105 27.9998Z"
    fill="currentColor"
  />
</svg>
