<svg
  width="24"
  height="24"
  viewBox="0 0 24 24"
  fill="none"
  xmlns="http://www.w3.org/2000/svg"
>
  <path
    fill-rule="evenodd"
    clip-rule="evenodd"
    d="M20.9872 3.89929C20.9872 3.40259 20.5843 3 20.0872 3H13.7233C13.2262 3 12.8233 3.40259 12.8233 3.89929C12.8233 4.396 13.2262 4.79859 13.7233 4.79859H17.9145L11.814 10.8946C11.4625 11.2459 11.4625 11.8153 11.814 12.1664C12.1655 12.5177 12.7352 12.5177 13.0867 12.1664L19.1872 6.07037V10.2585C19.1872 10.755 19.5902 11.1578 20.0871 11.1578C20.5842 11.1578 20.9871 10.755 20.9871 10.2585L20.9872 3.89929ZM8.18291 20.9998H15.8174C16.5418 20.9998 17.1398 20.9998 17.6268 20.9601C18.1327 20.9189 18.5977 20.8302 19.0345 20.6078C19.7119 20.263 20.2626 19.7125 20.6077 19.0358C20.8302 18.5993 20.9189 18.1345 20.9602 17.6291C21 17.1425 21 16.5449 21 15.821V15.1544C21 14.6577 20.5971 14.2551 20.1 14.2551C19.603 14.2551 19.2001 14.6577 19.2001 15.1544V15.7839C19.2001 16.5543 19.1993 17.0779 19.1663 17.4828C19.1341 17.8771 19.0756 18.0787 19.0039 18.2193C18.8314 18.5578 18.556 18.833 18.2172 19.0054C18.0765 19.0771 17.8748 19.1355 17.4802 19.1677C17.075 19.2007 16.551 19.2014 15.78 19.2014H8.21997C7.449 19.2014 6.92497 19.2007 6.51997 19.1677C6.12538 19.1355 5.92361 19.0771 5.7829 19.0054C5.44419 18.833 5.16876 18.5578 4.99623 18.2193C4.92451 18.0787 4.86605 17.8771 4.83381 17.4828C4.80066 17.0779 4.80006 16.5543 4.80006 15.7839V8.22935C4.80006 7.45894 4.80081 6.93529 4.83381 6.53058C4.86605 6.13629 4.92451 5.93466 4.99623 5.79406C5.16875 5.4556 5.44416 5.18037 5.7829 5.00797C5.92362 4.9363 6.12537 4.87788 6.51997 4.84566C6.92512 4.81254 7.44916 4.81194 8.21997 4.81194H8.84993C9.347 4.81194 9.74988 4.40935 9.74988 3.91264C9.74988 3.41593 9.347 3.01335 8.84993 3.01335H8.18275C7.45834 3.01335 6.86032 3.01335 6.37335 3.05309C5.86741 3.09435 5.40243 3.18303 4.96564 3.4054C4.28825 3.75034 3.73752 4.30065 3.39234 4.97755C3.1698 5.41402 3.08106 5.87881 3.03978 6.38423C3 6.871 3 7.46842 3 8.1923V15.8212C3 16.5452 3 17.1427 3.03978 17.6293C3.08106 18.1348 3.1698 18.5995 3.39234 19.036C3.73753 19.7129 4.28825 20.2632 4.96564 20.6079C5.40243 20.8303 5.86756 20.919 6.37335 20.9603C6.86048 21 7.45834 21 8.18291 21L8.18291 20.9998Z"
    fill="currentColor"
  />
</svg>
