<svg
  width="12"
  height="12"
  viewBox="0 0 12 12"
  fill="none"
  xmlns="http://www.w3.org/2000/svg"
>
  <path
    fill-rule="evenodd"
    clip-rule="evenodd"
    d="M10.4936 1.94965C10.4936 1.70129 10.2921 1.5 10.0436 1.5H6.86163C6.6131 1.5 6.41166 1.70129 6.41166 1.94965C6.41166 2.198 6.6131 2.39929 6.86163 2.39929H8.95723L5.90699 5.44731C5.73123 5.62294 5.73123 5.90765 5.90699 6.0832C6.08274 6.25883 6.36759 6.25883 6.54334 6.0832L9.59359 3.03518V5.12925C9.59359 5.37752 9.79511 5.5789 10.0436 5.5789C10.2921 5.5789 10.4935 5.37752 10.4935 5.12925L10.4936 1.94965ZM4.09145 10.4999H7.9087C8.27091 10.4999 8.56992 10.4999 8.8134 10.4801C9.06637 10.4594 9.29886 10.4151 9.51725 10.3039C9.85595 10.1315 10.1313 9.85627 10.3038 9.5179C10.4151 9.29967 10.4595 9.06727 10.4801 8.81456C10.5 8.57125 10.5 8.27247 10.5 7.91052V7.57718C10.5 7.32883 10.2986 7.12753 10.05 7.12753C9.80149 7.12753 9.60005 7.32883 9.60005 7.57718V7.89193C9.60005 8.27713 9.59967 8.53896 9.58317 8.74139C9.56705 8.93854 9.53782 9.03935 9.50196 9.10965C9.4157 9.27888 9.27799 9.41649 9.10862 9.5027C9.03826 9.53853 8.93739 9.56774 8.74009 9.58385C8.53751 9.60033 8.2755 9.60071 7.89001 9.60071H4.10999C3.7245 9.60071 3.46248 9.60033 3.25998 9.58385C3.06269 9.56774 2.9618 9.53853 2.89145 9.5027C2.7221 9.4165 2.58438 9.27889 2.49812 9.10965C2.46226 9.03934 2.43303 8.93854 2.4169 8.74139C2.40033 8.53896 2.40003 8.27713 2.40003 7.89193V4.11467C2.40003 3.72947 2.40041 3.46765 2.4169 3.26529C2.43303 3.06814 2.46226 2.96733 2.49812 2.89703C2.58438 2.7278 2.72208 2.59018 2.89145 2.50398C2.96181 2.46815 3.06269 2.43894 3.25998 2.42283C3.46256 2.40627 3.72458 2.40597 4.10999 2.40597H4.42496C4.6735 2.40597 4.87494 2.20468 4.87494 1.95632C4.87494 1.70797 4.6735 1.50667 4.42496 1.50667H4.09138C3.72917 1.50667 3.43016 1.50667 3.18668 1.52655C2.93371 1.54717 2.70121 1.59151 2.48282 1.7027C2.14412 1.87517 1.86876 2.15033 1.69617 2.48878C1.5849 2.70701 1.54053 2.93941 1.51989 3.19212C1.5 3.4355 1.5 3.73421 1.5 4.09615V7.9106C1.5 8.27262 1.5 8.57133 1.51989 8.81464C1.54053 9.06742 1.5849 9.29974 1.69617 9.51798C1.86876 9.85643 2.14412 10.1316 2.48282 10.304C2.70121 10.4152 2.93378 10.4595 3.18668 10.4801C3.43024 10.5 3.72917 10.5 4.09145 10.5L4.09145 10.4999Z"
    fill="currentColor"
  />
</svg>
