<svg
  width="12"
  height="12"
  viewBox="0 0 12 12"
  fill="none"
  xmlns="http://www.w3.org/2000/svg"
>
  <path
    fill-rule="evenodd"
    clip-rule="evenodd"
    d="M8.25 2.4375H3.75C3.43934 2.4375 3.1875 2.68934 3.1875 3C3.1875 3.31066 3.43934 3.5625 3.75 3.5625H6.89201L3.35225 7.10225C3.13258 7.32192 3.13258 7.67808 3.35225 7.89775C3.57192 8.11742 3.92808 8.11742 4.14775 7.89775L7.6875 4.358V7.5C7.6875 7.81066 7.93934 8.0625 8.25 8.0625C8.56066 8.0625 8.8125 7.81066 8.8125 7.5V3.00052C8.8125 2.99922 8.8125 2.99792 8.81249 2.99663C8.8125 2.99775 8.8125 2.99887 8.8125 3M8.46532 2.48018C8.53068 2.50723 8.59198 2.54712 8.64535 2.59987C8.59404 2.54916 8.53301 2.50825 8.46532 2.48018Z"
    fill="currentColor"
  />
</svg>
