<svg
  width="32"
  height="32"
  viewBox="0 0 32 32"
  fill="none"
  xmlns="http://www.w3.org/2000/svg"
>
  <path
    fill-rule="evenodd"
    clip-rule="evenodd"
    d="M22 7.25H10C9.58579 7.25 9.25 7.58579 9.25 8C9.25 8.41421 9.58579 8.75 10 8.75H20.1893L9.46967 19.4697C9.17678 19.7626 9.17678 20.2374 9.46967 20.5303C9.76256 20.8232 10.2374 20.8232 10.5303 20.5303L21.25 9.81066V20C21.25 20.4142 21.5858 20.75 22 20.75C22.4142 20.75 22.75 20.4142 22.75 20V8.00104C22.75 7.99838 22.75 7.99573 22.75 7.99308C22.75 7.99538 22.75 7.99769 22.75 8"
    fill="currentColor"
  />
</svg>
