<svg
  width="24"
  height="24"
  viewBox="0 0 24 24"
  fill="none"
  xmlns="http://www.w3.org/2000/svg"
>
  <path
    fill-rule="evenodd"
    clip-rule="evenodd"
    d="M17.1931 5.71291C17.1573 5.62646 17.1047 5.54535 17.0352 5.47459C17.032 5.47129 17.0287 5.46803 17.0254 5.4648C16.8901 5.33194 16.7046 5.25 16.5 5.25H7.5C7.08579 5.25 6.75 5.58579 6.75 6C6.75 6.41421 7.08579 6.75 7.5 6.75H14.6893L6.96967 14.4697C6.67678 14.7626 6.67678 15.2374 6.96967 15.5303C7.26256 15.8232 7.73744 15.8232 8.03033 15.5303L15.75 7.81066V15C15.75 15.4142 16.0858 15.75 16.5 15.75C16.9142 15.75 17.25 15.4142 17.25 15V6C17.25 5.89831 17.2298 5.80134 17.1931 5.71291Z"
    fill="currentColor"
  />
</svg>
