<svg
  width="40"
  height="40"
  viewBox="0 0 40 40"
  fill="none"
  xmlns="http://www.w3.org/2000/svg"
>
  <path
    fill-rule="evenodd"
    clip-rule="evenodd"
    d="M27.4996 9.0625H12.5C11.9822 9.0625 11.5625 9.48223 11.5625 10C11.5625 10.5178 11.9822 10.9375 12.5 10.9375H25.2367L11.8371 24.3371C11.471 24.7032 11.471 25.2968 11.8371 25.6629C12.2032 26.029 12.7968 26.029 13.1629 25.6629L26.5625 12.2633V25C26.5625 25.5178 26.9822 25.9375 27.5 25.9375C28.0178 25.9375 28.4375 25.5178 28.4375 25V10.0013C28.4375 9.99801 28.4375 9.99468 28.4375 9.99135C28.4375 9.99423 28.4375 9.99711 28.4375 10"
    fill="currentColor"
  />
</svg>
