<svg>
  <symbol
    fill="none"
    xmlns="http://www.w3.org/2000/svg"
    viewBox="0 0 12 12"
    id="size-12"
  >
    <path
      fill-rule="evenodd"
      clip-rule="evenodd"
      d="M8.25 2.4375H3.75C3.43934 2.4375 3.1875 2.68934 3.1875 3C3.1875 3.31066 3.43934 3.5625 3.75 3.5625H6.89201L3.35225 7.10225C3.13258 7.32192 3.13258 7.67808 3.35225 7.89775C3.57192 8.11742 3.92808 8.11742 4.14775 7.89775L7.6875 4.358V7.5C7.6875 7.81066 7.93934 8.0625 8.25 8.0625C8.56066 8.0625 8.8125 7.81066 8.8125 7.5V3.00052C8.8125 2.99922 8.8125 2.99792 8.81249 2.99663C8.8125 2.99775 8.8125 2.99887 8.8125 3M8.46532 2.48018C8.53068 2.50723 8.59198 2.54712 8.64535 2.59987C8.59404 2.54916 8.53301 2.50825 8.46532 2.48018Z"
      fill="currentColor"
    />
  </symbol>

  <symbol
    fill="none"
    xmlns="http://www.w3.org/2000/svg"
    viewBox="0 0 16 16"
    id="size-16"
  >
    <path
      fill-rule="evenodd"
      clip-rule="evenodd"
      d="M11 3.25H5C4.58579 3.25 4.25 3.58579 4.25 4C4.25 4.41421 4.58579 4.75 5 4.75H9.18934L4.46967 9.46967C4.17678 9.76256 4.17678 10.2374 4.46967 10.5303C4.76256 10.8232 5.23744 10.8232 5.53033 10.5303L10.25 5.81066V10C10.25 10.4142 10.5858 10.75 11 10.75C11.4142 10.75 11.75 10.4142 11.75 10V4.0006C11.75 3.99809 11.75 3.99558 11.75 3.99308C11.7491 3.89769 11.7301 3.80244 11.6931 3.71291C11.6565 3.62445 11.6022 3.54158 11.5303 3.46967C11.4584 3.39776 11.3755 3.34351 11.2871 3.30691C11.4704 3.38293 11.6171 3.52958 11.6931 3.71291"
      fill="currentColor"
    />
  </symbol>

  <symbol
    fill="none"
    xmlns="http://www.w3.org/2000/svg"
    viewBox="0 0 24 24"
    id="size-24"
  >
    <path
      fill-rule="evenodd"
      clip-rule="evenodd"
      d="M17.1931 5.71291C17.1573 5.62646 17.1047 5.54535 17.0352 5.47459C17.032 5.47129 17.0287 5.46803 17.0254 5.4648C16.8901 5.33194 16.7046 5.25 16.5 5.25H7.5C7.08579 5.25 6.75 5.58579 6.75 6C6.75 6.41421 7.08579 6.75 7.5 6.75H14.6893L6.96967 14.4697C6.67678 14.7626 6.67678 15.2374 6.96967 15.5303C7.26256 15.8232 7.73744 15.8232 8.03033 15.5303L15.75 7.81066V15C15.75 15.4142 16.0858 15.75 16.5 15.75C16.9142 15.75 17.25 15.4142 17.25 15V6C17.25 5.89831 17.2298 5.80134 17.1931 5.71291Z"
      fill="currentColor"
    />
  </symbol>

  <symbol
    fill="none"
    xmlns="http://www.w3.org/2000/svg"
    viewBox="0 0 32 32"
    id="size-32"
  >
    <path
      fill-rule="evenodd"
      clip-rule="evenodd"
      d="M22 7.25H10C9.58579 7.25 9.25 7.58579 9.25 8C9.25 8.41421 9.58579 8.75 10 8.75H20.1893L9.46967 19.4697C9.17678 19.7626 9.17678 20.2374 9.46967 20.5303C9.76256 20.8232 10.2374 20.8232 10.5303 20.5303L21.25 9.81066V20C21.25 20.4142 21.5858 20.75 22 20.75C22.4142 20.75 22.75 20.4142 22.75 20V8.00104C22.75 7.99838 22.75 7.99573 22.75 7.99308C22.75 7.99538 22.75 7.99769 22.75 8"
      fill="currentColor"
    />
  </symbol>

  <symbol
    fill="none"
    xmlns="http://www.w3.org/2000/svg"
    viewBox="0 0 40 40"
    id="size-40"
  >
    <path
      fill-rule="evenodd"
      clip-rule="evenodd"
      d="M27.4996 9.0625H12.5C11.9822 9.0625 11.5625 9.48223 11.5625 10C11.5625 10.5178 11.9822 10.9375 12.5 10.9375H25.2367L11.8371 24.3371C11.471 24.7032 11.471 25.2968 11.8371 25.6629C12.2032 26.029 12.7968 26.029 13.1629 25.6629L26.5625 12.2633V25C26.5625 25.5178 26.9822 25.9375 27.5 25.9375C28.0178 25.9375 28.4375 25.5178 28.4375 25V10.0013C28.4375 9.99801 28.4375 9.99468 28.4375 9.99135C28.4375 9.99423 28.4375 9.99711 28.4375 10"
      fill="currentColor"
    />
  </symbol>
</svg>
