<svg
  width="16"
  height="16"
  viewBox="0 0 16 16"
  fill="none"
  xmlns="http://www.w3.org/2000/svg"
>
  <path
    fill-rule="evenodd"
    clip-rule="evenodd"
    d="M11 3.25H5C4.58579 3.25 4.25 3.58579 4.25 4C4.25 4.41421 4.58579 4.75 5 4.75H9.18934L4.46967 9.46967C4.17678 9.76256 4.17678 10.2374 4.46967 10.5303C4.76256 10.8232 5.23744 10.8232 5.53033 10.5303L10.25 5.81066V10C10.25 10.4142 10.5858 10.75 11 10.75C11.4142 10.75 11.75 10.4142 11.75 10V4.0006C11.75 3.99809 11.75 3.99558 11.75 3.99308C11.7491 3.89769 11.7301 3.80244 11.6931 3.71291C11.6565 3.62445 11.6022 3.54158 11.5303 3.46967C11.4584 3.39776 11.3755 3.34351 11.2871 3.30691C11.4704 3.38293 11.6171 3.52958 11.6931 3.71291"
    fill="currentColor"
  />
</svg>
