<svg
  width="24"
  height="24"
  viewBox="0 0 24 24"
  fill="none"
  xmlns="http://www.w3.org/2000/svg"
>
  <path
    fill-rule="evenodd"
    clip-rule="evenodd"
    d="M21.5742 3.91406C21.5742 3.49985 21.2384 3.16406 20.8242 3.16406C20.41 3.16406 20.0742 3.49985 20.0742 3.91406V20.0859C20.0742 20.5002 20.41 20.8359 20.8242 20.8359C21.2384 20.8359 21.5742 20.5002 21.5742 20.0859V3.91406ZM9.83998 4.71425C10.1631 4.39115 10.6869 4.39115 11.01 4.71425L17.6288 11.333C17.9519 11.6561 17.9519 12.1799 17.6288 12.503L11.01 19.1218C10.6869 19.4449 10.1631 19.4449 9.83998 19.1218C9.51688 18.7987 9.51688 18.2748 9.83998 17.9517L15.1238 12.668H3.17578C2.76157 12.668 2.42578 12.3322 2.42578 11.918C2.42578 11.5038 2.76157 11.168 3.17578 11.168H15.1237L9.83998 5.88429C9.51688 5.56119 9.51688 5.03735 9.83998 4.71425Z"
    fill="currentColor"
  />
</svg>
