<svg
  width="16"
  height="16"
  viewBox="0 0 16 16"
  fill="none"
  xmlns="http://www.w3.org/2000/svg"
>
  <path
    fill-rule="evenodd"
    clip-rule="evenodd"
    d="M14.3828 2.60938C14.3828 2.33323 14.159 2.10938 13.8828 2.10938C13.6067 2.10938 13.3828 2.33323 13.3828 2.60937V13.3906C13.3828 13.6668 13.6067 13.8906 13.8828 13.8906C14.159 13.8906 14.3828 13.6668 14.3828 13.3906V2.60938ZM6.55999 3.14283C6.77538 2.92743 7.12462 2.92743 7.34001 3.14283L11.7525 7.55533C11.9679 7.77073 11.9679 8.11996 11.7525 8.33536L7.34001 12.7479C7.12462 12.9633 6.77538 12.9633 6.55999 12.7479C6.34459 12.5325 6.34459 12.1832 6.55999 11.9678L10.0825 8.44531H2.11719C1.84105 8.44531 1.61719 8.22146 1.61719 7.94531C1.61719 7.66917 1.84105 7.44531 2.11719 7.44531H10.0824L6.55999 3.92286C6.34459 3.70746 6.34459 3.35823 6.55999 3.14283Z"
    fill="currentColor"
  />
</svg>
