<svg
  width="40"
  height="40"
  viewBox="0 0 40 40"
  fill="none"
  xmlns="http://www.w3.org/2000/svg"
>
  <path
    fill-rule="evenodd"
    clip-rule="evenodd"
    d="M35.957 6.52344C35.957 5.83308 35.3974 5.27344 34.707 5.27344C34.0167 5.27344 33.457 5.83308 33.457 6.52344L33.457 33.4766C33.457 34.1669 34.0167 34.7266 34.707 34.7266C35.3974 34.7266 35.957 34.1669 35.957 33.4766L35.957 6.52344ZM16.4 7.85688C16.9385 7.31838 17.8115 7.31838 18.35 7.85688L29.3813 18.8881C29.9198 19.4266 29.9198 20.2997 29.3813 20.8382L18.35 31.8694C17.8115 32.4079 16.9385 32.4079 16.4 31.8694C15.8615 31.3309 15.8615 30.4579 16.4 29.9194L25.2061 21.1133H5.29297C4.60261 21.1133 4.04297 20.5536 4.04297 19.8633C4.04297 19.1729 4.60261 18.6133 5.29297 18.6133H25.2063L16.4 9.80694C15.8615 9.26845 15.8615 8.39537 16.4 7.85688Z"
    fill="currentColor"
  />
</svg>
