<svg>
  <symbol
    fill="none"
    xmlns="http://www.w3.org/2000/svg"
    viewBox="0 0 12 12"
    id="size-12"
  >
    <path
      fill-rule="evenodd"
      clip-rule="evenodd"
      d="M10.7871 1.95703C10.7871 1.74992 10.6192 1.58203 10.4121 1.58203C10.205 1.58203 10.0371 1.74992 10.0371 1.95703V10.043C10.0371 10.2501 10.205 10.418 10.4121 10.418C10.6192 10.418 10.7871 10.2501 10.7871 10.043V1.95703ZM4.91999 2.35712C5.08154 2.19557 5.34346 2.19557 5.50501 2.35712L8.81438 5.6665C8.97593 5.82805 8.97593 6.08997 8.81438 6.25152L5.50501 9.56089C5.34346 9.72244 5.08154 9.72244 4.91999 9.56089C4.75844 9.39935 4.75844 9.13742 4.91999 8.97587L7.56188 6.33398H1.58789C1.38078 6.33398 1.21289 6.16609 1.21289 5.95898C1.21289 5.75188 1.38078 5.58398 1.58789 5.58398H7.56183L4.91999 2.94214C4.75844 2.7806 4.75844 2.51867 4.91999 2.35712Z"
      fill="currentColor"
    />
  </symbol>

  <symbol
    fill="none"
    xmlns="http://www.w3.org/2000/svg"
    viewBox="0 0 16 16"
    id="size-16"
  >
    <path
      fill-rule="evenodd"
      clip-rule="evenodd"
      d="M14.3828 2.60938C14.3828 2.33323 14.159 2.10938 13.8828 2.10938C13.6067 2.10938 13.3828 2.33323 13.3828 2.60937V13.3906C13.3828 13.6668 13.6067 13.8906 13.8828 13.8906C14.159 13.8906 14.3828 13.6668 14.3828 13.3906V2.60938ZM6.55999 3.14283C6.77538 2.92743 7.12462 2.92743 7.34001 3.14283L11.7525 7.55533C11.9679 7.77073 11.9679 8.11996 11.7525 8.33536L7.34001 12.7479C7.12462 12.9633 6.77538 12.9633 6.55999 12.7479C6.34459 12.5325 6.34459 12.1832 6.55999 11.9678L10.0825 8.44531H2.11719C1.84105 8.44531 1.61719 8.22146 1.61719 7.94531C1.61719 7.66917 1.84105 7.44531 2.11719 7.44531H10.0824L6.55999 3.92286C6.34459 3.70746 6.34459 3.35823 6.55999 3.14283Z"
      fill="currentColor"
    />
  </symbol>

  <symbol
    fill="none"
    xmlns="http://www.w3.org/2000/svg"
    viewBox="0 0 24 24"
    id="size-24"
  >
    <path
      fill-rule="evenodd"
      clip-rule="evenodd"
      d="M21.5742 3.91406C21.5742 3.49985 21.2384 3.16406 20.8242 3.16406C20.41 3.16406 20.0742 3.49985 20.0742 3.91406V20.0859C20.0742 20.5002 20.41 20.8359 20.8242 20.8359C21.2384 20.8359 21.5742 20.5002 21.5742 20.0859V3.91406ZM9.83998 4.71425C10.1631 4.39115 10.6869 4.39115 11.01 4.71425L17.6288 11.333C17.9519 11.6561 17.9519 12.1799 17.6288 12.503L11.01 19.1218C10.6869 19.4449 10.1631 19.4449 9.83998 19.1218C9.51688 18.7987 9.51688 18.2748 9.83998 17.9517L15.1238 12.668H3.17578C2.76157 12.668 2.42578 12.3322 2.42578 11.918C2.42578 11.5038 2.76157 11.168 3.17578 11.168H15.1237L9.83998 5.88429C9.51688 5.56119 9.51688 5.03735 9.83998 4.71425Z"
      fill="currentColor"
    />
  </symbol>

  <symbol
    fill="none"
    xmlns="http://www.w3.org/2000/svg"
    viewBox="0 0 32 32"
    id="size-32"
  >
    <path
      fill-rule="evenodd"
      clip-rule="evenodd"
      d="M28.7656 5.21875C28.7656 4.66647 28.3179 4.21875 27.7656 4.21875C27.2133 4.21875 26.7656 4.66647 26.7656 5.21875L26.7656 26.7812C26.7656 27.3335 27.2133 27.7812 27.7656 27.7812C28.3179 27.7812 28.7656 27.3335 28.7656 26.7812L28.7656 5.21875ZM13.12 6.2855C13.5508 5.8547 14.2492 5.8547 14.68 6.2855L23.505 15.1105C23.9358 15.5413 23.9358 16.2398 23.505 16.6706L14.68 25.4956C14.2492 25.9264 13.5508 25.9264 13.12 25.4956C12.6892 25.0648 12.6892 24.3663 13.12 23.9355L20.1648 16.8906H4.23438C3.68209 16.8906 3.23438 16.4429 3.23438 15.8906C3.23438 15.3383 3.68209 14.8906 4.23438 14.8906H20.165L13.12 7.84555C12.6892 7.41476 12.6892 6.7163 13.12 6.2855Z"
      fill="currentColor"
    />
  </symbol>

  <symbol
    fill="none"
    xmlns="http://www.w3.org/2000/svg"
    viewBox="0 0 40 40"
    id="size-40"
  >
    <path
      fill-rule="evenodd"
      clip-rule="evenodd"
      d="M35.957 6.52344C35.957 5.83308 35.3974 5.27344 34.707 5.27344C34.0167 5.27344 33.457 5.83308 33.457 6.52344L33.457 33.4766C33.457 34.1669 34.0167 34.7266 34.707 34.7266C35.3974 34.7266 35.957 34.1669 35.957 33.4766L35.957 6.52344ZM16.4 7.85688C16.9385 7.31838 17.8115 7.31838 18.35 7.85688L29.3813 18.8881C29.9198 19.4266 29.9198 20.2997 29.3813 20.8382L18.35 31.8694C17.8115 32.4079 16.9385 32.4079 16.4 31.8694C15.8615 31.3309 15.8615 30.4579 16.4 29.9194L25.2061 21.1133H5.29297C4.60261 21.1133 4.04297 20.5536 4.04297 19.8633C4.04297 19.1729 4.60261 18.6133 5.29297 18.6133H25.2063L16.4 9.80694C15.8615 9.26845 15.8615 8.39537 16.4 7.85688Z"
      fill="currentColor"
    />
  </symbol>
</svg>
