<svg
  width="12"
  height="12"
  viewBox="0 0 12 12"
  fill="none"
  xmlns="http://www.w3.org/2000/svg"
>
  <path
    fill-rule="evenodd"
    clip-rule="evenodd"
    d="M10.7871 1.95703C10.7871 1.74992 10.6192 1.58203 10.4121 1.58203C10.205 1.58203 10.0371 1.74992 10.0371 1.95703V10.043C10.0371 10.2501 10.205 10.418 10.4121 10.418C10.6192 10.418 10.7871 10.2501 10.7871 10.043V1.95703ZM4.91999 2.35712C5.08154 2.19557 5.34346 2.19557 5.50501 2.35712L8.81438 5.6665C8.97593 5.82805 8.97593 6.08997 8.81438 6.25152L5.50501 9.56089C5.34346 9.72244 5.08154 9.72244 4.91999 9.56089C4.75844 9.39935 4.75844 9.13742 4.91999 8.97587L7.56188 6.33398H1.58789C1.38078 6.33398 1.21289 6.16609 1.21289 5.95898C1.21289 5.75188 1.38078 5.58398 1.58789 5.58398H7.56183L4.91999 2.94214C4.75844 2.7806 4.75844 2.51867 4.91999 2.35712Z"
    fill="currentColor"
  />
</svg>
