<svg
  width="32"
  height="32"
  viewBox="0 0 32 32"
  fill="none"
  xmlns="http://www.w3.org/2000/svg"
>
  <path
    fill-rule="evenodd"
    clip-rule="evenodd"
    d="M28.7656 5.21875C28.7656 4.66647 28.3179 4.21875 27.7656 4.21875C27.2133 4.21875 26.7656 4.66647 26.7656 5.21875L26.7656 26.7812C26.7656 27.3335 27.2133 27.7812 27.7656 27.7812C28.3179 27.7812 28.7656 27.3335 28.7656 26.7812L28.7656 5.21875ZM13.12 6.2855C13.5508 5.8547 14.2492 5.8547 14.68 6.2855L23.505 15.1105C23.9358 15.5413 23.9358 16.2398 23.505 16.6706L14.68 25.4956C14.2492 25.9264 13.5508 25.9264 13.12 25.4956C12.6892 25.0648 12.6892 24.3663 13.12 23.9355L20.1648 16.8906H4.23438C3.68209 16.8906 3.23438 16.4429 3.23438 15.8906C3.23438 15.3383 3.68209 14.8906 4.23438 14.8906H20.165L13.12 7.84555C12.6892 7.41476 12.6892 6.7163 13.12 6.2855Z"
    fill="currentColor"
  />
</svg>
