<svg
  width="40"
  height="40"
  viewBox="0 0 40 40"
  fill="none"
  xmlns="http://www.w3.org/2000/svg"
>
  <path
    d="M20.8204 40C25.9344 40 31.0486 38.0266 34.9475 34.1302C42.745 26.3379 42.745 13.6369 34.9475 5.84433C27.1499 -1.9482 14.4404 -1.94802 6.64268 5.84433C-1.15507 13.6367 -1.15489 26.3377 6.64268 34.1302C10.5922 38.0266 15.7063 40 20.8204 40ZM9.17441 8.37446C12.3645 5.18652 16.6177 3.56747 20.8204 3.56747C25.0231 3.56747 29.2258 5.18688 32.4664 8.37446C38.8971 14.8009 38.8971 25.2245 32.4664 31.6509C26.0357 38.0773 15.605 38.0773 9.17441 31.6509C2.74371 25.2245 2.74371 14.8008 9.17441 8.37446Z"
    fill="currentColor"
  />
  <path
    d="M13.7315 22.7957H21.8333C22.7954 22.7957 23.6057 21.986 23.6057 21.0245L23.6053 10.9043C23.6053 9.94279 22.7951 9.13308 21.8329 9.13308C20.8708 9.13308 20.0605 9.94278 20.0605 10.9043V19.2533L13.7315 19.2536C12.7694 19.2536 11.9591 20.0633 11.9591 21.0248C11.9591 21.986 12.7694 22.7957 13.7315 22.7957Z"
    fill="currentColor"
  />
</svg>
