<svg
  width="12"
  height="12"
  viewBox="0 0 12 12"
  fill="none"
  xmlns="http://www.w3.org/2000/svg"
>
  <path
    d="M6.80314 12C8.33734 12 9.8716 11.408 11.0413 10.2391C13.3805 7.90136 13.3805 4.09106 11.0413 1.7533C8.70199 -0.58446 4.88915 -0.584406 2.54982 1.7533C0.210498 4.091 0.210552 7.9013 2.54982 10.2391C3.73467 11.408 5.26891 12 6.80314 12ZM3.30934 2.51234C4.26637 1.55596 5.54233 1.07024 6.80314 1.07024C8.06394 1.07024 9.32477 1.55606 10.2969 2.51234C12.2261 4.44026 12.2261 7.56736 10.2969 9.49526C8.36772 11.4232 5.23852 11.4232 3.30934 9.49526C1.38013 7.56734 1.38013 4.44023 3.30934 2.51234Z"
    fill="currentColor"
  />
  <path
    d="M4.67648 6.8387H7.107C7.39564 6.8387 7.63872 6.59579 7.63872 6.30734L7.63861 3.27129C7.63861 2.98284 7.39554 2.73992 7.10689 2.73992C6.81825 2.73992 6.57518 2.98283 6.57518 3.27129V5.77598L4.67648 5.77608C4.38784 5.77608 4.14476 6.01899 4.14476 6.30745C4.14476 6.59579 4.38783 6.8387 4.67648 6.8387Z"
    fill="currentColor"
  />
</svg>
