<svg
  width="24"
  height="24"
  viewBox="0 0 24 24"
  fill="none"
  xmlns="http://www.w3.org/2000/svg"
>
  <path
    d="M12.8107 24C15.8792 24 18.9477 22.8159 21.287 20.4781C25.9655 15.8027 25.9655 8.18212 21.287 3.5066C16.6085 -1.16892 8.98276 -1.16881 4.30411 3.5066C-0.374537 8.18201 -0.374428 15.8026 4.30411 20.4781C6.67382 22.8159 9.74228 24 12.8107 24ZM5.82315 5.02468C7.7372 3.11191 10.2891 2.14048 12.8107 2.14048C15.3323 2.14048 17.854 3.11213 19.7983 5.02468C23.6567 8.88052 23.6567 15.1347 19.7983 18.9905C15.9399 22.8464 9.68152 22.8464 5.82315 18.9905C1.96473 15.1347 1.96473 8.88046 5.82315 5.02468Z"
    fill="currentColor"
  />
  <path
    d="M8.55743 13.6774H13.4185C13.9958 13.6774 14.4819 13.1916 14.4819 12.6147L14.4817 6.54258C14.4817 5.96567 13.9955 5.47985 13.4183 5.47985C12.841 5.47985 12.3548 5.96567 12.3548 6.54258V11.552L8.55743 11.5522C7.98014 11.5522 7.49399 12.038 7.49399 12.6149C7.49399 13.1916 7.98013 13.6774 8.55743 13.6774Z"
    fill="currentColor"
  />
</svg>
