<svg
  width="16"
  height="16"
  viewBox="0 0 16 16"
  fill="none"
  xmlns="http://www.w3.org/2000/svg"
>
  <path
    d="M8.80567 16C10.8513 16 12.897 15.2106 14.4565 13.6521C17.5755 10.5351 17.5755 5.45474 14.4565 2.33773C11.3375 -0.77928 6.25368 -0.779208 3.13458 2.33773C0.0154865 5.45467 0.015559 10.5351 3.13458 13.6521C4.71439 15.2106 6.76003 16 8.80567 16ZM4.14728 3.34979C5.42331 2.07461 7.1246 1.42699 8.80567 1.42699C10.4867 1.42699 12.1679 2.07475 13.4641 3.34979C16.0363 5.92035 16.0363 10.0898 13.4641 12.6603C10.8918 15.2309 6.71952 15.2309 4.14728 12.6603C1.575 10.0898 1.575 5.92031 4.14728 3.34979Z"
    fill="currentColor"
  />
  <path
    d="M5.97013 9.11827H9.21082C9.59568 9.11827 9.91978 8.79439 9.91978 8.40979L9.91964 4.36172C9.91964 3.97712 9.59554 3.65323 9.21068 3.65323C8.82582 3.65323 8.50172 3.97711 8.50172 4.36172V7.7013L5.97013 7.70144C5.58527 7.70144 5.26117 8.02532 5.26117 8.40993C5.26117 8.79439 5.58526 9.11827 5.97013 9.11827Z"
    fill="currentColor"
  />
</svg>
