<svg
  width="32"
  height="32"
  viewBox="0 0 32 32"
  fill="none"
  xmlns="http://www.w3.org/2000/svg"
>
  <path
    d="M16.8153 32C20.9065 32 24.9979 30.4213 28.117 27.3042C34.355 21.0703 34.355 10.9095 28.117 4.67546C21.8789 -1.55856 11.7113 -1.55842 5.47315 4.67546C-0.765048 10.9093 -0.764903 21.0701 5.47315 27.3042C8.63275 30.4213 12.724 32 16.8153 32ZM7.49854 6.69957C10.0506 4.14922 13.4532 2.85398 16.8153 2.85398C20.1775 2.85398 23.5397 4.14951 26.1321 6.69957C31.2767 11.8407 31.2767 20.1796 26.1321 25.3207C20.9876 30.4618 12.643 30.4618 7.49854 25.3207C2.35398 20.1796 2.35398 11.8406 7.49854 6.69957Z"
    fill="currentColor"
  />
  <path
    d="M11.1442 18.2365H17.6256C18.3953 18.2365 19.0435 17.5888 19.0435 16.8196L19.0433 8.72344C19.0433 7.95423 18.3951 7.30647 17.6253 7.30647C16.8556 7.30647 16.2074 7.95422 16.2074 8.72344V15.4026L11.1442 15.4029C10.3745 15.4029 9.72633 16.0506 9.72633 16.8199C9.72633 17.5888 10.3745 18.2365 11.1442 18.2365Z"
    fill="currentColor"
  />
</svg>
