<svg>
  <symbol
    fill="none"
    xmlns="http://www.w3.org/2000/svg"
    viewBox="0 0 12 12"
    id="size-12"
  >
    <path
      d="M6.80314 12C8.33734 12 9.8716 11.408 11.0413 10.2391C13.3805 7.90136 13.3805 4.09106 11.0413 1.7533C8.70199 -0.58446 4.88915 -0.584406 2.54982 1.7533C0.210498 4.091 0.210552 7.9013 2.54982 10.2391C3.73467 11.408 5.26891 12 6.80314 12ZM3.30934 2.51234C4.26637 1.55596 5.54233 1.07024 6.80314 1.07024C8.06394 1.07024 9.32477 1.55606 10.2969 2.51234C12.2261 4.44026 12.2261 7.56736 10.2969 9.49526C8.36772 11.4232 5.23852 11.4232 3.30934 9.49526C1.38013 7.56734 1.38013 4.44023 3.30934 2.51234Z"
      fill="currentColor"
    />
    <path
      d="M4.67648 6.8387H7.107C7.39564 6.8387 7.63872 6.59579 7.63872 6.30734L7.63861 3.27129C7.63861 2.98284 7.39554 2.73992 7.10689 2.73992C6.81825 2.73992 6.57518 2.98283 6.57518 3.27129V5.77598L4.67648 5.77608C4.38784 5.77608 4.14476 6.01899 4.14476 6.30745C4.14476 6.59579 4.38783 6.8387 4.67648 6.8387Z"
      fill="currentColor"
    />
  </symbol>

  <symbol
    fill="none"
    xmlns="http://www.w3.org/2000/svg"
    viewBox="0 0 16 16"
    id="size-16"
  >
    <path
      d="M8.80567 16C10.8513 16 12.897 15.2106 14.4565 13.6521C17.5755 10.5351 17.5755 5.45474 14.4565 2.33773C11.3375 -0.77928 6.25368 -0.779208 3.13458 2.33773C0.0154865 5.45467 0.015559 10.5351 3.13458 13.6521C4.71439 15.2106 6.76003 16 8.80567 16ZM4.14728 3.34979C5.42331 2.07461 7.1246 1.42699 8.80567 1.42699C10.4867 1.42699 12.1679 2.07475 13.4641 3.34979C16.0363 5.92035 16.0363 10.0898 13.4641 12.6603C10.8918 15.2309 6.71952 15.2309 4.14728 12.6603C1.575 10.0898 1.575 5.92031 4.14728 3.34979Z"
      fill="currentColor"
    />
    <path
      d="M5.97013 9.11827H9.21082C9.59568 9.11827 9.91978 8.79439 9.91978 8.40979L9.91964 4.36172C9.91964 3.97712 9.59554 3.65323 9.21068 3.65323C8.82582 3.65323 8.50172 3.97711 8.50172 4.36172V7.7013L5.97013 7.70144C5.58527 7.70144 5.26117 8.02532 5.26117 8.40993C5.26117 8.79439 5.58526 9.11827 5.97013 9.11827Z"
      fill="currentColor"
    />
  </symbol>

  <symbol
    fill="none"
    xmlns="http://www.w3.org/2000/svg"
    viewBox="0 0 24 24"
    id="size-24"
  >
    <path
      d="M12.8107 24C15.8792 24 18.9477 22.8159 21.287 20.4781C25.9655 15.8027 25.9655 8.18212 21.287 3.5066C16.6085 -1.16892 8.98276 -1.16881 4.30411 3.5066C-0.374537 8.18201 -0.374428 15.8026 4.30411 20.4781C6.67382 22.8159 9.74228 24 12.8107 24ZM5.82315 5.02468C7.7372 3.11191 10.2891 2.14048 12.8107 2.14048C15.3323 2.14048 17.854 3.11213 19.7983 5.02468C23.6567 8.88052 23.6567 15.1347 19.7983 18.9905C15.9399 22.8464 9.68152 22.8464 5.82315 18.9905C1.96473 15.1347 1.96473 8.88046 5.82315 5.02468Z"
      fill="currentColor"
    />
    <path
      d="M8.55743 13.6774H13.4185C13.9958 13.6774 14.4819 13.1916 14.4819 12.6147L14.4817 6.54258C14.4817 5.96567 13.9955 5.47985 13.4183 5.47985C12.841 5.47985 12.3548 5.96567 12.3548 6.54258V11.552L8.55743 11.5522C7.98014 11.5522 7.49399 12.038 7.49399 12.6149C7.49399 13.1916 7.98013 13.6774 8.55743 13.6774Z"
      fill="currentColor"
    />
  </symbol>

  <symbol
    fill="none"
    xmlns="http://www.w3.org/2000/svg"
    viewBox="0 0 32 32"
    id="size-32"
  >
    <path
      d="M16.8153 32C20.9065 32 24.9979 30.4213 28.117 27.3042C34.355 21.0703 34.355 10.9095 28.117 4.67546C21.8789 -1.55856 11.7113 -1.55842 5.47315 4.67546C-0.765048 10.9093 -0.764903 21.0701 5.47315 27.3042C8.63275 30.4213 12.724 32 16.8153 32ZM7.49854 6.69957C10.0506 4.14922 13.4532 2.85398 16.8153 2.85398C20.1775 2.85398 23.5397 4.14951 26.1321 6.69957C31.2767 11.8407 31.2767 20.1796 26.1321 25.3207C20.9876 30.4618 12.643 30.4618 7.49854 25.3207C2.35398 20.1796 2.35398 11.8406 7.49854 6.69957Z"
      fill="currentColor"
    />
    <path
      d="M11.1442 18.2365H17.6256C18.3953 18.2365 19.0435 17.5888 19.0435 16.8196L19.0433 8.72344C19.0433 7.95423 18.3951 7.30647 17.6253 7.30647C16.8556 7.30647 16.2074 7.95422 16.2074 8.72344V15.4026L11.1442 15.4029C10.3745 15.4029 9.72633 16.0506 9.72633 16.8199C9.72633 17.5888 10.3745 18.2365 11.1442 18.2365Z"
      fill="currentColor"
    />
  </symbol>

  <symbol
    fill="none"
    xmlns="http://www.w3.org/2000/svg"
    viewBox="0 0 40 40"
    id="size-40"
  >
    <path
      d="M20.8204 40C25.9344 40 31.0486 38.0266 34.9475 34.1302C42.745 26.3379 42.745 13.6369 34.9475 5.84433C27.1499 -1.9482 14.4404 -1.94802 6.64268 5.84433C-1.15507 13.6367 -1.15489 26.3377 6.64268 34.1302C10.5922 38.0266 15.7063 40 20.8204 40ZM9.17441 8.37446C12.3645 5.18652 16.6177 3.56747 20.8204 3.56747C25.0231 3.56747 29.2258 5.18688 32.4664 8.37446C38.8971 14.8009 38.8971 25.2245 32.4664 31.6509C26.0357 38.0773 15.605 38.0773 9.17441 31.6509C2.74371 25.2245 2.74371 14.8008 9.17441 8.37446Z"
      fill="currentColor"
    />
    <path
      d="M13.7315 22.7957H21.8333C22.7954 22.7957 23.6057 21.986 23.6057 21.0245L23.6053 10.9043C23.6053 9.94279 22.7951 9.13308 21.8329 9.13308C20.8708 9.13308 20.0605 9.94278 20.0605 10.9043V19.2533L13.7315 19.2536C12.7694 19.2536 11.9591 20.0633 11.9591 21.0248C11.9591 21.986 12.7694 22.7957 13.7315 22.7957Z"
      fill="currentColor"
    />
  </symbol>
</svg>
