<svg
  width="12"
  height="12"
  viewBox="0 0 12 12"
  fill="none"
  xmlns="http://www.w3.org/2000/svg"
>
  <path
    fill-rule="evenodd"
    clip-rule="evenodd"
    d="M0.000204776 8.84755C0.00455734 9.00797 0.0725246 9.16084 0.19027 9.27544L2.79572 11.8092C2.96257 11.9714 3.20744 12.0365 3.43835 11.98C3.66915 11.9236 3.85075 11.754 3.91492 11.5353C3.97898 11.3168 3.9157 11.0822 3.74885 10.92L2.24885 9.46273H11.3231C11.5016 9.46518 11.6736 9.39927 11.8007 9.28C11.9278 9.16062 11.9994 8.99776 11.9994 8.82778C11.9994 8.65781 11.9278 8.49485 11.8007 8.37557C11.6736 8.25619 11.5016 8.19039 11.3231 8.19273H2.25685L3.74905 6.74168C3.87628 6.62198 3.94771 6.45871 3.94726 6.28841C3.94682 6.118 3.87461 5.95504 3.74682 5.83587C3.61891 5.71681 3.44625 5.65164 3.26748 5.65494C3.08868 5.65834 2.91882 5.72988 2.79593 5.85373L0.190482 8.38748C0.064476 8.51005 -0.00426093 8.67608 0.000204776 8.84755ZM0.000204776 3.19981C0.00299494 3.36799 0.0756502 3.52829 0.202324 3.64544C0.32911 3.7627 0.49941 3.82722 0.675981 3.82488H9.74368L8.25148 5.27593C8.12324 5.39669 8.05181 5.56178 8.05349 5.73356C8.05527 5.90311 8.12804 6.06491 8.25583 6.18302C8.38351 6.30112 8.55549 6.36576 8.7334 6.36235C8.91142 6.35895 9.0806 6.28794 9.20326 6.16516L11.8101 3.63141C11.9318 3.51278 12 3.35342 12 3.18739C12 3.02145 11.9318 2.8621 11.8101 2.74348L9.20326 0.209731C9.08161 0.0812084 8.91029 0.00562648 8.72883 0.000311613C8.54725 -0.00510993 8.37135 0.0603726 8.24166 0.181346C8.11186 0.30232 8.03965 0.468589 8.04144 0.641533C8.04334 0.814491 8.11912 0.979148 8.25148 1.09769L9.75014 2.55491H0.675869C0.495624 2.55257 0.322184 2.61986 0.194842 2.74137C0.067499 2.86277 -0.00258665 3.02812 0.000204776 3.19981Z"
    fill="currentColor"
  />
</svg>
