<svg
  width="32"
  height="32"
  viewBox="0 0 32 32"
  fill="none"
  xmlns="http://www.w3.org/2000/svg"
>
  <path
    fill-rule="evenodd"
    clip-rule="evenodd"
    d="M0.00054607 23.5935C0.0121529 24.0212 0.193399 24.4289 0.507387 24.7345L7.45526 31.4912C7.9002 31.9237 8.55316 32.0972 9.16893 31.9467C9.78441 31.7962 10.2687 31.344 10.4398 30.7609C10.6106 30.1781 10.4419 29.5525 9.99693 29.1199L5.99694 25.234H30.195C30.6709 25.2405 31.1295 25.0647 31.4685 24.7467C31.8075 24.4283 31.9983 23.994 31.9983 23.5408C31.9983 23.0875 31.8075 22.6529 31.4685 22.3349C31.1295 22.0165 30.6709 21.841 30.195 21.8473H6.01827L9.99746 17.9778C10.3367 17.6586 10.5272 17.2232 10.526 16.7691C10.5248 16.3147 10.3323 15.8801 9.99151 15.5623C9.65044 15.2448 9.18999 15.0711 8.71327 15.0798C8.23648 15.0889 7.78352 15.2797 7.45582 15.6099L0.507951 22.3666C0.171936 22.6935 -0.0113625 23.1362 0.00054607 23.5935ZM0.00054607 8.53284C0.00798651 8.9813 0.201734 9.40876 0.539531 9.72118C0.877626 10.0339 1.33176 10.2059 1.80261 10.1997H25.9831L22.0039 14.0691C21.662 14.3912 21.4715 14.8314 21.476 15.2895C21.4807 15.7416 21.6748 16.1731 22.0156 16.4881C22.356 16.803 22.8146 16.9754 23.2891 16.9663C23.7638 16.9572 24.2149 16.7678 24.542 16.4404L31.4935 9.68377C31.8182 9.36741 32 8.94246 32 8.49971C32 8.0572 31.8182 7.63228 31.4935 7.31595L24.542 0.559287C24.2176 0.216559 23.7608 0.0150063 23.2769 0.000833294C22.7927 -0.0136242 22.3236 0.160996 21.9778 0.483593C21.6316 0.806189 21.4391 1.24957 21.4438 1.71076C21.4489 2.17198 21.651 2.61107 22.004 2.92718L26.0004 6.8131H1.80232C1.32166 6.80687 0.859158 6.98631 0.519578 7.31033C0.179997 7.63406 -0.00689773 8.07499 0.00054607 8.53284Z"
    fill="currentColor"
  />
</svg>
