<svg
  width="16"
  height="16"
  viewBox="0 0 16 16"
  fill="none"
  xmlns="http://www.w3.org/2000/svg"
>
  <path
    fill-rule="evenodd"
    clip-rule="evenodd"
    d="M0.000273035 11.7967C0.00607645 12.0106 0.0966994 12.2145 0.253693 12.3673L3.72763 15.7456C3.9501 15.9619 4.27658 16.0486 4.58447 15.9734C4.8922 15.8981 5.13433 15.672 5.21989 15.3805C5.30531 15.089 5.22093 14.7762 4.99846 14.5599L2.99847 12.617H15.0975C15.3354 12.6202 15.5648 12.5324 15.7343 12.3733C15.9037 12.2142 15.9991 11.997 15.9991 11.7704C15.9991 11.5437 15.9037 11.3265 15.7343 11.1674C15.5648 11.0083 15.3354 10.9205 15.0975 10.9236H3.00914L4.99873 8.98891C5.16837 8.82931 5.26361 8.61162 5.26302 8.38454C5.26242 8.15734 5.16614 7.94005 4.99576 7.78116C4.82522 7.62241 4.595 7.53553 4.35663 7.53992C4.11824 7.54446 3.89176 7.63985 3.72791 7.80497L0.253975 11.1833C0.0859681 11.3467 -0.00568124 11.5681 0.000273035 11.7967ZM0.000273035 4.26642C0.00399326 4.49065 0.100867 4.70438 0.269766 4.86059C0.438813 5.01693 0.665879 5.10296 0.901307 5.09984H12.9916L11.002 7.03457C10.831 7.19559 10.7358 7.41571 10.738 7.64474C10.7404 7.87082 10.8374 8.08655 11.0078 8.24403C11.178 8.4015 11.4073 8.48767 11.6445 8.48314C11.8819 8.4786 12.1075 8.38392 12.271 8.22021L15.7467 4.84188C15.9091 4.6837 16 4.47123 16 4.24985C16 4.0286 15.9091 3.81614 15.7467 3.65797L12.271 0.279641C12.1088 0.108277 11.8804 0.00750134 11.6384 0.000414848C11.3963 -0.00681388 11.1618 0.0804962 10.9889 0.241795C10.8158 0.403093 10.7195 0.624785 10.7219 0.855377C10.7244 1.08599 10.8255 1.30553 11.002 1.46359L13.0002 3.40655H0.901159C0.660832 3.40343 0.429579 3.49315 0.259789 3.65516C0.0899987 3.81703 -0.00344886 4.0375 0.000273035 4.26642Z"
    fill="currentColor"
  />
</svg>
