<svg
  width="40"
  height="40"
  viewBox="0 0 40 40"
  fill="none"
  xmlns="http://www.w3.org/2000/svg"
>
  <path
    fill-rule="evenodd"
    clip-rule="evenodd"
    d="M0.000682587 29.4918C0.0151911 30.0266 0.241749 30.5361 0.634234 30.9181L9.31907 39.364C9.87524 39.9047 10.6915 40.1215 11.4612 39.9334C12.2305 39.7452 12.8358 39.18 13.0497 38.4511C13.2633 37.7226 13.0523 36.9406 12.4962 36.3998L7.49617 31.5424H37.7437C38.3386 31.5506 38.9119 31.3309 39.3356 30.9333C39.7594 30.5354 39.9978 29.9925 39.9978 29.4259C39.9978 28.8594 39.7594 28.3162 39.3356 27.9186C38.9119 27.5206 38.3386 27.3013 37.7437 27.3091H7.52284L12.4968 22.4723C12.9209 22.0733 13.159 21.529 13.1575 20.9614C13.1561 20.3933 12.9154 19.8501 12.4894 19.4529C12.063 19.056 11.4875 18.8388 10.8916 18.8498C10.2956 18.8611 9.7294 19.0996 9.31978 19.5124L0.634938 27.9583C0.21492 28.3668 -0.0142031 28.9203 0.000682587 29.4918ZM0.000682587 10.6661C0.00998314 11.2266 0.252167 11.761 0.674414 12.1515C1.09703 12.5423 1.6647 12.7574 2.25327 12.7496L32.4789 12.7496L27.5049 17.5864C27.0775 17.989 26.8394 18.5393 26.845 19.1119C26.8509 19.677 27.0935 20.2164 27.5194 20.6101C27.945 21.0037 28.5183 21.2192 29.1113 21.2079C29.7047 21.1965 30.2687 20.9598 30.6775 20.5505L39.3668 12.1047C39.7727 11.7093 40 11.1781 40 10.6246C40 10.0715 39.7727 9.54035 39.3668 9.14493L30.6775 0.69911C30.272 0.2707 29.701 0.0187594 29.0961 0.00104314C28.4908 -0.0170287 27.9045 0.201246 27.4722 0.604492C27.0395 1.00774 26.7988 1.56197 26.8048 2.13845C26.8111 2.71497 27.0637 3.26383 27.5049 3.65898L32.5005 8.51638L2.2529 8.51638C1.65208 8.50859 1.07395 8.73289 0.649472 9.13791C0.224997 9.54257 -0.00862216 10.0937 0.000682587 10.6661Z"
    fill="currentColor"
  />
</svg>
