<svg
  width="24"
  height="24"
  viewBox="0 0 24 24"
  fill="none"
  xmlns="http://www.w3.org/2000/svg"
>
  <path
    fill-rule="evenodd"
    clip-rule="evenodd"
    d="M0.000409552 17.6951C0.00911468 18.0159 0.145049 18.3217 0.38054 18.5509L5.59144 23.6184C5.92515 23.9428 6.41487 24.0729 6.8767 23.96C7.3383 23.8471 7.7015 23.508 7.82984 23.0707C7.95796 22.6336 7.8314 22.1643 7.4977 21.8399L4.4977 18.9255H22.6462C23.0032 18.9304 23.3472 18.7985 23.6014 18.56C23.8556 18.3212 23.9987 17.9955 23.9987 17.6556C23.9987 17.3156 23.8556 16.9897 23.6014 16.7511C23.3471 16.5124 23.0032 16.3808 22.6462 16.3855H4.5137L7.4981 13.4834C7.75256 13.244 7.89542 12.9174 7.89453 12.5768C7.89363 12.236 7.74921 11.9101 7.49363 11.6717C7.23783 11.4336 6.89249 11.3033 6.53495 11.3099C6.17736 11.3167 5.83764 11.4598 5.59187 11.7075L0.380963 16.775C0.128952 17.0201 -0.00852186 17.3522 0.000409552 17.6951ZM0.000409552 6.39963C0.00598988 6.73598 0.1513 7.05657 0.404649 7.29089C0.65822 7.52539 0.998819 7.65444 1.35196 7.64977H19.4874L16.503 10.5519C16.2465 10.7934 16.1036 11.1236 16.107 11.4671C16.1105 11.8062 16.2561 12.1298 16.5117 12.366C16.767 12.6022 17.111 12.7315 17.4668 12.7247C17.8228 12.7179 18.1612 12.5759 18.4065 12.3303L23.6201 7.26283C23.8636 7.02555 24 6.70685 24 6.37478C24 6.0429 23.8636 5.72421 23.6201 5.48696L18.4065 0.419466C18.1632 0.16242 17.8206 0.0112552 17.4577 0.000625477C17.0945 -0.0102176 16.7427 0.120747 16.4833 0.362695C16.2237 0.604643 16.0793 0.937181 16.0829 1.28307C16.0867 1.62898 16.2382 1.9583 16.503 2.19539L19.5003 5.10983H1.35174C0.991248 5.10515 0.644368 5.23973 0.389683 5.48275C0.134998 5.72554 -0.00517329 6.05625 0.000409552 6.39963Z"
    fill="currentColor"
  />
</svg>
