<svg
  width="12"
  height="12"
  viewBox="0 0 12 12"
  fill="none"
  xmlns="http://www.w3.org/2000/svg"
>
  <path
    d="M6 0C2.68625 0 0 2.68625 0 6C0 9.31375 2.68625 12 6 12C9.31352 12 12 9.31375 12 6C12 2.68625 9.31375 0 6 0V0ZM5.15139 3.53741C5.15139 3.06452 5.53138 2.68118 6 2.68118C6.46871 2.68118 6.84861 3.06442 6.84861 3.53741V6.10578C6.84861 6.57868 6.46871 6.96192 6 6.96192C5.53148 6.96192 5.15139 6.57868 5.15139 6.10578V3.53741ZM6 9.81989C5.50076 9.81989 5.09599 9.41159 5.09599 8.90782C5.09599 8.40414 5.50076 7.99574 6 7.99574C6.49933 7.99574 6.9041 8.40414 6.9041 8.90782C6.90401 9.41159 6.49933 9.81989 6 9.81989Z"
    fill="currentColor"
  />
</svg>
