<svg
  width="40"
  height="40"
  viewBox="0 0 40 40"
  fill="none"
  xmlns="http://www.w3.org/2000/svg"
>
  <path
    d="M20 0C8.95416 0 0 8.95416 0 20C0 31.0458 8.95416 40 20 40C31.0451 40 40 31.0458 40 20C40 8.95416 31.0458 0 20 0V0ZM17.1713 11.7914C17.1713 10.2151 18.4379 8.93727 20 8.93727C21.5624 8.93727 22.8287 10.2147 22.8287 11.7914V20.3526C22.8287 21.9289 21.5624 23.2064 20 23.2064C18.4383 23.2064 17.1713 21.9289 17.1713 20.3526V11.7914ZM20 32.733C18.3359 32.733 16.9866 31.372 16.9866 29.6927C16.9866 28.0138 18.3359 26.6525 20 26.6525C21.6644 26.6525 23.0137 28.0138 23.0137 29.6927C23.0134 31.372 21.6644 32.733 20 32.733Z"
    fill="currentColor"
  />
</svg>
