<svg
  width="32"
  height="32"
  viewBox="0 0 32 32"
  fill="none"
  xmlns="http://www.w3.org/2000/svg"
>
  <path
    d="M16 0C7.16333 0 0 7.16333 0 16C0 24.8367 7.16333 32 16 32C24.8361 32 32 24.8367 32 16C32 7.16333 24.8367 0 16 0V0ZM13.737 9.4331C13.737 8.17205 14.7504 7.14981 16 7.14981C17.2499 7.14981 18.263 8.1718 18.263 9.4331V16.2821C18.263 17.5431 17.2499 18.5651 16 18.5651C14.7506 18.5651 13.737 17.5431 13.737 16.2821V9.4331ZM16 26.1864C14.6687 26.1864 13.5893 25.0976 13.5893 23.7542C13.5893 22.411 14.6687 21.322 16 21.322C17.3315 21.322 18.4109 22.411 18.4109 23.7542C18.4107 25.0976 17.3315 26.1864 16 26.1864Z"
    fill="currentColor"
  />
</svg>
