<svg
  width="24"
  height="24"
  viewBox="0 0 24 24"
  fill="none"
  xmlns="http://www.w3.org/2000/svg"
>
  <path
    d="M12 0C5.3725 0 0 5.3725 0 12C0 18.6275 5.3725 24 12 24C18.627 24 24 18.6275 24 12C24 5.3725 18.6275 0 12 0V0ZM10.3028 7.07482C10.3028 6.12903 11.0628 5.36236 12 5.36236C12.9374 5.36236 13.6972 6.12885 13.6972 7.07482V12.2116C13.6972 13.1574 12.9374 13.9238 12 13.9238C11.063 13.9238 10.3028 13.1574 10.3028 12.2116V7.07482ZM12 19.6398C11.0015 19.6398 10.192 18.8232 10.192 17.8156C10.192 16.8083 11.0015 15.9915 12 15.9915C12.9987 15.9915 13.8082 16.8083 13.8082 17.8156C13.808 18.8232 12.9987 19.6398 12 19.6398Z"
    fill="currentColor"
  />
</svg>
