<svg
  width="16"
  height="16"
  viewBox="0 0 16 16"
  fill="none"
  xmlns="http://www.w3.org/2000/svg"
>
  <path
    d="M8 0C3.58166 0 0 3.58166 0 8C0 12.4183 3.58166 16 8 16C12.418 16 16 12.4183 16 8C16 3.58166 12.4183 0 8 0V0ZM6.86852 4.71655C6.86852 4.08602 7.37518 3.57491 8 3.57491C8.62495 3.57491 9.13148 4.0859 9.13148 4.71655V8.14105C9.13148 8.77157 8.62495 9.28257 8 9.28257C7.3753 9.28257 6.86852 8.77157 6.86852 8.14105V4.71655ZM8 13.0932C7.33435 13.0932 6.79465 12.5488 6.79465 11.8771C6.79465 11.2055 7.33435 10.661 8 10.661C8.66577 10.661 9.20547 11.2055 9.20547 11.8771C9.20535 12.5488 8.66577 13.0932 8 13.0932Z"
    fill="currentColor"
  />
</svg>
