<svg>
  <symbol
    fill="none"
    xmlns="http://www.w3.org/2000/svg"
    viewBox="0 0 12 12"
    id="size-12"
  >
    <path
      d="M6 0C2.68625 0 0 2.68625 0 6C0 9.31375 2.68625 12 6 12C9.31352 12 12 9.31375 12 6C12 2.68625 9.31375 0 6 0V0ZM5.15139 3.53741C5.15139 3.06452 5.53138 2.68118 6 2.68118C6.46871 2.68118 6.84861 3.06442 6.84861 3.53741V6.10578C6.84861 6.57868 6.46871 6.96192 6 6.96192C5.53148 6.96192 5.15139 6.57868 5.15139 6.10578V3.53741ZM6 9.81989C5.50076 9.81989 5.09599 9.41159 5.09599 8.90782C5.09599 8.40414 5.50076 7.99574 6 7.99574C6.49933 7.99574 6.9041 8.40414 6.9041 8.90782C6.90401 9.41159 6.49933 9.81989 6 9.81989Z"
      fill="currentColor"
    />
  </symbol>

  <symbol
    fill="none"
    xmlns="http://www.w3.org/2000/svg"
    viewBox="0 0 16 16"
    id="size-16"
  >
    <path
      d="M8 0C3.58166 0 0 3.58166 0 8C0 12.4183 3.58166 16 8 16C12.418 16 16 12.4183 16 8C16 3.58166 12.4183 0 8 0V0ZM6.86852 4.71655C6.86852 4.08602 7.37518 3.57491 8 3.57491C8.62495 3.57491 9.13148 4.0859 9.13148 4.71655V8.14105C9.13148 8.77157 8.62495 9.28257 8 9.28257C7.3753 9.28257 6.86852 8.77157 6.86852 8.14105V4.71655ZM8 13.0932C7.33435 13.0932 6.79465 12.5488 6.79465 11.8771C6.79465 11.2055 7.33435 10.661 8 10.661C8.66577 10.661 9.20547 11.2055 9.20547 11.8771C9.20535 12.5488 8.66577 13.0932 8 13.0932Z"
      fill="currentColor"
    />
  </symbol>

  <symbol
    fill="none"
    xmlns="http://www.w3.org/2000/svg"
    viewBox="0 0 24 24"
    id="size-24"
  >
    <path
      d="M12 0C5.3725 0 0 5.3725 0 12C0 18.6275 5.3725 24 12 24C18.627 24 24 18.6275 24 12C24 5.3725 18.6275 0 12 0V0ZM10.3028 7.07482C10.3028 6.12903 11.0628 5.36236 12 5.36236C12.9374 5.36236 13.6972 6.12885 13.6972 7.07482V12.2116C13.6972 13.1574 12.9374 13.9238 12 13.9238C11.063 13.9238 10.3028 13.1574 10.3028 12.2116V7.07482ZM12 19.6398C11.0015 19.6398 10.192 18.8232 10.192 17.8156C10.192 16.8083 11.0015 15.9915 12 15.9915C12.9987 15.9915 13.8082 16.8083 13.8082 17.8156C13.808 18.8232 12.9987 19.6398 12 19.6398Z"
      fill="currentColor"
    />
  </symbol>

  <symbol
    fill="none"
    xmlns="http://www.w3.org/2000/svg"
    viewBox="0 0 32 32"
    id="size-32"
  >
    <path
      d="M16 0C7.16333 0 0 7.16333 0 16C0 24.8367 7.16333 32 16 32C24.8361 32 32 24.8367 32 16C32 7.16333 24.8367 0 16 0V0ZM13.737 9.4331C13.737 8.17205 14.7504 7.14981 16 7.14981C17.2499 7.14981 18.263 8.1718 18.263 9.4331V16.2821C18.263 17.5431 17.2499 18.5651 16 18.5651C14.7506 18.5651 13.737 17.5431 13.737 16.2821V9.4331ZM16 26.1864C14.6687 26.1864 13.5893 25.0976 13.5893 23.7542C13.5893 22.411 14.6687 21.322 16 21.322C17.3315 21.322 18.4109 22.411 18.4109 23.7542C18.4107 25.0976 17.3315 26.1864 16 26.1864Z"
      fill="currentColor"
    />
  </symbol>

  <symbol
    fill="none"
    xmlns="http://www.w3.org/2000/svg"
    viewBox="0 0 40 40"
    id="size-40"
  >
    <path
      d="M20 0C8.95416 0 0 8.95416 0 20C0 31.0458 8.95416 40 20 40C31.0451 40 40 31.0458 40 20C40 8.95416 31.0458 0 20 0V0ZM17.1713 11.7914C17.1713 10.2151 18.4379 8.93727 20 8.93727C21.5624 8.93727 22.8287 10.2147 22.8287 11.7914V20.3526C22.8287 21.9289 21.5624 23.2064 20 23.2064C18.4383 23.2064 17.1713 21.9289 17.1713 20.3526V11.7914ZM20 32.733C18.3359 32.733 16.9866 31.372 16.9866 29.6927C16.9866 28.0138 18.3359 26.6525 20 26.6525C21.6644 26.6525 23.0137 28.0138 23.0137 29.6927C23.0134 31.372 21.6644 32.733 20 32.733Z"
      fill="currentColor"
    />
  </symbol>
</svg>
